<svg width="706" height="540" viewBox="0 0 706 540" fill="none" xmlns="http://www.w3.org/2000/svg">
<rect opacity="0.5" x="461" y="46" width="175" height="40" rx="5" fill="white"/>
<path d="M517.455 68.812H517.347C517.275 68.988 517.187 69.156 517.083 69.316C516.979 69.476 516.851 69.62 516.699 69.748C516.547 69.868 516.367 69.964 516.159 70.036C515.959 70.108 515.731 70.144 515.475 70.144C515.067 70.144 514.703 70.048 514.383 69.856C514.071 69.664 513.807 69.384 513.591 69.016C513.375 68.648 513.211 68.2 513.099 67.672C512.995 67.144 512.943 66.548 512.943 65.884C512.943 64.46 513.203 63.372 513.723 62.62C514.243 61.86 515.047 61.48 516.135 61.48C516.567 61.48 516.947 61.54 517.275 61.66C517.603 61.772 517.883 61.936 518.115 62.152C518.355 62.36 518.551 62.612 518.703 62.908C518.855 63.204 518.975 63.532 519.063 63.892L517.383 64.3C517.335 64.124 517.279 63.956 517.215 63.796C517.159 63.628 517.083 63.48 516.987 63.352C516.891 63.224 516.771 63.124 516.627 63.052C516.483 62.972 516.307 62.932 516.099 62.932C515.643 62.932 515.319 63.12 515.127 63.496C514.943 63.872 514.851 64.4 514.851 65.08V66.448C514.851 67.128 514.951 67.672 515.151 68.08C515.359 68.488 515.723 68.692 516.243 68.692C516.651 68.692 516.955 68.572 517.155 68.332C517.355 68.092 517.455 67.784 517.455 67.408V66.796H516.027V65.524H519.063V70H517.455V68.812ZM520.679 70V61.624H526.031V63.1H522.479V65.02H525.911V66.496H522.479V68.524H526.031V70H520.679ZM529.314 64.432H529.182V70H527.646V61.624H529.806L531.714 67.192H531.846V61.624H533.382V70H531.222L529.314 64.432ZM535.069 70V61.624H540.421V63.1H536.869V65.02H540.301V66.496H536.869V68.524H540.421V70H535.069ZM543.993 70H542.217V61.624H545.457C545.865 61.624 546.229 61.688 546.549 61.816C546.869 61.936 547.137 62.112 547.353 62.344C547.577 62.576 547.745 62.856 547.857 63.184C547.969 63.512 548.025 63.88 548.025 64.288C548.025 64.88 547.897 65.388 547.641 65.812C547.385 66.236 547.021 66.516 546.549 66.652L548.193 70H546.225L544.821 66.892H543.993V70ZM545.025 65.5C545.449 65.5 545.741 65.42 545.901 65.26C546.069 65.1 546.153 64.836 546.153 64.468V64.108C546.153 63.74 546.069 63.476 545.901 63.316C545.741 63.156 545.449 63.076 545.025 63.076H543.993V65.5H545.025ZM553.72 70L553.192 67.984H550.9L550.384 70H548.56L550.828 61.624H553.372L555.64 70H553.72ZM552.1 63.364H552.004L551.188 66.532H552.916L552.1 63.364ZM560.195 63.1V70H558.395V63.1H555.983V61.624H562.607V63.1H560.195ZM563.791 70V68.668H565.591V62.956H563.791V61.624H569.191V62.956H567.391V68.668H569.191V70H563.791ZM572.486 64.432H572.354V70H570.818V61.624H572.978L574.886 67.192H575.018V61.624H576.554V70H574.394L572.486 64.432ZM582.213 68.812H582.105C582.033 68.988 581.945 69.156 581.841 69.316C581.737 69.476 581.609 69.62 581.457 69.748C581.305 69.868 581.125 69.964 580.917 70.036C580.717 70.108 580.489 70.144 580.233 70.144C579.825 70.144 579.461 70.048 579.141 69.856C578.829 69.664 578.565 69.384 578.349 69.016C578.133 68.648 577.969 68.2 577.857 67.672C577.753 67.144 577.701 66.548 577.701 65.884C577.701 64.46 577.961 63.372 578.481 62.62C579.001 61.86 579.805 61.48 580.893 61.48C581.325 61.48 581.705 61.54 582.033 61.66C582.361 61.772 582.641 61.936 582.873 62.152C583.113 62.36 583.309 62.612 583.461 62.908C583.613 63.204 583.733 63.532 583.821 63.892L582.141 64.3C582.093 64.124 582.037 63.956 581.973 63.796C581.917 63.628 581.841 63.48 581.745 63.352C581.649 63.224 581.529 63.124 581.385 63.052C581.241 62.972 581.065 62.932 580.857 62.932C580.401 62.932 580.077 63.12 579.885 63.496C579.701 63.872 579.609 64.4 579.609 65.08V66.448C579.609 67.128 579.709 67.672 579.909 68.08C580.117 68.488 580.481 68.692 581.001 68.692C581.409 68.692 581.713 68.572 581.913 68.332C582.113 68.092 582.213 67.784 582.213 67.408V66.796H580.785V65.524H583.821V70H582.213V68.812Z" fill="white"/>
<path d="M549.254 111.655C550.72 111.514 551.795 110.212 551.654 108.746C551.514 107.28 550.212 106.205 548.746 106.346C547.28 106.486 546.205 107.788 546.345 109.254C546.486 110.72 547.788 111.795 549.254 111.655ZM255.799 384.06L255.952 384.536C256.57 384.337 257.193 384.135 257.82 383.929L257.665 383.454L257.509 382.979C256.883 383.184 256.262 383.386 255.646 383.584L255.799 384.06ZM261.481 382.179L261.642 382.653C262.906 382.223 264.188 381.78 265.486 381.324L265.32 380.852L265.155 380.381C263.86 380.836 262.581 381.277 261.32 381.706L261.481 382.179ZM269.089 379.509L269.259 379.979C270.529 379.519 271.813 379.048 273.112 378.564L272.937 378.096L272.763 377.627C271.467 378.11 270.185 378.58 268.918 379.038L269.089 379.509ZM276.653 376.694L276.832 377.161C278.084 376.682 279.349 376.193 280.625 375.693L280.443 375.227L280.26 374.762C278.987 375.261 277.725 375.749 276.475 376.227L276.653 376.694ZM284.185 373.744L284.371 374.208C285.604 373.713 286.847 373.209 288.1 372.695L287.91 372.233L287.72 371.77C286.47 372.283 285.23 372.786 283.999 373.28L284.185 373.744ZM291.689 370.665L291.883 371.127C293.097 370.617 294.32 370.099 295.551 369.572L295.354 369.113L295.158 368.653C293.929 369.179 292.708 369.696 291.496 370.204L291.689 370.665ZM299.068 367.507L299.268 367.966C300.499 367.428 301.736 366.883 302.982 366.328L302.778 365.872L302.575 365.415C301.332 365.968 300.096 366.513 298.868 367.049L299.068 367.507ZM306.429 364.231L306.635 364.686C307.86 364.13 309.091 363.567 310.328 362.995L310.118 362.541L309.908 362.087C308.674 362.658 307.445 363.221 306.222 363.775L306.429 364.231ZM313.774 360.836L313.987 361.288C315.192 360.722 316.402 360.147 317.617 359.566L317.401 359.115L317.185 358.664C315.972 359.244 314.764 359.818 313.562 360.384L313.774 360.836ZM321.057 357.348L321.276 357.798C322.477 357.212 323.683 356.62 324.893 356.02L324.671 355.572L324.449 355.124C323.241 355.723 322.037 356.314 320.838 356.899L321.057 357.348ZM328.266 353.775L328.491 354.222C329.694 353.615 330.901 353.002 332.112 352.381L331.884 351.936L331.656 351.491C330.447 352.111 329.242 352.723 328.041 353.329L328.266 353.775ZM335.462 350.087L335.693 350.531C336.877 349.914 338.064 349.291 339.255 348.661L339.021 348.219L338.787 347.777C337.598 348.406 336.413 349.028 335.231 349.644L335.462 350.087ZM342.597 346.31L342.834 346.751C344.014 346.116 345.198 345.474 346.383 344.826L346.143 344.387L345.903 343.949C344.72 344.595 343.539 345.236 342.36 345.87L342.597 346.31ZM349.663 342.449L349.905 342.886C351.081 342.233 352.26 341.573 353.44 340.908L353.194 340.472L352.949 340.037C351.77 340.701 350.594 341.36 349.42 342.011L349.663 342.449ZM356.71 338.474L356.959 338.908C358.117 338.244 359.277 337.574 360.439 336.898L360.187 336.466L359.936 336.034C358.776 336.709 357.618 337.377 356.461 338.04L356.71 338.474ZM363.673 334.422L363.927 334.853C365.088 334.167 366.251 333.475 367.414 332.777L367.156 332.348L366.899 331.919C365.738 332.616 364.578 333.307 363.418 333.992L363.673 334.422ZM370.59 330.271L370.85 330.698C371.996 330 373.143 329.295 374.29 328.585L374.027 328.16L373.764 327.735C372.619 328.444 371.474 329.147 370.33 329.844L370.59 330.271ZM377.467 326.014L377.734 326.438C378.866 325.726 380 325.008 381.133 324.285L380.864 323.863L380.595 323.442C379.463 324.164 378.332 324.88 377.201 325.591L377.467 326.014ZM384.252 321.684L384.524 322.103C385.654 321.371 386.784 320.632 387.914 319.888L387.639 319.471L387.364 319.053C386.236 319.796 385.108 320.533 383.98 321.264L384.252 321.684ZM391.001 317.239L391.279 317.655C392.393 316.91 393.506 316.16 394.619 315.404L394.338 314.991L394.057 314.577C392.946 315.331 391.835 316.08 390.723 316.824L391.001 317.239ZM397.67 312.709L397.954 313.121C399.064 312.355 400.173 311.584 401.281 310.808L400.994 310.398L400.707 309.989C399.601 310.764 398.494 311.533 397.386 312.298L397.67 312.709ZM404.277 308.078L404.567 308.485C405.662 307.706 406.755 306.922 407.847 306.132L407.554 305.727L407.261 305.321C406.171 306.11 405.08 306.893 403.987 307.671L404.277 308.078ZM410.821 303.343L411.118 303.746C412.2 302.95 413.28 302.15 414.359 301.344L414.06 300.943L413.76 300.542C412.684 301.347 411.605 302.146 410.525 302.94L410.821 303.343ZM417.277 298.519L417.58 298.917C418.652 298.103 419.722 297.284 420.789 296.46L420.484 296.064L420.178 295.668C419.113 296.491 418.045 297.308 416.975 298.121L417.277 298.519ZM423.673 293.582L423.981 293.975C425.037 293.146 426.091 292.312 427.142 291.474L426.83 291.083L426.518 290.692C425.469 291.529 424.418 292.361 423.364 293.188L423.673 293.582ZM429.972 288.554L430.287 288.942C431.333 288.093 432.377 287.239 433.418 286.379L433.099 285.994L432.781 285.608C431.742 286.466 430.701 287.318 429.657 288.165L429.972 288.554ZM436.197 283.414L436.519 283.797C437.548 282.932 438.574 282.063 439.598 281.188L439.273 280.808L438.948 280.428C437.927 281.301 436.903 282.168 435.876 283.031L436.197 283.414ZM442.33 278.172L442.658 278.549C443.674 277.665 444.687 276.776 445.696 275.882L445.365 275.508L445.033 275.134C444.026 276.026 443.016 276.913 442.002 277.795L442.33 278.172ZM448.37 272.823L448.705 273.194C449.704 272.293 450.7 271.387 451.692 270.476L451.354 270.108L451.015 269.74C450.026 270.649 449.032 271.553 448.035 272.452L448.37 272.823ZM454.315 267.363L454.657 267.728C455.639 266.809 456.618 265.885 457.592 264.956L457.247 264.594L456.902 264.232C455.93 265.159 454.954 266.081 453.973 266.998L454.315 267.363ZM460.153 261.798L460.501 262.156C461.467 261.218 462.428 260.275 463.385 259.327L463.033 258.972L462.681 258.617C461.727 259.562 460.768 260.503 459.804 261.439L460.153 261.798ZM465.887 256.117L466.242 256.469C467.189 255.512 468.131 254.551 469.068 253.585L468.709 253.237L468.35 252.889C467.415 253.852 466.475 254.811 465.531 255.765L465.887 256.117ZM471.503 250.327L471.866 250.672C472.793 249.696 473.716 248.715 474.634 247.729L474.268 247.388L473.902 247.047C472.987 248.031 472.066 249.009 471.141 249.983L471.503 250.327ZM477.002 244.421L477.371 244.758C478.278 243.763 479.18 242.764 480.077 241.759L479.704 241.426L479.331 241.093C478.436 242.095 477.537 243.092 476.632 244.084L477.002 244.421ZM482.373 238.401L482.75 238.73C483.636 237.716 484.516 236.696 485.39 235.672L485.01 235.348L484.63 235.023C483.758 236.044 482.88 237.061 481.997 238.073L482.373 238.401ZM487.612 232.265L487.996 232.585C488.859 231.551 489.716 230.513 490.567 229.469L490.179 229.153L489.792 228.837C488.943 229.878 488.089 230.914 487.228 231.945L487.612 232.265ZM492.711 226.012L493.102 226.324C493.941 225.27 494.774 224.212 495.6 223.148L495.205 222.842L494.81 222.535C493.986 223.595 493.156 224.65 492.32 225.701L492.711 226.012ZM497.662 219.642L498.06 219.944C498.874 218.87 499.681 217.792 500.482 216.71L500.08 216.412L499.678 216.115C498.88 217.195 498.075 218.269 497.264 219.339L497.662 219.642ZM502.458 213.154L502.863 213.446C503.651 212.353 504.431 211.256 505.204 210.153L504.795 209.866L504.386 209.579C503.615 210.678 502.837 211.772 502.052 212.862L502.458 213.154ZM507.091 206.548L507.504 206.83C508.263 205.718 509.015 204.6 509.76 203.478L509.343 203.202L508.926 202.925C508.184 204.044 507.434 205.158 506.678 206.266L507.091 206.548ZM511.551 199.826L511.972 200.097C512.702 198.965 513.424 197.828 514.139 196.687L513.715 196.422L513.291 196.156C512.579 197.294 511.859 198.427 511.131 199.555L511.551 199.826ZM515.833 192.988L516.26 193.247C516.959 192.096 517.651 190.94 518.334 189.779L517.903 189.525L517.472 189.272C516.791 190.429 516.102 191.581 515.405 192.728L515.833 192.988ZM519.925 186.035L520.359 186.283C521.026 185.113 521.685 183.938 522.335 182.758L521.897 182.517L521.459 182.276C520.811 183.451 520.155 184.622 519.49 185.788L519.925 186.035ZM523.82 178.97L524.261 179.205C524.894 178.016 525.519 176.823 526.135 175.624L525.69 175.396L525.246 175.167C524.632 176.361 524.009 177.55 523.379 178.734L523.82 178.97ZM527.507 171.796L527.955 172.018C528.553 170.811 529.143 169.6 529.723 168.383L529.272 168.168L528.82 167.953C528.242 169.165 527.655 170.372 527.059 171.574L527.507 171.796ZM530.982 164.511L531.437 164.72C531.998 163.497 532.549 162.269 533.092 161.037L532.634 160.835L532.176 160.634C531.636 161.862 531.087 163.085 530.528 164.303L530.982 164.511ZM534.23 157.132L534.691 157.326C535.214 156.085 535.728 154.839 536.233 153.588L535.769 153.401L535.306 153.214C534.803 154.46 534.291 155.701 533.769 156.938L534.23 157.132ZM537.249 149.646L537.716 149.826C538.199 148.571 538.672 147.312 539.136 146.048L538.667 145.876L538.197 145.704C537.735 146.962 537.264 148.217 536.783 149.466L537.249 149.646ZM540.025 142.077L540.497 142.242C540.941 140.968 541.375 139.69 541.799 138.408L541.324 138.251L540.849 138.094C540.427 139.371 539.995 140.644 539.553 141.913L540.025 142.077ZM542.556 134.416L543.033 134.565C543.434 133.282 543.825 131.994 544.205 130.701L543.725 130.56L543.246 130.419C542.867 131.706 542.478 132.989 542.079 134.267L542.556 134.416ZM544.833 126.677L545.315 126.81C545.674 125.51 546.022 124.205 546.36 122.896L545.876 122.771L545.392 122.646C545.055 123.95 544.708 125.249 544.351 126.544L544.833 126.677ZM546.848 118.87L547.334 118.987C547.649 117.68 547.952 116.368 548.245 115.051L547.757 114.942L547.269 114.834C546.977 116.145 546.675 117.451 546.362 118.753L546.848 118.87ZM548.602 110.987L549.092 111.088C549.228 110.425 549.36 109.761 549.491 109.096L549 109L548.509 108.904C548.38 109.566 548.247 110.227 548.112 110.887L548.602 110.987Z" fill="white"/>
<rect opacity="0.8" x="467" y="493" width="422" height="89" rx="9" transform="rotate(-180 467 493)" fill="white"/>
<path d="M109.718 429.4V436.708C109.718 439.348 110.792 440.668 112.94 440.668C115.112 440.668 116.198 439.348 116.198 436.708V429.4H117.764V436.618C117.764 438.418 117.35 439.786 116.522 440.722C115.706 441.646 114.512 442.108 112.94 442.108C111.368 442.108 110.174 441.646 109.358 440.722C108.554 439.786 108.152 438.418 108.152 436.618V429.4H109.718ZM124.552 432.712C125.404 432.712 126.16 432.898 126.82 433.27C127.492 433.642 128.014 434.182 128.386 434.89C128.77 435.598 128.962 436.438 128.962 437.41C128.962 438.334 128.77 439.15 128.386 439.858C128.014 440.566 127.492 441.118 126.82 441.514C126.148 441.91 125.392 442.108 124.552 442.108C123.808 442.108 123.172 441.976 122.644 441.712C122.116 441.436 121.702 441.064 121.402 440.596V445.6H119.926V432.82H121.204L121.402 434.296C122.17 433.24 123.22 432.712 124.552 432.712ZM124.408 440.794C125.32 440.794 126.052 440.482 126.604 439.858C127.168 439.222 127.45 438.406 127.45 437.41C127.45 436.414 127.168 435.604 126.604 434.98C126.052 434.344 125.32 434.026 124.408 434.026C123.82 434.026 123.292 434.17 122.824 434.458C122.368 434.734 122.014 435.13 121.762 435.646C121.51 436.15 121.384 436.726 121.384 437.374C121.384 438.034 121.51 438.628 121.762 439.156C122.014 439.672 122.368 440.074 122.824 440.362C123.292 440.65 123.82 440.794 124.408 440.794ZM139.361 429.4V442H138.083L137.885 440.524C137.117 441.58 136.067 442.108 134.735 442.108C133.883 442.108 133.121 441.922 132.449 441.55C131.789 441.178 131.267 440.638 130.883 439.93C130.511 439.222 130.325 438.382 130.325 437.41C130.325 436.486 130.511 435.67 130.883 434.962C131.267 434.254 131.795 433.702 132.467 433.306C133.139 432.91 133.895 432.712 134.735 432.712C135.479 432.712 136.115 432.85 136.643 433.126C137.171 433.39 137.585 433.756 137.885 434.224V429.4H139.361ZM134.879 440.794C135.467 440.794 135.989 440.656 136.445 440.38C136.913 440.092 137.273 439.696 137.525 439.192C137.777 438.676 137.903 438.094 137.903 437.446C137.903 436.786 137.777 436.198 137.525 435.682C137.273 435.154 136.913 434.746 136.445 434.458C135.989 434.17 135.467 434.026 134.879 434.026C133.967 434.026 133.229 434.344 132.665 434.98C132.113 435.604 131.837 436.414 131.837 437.41C131.837 438.406 132.113 439.222 132.665 439.858C133.229 440.482 133.967 440.794 134.879 440.794ZM149.957 440.65V442H149.147C148.559 442 148.139 441.88 147.887 441.64C147.635 441.4 147.503 441.046 147.491 440.578C146.783 441.598 145.757 442.108 144.413 442.108C143.393 442.108 142.571 441.868 141.947 441.388C141.335 440.908 141.029 440.254 141.029 439.426C141.029 438.502 141.341 437.794 141.965 437.302C142.601 436.81 143.519 436.564 144.719 436.564H147.419V435.934C147.419 435.334 147.215 434.866 146.807 434.53C146.411 434.194 145.853 434.026 145.133 434.026C144.497 434.026 143.969 434.17 143.549 434.458C143.141 434.734 142.889 435.106 142.793 435.574H141.317C141.425 434.674 141.821 433.972 142.505 433.468C143.201 432.964 144.101 432.712 145.205 432.712C146.381 432.712 147.287 433 147.923 433.576C148.571 434.14 148.895 434.956 148.895 436.024V439.984C148.895 440.428 149.099 440.65 149.507 440.65H149.957ZM147.419 437.806H144.575C143.207 437.806 142.523 438.316 142.523 439.336C142.523 439.792 142.703 440.158 143.063 440.434C143.423 440.71 143.909 440.848 144.521 440.848C145.421 440.848 146.129 440.614 146.645 440.146C147.161 439.666 147.419 439.036 147.419 438.256V437.806ZM151.704 434.17H150.048V432.82H151.704V430.246H153.18V432.82H155.502V434.17H153.18V439.588C153.18 439.972 153.252 440.248 153.396 440.416C153.552 440.572 153.816 440.65 154.188 440.65H155.79V442H154.098C153.234 442 152.616 441.808 152.244 441.424C151.884 441.04 151.704 440.434 151.704 439.606V434.17ZM156.288 437.41C156.288 436.474 156.468 435.652 156.828 434.944C157.2 434.236 157.716 433.69 158.376 433.306C159.036 432.91 159.792 432.712 160.644 432.712C161.484 432.712 162.228 432.886 162.876 433.234C163.524 433.582 164.034 434.086 164.406 434.746C164.778 435.406 164.976 436.18 165 437.068C165 437.2 164.988 437.41 164.964 437.698H157.836V437.824C157.86 438.724 158.136 439.444 158.664 439.984C159.192 440.524 159.882 440.794 160.734 440.794C161.394 440.794 161.952 440.632 162.408 440.308C162.876 439.972 163.188 439.51 163.344 438.922H164.838C164.658 439.858 164.208 440.626 163.488 441.226C162.768 441.814 161.886 442.108 160.842 442.108C159.93 442.108 159.132 441.916 158.448 441.532C157.764 441.136 157.23 440.584 156.846 439.876C156.474 439.156 156.288 438.334 156.288 437.41ZM163.47 436.474C163.398 435.694 163.104 435.088 162.588 434.656C162.084 434.224 161.442 434.008 160.662 434.008C159.966 434.008 159.354 434.236 158.826 434.692C158.298 435.148 157.998 435.742 157.926 436.474H163.47ZM176.021 432.712C176.873 432.712 177.629 432.898 178.289 433.27C178.961 433.642 179.483 434.182 179.855 434.89C180.239 435.598 180.431 436.438 180.431 437.41C180.431 438.334 180.239 439.15 179.855 439.858C179.483 440.566 178.961 441.118 178.289 441.514C177.617 441.91 176.861 442.108 176.021 442.108C175.277 442.108 174.641 441.976 174.113 441.712C173.585 441.436 173.171 441.064 172.871 440.596V445.6H171.395V432.82H172.673L172.871 434.296C173.639 433.24 174.689 432.712 176.021 432.712ZM175.877 440.794C176.789 440.794 177.521 440.482 178.073 439.858C178.637 439.222 178.919 438.406 178.919 437.41C178.919 436.414 178.637 435.604 178.073 434.98C177.521 434.344 176.789 434.026 175.877 434.026C175.289 434.026 174.761 434.17 174.293 434.458C173.837 434.734 173.483 435.13 173.231 435.646C172.979 436.15 172.853 436.726 172.853 437.374C172.853 438.034 172.979 438.628 173.231 439.156C173.483 439.672 173.837 440.074 174.293 440.362C174.761 440.65 175.289 440.794 175.877 440.794ZM186.779 432.82V434.26H186.041C185.165 434.26 184.535 434.554 184.151 435.142C183.779 435.73 183.593 436.456 183.593 437.32V442H182.117V432.82H183.395L183.593 434.206C183.857 433.786 184.199 433.45 184.619 433.198C185.039 432.946 185.621 432.82 186.365 432.82H186.779ZM187.278 437.41C187.278 436.474 187.458 435.652 187.818 434.944C188.19 434.236 188.706 433.69 189.366 433.306C190.026 432.91 190.782 432.712 191.634 432.712C192.474 432.712 193.218 432.886 193.866 433.234C194.514 433.582 195.024 434.086 195.396 434.746C195.768 435.406 195.966 436.18 195.99 437.068C195.99 437.2 195.978 437.41 195.954 437.698H188.826V437.824C188.85 438.724 189.126 439.444 189.654 439.984C190.182 440.524 190.872 440.794 191.724 440.794C192.384 440.794 192.942 440.632 193.398 440.308C193.866 439.972 194.178 439.51 194.334 438.922H195.828C195.648 439.858 195.198 440.626 194.478 441.226C193.758 441.814 192.876 442.108 191.832 442.108C190.92 442.108 190.122 441.916 189.438 441.532C188.754 441.136 188.22 440.584 187.836 439.876C187.464 439.156 187.278 438.334 187.278 437.41ZM194.46 436.474C194.388 435.694 194.094 435.088 193.578 434.656C193.074 434.224 192.432 434.008 191.652 434.008C190.956 434.008 190.344 434.236 189.816 434.692C189.288 435.148 188.988 435.742 188.916 436.474H194.46ZM207.916 432.712C208.948 432.712 209.782 433.036 210.418 433.684C211.066 434.332 211.39 435.34 211.39 436.708V442H209.914V436.798C209.914 435.91 209.722 435.232 209.338 434.764C208.966 434.296 208.432 434.062 207.736 434.062C206.968 434.062 206.362 434.332 205.918 434.872C205.486 435.412 205.27 436.15 205.27 437.086V442H203.794V436.798C203.794 435.91 203.602 435.232 203.218 434.764C202.834 434.296 202.288 434.062 201.58 434.062C200.836 434.062 200.242 434.35 199.798 434.926C199.366 435.49 199.15 436.234 199.15 437.158V442H197.674V432.82H198.952L199.15 434.08C199.81 433.168 200.704 432.712 201.832 432.712C202.492 432.712 203.074 432.862 203.578 433.162C204.094 433.45 204.478 433.882 204.73 434.458C205.39 433.294 206.452 432.712 207.916 432.712ZM214.021 429.274C214.297 429.274 214.525 429.364 214.705 429.544C214.885 429.724 214.975 429.952 214.975 430.228C214.975 430.504 214.885 430.732 214.705 430.912C214.525 431.092 214.297 431.182 214.021 431.182C213.745 431.182 213.517 431.092 213.337 430.912C213.157 430.732 213.067 430.504 213.067 430.228C213.067 429.952 213.157 429.724 213.337 429.544C213.517 429.364 213.745 429.274 214.021 429.274ZM213.283 432.82H214.759V442H213.283V432.82ZM224.683 432.82V442H223.405L223.207 440.776C222.511 441.664 221.533 442.108 220.273 442.108C219.181 442.108 218.305 441.772 217.645 441.1C216.985 440.428 216.655 439.372 216.655 437.932V432.82H218.131V437.842C218.131 438.79 218.335 439.516 218.743 440.02C219.163 440.512 219.757 440.758 220.525 440.758C221.365 440.758 222.019 440.458 222.487 439.858C222.967 439.258 223.207 438.442 223.207 437.41V432.82H224.683ZM236.938 432.712C237.97 432.712 238.804 433.036 239.44 433.684C240.088 434.332 240.412 435.34 240.412 436.708V442H238.936V436.798C238.936 435.91 238.744 435.232 238.36 434.764C237.988 434.296 237.454 434.062 236.758 434.062C235.99 434.062 235.383 434.332 234.939 434.872C234.508 435.412 234.292 436.15 234.292 437.086V442H232.816V436.798C232.816 435.91 232.624 435.232 232.24 434.764C231.856 434.296 231.31 434.062 230.602 434.062C229.858 434.062 229.264 434.35 228.82 434.926C228.388 435.49 228.172 436.234 228.172 437.158V442H226.696V432.82H227.974L228.172 434.08C228.832 433.168 229.726 432.712 230.854 432.712C231.514 432.712 232.096 432.862 232.6 433.162C233.116 433.45 233.5 433.882 233.752 434.458C234.412 433.294 235.474 432.712 236.938 432.712ZM251.642 432.712C252.494 432.712 253.25 432.898 253.91 433.27C254.582 433.642 255.104 434.182 255.476 434.89C255.86 435.598 256.052 436.438 256.052 437.41C256.052 438.334 255.86 439.15 255.476 439.858C255.104 440.566 254.582 441.118 253.91 441.514C253.238 441.91 252.482 442.108 251.642 442.108C250.898 442.108 250.262 441.976 249.734 441.712C249.206 441.436 248.792 441.064 248.492 440.596V445.6H247.016V432.82H248.294L248.492 434.296C249.26 433.24 250.31 432.712 251.642 432.712ZM251.498 440.794C252.41 440.794 253.142 440.482 253.694 439.858C254.258 439.222 254.54 438.406 254.54 437.41C254.54 436.414 254.258 435.604 253.694 434.98C253.142 434.344 252.41 434.026 251.498 434.026C250.91 434.026 250.382 434.17 249.914 434.458C249.458 434.734 249.104 435.13 248.852 435.646C248.6 436.15 248.474 436.726 248.474 437.374C248.474 438.034 248.6 438.628 248.852 439.156C249.104 439.672 249.458 440.074 249.914 440.362C250.382 440.65 250.91 440.794 251.498 440.794ZM262.4 432.82V434.26H261.662C260.786 434.26 260.156 434.554 259.772 435.142C259.4 435.73 259.214 436.456 259.214 437.32V442H257.738V432.82H259.016L259.214 434.206C259.478 433.786 259.82 433.45 260.24 433.198C260.66 432.946 261.242 432.82 261.986 432.82H262.4ZM264.488 429.274C264.764 429.274 264.992 429.364 265.172 429.544C265.352 429.724 265.442 429.952 265.442 430.228C265.442 430.504 265.352 430.732 265.172 430.912C264.992 431.092 264.764 431.182 264.488 431.182C264.212 431.182 263.984 431.092 263.804 430.912C263.624 430.732 263.534 430.504 263.534 430.228C263.534 429.952 263.624 429.724 263.804 429.544C263.984 429.364 264.212 429.274 264.488 429.274ZM263.75 432.82H265.226V442H263.75V432.82ZM275.438 438.832C275.246 439.852 274.796 440.656 274.088 441.244C273.38 441.82 272.48 442.108 271.388 442.108C270.5 442.108 269.72 441.91 269.048 441.514C268.376 441.118 267.854 440.566 267.482 439.858C267.11 439.138 266.924 438.316 266.924 437.392C266.924 436.468 267.11 435.652 267.482 434.944C267.866 434.236 268.4 433.69 269.084 433.306C269.768 432.91 270.554 432.712 271.442 432.712C272.522 432.712 273.41 433 274.106 433.576C274.814 434.152 275.258 434.944 275.438 435.952H273.944C273.8 435.364 273.5 434.896 273.044 434.548C272.588 434.2 272.036 434.026 271.388 434.026C270.512 434.026 269.798 434.338 269.246 434.962C268.706 435.586 268.436 436.396 268.436 437.392C268.436 438.4 268.706 439.222 269.246 439.858C269.798 440.482 270.512 440.794 271.388 440.794C272.06 440.794 272.624 440.62 273.08 440.272C273.536 439.924 273.83 439.444 273.962 438.832H275.438ZM277.883 429.274C278.159 429.274 278.387 429.364 278.567 429.544C278.747 429.724 278.837 429.952 278.837 430.228C278.837 430.504 278.747 430.732 278.567 430.912C278.387 431.092 278.159 431.182 277.883 431.182C277.607 431.182 277.379 431.092 277.199 430.912C277.019 430.732 276.929 430.504 276.929 430.228C276.929 429.952 277.019 429.724 277.199 429.544C277.379 429.364 277.607 429.274 277.883 429.274ZM277.145 432.82H278.621V442H277.145V432.82ZM285.143 432.712C286.259 432.712 287.153 433.048 287.825 433.72C288.509 434.392 288.851 435.448 288.851 436.888V442H287.375V436.978C287.375 436.03 287.159 435.31 286.727 434.818C286.307 434.314 285.695 434.062 284.891 434.062C284.027 434.062 283.349 434.362 282.857 434.962C282.365 435.562 282.119 436.378 282.119 437.41V442H280.643V432.82H281.921L282.119 434.062C282.815 433.162 283.823 432.712 285.143 432.712ZM299.445 432.82V441.55C299.445 444.322 297.927 445.708 294.891 445.708C293.703 445.708 292.731 445.438 291.975 444.898C291.231 444.358 290.799 443.59 290.679 442.594H292.191C292.311 443.17 292.617 443.614 293.109 443.926C293.601 444.238 294.231 444.394 294.999 444.394C296.979 444.394 297.969 443.428 297.969 441.496V440.416C297.309 441.544 296.259 442.108 294.819 442.108C293.967 442.108 293.205 441.922 292.533 441.55C291.873 441.178 291.351 440.638 290.967 439.93C290.595 439.222 290.409 438.382 290.409 437.41C290.409 436.486 290.595 435.67 290.967 434.962C291.351 434.254 291.879 433.702 292.551 433.306C293.223 432.91 293.979 432.712 294.819 432.712C295.563 432.712 296.199 432.862 296.727 433.162C297.255 433.45 297.669 433.864 297.969 434.404L298.167 432.82H299.445ZM294.963 440.794C295.551 440.794 296.073 440.656 296.529 440.38C296.997 440.092 297.357 439.696 297.609 439.192C297.861 438.676 297.987 438.094 297.987 437.446C297.987 436.786 297.861 436.198 297.609 435.682C297.357 435.154 296.997 434.746 296.529 434.458C296.073 434.17 295.551 434.026 294.963 434.026C294.051 434.026 293.313 434.344 292.749 434.98C292.197 435.604 291.921 436.414 291.921 437.41C291.921 438.406 292.197 439.222 292.749 439.858C293.313 440.482 294.051 440.794 294.963 440.794ZM310.792 432.712C311.644 432.712 312.4 432.898 313.06 433.27C313.732 433.642 314.254 434.182 314.626 434.89C315.01 435.598 315.202 436.438 315.202 437.41C315.202 438.334 315.01 439.15 314.626 439.858C314.254 440.566 313.732 441.118 313.06 441.514C312.388 441.91 311.632 442.108 310.792 442.108C310.048 442.108 309.412 441.976 308.884 441.712C308.356 441.436 307.942 441.064 307.642 440.596L307.444 442H306.166V429.4H307.642V434.296C308.41 433.24 309.46 432.712 310.792 432.712ZM310.648 440.794C311.56 440.794 312.292 440.482 312.844 439.858C313.408 439.222 313.69 438.406 313.69 437.41C313.69 436.414 313.408 435.604 312.844 434.98C312.292 434.344 311.56 434.026 310.648 434.026C310.06 434.026 309.532 434.17 309.064 434.458C308.608 434.734 308.254 435.13 308.002 435.646C307.75 436.15 307.624 436.726 307.624 437.374C307.624 438.034 307.75 438.628 308.002 439.156C308.254 439.672 308.608 440.074 309.064 440.362C309.532 440.65 310.06 440.794 310.648 440.794ZM325.475 440.65V442H324.665C324.077 442 323.657 441.88 323.405 441.64C323.153 441.4 323.021 441.046 323.009 440.578C322.301 441.598 321.275 442.108 319.931 442.108C318.911 442.108 318.089 441.868 317.465 441.388C316.853 440.908 316.547 440.254 316.547 439.426C316.547 438.502 316.859 437.794 317.483 437.302C318.119 436.81 319.037 436.564 320.237 436.564H322.937V435.934C322.937 435.334 322.733 434.866 322.325 434.53C321.929 434.194 321.371 434.026 320.651 434.026C320.015 434.026 319.487 434.17 319.067 434.458C318.659 434.734 318.407 435.106 318.311 435.574H316.835C316.943 434.674 317.339 433.972 318.023 433.468C318.719 432.964 319.619 432.712 320.723 432.712C321.899 432.712 322.805 433 323.441 433.576C324.089 434.14 324.413 434.956 324.413 436.024V439.984C324.413 440.428 324.617 440.65 325.025 440.65H325.475ZM322.937 437.806H320.093C318.725 437.806 318.041 438.316 318.041 439.336C318.041 439.792 318.221 440.158 318.581 440.434C318.941 440.71 319.427 440.848 320.039 440.848C320.939 440.848 321.647 440.614 322.163 440.146C322.679 439.666 322.937 439.036 322.937 438.256V437.806ZM327.762 438.976C327.786 439.528 328.026 439.978 328.482 440.326C328.95 440.674 329.55 440.848 330.282 440.848C330.93 440.848 331.452 440.722 331.848 440.47C332.256 440.206 332.46 439.864 332.46 439.444C332.46 439.084 332.364 438.808 332.172 438.616C331.98 438.424 331.728 438.292 331.416 438.22C331.116 438.148 330.684 438.076 330.12 438.004C329.328 437.908 328.68 437.782 328.176 437.626C327.672 437.47 327.264 437.224 326.952 436.888C326.64 436.54 326.484 436.066 326.484 435.466C326.484 434.926 326.634 434.446 326.934 434.026C327.246 433.606 327.666 433.282 328.194 433.054C328.722 432.814 329.316 432.694 329.976 432.694C331.056 432.694 331.932 432.946 332.604 433.45C333.288 433.954 333.666 434.674 333.738 435.61H332.262C332.202 435.13 331.968 434.734 331.56 434.422C331.152 434.11 330.642 433.954 330.03 433.954C329.406 433.954 328.902 434.086 328.518 434.35C328.134 434.602 327.942 434.938 327.942 435.358C327.942 435.67 328.032 435.91 328.212 436.078C328.392 436.246 328.62 436.36 328.896 436.42C329.184 436.48 329.616 436.546 330.192 436.618C330.996 436.714 331.656 436.846 332.172 437.014C332.7 437.182 333.12 437.452 333.432 437.824C333.756 438.196 333.918 438.7 333.918 439.336C333.918 439.888 333.756 440.374 333.432 440.794C333.108 441.214 332.67 441.538 332.118 441.766C331.566 441.994 330.954 442.108 330.282 442.108C329.082 442.108 328.116 441.832 327.384 441.28C326.664 440.728 326.298 439.96 326.286 438.976H327.762ZM335.268 437.41C335.268 436.474 335.448 435.652 335.808 434.944C336.18 434.236 336.696 433.69 337.356 433.306C338.016 432.91 338.772 432.712 339.624 432.712C340.464 432.712 341.208 432.886 341.856 433.234C342.504 433.582 343.014 434.086 343.386 434.746C343.758 435.406 343.956 436.18 343.98 437.068C343.98 437.2 343.968 437.41 343.944 437.698H336.816V437.824C336.84 438.724 337.116 439.444 337.644 439.984C338.172 440.524 338.862 440.794 339.714 440.794C340.374 440.794 340.932 440.632 341.388 440.308C341.856 439.972 342.168 439.51 342.324 438.922H343.818C343.638 439.858 343.188 440.626 342.468 441.226C341.748 441.814 340.866 442.108 339.822 442.108C338.91 442.108 338.112 441.916 337.428 441.532C336.744 441.136 336.21 440.584 335.826 439.876C335.454 439.156 335.268 438.334 335.268 437.41ZM342.45 436.474C342.378 435.694 342.084 435.088 341.568 434.656C341.064 434.224 340.422 434.008 339.642 434.008C338.946 434.008 338.334 434.236 337.806 434.692C337.278 435.148 336.978 435.742 336.906 436.474H342.45ZM354.376 429.4V442H353.098L352.9 440.524C352.132 441.58 351.082 442.108 349.75 442.108C348.898 442.108 348.136 441.922 347.464 441.55C346.804 441.178 346.282 440.638 345.898 439.93C345.526 439.222 345.34 438.382 345.34 437.41C345.34 436.486 345.526 435.67 345.898 434.962C346.282 434.254 346.81 433.702 347.482 433.306C348.154 432.91 348.91 432.712 349.75 432.712C350.494 432.712 351.13 432.85 351.658 433.126C352.186 433.39 352.6 433.756 352.9 434.224V429.4H354.376ZM349.894 440.794C350.482 440.794 351.004 440.656 351.46 440.38C351.928 440.092 352.288 439.696 352.54 439.192C352.792 438.676 352.918 438.094 352.918 437.446C352.918 436.786 352.792 436.198 352.54 435.682C352.288 435.154 351.928 434.746 351.46 434.458C351.004 434.17 350.482 434.026 349.894 434.026C348.982 434.026 348.244 434.344 347.68 434.98C347.128 435.604 346.852 436.414 346.852 437.41C346.852 438.406 347.128 439.222 347.68 439.858C348.244 440.482 348.982 440.794 349.894 440.794ZM365.328 442.108C364.44 442.108 363.648 441.91 362.952 441.514C362.268 441.118 361.734 440.566 361.35 439.858C360.966 439.15 360.774 438.334 360.774 437.41C360.774 436.486 360.966 435.67 361.35 434.962C361.734 434.254 362.268 433.702 362.952 433.306C363.648 432.91 364.44 432.712 365.328 432.712C366.216 432.712 367.002 432.91 367.686 433.306C368.382 433.702 368.922 434.254 369.306 434.962C369.69 435.67 369.882 436.486 369.882 437.41C369.882 438.334 369.69 439.15 369.306 439.858C368.922 440.566 368.382 441.118 367.686 441.514C367.002 441.91 366.216 442.108 365.328 442.108ZM365.328 440.794C365.928 440.794 366.456 440.65 366.912 440.362C367.38 440.074 367.74 439.672 367.992 439.156C368.244 438.64 368.37 438.058 368.37 437.41C368.37 436.762 368.244 436.18 367.992 435.664C367.74 435.148 367.38 434.746 366.912 434.458C366.456 434.17 365.928 434.026 365.328 434.026C364.728 434.026 364.194 434.17 363.726 434.458C363.27 434.746 362.916 435.148 362.664 435.664C362.412 436.18 362.286 436.762 362.286 437.41C362.286 438.058 362.412 438.64 362.664 439.156C362.916 439.672 363.27 440.074 363.726 440.362C364.194 440.65 364.728 440.794 365.328 440.794ZM376.074 432.712C377.19 432.712 378.084 433.048 378.756 433.72C379.44 434.392 379.782 435.448 379.782 436.888V442H378.306V436.978C378.306 436.03 378.09 435.31 377.658 434.818C377.238 434.314 376.626 434.062 375.822 434.062C374.958 434.062 374.28 434.362 373.788 434.962C373.296 435.562 373.05 436.378 373.05 437.41V442H371.574V432.82H372.852L373.05 434.062C373.746 433.162 374.754 432.712 376.074 432.712ZM391.037 432.82V434.26H390.299C389.423 434.26 388.793 434.554 388.409 435.142C388.037 435.73 387.851 436.456 387.851 437.32V442H386.375V432.82H387.653L387.851 434.206C388.115 433.786 388.457 433.45 388.877 433.198C389.297 432.946 389.879 432.82 390.623 432.82H391.037ZM391.536 437.41C391.536 436.474 391.716 435.652 392.076 434.944C392.448 434.236 392.964 433.69 393.624 433.306C394.284 432.91 395.04 432.712 395.892 432.712C396.732 432.712 397.476 432.886 398.124 433.234C398.772 433.582 399.282 434.086 399.654 434.746C400.026 435.406 400.224 436.18 400.248 437.068C400.248 437.2 400.236 437.41 400.212 437.698H393.084V437.824C393.108 438.724 393.384 439.444 393.912 439.984C394.44 440.524 395.13 440.794 395.982 440.794C396.642 440.794 397.2 440.632 397.656 440.308C398.124 439.972 398.436 439.51 398.592 438.922H400.086C399.906 439.858 399.456 440.626 398.736 441.226C398.016 441.814 397.134 442.108 396.09 442.108C395.178 442.108 394.38 441.916 393.696 441.532C393.012 441.136 392.478 440.584 392.094 439.876C391.722 439.156 391.536 438.334 391.536 437.41ZM398.718 436.474C398.646 435.694 398.352 435.088 397.836 434.656C397.332 434.224 396.69 434.008 395.91 434.008C395.214 434.008 394.602 434.236 394.074 434.692C393.546 435.148 393.246 435.742 393.174 436.474H398.718ZM410.122 438.832C409.93 439.852 409.48 440.656 408.772 441.244C408.064 441.82 407.164 442.108 406.072 442.108C405.184 442.108 404.404 441.91 403.732 441.514C403.06 441.118 402.538 440.566 402.166 439.858C401.794 439.138 401.608 438.316 401.608 437.392C401.608 436.468 401.794 435.652 402.166 434.944C402.55 434.236 403.084 433.69 403.768 433.306C404.452 432.91 405.238 432.712 406.126 432.712C407.206 432.712 408.094 433 408.79 433.576C409.498 434.152 409.942 434.944 410.122 435.952H408.628C408.484 435.364 408.184 434.896 407.728 434.548C407.272 434.2 406.72 434.026 406.072 434.026C405.196 434.026 404.482 434.338 403.93 434.962C403.39 435.586 403.12 436.396 403.12 437.392C403.12 438.4 403.39 439.222 403.93 439.858C404.482 440.482 405.196 440.794 406.072 440.794C406.744 440.794 407.308 440.62 407.764 440.272C408.22 439.924 408.514 439.444 408.646 438.832H410.122ZM411.311 437.41C411.311 436.474 411.491 435.652 411.851 434.944C412.223 434.236 412.739 433.69 413.399 433.306C414.059 432.91 414.815 432.712 415.667 432.712C416.507 432.712 417.251 432.886 417.899 433.234C418.547 433.582 419.057 434.086 419.429 434.746C419.801 435.406 419.999 436.18 420.023 437.068C420.023 437.2 420.011 437.41 419.987 437.698H412.859V437.824C412.883 438.724 413.159 439.444 413.687 439.984C414.215 440.524 414.905 440.794 415.757 440.794C416.417 440.794 416.975 440.632 417.431 440.308C417.899 439.972 418.211 439.51 418.367 438.922H419.861C419.681 439.858 419.231 440.626 418.511 441.226C417.791 441.814 416.909 442.108 415.865 442.108C414.953 442.108 414.155 441.916 413.471 441.532C412.787 441.136 412.253 440.584 411.869 439.876C411.497 439.156 411.311 438.334 411.311 437.41ZM418.493 436.474C418.421 435.694 418.127 435.088 417.611 434.656C417.107 434.224 416.465 434.008 415.685 434.008C414.989 434.008 414.377 434.236 413.849 434.692C413.321 435.148 413.021 435.742 412.949 436.474H418.493ZM426.207 432.712C427.323 432.712 428.217 433.048 428.889 433.72C429.573 434.392 429.915 435.448 429.915 436.888V442H428.439V436.978C428.439 436.03 428.223 435.31 427.791 434.818C427.371 434.314 426.759 434.062 425.955 434.062C425.091 434.062 424.413 434.362 423.921 434.962C423.429 435.562 423.183 436.378 423.183 437.41V442H421.707V432.82H422.985L423.183 434.062C423.879 433.162 424.887 432.712 426.207 432.712ZM432.409 434.17H430.753V432.82H432.409V430.246H433.885V432.82H436.207V434.17H433.885V439.588C433.885 439.972 433.957 440.248 434.101 440.416C434.257 440.572 434.521 440.65 434.893 440.65H436.495V442H434.803C433.939 442 433.321 441.808 432.949 441.424C432.589 441.04 432.409 440.434 432.409 439.606V434.17ZM116.198 461.832C116.006 462.852 115.556 463.656 114.848 464.244C114.14 464.82 113.24 465.108 112.148 465.108C111.26 465.108 110.48 464.91 109.808 464.514C109.136 464.118 108.614 463.566 108.242 462.858C107.87 462.138 107.684 461.316 107.684 460.392C107.684 459.468 107.87 458.652 108.242 457.944C108.626 457.236 109.16 456.69 109.844 456.306C110.528 455.91 111.314 455.712 112.202 455.712C113.282 455.712 114.17 456 114.866 456.576C115.574 457.152 116.018 457.944 116.198 458.952H114.704C114.56 458.364 114.26 457.896 113.804 457.548C113.348 457.2 112.796 457.026 112.148 457.026C111.272 457.026 110.558 457.338 110.006 457.962C109.466 458.586 109.196 459.396 109.196 460.392C109.196 461.4 109.466 462.222 110.006 462.858C110.558 463.482 111.272 463.794 112.148 463.794C112.82 463.794 113.384 463.62 113.84 463.272C114.296 462.924 114.59 462.444 114.722 461.832H116.198ZM125.806 455.82V465H124.528L124.33 463.776C123.634 464.664 122.656 465.108 121.396 465.108C120.304 465.108 119.428 464.772 118.768 464.1C118.108 463.428 117.778 462.372 117.778 460.932V455.82H119.254V460.842C119.254 461.79 119.458 462.516 119.866 463.02C120.286 463.512 120.88 463.758 121.648 463.758C122.488 463.758 123.142 463.458 123.61 462.858C124.09 462.258 124.33 461.442 124.33 460.41V455.82H125.806ZM128.971 461.976C128.995 462.528 129.235 462.978 129.691 463.326C130.159 463.674 130.759 463.848 131.491 463.848C132.139 463.848 132.661 463.722 133.057 463.47C133.465 463.206 133.669 462.864 133.669 462.444C133.669 462.084 133.573 461.808 133.381 461.616C133.189 461.424 132.937 461.292 132.625 461.22C132.325 461.148 131.893 461.076 131.329 461.004C130.537 460.908 129.889 460.782 129.385 460.626C128.881 460.47 128.473 460.224 128.161 459.888C127.849 459.54 127.693 459.066 127.693 458.466C127.693 457.926 127.843 457.446 128.143 457.026C128.455 456.606 128.875 456.282 129.403 456.054C129.931 455.814 130.525 455.694 131.185 455.694C132.265 455.694 133.141 455.946 133.813 456.45C134.497 456.954 134.875 457.674 134.947 458.61H133.471C133.411 458.13 133.177 457.734 132.769 457.422C132.361 457.11 131.851 456.954 131.239 456.954C130.615 456.954 130.111 457.086 129.727 457.35C129.343 457.602 129.151 457.938 129.151 458.358C129.151 458.67 129.241 458.91 129.421 459.078C129.601 459.246 129.829 459.36 130.105 459.42C130.393 459.48 130.825 459.546 131.401 459.618C132.205 459.714 132.865 459.846 133.381 460.014C133.909 460.182 134.329 460.452 134.641 460.824C134.965 461.196 135.127 461.7 135.127 462.336C135.127 462.888 134.965 463.374 134.641 463.794C134.317 464.214 133.879 464.538 133.327 464.766C132.775 464.994 132.163 465.108 131.491 465.108C130.291 465.108 129.325 464.832 128.593 464.28C127.873 463.728 127.507 462.96 127.495 461.976H128.971ZM137.413 457.17H135.757V455.82H137.413V453.246H138.889V455.82H141.211V457.17H138.889V462.588C138.889 462.972 138.961 463.248 139.105 463.416C139.261 463.572 139.525 463.65 139.897 463.65H141.499V465H139.807C138.943 465 138.325 464.808 137.953 464.424C137.593 464.04 137.413 463.434 137.413 462.606V457.17ZM146.551 465.108C145.663 465.108 144.871 464.91 144.175 464.514C143.491 464.118 142.957 463.566 142.573 462.858C142.189 462.15 141.997 461.334 141.997 460.41C141.997 459.486 142.189 458.67 142.573 457.962C142.957 457.254 143.491 456.702 144.175 456.306C144.871 455.91 145.663 455.712 146.551 455.712C147.439 455.712 148.225 455.91 148.909 456.306C149.605 456.702 150.145 457.254 150.529 457.962C150.913 458.67 151.105 459.486 151.105 460.41C151.105 461.334 150.913 462.15 150.529 462.858C150.145 463.566 149.605 464.118 148.909 464.514C148.225 464.91 147.439 465.108 146.551 465.108ZM146.551 463.794C147.151 463.794 147.679 463.65 148.135 463.362C148.603 463.074 148.963 462.672 149.215 462.156C149.467 461.64 149.593 461.058 149.593 460.41C149.593 459.762 149.467 459.18 149.215 458.664C148.963 458.148 148.603 457.746 148.135 457.458C147.679 457.17 147.151 457.026 146.551 457.026C145.951 457.026 145.417 457.17 144.949 457.458C144.493 457.746 144.139 458.148 143.887 458.664C143.635 459.18 143.509 459.762 143.509 460.41C143.509 461.058 143.635 461.64 143.887 462.156C144.139 462.672 144.493 463.074 144.949 463.362C145.417 463.65 145.951 463.794 146.551 463.794ZM163.039 455.712C164.071 455.712 164.905 456.036 165.541 456.684C166.189 457.332 166.513 458.34 166.513 459.708V465H165.037V459.798C165.037 458.91 164.845 458.232 164.461 457.764C164.089 457.296 163.555 457.062 162.859 457.062C162.091 457.062 161.485 457.332 161.041 457.872C160.609 458.412 160.393 459.15 160.393 460.086V465H158.917V459.798C158.917 458.91 158.725 458.232 158.341 457.764C157.957 457.296 157.411 457.062 156.703 457.062C155.959 457.062 155.365 457.35 154.921 457.926C154.489 458.49 154.273 459.234 154.273 460.158V465H152.797V455.82H154.075L154.273 457.08C154.933 456.168 155.827 455.712 156.955 455.712C157.615 455.712 158.197 455.862 158.701 456.162C159.217 456.45 159.601 456.882 159.853 457.458C160.513 456.294 161.575 455.712 163.039 455.712ZM168.082 460.41C168.082 459.474 168.262 458.652 168.622 457.944C168.994 457.236 169.51 456.69 170.17 456.306C170.83 455.91 171.586 455.712 172.438 455.712C173.278 455.712 174.022 455.886 174.67 456.234C175.318 456.582 175.828 457.086 176.2 457.746C176.572 458.406 176.77 459.18 176.794 460.068C176.794 460.2 176.782 460.41 176.758 460.698H169.63V460.824C169.654 461.724 169.93 462.444 170.458 462.984C170.986 463.524 171.676 463.794 172.528 463.794C173.188 463.794 173.746 463.632 174.202 463.308C174.67 462.972 174.982 462.51 175.138 461.922H176.632C176.452 462.858 176.002 463.626 175.282 464.226C174.562 464.814 173.68 465.108 172.636 465.108C171.724 465.108 170.926 464.916 170.242 464.532C169.558 464.136 169.024 463.584 168.64 462.876C168.268 462.156 168.082 461.334 168.082 460.41ZM175.264 459.474C175.192 458.694 174.898 458.088 174.382 457.656C173.878 457.224 173.236 457.008 172.456 457.008C171.76 457.008 171.148 457.236 170.62 457.692C170.092 458.148 169.792 458.742 169.72 459.474H175.264ZM183.141 455.82V457.26H182.403C181.527 457.26 180.897 457.554 180.513 458.142C180.141 458.73 179.955 459.456 179.955 460.32V465H178.479V455.82H179.757L179.955 457.206C180.219 456.786 180.561 456.45 180.981 456.198C181.401 455.946 181.983 455.82 182.727 455.82H183.141ZM193.827 455.712C194.679 455.712 195.435 455.898 196.095 456.27C196.767 456.642 197.289 457.182 197.661 457.89C198.045 458.598 198.237 459.438 198.237 460.41C198.237 461.334 198.045 462.15 197.661 462.858C197.289 463.566 196.767 464.118 196.095 464.514C195.423 464.91 194.667 465.108 193.827 465.108C193.083 465.108 192.447 464.976 191.919 464.712C191.391 464.436 190.977 464.064 190.677 463.596L190.479 465H189.201V452.4H190.677V457.296C191.445 456.24 192.495 455.712 193.827 455.712ZM193.683 463.794C194.595 463.794 195.327 463.482 195.879 462.858C196.443 462.222 196.725 461.406 196.725 460.41C196.725 459.414 196.443 458.604 195.879 457.98C195.327 457.344 194.595 457.026 193.683 457.026C193.095 457.026 192.567 457.17 192.099 457.458C191.643 457.734 191.289 458.13 191.037 458.646C190.785 459.15 190.659 459.726 190.659 460.374C190.659 461.034 190.785 461.628 191.037 462.156C191.289 462.672 191.643 463.074 192.099 463.362C192.567 463.65 193.095 463.794 193.683 463.794ZM199.6 460.41C199.6 459.474 199.78 458.652 200.14 457.944C200.512 457.236 201.028 456.69 201.688 456.306C202.348 455.91 203.104 455.712 203.956 455.712C204.796 455.712 205.54 455.886 206.188 456.234C206.836 456.582 207.346 457.086 207.718 457.746C208.09 458.406 208.288 459.18 208.312 460.068C208.312 460.2 208.3 460.41 208.276 460.698H201.148V460.824C201.172 461.724 201.448 462.444 201.976 462.984C202.504 463.524 203.194 463.794 204.046 463.794C204.706 463.794 205.264 463.632 205.72 463.308C206.188 462.972 206.5 462.51 206.656 461.922H208.15C207.97 462.858 207.52 463.626 206.8 464.226C206.08 464.814 205.198 465.108 204.154 465.108C203.242 465.108 202.444 464.916 201.76 464.532C201.076 464.136 200.542 463.584 200.158 462.876C199.786 462.156 199.6 461.334 199.6 460.41ZM206.782 459.474C206.71 458.694 206.416 458.088 205.9 457.656C205.396 457.224 204.754 457.008 203.974 457.008C203.278 457.008 202.666 457.236 202.138 457.692C201.61 458.148 201.31 458.742 201.238 459.474H206.782ZM214.496 455.712C215.612 455.712 216.512 456.048 217.196 456.72C217.88 457.392 218.222 458.448 218.222 459.888V465H216.746V459.978C216.746 459.03 216.53 458.31 216.098 457.818C215.666 457.314 215.048 457.062 214.244 457.062C213.392 457.062 212.714 457.362 212.21 457.962C211.718 458.562 211.472 459.378 211.472 460.41V465H209.996V452.4H211.472V457.332C211.772 456.852 212.168 456.462 212.66 456.162C213.164 455.862 213.776 455.712 214.496 455.712ZM228.69 463.65V465H227.88C227.292 465 226.872 464.88 226.62 464.64C226.368 464.4 226.236 464.046 226.224 463.578C225.516 464.598 224.49 465.108 223.146 465.108C222.126 465.108 221.304 464.868 220.68 464.388C220.068 463.908 219.762 463.254 219.762 462.426C219.762 461.502 220.074 460.794 220.698 460.302C221.334 459.81 222.252 459.564 223.452 459.564H226.152V458.934C226.152 458.334 225.948 457.866 225.54 457.53C225.144 457.194 224.586 457.026 223.866 457.026C223.23 457.026 222.702 457.17 222.282 457.458C221.874 457.734 221.622 458.106 221.526 458.574H220.05C220.158 457.674 220.554 456.972 221.238 456.468C221.934 455.964 222.834 455.712 223.938 455.712C225.114 455.712 226.02 456 226.656 456.576C227.304 457.14 227.628 457.956 227.628 459.024V462.984C227.628 463.428 227.832 463.65 228.24 463.65H228.69ZM226.152 460.806H223.308C221.94 460.806 221.256 461.316 221.256 462.336C221.256 462.792 221.436 463.158 221.796 463.434C222.156 463.71 222.642 463.848 223.254 463.848C224.154 463.848 224.862 463.614 225.378 463.146C225.894 462.666 226.152 462.036 226.152 461.256V460.806ZM228.643 455.82H230.227L232.999 463.326L235.753 455.82H237.301L233.863 465H232.081L228.643 455.82ZM239.141 452.274C239.417 452.274 239.645 452.364 239.825 452.544C240.005 452.724 240.095 452.952 240.095 453.228C240.095 453.504 240.005 453.732 239.825 453.912C239.645 454.092 239.417 454.182 239.141 454.182C238.865 454.182 238.637 454.092 238.457 453.912C238.277 453.732 238.187 453.504 238.187 453.228C238.187 452.952 238.277 452.724 238.457 452.544C238.637 452.364 238.865 452.274 239.141 452.274ZM238.403 455.82H239.879V465H238.403V455.82ZM246.131 465.108C245.243 465.108 244.451 464.91 243.755 464.514C243.071 464.118 242.537 463.566 242.153 462.858C241.769 462.15 241.577 461.334 241.577 460.41C241.577 459.486 241.769 458.67 242.153 457.962C242.537 457.254 243.071 456.702 243.755 456.306C244.451 455.91 245.243 455.712 246.131 455.712C247.019 455.712 247.805 455.91 248.489 456.306C249.185 456.702 249.725 457.254 250.109 457.962C250.493 458.67 250.685 459.486 250.685 460.41C250.685 461.334 250.493 462.15 250.109 462.858C249.725 463.566 249.185 464.118 248.489 464.514C247.805 464.91 247.019 465.108 246.131 465.108ZM246.131 463.794C246.731 463.794 247.259 463.65 247.715 463.362C248.183 463.074 248.543 462.672 248.795 462.156C249.047 461.64 249.173 461.058 249.173 460.41C249.173 459.762 249.047 459.18 248.795 458.664C248.543 458.148 248.183 457.746 247.715 457.458C247.259 457.17 246.731 457.026 246.131 457.026C245.531 457.026 244.997 457.17 244.529 457.458C244.073 457.746 243.719 458.148 243.467 458.664C243.215 459.18 243.089 459.762 243.089 460.41C243.089 461.058 243.215 461.64 243.467 462.156C243.719 462.672 244.073 463.074 244.529 463.362C244.997 463.65 245.531 463.794 246.131 463.794ZM257.039 455.82V457.26H256.301C255.425 457.26 254.795 457.554 254.411 458.142C254.039 458.73 253.853 459.456 253.853 460.32V465H252.377V455.82H253.655L253.853 457.206C254.117 456.786 254.459 456.45 254.879 456.198C255.299 455.946 255.881 455.82 256.625 455.82H257.039ZM271.686 463.65V465H270.876C270.288 465 269.868 464.88 269.616 464.64C269.364 464.4 269.232 464.046 269.22 463.578C268.512 464.598 267.486 465.108 266.142 465.108C265.122 465.108 264.3 464.868 263.676 464.388C263.064 463.908 262.758 463.254 262.758 462.426C262.758 461.502 263.07 460.794 263.694 460.302C264.33 459.81 265.248 459.564 266.448 459.564H269.148V458.934C269.148 458.334 268.944 457.866 268.536 457.53C268.14 457.194 267.582 457.026 266.862 457.026C266.226 457.026 265.698 457.17 265.278 457.458C264.87 457.734 264.618 458.106 264.522 458.574H263.046C263.154 457.674 263.55 456.972 264.234 456.468C264.93 455.964 265.83 455.712 266.934 455.712C268.11 455.712 269.016 456 269.652 456.576C270.3 457.14 270.624 457.956 270.624 459.024V462.984C270.624 463.428 270.828 463.65 271.236 463.65H271.686ZM269.148 460.806H266.304C264.936 460.806 264.252 461.316 264.252 462.336C264.252 462.792 264.432 463.158 264.792 463.434C265.152 463.71 265.638 463.848 266.25 463.848C267.15 463.848 267.858 463.614 268.374 463.146C268.89 462.666 269.148 462.036 269.148 461.256V460.806ZM277.321 455.712C278.437 455.712 279.331 456.048 280.003 456.72C280.687 457.392 281.029 458.448 281.029 459.888V465H279.553V459.978C279.553 459.03 279.337 458.31 278.905 457.818C278.485 457.314 277.873 457.062 277.069 457.062C276.205 457.062 275.527 457.362 275.035 457.962C274.543 458.562 274.297 459.378 274.297 460.41V465H272.821V455.82H274.099L274.297 457.062C274.993 456.162 276.001 455.712 277.321 455.712ZM291.622 452.4V465H290.344L290.146 463.524C289.378 464.58 288.328 465.108 286.996 465.108C286.144 465.108 285.382 464.922 284.71 464.55C284.05 464.178 283.528 463.638 283.144 462.93C282.772 462.222 282.586 461.382 282.586 460.41C282.586 459.486 282.772 458.67 283.144 457.962C283.528 457.254 284.056 456.702 284.728 456.306C285.4 455.91 286.156 455.712 286.996 455.712C287.74 455.712 288.376 455.85 288.904 456.126C289.432 456.39 289.846 456.756 290.146 457.224V452.4H291.622ZM287.14 463.794C287.728 463.794 288.25 463.656 288.706 463.38C289.174 463.092 289.534 462.696 289.786 462.192C290.038 461.676 290.164 461.094 290.164 460.446C290.164 459.786 290.038 459.198 289.786 458.682C289.534 458.154 289.174 457.746 288.706 457.458C288.25 457.17 287.728 457.026 287.14 457.026C286.228 457.026 285.49 457.344 284.926 457.98C284.374 458.604 284.098 459.414 284.098 460.41C284.098 461.406 284.374 462.222 284.926 462.858C285.49 463.482 286.228 463.794 287.14 463.794ZM306.534 461.832C306.342 462.852 305.892 463.656 305.184 464.244C304.476 464.82 303.576 465.108 302.484 465.108C301.596 465.108 300.816 464.91 300.144 464.514C299.472 464.118 298.95 463.566 298.578 462.858C298.206 462.138 298.02 461.316 298.02 460.392C298.02 459.468 298.206 458.652 298.578 457.944C298.962 457.236 299.496 456.69 300.18 456.306C300.864 455.91 301.65 455.712 302.538 455.712C303.618 455.712 304.506 456 305.202 456.576C305.91 457.152 306.354 457.944 306.534 458.952H305.04C304.896 458.364 304.596 457.896 304.14 457.548C303.684 457.2 303.132 457.026 302.484 457.026C301.608 457.026 300.894 457.338 300.342 457.962C299.802 458.586 299.532 459.396 299.532 460.392C299.532 461.4 299.802 462.222 300.342 462.858C300.894 463.482 301.608 463.794 302.484 463.794C303.156 463.794 303.72 463.62 304.176 463.272C304.632 462.924 304.926 462.444 305.058 461.832H306.534ZM316.142 455.82V465H314.864L314.666 463.776C313.97 464.664 312.992 465.108 311.732 465.108C310.64 465.108 309.764 464.772 309.104 464.1C308.444 463.428 308.114 462.372 308.114 460.932V455.82H309.59V460.842C309.59 461.79 309.794 462.516 310.202 463.02C310.622 463.512 311.216 463.758 311.984 463.758C312.824 463.758 313.478 463.458 313.946 462.858C314.426 462.258 314.666 461.442 314.666 460.41V455.82H316.142ZM322.816 455.82V457.26H322.078C321.202 457.26 320.572 457.554 320.188 458.142C319.816 458.73 319.63 459.456 319.63 460.32V465H318.154V455.82H319.432L319.63 457.206C319.894 456.786 320.236 456.45 320.656 456.198C321.076 455.946 321.658 455.82 322.402 455.82H322.816ZM328.828 455.82V457.26H328.09C327.214 457.26 326.584 457.554 326.2 458.142C325.828 458.73 325.642 459.456 325.642 460.32V465H324.166V455.82H325.444L325.642 457.206C325.906 456.786 326.248 456.45 326.668 456.198C327.088 455.946 327.67 455.82 328.414 455.82H328.828ZM329.327 460.41C329.327 459.474 329.507 458.652 329.867 457.944C330.239 457.236 330.755 456.69 331.415 456.306C332.075 455.91 332.831 455.712 333.683 455.712C334.523 455.712 335.267 455.886 335.915 456.234C336.563 456.582 337.073 457.086 337.445 457.746C337.817 458.406 338.015 459.18 338.039 460.068C338.039 460.2 338.027 460.41 338.003 460.698H330.875V460.824C330.899 461.724 331.175 462.444 331.703 462.984C332.231 463.524 332.921 463.794 333.773 463.794C334.433 463.794 334.991 463.632 335.447 463.308C335.915 462.972 336.227 462.51 336.383 461.922H337.877C337.697 462.858 337.247 463.626 336.527 464.226C335.807 464.814 334.925 465.108 333.881 465.108C332.969 465.108 332.171 464.916 331.487 464.532C330.803 464.136 330.269 463.584 329.885 462.876C329.513 462.156 329.327 461.334 329.327 460.41ZM336.509 459.474C336.437 458.694 336.143 458.088 335.627 457.656C335.123 457.224 334.481 457.008 333.701 457.008C333.005 457.008 332.393 457.236 331.865 457.692C331.337 458.148 331.037 458.742 330.965 459.474H336.509ZM344.223 455.712C345.339 455.712 346.233 456.048 346.905 456.72C347.589 457.392 347.931 458.448 347.931 459.888V465H346.455V459.978C346.455 459.03 346.239 458.31 345.807 457.818C345.387 457.314 344.775 457.062 343.971 457.062C343.107 457.062 342.429 457.362 341.937 457.962C341.445 458.562 341.199 459.378 341.199 460.41V465H339.723V455.82H341.001L341.199 457.062C341.895 456.162 342.903 455.712 344.223 455.712ZM350.425 457.17H348.769V455.82H350.425V453.246H351.901V455.82H354.223V457.17H351.901V462.588C351.901 462.972 351.973 463.248 352.117 463.416C352.273 463.572 352.537 463.65 352.909 463.65H354.511V465H352.819C351.955 465 351.337 464.808 350.965 464.424C350.605 464.04 350.425 463.434 350.425 462.606V457.17ZM364.934 455.82V457.26H364.196C363.32 457.26 362.69 457.554 362.306 458.142C361.934 458.73 361.748 459.456 361.748 460.32V465H360.272V455.82H361.55L361.748 457.206C362.012 456.786 362.354 456.45 362.774 456.198C363.194 455.946 363.776 455.82 364.52 455.82H364.934ZM367.021 452.274C367.297 452.274 367.525 452.364 367.705 452.544C367.885 452.724 367.975 452.952 367.975 453.228C367.975 453.504 367.885 453.732 367.705 453.912C367.525 454.092 367.297 454.182 367.021 454.182C366.745 454.182 366.517 454.092 366.337 453.912C366.157 453.732 366.067 453.504 366.067 453.228C366.067 452.952 366.157 452.724 366.337 452.544C366.517 452.364 366.745 452.274 367.021 452.274ZM366.283 455.82H367.759V465H366.283V455.82ZM370.933 461.976C370.957 462.528 371.197 462.978 371.653 463.326C372.121 463.674 372.721 463.848 373.453 463.848C374.101 463.848 374.623 463.722 375.019 463.47C375.427 463.206 375.631 462.864 375.631 462.444C375.631 462.084 375.535 461.808 375.343 461.616C375.151 461.424 374.899 461.292 374.587 461.22C374.287 461.148 373.855 461.076 373.291 461.004C372.499 460.908 371.851 460.782 371.347 460.626C370.843 460.47 370.435 460.224 370.123 459.888C369.811 459.54 369.655 459.066 369.655 458.466C369.655 457.926 369.805 457.446 370.105 457.026C370.417 456.606 370.837 456.282 371.365 456.054C371.893 455.814 372.487 455.694 373.147 455.694C374.227 455.694 375.103 455.946 375.775 456.45C376.459 456.954 376.837 457.674 376.909 458.61H375.433C375.373 458.13 375.139 457.734 374.731 457.422C374.323 457.11 373.813 456.954 373.201 456.954C372.577 456.954 372.073 457.086 371.689 457.35C371.305 457.602 371.113 457.938 371.113 458.358C371.113 458.67 371.203 458.91 371.383 459.078C371.563 459.246 371.791 459.36 372.067 459.42C372.355 459.48 372.787 459.546 373.363 459.618C374.167 459.714 374.827 459.846 375.343 460.014C375.871 460.182 376.291 460.452 376.603 460.824C376.927 461.196 377.089 461.7 377.089 462.336C377.089 462.888 376.927 463.374 376.603 463.794C376.279 464.214 375.841 464.538 375.289 464.766C374.737 464.994 374.125 465.108 373.453 465.108C372.253 465.108 371.287 464.832 370.555 464.28C369.835 463.728 369.469 462.96 369.457 461.976H370.933ZM378.764 452.4H380.24V460.752L384.902 455.82H386.666L383.138 459.582L386.918 465H385.136L382.076 460.644L380.24 462.57V465H378.764V452.4ZM393.926 461.976C393.95 462.528 394.19 462.978 394.646 463.326C395.114 463.674 395.714 463.848 396.446 463.848C397.094 463.848 397.616 463.722 398.012 463.47C398.42 463.206 398.624 462.864 398.624 462.444C398.624 462.084 398.528 461.808 398.336 461.616C398.144 461.424 397.892 461.292 397.58 461.22C397.28 461.148 396.848 461.076 396.284 461.004C395.492 460.908 394.844 460.782 394.34 460.626C393.836 460.47 393.428 460.224 393.116 459.888C392.804 459.54 392.648 459.066 392.648 458.466C392.648 457.926 392.798 457.446 393.098 457.026C393.41 456.606 393.83 456.282 394.358 456.054C394.886 455.814 395.48 455.694 396.14 455.694C397.22 455.694 398.096 455.946 398.768 456.45C399.452 456.954 399.83 457.674 399.902 458.61H398.426C398.366 458.13 398.132 457.734 397.724 457.422C397.316 457.11 396.806 456.954 396.194 456.954C395.57 456.954 395.066 457.086 394.682 457.35C394.298 457.602 394.106 457.938 394.106 458.358C394.106 458.67 394.196 458.91 394.376 459.078C394.556 459.246 394.784 459.36 395.06 459.42C395.348 459.48 395.78 459.546 396.356 459.618C397.16 459.714 397.82 459.846 398.336 460.014C398.864 460.182 399.284 460.452 399.596 460.824C399.92 461.196 400.082 461.7 400.082 462.336C400.082 462.888 399.92 463.374 399.596 463.794C399.272 464.214 398.834 464.538 398.282 464.766C397.73 464.994 397.118 465.108 396.446 465.108C395.246 465.108 394.28 464.832 393.548 464.28C392.828 463.728 392.462 462.96 392.45 461.976H393.926ZM402.494 452.274C402.77 452.274 402.998 452.364 403.178 452.544C403.358 452.724 403.448 452.952 403.448 453.228C403.448 453.504 403.358 453.732 403.178 453.912C402.998 454.092 402.77 454.182 402.494 454.182C402.218 454.182 401.99 454.092 401.81 453.912C401.63 453.732 401.54 453.504 401.54 453.228C401.54 452.952 401.63 452.724 401.81 452.544C401.99 452.364 402.218 452.274 402.494 452.274ZM401.756 455.82H403.232V465H401.756V455.82ZM413.966 455.82V464.55C413.966 467.322 412.448 468.708 409.412 468.708C408.224 468.708 407.252 468.438 406.496 467.898C405.752 467.358 405.32 466.59 405.2 465.594H406.712C406.832 466.17 407.138 466.614 407.63 466.926C408.122 467.238 408.752 467.394 409.52 467.394C411.5 467.394 412.49 466.428 412.49 464.496V463.416C411.83 464.544 410.78 465.108 409.34 465.108C408.488 465.108 407.726 464.922 407.054 464.55C406.394 464.178 405.872 463.638 405.488 462.93C405.116 462.222 404.93 461.382 404.93 460.41C404.93 459.486 405.116 458.67 405.488 457.962C405.872 457.254 406.4 456.702 407.072 456.306C407.744 455.91 408.5 455.712 409.34 455.712C410.084 455.712 410.72 455.862 411.248 456.162C411.776 456.45 412.19 456.864 412.49 457.404L412.688 455.82H413.966ZM409.484 463.794C410.072 463.794 410.594 463.656 411.05 463.38C411.518 463.092 411.878 462.696 412.13 462.192C412.382 461.676 412.508 461.094 412.508 460.446C412.508 459.786 412.382 459.198 412.13 458.682C411.878 458.154 411.518 457.746 411.05 457.458C410.594 457.17 410.072 457.026 409.484 457.026C408.572 457.026 407.834 457.344 407.27 457.98C406.718 458.604 406.442 459.414 406.442 460.41C406.442 461.406 406.718 462.222 407.27 462.858C407.834 463.482 408.572 463.794 409.484 463.794ZM420.477 455.712C421.593 455.712 422.487 456.048 423.159 456.72C423.843 457.392 424.185 458.448 424.185 459.888V465H422.709V459.978C422.709 459.03 422.493 458.31 422.061 457.818C421.641 457.314 421.029 457.062 420.225 457.062C419.361 457.062 418.683 457.362 418.191 457.962C417.699 458.562 417.453 459.378 417.453 460.41V465H415.977V455.82H417.255L417.453 457.062C418.149 456.162 419.157 455.712 420.477 455.712ZM434.653 463.65V465H433.843C433.255 465 432.835 464.88 432.583 464.64C432.331 464.4 432.199 464.046 432.187 463.578C431.479 464.598 430.453 465.108 429.109 465.108C428.089 465.108 427.267 464.868 426.643 464.388C426.031 463.908 425.725 463.254 425.725 462.426C425.725 461.502 426.037 460.794 426.661 460.302C427.297 459.81 428.215 459.564 429.415 459.564H432.115V458.934C432.115 458.334 431.911 457.866 431.503 457.53C431.107 457.194 430.549 457.026 429.829 457.026C429.193 457.026 428.665 457.17 428.245 457.458C427.837 457.734 427.585 458.106 427.489 458.574H426.013C426.121 457.674 426.517 456.972 427.201 456.468C427.897 455.964 428.797 455.712 429.901 455.712C431.077 455.712 431.983 456 432.619 456.576C433.267 457.14 433.591 457.956 433.591 459.024V462.984C433.591 463.428 433.795 463.65 434.203 463.65H434.653ZM432.115 460.806H429.271C427.903 460.806 427.219 461.316 427.219 462.336C427.219 462.792 427.399 463.158 427.759 463.434C428.119 463.71 428.605 463.848 429.217 463.848C430.117 463.848 430.825 463.614 431.341 463.146C431.857 462.666 432.115 462.036 432.115 461.256V460.806ZM435.787 452.4H437.263V465H435.787V452.4ZM440.437 461.976C440.461 462.528 440.701 462.978 441.157 463.326C441.625 463.674 442.225 463.848 442.957 463.848C443.605 463.848 444.127 463.722 444.523 463.47C444.931 463.206 445.135 462.864 445.135 462.444C445.135 462.084 445.039 461.808 444.847 461.616C444.655 461.424 444.403 461.292 444.091 461.22C443.791 461.148 443.359 461.076 442.795 461.004C442.003 460.908 441.355 460.782 440.851 460.626C440.347 460.47 439.939 460.224 439.627 459.888C439.315 459.54 439.159 459.066 439.159 458.466C439.159 457.926 439.309 457.446 439.609 457.026C439.921 456.606 440.341 456.282 440.869 456.054C441.397 455.814 441.991 455.694 442.651 455.694C443.731 455.694 444.607 455.946 445.279 456.45C445.963 456.954 446.341 457.674 446.413 458.61H444.937C444.877 458.13 444.643 457.734 444.235 457.422C443.827 457.11 443.317 456.954 442.705 456.954C442.081 456.954 441.577 457.086 441.193 457.35C440.809 457.602 440.617 457.938 440.617 458.358C440.617 458.67 440.707 458.91 440.887 459.078C441.067 459.246 441.295 459.36 441.571 459.42C441.859 459.48 442.291 459.546 442.867 459.618C443.671 459.714 444.331 459.846 444.847 460.014C445.375 460.182 445.795 460.452 446.107 460.824C446.431 461.196 446.593 461.7 446.593 462.336C446.593 462.888 446.431 463.374 446.107 463.794C445.783 464.214 445.345 464.538 444.793 464.766C444.241 464.994 443.629 465.108 442.957 465.108C441.757 465.108 440.791 464.832 440.059 464.28C439.339 463.728 438.973 462.96 438.961 461.976H440.437ZM447.947 464.1C447.947 463.8 448.043 463.56 448.235 463.38C448.427 463.188 448.673 463.092 448.973 463.092C449.273 463.092 449.519 463.188 449.711 463.38C449.903 463.56 449.999 463.8 449.999 464.1C449.999 464.4 449.903 464.646 449.711 464.838C449.519 465.018 449.273 465.108 448.973 465.108C448.673 465.108 448.427 465.018 448.235 464.838C448.043 464.646 447.947 464.4 447.947 464.1Z" fill="black"/>
<rect x="62" y="428" width="31" height="31" rx="4" fill="#5A7E83"/>
<path d="M84.2222 452V450.111C84.2222 449.109 83.8242 448.148 83.1157 447.44C82.4073 446.731 81.4464 446.333 80.4444 446.333H74.7778C73.7758 446.333 72.815 446.731 72.1065 447.44C71.398 448.148 71 449.109 71 450.111V452" stroke="white" stroke-width="1.5" stroke-linecap="round" stroke-linejoin="round"/>
<path d="M77.6108 442.556C79.6972 442.556 81.3886 440.864 81.3886 438.778C81.3886 436.691 79.6972 435 77.6108 435C75.5244 435 73.833 436.691 73.833 438.778C73.833 440.864 75.5244 442.556 77.6108 442.556Z" stroke="white" stroke-width="1.5" stroke-linecap="round" stroke-linejoin="round"/>
</svg>
