<svg width="706" height="540" viewBox="0 0 706 540" fill="none" xmlns="http://www.w3.org/2000/svg">
<rect opacity="0.5" x="510" y="305" width="175" height="40" rx="5" fill="white"/>
<path d="M566.455 327.812H566.347C566.275 327.988 566.187 328.156 566.083 328.316C565.979 328.476 565.851 328.62 565.699 328.748C565.547 328.868 565.367 328.964 565.159 329.036C564.959 329.108 564.731 329.144 564.475 329.144C564.067 329.144 563.703 329.048 563.383 328.856C563.071 328.664 562.807 328.384 562.591 328.016C562.375 327.648 562.211 327.2 562.099 326.672C561.995 326.144 561.943 325.548 561.943 324.884C561.943 323.46 562.203 322.372 562.723 321.62C563.243 320.86 564.047 320.48 565.135 320.48C565.567 320.48 565.947 320.54 566.275 320.66C566.603 320.772 566.883 320.936 567.115 321.152C567.355 321.36 567.551 321.612 567.703 321.908C567.855 322.204 567.975 322.532 568.063 322.892L566.383 323.3C566.335 323.124 566.279 322.956 566.215 322.796C566.159 322.628 566.083 322.48 565.987 322.352C565.891 322.224 565.771 322.124 565.627 322.052C565.483 321.972 565.307 321.932 565.099 321.932C564.643 321.932 564.319 322.12 564.127 322.496C563.943 322.872 563.851 323.4 563.851 324.08V325.448C563.851 326.128 563.951 326.672 564.151 327.08C564.359 327.488 564.723 327.692 565.243 327.692C565.651 327.692 565.955 327.572 566.155 327.332C566.355 327.092 566.455 326.784 566.455 326.408V325.796H565.027V324.524H568.063V329H566.455V327.812ZM569.679 329V320.624H575.031V322.1H571.479V324.02H574.911V325.496H571.479V327.524H575.031V329H569.679ZM578.314 323.432H578.182V329H576.646V320.624H578.806L580.714 326.192H580.846V320.624H582.382V329H580.222L578.314 323.432ZM584.069 329V320.624H589.421V322.1H585.869V324.02H589.301V325.496H585.869V327.524H589.421V329H584.069ZM592.993 329H591.217V320.624H594.457C594.865 320.624 595.229 320.688 595.549 320.816C595.869 320.936 596.137 321.112 596.353 321.344C596.577 321.576 596.745 321.856 596.857 322.184C596.969 322.512 597.025 322.88 597.025 323.288C597.025 323.88 596.897 324.388 596.641 324.812C596.385 325.236 596.021 325.516 595.549 325.652L597.193 329H595.225L593.821 325.892H592.993V329ZM594.025 324.5C594.449 324.5 594.741 324.42 594.901 324.26C595.069 324.1 595.153 323.836 595.153 323.468V323.108C595.153 322.74 595.069 322.476 594.901 322.316C594.741 322.156 594.449 322.076 594.025 322.076H592.993V324.5H594.025ZM602.72 329L602.192 326.984H599.9L599.384 329H597.56L599.828 320.624H602.372L604.64 329H602.72ZM601.1 322.364H601.004L600.188 325.532H601.916L601.1 322.364ZM609.195 322.1V329H607.395V322.1H604.983V320.624H611.607V322.1H609.195ZM612.791 329V327.668H614.591V321.956H612.791V320.624H618.191V321.956H616.391V327.668H618.191V329H612.791ZM621.486 323.432H621.354V329H619.818V320.624H621.978L623.886 326.192H624.018V320.624H625.554V329H623.394L621.486 323.432ZM631.213 327.812H631.105C631.033 327.988 630.945 328.156 630.841 328.316C630.737 328.476 630.609 328.62 630.457 328.748C630.305 328.868 630.125 328.964 629.917 329.036C629.717 329.108 629.489 329.144 629.233 329.144C628.825 329.144 628.461 329.048 628.141 328.856C627.829 328.664 627.565 328.384 627.349 328.016C627.133 327.648 626.969 327.2 626.857 326.672C626.753 326.144 626.701 325.548 626.701 324.884C626.701 323.46 626.961 322.372 627.481 321.62C628.001 320.86 628.805 320.48 629.893 320.48C630.325 320.48 630.705 320.54 631.033 320.66C631.361 320.772 631.641 320.936 631.873 321.152C632.113 321.36 632.309 321.612 632.461 321.908C632.613 322.204 632.733 322.532 632.821 322.892L631.141 323.3C631.093 323.124 631.037 322.956 630.973 322.796C630.917 322.628 630.841 322.48 630.745 322.352C630.649 322.224 630.529 322.124 630.385 322.052C630.241 321.972 630.065 321.932 629.857 321.932C629.401 321.932 629.077 322.12 628.885 322.496C628.701 322.872 628.609 323.4 628.609 324.08V325.448C628.609 326.128 628.709 326.672 628.909 327.08C629.117 327.488 629.481 327.692 630.001 327.692C630.409 327.692 630.713 327.572 630.913 327.332C631.113 327.092 631.213 326.784 631.213 326.408V325.796H629.785V324.524H632.821V329H631.213V327.812Z" fill="white"/>
<rect opacity="0.8" x="453" y="118" width="424" height="89" rx="9" transform="rotate(-180 453 118)" fill="white"/>
<path d="M92.224 54.4H100.054V55.84H93.79V60.052H98.974V61.492H93.79V67H92.224V54.4ZM105.062 67.108C104.174 67.108 103.382 66.91 102.686 66.514C102.002 66.118 101.468 65.566 101.084 64.858C100.7 64.15 100.508 63.334 100.508 62.41C100.508 61.486 100.7 60.67 101.084 59.962C101.468 59.254 102.002 58.702 102.686 58.306C103.382 57.91 104.174 57.712 105.062 57.712C105.95 57.712 106.736 57.91 107.42 58.306C108.116 58.702 108.656 59.254 109.04 59.962C109.424 60.67 109.616 61.486 109.616 62.41C109.616 63.334 109.424 64.15 109.04 64.858C108.656 65.566 108.116 66.118 107.42 66.514C106.736 66.91 105.95 67.108 105.062 67.108ZM105.062 65.794C105.662 65.794 106.19 65.65 106.646 65.362C107.114 65.074 107.474 64.672 107.726 64.156C107.978 63.64 108.104 63.058 108.104 62.41C108.104 61.762 107.978 61.18 107.726 60.664C107.474 60.148 107.114 59.746 106.646 59.458C106.19 59.17 105.662 59.026 105.062 59.026C104.462 59.026 103.928 59.17 103.46 59.458C103.004 59.746 102.65 60.148 102.398 60.664C102.146 61.18 102.02 61.762 102.02 62.41C102.02 63.058 102.146 63.64 102.398 64.156C102.65 64.672 103.004 65.074 103.46 65.362C103.928 65.65 104.462 65.794 105.062 65.794ZM115.971 57.82V59.26H115.233C114.357 59.26 113.727 59.554 113.343 60.142C112.971 60.73 112.785 61.456 112.785 62.32V67H111.309V57.82H112.587L112.785 59.206C113.049 58.786 113.391 58.45 113.811 58.198C114.231 57.946 114.813 57.82 115.557 57.82H115.971ZM116.469 62.41C116.469 61.474 116.649 60.652 117.009 59.944C117.381 59.236 117.897 58.69 118.557 58.306C119.217 57.91 119.973 57.712 120.825 57.712C121.665 57.712 122.409 57.886 123.057 58.234C123.705 58.582 124.215 59.086 124.587 59.746C124.959 60.406 125.157 61.18 125.181 62.068C125.181 62.2 125.169 62.41 125.145 62.698H118.017V62.824C118.041 63.724 118.317 64.444 118.845 64.984C119.373 65.524 120.063 65.794 120.915 65.794C121.575 65.794 122.133 65.632 122.589 65.308C123.057 64.972 123.369 64.51 123.525 63.922H125.019C124.839 64.858 124.389 65.626 123.669 66.226C122.949 66.814 122.067 67.108 121.023 67.108C120.111 67.108 119.313 66.916 118.629 66.532C117.945 66.136 117.411 65.584 117.027 64.876C116.655 64.156 116.469 63.334 116.469 62.41ZM123.651 61.474C123.579 60.694 123.285 60.088 122.769 59.656C122.265 59.224 121.623 59.008 120.843 59.008C120.147 59.008 119.535 59.236 119.007 59.692C118.479 60.148 118.179 60.742 118.107 61.474H123.651ZM135.055 63.832C134.863 64.852 134.413 65.656 133.705 66.244C132.997 66.82 132.097 67.108 131.005 67.108C130.117 67.108 129.337 66.91 128.665 66.514C127.993 66.118 127.471 65.566 127.099 64.858C126.727 64.138 126.541 63.316 126.541 62.392C126.541 61.468 126.727 60.652 127.099 59.944C127.483 59.236 128.017 58.69 128.701 58.306C129.385 57.91 130.171 57.712 131.059 57.712C132.139 57.712 133.027 58 133.723 58.576C134.431 59.152 134.875 59.944 135.055 60.952H133.561C133.417 60.364 133.117 59.896 132.661 59.548C132.205 59.2 131.653 59.026 131.005 59.026C130.129 59.026 129.415 59.338 128.863 59.962C128.323 60.586 128.053 61.396 128.053 62.392C128.053 63.4 128.323 64.222 128.863 64.858C129.415 65.482 130.129 65.794 131.005 65.794C131.677 65.794 132.241 65.62 132.697 65.272C133.153 64.924 133.447 64.444 133.579 63.832H135.055ZM145.348 65.65V67H144.538C143.95 67 143.53 66.88 143.278 66.64C143.026 66.4 142.894 66.046 142.882 65.578C142.174 66.598 141.148 67.108 139.804 67.108C138.784 67.108 137.962 66.868 137.338 66.388C136.726 65.908 136.42 65.254 136.42 64.426C136.42 63.502 136.732 62.794 137.356 62.302C137.992 61.81 138.91 61.564 140.11 61.564H142.81V60.934C142.81 60.334 142.606 59.866 142.198 59.53C141.802 59.194 141.244 59.026 140.524 59.026C139.888 59.026 139.36 59.17 138.94 59.458C138.532 59.734 138.28 60.106 138.184 60.574H136.708C136.816 59.674 137.212 58.972 137.896 58.468C138.592 57.964 139.492 57.712 140.596 57.712C141.772 57.712 142.678 58 143.314 58.576C143.962 59.14 144.286 59.956 144.286 61.024V64.984C144.286 65.428 144.49 65.65 144.898 65.65H145.348ZM142.81 62.806H139.966C138.598 62.806 137.914 63.316 137.914 64.336C137.914 64.792 138.094 65.158 138.454 65.434C138.814 65.71 139.3 65.848 139.912 65.848C140.812 65.848 141.52 65.614 142.036 65.146C142.552 64.666 142.81 64.036 142.81 63.256V62.806ZM147.635 63.976C147.659 64.528 147.899 64.978 148.355 65.326C148.823 65.674 149.423 65.848 150.155 65.848C150.803 65.848 151.325 65.722 151.721 65.47C152.129 65.206 152.333 64.864 152.333 64.444C152.333 64.084 152.237 63.808 152.045 63.616C151.853 63.424 151.601 63.292 151.289 63.22C150.989 63.148 150.557 63.076 149.993 63.004C149.201 62.908 148.553 62.782 148.049 62.626C147.545 62.47 147.137 62.224 146.825 61.888C146.513 61.54 146.357 61.066 146.357 60.466C146.357 59.926 146.507 59.446 146.807 59.026C147.119 58.606 147.539 58.282 148.067 58.054C148.595 57.814 149.189 57.694 149.849 57.694C150.929 57.694 151.805 57.946 152.477 58.45C153.161 58.954 153.539 59.674 153.611 60.61H152.135C152.075 60.13 151.841 59.734 151.433 59.422C151.025 59.11 150.515 58.954 149.903 58.954C149.279 58.954 148.775 59.086 148.391 59.35C148.007 59.602 147.815 59.938 147.815 60.358C147.815 60.67 147.905 60.91 148.085 61.078C148.265 61.246 148.493 61.36 148.769 61.42C149.057 61.48 149.489 61.546 150.065 61.618C150.869 61.714 151.529 61.846 152.045 62.014C152.573 62.182 152.993 62.452 153.305 62.824C153.629 63.196 153.791 63.7 153.791 64.336C153.791 64.888 153.629 65.374 153.305 65.794C152.981 66.214 152.543 66.538 151.991 66.766C151.439 66.994 150.827 67.108 150.155 67.108C148.955 67.108 147.989 66.832 147.257 66.28C146.537 65.728 146.171 64.96 146.159 63.976H147.635ZM156.077 59.17H154.421V57.82H156.077V55.246H157.553V57.82H159.875V59.17H157.553V64.588C157.553 64.972 157.625 65.248 157.769 65.416C157.925 65.572 158.189 65.65 158.561 65.65H160.163V67H158.471C157.607 67 156.989 66.808 156.617 66.424C156.257 66.04 156.077 65.434 156.077 64.606V59.17ZM174.636 54.4V67H173.358L173.16 65.524C172.392 66.58 171.342 67.108 170.01 67.108C169.158 67.108 168.396 66.922 167.724 66.55C167.064 66.178 166.542 65.638 166.158 64.93C165.786 64.222 165.6 63.382 165.6 62.41C165.6 61.486 165.786 60.67 166.158 59.962C166.542 59.254 167.07 58.702 167.742 58.306C168.414 57.91 169.17 57.712 170.01 57.712C170.754 57.712 171.39 57.85 171.918 58.126C172.446 58.39 172.86 58.756 173.16 59.224V54.4H174.636ZM170.154 65.794C170.742 65.794 171.264 65.656 171.72 65.38C172.188 65.092 172.548 64.696 172.8 64.192C173.052 63.676 173.178 63.094 173.178 62.446C173.178 61.786 173.052 61.198 172.8 60.682C172.548 60.154 172.188 59.746 171.72 59.458C171.264 59.17 170.742 59.026 170.154 59.026C169.242 59.026 168.504 59.344 167.94 59.98C167.388 60.604 167.112 61.414 167.112 62.41C167.112 63.406 167.388 64.222 167.94 64.858C168.504 65.482 169.242 65.794 170.154 65.794ZM176.323 62.41C176.323 61.474 176.503 60.652 176.863 59.944C177.235 59.236 177.751 58.69 178.411 58.306C179.071 57.91 179.827 57.712 180.679 57.712C181.519 57.712 182.263 57.886 182.911 58.234C183.559 58.582 184.069 59.086 184.441 59.746C184.813 60.406 185.011 61.18 185.035 62.068C185.035 62.2 185.023 62.41 184.999 62.698H177.871V62.824C177.895 63.724 178.171 64.444 178.699 64.984C179.227 65.524 179.917 65.794 180.769 65.794C181.429 65.794 181.987 65.632 182.443 65.308C182.911 64.972 183.223 64.51 183.379 63.922H184.873C184.693 64.858 184.243 65.626 183.523 66.226C182.803 66.814 181.921 67.108 180.877 67.108C179.965 67.108 179.167 66.916 178.483 66.532C177.799 66.136 177.265 65.584 176.881 64.876C176.509 64.156 176.323 63.334 176.323 62.41ZM183.505 61.474C183.433 60.694 183.139 60.088 182.623 59.656C182.119 59.224 181.477 59.008 180.697 59.008C180.001 59.008 179.389 59.236 178.861 59.692C178.333 60.148 178.033 60.742 177.961 61.474H183.505ZM196.961 57.712C197.993 57.712 198.827 58.036 199.463 58.684C200.111 59.332 200.435 60.34 200.435 61.708V67H198.959V61.798C198.959 60.91 198.767 60.232 198.383 59.764C198.011 59.296 197.477 59.062 196.781 59.062C196.013 59.062 195.407 59.332 194.963 59.872C194.531 60.412 194.315 61.15 194.315 62.086V67H192.839V61.798C192.839 60.91 192.647 60.232 192.263 59.764C191.879 59.296 191.333 59.062 190.625 59.062C189.881 59.062 189.287 59.35 188.843 59.926C188.411 60.49 188.195 61.234 188.195 62.158V67H186.719V57.82H187.997L188.195 59.08C188.855 58.168 189.749 57.712 190.877 57.712C191.537 57.712 192.119 57.862 192.623 58.162C193.139 58.45 193.523 58.882 193.775 59.458C194.435 58.294 195.497 57.712 196.961 57.712ZM210.914 65.65V67H210.104C209.516 67 209.096 66.88 208.844 66.64C208.592 66.4 208.46 66.046 208.448 65.578C207.74 66.598 206.714 67.108 205.37 67.108C204.35 67.108 203.528 66.868 202.904 66.388C202.292 65.908 201.986 65.254 201.986 64.426C201.986 63.502 202.298 62.794 202.922 62.302C203.558 61.81 204.476 61.564 205.676 61.564H208.376V60.934C208.376 60.334 208.172 59.866 207.764 59.53C207.368 59.194 206.81 59.026 206.09 59.026C205.454 59.026 204.926 59.17 204.506 59.458C204.098 59.734 203.846 60.106 203.75 60.574H202.274C202.382 59.674 202.778 58.972 203.462 58.468C204.158 57.964 205.058 57.712 206.162 57.712C207.338 57.712 208.244 58 208.88 58.576C209.528 59.14 209.852 59.956 209.852 61.024V64.984C209.852 65.428 210.056 65.65 210.464 65.65H210.914ZM208.376 62.806H205.532C204.164 62.806 203.48 63.316 203.48 64.336C203.48 64.792 203.66 65.158 204.02 65.434C204.38 65.71 204.866 65.848 205.478 65.848C206.378 65.848 207.086 65.614 207.602 65.146C208.118 64.666 208.376 64.036 208.376 63.256V62.806ZM216.549 57.712C217.665 57.712 218.559 58.048 219.231 58.72C219.915 59.392 220.257 60.448 220.257 61.888V67H218.781V61.978C218.781 61.03 218.565 60.31 218.133 59.818C217.713 59.314 217.101 59.062 216.297 59.062C215.433 59.062 214.755 59.362 214.263 59.962C213.771 60.562 213.525 61.378 213.525 62.41V67H212.049V57.82H213.327L213.525 59.062C214.221 58.162 215.229 57.712 216.549 57.712ZM230.851 54.4V67H229.573L229.375 65.524C228.607 66.58 227.557 67.108 226.225 67.108C225.373 67.108 224.611 66.922 223.939 66.55C223.279 66.178 222.757 65.638 222.373 64.93C222.001 64.222 221.815 63.382 221.815 62.41C221.815 61.486 222.001 60.67 222.373 59.962C222.757 59.254 223.285 58.702 223.957 58.306C224.629 57.91 225.385 57.712 226.225 57.712C226.969 57.712 227.605 57.85 228.133 58.126C228.661 58.39 229.075 58.756 229.375 59.224V54.4H230.851ZM226.369 65.794C226.957 65.794 227.479 65.656 227.935 65.38C228.403 65.092 228.763 64.696 229.015 64.192C229.267 63.676 229.393 63.094 229.393 62.446C229.393 61.786 229.267 61.198 229.015 60.682C228.763 60.154 228.403 59.746 227.935 59.458C227.479 59.17 226.957 59.026 226.369 59.026C225.457 59.026 224.719 59.344 224.155 59.98C223.603 60.604 223.327 61.414 223.327 62.41C223.327 63.406 223.603 64.222 224.155 64.858C224.719 65.482 225.457 65.794 226.369 65.794ZM238.184 57.82V56.794C238.184 55.978 238.37 55.378 238.742 54.994C239.126 54.598 239.738 54.4 240.578 54.4H242.27V55.75H240.668C240.308 55.75 240.05 55.828 239.894 55.984C239.738 56.14 239.66 56.398 239.66 56.758V57.82H242.252V59.17H239.66V67H238.184V59.17H236.528V57.82H238.184ZM247.058 67.108C246.17 67.108 245.378 66.91 244.682 66.514C243.998 66.118 243.464 65.566 243.08 64.858C242.696 64.15 242.504 63.334 242.504 62.41C242.504 61.486 242.696 60.67 243.08 59.962C243.464 59.254 243.998 58.702 244.682 58.306C245.378 57.91 246.17 57.712 247.058 57.712C247.946 57.712 248.732 57.91 249.416 58.306C250.112 58.702 250.652 59.254 251.036 59.962C251.42 60.67 251.612 61.486 251.612 62.41C251.612 63.334 251.42 64.15 251.036 64.858C250.652 65.566 250.112 66.118 249.416 66.514C248.732 66.91 247.946 67.108 247.058 67.108ZM247.058 65.794C247.658 65.794 248.186 65.65 248.642 65.362C249.11 65.074 249.47 64.672 249.722 64.156C249.974 63.64 250.1 63.058 250.1 62.41C250.1 61.762 249.974 61.18 249.722 60.664C249.47 60.148 249.11 59.746 248.642 59.458C248.186 59.17 247.658 59.026 247.058 59.026C246.458 59.026 245.924 59.17 245.456 59.458C245 59.746 244.646 60.148 244.394 60.664C244.142 61.18 244.016 61.762 244.016 62.41C244.016 63.058 244.142 63.64 244.394 64.156C244.646 64.672 245 65.074 245.456 65.362C245.924 65.65 246.458 65.794 247.058 65.794ZM257.967 57.82V59.26H257.229C256.353 59.26 255.723 59.554 255.339 60.142C254.967 60.73 254.781 61.456 254.781 62.32V67H253.305V57.82H254.583L254.781 59.206C255.045 58.786 255.387 58.45 255.807 58.198C256.227 57.946 256.809 57.82 257.553 57.82H257.967ZM264.64 59.17H262.984V57.82H264.64V55.246H266.116V57.82H268.438V59.17H266.116V64.588C266.116 64.972 266.188 65.248 266.332 65.416C266.488 65.572 266.752 65.65 267.124 65.65H268.726V67H267.034C266.17 67 265.552 66.808 265.18 66.424C264.82 66.04 264.64 65.434 264.64 64.606V59.17ZM274.276 57.712C275.392 57.712 276.292 58.048 276.976 58.72C277.66 59.392 278.002 60.448 278.002 61.888V67H276.526V61.978C276.526 61.03 276.31 60.31 275.878 59.818C275.446 59.314 274.828 59.062 274.024 59.062C273.172 59.062 272.494 59.362 271.99 59.962C271.498 60.562 271.252 61.378 271.252 62.41V67H269.776V54.4H271.252V59.332C271.552 58.852 271.948 58.462 272.44 58.162C272.944 57.862 273.556 57.712 274.276 57.712ZM279.559 62.41C279.559 61.474 279.739 60.652 280.099 59.944C280.471 59.236 280.987 58.69 281.647 58.306C282.307 57.91 283.063 57.712 283.915 57.712C284.755 57.712 285.499 57.886 286.147 58.234C286.795 58.582 287.305 59.086 287.677 59.746C288.049 60.406 288.247 61.18 288.271 62.068C288.271 62.2 288.259 62.41 288.235 62.698H281.107V62.824C281.131 63.724 281.407 64.444 281.935 64.984C282.463 65.524 283.153 65.794 284.005 65.794C284.665 65.794 285.223 65.632 285.679 65.308C286.147 64.972 286.459 64.51 286.615 63.922H288.109C287.929 64.858 287.479 65.626 286.759 66.226C286.039 66.814 285.157 67.108 284.113 67.108C283.201 67.108 282.403 66.916 281.719 66.532C281.035 66.136 280.501 65.584 280.117 64.876C279.745 64.156 279.559 63.334 279.559 62.41ZM286.741 61.474C286.669 60.694 286.375 60.088 285.859 59.656C285.355 59.224 284.713 59.008 283.933 59.008C283.237 59.008 282.625 59.236 282.097 59.692C281.569 60.148 281.269 60.742 281.197 61.474H286.741ZM299.166 57.712C300.282 57.712 301.176 58.048 301.848 58.72C302.532 59.392 302.874 60.448 302.874 61.888V67H301.398V61.978C301.398 61.03 301.182 60.31 300.75 59.818C300.33 59.314 299.718 59.062 298.914 59.062C298.05 59.062 297.372 59.362 296.88 59.962C296.388 60.562 296.142 61.378 296.142 62.41V67H294.666V57.82H295.944L296.142 59.062C296.838 58.162 297.846 57.712 299.166 57.712ZM304.432 62.41C304.432 61.474 304.612 60.652 304.972 59.944C305.344 59.236 305.86 58.69 306.52 58.306C307.18 57.91 307.936 57.712 308.788 57.712C309.628 57.712 310.372 57.886 311.02 58.234C311.668 58.582 312.178 59.086 312.55 59.746C312.922 60.406 313.12 61.18 313.144 62.068C313.144 62.2 313.132 62.41 313.108 62.698H305.98V62.824C306.004 63.724 306.28 64.444 306.808 64.984C307.336 65.524 308.026 65.794 308.878 65.794C309.538 65.794 310.096 65.632 310.552 65.308C311.02 64.972 311.332 64.51 311.488 63.922H312.982C312.802 64.858 312.352 65.626 311.632 66.226C310.912 66.814 310.03 67.108 308.986 67.108C308.074 67.108 307.276 66.916 306.592 66.532C305.908 66.136 305.374 65.584 304.99 64.876C304.618 64.156 304.432 63.334 304.432 62.41ZM311.614 61.474C311.542 60.694 311.248 60.088 310.732 59.656C310.228 59.224 309.586 59.008 308.806 59.008C308.11 59.008 307.498 59.236 306.97 59.692C306.442 60.148 306.142 60.742 306.07 61.474H311.614ZM317.105 62.284L313.847 57.82H315.611L318.059 61.222L320.543 57.82H322.181L318.905 62.284L322.415 67H320.651L317.951 63.31L315.251 67H313.613L317.105 62.284ZM323.529 55.246H325.005V57.82H327.327V59.17H325.005V64.588C325.005 64.972 325.077 65.248 325.221 65.416C325.377 65.572 325.641 65.65 326.013 65.65H327.615V67H325.923C325.059 67 324.441 66.808 324.069 66.424C323.709 66.04 323.529 65.434 323.529 64.606V55.246ZM342.085 57.82V70.6H340.609V65.524C339.841 66.58 338.791 67.108 337.459 67.108C336.607 67.108 335.845 66.922 335.173 66.55C334.513 66.178 333.991 65.638 333.607 64.93C333.235 64.222 333.049 63.382 333.049 62.41C333.049 61.486 333.235 60.67 333.607 59.962C333.991 59.254 334.519 58.702 335.191 58.306C335.863 57.91 336.619 57.712 337.459 57.712C338.203 57.712 338.839 57.85 339.367 58.126C339.895 58.39 340.309 58.756 340.609 59.224L340.807 57.82H342.085ZM337.603 65.794C338.191 65.794 338.713 65.656 339.169 65.38C339.637 65.092 339.997 64.696 340.249 64.192C340.501 63.676 340.627 63.094 340.627 62.446C340.627 61.786 340.501 61.198 340.249 60.682C339.997 60.154 339.637 59.746 339.169 59.458C338.713 59.17 338.191 59.026 337.603 59.026C336.691 59.026 335.953 59.344 335.389 59.98C334.837 60.604 334.561 61.414 334.561 62.41C334.561 63.406 334.837 64.222 335.389 64.858C335.953 65.482 336.691 65.794 337.603 65.794ZM351.998 57.82V67H350.72L350.522 65.776C349.826 66.664 348.848 67.108 347.588 67.108C346.496 67.108 345.62 66.772 344.96 66.1C344.3 65.428 343.97 64.372 343.97 62.932V57.82H345.446V62.842C345.446 63.79 345.65 64.516 346.058 65.02C346.478 65.512 347.072 65.758 347.84 65.758C348.68 65.758 349.334 65.458 349.802 64.858C350.282 64.258 350.522 63.442 350.522 62.41V57.82H351.998ZM362.596 65.65V67H361.786C361.198 67 360.778 66.88 360.526 66.64C360.274 66.4 360.142 66.046 360.13 65.578C359.422 66.598 358.396 67.108 357.052 67.108C356.032 67.108 355.21 66.868 354.586 66.388C353.974 65.908 353.668 65.254 353.668 64.426C353.668 63.502 353.98 62.794 354.604 62.302C355.24 61.81 356.158 61.564 357.358 61.564H360.058V60.934C360.058 60.334 359.854 59.866 359.446 59.53C359.05 59.194 358.492 59.026 357.772 59.026C357.136 59.026 356.608 59.17 356.188 59.458C355.78 59.734 355.528 60.106 355.432 60.574H353.956C354.064 59.674 354.46 58.972 355.144 58.468C355.84 57.964 356.74 57.712 357.844 57.712C359.02 57.712 359.926 58 360.562 58.576C361.21 59.14 361.534 59.956 361.534 61.024V64.984C361.534 65.428 361.738 65.65 362.146 65.65H362.596ZM360.058 62.806H357.214C355.846 62.806 355.162 63.316 355.162 64.336C355.162 64.792 355.342 65.158 355.702 65.434C356.062 65.71 356.548 65.848 357.16 65.848C358.06 65.848 358.768 65.614 359.284 65.146C359.8 64.666 360.058 64.036 360.058 63.256V62.806ZM368.393 57.82V59.26H367.655C366.779 59.26 366.149 59.554 365.765 60.142C365.393 60.73 365.207 61.456 365.207 62.32V67H363.731V57.82H365.009L365.207 59.206C365.471 58.786 365.813 58.45 366.233 58.198C366.653 57.946 367.235 57.82 367.979 57.82H368.393ZM369.742 55.246H371.218V57.82H373.54V59.17H371.218V64.588C371.218 64.972 371.29 65.248 371.434 65.416C371.59 65.572 371.854 65.65 372.226 65.65H373.828V67H372.136C371.272 67 370.654 66.808 370.282 66.424C369.922 66.04 369.742 65.434 369.742 64.606V55.246ZM374.323 62.41C374.323 61.474 374.503 60.652 374.863 59.944C375.235 59.236 375.751 58.69 376.411 58.306C377.071 57.91 377.827 57.712 378.679 57.712C379.519 57.712 380.263 57.886 380.911 58.234C381.559 58.582 382.069 59.086 382.441 59.746C382.813 60.406 383.011 61.18 383.035 62.068C383.035 62.2 383.023 62.41 382.999 62.698H375.871V62.824C375.895 63.724 376.171 64.444 376.699 64.984C377.227 65.524 377.917 65.794 378.769 65.794C379.429 65.794 379.987 65.632 380.443 65.308C380.911 64.972 381.223 64.51 381.379 63.922H382.873C382.693 64.858 382.243 65.626 381.523 66.226C380.803 66.814 379.921 67.108 378.877 67.108C377.965 67.108 377.167 66.916 376.483 66.532C375.799 66.136 375.265 65.584 374.881 64.876C374.509 64.156 374.323 63.334 374.323 62.41ZM381.505 61.474C381.433 60.694 381.139 60.088 380.623 59.656C380.119 59.224 379.477 59.008 378.697 59.008C378.001 59.008 377.389 59.236 376.861 59.692C376.333 60.148 376.033 60.742 375.961 61.474H381.505ZM389.381 57.82V59.26H388.643C387.767 59.26 387.137 59.554 386.753 60.142C386.381 60.73 386.195 61.456 386.195 62.32V67H384.719V57.82H385.997L386.195 59.206C386.459 58.786 386.801 58.45 387.221 58.198C387.641 57.946 388.223 57.82 388.967 57.82H389.381ZM403.344 57.82V67H402.066L401.868 65.776C401.172 66.664 400.194 67.108 398.934 67.108C397.842 67.108 396.966 66.772 396.306 66.1C395.646 65.428 395.316 64.372 395.316 62.932V57.82H396.792V62.842C396.792 63.79 396.996 64.516 397.404 65.02C397.824 65.512 398.418 65.758 399.186 65.758C400.026 65.758 400.68 65.458 401.148 64.858C401.628 64.258 401.868 63.442 401.868 62.41V57.82H403.344ZM406.508 63.976C406.532 64.528 406.772 64.978 407.228 65.326C407.696 65.674 408.296 65.848 409.028 65.848C409.676 65.848 410.198 65.722 410.594 65.47C411.002 65.206 411.206 64.864 411.206 64.444C411.206 64.084 411.11 63.808 410.918 63.616C410.726 63.424 410.474 63.292 410.162 63.22C409.862 63.148 409.43 63.076 408.866 63.004C408.074 62.908 407.426 62.782 406.922 62.626C406.418 62.47 406.01 62.224 405.698 61.888C405.386 61.54 405.23 61.066 405.23 60.466C405.23 59.926 405.38 59.446 405.68 59.026C405.992 58.606 406.412 58.282 406.94 58.054C407.468 57.814 408.062 57.694 408.722 57.694C409.802 57.694 410.678 57.946 411.35 58.45C412.034 58.954 412.412 59.674 412.484 60.61H411.008C410.948 60.13 410.714 59.734 410.306 59.422C409.898 59.11 409.388 58.954 408.776 58.954C408.152 58.954 407.648 59.086 407.264 59.35C406.88 59.602 406.688 59.938 406.688 60.358C406.688 60.67 406.778 60.91 406.958 61.078C407.138 61.246 407.366 61.36 407.642 61.42C407.93 61.48 408.362 61.546 408.938 61.618C409.742 61.714 410.402 61.846 410.918 62.014C411.446 62.182 411.866 62.452 412.178 62.824C412.502 63.196 412.664 63.7 412.664 64.336C412.664 64.888 412.502 65.374 412.178 65.794C411.854 66.214 411.416 66.538 410.864 66.766C410.312 66.994 409.7 67.108 409.028 67.108C407.828 67.108 406.862 66.832 406.13 66.28C405.41 65.728 405.044 64.96 405.032 63.976H406.508ZM415.076 54.274C415.352 54.274 415.58 54.364 415.76 54.544C415.94 54.724 416.03 54.952 416.03 55.228C416.03 55.504 415.94 55.732 415.76 55.912C415.58 56.092 415.352 56.182 415.076 56.182C414.8 56.182 414.572 56.092 414.392 55.912C414.212 55.732 414.122 55.504 414.122 55.228C414.122 54.952 414.212 54.724 414.392 54.544C414.572 54.364 414.8 54.274 415.076 54.274ZM414.338 57.82H415.814V67H414.338V57.82ZM422.336 57.712C423.452 57.712 424.346 58.048 425.018 58.72C425.702 59.392 426.044 60.448 426.044 61.888V67H424.568V61.978C424.568 61.03 424.352 60.31 423.92 59.818C423.5 59.314 422.888 59.062 422.084 59.062C421.22 59.062 420.542 59.362 420.05 59.962C419.558 60.562 419.312 61.378 419.312 62.41V67H417.836V57.82H419.114L419.312 59.062C420.008 58.162 421.016 57.712 422.336 57.712ZM436.638 57.82V66.55C436.638 69.322 435.12 70.708 432.084 70.708C430.896 70.708 429.924 70.438 429.168 69.898C428.424 69.358 427.992 68.59 427.872 67.594H429.384C429.504 68.17 429.81 68.614 430.302 68.926C430.794 69.238 431.424 69.394 432.192 69.394C434.172 69.394 435.162 68.428 435.162 66.496V65.416C434.502 66.544 433.452 67.108 432.012 67.108C431.16 67.108 430.398 66.922 429.726 66.55C429.066 66.178 428.544 65.638 428.16 64.93C427.788 64.222 427.602 63.382 427.602 62.41C427.602 61.486 427.788 60.67 428.16 59.962C428.544 59.254 429.072 58.702 429.744 58.306C430.416 57.91 431.172 57.712 432.012 57.712C432.756 57.712 433.392 57.862 433.92 58.162C434.448 58.45 434.862 58.864 435.162 59.404L435.36 57.82H436.638ZM432.156 65.794C432.744 65.794 433.266 65.656 433.722 65.38C434.19 65.092 434.55 64.696 434.802 64.192C435.054 63.676 435.18 63.094 435.18 62.446C435.18 61.786 435.054 61.198 434.802 60.682C434.55 60.154 434.19 59.746 433.722 59.458C433.266 59.17 432.744 59.026 432.156 59.026C431.244 59.026 430.506 59.344 429.942 59.98C429.39 60.604 429.114 61.414 429.114 62.41C429.114 63.406 429.39 64.222 429.942 64.858C430.506 65.482 431.244 65.794 432.156 65.794ZM93.16 86.976C93.184 87.528 93.424 87.978 93.88 88.326C94.348 88.674 94.948 88.848 95.68 88.848C96.328 88.848 96.85 88.722 97.246 88.47C97.654 88.206 97.858 87.864 97.858 87.444C97.858 87.084 97.762 86.808 97.57 86.616C97.378 86.424 97.126 86.292 96.814 86.22C96.514 86.148 96.082 86.076 95.518 86.004C94.726 85.908 94.078 85.782 93.574 85.626C93.07 85.47 92.662 85.224 92.35 84.888C92.038 84.54 91.882 84.066 91.882 83.466C91.882 82.926 92.032 82.446 92.332 82.026C92.644 81.606 93.064 81.282 93.592 81.054C94.12 80.814 94.714 80.694 95.374 80.694C96.454 80.694 97.33 80.946 98.002 81.45C98.686 81.954 99.064 82.674 99.136 83.61H97.66C97.6 83.13 97.366 82.734 96.958 82.422C96.55 82.11 96.04 81.954 95.428 81.954C94.804 81.954 94.3 82.086 93.916 82.35C93.532 82.602 93.34 82.938 93.34 83.358C93.34 83.67 93.43 83.91 93.61 84.078C93.79 84.246 94.018 84.36 94.294 84.42C94.582 84.48 95.014 84.546 95.59 84.618C96.394 84.714 97.054 84.846 97.57 85.014C98.098 85.182 98.518 85.452 98.83 85.824C99.154 86.196 99.316 86.7 99.316 87.336C99.316 87.888 99.154 88.374 98.83 88.794C98.506 89.214 98.068 89.538 97.516 89.766C96.964 89.994 96.352 90.108 95.68 90.108C94.48 90.108 93.514 89.832 92.782 89.28C92.062 88.728 91.696 87.96 91.684 86.976H93.16ZM109.576 88.65V90H108.766C108.178 90 107.758 89.88 107.506 89.64C107.254 89.4 107.122 89.046 107.11 88.578C106.402 89.598 105.376 90.108 104.032 90.108C103.012 90.108 102.19 89.868 101.566 89.388C100.954 88.908 100.648 88.254 100.648 87.426C100.648 86.502 100.96 85.794 101.584 85.302C102.22 84.81 103.138 84.564 104.338 84.564H107.038V83.934C107.038 83.334 106.834 82.866 106.426 82.53C106.03 82.194 105.472 82.026 104.752 82.026C104.116 82.026 103.588 82.17 103.168 82.458C102.76 82.734 102.508 83.106 102.412 83.574H100.936C101.044 82.674 101.44 81.972 102.124 81.468C102.82 80.964 103.72 80.712 104.824 80.712C106 80.712 106.906 81 107.542 81.576C108.19 82.14 108.514 82.956 108.514 84.024V87.984C108.514 88.428 108.718 88.65 109.126 88.65H109.576ZM107.038 85.806H104.194C102.826 85.806 102.142 86.316 102.142 87.336C102.142 87.792 102.322 88.158 102.682 88.434C103.042 88.71 103.528 88.848 104.14 88.848C105.04 88.848 105.748 88.614 106.264 88.146C106.78 87.666 107.038 87.036 107.038 86.256V85.806ZM110.711 77.4H112.187V90H110.711V77.4ZM113.885 85.41C113.885 84.474 114.065 83.652 114.425 82.944C114.797 82.236 115.313 81.69 115.973 81.306C116.633 80.91 117.389 80.712 118.241 80.712C119.081 80.712 119.825 80.886 120.473 81.234C121.121 81.582 121.631 82.086 122.003 82.746C122.375 83.406 122.573 84.18 122.597 85.068C122.597 85.2 122.585 85.41 122.561 85.698H115.433V85.824C115.457 86.724 115.733 87.444 116.261 87.984C116.789 88.524 117.479 88.794 118.331 88.794C118.991 88.794 119.549 88.632 120.005 88.308C120.473 87.972 120.785 87.51 120.941 86.922H122.435C122.255 87.858 121.805 88.626 121.085 89.226C120.365 89.814 119.483 90.108 118.439 90.108C117.527 90.108 116.729 89.916 116.045 89.532C115.361 89.136 114.827 88.584 114.443 87.876C114.071 87.156 113.885 86.334 113.885 85.41ZM121.067 84.474C120.995 83.694 120.701 83.088 120.185 82.656C119.681 82.224 119.039 82.008 118.259 82.008C117.563 82.008 116.951 82.236 116.423 82.692C115.895 83.148 115.595 83.742 115.523 84.474H121.067ZM125.398 86.976C125.422 87.528 125.662 87.978 126.118 88.326C126.586 88.674 127.186 88.848 127.918 88.848C128.566 88.848 129.088 88.722 129.484 88.47C129.892 88.206 130.096 87.864 130.096 87.444C130.096 87.084 130 86.808 129.808 86.616C129.616 86.424 129.364 86.292 129.052 86.22C128.752 86.148 128.32 86.076 127.756 86.004C126.964 85.908 126.316 85.782 125.812 85.626C125.308 85.47 124.9 85.224 124.588 84.888C124.276 84.54 124.12 84.066 124.12 83.466C124.12 82.926 124.27 82.446 124.57 82.026C124.882 81.606 125.302 81.282 125.83 81.054C126.358 80.814 126.952 80.694 127.612 80.694C128.692 80.694 129.568 80.946 130.24 81.45C130.924 81.954 131.302 82.674 131.374 83.61H129.898C129.838 83.13 129.604 82.734 129.196 82.422C128.788 82.11 128.278 81.954 127.666 81.954C127.042 81.954 126.538 82.086 126.154 82.35C125.77 82.602 125.578 82.938 125.578 83.358C125.578 83.67 125.668 83.91 125.848 84.078C126.028 84.246 126.256 84.36 126.532 84.42C126.82 84.48 127.252 84.546 127.828 84.618C128.632 84.714 129.292 84.846 129.808 85.014C130.336 85.182 130.756 85.452 131.068 85.824C131.392 86.196 131.554 86.7 131.554 87.336C131.554 87.888 131.392 88.374 131.068 88.794C130.744 89.214 130.306 89.538 129.754 89.766C129.202 89.994 128.59 90.108 127.918 90.108C126.718 90.108 125.752 89.832 125.02 89.28C124.3 88.728 123.934 87.96 123.922 86.976H125.398ZM138.552 82.17H136.896V80.82H138.552V78.246H140.028V80.82H142.35V82.17H140.028V87.588C140.028 87.972 140.1 88.248 140.244 88.416C140.4 88.572 140.664 88.65 141.036 88.65H142.638V90H140.946C140.082 90 139.464 89.808 139.092 89.424C138.732 89.04 138.552 88.434 138.552 87.606V82.17ZM148.35 80.82V82.26H147.612C146.736 82.26 146.106 82.554 145.722 83.142C145.35 83.73 145.164 84.456 145.164 85.32V90H143.688V80.82H144.966L145.164 82.206C145.428 81.786 145.77 81.45 146.19 81.198C146.61 80.946 147.192 80.82 147.936 80.82H148.35ZM148.848 85.41C148.848 84.474 149.028 83.652 149.388 82.944C149.76 82.236 150.276 81.69 150.936 81.306C151.596 80.91 152.352 80.712 153.204 80.712C154.044 80.712 154.788 80.886 155.436 81.234C156.084 81.582 156.594 82.086 156.966 82.746C157.338 83.406 157.536 84.18 157.56 85.068C157.56 85.2 157.548 85.41 157.524 85.698H150.396V85.824C150.42 86.724 150.696 87.444 151.224 87.984C151.752 88.524 152.442 88.794 153.294 88.794C153.954 88.794 154.512 88.632 154.968 88.308C155.436 87.972 155.748 87.51 155.904 86.922H157.398C157.218 87.858 156.768 88.626 156.048 89.226C155.328 89.814 154.446 90.108 153.402 90.108C152.49 90.108 151.692 89.916 151.008 89.532C150.324 89.136 149.79 88.584 149.406 87.876C149.034 87.156 148.848 86.334 148.848 85.41ZM156.03 84.474C155.958 83.694 155.664 83.088 155.148 82.656C154.644 82.224 154.002 82.008 153.222 82.008C152.526 82.008 151.914 82.236 151.386 82.692C150.858 83.148 150.558 83.742 150.486 84.474H156.03ZM163.744 80.712C164.86 80.712 165.754 81.048 166.426 81.72C167.11 82.392 167.452 83.448 167.452 84.888V90H165.976V84.978C165.976 84.03 165.76 83.31 165.328 82.818C164.908 82.314 164.296 82.062 163.492 82.062C162.628 82.062 161.95 82.362 161.458 82.962C160.966 83.562 160.72 84.378 160.72 85.41V90H159.244V80.82H160.522L160.72 82.062C161.416 81.162 162.424 80.712 163.744 80.712ZM178.046 77.4V90H176.768L176.57 88.524C175.802 89.58 174.752 90.108 173.42 90.108C172.568 90.108 171.806 89.922 171.134 89.55C170.474 89.178 169.952 88.638 169.568 87.93C169.196 87.222 169.01 86.382 169.01 85.41C169.01 84.486 169.196 83.67 169.568 82.962C169.952 82.254 170.48 81.702 171.152 81.306C171.824 80.91 172.58 80.712 173.42 80.712C174.164 80.712 174.8 80.85 175.328 81.126C175.856 81.39 176.27 81.756 176.57 82.224V77.4H178.046ZM173.564 88.794C174.152 88.794 174.674 88.656 175.13 88.38C175.598 88.092 175.958 87.696 176.21 87.192C176.462 86.676 176.588 86.094 176.588 85.446C176.588 84.786 176.462 84.198 176.21 83.682C175.958 83.154 175.598 82.746 175.13 82.458C174.674 82.17 174.152 82.026 173.564 82.026C172.652 82.026 171.914 82.344 171.35 82.98C170.798 83.604 170.522 84.414 170.522 85.41C170.522 86.406 170.798 87.222 171.35 87.858C171.914 88.482 172.652 88.794 173.564 88.794ZM181.209 86.976C181.233 87.528 181.473 87.978 181.929 88.326C182.397 88.674 182.997 88.848 183.729 88.848C184.377 88.848 184.899 88.722 185.295 88.47C185.703 88.206 185.907 87.864 185.907 87.444C185.907 87.084 185.811 86.808 185.619 86.616C185.427 86.424 185.175 86.292 184.863 86.22C184.563 86.148 184.131 86.076 183.567 86.004C182.775 85.908 182.127 85.782 181.623 85.626C181.119 85.47 180.711 85.224 180.399 84.888C180.087 84.54 179.931 84.066 179.931 83.466C179.931 82.926 180.081 82.446 180.381 82.026C180.693 81.606 181.113 81.282 181.641 81.054C182.169 80.814 182.763 80.694 183.423 80.694C184.503 80.694 185.379 80.946 186.051 81.45C186.735 81.954 187.113 82.674 187.185 83.61H185.709C185.649 83.13 185.415 82.734 185.007 82.422C184.599 82.11 184.089 81.954 183.477 81.954C182.853 81.954 182.349 82.086 181.965 82.35C181.581 82.602 181.389 82.938 181.389 83.358C181.389 83.67 181.479 83.91 181.659 84.078C181.839 84.246 182.067 84.36 182.343 84.42C182.631 84.48 183.063 84.546 183.639 84.618C184.443 84.714 185.103 84.846 185.619 85.014C186.147 85.182 186.567 85.452 186.879 85.824C187.203 86.196 187.365 86.7 187.365 87.336C187.365 87.888 187.203 88.374 186.879 88.794C186.555 89.214 186.117 89.538 185.565 89.766C185.013 89.994 184.401 90.108 183.729 90.108C182.529 90.108 181.563 89.832 180.831 89.28C180.111 88.728 179.745 87.96 179.733 86.976H181.209ZM189.565 88.11C189.997 88.11 190.339 88.29 190.591 88.65C190.855 88.998 190.987 89.43 190.987 89.946C190.987 90.714 190.759 91.314 190.303 91.746C189.859 92.178 189.241 92.406 188.449 92.43V91.584C188.977 91.572 189.361 91.422 189.601 91.134C189.841 90.846 189.961 90.516 189.961 90.144C189.961 90.036 189.955 89.958 189.943 89.91C189.799 90.054 189.595 90.126 189.331 90.126C189.055 90.126 188.827 90.042 188.647 89.874C188.467 89.706 188.377 89.466 188.377 89.154C188.377 88.854 188.479 88.608 188.683 88.416C188.899 88.212 189.193 88.11 189.565 88.11ZM198.471 86.976C198.495 87.528 198.735 87.978 199.191 88.326C199.659 88.674 200.259 88.848 200.991 88.848C201.639 88.848 202.161 88.722 202.557 88.47C202.965 88.206 203.169 87.864 203.169 87.444C203.169 87.084 203.073 86.808 202.881 86.616C202.689 86.424 202.437 86.292 202.125 86.22C201.825 86.148 201.393 86.076 200.829 86.004C200.037 85.908 199.389 85.782 198.885 85.626C198.381 85.47 197.973 85.224 197.661 84.888C197.349 84.54 197.193 84.066 197.193 83.466C197.193 82.926 197.343 82.446 197.643 82.026C197.955 81.606 198.375 81.282 198.903 81.054C199.431 80.814 200.025 80.694 200.685 80.694C201.765 80.694 202.641 80.946 203.313 81.45C203.997 81.954 204.375 82.674 204.447 83.61H202.971C202.911 83.13 202.677 82.734 202.269 82.422C201.861 82.11 201.351 81.954 200.739 81.954C200.115 81.954 199.611 82.086 199.227 82.35C198.843 82.602 198.651 82.938 198.651 83.358C198.651 83.67 198.741 83.91 198.921 84.078C199.101 84.246 199.329 84.36 199.605 84.42C199.893 84.48 200.325 84.546 200.901 84.618C201.705 84.714 202.365 84.846 202.881 85.014C203.409 85.182 203.829 85.452 204.141 85.824C204.465 86.196 204.627 86.7 204.627 87.336C204.627 87.888 204.465 88.374 204.141 88.794C203.817 89.214 203.379 89.538 202.827 89.766C202.275 89.994 201.663 90.108 200.991 90.108C199.791 90.108 198.825 89.832 198.093 89.28C197.373 88.728 197.007 87.96 196.995 86.976H198.471ZM205.977 85.41C205.977 84.474 206.157 83.652 206.517 82.944C206.889 82.236 207.405 81.69 208.065 81.306C208.725 80.91 209.481 80.712 210.333 80.712C211.173 80.712 211.917 80.886 212.565 81.234C213.213 81.582 213.723 82.086 214.095 82.746C214.467 83.406 214.665 84.18 214.689 85.068C214.689 85.2 214.677 85.41 214.653 85.698H207.525V85.824C207.549 86.724 207.825 87.444 208.353 87.984C208.881 88.524 209.571 88.794 210.423 88.794C211.083 88.794 211.641 88.632 212.097 88.308C212.565 87.972 212.877 87.51 213.033 86.922H214.527C214.347 87.858 213.897 88.626 213.177 89.226C212.457 89.814 211.575 90.108 210.531 90.108C209.619 90.108 208.821 89.916 208.137 89.532C207.453 89.136 206.919 88.584 206.535 87.876C206.163 87.156 205.977 86.334 205.977 85.41ZM213.159 84.474C213.087 83.694 212.793 83.088 212.277 82.656C211.773 82.224 211.131 82.008 210.351 82.008C209.655 82.008 209.043 82.236 208.515 82.692C207.987 83.148 207.687 83.742 207.615 84.474H213.159ZM224.959 88.65V90H224.149C223.561 90 223.141 89.88 222.889 89.64C222.637 89.4 222.505 89.046 222.493 88.578C221.785 89.598 220.759 90.108 219.415 90.108C218.395 90.108 217.573 89.868 216.949 89.388C216.337 88.908 216.031 88.254 216.031 87.426C216.031 86.502 216.343 85.794 216.967 85.302C217.603 84.81 218.521 84.564 219.721 84.564H222.421V83.934C222.421 83.334 222.217 82.866 221.809 82.53C221.413 82.194 220.855 82.026 220.135 82.026C219.499 82.026 218.971 82.17 218.551 82.458C218.143 82.734 217.891 83.106 217.795 83.574H216.319C216.427 82.674 216.823 81.972 217.507 81.468C218.203 80.964 219.103 80.712 220.207 80.712C221.383 80.712 222.289 81 222.925 81.576C223.573 82.14 223.897 82.956 223.897 84.024V87.984C223.897 88.428 224.101 88.65 224.509 88.65H224.959ZM222.421 85.806H219.577C218.209 85.806 217.525 86.316 217.525 87.336C217.525 87.792 217.705 88.158 218.065 88.434C218.425 88.71 218.911 88.848 219.523 88.848C220.423 88.848 221.131 88.614 221.647 88.146C222.163 87.666 222.421 87.036 222.421 86.256V85.806ZM227.246 86.976C227.27 87.528 227.51 87.978 227.966 88.326C228.434 88.674 229.034 88.848 229.766 88.848C230.414 88.848 230.936 88.722 231.332 88.47C231.74 88.206 231.944 87.864 231.944 87.444C231.944 87.084 231.848 86.808 231.656 86.616C231.464 86.424 231.212 86.292 230.9 86.22C230.6 86.148 230.168 86.076 229.604 86.004C228.812 85.908 228.164 85.782 227.66 85.626C227.156 85.47 226.748 85.224 226.436 84.888C226.124 84.54 225.968 84.066 225.968 83.466C225.968 82.926 226.118 82.446 226.418 82.026C226.73 81.606 227.15 81.282 227.678 81.054C228.206 80.814 228.8 80.694 229.46 80.694C230.54 80.694 231.416 80.946 232.088 81.45C232.772 81.954 233.15 82.674 233.222 83.61H231.746C231.686 83.13 231.452 82.734 231.044 82.422C230.636 82.11 230.126 81.954 229.514 81.954C228.89 81.954 228.386 82.086 228.002 82.35C227.618 82.602 227.426 82.938 227.426 83.358C227.426 83.67 227.516 83.91 227.696 84.078C227.876 84.246 228.104 84.36 228.38 84.42C228.668 84.48 229.1 84.546 229.676 84.618C230.48 84.714 231.14 84.846 231.656 85.014C232.184 85.182 232.604 85.452 232.916 85.824C233.24 86.196 233.402 86.7 233.402 87.336C233.402 87.888 233.24 88.374 232.916 88.794C232.592 89.214 232.154 89.538 231.602 89.766C231.05 89.994 230.438 90.108 229.766 90.108C228.566 90.108 227.6 89.832 226.868 89.28C226.148 88.728 225.782 87.96 225.77 86.976H227.246ZM239.306 90.108C238.418 90.108 237.626 89.91 236.93 89.514C236.246 89.118 235.712 88.566 235.328 87.858C234.944 87.15 234.752 86.334 234.752 85.41C234.752 84.486 234.944 83.67 235.328 82.962C235.712 82.254 236.246 81.702 236.93 81.306C237.626 80.91 238.418 80.712 239.306 80.712C240.194 80.712 240.98 80.91 241.664 81.306C242.36 81.702 242.9 82.254 243.284 82.962C243.668 83.67 243.86 84.486 243.86 85.41C243.86 86.334 243.668 87.15 243.284 87.858C242.9 88.566 242.36 89.118 241.664 89.514C240.98 89.91 240.194 90.108 239.306 90.108ZM239.306 88.794C239.906 88.794 240.434 88.65 240.89 88.362C241.358 88.074 241.718 87.672 241.97 87.156C242.222 86.64 242.348 86.058 242.348 85.41C242.348 84.762 242.222 84.18 241.97 83.664C241.718 83.148 241.358 82.746 240.89 82.458C240.434 82.17 239.906 82.026 239.306 82.026C238.706 82.026 238.172 82.17 237.704 82.458C237.248 82.746 236.894 83.148 236.642 83.664C236.39 84.18 236.264 84.762 236.264 85.41C236.264 86.058 236.39 86.64 236.642 87.156C236.894 87.672 237.248 88.074 237.704 88.362C238.172 88.65 238.706 88.794 239.306 88.794ZM250.053 80.712C251.169 80.712 252.063 81.048 252.735 81.72C253.419 82.392 253.761 83.448 253.761 84.888V90H252.285V84.978C252.285 84.03 252.069 83.31 251.637 82.818C251.217 82.314 250.605 82.062 249.801 82.062C248.937 82.062 248.259 82.362 247.767 82.962C247.275 83.562 247.029 84.378 247.029 85.41V90H245.553V80.82H246.831L247.029 82.062C247.725 81.162 248.733 80.712 250.053 80.712ZM264.229 88.65V90H263.419C262.831 90 262.411 89.88 262.159 89.64C261.907 89.4 261.775 89.046 261.763 88.578C261.055 89.598 260.029 90.108 258.685 90.108C257.665 90.108 256.843 89.868 256.219 89.388C255.607 88.908 255.301 88.254 255.301 87.426C255.301 86.502 255.613 85.794 256.237 85.302C256.873 84.81 257.791 84.564 258.991 84.564H261.691V83.934C261.691 83.334 261.487 82.866 261.079 82.53C260.683 82.194 260.125 82.026 259.405 82.026C258.769 82.026 258.241 82.17 257.821 82.458C257.413 82.734 257.161 83.106 257.065 83.574H255.589C255.697 82.674 256.093 81.972 256.777 81.468C257.473 80.964 258.373 80.712 259.477 80.712C260.653 80.712 261.559 81 262.195 81.576C262.843 82.14 263.167 82.956 263.167 84.024V87.984C263.167 88.428 263.371 88.65 263.779 88.65H264.229ZM261.691 85.806H258.847C257.479 85.806 256.795 86.316 256.795 87.336C256.795 87.792 256.975 88.158 257.335 88.434C257.695 88.71 258.181 88.848 258.793 88.848C259.693 88.848 260.401 88.614 260.917 88.146C261.433 87.666 261.691 87.036 261.691 86.256V85.806ZM265.363 77.4H266.839V90H265.363V77.4ZM269.6 77.274C269.876 77.274 270.104 77.364 270.284 77.544C270.464 77.724 270.554 77.952 270.554 78.228C270.554 78.504 270.464 78.732 270.284 78.912C270.104 79.092 269.876 79.182 269.6 79.182C269.324 79.182 269.096 79.092 268.916 78.912C268.736 78.732 268.646 78.504 268.646 78.228C268.646 77.952 268.736 77.724 268.916 77.544C269.096 77.364 269.324 77.274 269.6 77.274ZM268.862 80.82H270.338V90H268.862V80.82ZM272.972 82.17H271.316V80.82H272.972V78.246H274.448V80.82H276.77V82.17H274.448V87.588C274.448 87.972 274.52 88.248 274.664 88.416C274.82 88.572 275.084 88.65 275.456 88.65H277.058V90H275.366C274.502 90 273.884 89.808 273.512 89.424C273.152 89.04 272.972 88.434 272.972 87.606V82.17ZM278.756 80.82L281.582 88.308L284.318 80.82H285.884L281.654 91.548C281.438 92.1 281.246 92.514 281.078 92.79C280.91 93.066 280.7 93.27 280.448 93.402C280.196 93.534 279.86 93.6 279.44 93.6H277.676V92.25H278.99C279.278 92.25 279.494 92.22 279.638 92.16C279.782 92.1 279.896 91.998 279.98 91.854C280.076 91.722 280.19 91.494 280.322 91.17L280.79 90.072L277.19 80.82H278.756ZM286.947 88.11C287.379 88.11 287.721 88.29 287.973 88.65C288.237 88.998 288.369 89.43 288.369 89.946C288.369 90.714 288.141 91.314 287.685 91.746C287.241 92.178 286.623 92.406 285.831 92.43V91.584C286.359 91.572 286.743 91.422 286.983 91.134C287.223 90.846 287.343 90.516 287.343 90.144C287.343 90.036 287.337 89.958 287.325 89.91C287.181 90.054 286.977 90.126 286.713 90.126C286.437 90.126 286.209 90.042 286.029 89.874C285.849 89.706 285.759 89.466 285.759 89.154C285.759 88.854 285.861 88.608 286.065 88.416C286.281 88.212 286.575 88.11 286.947 88.11ZM303.287 88.65V90H302.477C301.889 90 301.469 89.88 301.217 89.64C300.965 89.4 300.833 89.046 300.821 88.578C300.113 89.598 299.087 90.108 297.743 90.108C296.723 90.108 295.901 89.868 295.277 89.388C294.665 88.908 294.359 88.254 294.359 87.426C294.359 86.502 294.671 85.794 295.295 85.302C295.931 84.81 296.849 84.564 298.049 84.564H300.749V83.934C300.749 83.334 300.545 82.866 300.137 82.53C299.741 82.194 299.183 82.026 298.463 82.026C297.827 82.026 297.299 82.17 296.879 82.458C296.471 82.734 296.219 83.106 296.123 83.574H294.647C294.755 82.674 295.151 81.972 295.835 81.468C296.531 80.964 297.431 80.712 298.535 80.712C299.711 80.712 300.617 81 301.253 81.576C301.901 82.14 302.225 82.956 302.225 84.024V87.984C302.225 88.428 302.429 88.65 302.837 88.65H303.287ZM300.749 85.806H297.905C296.537 85.806 295.853 86.316 295.853 87.336C295.853 87.792 296.033 88.158 296.393 88.434C296.753 88.71 297.239 88.848 297.851 88.848C298.751 88.848 299.459 88.614 299.975 88.146C300.491 87.666 300.749 87.036 300.749 86.256V85.806ZM308.922 80.712C310.038 80.712 310.932 81.048 311.604 81.72C312.288 82.392 312.63 83.448 312.63 84.888V90H311.154V84.978C311.154 84.03 310.938 83.31 310.506 82.818C310.086 82.314 309.474 82.062 308.67 82.062C307.806 82.062 307.128 82.362 306.636 82.962C306.144 83.562 305.898 84.378 305.898 85.41V90H304.422V80.82H305.7L305.898 82.062C306.594 81.162 307.602 80.712 308.922 80.712ZM323.224 77.4V90H321.946L321.748 88.524C320.98 89.58 319.93 90.108 318.598 90.108C317.746 90.108 316.984 89.922 316.312 89.55C315.652 89.178 315.13 88.638 314.746 87.93C314.374 87.222 314.188 86.382 314.188 85.41C314.188 84.486 314.374 83.67 314.746 82.962C315.13 82.254 315.658 81.702 316.33 81.306C317.002 80.91 317.758 80.712 318.598 80.712C319.342 80.712 319.978 80.85 320.506 81.126C321.034 81.39 321.448 81.756 321.748 82.224V77.4H323.224ZM318.742 88.794C319.33 88.794 319.852 88.656 320.308 88.38C320.776 88.092 321.136 87.696 321.388 87.192C321.64 86.676 321.766 86.094 321.766 85.446C321.766 84.786 321.64 84.198 321.388 83.682C321.136 83.154 320.776 82.746 320.308 82.458C319.852 82.17 319.33 82.026 318.742 82.026C317.83 82.026 317.092 82.344 316.528 82.98C315.976 83.604 315.7 84.414 315.7 85.41C315.7 86.406 315.976 87.222 316.528 87.858C317.092 88.482 317.83 88.794 318.742 88.794ZM334.572 80.712C335.424 80.712 336.18 80.898 336.84 81.27C337.512 81.642 338.034 82.182 338.406 82.89C338.79 83.598 338.982 84.438 338.982 85.41C338.982 86.334 338.79 87.15 338.406 87.858C338.034 88.566 337.512 89.118 336.84 89.514C336.168 89.91 335.412 90.108 334.572 90.108C333.828 90.108 333.192 89.976 332.664 89.712C332.136 89.436 331.722 89.064 331.422 88.596V93.6H329.946V80.82H331.224L331.422 82.296C332.19 81.24 333.24 80.712 334.572 80.712ZM334.428 88.794C335.34 88.794 336.072 88.482 336.624 87.858C337.188 87.222 337.47 86.406 337.47 85.41C337.47 84.414 337.188 83.604 336.624 82.98C336.072 82.344 335.34 82.026 334.428 82.026C333.84 82.026 333.312 82.17 332.844 82.458C332.388 82.734 332.034 83.13 331.782 83.646C331.53 84.15 331.404 84.726 331.404 85.374C331.404 86.034 331.53 86.628 331.782 87.156C332.034 87.672 332.388 88.074 332.844 88.362C333.312 88.65 333.84 88.794 334.428 88.794ZM345.33 80.82V82.26H344.592C343.716 82.26 343.086 82.554 342.702 83.142C342.33 83.73 342.144 84.456 342.144 85.32V90H340.668V80.82H341.946L342.144 82.206C342.408 81.786 342.75 81.45 343.17 81.198C343.59 80.946 344.172 80.82 344.916 80.82H345.33ZM347.418 77.274C347.694 77.274 347.922 77.364 348.102 77.544C348.282 77.724 348.372 77.952 348.372 78.228C348.372 78.504 348.282 78.732 348.102 78.912C347.922 79.092 347.694 79.182 347.418 79.182C347.142 79.182 346.914 79.092 346.734 78.912C346.554 78.732 346.464 78.504 346.464 78.228C346.464 77.952 346.554 77.724 346.734 77.544C346.914 77.364 347.142 77.274 347.418 77.274ZM346.68 80.82H348.156V90H346.68V80.82ZM358.368 86.832C358.176 87.852 357.726 88.656 357.018 89.244C356.31 89.82 355.41 90.108 354.318 90.108C353.43 90.108 352.65 89.91 351.978 89.514C351.306 89.118 350.784 88.566 350.412 87.858C350.04 87.138 349.854 86.316 349.854 85.392C349.854 84.468 350.04 83.652 350.412 82.944C350.796 82.236 351.33 81.69 352.014 81.306C352.698 80.91 353.484 80.712 354.372 80.712C355.452 80.712 356.34 81 357.036 81.576C357.744 82.152 358.188 82.944 358.368 83.952H356.874C356.73 83.364 356.43 82.896 355.974 82.548C355.518 82.2 354.966 82.026 354.318 82.026C353.442 82.026 352.728 82.338 352.176 82.962C351.636 83.586 351.366 84.396 351.366 85.392C351.366 86.4 351.636 87.222 352.176 87.858C352.728 88.482 353.442 88.794 354.318 88.794C354.99 88.794 355.554 88.62 356.01 88.272C356.466 87.924 356.76 87.444 356.892 86.832H358.368ZM360.812 77.274C361.088 77.274 361.316 77.364 361.496 77.544C361.676 77.724 361.766 77.952 361.766 78.228C361.766 78.504 361.676 78.732 361.496 78.912C361.316 79.092 361.088 79.182 360.812 79.182C360.536 79.182 360.308 79.092 360.128 78.912C359.948 78.732 359.858 78.504 359.858 78.228C359.858 77.952 359.948 77.724 360.128 77.544C360.308 77.364 360.536 77.274 360.812 77.274ZM360.074 80.82H361.55V90H360.074V80.82ZM368.072 80.712C369.188 80.712 370.082 81.048 370.754 81.72C371.438 82.392 371.78 83.448 371.78 84.888V90H370.304V84.978C370.304 84.03 370.088 83.31 369.656 82.818C369.236 82.314 368.624 82.062 367.82 82.062C366.956 82.062 366.278 82.362 365.786 82.962C365.294 83.562 365.048 84.378 365.048 85.41V90H363.572V80.82H364.85L365.048 82.062C365.744 81.162 366.752 80.712 368.072 80.712ZM382.374 80.82V89.55C382.374 92.322 380.856 93.708 377.82 93.708C376.632 93.708 375.66 93.438 374.904 92.898C374.16 92.358 373.728 91.59 373.608 90.594H375.12C375.24 91.17 375.546 91.614 376.038 91.926C376.53 92.238 377.16 92.394 377.928 92.394C379.908 92.394 380.898 91.428 380.898 89.496V88.416C380.238 89.544 379.188 90.108 377.748 90.108C376.896 90.108 376.134 89.922 375.462 89.55C374.802 89.178 374.28 88.638 373.896 87.93C373.524 87.222 373.338 86.382 373.338 85.41C373.338 84.486 373.524 83.67 373.896 82.962C374.28 82.254 374.808 81.702 375.48 81.306C376.152 80.91 376.908 80.712 377.748 80.712C378.492 80.712 379.128 80.862 379.656 81.162C380.184 81.45 380.598 81.864 380.898 82.404L381.096 80.82H382.374ZM377.892 88.794C378.48 88.794 379.002 88.656 379.458 88.38C379.926 88.092 380.286 87.696 380.538 87.192C380.79 86.676 380.916 86.094 380.916 85.446C380.916 84.786 380.79 84.198 380.538 83.682C380.286 83.154 379.926 82.746 379.458 82.458C379.002 82.17 378.48 82.026 377.892 82.026C376.98 82.026 376.242 82.344 375.678 82.98C375.126 83.604 374.85 84.414 374.85 85.41C374.85 86.406 375.126 87.222 375.678 87.858C376.242 88.482 376.98 88.794 377.892 88.794ZM397.808 77.4V90H396.53L396.332 88.524C395.564 89.58 394.514 90.108 393.182 90.108C392.33 90.108 391.568 89.922 390.896 89.55C390.236 89.178 389.714 88.638 389.33 87.93C388.958 87.222 388.772 86.382 388.772 85.41C388.772 84.486 388.958 83.67 389.33 82.962C389.714 82.254 390.242 81.702 390.914 81.306C391.586 80.91 392.342 80.712 393.182 80.712C393.926 80.712 394.562 80.85 395.09 81.126C395.618 81.39 396.032 81.756 396.332 82.224V77.4H397.808ZM393.326 88.794C393.914 88.794 394.436 88.656 394.892 88.38C395.36 88.092 395.72 87.696 395.972 87.192C396.224 86.676 396.35 86.094 396.35 85.446C396.35 84.786 396.224 84.198 395.972 83.682C395.72 83.154 395.36 82.746 394.892 82.458C394.436 82.17 393.914 82.026 393.326 82.026C392.414 82.026 391.676 82.344 391.112 82.98C390.56 83.604 390.284 84.414 390.284 85.41C390.284 86.406 390.56 87.222 391.112 87.858C391.676 88.482 392.414 88.794 393.326 88.794ZM408.405 88.65V90H407.595C407.007 90 406.587 89.88 406.335 89.64C406.083 89.4 405.951 89.046 405.939 88.578C405.231 89.598 404.205 90.108 402.861 90.108C401.841 90.108 401.019 89.868 400.395 89.388C399.783 88.908 399.477 88.254 399.477 87.426C399.477 86.502 399.789 85.794 400.413 85.302C401.049 84.81 401.967 84.564 403.167 84.564H405.867V83.934C405.867 83.334 405.663 82.866 405.255 82.53C404.859 82.194 404.301 82.026 403.581 82.026C402.945 82.026 402.417 82.17 401.997 82.458C401.589 82.734 401.337 83.106 401.241 83.574H399.765C399.873 82.674 400.269 81.972 400.953 81.468C401.649 80.964 402.549 80.712 403.653 80.712C404.829 80.712 405.735 81 406.371 81.576C407.019 82.14 407.343 82.956 407.343 84.024V87.984C407.343 88.428 407.547 88.65 407.955 88.65H408.405ZM405.867 85.806H403.023C401.655 85.806 400.971 86.316 400.971 87.336C400.971 87.792 401.151 88.158 401.511 88.434C401.871 88.71 402.357 88.848 402.969 88.848C403.869 88.848 404.577 88.614 405.093 88.146C405.609 87.666 405.867 87.036 405.867 86.256V85.806ZM410.151 82.17H408.495V80.82H410.151V78.246H411.627V80.82H413.949V82.17H411.627V87.588C411.627 87.972 411.699 88.248 411.843 88.416C411.999 88.572 412.263 88.65 412.635 88.65H414.237V90H412.545C411.681 90 411.063 89.808 410.691 89.424C410.331 89.04 410.151 88.434 410.151 87.606V82.17ZM423.733 88.65V90H422.923C422.335 90 421.915 89.88 421.663 89.64C421.411 89.4 421.279 89.046 421.267 88.578C420.559 89.598 419.533 90.108 418.189 90.108C417.169 90.108 416.347 89.868 415.723 89.388C415.111 88.908 414.805 88.254 414.805 87.426C414.805 86.502 415.117 85.794 415.741 85.302C416.377 84.81 417.295 84.564 418.495 84.564H421.195V83.934C421.195 83.334 420.991 82.866 420.583 82.53C420.187 82.194 419.629 82.026 418.909 82.026C418.273 82.026 417.745 82.17 417.325 82.458C416.917 82.734 416.665 83.106 416.569 83.574H415.093C415.201 82.674 415.597 81.972 416.281 81.468C416.977 80.964 417.877 80.712 418.981 80.712C420.157 80.712 421.063 81 421.699 81.576C422.347 82.14 422.671 82.956 422.671 84.024V87.984C422.671 88.428 422.875 88.65 423.283 88.65H423.733ZM421.195 85.806H418.351C416.983 85.806 416.299 86.316 416.299 87.336C416.299 87.792 416.479 88.158 416.839 88.434C417.199 88.71 417.685 88.848 418.297 88.848C419.197 88.848 419.905 88.614 420.421 88.146C420.937 87.666 421.195 87.036 421.195 86.256V85.806ZM424.687 89.1C424.687 88.8 424.783 88.56 424.975 88.38C425.167 88.188 425.413 88.092 425.713 88.092C426.013 88.092 426.259 88.188 426.451 88.38C426.643 88.56 426.739 88.8 426.739 89.1C426.739 89.4 426.643 89.646 426.451 89.838C426.259 90.018 426.013 90.108 425.713 90.108C425.413 90.108 425.167 90.018 424.975 89.838C424.783 89.646 424.687 89.4 424.687 89.1Z" fill="black"/>
<path d="M594.579 290C594.579 291.473 595.773 292.667 597.246 292.667C598.719 292.667 599.913 291.473 599.913 290C599.913 288.527 598.719 287.333 597.246 287.333C595.773 287.333 594.579 288.527 594.579 290ZM470 71L469.703 71.4025C470.219 71.7824 470.74 72.1695 471.266 72.5635L471.566 72.1632L471.866 71.763C471.337 71.3675 470.814 70.9789 470.297 70.5975L470 71ZM474.772 74.6005L474.466 74.9963C475.489 75.7857 476.529 76.5992 477.585 77.4362L477.896 77.0444L478.206 76.6526C477.147 75.813 476.104 74.9968 475.077 74.2046L474.772 74.6005ZM481.006 79.5417L480.69 79.9297C481.714 80.7621 482.751 81.615 483.799 82.488L484.119 82.1038L484.439 81.7196C483.388 80.8441 482.348 79.9887 481.321 79.1538L481.006 79.5417ZM487.144 84.6508L486.82 85.0315C487.822 85.8848 488.834 86.7555 489.854 87.6431L490.182 87.2658L490.51 86.8886C489.487 85.9987 488.473 85.1257 487.468 84.2701L487.144 84.6508ZM493.176 89.8981L492.844 90.272C493.827 91.1444 494.816 92.0317 495.811 92.9336L496.147 92.5631L496.483 92.1926C495.485 91.2885 494.493 90.3989 493.508 89.5243L493.176 89.8981ZM499.101 95.2671L498.762 95.6343C499.725 96.5252 500.694 97.4293 501.667 98.3462L502.01 97.9823L502.353 97.6184C501.378 96.6993 500.407 95.7931 499.44 94.9L499.101 95.2671ZM504.917 100.748L504.571 101.109C505.517 102.018 506.467 102.94 507.42 103.872L507.77 103.515L508.119 103.158C507.164 102.223 506.212 101.299 505.263 100.388L504.917 100.748ZM510.625 106.337L510.272 106.691C511.202 107.619 512.134 108.558 513.067 109.507L513.424 109.156L513.78 108.806C512.845 107.854 511.91 106.913 510.978 105.983L510.625 106.337ZM516.224 112.03L515.864 112.377C516.778 113.324 517.693 114.281 518.608 115.247L518.971 114.903L519.334 114.559C518.417 113.591 517.5 112.632 516.584 111.683L516.224 112.03ZM521.713 117.826L521.347 118.167C522.245 119.133 523.142 120.108 524.039 121.091L524.408 120.755L524.778 120.418C523.879 119.432 522.979 118.454 522.08 117.486L521.713 117.826ZM527.091 123.726L526.718 124.059C527.599 125.044 528.478 126.038 529.356 127.039L529.732 126.71L530.108 126.38C529.228 125.376 528.346 124.38 527.464 123.393L527.091 123.726ZM532.353 129.729L531.974 130.055C532.837 131.059 533.697 132.071 534.556 133.09L534.938 132.768L535.321 132.446C534.46 131.424 533.597 130.41 532.732 129.403L532.353 129.729ZM537.495 135.836L537.11 136.154C537.953 137.177 538.794 138.208 539.632 139.245L540.021 138.931L540.41 138.617C539.57 137.577 538.727 136.544 537.881 135.518L537.495 135.836ZM542.512 142.048L542.12 142.358C542.943 143.4 543.763 144.449 544.579 145.504L544.975 145.198L545.37 144.892C544.552 143.834 543.73 142.783 542.904 141.738L542.512 142.048ZM547.397 148.366L546.998 148.667C547.799 149.728 548.596 150.795 549.389 151.867L549.791 151.57L550.193 151.273C549.399 150.197 548.599 149.128 547.795 148.064L547.397 148.366ZM552.141 154.79L551.736 155.083C552.513 156.161 553.285 157.244 554.051 158.334L554.46 158.046L554.869 157.759C554.1 156.666 553.326 155.579 552.547 154.498L552.141 154.79ZM556.737 161.323L556.324 161.606C557.076 162.701 557.821 163.802 558.56 164.908L558.976 164.63L559.392 164.352C558.65 163.243 557.903 162.138 557.149 161.04L556.737 161.323ZM561.174 167.964L560.754 168.236C561.478 169.35 562.196 170.468 562.906 171.592L563.329 171.325L563.751 171.058C563.039 169.93 562.319 168.808 561.593 167.691L561.174 167.964ZM565.44 174.715L565.014 174.976C565.709 176.108 566.397 177.245 567.076 178.387L567.506 178.131L567.936 177.875C567.254 176.729 566.564 175.589 565.867 174.453L565.44 174.715ZM569.525 181.576L569.092 181.826C569.756 182.977 570.412 184.133 571.059 185.293L571.495 185.049L571.932 184.806C571.282 183.641 570.624 182.481 569.958 181.326L569.525 181.576ZM573.414 188.549L572.974 188.786C573.605 189.957 574.226 191.132 574.838 192.311L575.282 192.08L575.726 191.85C575.111 190.666 574.487 189.487 573.854 188.312L573.414 188.549ZM577.094 195.637L576.647 195.86C577.241 197.049 577.825 198.243 578.399 199.44L578.85 199.224L579.301 199.007C578.725 197.805 578.138 196.607 577.541 195.413L577.094 195.637ZM580.547 202.838L580.093 203.046C580.648 204.254 581.192 205.465 581.725 206.68L582.183 206.479L582.641 206.278C582.105 205.058 581.559 203.842 581.001 202.629L580.547 202.838ZM583.755 210.151L583.294 210.343C583.806 211.569 584.307 212.798 584.796 214.03L585.261 213.846L585.725 213.661C585.234 212.423 584.731 211.189 584.217 209.958L583.755 210.151ZM586.699 217.574L586.231 217.749C586.697 218.992 587.151 220.238 587.592 221.487L588.063 221.321L588.535 221.154C588.092 219.899 587.636 218.647 587.167 217.398L586.699 217.574ZM589.357 225.103L588.882 225.26C589.299 226.521 589.702 227.784 590.092 229.051L590.57 228.903L591.048 228.756C590.656 227.483 590.25 226.213 589.831 224.946L589.357 225.103ZM591.705 232.734L591.224 232.871C591.588 234.148 591.937 235.428 592.272 236.711L592.756 236.584L593.24 236.458C592.903 235.168 592.552 233.881 592.186 232.597L591.705 232.734ZM593.721 240.459L593.234 240.574C593.54 241.867 593.832 243.161 594.107 244.458L594.596 244.354L595.085 244.25C594.808 242.946 594.515 241.644 594.207 240.344L593.721 240.459ZM595.378 248.268L594.887 248.36C595.131 249.666 595.36 250.973 595.571 252.282L596.065 252.202L596.559 252.122C596.345 250.805 596.116 249.489 595.87 248.176L595.378 248.268ZM596.652 256.149L596.157 256.216C596.335 257.532 596.497 258.849 596.641 260.167L597.138 260.113L597.635 260.059C597.49 258.731 597.327 257.406 597.148 256.082L596.652 256.149ZM597.518 264.086L597.02 264.127C597.128 265.449 597.219 266.772 597.291 268.096L597.79 268.069L598.289 268.042C598.217 266.708 598.125 265.376 598.016 264.045L597.518 264.086ZM597.951 272.059L597.452 272.072C597.487 273.396 597.503 274.721 597.5 276.047L598 276.048L598.5 276.049C598.503 274.714 598.486 273.379 598.451 272.045L597.951 272.059ZM597.932 280.042L597.433 280.026C597.391 281.349 597.33 282.672 597.249 283.996L597.748 284.026L598.247 284.057C598.328 282.723 598.39 281.39 598.432 280.057L597.932 280.042ZM597.444 288.008L596.946 287.963C596.885 288.624 596.819 289.285 596.749 289.947L597.246 290L597.743 290.053C597.814 289.387 597.88 288.72 597.941 288.054L597.444 288.008Z" fill="white"/>
<rect x="46" y="53" width="31" height="31" rx="4" fill="#5A7E83"/>
<path d="M68.2222 77V75.1112C68.2222 74.1092 67.8242 73.1483 67.1157 72.4399C66.4073 71.7314 65.4464 71.3334 64.4444 71.3334H58.7778C57.7758 71.3334 56.815 71.7314 56.1065 72.4399C55.398 73.1483 55 74.1092 55 75.1112V77" stroke="white" stroke-width="1.5" stroke-linecap="round" stroke-linejoin="round"/>
<path d="M61.6098 67.5556C63.6962 67.5556 65.3876 65.8642 65.3876 63.7778C65.3876 61.6914 63.6962 60 61.6098 60C59.5234 60 57.832 61.6914 57.832 63.7778C57.832 65.8642 59.5234 67.5556 61.6098 67.5556Z" stroke="white" stroke-width="1.5" stroke-linecap="round" stroke-linejoin="round"/>
</svg>
