<svg width="706" height="540" viewBox="0 0 706 540" fill="none" xmlns="http://www.w3.org/2000/svg">
<rect opacity="0.5" x="490" y="438" width="175" height="40" rx="5" fill="white"/>
<path d="M546.455 460.812H546.347C546.275 460.988 546.187 461.156 546.083 461.316C545.979 461.476 545.851 461.62 545.699 461.748C545.547 461.868 545.367 461.964 545.159 462.036C544.959 462.108 544.731 462.144 544.475 462.144C544.067 462.144 543.703 462.048 543.383 461.856C543.071 461.664 542.807 461.384 542.591 461.016C542.375 460.648 542.211 460.2 542.099 459.672C541.995 459.144 541.943 458.548 541.943 457.884C541.943 456.46 542.203 455.372 542.723 454.62C543.243 453.86 544.047 453.48 545.135 453.48C545.567 453.48 545.947 453.54 546.275 453.66C546.603 453.772 546.883 453.936 547.115 454.152C547.355 454.36 547.551 454.612 547.703 454.908C547.855 455.204 547.975 455.532 548.063 455.892L546.383 456.3C546.335 456.124 546.279 455.956 546.215 455.796C546.159 455.628 546.083 455.48 545.987 455.352C545.891 455.224 545.771 455.124 545.627 455.052C545.483 454.972 545.307 454.932 545.099 454.932C544.643 454.932 544.319 455.12 544.127 455.496C543.943 455.872 543.851 456.4 543.851 457.08V458.448C543.851 459.128 543.951 459.672 544.151 460.08C544.359 460.488 544.723 460.692 545.243 460.692C545.651 460.692 545.955 460.572 546.155 460.332C546.355 460.092 546.455 459.784 546.455 459.408V458.796H545.027V457.524H548.063V462H546.455V460.812ZM549.679 462V453.624H555.031V455.1H551.479V457.02H554.911V458.496H551.479V460.524H555.031V462H549.679ZM558.314 456.432H558.182V462H556.646V453.624H558.806L560.714 459.192H560.846V453.624H562.382V462H560.222L558.314 456.432ZM564.069 462V453.624H569.421V455.1H565.869V457.02H569.301V458.496H565.869V460.524H569.421V462H564.069ZM572.993 462H571.217V453.624H574.457C574.865 453.624 575.229 453.688 575.549 453.816C575.869 453.936 576.137 454.112 576.353 454.344C576.577 454.576 576.745 454.856 576.857 455.184C576.969 455.512 577.025 455.88 577.025 456.288C577.025 456.88 576.897 457.388 576.641 457.812C576.385 458.236 576.021 458.516 575.549 458.652L577.193 462H575.225L573.821 458.892H572.993V462ZM574.025 457.5C574.449 457.5 574.741 457.42 574.901 457.26C575.069 457.1 575.153 456.836 575.153 456.468V456.108C575.153 455.74 575.069 455.476 574.901 455.316C574.741 455.156 574.449 455.076 574.025 455.076H572.993V457.5H574.025ZM582.72 462L582.192 459.984H579.9L579.384 462H577.56L579.828 453.624H582.372L584.64 462H582.72ZM581.1 455.364H581.004L580.188 458.532H581.916L581.1 455.364ZM589.195 455.1V462H587.395V455.1H584.983V453.624H591.607V455.1H589.195ZM592.791 462V460.668H594.591V454.956H592.791V453.624H598.191V454.956H596.391V460.668H598.191V462H592.791ZM601.486 456.432H601.354V462H599.818V453.624H601.978L603.886 459.192H604.018V453.624H605.554V462H603.394L601.486 456.432ZM611.213 460.812H611.105C611.033 460.988 610.945 461.156 610.841 461.316C610.737 461.476 610.609 461.62 610.457 461.748C610.305 461.868 610.125 461.964 609.917 462.036C609.717 462.108 609.489 462.144 609.233 462.144C608.825 462.144 608.461 462.048 608.141 461.856C607.829 461.664 607.565 461.384 607.349 461.016C607.133 460.648 606.969 460.2 606.857 459.672C606.753 459.144 606.701 458.548 606.701 457.884C606.701 456.46 606.961 455.372 607.481 454.62C608.001 453.86 608.805 453.48 609.893 453.48C610.325 453.48 610.705 453.54 611.033 453.66C611.361 453.772 611.641 453.936 611.873 454.152C612.113 454.36 612.309 454.612 612.461 454.908C612.613 455.204 612.733 455.532 612.821 455.892L611.141 456.3C611.093 456.124 611.037 455.956 610.973 455.796C610.917 455.628 610.841 455.48 610.745 455.352C610.649 455.224 610.529 455.124 610.385 455.052C610.241 454.972 610.065 454.932 609.857 454.932C609.401 454.932 609.077 455.12 608.885 455.496C608.701 455.872 608.609 456.4 608.609 457.08V458.448C608.609 459.128 608.709 459.672 608.909 460.08C609.117 460.488 609.481 460.692 610.001 460.692C610.409 460.692 610.713 460.572 610.913 460.332C611.113 460.092 611.213 459.784 611.213 459.408V458.796H609.785V457.524H612.821V462H611.213V460.812Z" fill="white"/>
<rect opacity="0.8" x="427" y="118" width="398" height="89" rx="9" transform="rotate(-180 427 118)" fill="white"/>
<path d="M92.224 54.4H95.95C97.246 54.4 98.368 54.664 99.316 55.192C100.276 55.708 101.008 56.44 101.512 57.388C102.028 58.336 102.286 59.44 102.286 60.7C102.286 61.948 102.028 63.052 101.512 64.012C101.008 64.96 100.276 65.698 99.316 66.226C98.368 66.742 97.246 67 95.95 67H92.224V54.4ZM95.95 65.56C97.45 65.56 98.614 65.122 99.442 64.246C100.27 63.37 100.684 62.188 100.684 60.7C100.684 59.2 100.27 58.018 99.442 57.154C98.626 56.278 97.462 55.84 95.95 55.84H93.79V65.56H95.95ZM108.711 57.82V59.26H107.973C107.097 59.26 106.467 59.554 106.083 60.142C105.711 60.73 105.525 61.456 105.525 62.32V67H104.049V57.82H105.327L105.525 59.206C105.789 58.786 106.131 58.45 106.551 58.198C106.971 57.946 107.553 57.82 108.297 57.82H108.711ZM118.207 65.65V67H117.397C116.809 67 116.389 66.88 116.137 66.64C115.885 66.4 115.753 66.046 115.741 65.578C115.033 66.598 114.007 67.108 112.663 67.108C111.643 67.108 110.821 66.868 110.197 66.388C109.585 65.908 109.279 65.254 109.279 64.426C109.279 63.502 109.591 62.794 110.215 62.302C110.851 61.81 111.769 61.564 112.969 61.564H115.669V60.934C115.669 60.334 115.465 59.866 115.057 59.53C114.661 59.194 114.103 59.026 113.383 59.026C112.747 59.026 112.219 59.17 111.799 59.458C111.391 59.734 111.139 60.106 111.043 60.574H109.567C109.675 59.674 110.071 58.972 110.755 58.468C111.451 57.964 112.351 57.712 113.455 57.712C114.631 57.712 115.537 58 116.173 58.576C116.821 59.14 117.145 59.956 117.145 61.024V64.984C117.145 65.428 117.349 65.65 117.757 65.65H118.207ZM115.669 62.806H112.825C111.457 62.806 110.773 63.316 110.773 64.336C110.773 64.792 110.953 65.158 111.313 65.434C111.673 65.71 112.159 65.848 112.771 65.848C113.671 65.848 114.379 65.614 114.895 65.146C115.411 64.666 115.669 64.036 115.669 63.256V62.806ZM119.954 57.82V56.794C119.954 55.978 120.14 55.378 120.512 54.994C120.896 54.598 121.508 54.4 122.348 54.4H124.04V55.75H122.438C122.078 55.75 121.82 55.828 121.664 55.984C121.508 56.14 121.43 56.398 121.43 56.758V57.82H124.022V59.17H121.43V67H119.954V59.17H118.298V57.82H119.954ZM125.02 55.246H126.496V57.82H128.818V59.17H126.496V64.588C126.496 64.972 126.568 65.248 126.712 65.416C126.868 65.572 127.132 65.65 127.504 65.65H129.106V67H127.414C126.55 67 125.932 66.808 125.56 66.424C125.2 66.04 125.02 65.434 125.02 64.606V55.246ZM143.449 65.65V67H142.639C142.051 67 141.631 66.88 141.379 66.64C141.127 66.4 140.995 66.046 140.983 65.578C140.275 66.598 139.249 67.108 137.905 67.108C136.885 67.108 136.063 66.868 135.439 66.388C134.827 65.908 134.521 65.254 134.521 64.426C134.521 63.502 134.833 62.794 135.457 62.302C136.093 61.81 137.011 61.564 138.211 61.564H140.911V60.934C140.911 60.334 140.707 59.866 140.299 59.53C139.903 59.194 139.345 59.026 138.625 59.026C137.989 59.026 137.461 59.17 137.041 59.458C136.633 59.734 136.381 60.106 136.285 60.574H134.809C134.917 59.674 135.313 58.972 135.997 58.468C136.693 57.964 137.593 57.712 138.697 57.712C139.873 57.712 140.779 58 141.415 58.576C142.063 59.14 142.387 59.956 142.387 61.024V64.984C142.387 65.428 142.591 65.65 142.999 65.65H143.449ZM140.911 62.806H138.067C136.699 62.806 136.015 63.316 136.015 64.336C136.015 64.792 136.195 65.158 136.555 65.434C136.915 65.71 137.401 65.848 138.013 65.848C138.913 65.848 139.621 65.614 140.137 65.146C140.653 64.666 140.911 64.036 140.911 63.256V62.806ZM155.901 56.182C155.625 56.182 155.397 56.092 155.217 55.912C155.037 55.732 154.947 55.504 154.947 55.228C154.947 54.952 155.037 54.724 155.217 54.544C155.397 54.364 155.625 54.274 155.901 54.274C156.177 54.274 156.405 54.364 156.585 54.544C156.765 54.724 156.855 54.952 156.855 55.228C156.855 55.504 156.765 55.732 156.585 55.912C156.405 56.092 156.177 56.182 155.901 56.182ZM156.639 67H155.163V59.17H151.383V67H149.907V59.17H148.251V57.82H149.907V56.794C149.907 55.978 150.093 55.378 150.465 54.994C150.849 54.598 151.461 54.4 152.301 54.4H153.813V55.75H152.391C152.031 55.75 151.773 55.828 151.617 55.984C151.461 56.14 151.383 56.398 151.383 56.758V57.82H156.639V67ZM163.309 57.82V59.26H162.571C161.695 59.26 161.065 59.554 160.681 60.142C160.309 60.73 160.123 61.456 160.123 62.32V67H158.647V57.82H159.925L160.123 59.206C160.387 58.786 160.729 58.45 161.149 58.198C161.569 57.946 162.151 57.82 162.895 57.82H163.309ZM165.476 63.976C165.5 64.528 165.74 64.978 166.196 65.326C166.664 65.674 167.264 65.848 167.996 65.848C168.644 65.848 169.166 65.722 169.562 65.47C169.97 65.206 170.174 64.864 170.174 64.444C170.174 64.084 170.078 63.808 169.886 63.616C169.694 63.424 169.442 63.292 169.13 63.22C168.83 63.148 168.398 63.076 167.834 63.004C167.042 62.908 166.394 62.782 165.89 62.626C165.386 62.47 164.978 62.224 164.666 61.888C164.354 61.54 164.198 61.066 164.198 60.466C164.198 59.926 164.348 59.446 164.648 59.026C164.96 58.606 165.38 58.282 165.908 58.054C166.436 57.814 167.03 57.694 167.69 57.694C168.77 57.694 169.646 57.946 170.318 58.45C171.002 58.954 171.38 59.674 171.452 60.61H169.976C169.916 60.13 169.682 59.734 169.274 59.422C168.866 59.11 168.356 58.954 167.744 58.954C167.12 58.954 166.616 59.086 166.232 59.35C165.848 59.602 165.656 59.938 165.656 60.358C165.656 60.67 165.746 60.91 165.926 61.078C166.106 61.246 166.334 61.36 166.61 61.42C166.898 61.48 167.33 61.546 167.906 61.618C168.71 61.714 169.37 61.846 169.886 62.014C170.414 62.182 170.834 62.452 171.146 62.824C171.47 63.196 171.632 63.7 171.632 64.336C171.632 64.888 171.47 65.374 171.146 65.794C170.822 66.214 170.384 66.538 169.832 66.766C169.28 66.994 168.668 67.108 167.996 67.108C166.796 67.108 165.83 66.832 165.098 66.28C164.378 65.728 164.012 64.96 164 63.976H165.476ZM173.919 59.17H172.263V57.82H173.919V55.246H175.395V57.82H177.717V59.17H175.395V64.588C175.395 64.972 175.467 65.248 175.611 65.416C175.767 65.572 176.031 65.65 176.403 65.65H178.005V67H176.313C175.449 67 174.831 66.808 174.459 66.424C174.099 66.04 173.919 65.434 173.919 64.606V59.17ZM178.491 62.5V61.276H184.485V62.5H178.491ZM191.046 57.712C191.898 57.712 192.654 57.898 193.314 58.27C193.986 58.642 194.508 59.182 194.88 59.89C195.264 60.598 195.456 61.438 195.456 62.41C195.456 63.334 195.264 64.15 194.88 64.858C194.508 65.566 193.986 66.118 193.314 66.514C192.642 66.91 191.886 67.108 191.046 67.108C190.302 67.108 189.666 66.976 189.138 66.712C188.61 66.436 188.196 66.064 187.896 65.596V70.6H186.42V57.82H187.698L187.896 59.296C188.664 58.24 189.714 57.712 191.046 57.712ZM190.902 65.794C191.814 65.794 192.546 65.482 193.098 64.858C193.662 64.222 193.944 63.406 193.944 62.41C193.944 61.414 193.662 60.604 193.098 59.98C192.546 59.344 191.814 59.026 190.902 59.026C190.314 59.026 189.786 59.17 189.318 59.458C188.862 59.734 188.508 60.13 188.256 60.646C188.004 61.15 187.878 61.726 187.878 62.374C187.878 63.034 188.004 63.628 188.256 64.156C188.508 64.672 188.862 65.074 189.318 65.362C189.786 65.65 190.314 65.794 190.902 65.794ZM205.729 65.65V67H204.919C204.331 67 203.911 66.88 203.659 66.64C203.407 66.4 203.275 66.046 203.263 65.578C202.555 66.598 201.529 67.108 200.185 67.108C199.165 67.108 198.343 66.868 197.719 66.388C197.107 65.908 196.801 65.254 196.801 64.426C196.801 63.502 197.113 62.794 197.737 62.302C198.373 61.81 199.291 61.564 200.491 61.564H203.191V60.934C203.191 60.334 202.987 59.866 202.579 59.53C202.183 59.194 201.625 59.026 200.905 59.026C200.269 59.026 199.741 59.17 199.321 59.458C198.913 59.734 198.661 60.106 198.565 60.574H197.089C197.197 59.674 197.593 58.972 198.277 58.468C198.973 57.964 199.873 57.712 200.977 57.712C202.153 57.712 203.059 58 203.695 58.576C204.343 59.14 204.667 59.956 204.667 61.024V64.984C204.667 65.428 204.871 65.65 205.279 65.65H205.729ZM203.191 62.806H200.347C198.979 62.806 198.295 63.316 198.295 64.336C198.295 64.792 198.475 65.158 198.835 65.434C199.195 65.71 199.681 65.848 200.293 65.848C201.193 65.848 201.901 65.614 202.417 65.146C202.933 64.666 203.191 64.036 203.191 63.256V62.806ZM208.015 63.976C208.039 64.528 208.279 64.978 208.735 65.326C209.203 65.674 209.803 65.848 210.535 65.848C211.183 65.848 211.705 65.722 212.101 65.47C212.509 65.206 212.713 64.864 212.713 64.444C212.713 64.084 212.617 63.808 212.425 63.616C212.233 63.424 211.981 63.292 211.669 63.22C211.369 63.148 210.937 63.076 210.373 63.004C209.581 62.908 208.933 62.782 208.429 62.626C207.925 62.47 207.517 62.224 207.205 61.888C206.893 61.54 206.737 61.066 206.737 60.466C206.737 59.926 206.887 59.446 207.187 59.026C207.499 58.606 207.919 58.282 208.447 58.054C208.975 57.814 209.569 57.694 210.229 57.694C211.309 57.694 212.185 57.946 212.857 58.45C213.541 58.954 213.919 59.674 213.991 60.61H212.515C212.455 60.13 212.221 59.734 211.813 59.422C211.405 59.11 210.895 58.954 210.283 58.954C209.659 58.954 209.155 59.086 208.771 59.35C208.387 59.602 208.195 59.938 208.195 60.358C208.195 60.67 208.285 60.91 208.465 61.078C208.645 61.246 208.873 61.36 209.149 61.42C209.437 61.48 209.869 61.546 210.445 61.618C211.249 61.714 211.909 61.846 212.425 62.014C212.953 62.182 213.373 62.452 213.685 62.824C214.009 63.196 214.171 63.7 214.171 64.336C214.171 64.888 214.009 65.374 213.685 65.794C213.361 66.214 212.923 66.538 212.371 66.766C211.819 66.994 211.207 67.108 210.535 67.108C209.335 67.108 208.369 66.832 207.637 66.28C206.917 65.728 206.551 64.96 206.539 63.976H208.015ZM216.822 63.976C216.846 64.528 217.086 64.978 217.542 65.326C218.01 65.674 218.61 65.848 219.342 65.848C219.99 65.848 220.512 65.722 220.908 65.47C221.316 65.206 221.52 64.864 221.52 64.444C221.52 64.084 221.424 63.808 221.232 63.616C221.04 63.424 220.788 63.292 220.476 63.22C220.176 63.148 219.744 63.076 219.18 63.004C218.388 62.908 217.74 62.782 217.236 62.626C216.732 62.47 216.324 62.224 216.012 61.888C215.7 61.54 215.544 61.066 215.544 60.466C215.544 59.926 215.694 59.446 215.994 59.026C216.306 58.606 216.726 58.282 217.254 58.054C217.782 57.814 218.376 57.694 219.036 57.694C220.116 57.694 220.992 57.946 221.664 58.45C222.348 58.954 222.726 59.674 222.798 60.61H221.322C221.262 60.13 221.028 59.734 220.62 59.422C220.212 59.11 219.702 58.954 219.09 58.954C218.466 58.954 217.962 59.086 217.578 59.35C217.194 59.602 217.002 59.938 217.002 60.358C217.002 60.67 217.092 60.91 217.272 61.078C217.452 61.246 217.68 61.36 217.956 61.42C218.244 61.48 218.676 61.546 219.252 61.618C220.056 61.714 220.716 61.846 221.232 62.014C221.76 62.182 222.18 62.452 222.492 62.824C222.816 63.196 222.978 63.7 222.978 64.336C222.978 64.888 222.816 65.374 222.492 65.794C222.168 66.214 221.73 66.538 221.178 66.766C220.626 66.994 220.014 67.108 219.342 67.108C218.142 67.108 217.176 66.832 216.444 66.28C215.724 65.728 215.358 64.96 215.346 63.976H216.822ZM229.363 54.4H230.839V67H229.363V54.4ZM232.538 62.41C232.538 61.474 232.718 60.652 233.078 59.944C233.45 59.236 233.966 58.69 234.626 58.306C235.286 57.91 236.042 57.712 236.894 57.712C237.734 57.712 238.478 57.886 239.126 58.234C239.774 58.582 240.284 59.086 240.656 59.746C241.028 60.406 241.226 61.18 241.25 62.068C241.25 62.2 241.238 62.41 241.214 62.698H234.086V62.824C234.11 63.724 234.386 64.444 234.914 64.984C235.442 65.524 236.132 65.794 236.984 65.794C237.644 65.794 238.202 65.632 238.658 65.308C239.126 64.972 239.438 64.51 239.594 63.922H241.088C240.908 64.858 240.458 65.626 239.738 66.226C239.018 66.814 238.136 67.108 237.092 67.108C236.18 67.108 235.382 66.916 234.698 66.532C234.014 66.136 233.48 65.584 233.096 64.876C232.724 64.156 232.538 63.334 232.538 62.41ZM239.72 61.474C239.648 60.694 239.354 60.088 238.838 59.656C238.334 59.224 237.692 59.008 236.912 59.008C236.216 59.008 235.604 59.236 235.076 59.692C234.548 60.148 234.248 60.742 234.176 61.474H239.72ZM251.646 57.82V66.55C251.646 69.322 250.128 70.708 247.092 70.708C245.904 70.708 244.932 70.438 244.176 69.898C243.432 69.358 243 68.59 242.88 67.594H244.392C244.512 68.17 244.818 68.614 245.31 68.926C245.802 69.238 246.432 69.394 247.2 69.394C249.18 69.394 250.17 68.428 250.17 66.496V65.416C249.51 66.544 248.46 67.108 247.02 67.108C246.168 67.108 245.406 66.922 244.734 66.55C244.074 66.178 243.552 65.638 243.168 64.93C242.796 64.222 242.61 63.382 242.61 62.41C242.61 61.486 242.796 60.67 243.168 59.962C243.552 59.254 244.08 58.702 244.752 58.306C245.424 57.91 246.18 57.712 247.02 57.712C247.764 57.712 248.4 57.862 248.928 58.162C249.456 58.45 249.87 58.864 250.17 59.404L250.368 57.82H251.646ZM247.164 65.794C247.752 65.794 248.274 65.656 248.73 65.38C249.198 65.092 249.558 64.696 249.81 64.192C250.062 63.676 250.188 63.094 250.188 62.446C250.188 61.786 250.062 61.198 249.81 60.682C249.558 60.154 249.198 59.746 248.73 59.458C248.274 59.17 247.752 59.026 247.164 59.026C246.252 59.026 245.514 59.344 244.95 59.98C244.398 60.604 244.122 61.414 244.122 62.41C244.122 63.406 244.398 64.222 244.95 64.858C245.514 65.482 246.252 65.794 247.164 65.794ZM262.242 65.65V67H261.432C260.844 67 260.424 66.88 260.172 66.64C259.92 66.4 259.788 66.046 259.776 65.578C259.068 66.598 258.042 67.108 256.698 67.108C255.678 67.108 254.856 66.868 254.232 66.388C253.62 65.908 253.314 65.254 253.314 64.426C253.314 63.502 253.626 62.794 254.25 62.302C254.886 61.81 255.804 61.564 257.004 61.564H259.704V60.934C259.704 60.334 259.5 59.866 259.092 59.53C258.696 59.194 258.138 59.026 257.418 59.026C256.782 59.026 256.254 59.17 255.834 59.458C255.426 59.734 255.174 60.106 255.078 60.574H253.602C253.71 59.674 254.106 58.972 254.79 58.468C255.486 57.964 256.386 57.712 257.49 57.712C258.666 57.712 259.572 58 260.208 58.576C260.856 59.14 261.18 59.956 261.18 61.024V64.984C261.18 65.428 261.384 65.65 261.792 65.65H262.242ZM259.704 62.806H256.86C255.492 62.806 254.808 63.316 254.808 64.336C254.808 64.792 254.988 65.158 255.348 65.434C255.708 65.71 256.194 65.848 256.806 65.848C257.706 65.848 258.414 65.614 258.93 65.146C259.446 64.666 259.704 64.036 259.704 63.256V62.806ZM263.377 54.4H264.853V67H263.377V54.4ZM281.828 57.712C282.86 57.712 283.694 58.036 284.33 58.684C284.978 59.332 285.302 60.34 285.302 61.708V67H283.826V61.798C283.826 60.91 283.634 60.232 283.25 59.764C282.878 59.296 282.344 59.062 281.648 59.062C280.88 59.062 280.274 59.332 279.83 59.872C279.398 60.412 279.182 61.15 279.182 62.086V67H277.706V61.798C277.706 60.91 277.514 60.232 277.13 59.764C276.746 59.296 276.2 59.062 275.492 59.062C274.748 59.062 274.154 59.35 273.71 59.926C273.278 60.49 273.062 61.234 273.062 62.158V67H271.586V57.82H272.864L273.062 59.08C273.722 58.168 274.616 57.712 275.744 57.712C276.404 57.712 276.986 57.862 277.49 58.162C278.006 58.45 278.39 58.882 278.642 59.458C279.302 58.294 280.364 57.712 281.828 57.712ZM286.872 62.41C286.872 61.474 287.052 60.652 287.412 59.944C287.784 59.236 288.3 58.69 288.96 58.306C289.62 57.91 290.376 57.712 291.228 57.712C292.068 57.712 292.812 57.886 293.46 58.234C294.108 58.582 294.618 59.086 294.99 59.746C295.362 60.406 295.56 61.18 295.584 62.068C295.584 62.2 295.572 62.41 295.548 62.698H288.42V62.824C288.444 63.724 288.72 64.444 289.248 64.984C289.776 65.524 290.466 65.794 291.318 65.794C291.978 65.794 292.536 65.632 292.992 65.308C293.46 64.972 293.772 64.51 293.928 63.922H295.422C295.242 64.858 294.792 65.626 294.072 66.226C293.352 66.814 292.47 67.108 291.426 67.108C290.514 67.108 289.716 66.916 289.032 66.532C288.348 66.136 287.814 65.584 287.43 64.876C287.058 64.156 286.872 63.334 286.872 62.41ZM294.054 61.474C293.982 60.694 293.688 60.088 293.172 59.656C292.668 59.224 292.026 59.008 291.246 59.008C290.55 59.008 289.938 59.236 289.41 59.692C288.882 60.148 288.582 60.742 288.51 61.474H294.054ZM307.51 57.712C308.542 57.712 309.376 58.036 310.012 58.684C310.66 59.332 310.984 60.34 310.984 61.708V67H309.508V61.798C309.508 60.91 309.316 60.232 308.932 59.764C308.56 59.296 308.026 59.062 307.33 59.062C306.562 59.062 305.956 59.332 305.512 59.872C305.08 60.412 304.864 61.15 304.864 62.086V67H303.388V61.798C303.388 60.91 303.196 60.232 302.812 59.764C302.428 59.296 301.882 59.062 301.174 59.062C300.43 59.062 299.836 59.35 299.392 59.926C298.96 60.49 298.744 61.234 298.744 62.158V67H297.268V57.82H298.546L298.744 59.08C299.404 58.168 300.298 57.712 301.426 57.712C302.086 57.712 302.668 57.862 303.172 58.162C303.688 58.45 304.072 58.882 304.324 59.458C304.984 58.294 306.046 57.712 307.51 57.712ZM317.107 67.108C316.219 67.108 315.427 66.91 314.731 66.514C314.047 66.118 313.513 65.566 313.129 64.858C312.745 64.15 312.553 63.334 312.553 62.41C312.553 61.486 312.745 60.67 313.129 59.962C313.513 59.254 314.047 58.702 314.731 58.306C315.427 57.91 316.219 57.712 317.107 57.712C317.995 57.712 318.781 57.91 319.465 58.306C320.161 58.702 320.701 59.254 321.085 59.962C321.469 60.67 321.661 61.486 321.661 62.41C321.661 63.334 321.469 64.15 321.085 64.858C320.701 65.566 320.161 66.118 319.465 66.514C318.781 66.91 317.995 67.108 317.107 67.108ZM317.107 65.794C317.707 65.794 318.235 65.65 318.691 65.362C319.159 65.074 319.519 64.672 319.771 64.156C320.023 63.64 320.149 63.058 320.149 62.41C320.149 61.762 320.023 61.18 319.771 60.664C319.519 60.148 319.159 59.746 318.691 59.458C318.235 59.17 317.707 59.026 317.107 59.026C316.507 59.026 315.973 59.17 315.505 59.458C315.049 59.746 314.695 60.148 314.443 60.664C314.191 61.18 314.065 61.762 314.065 62.41C314.065 63.058 314.191 63.64 314.443 64.156C314.695 64.672 315.049 65.074 315.505 65.362C315.973 65.65 316.507 65.794 317.107 65.794ZM332.691 57.712C333.543 57.712 334.299 57.898 334.959 58.27C335.631 58.642 336.153 59.182 336.525 59.89C336.909 60.598 337.101 61.438 337.101 62.41C337.101 63.334 336.909 64.15 336.525 64.858C336.153 65.566 335.631 66.118 334.959 66.514C334.287 66.91 333.531 67.108 332.691 67.108C331.947 67.108 331.311 66.976 330.783 66.712C330.255 66.436 329.841 66.064 329.541 65.596L329.343 67H328.065V54.4H329.541V59.296C330.309 58.24 331.359 57.712 332.691 57.712ZM332.547 65.794C333.459 65.794 334.191 65.482 334.743 64.858C335.307 64.222 335.589 63.406 335.589 62.41C335.589 61.414 335.307 60.604 334.743 59.98C334.191 59.344 333.459 59.026 332.547 59.026C331.959 59.026 331.431 59.17 330.963 59.458C330.507 59.734 330.153 60.13 329.901 60.646C329.649 61.15 329.523 61.726 329.523 62.374C329.523 63.034 329.649 63.628 329.901 64.156C330.153 64.672 330.507 65.074 330.963 65.362C331.431 65.65 331.959 65.794 332.547 65.794ZM347.373 65.65V67H346.563C345.975 67 345.555 66.88 345.303 66.64C345.051 66.4 344.919 66.046 344.907 65.578C344.199 66.598 343.173 67.108 341.829 67.108C340.809 67.108 339.987 66.868 339.363 66.388C338.751 65.908 338.445 65.254 338.445 64.426C338.445 63.502 338.757 62.794 339.381 62.302C340.017 61.81 340.935 61.564 342.135 61.564H344.835V60.934C344.835 60.334 344.631 59.866 344.223 59.53C343.827 59.194 343.269 59.026 342.549 59.026C341.913 59.026 341.385 59.17 340.965 59.458C340.557 59.734 340.305 60.106 340.209 60.574H338.733C338.841 59.674 339.237 58.972 339.921 58.468C340.617 57.964 341.517 57.712 342.621 57.712C343.797 57.712 344.703 58 345.339 58.576C345.987 59.14 346.311 59.956 346.311 61.024V64.984C346.311 65.428 346.515 65.65 346.923 65.65H347.373ZM344.835 62.806H341.991C340.623 62.806 339.939 63.316 339.939 64.336C339.939 64.792 340.119 65.158 340.479 65.434C340.839 65.71 341.325 65.848 341.937 65.848C342.837 65.848 343.545 65.614 344.061 65.146C344.577 64.666 344.835 64.036 344.835 63.256V62.806ZM349.66 63.976C349.684 64.528 349.924 64.978 350.38 65.326C350.848 65.674 351.448 65.848 352.18 65.848C352.828 65.848 353.35 65.722 353.746 65.47C354.154 65.206 354.358 64.864 354.358 64.444C354.358 64.084 354.262 63.808 354.07 63.616C353.878 63.424 353.626 63.292 353.314 63.22C353.014 63.148 352.582 63.076 352.018 63.004C351.226 62.908 350.578 62.782 350.074 62.626C349.57 62.47 349.162 62.224 348.85 61.888C348.538 61.54 348.382 61.066 348.382 60.466C348.382 59.926 348.532 59.446 348.832 59.026C349.144 58.606 349.564 58.282 350.092 58.054C350.62 57.814 351.214 57.694 351.874 57.694C352.954 57.694 353.83 57.946 354.502 58.45C355.186 58.954 355.564 59.674 355.636 60.61H354.16C354.1 60.13 353.866 59.734 353.458 59.422C353.05 59.11 352.54 58.954 351.928 58.954C351.304 58.954 350.8 59.086 350.416 59.35C350.032 59.602 349.84 59.938 349.84 60.358C349.84 60.67 349.93 60.91 350.11 61.078C350.29 61.246 350.518 61.36 350.794 61.42C351.082 61.48 351.514 61.546 352.09 61.618C352.894 61.714 353.554 61.846 354.07 62.014C354.598 62.182 355.018 62.452 355.33 62.824C355.654 63.196 355.816 63.7 355.816 64.336C355.816 64.888 355.654 65.374 355.33 65.794C355.006 66.214 354.568 66.538 354.016 66.766C353.464 66.994 352.852 67.108 352.18 67.108C350.98 67.108 350.014 66.832 349.282 66.28C348.562 65.728 348.196 64.96 348.184 63.976H349.66ZM357.166 62.41C357.166 61.474 357.346 60.652 357.706 59.944C358.078 59.236 358.594 58.69 359.254 58.306C359.914 57.91 360.67 57.712 361.522 57.712C362.362 57.712 363.106 57.886 363.754 58.234C364.402 58.582 364.912 59.086 365.284 59.746C365.656 60.406 365.854 61.18 365.878 62.068C365.878 62.2 365.866 62.41 365.842 62.698H358.714V62.824C358.738 63.724 359.014 64.444 359.542 64.984C360.07 65.524 360.76 65.794 361.612 65.794C362.272 65.794 362.83 65.632 363.286 65.308C363.754 64.972 364.066 64.51 364.222 63.922H365.716C365.536 64.858 365.086 65.626 364.366 66.226C363.646 66.814 362.764 67.108 361.72 67.108C360.808 67.108 360.01 66.916 359.326 66.532C358.642 66.136 358.108 65.584 357.724 64.876C357.352 64.156 357.166 63.334 357.166 62.41ZM364.348 61.474C364.276 60.694 363.982 60.088 363.466 59.656C362.962 59.224 362.32 59.008 361.54 59.008C360.844 59.008 360.232 59.236 359.704 59.692C359.176 60.148 358.876 60.742 358.804 61.474H364.348ZM376.275 54.4V67H374.997L374.799 65.524C374.031 66.58 372.981 67.108 371.649 67.108C370.797 67.108 370.035 66.922 369.363 66.55C368.703 66.178 368.181 65.638 367.797 64.93C367.425 64.222 367.239 63.382 367.239 62.41C367.239 61.486 367.425 60.67 367.797 59.962C368.181 59.254 368.709 58.702 369.381 58.306C370.053 57.91 370.809 57.712 371.649 57.712C372.393 57.712 373.029 57.85 373.557 58.126C374.085 58.39 374.499 58.756 374.799 59.224V54.4H376.275ZM371.793 65.794C372.381 65.794 372.903 65.656 373.359 65.38C373.827 65.092 374.187 64.696 374.439 64.192C374.691 63.676 374.817 63.094 374.817 62.446C374.817 61.786 374.691 61.198 374.439 60.682C374.187 60.154 373.827 59.746 373.359 59.458C372.903 59.17 372.381 59.026 371.793 59.026C370.881 59.026 370.143 59.344 369.579 59.98C369.027 60.604 368.751 61.414 368.751 62.41C368.751 63.406 369.027 64.222 369.579 64.858C370.143 65.482 370.881 65.794 371.793 65.794ZM387.226 67.108C386.338 67.108 385.546 66.91 384.85 66.514C384.166 66.118 383.632 65.566 383.248 64.858C382.864 64.15 382.672 63.334 382.672 62.41C382.672 61.486 382.864 60.67 383.248 59.962C383.632 59.254 384.166 58.702 384.85 58.306C385.546 57.91 386.338 57.712 387.226 57.712C388.114 57.712 388.9 57.91 389.584 58.306C390.28 58.702 390.82 59.254 391.204 59.962C391.588 60.67 391.78 61.486 391.78 62.41C391.78 63.334 391.588 64.15 391.204 64.858C390.82 65.566 390.28 66.118 389.584 66.514C388.9 66.91 388.114 67.108 387.226 67.108ZM387.226 65.794C387.826 65.794 388.354 65.65 388.81 65.362C389.278 65.074 389.638 64.672 389.89 64.156C390.142 63.64 390.268 63.058 390.268 62.41C390.268 61.762 390.142 61.18 389.89 60.664C389.638 60.148 389.278 59.746 388.81 59.458C388.354 59.17 387.826 59.026 387.226 59.026C386.626 59.026 386.092 59.17 385.624 59.458C385.168 59.746 384.814 60.148 384.562 60.664C384.31 61.18 384.184 61.762 384.184 62.41C384.184 63.058 384.31 63.64 384.562 64.156C384.814 64.672 385.168 65.074 385.624 65.362C386.092 65.65 386.626 65.794 387.226 65.794ZM397.973 57.712C399.089 57.712 399.983 58.048 400.655 58.72C401.339 59.392 401.681 60.448 401.681 61.888V67H400.205V61.978C400.205 61.03 399.989 60.31 399.557 59.818C399.137 59.314 398.525 59.062 397.721 59.062C396.857 59.062 396.179 59.362 395.687 59.962C395.195 60.562 394.949 61.378 394.949 62.41V67H393.473V57.82H394.751L394.949 59.062C395.645 58.162 396.653 57.712 397.973 57.712ZM96.634 80.712C97.486 80.712 98.242 80.898 98.902 81.27C99.574 81.642 100.096 82.182 100.468 82.89C100.852 83.598 101.044 84.438 101.044 85.41C101.044 86.334 100.852 87.15 100.468 87.858C100.096 88.566 99.574 89.118 98.902 89.514C98.23 89.91 97.474 90.108 96.634 90.108C95.89 90.108 95.254 89.976 94.726 89.712C94.198 89.436 93.784 89.064 93.484 88.596V93.6H92.008V80.82H93.286L93.484 82.296C94.252 81.24 95.302 80.712 96.634 80.712ZM96.49 88.794C97.402 88.794 98.134 88.482 98.686 87.858C99.25 87.222 99.532 86.406 99.532 85.41C99.532 84.414 99.25 83.604 98.686 82.98C98.134 82.344 97.402 82.026 96.49 82.026C95.902 82.026 95.374 82.17 94.906 82.458C94.45 82.734 94.096 83.13 93.844 83.646C93.592 84.15 93.466 84.726 93.466 85.374C93.466 86.034 93.592 86.628 93.844 87.156C94.096 87.672 94.45 88.074 94.906 88.362C95.374 88.65 95.902 88.794 96.49 88.794ZM107.393 80.82V82.26H106.655C105.779 82.26 105.149 82.554 104.765 83.142C104.393 83.73 104.207 84.456 104.207 85.32V90H102.731V80.82H104.009L104.207 82.206C104.471 81.786 104.813 81.45 105.233 81.198C105.653 80.946 106.235 80.82 106.979 80.82H107.393ZM107.891 85.41C107.891 84.474 108.071 83.652 108.431 82.944C108.803 82.236 109.319 81.69 109.979 81.306C110.639 80.91 111.395 80.712 112.247 80.712C113.087 80.712 113.831 80.886 114.479 81.234C115.127 81.582 115.637 82.086 116.009 82.746C116.381 83.406 116.579 84.18 116.603 85.068C116.603 85.2 116.591 85.41 116.567 85.698H109.439V85.824C109.463 86.724 109.739 87.444 110.267 87.984C110.795 88.524 111.485 88.794 112.337 88.794C112.997 88.794 113.555 88.632 114.011 88.308C114.479 87.972 114.791 87.51 114.947 86.922H116.441C116.261 87.858 115.811 88.626 115.091 89.226C114.371 89.814 113.489 90.108 112.445 90.108C111.533 90.108 110.735 89.916 110.051 89.532C109.367 89.136 108.833 88.584 108.449 87.876C108.077 87.156 107.891 86.334 107.891 85.41ZM115.073 84.474C115.001 83.694 114.707 83.088 114.191 82.656C113.687 82.224 113.045 82.008 112.265 82.008C111.569 82.008 110.957 82.236 110.429 82.692C109.901 83.148 109.601 83.742 109.529 84.474H115.073ZM126.477 86.832C126.285 87.852 125.835 88.656 125.127 89.244C124.419 89.82 123.519 90.108 122.427 90.108C121.539 90.108 120.759 89.91 120.087 89.514C119.415 89.118 118.893 88.566 118.521 87.858C118.149 87.138 117.963 86.316 117.963 85.392C117.963 84.468 118.149 83.652 118.521 82.944C118.905 82.236 119.439 81.69 120.123 81.306C120.807 80.91 121.593 80.712 122.481 80.712C123.561 80.712 124.449 81 125.145 81.576C125.853 82.152 126.297 82.944 126.477 83.952H124.983C124.839 83.364 124.539 82.896 124.083 82.548C123.627 82.2 123.075 82.026 122.427 82.026C121.551 82.026 120.837 82.338 120.285 82.962C119.745 83.586 119.475 84.396 119.475 85.392C119.475 86.4 119.745 87.222 120.285 87.858C120.837 88.482 121.551 88.794 122.427 88.794C123.099 88.794 123.663 88.62 124.119 88.272C124.575 87.924 124.869 87.444 125.001 86.832H126.477ZM127.666 85.41C127.666 84.474 127.846 83.652 128.206 82.944C128.578 82.236 129.094 81.69 129.754 81.306C130.414 80.91 131.17 80.712 132.022 80.712C132.862 80.712 133.606 80.886 134.254 81.234C134.902 81.582 135.412 82.086 135.784 82.746C136.156 83.406 136.354 84.18 136.378 85.068C136.378 85.2 136.366 85.41 136.342 85.698H129.214V85.824C129.238 86.724 129.514 87.444 130.042 87.984C130.57 88.524 131.26 88.794 132.112 88.794C132.772 88.794 133.33 88.632 133.786 88.308C134.254 87.972 134.566 87.51 134.722 86.922H136.216C136.036 87.858 135.586 88.626 134.866 89.226C134.146 89.814 133.264 90.108 132.22 90.108C131.308 90.108 130.51 89.916 129.826 89.532C129.142 89.136 128.608 88.584 128.224 87.876C127.852 87.156 127.666 86.334 127.666 85.41ZM134.848 84.474C134.776 83.694 134.482 83.088 133.966 82.656C133.462 82.224 132.82 82.008 132.04 82.008C131.344 82.008 130.732 82.236 130.204 82.692C129.676 83.148 129.376 83.742 129.304 84.474H134.848ZM146.775 77.4V90H145.497L145.299 88.524C144.531 89.58 143.481 90.108 142.149 90.108C141.297 90.108 140.535 89.922 139.863 89.55C139.203 89.178 138.681 88.638 138.297 87.93C137.925 87.222 137.739 86.382 137.739 85.41C137.739 84.486 137.925 83.67 138.297 82.962C138.681 82.254 139.209 81.702 139.881 81.306C140.553 80.91 141.309 80.712 142.149 80.712C142.893 80.712 143.529 80.85 144.057 81.126C144.585 81.39 144.999 81.756 145.299 82.224V77.4H146.775ZM142.293 88.794C142.881 88.794 143.403 88.656 143.859 88.38C144.327 88.092 144.687 87.696 144.939 87.192C145.191 86.676 145.317 86.094 145.317 85.446C145.317 84.786 145.191 84.198 144.939 83.682C144.687 83.154 144.327 82.746 143.859 82.458C143.403 82.17 142.881 82.026 142.293 82.026C141.381 82.026 140.643 82.344 140.079 82.98C139.527 83.604 139.251 84.414 139.251 85.41C139.251 86.406 139.527 87.222 140.079 87.858C140.643 88.482 141.381 88.794 142.293 88.794ZM148.461 85.41C148.461 84.474 148.641 83.652 149.001 82.944C149.373 82.236 149.889 81.69 150.549 81.306C151.209 80.91 151.965 80.712 152.817 80.712C153.657 80.712 154.401 80.886 155.049 81.234C155.697 81.582 156.207 82.086 156.579 82.746C156.951 83.406 157.149 84.18 157.173 85.068C157.173 85.2 157.161 85.41 157.137 85.698H150.009V85.824C150.033 86.724 150.309 87.444 150.837 87.984C151.365 88.524 152.055 88.794 152.907 88.794C153.567 88.794 154.125 88.632 154.581 88.308C155.049 87.972 155.361 87.51 155.517 86.922H157.011C156.831 87.858 156.381 88.626 155.661 89.226C154.941 89.814 154.059 90.108 153.015 90.108C152.103 90.108 151.305 89.916 150.621 89.532C149.937 89.136 149.403 88.584 149.019 87.876C148.647 87.156 148.461 86.334 148.461 85.41ZM155.643 84.474C155.571 83.694 155.277 83.088 154.761 82.656C154.257 82.224 153.615 82.008 152.835 82.008C152.139 82.008 151.527 82.236 150.999 82.692C150.471 83.148 150.171 83.742 150.099 84.474H155.643ZM163.358 80.712C164.474 80.712 165.368 81.048 166.04 81.72C166.724 82.392 167.066 83.448 167.066 84.888V90H165.59V84.978C165.59 84.03 165.374 83.31 164.942 82.818C164.522 82.314 163.91 82.062 163.106 82.062C162.242 82.062 161.564 82.362 161.072 82.962C160.58 83.562 160.334 84.378 160.334 85.41V90H158.858V80.82H160.136L160.334 82.062C161.03 81.162 162.038 80.712 163.358 80.712ZM169.559 82.17H167.903V80.82H169.559V78.246H171.035V80.82H173.357V82.17H171.035V87.588C171.035 87.972 171.107 88.248 171.251 88.416C171.407 88.572 171.671 88.65 172.043 88.65H173.645V90H171.953C171.089 90 170.471 89.808 170.099 89.424C169.739 89.04 169.559 88.434 169.559 87.606V82.17ZM187.992 88.65V90H187.182C186.594 90 186.174 89.88 185.922 89.64C185.67 89.4 185.538 89.046 185.526 88.578C184.818 89.598 183.792 90.108 182.448 90.108C181.428 90.108 180.606 89.868 179.982 89.388C179.37 88.908 179.064 88.254 179.064 87.426C179.064 86.502 179.376 85.794 180 85.302C180.636 84.81 181.554 84.564 182.754 84.564H185.454V83.934C185.454 83.334 185.25 82.866 184.842 82.53C184.446 82.194 183.888 82.026 183.168 82.026C182.532 82.026 182.004 82.17 181.584 82.458C181.176 82.734 180.924 83.106 180.828 83.574H179.352C179.46 82.674 179.856 81.972 180.54 81.468C181.236 80.964 182.136 80.712 183.24 80.712C184.416 80.712 185.322 81 185.958 81.576C186.606 82.14 186.93 82.956 186.93 84.024V87.984C186.93 88.428 187.134 88.65 187.542 88.65H187.992ZM185.454 85.806H182.61C181.242 85.806 180.558 86.316 180.558 87.336C180.558 87.792 180.738 88.158 181.098 88.434C181.458 88.71 181.944 88.848 182.556 88.848C183.456 88.848 184.164 88.614 184.68 88.146C185.196 87.666 185.454 87.036 185.454 86.256V85.806ZM193.627 80.712C194.743 80.712 195.637 81.048 196.309 81.72C196.993 82.392 197.335 83.448 197.335 84.888V90H195.859V84.978C195.859 84.03 195.643 83.31 195.211 82.818C194.791 82.314 194.179 82.062 193.375 82.062C192.511 82.062 191.833 82.362 191.341 82.962C190.849 83.562 190.603 84.378 190.603 85.41V90H189.127V80.82H190.405L190.603 82.062C191.299 81.162 192.307 80.712 193.627 80.712ZM207.929 77.4V90H206.651L206.453 88.524C205.685 89.58 204.635 90.108 203.303 90.108C202.451 90.108 201.689 89.922 201.017 89.55C200.357 89.178 199.835 88.638 199.451 87.93C199.079 87.222 198.893 86.382 198.893 85.41C198.893 84.486 199.079 83.67 199.451 82.962C199.835 82.254 200.363 81.702 201.035 81.306C201.707 80.91 202.463 80.712 203.303 80.712C204.047 80.712 204.683 80.85 205.211 81.126C205.739 81.39 206.153 81.756 206.453 82.224V77.4H207.929ZM203.447 88.794C204.035 88.794 204.557 88.656 205.013 88.38C205.481 88.092 205.841 87.696 206.093 87.192C206.345 86.676 206.471 86.094 206.471 85.446C206.471 84.786 206.345 84.198 206.093 83.682C205.841 83.154 205.481 82.746 205.013 82.458C204.557 82.17 204.035 82.026 203.447 82.026C202.535 82.026 201.797 82.344 201.233 82.98C200.681 83.604 200.405 84.414 200.405 85.41C200.405 86.406 200.681 87.222 201.233 87.858C201.797 88.482 202.535 88.794 203.447 88.794ZM218.881 90.108C217.993 90.108 217.201 89.91 216.505 89.514C215.821 89.118 215.287 88.566 214.903 87.858C214.519 87.15 214.327 86.334 214.327 85.41C214.327 84.486 214.519 83.67 214.903 82.962C215.287 82.254 215.821 81.702 216.505 81.306C217.201 80.91 217.993 80.712 218.881 80.712C219.769 80.712 220.555 80.91 221.239 81.306C221.935 81.702 222.475 82.254 222.859 82.962C223.243 83.67 223.435 84.486 223.435 85.41C223.435 86.334 223.243 87.15 222.859 87.858C222.475 88.566 221.935 89.118 221.239 89.514C220.555 89.91 219.769 90.108 218.881 90.108ZM218.881 88.794C219.481 88.794 220.009 88.65 220.465 88.362C220.933 88.074 221.293 87.672 221.545 87.156C221.797 86.64 221.923 86.058 221.923 85.41C221.923 84.762 221.797 84.18 221.545 83.664C221.293 83.148 220.933 82.746 220.465 82.458C220.009 82.17 219.481 82.026 218.881 82.026C218.281 82.026 217.747 82.17 217.279 82.458C216.823 82.746 216.469 83.148 216.217 83.664C215.965 84.18 215.839 84.762 215.839 85.41C215.839 86.058 215.965 86.64 216.217 87.156C216.469 87.672 216.823 88.074 217.279 88.362C217.747 88.65 218.281 88.794 218.881 88.794ZM233.029 80.82V90H231.751L231.553 88.776C230.857 89.664 229.879 90.108 228.619 90.108C227.527 90.108 226.651 89.772 225.991 89.1C225.331 88.428 225.001 87.372 225.001 85.932V80.82H226.477V85.842C226.477 86.79 226.681 87.516 227.089 88.02C227.509 88.512 228.103 88.758 228.871 88.758C229.711 88.758 230.365 88.458 230.833 87.858C231.313 87.258 231.553 86.442 231.553 85.41V80.82H233.029ZM239.703 80.82V82.26H238.965C238.089 82.26 237.459 82.554 237.075 83.142C236.703 83.73 236.517 84.456 236.517 85.32V90H235.041V80.82H236.319L236.517 82.206C236.781 81.786 237.123 81.45 237.543 81.198C237.963 80.946 238.545 80.82 239.289 80.82H239.703ZM252.37 79.182C252.094 79.182 251.866 79.092 251.686 78.912C251.506 78.732 251.416 78.504 251.416 78.228C251.416 77.952 251.506 77.724 251.686 77.544C251.866 77.364 252.094 77.274 252.37 77.274C252.646 77.274 252.874 77.364 253.054 77.544C253.234 77.724 253.324 77.952 253.324 78.228C253.324 78.504 253.234 78.732 253.054 78.912C252.874 79.092 252.646 79.182 252.37 79.182ZM253.108 90H251.632V82.17H247.852V90H246.376V82.17H244.72V80.82H246.376V79.794C246.376 78.978 246.562 78.378 246.934 77.994C247.318 77.598 247.93 77.4 248.77 77.4H250.282V78.75H248.86C248.5 78.75 248.242 78.828 248.086 78.984C247.93 79.14 247.852 79.398 247.852 79.758V80.82H253.108V90ZM259.777 80.82V82.26H259.039C258.163 82.26 257.533 82.554 257.149 83.142C256.777 83.73 256.591 84.456 256.591 85.32V90H255.115V80.82H256.393L256.591 82.206C256.855 81.786 257.197 81.45 257.617 81.198C258.037 80.946 258.619 80.82 259.363 80.82H259.777ZM271.369 80.712C272.401 80.712 273.235 81.036 273.871 81.684C274.519 82.332 274.843 83.34 274.843 84.708V90H273.367V84.798C273.367 83.91 273.175 83.232 272.791 82.764C272.419 82.296 271.885 82.062 271.189 82.062C270.421 82.062 269.815 82.332 269.371 82.872C268.939 83.412 268.723 84.15 268.723 85.086V90H267.247V84.798C267.247 83.91 267.055 83.232 266.671 82.764C266.287 82.296 265.741 82.062 265.033 82.062C264.289 82.062 263.695 82.35 263.251 82.926C262.819 83.49 262.603 84.234 262.603 85.158V90H261.127V80.82H262.405L262.603 82.08C263.263 81.168 264.157 80.712 265.285 80.712C265.945 80.712 266.527 80.862 267.031 81.162C267.547 81.45 267.931 81.882 268.183 82.458C268.843 81.294 269.905 80.712 271.369 80.712ZM276.928 77.292C277.36 77.292 277.702 77.472 277.954 77.832C278.218 78.18 278.35 78.612 278.35 79.128C278.35 79.896 278.122 80.496 277.666 80.928C277.222 81.36 276.604 81.588 275.812 81.612V80.766C276.34 80.754 276.724 80.604 276.964 80.316C277.204 80.028 277.324 79.698 277.324 79.326C277.324 79.218 277.318 79.14 277.306 79.092C277.162 79.236 276.958 79.308 276.694 79.308C276.406 79.308 276.172 79.224 275.992 79.056C275.824 78.888 275.74 78.648 275.74 78.336C275.74 78.036 275.842 77.79 276.046 77.598C276.262 77.394 276.556 77.292 276.928 77.292ZM280.806 86.976C280.83 87.528 281.07 87.978 281.526 88.326C281.994 88.674 282.594 88.848 283.326 88.848C283.974 88.848 284.496 88.722 284.892 88.47C285.3 88.206 285.504 87.864 285.504 87.444C285.504 87.084 285.408 86.808 285.216 86.616C285.024 86.424 284.772 86.292 284.46 86.22C284.16 86.148 283.728 86.076 283.164 86.004C282.372 85.908 281.724 85.782 281.22 85.626C280.716 85.47 280.308 85.224 279.996 84.888C279.684 84.54 279.528 84.066 279.528 83.466C279.528 82.926 279.678 82.446 279.978 82.026C280.29 81.606 280.71 81.282 281.238 81.054C281.766 80.814 282.36 80.694 283.02 80.694C284.1 80.694 284.976 80.946 285.648 81.45C286.332 81.954 286.71 82.674 286.782 83.61H285.306C285.246 83.13 285.012 82.734 284.604 82.422C284.196 82.11 283.686 81.954 283.074 81.954C282.45 81.954 281.946 82.086 281.562 82.35C281.178 82.602 280.986 82.938 280.986 83.358C280.986 83.67 281.076 83.91 281.256 84.078C281.436 84.246 281.664 84.36 281.94 84.42C282.228 84.48 282.66 84.546 283.236 84.618C284.04 84.714 284.7 84.846 285.216 85.014C285.744 85.182 286.164 85.452 286.476 85.824C286.8 86.196 286.962 86.7 286.962 87.336C286.962 87.888 286.8 88.374 286.476 88.794C286.152 89.214 285.714 89.538 285.162 89.766C284.61 89.994 283.998 90.108 283.326 90.108C282.126 90.108 281.16 89.832 280.428 89.28C279.708 88.728 279.342 87.96 279.33 86.976H280.806ZM294.5 86.976C294.524 87.528 294.764 87.978 295.22 88.326C295.688 88.674 296.288 88.848 297.02 88.848C297.668 88.848 298.19 88.722 298.586 88.47C298.994 88.206 299.198 87.864 299.198 87.444C299.198 87.084 299.102 86.808 298.91 86.616C298.718 86.424 298.466 86.292 298.154 86.22C297.854 86.148 297.422 86.076 296.858 86.004C296.066 85.908 295.418 85.782 294.914 85.626C294.41 85.47 294.002 85.224 293.69 84.888C293.378 84.54 293.222 84.066 293.222 83.466C293.222 82.926 293.372 82.446 293.672 82.026C293.984 81.606 294.404 81.282 294.932 81.054C295.46 80.814 296.054 80.694 296.714 80.694C297.794 80.694 298.67 80.946 299.342 81.45C300.026 81.954 300.404 82.674 300.476 83.61H299C298.94 83.13 298.706 82.734 298.298 82.422C297.89 82.11 297.38 81.954 296.768 81.954C296.144 81.954 295.64 82.086 295.256 82.35C294.872 82.602 294.68 82.938 294.68 83.358C294.68 83.67 294.77 83.91 294.95 84.078C295.13 84.246 295.358 84.36 295.634 84.42C295.922 84.48 296.354 84.546 296.93 84.618C297.734 84.714 298.394 84.846 298.91 85.014C299.438 85.182 299.858 85.452 300.17 85.824C300.494 86.196 300.656 86.7 300.656 87.336C300.656 87.888 300.494 88.374 300.17 88.794C299.846 89.214 299.408 89.538 298.856 89.766C298.304 89.994 297.692 90.108 297.02 90.108C295.82 90.108 294.854 89.832 294.122 89.28C293.402 88.728 293.036 87.96 293.024 86.976H294.5ZM302.942 82.17H301.286V80.82H302.942V78.246H304.418V80.82H306.74V82.17H304.418V87.588C304.418 87.972 304.49 88.248 304.634 88.416C304.79 88.572 305.054 88.65 305.426 88.65H307.028V90H305.336C304.472 90 303.854 89.808 303.482 89.424C303.122 89.04 302.942 88.434 302.942 87.606V82.17ZM316.524 88.65V90H315.714C315.126 90 314.706 89.88 314.454 89.64C314.202 89.4 314.07 89.046 314.058 88.578C313.35 89.598 312.324 90.108 310.98 90.108C309.96 90.108 309.138 89.868 308.514 89.388C307.902 88.908 307.596 88.254 307.596 87.426C307.596 86.502 307.908 85.794 308.532 85.302C309.168 84.81 310.086 84.564 311.286 84.564H313.986V83.934C313.986 83.334 313.782 82.866 313.374 82.53C312.978 82.194 312.42 82.026 311.7 82.026C311.064 82.026 310.536 82.17 310.116 82.458C309.708 82.734 309.456 83.106 309.36 83.574H307.884C307.992 82.674 308.388 81.972 309.072 81.468C309.768 80.964 310.668 80.712 311.772 80.712C312.948 80.712 313.854 81 314.49 81.576C315.138 82.14 315.462 82.956 315.462 84.024V87.984C315.462 88.428 315.666 88.65 316.074 88.65H316.524ZM313.986 85.806H311.142C309.774 85.806 309.09 86.316 309.09 87.336C309.09 87.792 309.27 88.158 309.63 88.434C309.99 88.71 310.476 88.848 311.088 88.848C311.988 88.848 312.696 88.614 313.212 88.146C313.728 87.666 313.986 87.036 313.986 86.256V85.806ZM322.158 80.712C323.274 80.712 324.168 81.048 324.84 81.72C325.524 82.392 325.866 83.448 325.866 84.888V90H324.39V84.978C324.39 84.03 324.174 83.31 323.742 82.818C323.322 82.314 322.71 82.062 321.906 82.062C321.042 82.062 320.364 82.362 319.872 82.962C319.38 83.562 319.134 84.378 319.134 85.41V90H317.658V80.82H318.936L319.134 82.062C319.83 81.162 320.838 80.712 322.158 80.712ZM336.46 77.4V90H335.182L334.984 88.524C334.216 89.58 333.166 90.108 331.834 90.108C330.982 90.108 330.22 89.922 329.548 89.55C328.888 89.178 328.366 88.638 327.982 87.93C327.61 87.222 327.424 86.382 327.424 85.41C327.424 84.486 327.61 83.67 327.982 82.962C328.366 82.254 328.894 81.702 329.566 81.306C330.238 80.91 330.994 80.712 331.834 80.712C332.578 80.712 333.214 80.85 333.742 81.126C334.27 81.39 334.684 81.756 334.984 82.224V77.4H336.46ZM331.978 88.794C332.566 88.794 333.088 88.656 333.544 88.38C334.012 88.092 334.372 87.696 334.624 87.192C334.876 86.676 335.002 86.094 335.002 85.446C335.002 84.786 334.876 84.198 334.624 83.682C334.372 83.154 334.012 82.746 333.544 82.458C333.088 82.17 332.566 82.026 331.978 82.026C331.066 82.026 330.328 82.344 329.764 82.98C329.212 83.604 328.936 84.414 328.936 85.41C328.936 86.406 329.212 87.222 329.764 87.858C330.328 88.482 331.066 88.794 331.978 88.794ZM347.057 88.65V90H346.247C345.659 90 345.239 89.88 344.987 89.64C344.735 89.4 344.603 89.046 344.591 88.578C343.883 89.598 342.857 90.108 341.513 90.108C340.493 90.108 339.671 89.868 339.047 89.388C338.435 88.908 338.129 88.254 338.129 87.426C338.129 86.502 338.441 85.794 339.065 85.302C339.701 84.81 340.619 84.564 341.819 84.564H344.519V83.934C344.519 83.334 344.315 82.866 343.907 82.53C343.511 82.194 342.953 82.026 342.233 82.026C341.597 82.026 341.069 82.17 340.649 82.458C340.241 82.734 339.989 83.106 339.893 83.574H338.417C338.525 82.674 338.921 81.972 339.605 81.468C340.301 80.964 341.201 80.712 342.305 80.712C343.481 80.712 344.387 81 345.023 81.576C345.671 82.14 345.995 82.956 345.995 84.024V87.984C345.995 88.428 346.199 88.65 346.607 88.65H347.057ZM344.519 85.806H341.675C340.307 85.806 339.623 86.316 339.623 87.336C339.623 87.792 339.803 88.158 340.163 88.434C340.523 88.71 341.009 88.848 341.621 88.848C342.521 88.848 343.229 88.614 343.745 88.146C344.261 87.666 344.519 87.036 344.519 86.256V85.806ZM352.854 80.82V82.26H352.116C351.24 82.26 350.61 82.554 350.226 83.142C349.854 83.73 349.668 84.456 349.668 85.32V90H348.192V80.82H349.47L349.668 82.206C349.932 81.786 350.274 81.45 350.694 81.198C351.114 80.946 351.696 80.82 352.44 80.82H352.854ZM362.388 77.4V90H361.11L360.912 88.524C360.144 89.58 359.094 90.108 357.762 90.108C356.91 90.108 356.148 89.922 355.476 89.55C354.816 89.178 354.294 88.638 353.91 87.93C353.538 87.222 353.352 86.382 353.352 85.41C353.352 84.486 353.538 83.67 353.91 82.962C354.294 82.254 354.822 81.702 355.494 81.306C356.166 80.91 356.922 80.712 357.762 80.712C358.506 80.712 359.142 80.85 359.67 81.126C360.198 81.39 360.612 81.756 360.912 82.224V77.4H362.388ZM357.906 88.794C358.494 88.794 359.016 88.656 359.472 88.38C359.94 88.092 360.3 87.696 360.552 87.192C360.804 86.676 360.93 86.094 360.93 85.446C360.93 84.786 360.804 84.198 360.552 83.682C360.3 83.154 359.94 82.746 359.472 82.458C359.016 82.17 358.494 82.026 357.906 82.026C356.994 82.026 356.256 82.344 355.692 82.98C355.14 83.604 354.864 84.414 354.864 85.41C354.864 86.406 355.14 87.222 355.692 87.858C356.256 88.482 356.994 88.794 357.906 88.794ZM370.262 86.976C370.286 87.528 370.526 87.978 370.982 88.326C371.45 88.674 372.05 88.848 372.782 88.848C373.43 88.848 373.952 88.722 374.348 88.47C374.756 88.206 374.96 87.864 374.96 87.444C374.96 87.084 374.864 86.808 374.672 86.616C374.48 86.424 374.228 86.292 373.916 86.22C373.616 86.148 373.184 86.076 372.62 86.004C371.828 85.908 371.18 85.782 370.676 85.626C370.172 85.47 369.764 85.224 369.452 84.888C369.14 84.54 368.984 84.066 368.984 83.466C368.984 82.926 369.134 82.446 369.434 82.026C369.746 81.606 370.166 81.282 370.694 81.054C371.222 80.814 371.816 80.694 372.476 80.694C373.556 80.694 374.432 80.946 375.104 81.45C375.788 81.954 376.166 82.674 376.238 83.61H374.762C374.702 83.13 374.468 82.734 374.06 82.422C373.652 82.11 373.142 81.954 372.53 81.954C371.906 81.954 371.402 82.086 371.018 82.35C370.634 82.602 370.442 82.938 370.442 83.358C370.442 83.67 370.532 83.91 370.712 84.078C370.892 84.246 371.12 84.36 371.396 84.42C371.684 84.48 372.116 84.546 372.692 84.618C373.496 84.714 374.156 84.846 374.672 85.014C375.2 85.182 375.62 85.452 375.932 85.824C376.256 86.196 376.418 86.7 376.418 87.336C376.418 87.888 376.256 88.374 375.932 88.794C375.608 89.214 375.17 89.538 374.618 89.766C374.066 89.994 373.454 90.108 372.782 90.108C371.582 90.108 370.616 89.832 369.884 89.28C369.164 88.728 368.798 87.96 368.786 86.976H370.262ZM378.704 82.17H377.048V80.82H378.704V78.246H380.18V80.82H382.502V82.17H380.18V87.588C380.18 87.972 380.252 88.248 380.396 88.416C380.552 88.572 380.816 88.65 381.188 88.65H382.79V90H381.098C380.234 90 379.616 89.808 379.244 89.424C378.884 89.04 378.704 88.434 378.704 87.606V82.17ZM384.488 80.82L387.314 88.308L390.05 80.82H391.616L387.386 91.548C387.17 92.1 386.978 92.514 386.81 92.79C386.642 93.066 386.432 93.27 386.18 93.402C385.928 93.534 385.592 93.6 385.172 93.6H383.408V92.25H384.722C385.01 92.25 385.226 92.22 385.37 92.16C385.514 92.1 385.628 91.998 385.712 91.854C385.808 91.722 385.922 91.494 386.054 91.17L386.522 90.072L382.922 80.82H384.488ZM392.717 77.4H394.193V90H392.717V77.4ZM395.891 85.41C395.891 84.474 396.071 83.652 396.431 82.944C396.803 82.236 397.319 81.69 397.979 81.306C398.639 80.91 399.395 80.712 400.247 80.712C401.087 80.712 401.831 80.886 402.479 81.234C403.127 81.582 403.637 82.086 404.009 82.746C404.381 83.406 404.579 84.18 404.603 85.068C404.603 85.2 404.591 85.41 404.567 85.698H397.439V85.824C397.463 86.724 397.739 87.444 398.267 87.984C398.795 88.524 399.485 88.794 400.337 88.794C400.997 88.794 401.555 88.632 402.011 88.308C402.479 87.972 402.791 87.51 402.947 86.922H404.441C404.261 87.858 403.811 88.626 403.091 89.226C402.371 89.814 401.489 90.108 400.445 90.108C399.533 90.108 398.735 89.916 398.051 89.532C397.367 89.136 396.833 88.584 396.449 87.876C396.077 87.156 395.891 86.334 395.891 85.41ZM403.073 84.474C403.001 83.694 402.707 83.088 402.191 82.656C401.687 82.224 401.045 82.008 400.265 82.008C399.569 82.008 398.957 82.236 398.429 82.692C397.901 83.148 397.601 83.742 397.529 84.474H403.073ZM405.51 89.1C405.51 88.8 405.606 88.56 405.798 88.38C405.99 88.188 406.236 88.092 406.536 88.092C406.836 88.092 407.082 88.188 407.274 88.38C407.466 88.56 407.562 88.8 407.562 89.1C407.562 89.4 407.466 89.646 407.274 89.838C407.082 90.018 406.836 90.108 406.536 90.108C406.236 90.108 405.99 90.018 405.798 89.838C405.606 89.646 405.51 89.4 405.51 89.1Z" fill="black"/>
<path d="M469.333 458.361C469.333 459.834 470.527 461.028 472 461.028C473.473 461.028 474.667 459.834 474.667 458.361C474.667 456.888 473.473 455.695 472 455.695C470.527 455.695 469.333 456.888 469.333 458.361ZM165 135L164.519 135.137C164.695 135.756 164.874 136.379 165.054 137.004L165.534 136.865L166.015 136.727C165.835 136.103 165.657 135.482 165.481 134.863L165 135ZM166.638 140.647L166.158 140.789C166.534 142.062 166.917 143.346 167.308 144.64L167.787 144.495L168.265 144.351C167.875 143.058 167.492 141.777 167.117 140.506L166.638 140.647ZM168.955 148.322L168.477 148.469C168.862 149.713 169.252 150.967 169.65 152.229L170.127 152.079L170.604 151.928C170.207 150.668 169.816 149.416 169.433 148.174L168.955 148.322ZM171.339 155.888L170.863 156.041C171.272 157.313 171.687 158.593 172.109 159.881L172.585 159.725L173.06 159.57C172.638 158.284 172.223 157.005 171.815 155.735L171.339 155.888ZM173.817 163.452L173.343 163.61C173.76 164.861 174.183 166.118 174.612 167.382L175.086 167.222L175.559 167.061C175.13 165.798 174.708 164.543 174.291 163.294L173.817 163.452ZM176.391 171.032L175.919 171.195C176.348 172.437 176.783 173.685 177.223 174.939L177.695 174.773L178.167 174.607C177.727 173.355 177.292 172.109 176.864 170.868L176.391 171.032ZM179.016 178.502L178.545 178.67C178.992 179.92 179.443 181.175 179.901 182.435L180.371 182.264L180.841 182.094C180.384 180.835 179.933 179.582 179.487 178.334L179.016 178.502ZM181.753 186.042L181.284 186.215C181.736 187.442 182.193 188.673 182.656 189.909L183.124 189.733L183.593 189.558C183.131 188.324 182.674 187.094 182.222 185.869L181.753 186.042ZM184.527 193.451L184.059 193.629C184.532 194.873 185.01 196.122 185.493 197.374L185.96 197.194L186.426 197.014C185.944 195.763 185.466 194.516 184.994 193.274L184.527 193.451ZM187.405 200.914L186.94 201.096C187.419 202.319 187.902 203.546 188.391 204.776L188.855 204.592L189.32 204.407C188.832 203.179 188.349 201.953 187.871 200.732L187.405 200.914ZM190.334 208.289L189.87 208.476C190.368 209.712 190.871 210.951 191.379 212.193L191.841 212.004L192.304 211.815C191.797 210.575 191.295 209.337 190.798 208.102L190.334 208.289ZM193.354 215.681L192.892 215.873C193.396 217.09 193.905 218.309 194.418 219.531L194.879 219.337L195.34 219.144C194.828 217.923 194.32 216.705 193.816 215.49L193.354 215.681ZM196.432 223.008L195.972 223.204C196.494 224.43 197.021 225.658 197.552 226.889L198.011 226.691L198.47 226.492C197.94 225.264 197.413 224.037 196.892 222.812L196.432 223.008ZM199.594 230.333L199.136 230.533C199.666 231.742 200.199 232.953 200.737 234.165L201.194 233.963L201.651 233.76C201.114 232.549 200.581 231.34 200.052 230.132L199.594 230.333ZM202.819 237.601L202.363 237.806C202.909 239.022 203.46 240.238 204.015 241.455L204.47 241.248L204.925 241.041C204.37 239.825 203.821 238.61 203.275 237.396L202.819 237.601ZM206.127 244.859L205.673 245.069C206.227 246.269 206.785 247.469 207.347 248.671L207.8 248.459L208.253 248.247C207.692 247.047 207.134 245.848 206.58 244.65L206.127 244.859ZM209.499 252.062L209.047 252.277C209.618 253.479 210.192 254.683 210.771 255.886L211.222 255.67L211.672 255.453C211.094 254.251 210.52 253.049 209.95 251.848L209.499 252.062ZM212.955 259.25L212.505 259.469C213.085 260.658 213.668 261.847 214.256 263.037L214.704 262.815L215.153 262.594C214.566 261.406 213.983 260.218 213.404 259.031L212.955 259.25ZM216.478 266.381L216.03 266.605C216.626 267.794 217.225 268.984 217.829 270.173L218.274 269.946L218.72 269.72C218.118 268.533 217.519 267.345 216.925 266.157L216.478 266.381ZM220.086 273.492L219.642 273.721C220.247 274.898 220.857 276.076 221.471 277.252L221.914 277.021L222.357 276.79C221.745 275.615 221.136 274.439 220.531 273.263L220.086 273.492ZM223.765 280.546L223.323 280.779C223.944 281.955 224.569 283.129 225.198 284.302L225.638 284.066L226.079 283.83C225.451 282.658 224.827 281.485 224.207 280.312L223.765 280.546ZM227.531 287.572L227.092 287.811C227.725 288.976 228.362 290.14 229.002 291.302L229.44 291.061L229.878 290.819C229.238 289.659 228.602 288.497 227.97 287.334L227.531 287.572ZM231.372 294.541L230.935 294.785C231.583 295.945 232.235 297.103 232.891 298.26L233.326 298.013L233.761 297.767C233.106 296.612 232.455 295.455 231.808 294.297L231.372 294.541ZM235.302 301.474L234.868 301.723C235.53 302.874 236.195 304.023 236.865 305.17L237.296 304.918L237.728 304.666C237.06 303.52 236.396 302.373 235.735 301.224L235.302 301.474ZM239.313 308.35L238.883 308.605C239.56 309.748 240.24 310.889 240.924 312.027L241.353 311.77L241.781 311.512C241.098 310.375 240.419 309.236 239.744 308.095L239.313 308.35ZM243.414 315.176L242.987 315.436C243.679 316.571 244.375 317.704 245.074 318.834L245.499 318.571L245.925 318.308C245.226 317.18 244.532 316.049 243.841 314.916L243.414 315.176ZM247.607 321.95L247.183 322.216C247.89 323.341 248.6 324.463 249.315 325.582L249.736 325.313L250.158 325.044C249.445 323.927 248.736 322.807 248.03 321.684L247.607 321.95ZM251.887 328.658L251.468 328.93C252.192 330.047 252.919 331.161 253.65 332.271L254.068 331.996L254.486 331.721C253.756 330.613 253.029 329.501 252.307 328.386L251.887 328.658ZM256.271 335.316L255.856 335.594C256.595 336.699 257.337 337.799 258.083 338.897L258.497 338.616L258.91 338.335C258.166 337.239 257.424 336.14 256.687 335.038L256.271 335.316ZM260.744 341.894L260.333 342.178C261.09 343.273 261.851 344.365 262.615 345.452L263.024 345.165L263.433 344.877C262.67 343.792 261.911 342.702 261.155 341.609L260.744 341.894ZM265.33 348.418L264.924 348.708C265.697 349.79 266.474 350.867 267.254 351.94L267.658 351.646L268.063 351.352C267.284 350.281 266.509 349.206 265.737 348.127L265.33 348.418ZM270.008 354.848L269.606 355.145C270.399 356.216 271.195 357.281 271.994 358.342L272.394 358.041L272.793 357.74C271.995 356.682 271.201 355.618 270.41 354.55L270.008 354.848ZM274.809 361.217L274.413 361.522C275.223 362.577 276.036 363.627 276.853 364.672L277.247 364.364L277.641 364.056C276.826 363.013 276.014 361.966 275.206 360.913L274.809 361.217ZM279.707 367.481L279.316 367.792C280.146 368.833 280.979 369.869 281.816 370.899L282.204 370.584L282.592 370.269C281.757 369.241 280.926 368.208 280.098 367.169L279.707 367.481ZM284.737 373.671L284.352 373.99C285.201 375.015 286.054 376.034 286.911 377.047L287.293 376.724L287.674 376.401C286.82 375.391 285.969 374.374 285.122 373.352L284.737 373.671ZM289.87 379.742L289.492 380.069C290.362 381.076 291.235 382.078 292.112 383.073L292.487 382.742L292.863 382.412C291.988 381.419 291.116 380.42 290.249 379.415L289.87 379.742ZM295.146 385.726L294.774 386.06C295.665 387.049 296.56 388.032 297.459 389.008L297.827 388.669L298.195 388.331C297.298 387.357 296.406 386.377 295.517 385.391L295.146 385.726ZM300.53 391.572L300.167 391.915C301.08 392.884 301.997 393.846 302.917 394.801L303.277 394.454L303.637 394.107C302.719 393.155 301.805 392.196 300.894 391.229L300.53 391.572ZM306.069 397.315L305.713 397.666C306.649 398.614 307.589 399.554 308.532 400.486L308.884 400.13L309.235 399.775C308.294 398.845 307.358 397.908 306.425 396.964L306.069 397.315ZM311.721 402.899L311.374 403.259C312.335 404.184 313.299 405.101 314.267 406.009L314.609 405.645L314.951 405.28C313.986 404.375 313.025 403.461 312.068 402.539L311.721 402.899ZM317.542 408.36L317.204 408.729C318.187 409.627 319.174 410.517 320.165 411.397L320.498 411.024L320.83 410.65C319.842 409.772 318.859 408.886 317.879 407.991L317.542 408.36ZM323.477 413.634L323.15 414.012C324.162 414.886 325.177 415.75 326.196 416.604L326.517 416.221L326.838 415.838C325.823 414.986 324.811 414.126 323.804 413.256L323.477 413.634ZM329.597 418.764L329.282 419.152C330.314 419.991 331.351 420.821 332.392 421.641L332.701 421.248L333.011 420.855C331.974 420.039 330.941 419.212 329.913 418.376L329.597 418.764ZM335.83 423.672L335.527 424.069C336.592 424.882 337.662 425.683 338.735 426.474L339.032 426.071L339.328 425.669C338.259 424.881 337.194 424.083 336.133 423.274L335.83 423.672ZM342.265 428.41L341.975 428.817C343.059 429.587 344.147 430.347 345.239 431.094L345.522 430.682L345.804 430.269C344.717 429.525 343.633 428.769 342.554 428.002L342.265 428.41ZM348.813 432.892L348.538 433.31C349.657 434.047 350.78 434.772 351.908 435.485L352.175 435.063L352.442 434.64C351.32 433.93 350.202 433.209 349.088 432.475L348.813 432.892ZM355.562 437.16L355.303 437.588C356.439 438.276 357.579 438.952 358.724 439.616L358.975 439.183L359.226 438.751C358.087 438.091 356.952 437.418 355.822 436.733L355.562 437.16ZM362.438 441.145L362.196 441.582C363.366 442.23 364.54 442.864 365.719 443.484L365.952 443.042L366.185 442.599C365.012 441.982 363.844 441.351 362.68 440.707L362.438 441.145ZM369.492 444.857L369.268 445.305C370.456 445.898 371.647 446.477 372.843 447.043L373.057 446.591L373.271 446.139C372.081 445.576 370.896 445 369.715 444.41L369.492 444.857ZM376.685 448.257L376.481 448.713C377.7 449.257 378.923 449.785 380.151 450.299L380.344 449.837L380.537 449.376C379.316 448.866 378.1 448.34 376.888 447.8L376.685 448.257ZM384.028 451.329L383.846 451.795C385.085 452.279 386.328 452.749 387.575 453.203L387.747 452.733L387.918 452.263C386.678 451.812 385.442 451.345 384.21 450.863L384.028 451.329ZM391.509 454.051L391.35 454.525C392.612 454.95 393.879 455.359 395.15 455.751L395.298 455.274L395.445 454.796C394.182 454.406 392.923 453.999 391.669 453.577L391.509 454.051ZM399.112 456.4L398.976 456.881C400.257 457.242 401.543 457.586 402.832 457.913L402.955 457.428L403.078 456.944C401.797 456.619 400.52 456.277 399.247 455.918L399.112 456.4ZM406.825 458.357L406.715 458.845C408.013 459.139 409.316 459.416 410.623 459.675L410.721 459.185L410.818 458.694C409.52 458.437 408.225 458.162 406.936 457.87L406.825 458.357ZM414.637 459.908L414.552 460.401C415.86 460.625 417.172 460.831 418.488 461.019L418.559 460.524L418.63 460.029C417.323 459.842 416.02 459.637 414.721 459.415L414.637 459.908ZM422.506 461.035L422.449 461.532C423.773 461.685 425.102 461.821 426.434 461.938L426.478 461.44L426.522 460.942C425.198 460.825 423.879 460.691 422.564 460.539L422.506 461.035ZM430.438 461.734L430.407 462.233C431.729 462.313 433.055 462.375 434.385 462.42L434.401 461.92L434.418 461.42C433.097 461.376 431.781 461.315 430.468 461.235L430.438 461.734ZM438.388 461.998L438.386 462.498C439.722 462.505 441.063 462.495 442.407 462.466L442.397 461.966L442.386 461.466C441.05 461.495 439.719 461.505 438.391 461.498L438.388 461.998ZM446.338 461.827L446.362 462.327C447.684 462.263 449.01 462.181 450.339 462.08L450.301 461.582L450.264 461.083C448.943 461.183 447.627 461.264 446.314 461.328L446.338 461.827ZM454.288 461.228L454.338 461.725C455.661 461.589 456.988 461.436 458.318 461.264L458.254 460.768L458.19 460.273C456.869 460.443 455.551 460.596 454.237 460.73L454.288 461.228ZM462.155 460.214L462.232 460.708C463.54 460.505 464.852 460.284 466.167 460.045L466.078 459.553L465.988 459.061C464.682 459.298 463.378 459.518 462.079 459.72L462.155 460.214ZM470.02 458.786L470.122 459.275C470.783 459.138 471.445 458.996 472.108 458.849L472 458.361L471.892 457.873C471.233 458.019 470.576 458.16 469.919 458.296L470.02 458.786Z" fill="white"/>
<rect x="45" y="53" width="31" height="31" rx="4" fill="#5A7E83"/>
<path d="M67.2222 77V75.1112C67.2222 74.1092 66.8242 73.1483 66.1157 72.4399C65.4073 71.7314 64.4464 71.3334 63.4444 71.3334H57.7778C56.7758 71.3334 55.815 71.7314 55.1065 72.4399C54.398 73.1483 54 74.1092 54 75.1112V77" stroke="white" stroke-width="1.5" stroke-linecap="round" stroke-linejoin="round"/>
<path d="M60.6118 67.5556C62.6982 67.5556 64.3895 65.8642 64.3895 63.7778C64.3895 61.6914 62.6982 60 60.6118 60C58.5254 60 56.834 61.6914 56.834 63.7778C56.834 65.8642 58.5254 67.5556 60.6118 67.5556Z" stroke="white" stroke-width="1.5" stroke-linecap="round" stroke-linejoin="round"/>
</svg>
