<svg width="706" height="540" viewBox="0 0 706 540" fill="none" xmlns="http://www.w3.org/2000/svg">
<path d="M251.256 278.588H109.78C106.036 278.588 103 281.623 103 285.368V376.22C103 379.964 106.036 383 109.78 383H251.256C255.001 383 258.036 379.964 258.036 376.22V285.368C258.036 281.623 255.001 278.588 251.256 278.588Z" fill="white" fill-opacity="0.8"/>
<path d="M127.747 356.444C128.981 356.698 130 357.256 130.803 358.118C131.626 358.98 132.037 360.136 132.037 361.585C132.037 362.721 131.723 363.73 131.097 364.611C130.49 365.473 129.589 366.149 128.394 366.638C127.219 367.108 125.799 367.343 124.134 367.343C122.469 367.343 121.039 367.108 119.844 366.638C118.669 366.149 117.768 365.473 117.141 364.611C116.534 363.73 116.23 362.721 116.23 361.585C116.23 360.155 116.632 359.009 117.435 358.148C118.238 357.286 119.266 356.718 120.52 356.444C119.462 356.15 118.581 355.611 117.876 354.828C117.171 354.044 116.818 353.045 116.818 351.831C116.818 350.754 117.102 349.804 117.67 348.981C118.258 348.158 119.1 347.522 120.197 347.071C121.313 346.621 122.625 346.396 124.134 346.396C125.642 346.396 126.944 346.621 128.041 347.071C129.158 347.522 130 348.158 130.568 348.981C131.155 349.804 131.449 350.754 131.449 351.831C131.449 352.967 131.087 353.956 130.362 354.798C129.657 355.621 128.785 356.169 127.747 356.444ZM124.134 349.392C123.193 349.392 122.43 349.637 121.842 350.127C121.254 350.616 120.961 351.253 120.961 352.037C120.961 352.84 121.254 353.496 121.842 354.005C122.43 354.495 123.193 354.739 124.134 354.739C125.054 354.739 125.808 354.485 126.396 353.976C127.003 353.466 127.307 352.82 127.307 352.037C127.307 351.253 127.003 350.616 126.396 350.127C125.808 349.637 125.054 349.392 124.134 349.392ZM124.134 364.376C125.172 364.376 126.043 364.092 126.748 363.524C127.454 362.936 127.806 362.202 127.806 361.321C127.806 360.42 127.454 359.675 126.748 359.088C126.043 358.481 125.172 358.177 124.134 358.177C123.076 358.177 122.195 358.481 121.489 359.088C120.784 359.675 120.432 360.42 120.432 361.321C120.432 362.202 120.784 362.936 121.489 363.524C122.195 364.092 123.076 364.376 124.134 364.376Z" fill="#1B2C1F"/>
<path d="M116.188 292.283H117.446V302.408H116.188V292.283ZM122.851 294.945C123.747 294.945 124.466 295.215 125.006 295.755C125.555 296.295 125.829 297.143 125.829 298.3V302.408H124.644V298.373C124.644 297.611 124.47 297.032 124.122 296.637C123.785 296.232 123.294 296.029 122.648 296.029C121.954 296.029 121.409 296.27 121.014 296.753C120.618 297.235 120.421 297.89 120.421 298.72V302.408H119.234V295.031H120.262L120.421 296.029C120.98 295.306 121.79 294.945 122.851 294.945ZM127.833 296.116H126.503V295.031H127.833V292.963H129.02V295.031H130.885V296.116H129.02V300.47C129.02 300.778 129.077 301 129.193 301.135C129.318 301.26 129.53 301.323 129.829 301.323H131.117V302.408H129.758C129.064 302.408 128.567 302.254 128.268 301.945C127.979 301.637 127.833 301.15 127.833 300.484V296.116ZM131.517 298.72C131.517 297.968 131.662 297.307 131.951 296.738C132.25 296.169 132.665 295.73 133.195 295.422C133.725 295.104 134.333 294.945 135.018 294.945C135.693 294.945 136.29 295.084 136.811 295.364C137.332 295.644 137.741 296.049 138.04 296.579C138.338 297.109 138.499 297.731 138.518 298.445C138.518 298.551 138.508 298.72 138.489 298.951H132.76V299.052C132.779 299.776 133.001 300.354 133.426 300.788C133.85 301.222 134.405 301.439 135.09 301.439C135.62 301.439 136.069 301.309 136.435 301.048C136.811 300.778 137.062 300.407 137.187 299.935H138.387C138.242 300.687 137.881 301.304 137.303 301.786C136.724 302.258 136.015 302.495 135.176 302.495C134.443 302.495 133.803 302.34 133.253 302.032C132.703 301.714 132.273 301.27 131.965 300.701C131.666 300.123 131.517 299.462 131.517 298.72ZM137.288 297.968C137.231 297.341 136.993 296.854 136.579 296.507C136.174 296.16 135.659 295.986 135.032 295.986C134.473 295.986 133.981 296.169 133.557 296.536C133.132 296.902 132.891 297.379 132.833 297.968H137.288ZM143.617 295.031V296.188H143.023C142.319 296.188 141.814 296.425 141.506 296.897C141.207 297.37 141.057 297.953 141.057 298.647V302.408H139.87V295.031H140.898L141.057 296.145C141.269 295.808 141.544 295.538 141.882 295.335C142.219 295.133 142.687 295.031 143.285 295.031H143.617ZM144.035 295.031H145.308L147.535 301.063L149.748 295.031H150.992L148.23 302.408H146.798L144.035 295.031ZM152.471 292.182C152.692 292.182 152.876 292.254 153.02 292.399C153.165 292.544 153.236 292.727 153.236 292.949C153.236 293.17 153.165 293.353 153.02 293.498C152.876 293.643 152.692 293.715 152.471 293.715C152.249 293.715 152.066 293.643 151.921 293.498C151.776 293.353 151.704 293.17 151.704 292.949C151.704 292.727 151.776 292.544 151.921 292.399C152.066 292.254 152.249 292.182 152.471 292.182ZM151.877 295.031H153.063V302.408H151.877V295.031ZM154.428 298.72C154.428 297.968 154.572 297.307 154.861 296.738C155.16 296.169 155.575 295.73 156.106 295.422C156.636 295.104 157.244 294.945 157.928 294.945C158.603 294.945 159.201 295.084 159.722 295.364C160.243 295.644 160.652 296.049 160.951 296.579C161.25 297.109 161.409 297.731 161.429 298.445C161.429 298.551 161.418 298.72 161.399 298.951H155.671V299.052C155.69 299.776 155.913 300.354 156.337 300.788C156.762 301.222 157.316 301.439 158.001 301.439C158.531 301.439 158.979 301.309 159.346 301.048C159.722 300.778 159.972 300.407 160.097 299.935H161.298C161.154 300.687 160.792 301.304 160.214 301.786C159.635 302.258 158.926 302.495 158.087 302.495C157.355 302.495 156.712 302.34 156.163 302.032C155.613 301.714 155.185 301.27 154.876 300.701C154.577 300.123 154.428 299.462 154.428 298.72ZM160.199 297.968C160.141 297.341 159.905 296.854 159.49 296.507C159.085 296.16 158.569 295.986 157.942 295.986C157.382 295.986 156.892 296.169 156.467 296.536C156.043 296.902 155.802 297.379 155.744 297.968H160.199ZM161.876 295.031H163.119L164.956 301.034L166.895 295.031H167.994L169.83 301.034L171.755 295.031H172.955L170.495 302.408H169.195L167.416 296.926L165.563 302.408L164.261 302.422L161.876 295.031ZM173.412 298.72C173.412 297.968 173.557 297.307 173.846 296.738C174.145 296.169 174.558 295.73 175.089 295.422C175.619 295.104 176.228 294.945 176.912 294.945C177.587 294.945 178.184 295.084 178.705 295.364C179.226 295.644 179.635 296.049 179.934 296.579C180.233 297.109 180.392 297.731 180.412 298.445C180.412 298.551 180.402 298.72 180.383 298.951H174.656V299.052C174.675 299.776 174.897 300.354 175.321 300.788C175.746 301.222 176.3 301.439 176.985 301.439C177.515 301.439 177.963 301.309 178.33 301.048C178.706 300.778 178.956 300.407 179.081 299.935H180.282C180.138 300.687 179.775 301.304 179.197 301.786C178.618 302.258 177.91 302.495 177.071 302.495C176.339 302.495 175.697 302.34 175.148 302.032C174.598 301.714 174.169 301.27 173.86 300.701C173.561 300.123 173.412 299.462 173.412 298.72ZM179.183 297.968C179.125 297.341 178.888 296.854 178.473 296.507C178.068 296.16 177.553 295.986 176.926 295.986C176.366 295.986 175.876 296.169 175.451 296.536C175.027 296.902 174.785 297.379 174.727 297.968H179.183ZM188.766 292.283V302.408H187.74L187.58 301.222C186.962 302.07 186.12 302.495 185.049 302.495C184.365 302.495 183.752 302.345 183.212 302.046C182.682 301.747 182.263 301.314 181.954 300.745C181.655 300.176 181.506 299.501 181.506 298.72C181.506 297.977 181.655 297.321 181.954 296.753C182.263 296.184 182.687 295.74 183.227 295.422C183.767 295.104 184.374 294.945 185.049 294.945C185.647 294.945 186.158 295.055 186.583 295.277C187.007 295.489 187.338 295.783 187.58 296.16V292.283H188.766ZM185.165 301.439C185.638 301.439 186.057 301.328 186.423 301.106C186.799 300.875 187.089 300.557 187.291 300.152C187.494 299.737 187.594 299.269 187.594 298.749C187.594 298.218 187.494 297.746 187.291 297.331C187.089 296.907 186.799 296.579 186.423 296.348C186.057 296.116 185.638 296 185.165 296C184.432 296 183.839 296.256 183.386 296.767C182.942 297.268 182.721 297.919 182.721 298.72C182.721 299.52 182.942 300.176 183.386 300.687C183.839 301.188 184.432 301.439 185.165 301.439Z" fill="#1B2C1F"/>
<path d="M251.256 157H109.78C106.036 157 103 160.036 103 163.78V254.632C103 258.376 106.036 261.412 109.78 261.412H251.256C255.001 261.412 258.036 258.376 258.036 254.632V163.78C258.036 160.036 255.001 157 251.256 157Z" fill="white" fill-opacity="0.8"/>
<path d="M124.223 225.015V245.581H119.992V232.448C119.737 232.546 119.365 232.595 118.876 232.595H115.438V229.099H118.522C119.031 229.099 119.414 228.903 119.669 228.511C119.943 228.1 120.079 227.6 120.079 227.013V225.015H124.223ZM135.919 231.567C137.212 231.567 138.377 231.87 139.415 232.478C140.473 233.065 141.296 233.898 141.883 234.975C142.49 236.033 142.794 237.247 142.794 238.618C142.794 240.146 142.442 241.448 141.736 242.525C141.051 243.583 140.121 244.386 138.945 244.935C137.77 245.483 136.458 245.757 135.008 245.757C133.461 245.757 132.1 245.463 130.925 244.876C129.749 244.269 128.839 243.456 128.192 242.437C127.546 241.399 127.193 240.244 127.135 238.971H131.337C131.454 239.93 131.845 240.724 132.511 241.35C133.197 241.977 134.029 242.29 135.008 242.29C135.968 242.29 136.792 241.977 137.477 241.35C138.182 240.704 138.535 239.793 138.535 238.618C138.535 237.541 138.211 236.659 137.564 235.974C136.918 235.269 136.066 234.916 135.008 234.916C134.303 234.916 133.618 235.083 132.952 235.416C132.286 235.729 131.816 236.277 131.542 237.061H127.458L128.046 225.015H141.531V228.57H131.895L131.66 233.153C132.777 232.096 134.196 231.567 135.919 231.567ZM146.488 242.525C145.88 241.644 145.409 240.606 145.076 239.411C144.763 238.216 144.606 236.914 144.606 235.504C144.606 233.251 144.949 231.322 145.635 229.716C146.32 228.11 147.3 226.895 148.574 226.073C149.847 225.23 151.344 224.809 153.068 224.809C155.026 224.809 156.681 225.348 158.033 226.425C159.384 227.503 160.178 228.962 160.413 230.803H156.242C156.046 229.98 155.643 229.344 155.036 228.893C154.429 228.443 153.665 228.217 152.744 228.217C151.413 228.217 150.385 228.736 149.661 229.775C148.955 230.793 148.602 232.252 148.602 234.152V234.652L148.867 234.211C149.357 233.467 150.022 232.879 150.864 232.448C151.726 232.017 152.676 231.802 153.714 231.802C155.085 231.802 156.291 232.096 157.329 232.683C158.386 233.271 159.208 234.093 159.796 235.151C160.383 236.189 160.678 237.394 160.678 238.765C160.678 240.156 160.355 241.38 159.709 242.437C159.082 243.495 158.181 244.318 157.006 244.905C155.85 245.473 154.518 245.757 153.01 245.757C151.6 245.757 150.335 245.483 149.219 244.935C148.122 244.367 147.212 243.564 146.488 242.525ZM156.476 238.765C156.476 237.688 156.162 236.806 155.536 236.121C154.909 235.435 154.076 235.092 153.038 235.092C152 235.092 151.148 235.435 150.482 236.121C149.836 236.806 149.514 237.688 149.514 238.765C149.514 239.842 149.827 240.724 150.454 241.409C151.1 242.095 151.941 242.437 152.98 242.437C154.018 242.437 154.86 242.095 155.506 241.409C156.153 240.704 156.476 239.823 156.476 238.765Z" fill="#1B2C1F"/>
<path d="M115.566 170.695H123.391V171.852H120.107V180.82H118.849V171.852H115.566V170.695ZM126.659 180.907C125.946 180.907 125.309 180.748 124.75 180.429C124.2 180.111 123.771 179.668 123.463 179.099C123.154 178.53 123 177.874 123 177.132C123 176.389 123.154 175.733 123.463 175.165C123.771 174.596 124.2 174.152 124.75 173.834C125.309 173.516 125.946 173.357 126.659 173.357C127.373 173.357 128.004 173.516 128.554 173.834C129.113 174.152 129.547 174.596 129.856 175.165C130.164 175.733 130.319 176.389 130.319 177.132C130.319 177.874 130.164 178.53 129.856 179.099C129.547 179.668 129.113 180.111 128.554 180.429C128.004 180.748 127.373 180.907 126.659 180.907ZM126.659 179.851C127.141 179.851 127.566 179.735 127.932 179.504C128.308 179.272 128.597 178.949 128.8 178.535C129.002 178.12 129.104 177.652 129.104 177.132C129.104 176.611 129.002 176.143 128.8 175.729C128.597 175.314 128.308 174.991 127.932 174.76C127.566 174.528 127.141 174.412 126.659 174.412C126.177 174.412 125.748 174.528 125.372 174.76C125.006 174.991 124.721 175.314 124.519 175.729C124.316 176.143 124.215 176.611 124.215 177.132C124.215 177.652 124.316 178.12 124.519 178.535C124.721 178.949 125.006 179.272 125.372 179.504C125.748 179.735 126.177 179.851 126.659 179.851ZM132.086 174.528H130.755V173.443H132.086V171.375H133.272V173.443H135.138V174.528H133.272V178.882C133.272 179.19 133.33 179.412 133.445 179.547C133.571 179.672 133.783 179.735 134.082 179.735H135.369V180.82H134.009C133.315 180.82 132.819 180.666 132.52 180.357C132.23 180.049 132.086 179.562 132.086 178.896V174.528ZM142.999 179.735V180.82H142.348C141.876 180.82 141.538 180.724 141.336 180.531C141.133 180.338 141.027 180.053 141.018 179.677C140.449 180.497 139.624 180.907 138.544 180.907C137.725 180.907 137.064 180.714 136.563 180.328C136.071 179.942 135.825 179.417 135.825 178.752C135.825 178.009 136.076 177.44 136.577 177.045C137.088 176.65 137.826 176.452 138.79 176.452H140.96V175.946C140.96 175.463 140.796 175.087 140.468 174.817C140.15 174.547 139.701 174.412 139.123 174.412C138.612 174.412 138.188 174.528 137.85 174.76C137.522 174.981 137.32 175.28 137.243 175.656H136.056C136.143 174.933 136.461 174.369 137.011 173.964C137.57 173.559 138.294 173.357 139.181 173.357C140.126 173.357 140.854 173.588 141.365 174.051C141.885 174.504 142.146 175.16 142.146 176.018V179.2C142.146 179.557 142.31 179.735 142.638 179.735H142.999ZM140.96 177.45H138.674C137.575 177.45 137.026 177.86 137.026 178.679C137.026 179.046 137.17 179.34 137.459 179.562C137.749 179.783 138.139 179.894 138.631 179.894C139.354 179.894 139.923 179.706 140.338 179.33C140.752 178.944 140.96 178.438 140.96 177.811V177.45ZM143.911 170.695H145.097V180.82H143.911V170.695Z" fill="#1B2C1F"/>
<path d="M423.408 157H281.932C278.188 157 275.152 160.036 275.152 163.78V254.632C275.152 258.376 278.188 261.412 281.932 261.412H423.408C427.153 261.412 430.188 258.376 430.188 254.632V163.78C430.188 160.036 427.153 157 423.408 157Z" fill="white" fill-opacity="0.8"/>
<path d="M296.433 225.015V245.581H292.202V232.448C291.947 232.546 291.575 232.595 291.086 232.595H287.648V229.099H290.733C291.242 229.099 291.624 228.903 291.879 228.511C292.153 228.1 292.29 227.6 292.29 227.013V225.015H296.433ZM306.955 235.856C307.954 235.053 308.688 234.319 309.158 233.653C309.628 232.987 309.864 232.262 309.864 231.479C309.864 230.48 309.56 229.716 308.953 229.187C308.365 228.639 307.572 228.364 306.573 228.364C305.613 228.364 304.83 228.688 304.223 229.334C303.635 229.98 303.341 230.852 303.341 231.949V232.272H299.081V231.714C299.081 230.421 299.385 229.246 299.992 228.188C300.619 227.13 301.5 226.308 302.636 225.72C303.772 225.113 305.084 224.809 306.573 224.809C308.982 224.809 310.843 225.397 312.155 226.572C313.487 227.747 314.153 229.324 314.153 231.302C314.153 232.713 313.8 233.937 313.095 234.975C312.41 235.993 311.342 237.09 309.893 238.265L305.28 242.026H314.241V245.581H299.169V242.32L306.955 235.856Z" fill="#1B2C1F"/>
<path d="M288.227 180.752V170.627H289.384L294.822 178.437V170.627H296.052V180.752H294.895L289.456 172.941V180.752H288.227ZM297.581 177.063C297.581 176.311 297.726 175.651 298.015 175.082C298.314 174.513 298.729 174.074 299.259 173.765C299.79 173.447 300.397 173.288 301.082 173.288C301.757 173.288 302.355 173.428 302.875 173.708C303.396 173.987 303.806 174.392 304.105 174.923C304.404 175.453 304.563 176.075 304.582 176.788C304.582 176.894 304.572 177.063 304.553 177.295H298.825V177.396C298.845 178.119 299.066 178.698 299.491 179.132C299.915 179.565 300.469 179.782 301.154 179.782C301.684 179.782 302.133 179.652 302.499 179.392C302.875 179.122 303.126 178.751 303.251 178.278H304.452C304.307 179.03 303.946 179.647 303.367 180.13C302.788 180.602 302.08 180.838 301.241 180.838C300.508 180.838 299.867 180.684 299.317 180.375C298.767 180.057 298.338 179.614 298.03 179.045C297.731 178.466 297.581 177.806 297.581 177.063ZM303.353 176.311C303.295 175.684 303.058 175.197 302.644 174.85C302.239 174.503 301.723 174.33 301.096 174.33C300.537 174.33 300.045 174.513 299.621 174.879C299.197 175.246 298.956 175.723 298.898 176.311H303.353ZM305.029 173.375H306.273L308.11 179.377L310.048 173.375H311.148L312.984 179.377L314.908 173.375H316.109L313.65 180.752H312.348L310.569 175.27L308.718 180.752L307.416 180.766L305.029 173.375ZM320.375 170.627H328.2V171.784H324.916V180.752H323.658V171.784H320.375V170.627ZM331.468 180.838C330.755 180.838 330.118 180.679 329.559 180.361C329.009 180.043 328.58 179.599 328.272 179.03C327.963 178.461 327.809 177.806 327.809 177.063C327.809 176.321 327.963 175.665 328.272 175.096C328.58 174.527 329.009 174.084 329.559 173.765C330.118 173.447 330.755 173.288 331.468 173.288C332.182 173.288 332.814 173.447 333.363 173.765C333.922 174.084 334.356 174.527 334.665 175.096C334.973 175.665 335.128 176.321 335.128 177.063C335.128 177.806 334.973 178.461 334.665 179.03C334.356 179.599 333.922 180.043 333.363 180.361C332.814 180.679 332.182 180.838 331.468 180.838ZM331.468 179.782C331.95 179.782 332.375 179.667 332.741 179.435C333.117 179.204 333.407 178.881 333.609 178.466C333.812 178.052 333.913 177.584 333.913 177.063C333.913 176.542 333.812 176.075 333.609 175.66C333.407 175.246 333.117 174.923 332.741 174.691C332.375 174.46 331.95 174.344 331.468 174.344C330.986 174.344 330.557 174.46 330.181 174.691C329.815 174.923 329.53 175.246 329.328 175.66C329.125 176.075 329.024 176.542 329.024 177.063C329.024 177.584 329.125 178.052 329.328 178.466C329.53 178.881 329.815 179.204 330.181 179.435C330.557 179.667 330.986 179.782 331.468 179.782ZM343.488 170.627V180.752H342.461L342.302 179.565C341.685 180.414 340.841 180.838 339.771 180.838C339.087 180.838 338.474 180.689 337.934 180.39C337.404 180.091 336.984 179.657 336.676 179.088C336.377 178.519 336.227 177.844 336.227 177.063C336.227 176.321 336.377 175.665 336.676 175.096C336.984 174.527 337.409 174.084 337.949 173.765C338.489 173.447 339.096 173.288 339.771 173.288C340.369 173.288 340.88 173.399 341.304 173.621C341.729 173.833 342.061 174.127 342.302 174.503V170.627H343.488ZM339.887 179.782C340.359 179.782 340.779 179.672 341.145 179.45C341.521 179.218 341.811 178.9 342.013 178.495C342.216 178.08 342.317 177.613 342.317 177.092C342.317 176.562 342.216 176.089 342.013 175.675C341.811 175.25 341.521 174.923 341.145 174.691C340.779 174.46 340.359 174.344 339.887 174.344C339.154 174.344 338.561 174.599 338.108 175.111C337.664 175.612 337.442 176.263 337.442 177.063C337.442 177.864 337.664 178.519 338.108 179.03C338.561 179.532 339.154 179.782 339.887 179.782ZM352.003 179.667V180.752H351.353C350.88 180.752 350.543 180.655 350.34 180.462C350.138 180.269 350.031 179.985 350.022 179.609C349.453 180.428 348.628 180.838 347.548 180.838C346.729 180.838 346.068 180.645 345.567 180.26C345.075 179.874 344.829 179.349 344.829 178.683C344.829 177.941 345.08 177.372 345.581 176.976C346.092 176.581 346.83 176.383 347.794 176.383H349.964V175.877C349.964 175.395 349.8 175.019 349.472 174.749C349.154 174.479 348.706 174.344 348.127 174.344C347.616 174.344 347.192 174.46 346.854 174.691C346.526 174.913 346.324 175.212 346.247 175.588H345.061C345.147 174.865 345.466 174.301 346.015 173.896C346.575 173.491 347.298 173.288 348.185 173.288C349.13 173.288 349.858 173.52 350.369 173.982C350.89 174.436 351.15 175.091 351.15 175.949V179.132C351.15 179.488 351.314 179.667 351.642 179.667H352.003ZM349.964 177.381H347.679C346.579 177.381 346.03 177.791 346.03 178.611C346.03 178.977 346.174 179.271 346.464 179.493C346.753 179.715 347.143 179.826 347.635 179.826C348.358 179.826 348.927 179.638 349.342 179.262C349.757 178.876 349.964 178.37 349.964 177.743V177.381ZM353.224 173.375L355.495 179.392L357.693 173.375H358.952L355.553 181.995C355.379 182.439 355.225 182.772 355.09 182.993C354.955 183.215 354.786 183.379 354.584 183.485C354.381 183.591 354.111 183.644 353.774 183.644H352.356V182.56H353.412C353.643 182.56 353.817 182.535 353.933 182.487C354.048 182.439 354.14 182.357 354.208 182.241C354.285 182.135 354.376 181.952 354.482 181.692L354.858 180.809L351.966 173.375H353.224Z" fill="#1B2C1F"/>
<path d="M595.678 157H454.202C450.457 157 447.422 160.036 447.422 163.78V254.632C447.422 258.376 450.457 261.412 454.202 261.412H595.678C599.422 261.412 602.458 258.376 602.458 254.632V163.78C602.458 160.036 599.422 157 595.678 157Z" fill="white" fill-opacity="0.8"/>
<path d="M468.322 235.856C469.321 235.053 470.056 234.319 470.526 233.653C470.996 232.987 471.231 232.262 471.231 231.479C471.231 230.48 470.928 229.716 470.32 229.187C469.733 228.639 468.939 228.364 467.941 228.364C466.981 228.364 466.197 228.688 465.59 229.334C465.003 229.98 464.709 230.852 464.709 231.949V232.272H460.449V231.714C460.449 230.421 460.752 229.246 461.359 228.188C461.986 227.13 462.868 226.308 464.004 225.72C465.14 225.113 466.452 224.809 467.941 224.809C470.35 224.809 472.21 225.397 473.523 226.572C474.855 227.747 475.521 229.324 475.521 231.302C475.521 232.713 475.168 233.937 474.463 234.975C473.777 235.993 472.71 237.09 471.26 238.265L466.648 242.026H475.609V245.581H460.537V242.32L468.322 235.856ZM489.042 234.857C490.276 235.112 491.294 235.67 492.097 236.532C492.92 237.394 493.331 238.549 493.331 239.999C493.331 241.135 493.018 242.144 492.391 243.025C491.784 243.887 490.883 244.563 489.688 245.052C488.513 245.522 487.093 245.757 485.428 245.757C483.763 245.757 482.333 245.522 481.139 245.052C479.963 244.563 479.062 243.887 478.436 243.025C477.828 242.144 477.525 241.135 477.525 239.999C477.525 238.569 477.926 237.423 478.729 236.561C479.532 235.7 480.561 235.132 481.814 234.857C480.757 234.564 479.875 234.025 479.17 233.241C478.465 232.458 478.112 231.459 478.112 230.245C478.112 229.167 478.396 228.217 478.964 227.395C479.552 226.572 480.394 225.936 481.491 225.485C482.608 225.035 483.92 224.809 485.428 224.809C486.936 224.809 488.239 225.035 489.336 225.485C490.452 225.936 491.294 226.572 491.862 227.395C492.45 228.217 492.744 229.167 492.744 230.245C492.744 231.381 492.381 232.37 491.657 233.212C490.952 234.035 490.08 234.583 489.042 234.857ZM485.428 227.806C484.488 227.806 483.724 228.051 483.136 228.541C482.549 229.03 482.255 229.667 482.255 230.45C482.255 231.253 482.549 231.91 483.136 232.419C483.724 232.908 484.488 233.153 485.428 233.153C486.349 233.153 487.103 232.899 487.69 232.389C488.298 231.88 488.601 231.234 488.601 230.45C488.601 229.667 488.298 229.03 487.69 228.541C487.103 228.051 486.349 227.806 485.428 227.806ZM485.428 242.79C486.466 242.79 487.338 242.506 488.043 241.938C488.748 241.35 489.101 240.616 489.101 239.734C489.101 238.833 488.748 238.089 488.043 237.502C487.338 236.894 486.466 236.591 485.428 236.591C484.37 236.591 483.489 236.894 482.784 237.502C482.079 238.089 481.726 238.833 481.726 239.734C481.726 240.616 482.079 241.35 482.784 241.938C483.489 242.506 484.37 242.79 485.428 242.79Z" fill="#1B2C1F"/>
<path d="M460.746 170.625H462.005V180.75H460.746V170.625ZM467.409 173.286C468.306 173.286 469.024 173.556 469.564 174.096C470.114 174.636 470.389 175.485 470.389 176.642V180.75H469.203V176.714C469.203 175.952 469.029 175.374 468.682 174.978C468.345 174.573 467.853 174.371 467.207 174.371C466.512 174.371 465.968 174.612 465.572 175.094C465.177 175.576 464.979 176.232 464.979 177.061V180.75H463.793V173.373H464.82L464.979 174.371C465.539 173.648 466.349 173.286 467.409 173.286ZM479.736 170.625C480.402 170.625 480.99 170.755 481.501 171.015C482.012 171.266 482.407 171.628 482.687 172.1C482.967 172.563 483.106 173.108 483.106 173.734C483.106 174.438 482.909 175.051 482.513 175.571C482.128 176.082 481.607 176.43 480.951 176.613L483.222 180.75H481.805L479.707 176.859H477.118V180.75H475.86V170.625H479.736ZM477.118 175.702H479.635C480.3 175.702 480.831 175.523 481.226 175.166C481.622 174.81 481.819 174.332 481.819 173.734C481.819 173.146 481.622 172.674 481.226 172.317C480.831 171.96 480.305 171.782 479.65 171.782H477.118V175.702ZM483.887 177.061C483.887 176.309 484.032 175.649 484.321 175.08C484.62 174.511 485.034 174.072 485.565 173.763C486.095 173.445 486.703 173.286 487.387 173.286C488.062 173.286 488.66 173.426 489.181 173.706C489.702 173.985 490.111 174.39 490.41 174.921C490.709 175.451 490.868 176.073 490.888 176.786C490.888 176.892 490.878 177.061 490.859 177.293H485.131V177.394C485.15 178.117 485.372 178.696 485.796 179.13C486.221 179.563 486.775 179.78 487.46 179.78C487.99 179.78 488.438 179.65 488.805 179.39C489.181 179.12 489.432 178.749 489.557 178.276H490.757C490.613 179.028 490.251 179.645 489.673 180.128C489.094 180.6 488.385 180.836 487.546 180.836C486.814 180.836 486.172 180.682 485.623 180.373C485.073 180.055 484.644 179.612 484.335 179.043C484.036 178.464 483.887 177.804 483.887 177.061ZM489.658 176.309C489.6 175.682 489.364 175.195 488.949 174.848C488.544 174.501 488.029 174.328 487.402 174.328C486.842 174.328 486.351 174.511 485.926 174.877C485.502 175.244 485.261 175.721 485.203 176.309H489.658ZM491.221 173.373H492.494L494.721 179.404L496.934 173.373H498.178L495.415 180.75H493.983L491.221 173.373ZM499.656 170.523C499.878 170.523 500.061 170.596 500.206 170.74C500.351 170.885 500.423 171.068 500.423 171.29C500.423 171.512 500.351 171.695 500.206 171.84C500.061 171.984 499.878 172.057 499.656 172.057C499.435 172.057 499.251 171.984 499.107 171.84C498.962 171.695 498.89 171.512 498.89 171.29C498.89 171.068 498.962 170.885 499.107 170.74C499.251 170.596 499.435 170.523 499.656 170.523ZM499.063 173.373H500.249V180.75H499.063V173.373ZM501.614 177.061C501.614 176.309 501.759 175.649 502.048 175.08C502.347 174.511 502.761 174.072 503.292 173.763C503.822 173.445 504.43 173.286 505.114 173.286C505.789 173.286 506.387 173.426 506.908 173.706C507.428 173.985 507.838 174.39 508.137 174.921C508.436 175.451 508.595 176.073 508.614 176.786C508.614 176.892 508.605 177.061 508.586 177.293H502.858V177.394C502.877 178.117 503.099 178.696 503.523 179.13C503.947 179.563 504.502 179.78 505.186 179.78C505.717 179.78 506.165 179.65 506.532 179.39C506.908 179.12 507.158 178.749 507.284 178.276H508.484C508.34 179.028 507.978 179.645 507.399 180.128C506.821 180.6 506.112 180.836 505.273 180.836C504.54 180.836 503.899 180.682 503.35 180.373C502.8 180.055 502.371 179.612 502.062 179.043C501.763 178.464 501.614 177.804 501.614 177.061ZM507.385 176.309C507.327 175.682 507.091 175.195 506.676 174.848C506.271 174.501 505.755 174.328 505.129 174.328C504.569 174.328 504.078 174.511 503.653 174.877C503.229 175.244 502.988 175.721 502.93 176.309H507.385ZM509.062 173.373H510.306L512.143 179.375L514.081 173.373H515.18L517.017 179.375L518.941 173.373H520.141L517.682 180.75H516.38L514.601 175.268L512.75 180.75L511.448 180.764L509.062 173.373Z" fill="#1B2C1F"/>
<path d="M423.408 278.588H281.932C278.188 278.588 275.152 281.623 275.152 285.368V376.22C275.152 379.964 278.188 383 281.932 383H423.408C427.153 383 430.188 379.964 430.188 376.22V285.368C430.188 281.623 427.153 278.588 423.408 278.588Z" fill="white" fill-opacity="0.8"/>
<path d="M296.058 357.442C297.057 356.639 297.791 355.905 298.261 355.239C298.731 354.573 298.966 353.848 298.966 353.065C298.966 352.066 298.663 351.302 298.056 350.773C297.468 350.225 296.675 349.951 295.676 349.951C294.716 349.951 293.933 350.274 293.326 350.92C292.738 351.566 292.444 352.438 292.444 353.535V353.858H288.184V353.3C288.184 352.007 288.488 350.832 289.095 349.774C289.722 348.717 290.603 347.894 291.739 347.306C292.875 346.699 294.187 346.396 295.676 346.396C298.085 346.396 299.946 346.983 301.258 348.158C302.59 349.334 303.256 350.91 303.256 352.889C303.256 354.299 302.903 355.523 302.198 356.561C301.513 357.58 300.445 358.676 298.996 359.852L294.383 363.612H303.344V367.167H288.272V363.906L296.058 357.442Z" fill="#1B2C1F"/>
<path d="M289.213 299.096C289.261 299.78 289.536 300.33 290.037 300.745C290.539 301.15 291.175 301.352 291.946 301.352C292.641 301.352 293.2 301.203 293.624 300.904C294.058 300.595 294.275 300.171 294.275 299.631C294.275 299.236 294.155 298.922 293.914 298.691C293.682 298.459 293.378 298.291 293.002 298.184C292.636 298.069 292.134 297.958 291.498 297.852C290.486 297.678 289.68 297.394 289.083 296.998C288.485 296.603 288.186 295.962 288.186 295.075C288.186 294.506 288.33 294.004 288.62 293.57C288.909 293.127 289.314 292.785 289.835 292.544C290.365 292.302 290.968 292.182 291.643 292.182C292.356 292.182 292.988 292.312 293.538 292.572C294.087 292.833 294.521 293.199 294.839 293.672C295.157 294.135 295.336 294.67 295.374 295.277H294.131C294.053 294.689 293.788 294.217 293.335 293.86C292.882 293.503 292.318 293.325 291.643 293.325C290.968 293.325 290.433 293.474 290.037 293.773C289.642 294.062 289.444 294.472 289.444 295.002C289.444 295.388 289.56 295.692 289.791 295.914C290.023 296.126 290.322 296.29 290.688 296.405C291.055 296.511 291.556 296.618 292.192 296.724C293.205 296.897 294.015 297.186 294.622 297.591C295.23 297.987 295.534 298.628 295.534 299.515C295.534 300.094 295.379 300.61 295.071 301.063C294.772 301.516 294.347 301.868 293.798 302.119C293.258 302.369 292.636 302.495 291.932 302.495C291.141 302.495 290.452 302.355 289.864 302.075C289.275 301.786 288.817 301.386 288.49 300.875C288.171 300.354 287.998 299.761 287.969 299.096H289.213ZM300.573 294.945C301.47 294.945 302.193 295.215 302.743 295.755C303.292 296.295 303.567 297.143 303.567 298.3V302.408H302.381V298.373C302.381 297.611 302.208 297.032 301.86 296.637C301.513 296.232 301.017 296.029 300.371 296.029C299.686 296.029 299.141 296.27 298.736 296.753C298.341 297.235 298.143 297.89 298.143 298.72V302.408H296.957V292.283H298.143V296.246C298.384 295.861 298.702 295.547 299.098 295.306C299.503 295.065 299.995 294.945 300.573 294.945ZM308.478 302.495C307.764 302.495 307.128 302.336 306.569 302.017C306.019 301.699 305.59 301.256 305.281 300.687C304.973 300.118 304.819 299.462 304.819 298.72C304.819 297.977 304.973 297.321 305.281 296.753C305.59 296.184 306.019 295.74 306.569 295.422C307.128 295.104 307.764 294.945 308.478 294.945C309.192 294.945 309.823 295.104 310.373 295.422C310.932 295.74 311.366 296.184 311.675 296.753C311.983 297.321 312.137 297.977 312.137 298.72C312.137 299.462 311.983 300.118 311.675 300.687C311.366 301.256 310.932 301.699 310.373 302.017C309.823 302.336 309.192 302.495 308.478 302.495ZM308.478 301.439C308.96 301.439 309.384 301.323 309.751 301.092C310.127 300.86 310.416 300.537 310.619 300.123C310.821 299.708 310.922 299.24 310.922 298.72C310.922 298.199 310.821 297.731 310.619 297.317C310.416 296.902 310.127 296.579 309.751 296.348C309.384 296.116 308.96 296 308.478 296C307.996 296 307.567 296.116 307.191 296.348C306.824 296.579 306.54 296.902 306.337 297.317C306.135 297.731 306.034 298.199 306.034 298.72C306.034 299.24 306.135 299.708 306.337 300.123C306.54 300.537 306.824 300.86 307.191 301.092C307.567 301.323 307.996 301.439 308.478 301.439ZM317.244 295.031V296.188H316.651C315.947 296.188 315.44 296.425 315.132 296.897C314.833 297.37 314.684 297.953 314.684 298.647V302.408H313.497V295.031H314.524L314.684 296.145C314.896 295.808 315.17 295.538 315.508 295.335C315.845 295.133 316.313 295.031 316.911 295.031H317.244ZM318.328 292.963H319.514V295.031H321.38V296.116H319.514V300.47C319.514 300.778 319.572 301 319.688 301.135C319.813 301.26 320.025 301.323 320.324 301.323H321.612V302.408H320.252C319.558 302.408 319.061 302.254 318.762 301.945C318.473 301.637 318.328 301.15 318.328 300.484V292.963ZM322.453 292.283H323.639V302.408H322.453V292.283ZM325.857 292.182C326.078 292.182 326.262 292.254 326.406 292.399C326.551 292.544 326.623 292.727 326.623 292.949C326.623 293.17 326.551 293.353 326.406 293.498C326.262 293.643 326.078 293.715 325.857 293.715C325.635 293.715 325.452 293.643 325.307 293.498C325.162 293.353 325.09 293.17 325.09 292.949C325.09 292.727 325.162 292.544 325.307 292.399C325.452 292.254 325.635 292.182 325.857 292.182ZM325.264 295.031H326.45V302.408H325.264V295.031ZM329 299.978C329.019 300.422 329.212 300.783 329.579 301.063C329.955 301.342 330.437 301.482 331.025 301.482C331.546 301.482 331.965 301.381 332.284 301.179C332.611 300.966 332.775 300.692 332.775 300.354C332.775 300.065 332.698 299.843 332.544 299.689C332.39 299.534 332.187 299.428 331.936 299.371C331.695 299.313 331.348 299.255 330.895 299.197C330.259 299.12 329.738 299.019 329.333 298.893C328.928 298.768 328.6 298.57 328.349 298.3C328.099 298.021 327.973 297.64 327.973 297.158C327.973 296.724 328.094 296.338 328.335 296C328.586 295.663 328.923 295.403 329.347 295.219C329.772 295.026 330.249 294.93 330.779 294.93C331.647 294.93 332.351 295.133 332.891 295.538C333.441 295.943 333.744 296.521 333.802 297.273H332.616C332.568 296.888 332.38 296.569 332.052 296.319C331.724 296.068 331.314 295.943 330.823 295.943C330.321 295.943 329.916 296.049 329.608 296.261C329.299 296.463 329.145 296.733 329.145 297.071C329.145 297.321 329.217 297.514 329.362 297.649C329.506 297.784 329.69 297.876 329.911 297.924C330.143 297.972 330.49 298.025 330.953 298.083C331.599 298.16 332.129 298.266 332.544 298.401C332.968 298.536 333.306 298.753 333.556 299.052C333.817 299.351 333.947 299.756 333.947 300.267C333.947 300.711 333.817 301.101 333.556 301.439C333.296 301.776 332.944 302.037 332.5 302.22C332.057 302.403 331.565 302.495 331.025 302.495C330.061 302.495 329.285 302.273 328.696 301.829C328.118 301.386 327.824 300.769 327.814 299.978H329ZM335.784 296.116H334.453V295.031H335.784V292.963H336.97V295.031H338.836V296.116H336.97V300.47C336.97 300.778 337.028 301 337.144 301.135C337.269 301.26 337.481 301.323 337.78 301.323H339.067V302.408H337.708C337.014 302.408 336.517 302.254 336.218 301.945C335.929 301.637 335.784 301.15 335.784 300.484V296.116ZM339.467 298.72C339.467 297.968 339.612 297.307 339.901 296.738C340.2 296.169 340.615 295.73 341.145 295.422C341.675 295.104 342.283 294.945 342.968 294.945C343.643 294.945 344.24 295.084 344.761 295.364C345.282 295.644 345.692 296.049 345.991 296.579C346.289 297.109 346.449 297.731 346.468 298.445C346.468 298.551 346.458 298.72 346.439 298.951H340.711V299.052C340.73 299.776 340.952 300.354 341.377 300.788C341.801 301.222 342.355 301.439 343.04 301.439C343.57 301.439 344.019 301.309 344.385 301.048C344.761 300.778 345.012 300.407 345.137 299.935H346.338C346.193 300.687 345.831 301.304 345.253 301.786C344.674 302.258 343.966 302.495 343.127 302.495C342.394 302.495 341.753 302.34 341.203 302.032C340.653 301.714 340.224 301.27 339.916 300.701C339.617 300.123 339.467 299.462 339.467 298.72ZM345.238 297.968C345.181 297.341 344.944 296.854 344.53 296.507C344.125 296.16 343.609 295.986 342.982 295.986C342.423 295.986 341.931 296.169 341.507 296.536C341.082 296.902 340.841 297.379 340.783 297.968H345.238ZM354.822 292.283V302.408H353.795L353.636 301.222C353.019 302.07 352.175 302.495 351.105 302.495C350.42 302.495 349.808 302.345 349.268 302.046C348.737 301.747 348.318 301.314 348.009 300.745C347.71 300.176 347.561 299.501 347.561 298.72C347.561 297.977 347.71 297.321 348.009 296.753C348.318 296.184 348.742 295.74 349.282 295.422C349.822 295.104 350.43 294.945 351.105 294.945C351.702 294.945 352.213 295.055 352.638 295.277C353.062 295.489 353.395 295.783 353.636 296.16V292.283H354.822ZM351.22 301.439C351.693 301.439 352.112 301.328 352.479 301.106C352.855 300.875 353.144 300.557 353.346 300.152C353.549 299.737 353.65 299.269 353.65 298.749C353.65 298.218 353.549 297.746 353.346 297.331C353.144 296.907 352.855 296.579 352.479 296.348C352.112 296.116 351.693 296 351.22 296C350.487 296 349.894 296.256 349.441 296.767C348.998 297.268 348.776 297.919 348.776 298.72C348.776 299.52 348.998 300.176 349.441 300.687C349.894 301.188 350.487 301.439 351.22 301.439Z" fill="#1B2C1F"/>
<path d="M595.678 278.588H454.202C450.457 278.588 447.422 281.623 447.422 285.368V376.22C447.422 379.964 450.457 383 454.202 383H595.678C599.422 383 602.458 379.964 602.458 376.22V285.368C602.458 281.623 599.422 278.588 595.678 278.588Z" fill="white" fill-opacity="0.8"/>
<path d="M469.496 353.154C470.788 353.154 471.954 353.458 472.992 354.065C474.05 354.652 474.872 355.485 475.46 356.562C476.067 357.62 476.371 358.834 476.371 360.205C476.371 361.733 476.018 363.035 475.313 364.113C474.627 365.17 473.697 365.973 472.522 366.522C471.347 367.07 470.034 367.344 468.585 367.344C467.038 367.344 465.676 367.051 464.501 366.463C463.326 365.856 462.415 365.043 461.769 364.025C461.122 362.986 460.77 361.831 460.711 360.558H464.912C465.03 361.517 465.422 362.311 466.088 362.937C466.773 363.564 467.606 363.878 468.585 363.878C469.545 363.878 470.367 363.564 471.053 362.937C471.758 362.291 472.111 361.38 472.111 360.205C472.111 359.128 471.787 358.246 471.141 357.561C470.495 356.856 469.643 356.503 468.585 356.503C467.88 356.503 467.194 356.67 466.528 357.003C465.862 357.316 465.392 357.865 465.118 358.648H461.034L461.622 346.602H475.107V350.157H465.471L465.236 354.74C466.352 353.683 467.772 353.154 469.496 353.154ZM477.771 359.265L486.85 346.602H492.079V359.236H494.929V362.761H492.079V367.168H487.937V362.761H477.771V359.265ZM481.796 359.236H487.937V350.715L481.796 359.236Z" fill="#1B2C1F"/>
<path d="M464.485 292.283C465.15 292.283 465.738 292.413 466.25 292.674C466.761 292.924 467.156 293.286 467.436 293.758C467.715 294.221 467.855 294.766 467.855 295.393C467.855 296.097 467.657 296.709 467.262 297.23C466.876 297.741 466.356 298.088 465.7 298.271L467.971 302.408H466.553L464.456 298.517H461.867V302.408H460.609V292.283H464.485ZM461.867 297.36H464.384C465.049 297.36 465.579 297.182 465.975 296.825C466.37 296.468 466.568 295.991 466.568 295.393C466.568 294.805 466.37 294.332 465.975 293.975C465.579 293.619 465.054 293.44 464.398 293.44H461.867V297.36ZM468.636 298.72C468.636 297.968 468.78 297.307 469.069 296.738C469.368 296.169 469.783 295.73 470.313 295.422C470.844 295.104 471.451 294.945 472.136 294.945C472.811 294.945 473.409 295.084 473.929 295.364C474.45 295.644 474.86 296.049 475.159 296.579C475.458 297.109 475.617 297.731 475.636 298.445C475.636 298.551 475.626 298.72 475.607 298.951H469.879V299.052C469.899 299.776 470.12 300.354 470.545 300.788C470.969 301.222 471.523 301.439 472.208 301.439C472.738 301.439 473.187 301.309 473.553 301.048C473.929 300.778 474.18 300.407 474.305 299.935H475.506C475.361 300.687 475 301.304 474.421 301.786C473.843 302.258 473.134 302.495 472.295 302.495C471.562 302.495 470.921 302.34 470.371 302.032C469.822 301.714 469.392 301.27 469.084 300.701C468.785 300.123 468.636 299.462 468.636 298.72ZM474.407 297.968C474.349 297.341 474.113 296.854 473.698 296.507C473.293 296.16 472.777 295.986 472.15 295.986C471.591 295.986 471.099 296.169 470.675 296.536C470.251 296.902 470.01 297.379 469.952 297.968H474.407ZM477.669 292.182C477.891 292.182 478.074 292.254 478.219 292.399C478.364 292.544 478.436 292.727 478.436 292.949C478.436 293.17 478.364 293.353 478.219 293.498C478.074 293.643 477.891 293.715 477.669 293.715C477.448 293.715 477.264 293.643 477.12 293.498C476.975 293.353 476.903 293.17 476.903 292.949C476.903 292.727 476.975 292.544 477.12 292.399C477.264 292.254 477.448 292.182 477.669 292.182ZM476.266 304.216C476.556 304.216 476.763 304.153 476.888 304.028C477.014 303.903 477.076 303.695 477.076 303.406V295.031H478.262V303.377C478.262 304.033 478.108 304.515 477.799 304.823C477.501 305.142 477.014 305.301 476.339 305.301H475.341V304.216H476.266ZM479.625 298.72C479.625 297.968 479.769 297.307 480.059 296.738C480.358 296.169 480.772 295.73 481.303 295.422C481.833 295.104 482.44 294.945 483.125 294.945C483.8 294.945 484.398 295.084 484.919 295.364C485.439 295.644 485.849 296.049 486.148 296.579C486.447 297.109 486.606 297.731 486.625 298.445C486.625 298.551 486.616 298.72 486.596 298.951H480.869V299.052C480.888 299.776 481.11 300.354 481.534 300.788C481.958 301.222 482.513 301.439 483.197 301.439C483.728 301.439 484.176 301.309 484.543 301.048C484.919 300.778 485.169 300.407 485.295 299.935H486.495C486.351 300.687 485.989 301.304 485.41 301.786C484.832 302.258 484.123 302.495 483.284 302.495C482.551 302.495 481.91 302.34 481.36 302.032C480.811 301.714 480.382 301.27 480.073 300.701C479.774 300.123 479.625 299.462 479.625 298.72ZM485.396 297.968C485.338 297.341 485.102 296.854 484.687 296.507C484.282 296.16 483.766 295.986 483.14 295.986C482.58 295.986 482.088 296.169 481.664 296.536C481.24 296.902 480.999 297.379 480.941 297.968H485.396ZM494.56 299.862C494.406 300.682 494.044 301.328 493.475 301.8C492.906 302.263 492.183 302.495 491.305 302.495C490.592 302.495 489.965 302.336 489.425 302.017C488.885 301.699 488.466 301.256 488.167 300.687C487.868 300.108 487.718 299.448 487.718 298.705C487.718 297.963 487.868 297.307 488.167 296.738C488.475 296.169 488.904 295.73 489.454 295.422C490.004 295.104 490.635 294.945 491.349 294.945C492.217 294.945 492.93 295.176 493.49 295.639C494.058 296.102 494.415 296.738 494.56 297.548H493.359C493.244 297.076 493.003 296.699 492.636 296.42C492.27 296.14 491.826 296 491.305 296C490.602 296 490.028 296.251 489.584 296.753C489.15 297.254 488.933 297.905 488.933 298.705C488.933 299.515 489.15 300.176 489.584 300.687C490.028 301.188 490.602 301.439 491.305 301.439C491.845 301.439 492.299 301.299 492.665 301.019C493.031 300.74 493.268 300.354 493.374 299.862H494.56ZM496.423 296.116H495.092V295.031H496.423V292.963H497.609V295.031H499.475V296.116H497.609V300.47C497.609 300.778 497.667 301 497.783 301.135C497.908 301.26 498.12 301.323 498.419 301.323H499.706V302.408H498.347C497.652 302.408 497.156 302.254 496.857 301.945C496.568 301.637 496.423 301.15 496.423 300.484V296.116ZM500.106 298.72C500.106 297.968 500.251 297.307 500.54 296.738C500.839 296.169 501.253 295.73 501.784 295.422C502.314 295.104 502.922 294.945 503.606 294.945C504.281 294.945 504.879 295.084 505.4 295.364C505.921 295.644 506.33 296.049 506.629 296.579C506.928 297.109 507.087 297.731 507.107 298.445C507.107 298.551 507.097 298.72 507.078 298.951H501.35V299.052C501.369 299.776 501.591 300.354 502.015 300.788C502.44 301.222 502.994 301.439 503.679 301.439C504.209 301.439 504.657 301.309 505.024 301.048C505.4 300.778 505.651 300.407 505.776 299.935H506.976C506.832 300.687 506.47 301.304 505.892 301.786C505.313 302.258 504.604 302.495 503.765 302.495C503.033 302.495 502.391 302.34 501.842 302.032C501.292 301.714 500.863 301.27 500.554 300.701C500.255 300.123 500.106 299.462 500.106 298.72ZM505.877 297.968C505.819 297.341 505.583 296.854 505.168 296.507C504.763 296.16 504.248 295.986 503.621 295.986C503.061 295.986 502.57 296.169 502.145 296.536C501.721 296.902 501.48 297.379 501.422 297.968H505.877ZM515.461 292.283V302.408H514.434L514.275 301.222C513.657 302.07 512.814 302.495 511.743 302.495C511.059 302.495 510.446 302.345 509.906 302.046C509.376 301.747 508.957 301.314 508.648 300.745C508.349 300.176 508.2 299.501 508.2 298.72C508.2 297.977 508.349 297.321 508.648 296.753C508.957 296.184 509.381 295.74 509.921 295.422C510.461 295.104 511.068 294.945 511.743 294.945C512.341 294.945 512.852 295.055 513.277 295.277C513.701 295.489 514.033 295.783 514.275 296.16V292.283H515.461ZM511.859 301.439C512.332 301.439 512.751 301.328 513.117 301.106C513.493 300.875 513.783 300.557 513.985 300.152C514.188 299.737 514.289 299.269 514.289 298.749C514.289 298.218 514.188 297.746 513.985 297.331C513.783 296.907 513.493 296.579 513.117 296.348C512.751 296.116 512.332 296 511.859 296C511.126 296 510.533 296.256 510.08 296.767C509.636 297.268 509.415 297.919 509.415 298.72C509.415 299.52 509.636 300.176 510.08 300.687C510.533 301.188 511.126 301.439 511.859 301.439Z" fill="#1B2C1F"/>
<path d="M209.541 359.449L203.669 366.159C202.948 366.984 201.59 366.474 201.59 365.378V331.754C201.59 331.099 202.121 330.568 202.776 330.568H235.998C236.654 330.568 237.185 331.099 237.185 331.754V357.857C237.185 358.513 236.654 359.044 235.998 359.044H210.434C210.092 359.044 209.766 359.192 209.541 359.449Z" stroke="#1B2C1F" stroke-opacity="0.5" stroke-width="1.582" stroke-linecap="round"/>
<path d="M391.763 326.609C392.405 324.63 395.204 324.63 395.847 326.609L399.986 339.348C400.062 339.581 400.279 339.739 400.523 339.739H413.919C415.999 339.739 416.864 342.4 415.182 343.622L404.344 351.497C404.146 351.641 404.063 351.895 404.139 352.128L408.278 364.868C408.921 366.846 406.657 368.491 404.975 367.269L394.137 359.395C393.939 359.251 393.671 359.251 393.473 359.395L382.635 367.269C380.952 368.491 378.689 366.846 379.331 364.868L383.471 352.128C383.546 351.895 383.464 351.641 383.266 351.497L372.428 343.622C370.745 342.4 371.61 339.74 373.689 339.739H387.086C387.331 339.739 387.547 339.581 387.623 339.348L391.763 326.609Z" stroke="#1B2C1F" stroke-opacity="0.5" stroke-width="1.582" stroke-linejoin="round"/>
<path d="M230.326 245.543V240.978C230.326 238.556 229.364 236.234 227.652 234.522C225.94 232.81 223.617 231.848 221.196 231.848H207.501C205.08 231.848 202.757 232.81 201.045 234.522C199.333 236.234 198.371 238.556 198.371 240.978V245.543" stroke="#1B2C1F" stroke-opacity="0.5" stroke-width="1.582" stroke-linecap="round" stroke-linejoin="round"/>
<path d="M214.349 222.717C219.391 222.717 223.479 218.629 223.479 213.587C223.479 208.544 219.391 204.457 214.349 204.457C209.306 204.457 205.219 208.544 205.219 213.587C205.219 218.629 209.306 222.717 214.349 222.717Z" stroke="#1B2C1F" stroke-opacity="0.5" stroke-width="1.582" stroke-linecap="round" stroke-linejoin="round"/>
<path d="M241.314 245.543V240.978C241.314 238.556 240.352 236.234 238.639 234.522C236.927 232.81 234.605 231.848 232.184 231.848" stroke="#1B2C1F" stroke-opacity="0.5" stroke-width="1.582" stroke-linecap="round" stroke-linejoin="round"/>
<path d="M225.336 222.717C230.378 222.717 234.466 218.629 234.466 213.587C234.466 208.544 230.378 204.457 225.336 204.457" stroke="#1B2C1F" stroke-opacity="0.5" stroke-width="1.582" stroke-linecap="round" stroke-linejoin="round"/>
<path d="M402.041 204.461H398.369H386.773C383.712 204.461 381.23 206.942 381.23 210.003V215.886M402.041 204.461L415.507 217.315M402.041 204.461V215.467C402.041 216.487 402.868 217.315 403.889 217.315H415.507M415.507 217.315V240.05C415.507 243.111 413.026 245.593 409.965 245.593H386.773C383.712 245.593 381.23 243.111 381.23 240.05V215.157" stroke="#1B2C1F" stroke-opacity="0.5" stroke-width="1.582" stroke-linecap="round" stroke-linejoin="round"/>
<path d="M388.621 223.857H401.554" stroke="#1B2C1F" stroke-opacity="0.5" stroke-width="1.582" stroke-linecap="round"/>
<path d="M388.621 230.324H396.011" stroke="#1B2C1F" stroke-opacity="0.5" stroke-width="1.582" stroke-linecap="round"/>
<path d="M388.621 237.715H392.316" stroke="#1B2C1F" stroke-opacity="0.5" stroke-width="1.582" stroke-linecap="round"/>
<path d="M567.879 213.404V222.126C567.879 222.833 568.22 223.496 568.795 223.907L575.539 228.724" stroke="#1B2C1F" stroke-opacity="0.5" stroke-width="1.582" stroke-linecap="round"/>
<path d="M567.884 244.35C578.93 244.35 587.885 235.395 587.885 224.349C587.885 213.302 578.93 204.348 567.884 204.348C556.838 204.348 547.883 213.302 547.883 224.349C547.883 235.395 556.838 244.35 567.884 244.35Z" stroke="#1B2C1F" stroke-opacity="0.5" stroke-width="1.582"/>
<path d="M567.735 366.285C578.782 366.285 587.736 357.33 587.736 346.284C587.736 335.238 578.782 326.283 567.735 326.283C556.689 326.283 547.734 335.238 547.734 346.284C547.734 357.33 556.689 366.285 567.735 366.285Z" stroke="#1B2C1F" stroke-opacity="0.5" stroke-width="1.582"/>
<path d="M581.883 332.398L553.766 360.515" stroke="#1B2C1F" stroke-opacity="0.5" stroke-width="1.58237"/>
<path d="M581.883 360.515L553.766 332.398" stroke="#1B2C1F" stroke-opacity="0.5" stroke-width="1.58237"/>
</svg>
