<svg width="706" height="540" viewBox="0 0 706 540" fill="none" xmlns="http://www.w3.org/2000/svg">
<rect opacity="0.5" x="451" y="447" width="175" height="40" rx="5" fill="white"/>
<path d="M507.455 469.812H507.347C507.275 469.988 507.187 470.156 507.083 470.316C506.979 470.476 506.851 470.62 506.699 470.748C506.547 470.868 506.367 470.964 506.159 471.036C505.959 471.108 505.731 471.144 505.475 471.144C505.067 471.144 504.703 471.048 504.383 470.856C504.071 470.664 503.807 470.384 503.591 470.016C503.375 469.648 503.211 469.2 503.099 468.672C502.995 468.144 502.943 467.548 502.943 466.884C502.943 465.46 503.203 464.372 503.723 463.62C504.243 462.86 505.047 462.48 506.135 462.48C506.567 462.48 506.947 462.54 507.275 462.66C507.603 462.772 507.883 462.936 508.115 463.152C508.355 463.36 508.551 463.612 508.703 463.908C508.855 464.204 508.975 464.532 509.063 464.892L507.383 465.3C507.335 465.124 507.279 464.956 507.215 464.796C507.159 464.628 507.083 464.48 506.987 464.352C506.891 464.224 506.771 464.124 506.627 464.052C506.483 463.972 506.307 463.932 506.099 463.932C505.643 463.932 505.319 464.12 505.127 464.496C504.943 464.872 504.851 465.4 504.851 466.08V467.448C504.851 468.128 504.951 468.672 505.151 469.08C505.359 469.488 505.723 469.692 506.243 469.692C506.651 469.692 506.955 469.572 507.155 469.332C507.355 469.092 507.455 468.784 507.455 468.408V467.796H506.027V466.524H509.063V471H507.455V469.812ZM510.679 471V462.624H516.031V464.1H512.479V466.02H515.911V467.496H512.479V469.524H516.031V471H510.679ZM519.314 465.432H519.182V471H517.646V462.624H519.806L521.714 468.192H521.846V462.624H523.382V471H521.222L519.314 465.432ZM525.069 471V462.624H530.421V464.1H526.869V466.02H530.301V467.496H526.869V469.524H530.421V471H525.069ZM533.993 471H532.217V462.624H535.457C535.865 462.624 536.229 462.688 536.549 462.816C536.869 462.936 537.137 463.112 537.353 463.344C537.577 463.576 537.745 463.856 537.857 464.184C537.969 464.512 538.025 464.88 538.025 465.288C538.025 465.88 537.897 466.388 537.641 466.812C537.385 467.236 537.021 467.516 536.549 467.652L538.193 471H536.225L534.821 467.892H533.993V471ZM535.025 466.5C535.449 466.5 535.741 466.42 535.901 466.26C536.069 466.1 536.153 465.836 536.153 465.468V465.108C536.153 464.74 536.069 464.476 535.901 464.316C535.741 464.156 535.449 464.076 535.025 464.076H533.993V466.5H535.025ZM543.72 471L543.192 468.984H540.9L540.384 471H538.56L540.828 462.624H543.372L545.64 471H543.72ZM542.1 464.364H542.004L541.188 467.532H542.916L542.1 464.364ZM550.195 464.1V471H548.395V464.1H545.983V462.624H552.607V464.1H550.195ZM553.791 471V469.668H555.591V463.956H553.791V462.624H559.191V463.956H557.391V469.668H559.191V471H553.791ZM562.486 465.432H562.354V471H560.818V462.624H562.978L564.886 468.192H565.018V462.624H566.554V471H564.394L562.486 465.432ZM572.213 469.812H572.105C572.033 469.988 571.945 470.156 571.841 470.316C571.737 470.476 571.609 470.62 571.457 470.748C571.305 470.868 571.125 470.964 570.917 471.036C570.717 471.108 570.489 471.144 570.233 471.144C569.825 471.144 569.461 471.048 569.141 470.856C568.829 470.664 568.565 470.384 568.349 470.016C568.133 469.648 567.969 469.2 567.857 468.672C567.753 468.144 567.701 467.548 567.701 466.884C567.701 465.46 567.961 464.372 568.481 463.62C569.001 462.86 569.805 462.48 570.893 462.48C571.325 462.48 571.705 462.54 572.033 462.66C572.361 462.772 572.641 462.936 572.873 463.152C573.113 463.36 573.309 463.612 573.461 463.908C573.613 464.204 573.733 464.532 573.821 464.892L572.141 465.3C572.093 465.124 572.037 464.956 571.973 464.796C571.917 464.628 571.841 464.48 571.745 464.352C571.649 464.224 571.529 464.124 571.385 464.052C571.241 463.972 571.065 463.932 570.857 463.932C570.401 463.932 570.077 464.12 569.885 464.496C569.701 464.872 569.609 465.4 569.609 466.08V467.448C569.609 468.128 569.709 468.672 569.909 469.08C570.117 469.488 570.481 469.692 571.001 469.692C571.409 469.692 571.713 469.572 571.913 469.332C572.113 469.092 572.213 468.784 572.213 468.408V467.796H570.785V466.524H573.821V471H572.213V469.812Z" fill="white"/>
<rect opacity="0.8" x="451" y="121" width="422" height="89" rx="9" transform="rotate(-180 451 121)" fill="white"/>
<rect x="46" y="56" width="31" height="31" rx="4" fill="#5A7E83"/>
<path d="M68.2222 80V78.1112C68.2222 77.1092 67.8242 76.1483 67.1157 75.4399C66.4073 74.7314 65.4464 74.3334 64.4444 74.3334H58.7778C57.7758 74.3334 56.815 74.7314 56.1065 75.4399C55.398 76.1483 55 77.1092 55 78.1112V80" stroke="white" stroke-width="1.5" stroke-linecap="round" stroke-linejoin="round"/>
<path d="M61.6118 70.5556C63.6982 70.5556 65.3895 68.8642 65.3895 66.7778C65.3895 64.6914 63.6982 63 61.6118 63C59.5254 63 57.834 64.6914 57.834 66.7778C57.834 68.8642 59.5254 70.5556 61.6118 70.5556Z" stroke="white" stroke-width="1.5" stroke-linecap="round" stroke-linejoin="round"/>
<path d="M92.224 57.4H93.79V70H92.224V57.4ZM104.728 57.4V70H103.45L103.252 68.524C102.484 69.58 101.434 70.108 100.102 70.108C99.2498 70.108 98.4878 69.922 97.8158 69.55C97.1558 69.178 96.6338 68.638 96.2498 67.93C95.8778 67.222 95.6918 66.382 95.6918 65.41C95.6918 64.486 95.8778 63.67 96.2498 62.962C96.6338 62.254 97.1618 61.702 97.8338 61.306C98.5058 60.91 99.2618 60.712 100.102 60.712C100.846 60.712 101.482 60.85 102.01 61.126C102.538 61.39 102.952 61.756 103.252 62.224V57.4H104.728ZM100.246 68.794C100.834 68.794 101.356 68.656 101.812 68.38C102.28 68.092 102.64 67.696 102.892 67.192C103.144 66.676 103.27 66.094 103.27 65.446C103.27 64.786 103.144 64.198 102.892 63.682C102.64 63.154 102.28 62.746 101.812 62.458C101.356 62.17 100.834 62.026 100.246 62.026C99.3338 62.026 98.5958 62.344 98.0318 62.98C97.4798 63.604 97.2038 64.414 97.2038 65.41C97.2038 66.406 97.4798 67.222 98.0318 67.858C98.5958 68.482 99.3338 68.794 100.246 68.794ZM106.414 65.41C106.414 64.474 106.594 63.652 106.954 62.944C107.326 62.236 107.842 61.69 108.502 61.306C109.162 60.91 109.918 60.712 110.77 60.712C111.61 60.712 112.354 60.886 113.002 61.234C113.65 61.582 114.16 62.086 114.532 62.746C114.904 63.406 115.102 64.18 115.126 65.068C115.126 65.2 115.114 65.41 115.09 65.698H107.962V65.824C107.986 66.724 108.262 67.444 108.79 67.984C109.318 68.524 110.008 68.794 110.86 68.794C111.52 68.794 112.078 68.632 112.534 68.308C113.002 67.972 113.314 67.51 113.47 66.922H114.964C114.784 67.858 114.334 68.626 113.614 69.226C112.894 69.814 112.012 70.108 110.968 70.108C110.056 70.108 109.258 69.916 108.574 69.532C107.89 69.136 107.356 68.584 106.972 67.876C106.6 67.156 106.414 66.334 106.414 65.41ZM113.596 64.474C113.524 63.694 113.23 63.088 112.714 62.656C112.21 62.224 111.568 62.008 110.788 62.008C110.092 62.008 109.48 62.236 108.952 62.692C108.424 63.148 108.124 63.742 108.052 64.474H113.596ZM121.311 60.712C122.427 60.712 123.321 61.048 123.993 61.72C124.677 62.392 125.019 63.448 125.019 64.888V70H123.543V64.978C123.543 64.03 123.327 63.31 122.895 62.818C122.475 62.314 121.863 62.062 121.059 62.062C120.195 62.062 119.517 62.362 119.025 62.962C118.533 63.562 118.287 64.378 118.287 65.41V70H116.811V60.82H118.089L118.287 62.062C118.983 61.162 119.991 60.712 121.311 60.712ZM127.513 62.17H125.857V60.82H127.513V58.246H128.989V60.82H131.311V62.17H128.989V67.588C128.989 67.972 129.061 68.248 129.205 68.416C129.361 68.572 129.625 68.65 129.997 68.65H131.599V70H129.907C129.043 70 128.425 69.808 128.053 69.424C127.693 69.04 127.513 68.434 127.513 67.606V62.17ZM133.387 57.274C133.663 57.274 133.891 57.364 134.071 57.544C134.251 57.724 134.341 57.952 134.341 58.228C134.341 58.504 134.251 58.732 134.071 58.912C133.891 59.092 133.663 59.182 133.387 59.182C133.111 59.182 132.883 59.092 132.703 58.912C132.523 58.732 132.433 58.504 132.433 58.228C132.433 57.952 132.523 57.724 132.703 57.544C132.883 57.364 133.111 57.274 133.387 57.274ZM132.649 60.82H134.125V70H132.649V60.82ZM136.759 60.82V59.794C136.759 58.978 136.945 58.378 137.317 57.994C137.701 57.598 138.313 57.4 139.153 57.4H140.845V58.75H139.243C138.883 58.75 138.625 58.828 138.469 58.984C138.313 59.14 138.235 59.398 138.235 59.758V60.82H140.827V62.17H138.235V70H136.759V62.17H135.103V60.82H136.759ZM142.595 60.82L145.421 68.308L148.157 60.82H149.723L145.493 71.548C145.277 72.1 145.085 72.514 144.917 72.79C144.749 73.066 144.539 73.27 144.287 73.402C144.035 73.534 143.699 73.6 143.279 73.6H141.515V72.25H142.829C143.117 72.25 143.333 72.22 143.477 72.16C143.621 72.1 143.735 71.998 143.819 71.854C143.915 71.722 144.029 71.494 144.161 71.17L144.629 70.072L141.029 60.82H142.595ZM160.161 60.712C161.013 60.712 161.769 60.898 162.429 61.27C163.101 61.642 163.623 62.182 163.995 62.89C164.379 63.598 164.571 64.438 164.571 65.41C164.571 66.334 164.379 67.15 163.995 67.858C163.623 68.566 163.101 69.118 162.429 69.514C161.757 69.91 161.001 70.108 160.161 70.108C159.417 70.108 158.781 69.976 158.253 69.712C157.725 69.436 157.311 69.064 157.011 68.596V73.6H155.535V60.82H156.813L157.011 62.296C157.779 61.24 158.829 60.712 160.161 60.712ZM160.017 68.794C160.929 68.794 161.661 68.482 162.213 67.858C162.777 67.222 163.059 66.406 163.059 65.41C163.059 64.414 162.777 63.604 162.213 62.98C161.661 62.344 160.929 62.026 160.017 62.026C159.429 62.026 158.901 62.17 158.433 62.458C157.977 62.734 157.623 63.13 157.371 63.646C157.119 64.15 156.993 64.726 156.993 65.374C156.993 66.034 157.119 66.628 157.371 67.156C157.623 67.672 157.977 68.074 158.433 68.362C158.901 68.65 159.429 68.794 160.017 68.794ZM174.844 68.65V70H174.034C173.446 70 173.026 69.88 172.774 69.64C172.522 69.4 172.39 69.046 172.378 68.578C171.67 69.598 170.644 70.108 169.3 70.108C168.28 70.108 167.458 69.868 166.834 69.388C166.222 68.908 165.916 68.254 165.916 67.426C165.916 66.502 166.228 65.794 166.852 65.302C167.488 64.81 168.406 64.564 169.606 64.564H172.306V63.934C172.306 63.334 172.102 62.866 171.694 62.53C171.298 62.194 170.74 62.026 170.02 62.026C169.384 62.026 168.856 62.17 168.436 62.458C168.028 62.734 167.776 63.106 167.68 63.574H166.204C166.312 62.674 166.708 61.972 167.392 61.468C168.088 60.964 168.988 60.712 170.092 60.712C171.268 60.712 172.174 61 172.81 61.576C173.458 62.14 173.782 62.956 173.782 64.024V67.984C173.782 68.428 173.986 68.65 174.394 68.65H174.844ZM172.306 65.806H169.462C168.094 65.806 167.41 66.316 167.41 67.336C167.41 67.792 167.59 68.158 167.95 68.434C168.31 68.71 168.796 68.848 169.408 68.848C170.308 68.848 171.016 68.614 171.532 68.146C172.048 67.666 172.306 67.036 172.306 66.256V65.806ZM176.591 62.17H174.935V60.82H176.591V58.246H178.067V60.82H180.389V62.17H178.067V67.588C178.067 67.972 178.139 68.248 178.283 68.416C178.439 68.572 178.703 68.65 179.075 68.65H180.677V70H178.985C178.121 70 177.503 69.808 177.131 69.424C176.771 69.04 176.591 68.434 176.591 67.606V62.17ZM182.465 57.274C182.741 57.274 182.969 57.364 183.149 57.544C183.329 57.724 183.419 57.952 183.419 58.228C183.419 58.504 183.329 58.732 183.149 58.912C182.969 59.092 182.741 59.182 182.465 59.182C182.189 59.182 181.961 59.092 181.781 58.912C181.601 58.732 181.511 58.504 181.511 58.228C181.511 57.952 181.601 57.724 181.781 57.544C181.961 57.364 182.189 57.274 182.465 57.274ZM181.727 60.82H183.203V70H181.727V60.82ZM184.901 65.41C184.901 64.474 185.081 63.652 185.441 62.944C185.813 62.236 186.329 61.69 186.989 61.306C187.649 60.91 188.405 60.712 189.257 60.712C190.097 60.712 190.841 60.886 191.489 61.234C192.137 61.582 192.647 62.086 193.019 62.746C193.391 63.406 193.589 64.18 193.613 65.068C193.613 65.2 193.601 65.41 193.577 65.698H186.449V65.824C186.473 66.724 186.749 67.444 187.277 67.984C187.805 68.524 188.495 68.794 189.347 68.794C190.007 68.794 190.565 68.632 191.021 68.308C191.489 67.972 191.801 67.51 191.957 66.922H193.451C193.271 67.858 192.821 68.626 192.101 69.226C191.381 69.814 190.499 70.108 189.455 70.108C188.543 70.108 187.745 69.916 187.061 69.532C186.377 69.136 185.843 68.584 185.459 67.876C185.087 67.156 184.901 66.334 184.901 65.41ZM192.083 64.474C192.011 63.694 191.717 63.088 191.201 62.656C190.697 62.224 190.055 62.008 189.275 62.008C188.579 62.008 187.967 62.236 187.439 62.692C186.911 63.148 186.611 63.742 186.539 64.474H192.083ZM199.797 60.712C200.913 60.712 201.807 61.048 202.479 61.72C203.163 62.392 203.505 63.448 203.505 64.888V70H202.029V64.978C202.029 64.03 201.813 63.31 201.381 62.818C200.961 62.314 200.349 62.062 199.545 62.062C198.681 62.062 198.003 62.362 197.511 62.962C197.019 63.562 196.773 64.378 196.773 65.41V70H195.297V60.82H196.575L196.773 62.062C197.469 61.162 198.477 60.712 199.797 60.712ZM205.999 62.17H204.343V60.82H205.999V58.246H207.475V60.82H209.797V62.17H207.475V67.588C207.475 67.972 207.547 68.248 207.691 68.416C207.847 68.572 208.111 68.65 208.483 68.65H210.085V70H208.393C207.529 70 206.911 69.808 206.539 69.424C206.179 69.04 205.999 68.434 205.999 67.606V62.17ZM212.287 66.976C212.311 67.528 212.551 67.978 213.007 68.326C213.475 68.674 214.075 68.848 214.807 68.848C215.455 68.848 215.977 68.722 216.373 68.47C216.781 68.206 216.985 67.864 216.985 67.444C216.985 67.084 216.889 66.808 216.697 66.616C216.505 66.424 216.253 66.292 215.941 66.22C215.641 66.148 215.209 66.076 214.645 66.004C213.853 65.908 213.205 65.782 212.701 65.626C212.197 65.47 211.789 65.224 211.477 64.888C211.165 64.54 211.009 64.066 211.009 63.466C211.009 62.926 211.159 62.446 211.459 62.026C211.771 61.606 212.191 61.282 212.719 61.054C213.247 60.814 213.841 60.694 214.501 60.694C215.581 60.694 216.457 60.946 217.129 61.45C217.813 61.954 218.191 62.674 218.263 63.61H216.787C216.727 63.13 216.493 62.734 216.085 62.422C215.677 62.11 215.167 61.954 214.555 61.954C213.931 61.954 213.427 62.086 213.043 62.35C212.659 62.602 212.467 62.938 212.467 63.358C212.467 63.67 212.557 63.91 212.737 64.078C212.917 64.246 213.145 64.36 213.421 64.42C213.709 64.48 214.141 64.546 214.717 64.618C215.521 64.714 216.181 64.846 216.697 65.014C217.225 65.182 217.645 65.452 217.957 65.824C218.281 66.196 218.443 66.7 218.443 67.336C218.443 67.888 218.281 68.374 217.957 68.794C217.633 69.214 217.195 69.538 216.643 69.766C216.091 69.994 215.479 70.108 214.807 70.108C213.607 70.108 212.641 69.832 211.909 69.28C211.189 68.728 210.823 67.96 210.811 66.976H212.287ZM233.414 68.65V70H232.604C232.016 70 231.596 69.88 231.344 69.64C231.092 69.4 230.96 69.046 230.948 68.578C230.24 69.598 229.214 70.108 227.87 70.108C226.85 70.108 226.028 69.868 225.404 69.388C224.792 68.908 224.486 68.254 224.486 67.426C224.486 66.502 224.798 65.794 225.422 65.302C226.058 64.81 226.976 64.564 228.176 64.564H230.876V63.934C230.876 63.334 230.672 62.866 230.264 62.53C229.868 62.194 229.31 62.026 228.59 62.026C227.954 62.026 227.426 62.17 227.006 62.458C226.598 62.734 226.346 63.106 226.25 63.574H224.774C224.882 62.674 225.278 61.972 225.962 61.468C226.658 60.964 227.558 60.712 228.662 60.712C229.838 60.712 230.744 61 231.38 61.576C232.028 62.14 232.352 62.956 232.352 64.024V67.984C232.352 68.428 232.556 68.65 232.964 68.65H233.414ZM230.876 65.806H228.032C226.664 65.806 225.98 66.316 225.98 67.336C225.98 67.792 226.16 68.158 226.52 68.434C226.88 68.71 227.366 68.848 227.978 68.848C228.878 68.848 229.586 68.614 230.102 68.146C230.618 67.666 230.876 67.036 230.876 66.256V65.806ZM235.161 62.17H233.505V60.82H235.161V58.246H236.637V60.82H238.959V62.17H236.637V67.588C236.637 67.972 236.709 68.248 236.853 68.416C237.009 68.572 237.273 68.65 237.645 68.65H239.247V70H237.555C236.691 70 236.073 69.808 235.701 69.424C235.341 69.04 235.161 68.434 235.161 67.606V62.17ZM249.508 60.712C250.624 60.712 251.524 61.048 252.208 61.72C252.892 62.392 253.234 63.448 253.234 64.888V70H251.758V64.978C251.758 64.03 251.542 63.31 251.11 62.818C250.678 62.314 250.06 62.062 249.256 62.062C248.404 62.062 247.726 62.362 247.222 62.962C246.73 63.562 246.484 64.378 246.484 65.41V70H245.008V57.4H246.484V62.332C246.784 61.852 247.18 61.462 247.672 61.162C248.176 60.862 248.788 60.712 249.508 60.712ZM255.853 57.274C256.129 57.274 256.357 57.364 256.537 57.544C256.717 57.724 256.807 57.952 256.807 58.228C256.807 58.504 256.717 58.732 256.537 58.912C256.357 59.092 256.129 59.182 255.853 59.182C255.577 59.182 255.349 59.092 255.169 58.912C254.989 58.732 254.899 58.504 254.899 58.228C254.899 57.952 254.989 57.724 255.169 57.544C255.349 57.364 255.577 57.274 255.853 57.274ZM255.115 60.82H256.591V70H255.115V60.82ZM267.325 60.82V69.55C267.325 72.322 265.807 73.708 262.771 73.708C261.583 73.708 260.611 73.438 259.855 72.898C259.111 72.358 258.679 71.59 258.559 70.594H260.071C260.191 71.17 260.497 71.614 260.989 71.926C261.481 72.238 262.111 72.394 262.879 72.394C264.859 72.394 265.849 71.428 265.849 69.496V68.416C265.189 69.544 264.139 70.108 262.699 70.108C261.847 70.108 261.085 69.922 260.413 69.55C259.753 69.178 259.231 68.638 258.847 67.93C258.475 67.222 258.289 66.382 258.289 65.41C258.289 64.486 258.475 63.67 258.847 62.962C259.231 62.254 259.759 61.702 260.431 61.306C261.103 60.91 261.859 60.712 262.699 60.712C263.443 60.712 264.079 60.862 264.607 61.162C265.135 61.45 265.549 61.864 265.849 62.404L266.047 60.82H267.325ZM262.843 68.794C263.431 68.794 263.953 68.656 264.409 68.38C264.877 68.092 265.237 67.696 265.489 67.192C265.741 66.676 265.867 66.094 265.867 65.446C265.867 64.786 265.741 64.198 265.489 63.682C265.237 63.154 264.877 62.746 264.409 62.458C263.953 62.17 263.431 62.026 262.843 62.026C261.931 62.026 261.193 62.344 260.629 62.98C260.077 63.604 259.801 64.414 259.801 65.41C259.801 66.406 260.077 67.222 260.629 67.858C261.193 68.482 261.931 68.794 262.843 68.794ZM273.836 60.712C274.952 60.712 275.852 61.048 276.536 61.72C277.22 62.392 277.562 63.448 277.562 64.888V70H276.086V64.978C276.086 64.03 275.87 63.31 275.438 62.818C275.006 62.314 274.388 62.062 273.584 62.062C272.732 62.062 272.054 62.362 271.55 62.962C271.058 63.562 270.812 64.378 270.812 65.41V70H269.336V57.4H270.812V62.332C271.112 61.852 271.508 61.462 272 61.162C272.504 60.862 273.116 60.712 273.836 60.712ZM279.12 65.41C279.12 64.474 279.3 63.652 279.66 62.944C280.032 62.236 280.548 61.69 281.208 61.306C281.868 60.91 282.624 60.712 283.476 60.712C284.316 60.712 285.06 60.886 285.708 61.234C286.356 61.582 286.866 62.086 287.238 62.746C287.61 63.406 287.808 64.18 287.832 65.068C287.832 65.2 287.82 65.41 287.796 65.698H280.668V65.824C280.692 66.724 280.968 67.444 281.496 67.984C282.024 68.524 282.714 68.794 283.566 68.794C284.226 68.794 284.784 68.632 285.24 68.308C285.708 67.972 286.02 67.51 286.176 66.922H287.67C287.49 67.858 287.04 68.626 286.32 69.226C285.6 69.814 284.718 70.108 283.674 70.108C282.762 70.108 281.964 69.916 281.28 69.532C280.596 69.136 280.062 68.584 279.678 67.876C279.306 67.156 279.12 66.334 279.12 65.41ZM286.302 64.474C286.23 63.694 285.936 63.088 285.42 62.656C284.916 62.224 284.274 62.008 283.494 62.008C282.798 62.008 282.186 62.236 281.658 62.692C281.13 63.148 280.83 63.742 280.758 64.474H286.302ZM294.178 60.82V62.26H293.44C292.564 62.26 291.934 62.554 291.55 63.142C291.178 63.73 290.992 64.456 290.992 65.32V70H289.516V60.82H290.794L290.992 62.206C291.256 61.786 291.598 61.45 292.018 61.198C292.438 60.946 293.02 60.82 293.764 60.82H294.178ZM304.9 60.82V62.26H304.162C303.286 62.26 302.656 62.554 302.272 63.142C301.9 63.73 301.714 64.456 301.714 65.32V70H300.238V60.82H301.516L301.714 62.206C301.978 61.786 302.32 61.45 302.74 61.198C303.16 60.946 303.742 60.82 304.486 60.82H304.9ZM306.988 57.274C307.264 57.274 307.492 57.364 307.672 57.544C307.852 57.724 307.942 57.952 307.942 58.228C307.942 58.504 307.852 58.732 307.672 58.912C307.492 59.092 307.264 59.182 306.988 59.182C306.712 59.182 306.484 59.092 306.304 58.912C306.124 58.732 306.034 58.504 306.034 58.228C306.034 57.952 306.124 57.724 306.304 57.544C306.484 57.364 306.712 57.274 306.988 57.274ZM306.25 60.82H307.726V70H306.25V60.82ZM310.9 66.976C310.924 67.528 311.164 67.978 311.62 68.326C312.088 68.674 312.688 68.848 313.42 68.848C314.068 68.848 314.59 68.722 314.986 68.47C315.394 68.206 315.598 67.864 315.598 67.444C315.598 67.084 315.502 66.808 315.31 66.616C315.118 66.424 314.866 66.292 314.554 66.22C314.254 66.148 313.822 66.076 313.258 66.004C312.466 65.908 311.818 65.782 311.314 65.626C310.81 65.47 310.402 65.224 310.09 64.888C309.778 64.54 309.622 64.066 309.622 63.466C309.622 62.926 309.772 62.446 310.072 62.026C310.384 61.606 310.804 61.282 311.332 61.054C311.86 60.814 312.454 60.694 313.114 60.694C314.194 60.694 315.07 60.946 315.742 61.45C316.426 61.954 316.804 62.674 316.876 63.61H315.4C315.34 63.13 315.106 62.734 314.698 62.422C314.29 62.11 313.78 61.954 313.168 61.954C312.544 61.954 312.04 62.086 311.656 62.35C311.272 62.602 311.08 62.938 311.08 63.358C311.08 63.67 311.17 63.91 311.35 64.078C311.53 64.246 311.758 64.36 312.034 64.42C312.322 64.48 312.754 64.546 313.33 64.618C314.134 64.714 314.794 64.846 315.31 65.014C315.838 65.182 316.258 65.452 316.57 65.824C316.894 66.196 317.056 66.7 317.056 67.336C317.056 67.888 316.894 68.374 316.57 68.794C316.246 69.214 315.808 69.538 315.256 69.766C314.704 69.994 314.092 70.108 313.42 70.108C312.22 70.108 311.254 69.832 310.522 69.28C309.802 68.728 309.436 67.96 309.424 66.976H310.9ZM318.731 57.4H320.207V65.752L324.869 60.82H326.633L323.105 64.582L326.885 70H325.103L322.043 65.644L320.207 67.57V70H318.731V57.4ZM341.326 68.65V70H340.516C339.928 70 339.508 69.88 339.256 69.64C339.004 69.4 338.872 69.046 338.86 68.578C338.152 69.598 337.126 70.108 335.782 70.108C334.762 70.108 333.94 69.868 333.316 69.388C332.704 68.908 332.398 68.254 332.398 67.426C332.398 66.502 332.71 65.794 333.334 65.302C333.97 64.81 334.888 64.564 336.088 64.564H338.788V63.934C338.788 63.334 338.584 62.866 338.176 62.53C337.78 62.194 337.222 62.026 336.502 62.026C335.866 62.026 335.338 62.17 334.918 62.458C334.51 62.734 334.258 63.106 334.162 63.574H332.686C332.794 62.674 333.19 61.972 333.874 61.468C334.57 60.964 335.47 60.712 336.574 60.712C337.75 60.712 338.656 61 339.292 61.576C339.94 62.14 340.264 62.956 340.264 64.024V67.984C340.264 68.428 340.468 68.65 340.876 68.65H341.326ZM338.788 65.806H335.944C334.576 65.806 333.892 66.316 333.892 67.336C333.892 67.792 334.072 68.158 334.432 68.434C334.792 68.71 335.278 68.848 335.89 68.848C336.79 68.848 337.498 68.614 338.014 68.146C338.53 67.666 338.788 67.036 338.788 66.256V65.806ZM346.961 60.712C348.077 60.712 348.971 61.048 349.643 61.72C350.327 62.392 350.669 63.448 350.669 64.888V70H349.193V64.978C349.193 64.03 348.977 63.31 348.545 62.818C348.125 62.314 347.513 62.062 346.709 62.062C345.845 62.062 345.167 62.362 344.675 62.962C344.183 63.562 343.937 64.378 343.937 65.41V70H342.461V60.82H343.739L343.937 62.062C344.633 61.162 345.641 60.712 346.961 60.712ZM361.263 57.4V70H359.985L359.787 68.524C359.019 69.58 357.969 70.108 356.637 70.108C355.785 70.108 355.023 69.922 354.351 69.55C353.691 69.178 353.169 68.638 352.785 67.93C352.413 67.222 352.227 66.382 352.227 65.41C352.227 64.486 352.413 63.67 352.785 62.962C353.169 62.254 353.697 61.702 354.369 61.306C355.041 60.91 355.797 60.712 356.637 60.712C357.381 60.712 358.017 60.85 358.545 61.126C359.073 61.39 359.487 61.756 359.787 62.224V57.4H361.263ZM356.781 68.794C357.369 68.794 357.891 68.656 358.347 68.38C358.815 68.092 359.175 67.696 359.427 67.192C359.679 66.676 359.805 66.094 359.805 65.446C359.805 64.786 359.679 64.198 359.427 63.682C359.175 63.154 358.815 62.746 358.347 62.458C357.891 62.17 357.369 62.026 356.781 62.026C355.869 62.026 355.131 62.344 354.567 62.98C354.015 63.604 353.739 64.414 353.739 65.41C353.739 66.406 354.015 67.222 354.567 67.858C355.131 68.482 355.869 68.794 356.781 68.794ZM372.611 60.712C373.463 60.712 374.219 60.898 374.879 61.27C375.551 61.642 376.073 62.182 376.445 62.89C376.829 63.598 377.021 64.438 377.021 65.41C377.021 66.334 376.829 67.15 376.445 67.858C376.073 68.566 375.551 69.118 374.879 69.514C374.207 69.91 373.451 70.108 372.611 70.108C371.867 70.108 371.231 69.976 370.703 69.712C370.175 69.436 369.761 69.064 369.461 68.596V73.6H367.985V60.82H369.263L369.461 62.296C370.229 61.24 371.279 60.712 372.611 60.712ZM372.467 68.794C373.379 68.794 374.111 68.482 374.663 67.858C375.227 67.222 375.509 66.406 375.509 65.41C375.509 64.414 375.227 63.604 374.663 62.98C374.111 62.344 373.379 62.026 372.467 62.026C371.879 62.026 371.351 62.17 370.883 62.458C370.427 62.734 370.073 63.13 369.821 63.646C369.569 64.15 369.443 64.726 369.443 65.374C369.443 66.034 369.569 66.628 369.821 67.156C370.073 67.672 370.427 68.074 370.883 68.362C371.351 68.65 371.879 68.794 372.467 68.794ZM383.369 60.82V62.26H382.631C381.755 62.26 381.125 62.554 380.741 63.142C380.369 63.73 380.183 64.456 380.183 65.32V70H378.707V60.82H379.985L380.183 62.206C380.447 61.786 380.789 61.45 381.209 61.198C381.629 60.946 382.211 60.82 382.955 60.82H383.369ZM385.457 57.274C385.733 57.274 385.961 57.364 386.141 57.544C386.321 57.724 386.411 57.952 386.411 58.228C386.411 58.504 386.321 58.732 386.141 58.912C385.961 59.092 385.733 59.182 385.457 59.182C385.181 59.182 384.953 59.092 384.773 58.912C384.593 58.732 384.503 58.504 384.503 58.228C384.503 57.952 384.593 57.724 384.773 57.544C384.953 57.364 385.181 57.274 385.457 57.274ZM384.719 60.82H386.195V70H384.719V60.82ZM392.447 70.108C391.559 70.108 390.767 69.91 390.071 69.514C389.387 69.118 388.853 68.566 388.469 67.858C388.085 67.15 387.893 66.334 387.893 65.41C387.893 64.486 388.085 63.67 388.469 62.962C388.853 62.254 389.387 61.702 390.071 61.306C390.767 60.91 391.559 60.712 392.447 60.712C393.335 60.712 394.121 60.91 394.805 61.306C395.501 61.702 396.041 62.254 396.425 62.962C396.809 63.67 397.001 64.486 397.001 65.41C397.001 66.334 396.809 67.15 396.425 67.858C396.041 68.566 395.501 69.118 394.805 69.514C394.121 69.91 393.335 70.108 392.447 70.108ZM392.447 68.794C393.047 68.794 393.575 68.65 394.031 68.362C394.499 68.074 394.859 67.672 395.111 67.156C395.363 66.64 395.489 66.058 395.489 65.41C395.489 64.762 395.363 64.18 395.111 63.664C394.859 63.148 394.499 62.746 394.031 62.458C393.575 62.17 393.047 62.026 392.447 62.026C391.847 62.026 391.313 62.17 390.845 62.458C390.389 62.746 390.035 63.148 389.783 63.664C389.531 64.18 389.405 64.762 389.405 65.41C389.405 66.058 389.531 66.64 389.783 67.156C390.035 67.672 390.389 68.074 390.845 68.362C391.313 68.65 391.847 68.794 392.447 68.794ZM403.356 60.82V62.26H402.618C401.742 62.26 401.112 62.554 400.728 63.142C400.356 63.73 400.17 64.456 400.17 65.32V70H398.694V60.82H399.972L400.17 62.206C400.434 61.786 400.776 61.45 401.196 61.198C401.616 60.946 402.198 60.82 402.942 60.82H403.356ZM405.443 57.274C405.719 57.274 405.947 57.364 406.127 57.544C406.307 57.724 406.397 57.952 406.397 58.228C406.397 58.504 406.307 58.732 406.127 58.912C405.947 59.092 405.719 59.182 405.443 59.182C405.167 59.182 404.939 59.092 404.759 58.912C404.579 58.732 404.489 58.504 404.489 58.228C404.489 57.952 404.579 57.724 404.759 57.544C404.939 57.364 405.167 57.274 405.443 57.274ZM404.705 60.82H406.181V70H404.705V60.82ZM408.815 62.17H407.159V60.82H408.815V58.246H410.291V60.82H412.613V62.17H410.291V67.588C410.291 67.972 410.363 68.248 410.507 68.416C410.663 68.572 410.927 68.65 411.299 68.65H412.901V70H411.209C410.345 70 409.727 69.808 409.355 69.424C408.995 69.04 408.815 68.434 408.815 67.606V62.17ZM414.689 57.274C414.965 57.274 415.193 57.364 415.373 57.544C415.553 57.724 415.643 57.952 415.643 58.228C415.643 58.504 415.553 58.732 415.373 58.912C415.193 59.092 414.965 59.182 414.689 59.182C414.413 59.182 414.185 59.092 414.005 58.912C413.825 58.732 413.735 58.504 413.735 58.228C413.735 57.952 413.825 57.724 414.005 57.544C414.185 57.364 414.413 57.274 414.689 57.274ZM413.951 60.82H415.427V70H413.951V60.82ZM417.071 60.82H424.379V61.936L418.799 68.65H424.613V70H416.837V68.884L422.399 62.17H417.071V60.82ZM425.211 65.41C425.211 64.474 425.391 63.652 425.751 62.944C426.123 62.236 426.639 61.69 427.299 61.306C427.959 60.91 428.715 60.712 429.567 60.712C430.407 60.712 431.151 60.886 431.799 61.234C432.447 61.582 432.957 62.086 433.329 62.746C433.701 63.406 433.899 64.18 433.923 65.068C433.923 65.2 433.911 65.41 433.887 65.698H426.759V65.824C426.783 66.724 427.059 67.444 427.587 67.984C428.115 68.524 428.805 68.794 429.657 68.794C430.317 68.794 430.875 68.632 431.331 68.308C431.799 67.972 432.111 67.51 432.267 66.922H433.761C433.581 67.858 433.131 68.626 432.411 69.226C431.691 69.814 430.809 70.108 429.765 70.108C428.853 70.108 428.055 69.916 427.371 69.532C426.687 69.136 426.153 68.584 425.769 67.876C425.397 67.156 425.211 66.334 425.211 65.41ZM432.393 64.474C432.321 63.694 432.027 63.088 431.511 62.656C431.007 62.224 430.365 62.008 429.585 62.008C428.889 62.008 428.277 62.236 427.749 62.692C427.221 63.148 426.921 63.742 426.849 64.474H432.393ZM91.144 83.82H92.692L94.978 91.29L97.39 83.82H98.758L101.044 91.29L103.438 83.82H104.932L101.872 93H100.252L98.038 86.178L95.734 93L94.114 93.018L91.144 83.82ZM110.588 83.712C111.704 83.712 112.604 84.048 113.288 84.72C113.972 85.392 114.314 86.448 114.314 87.888V93H112.838V87.978C112.838 87.03 112.622 86.31 112.19 85.818C111.758 85.314 111.14 85.062 110.336 85.062C109.484 85.062 108.806 85.362 108.302 85.962C107.81 86.562 107.564 87.378 107.564 88.41V93H106.088V80.4H107.564V85.332C107.864 84.852 108.26 84.462 108.752 84.162C109.256 83.862 109.868 83.712 110.588 83.712ZM120.426 93.108C119.538 93.108 118.746 92.91 118.05 92.514C117.366 92.118 116.832 91.566 116.448 90.858C116.064 90.15 115.872 89.334 115.872 88.41C115.872 87.486 116.064 86.67 116.448 85.962C116.832 85.254 117.366 84.702 118.05 84.306C118.746 83.91 119.538 83.712 120.426 83.712C121.314 83.712 122.1 83.91 122.784 84.306C123.48 84.702 124.02 85.254 124.404 85.962C124.788 86.67 124.98 87.486 124.98 88.41C124.98 89.334 124.788 90.15 124.404 90.858C124.02 91.566 123.48 92.118 122.784 92.514C122.1 92.91 121.314 93.108 120.426 93.108ZM120.426 91.794C121.026 91.794 121.554 91.65 122.01 91.362C122.478 91.074 122.838 90.672 123.09 90.156C123.342 89.64 123.468 89.058 123.468 88.41C123.468 87.762 123.342 87.18 123.09 86.664C122.838 86.148 122.478 85.746 122.01 85.458C121.554 85.17 121.026 85.026 120.426 85.026C119.826 85.026 119.292 85.17 118.824 85.458C118.368 85.746 118.014 86.148 117.762 86.664C117.51 87.18 117.384 87.762 117.384 88.41C117.384 89.058 117.51 89.64 117.762 90.156C118.014 90.672 118.368 91.074 118.824 91.362C119.292 91.65 119.826 91.794 120.426 91.794ZM135.883 83.712C136.999 83.712 137.893 84.048 138.565 84.72C139.249 85.392 139.591 86.448 139.591 87.888V93H138.115V87.978C138.115 87.03 137.899 86.31 137.467 85.818C137.047 85.314 136.435 85.062 135.631 85.062C134.767 85.062 134.089 85.362 133.597 85.962C133.105 86.562 132.859 87.378 132.859 88.41V93H131.383V83.82H132.661L132.859 85.062C133.555 84.162 134.563 83.712 135.883 83.712ZM141.149 88.41C141.149 87.474 141.329 86.652 141.689 85.944C142.061 85.236 142.577 84.69 143.237 84.306C143.897 83.91 144.653 83.712 145.505 83.712C146.345 83.712 147.089 83.886 147.737 84.234C148.385 84.582 148.895 85.086 149.267 85.746C149.639 86.406 149.837 87.18 149.861 88.068C149.861 88.2 149.849 88.41 149.825 88.698H142.697V88.824C142.721 89.724 142.997 90.444 143.525 90.984C144.053 91.524 144.743 91.794 145.595 91.794C146.255 91.794 146.813 91.632 147.269 91.308C147.737 90.972 148.049 90.51 148.205 89.922H149.699C149.519 90.858 149.069 91.626 148.349 92.226C147.629 92.814 146.747 93.108 145.703 93.108C144.791 93.108 143.993 92.916 143.309 92.532C142.625 92.136 142.091 91.584 141.707 90.876C141.335 90.156 141.149 89.334 141.149 88.41ZM148.331 87.474C148.259 86.694 147.965 86.088 147.449 85.656C146.945 85.224 146.303 85.008 145.523 85.008C144.827 85.008 144.215 85.236 143.687 85.692C143.159 86.148 142.859 86.742 142.787 87.474H148.331ZM151.221 88.41C151.221 87.474 151.401 86.652 151.761 85.944C152.133 85.236 152.649 84.69 153.309 84.306C153.969 83.91 154.725 83.712 155.577 83.712C156.417 83.712 157.161 83.886 157.809 84.234C158.457 84.582 158.967 85.086 159.339 85.746C159.711 86.406 159.909 87.18 159.933 88.068C159.933 88.2 159.921 88.41 159.897 88.698H152.769V88.824C152.793 89.724 153.069 90.444 153.597 90.984C154.125 91.524 154.815 91.794 155.667 91.794C156.327 91.794 156.885 91.632 157.341 91.308C157.809 90.972 158.121 90.51 158.277 89.922H159.771C159.591 90.858 159.141 91.626 158.421 92.226C157.701 92.814 156.819 93.108 155.775 93.108C154.863 93.108 154.065 92.916 153.381 92.532C152.697 92.136 152.163 91.584 151.779 90.876C151.407 90.156 151.221 89.334 151.221 88.41ZM158.403 87.474C158.331 86.694 158.037 86.088 157.521 85.656C157.017 85.224 156.375 85.008 155.595 85.008C154.899 85.008 154.287 85.236 153.759 85.692C153.231 86.148 152.931 86.742 152.859 87.474H158.403ZM170.329 80.4V93H169.051L168.853 91.524C168.085 92.58 167.035 93.108 165.703 93.108C164.851 93.108 164.089 92.922 163.417 92.55C162.757 92.178 162.235 91.638 161.851 90.93C161.479 90.222 161.293 89.382 161.293 88.41C161.293 87.486 161.479 86.67 161.851 85.962C162.235 85.254 162.763 84.702 163.435 84.306C164.107 83.91 164.863 83.712 165.703 83.712C166.447 83.712 167.083 83.85 167.611 84.126C168.139 84.39 168.553 84.756 168.853 85.224V80.4H170.329ZM165.847 91.794C166.435 91.794 166.957 91.656 167.413 91.38C167.881 91.092 168.241 90.696 168.493 90.192C168.745 89.676 168.871 89.094 168.871 88.446C168.871 87.786 168.745 87.198 168.493 86.682C168.241 86.154 167.881 85.746 167.413 85.458C166.957 85.17 166.435 85.026 165.847 85.026C164.935 85.026 164.197 85.344 163.633 85.98C163.081 86.604 162.805 87.414 162.805 88.41C162.805 89.406 163.081 90.222 163.633 90.858C164.197 91.482 164.935 91.794 165.847 91.794ZM173.492 89.976C173.516 90.528 173.756 90.978 174.212 91.326C174.68 91.674 175.28 91.848 176.012 91.848C176.66 91.848 177.182 91.722 177.578 91.47C177.986 91.206 178.19 90.864 178.19 90.444C178.19 90.084 178.094 89.808 177.902 89.616C177.71 89.424 177.458 89.292 177.146 89.22C176.846 89.148 176.414 89.076 175.85 89.004C175.058 88.908 174.41 88.782 173.906 88.626C173.402 88.47 172.994 88.224 172.682 87.888C172.37 87.54 172.214 87.066 172.214 86.466C172.214 85.926 172.364 85.446 172.664 85.026C172.976 84.606 173.396 84.282 173.924 84.054C174.452 83.814 175.046 83.694 175.706 83.694C176.786 83.694 177.662 83.946 178.334 84.45C179.018 84.954 179.396 85.674 179.468 86.61H177.992C177.932 86.13 177.698 85.734 177.29 85.422C176.882 85.11 176.372 84.954 175.76 84.954C175.136 84.954 174.632 85.086 174.248 85.35C173.864 85.602 173.672 85.938 173.672 86.358C173.672 86.67 173.762 86.91 173.942 87.078C174.122 87.246 174.35 87.36 174.626 87.42C174.914 87.48 175.346 87.546 175.922 87.618C176.726 87.714 177.386 87.846 177.902 88.014C178.43 88.182 178.85 88.452 179.162 88.824C179.486 89.196 179.648 89.7 179.648 90.336C179.648 90.888 179.486 91.374 179.162 91.794C178.838 92.214 178.4 92.538 177.848 92.766C177.296 92.994 176.684 93.108 176.012 93.108C174.812 93.108 173.846 92.832 173.114 92.28C172.394 91.728 172.028 90.96 172.016 89.976H173.492ZM186.645 83.82V82.794C186.645 81.978 186.831 81.378 187.203 80.994C187.587 80.598 188.199 80.4 189.039 80.4H190.731V81.75H189.129C188.769 81.75 188.511 81.828 188.355 81.984C188.199 82.14 188.121 82.398 188.121 82.758V83.82H190.713V85.17H188.121V93H186.645V85.17H184.989V83.82H186.645ZM195.519 93.108C194.631 93.108 193.839 92.91 193.143 92.514C192.459 92.118 191.925 91.566 191.541 90.858C191.157 90.15 190.965 89.334 190.965 88.41C190.965 87.486 191.157 86.67 191.541 85.962C191.925 85.254 192.459 84.702 193.143 84.306C193.839 83.91 194.631 83.712 195.519 83.712C196.407 83.712 197.193 83.91 197.877 84.306C198.573 84.702 199.113 85.254 199.497 85.962C199.881 86.67 200.073 87.486 200.073 88.41C200.073 89.334 199.881 90.15 199.497 90.858C199.113 91.566 198.573 92.118 197.877 92.514C197.193 92.91 196.407 93.108 195.519 93.108ZM195.519 91.794C196.119 91.794 196.647 91.65 197.103 91.362C197.571 91.074 197.931 90.672 198.183 90.156C198.435 89.64 198.561 89.058 198.561 88.41C198.561 87.762 198.435 87.18 198.183 86.664C197.931 86.148 197.571 85.746 197.103 85.458C196.647 85.17 196.119 85.026 195.519 85.026C194.919 85.026 194.385 85.17 193.917 85.458C193.461 85.746 193.107 86.148 192.855 86.664C192.603 87.18 192.477 87.762 192.477 88.41C192.477 89.058 192.603 89.64 192.855 90.156C193.107 90.672 193.461 91.074 193.917 91.362C194.385 91.65 194.919 91.794 195.519 91.794ZM201.766 80.4H203.242V93H201.766V80.4ZM205.264 80.4H206.74V93H205.264V80.4ZM212.992 93.108C212.104 93.108 211.312 92.91 210.616 92.514C209.932 92.118 209.398 91.566 209.014 90.858C208.63 90.15 208.438 89.334 208.438 88.41C208.438 87.486 208.63 86.67 209.014 85.962C209.398 85.254 209.932 84.702 210.616 84.306C211.312 83.91 212.104 83.712 212.992 83.712C213.88 83.712 214.666 83.91 215.35 84.306C216.046 84.702 216.586 85.254 216.97 85.962C217.354 86.67 217.546 87.486 217.546 88.41C217.546 89.334 217.354 90.15 216.97 90.858C216.586 91.566 216.046 92.118 215.35 92.514C214.666 92.91 213.88 93.108 212.992 93.108ZM212.992 91.794C213.592 91.794 214.12 91.65 214.576 91.362C215.044 91.074 215.404 90.672 215.656 90.156C215.908 89.64 216.034 89.058 216.034 88.41C216.034 87.762 215.908 87.18 215.656 86.664C215.404 86.148 215.044 85.746 214.576 85.458C214.12 85.17 213.592 85.026 212.992 85.026C212.392 85.026 211.858 85.17 211.39 85.458C210.934 85.746 210.58 86.148 210.328 86.664C210.076 87.18 209.95 87.762 209.95 88.41C209.95 89.058 210.076 89.64 210.328 90.156C210.58 90.672 210.934 91.074 211.39 91.362C211.858 91.65 212.392 91.794 212.992 91.794ZM218.111 83.82H219.659L221.945 91.29L224.357 83.82H225.725L228.011 91.29L230.405 83.82H231.899L228.839 93H227.219L225.005 86.178L222.701 93L221.081 93.018L218.111 83.82ZM232.631 88.5V87.276H238.625V88.5H232.631ZM248.463 83.82V93H247.185L246.987 91.776C246.291 92.664 245.313 93.108 244.053 93.108C242.961 93.108 242.085 92.772 241.425 92.1C240.765 91.428 240.435 90.372 240.435 88.932V83.82H241.911V88.842C241.911 89.79 242.115 90.516 242.523 91.02C242.943 91.512 243.537 91.758 244.305 91.758C245.145 91.758 245.799 91.458 246.267 90.858C246.747 90.258 246.987 89.442 246.987 88.41V83.82H248.463ZM255.101 83.712C255.953 83.712 256.709 83.898 257.369 84.27C258.041 84.642 258.563 85.182 258.935 85.89C259.319 86.598 259.511 87.438 259.511 88.41C259.511 89.334 259.319 90.15 258.935 90.858C258.563 91.566 258.041 92.118 257.369 92.514C256.697 92.91 255.941 93.108 255.101 93.108C254.357 93.108 253.721 92.976 253.193 92.712C252.665 92.436 252.251 92.064 251.951 91.596V96.6H250.475V83.82H251.753L251.951 85.296C252.719 84.24 253.769 83.712 255.101 83.712ZM254.957 91.794C255.869 91.794 256.601 91.482 257.153 90.858C257.717 90.222 257.999 89.406 257.999 88.41C257.999 87.414 257.717 86.604 257.153 85.98C256.601 85.344 255.869 85.026 254.957 85.026C254.369 85.026 253.841 85.17 253.373 85.458C252.917 85.734 252.563 86.13 252.311 86.646C252.059 87.15 251.933 87.726 251.933 88.374C251.933 89.034 252.059 89.628 252.311 90.156C252.563 90.672 252.917 91.074 253.373 91.362C253.841 91.65 254.369 91.794 254.957 91.794ZM270.138 93.108C269.25 93.108 268.458 92.91 267.762 92.514C267.078 92.118 266.544 91.566 266.16 90.858C265.776 90.15 265.584 89.334 265.584 88.41C265.584 87.486 265.776 86.67 266.16 85.962C266.544 85.254 267.078 84.702 267.762 84.306C268.458 83.91 269.25 83.712 270.138 83.712C271.026 83.712 271.812 83.91 272.496 84.306C273.192 84.702 273.732 85.254 274.116 85.962C274.5 86.67 274.692 87.486 274.692 88.41C274.692 89.334 274.5 90.15 274.116 90.858C273.732 91.566 273.192 92.118 272.496 92.514C271.812 92.91 271.026 93.108 270.138 93.108ZM270.138 91.794C270.738 91.794 271.266 91.65 271.722 91.362C272.19 91.074 272.55 90.672 272.802 90.156C273.054 89.64 273.18 89.058 273.18 88.41C273.18 87.762 273.054 87.18 272.802 86.664C272.55 86.148 272.19 85.746 271.722 85.458C271.266 85.17 270.738 85.026 270.138 85.026C269.538 85.026 269.004 85.17 268.536 85.458C268.08 85.746 267.726 86.148 267.474 86.664C267.222 87.18 267.096 87.762 267.096 88.41C267.096 89.058 267.222 89.64 267.474 90.156C267.726 90.672 268.08 91.074 268.536 91.362C269.004 91.65 269.538 91.794 270.138 91.794ZM281.047 83.82V85.26H280.309C279.433 85.26 278.803 85.554 278.419 86.142C278.047 86.73 277.861 87.456 277.861 88.32V93H276.385V83.82H277.663L277.861 85.206C278.125 84.786 278.467 84.45 278.887 84.198C279.307 83.946 279.889 83.82 280.633 83.82H281.047ZM287.846 80.274C288.122 80.274 288.35 80.364 288.53 80.544C288.71 80.724 288.8 80.952 288.8 81.228C288.8 81.504 288.71 81.732 288.53 81.912C288.35 82.092 288.122 82.182 287.846 82.182C287.57 82.182 287.342 82.092 287.162 81.912C286.982 81.732 286.892 81.504 286.892 81.228C286.892 80.952 286.982 80.724 287.162 80.544C287.342 80.364 287.57 80.274 287.846 80.274ZM287.108 83.82H288.584V93H287.108V83.82ZM295.106 83.712C296.222 83.712 297.116 84.048 297.788 84.72C298.472 85.392 298.814 86.448 298.814 87.888V93H297.338V87.978C297.338 87.03 297.122 86.31 296.69 85.818C296.27 85.314 295.658 85.062 294.854 85.062C293.99 85.062 293.312 85.362 292.82 85.962C292.328 86.562 292.082 87.378 292.082 88.41V93H290.606V83.82H291.884L292.082 85.062C292.778 84.162 293.786 83.712 295.106 83.712ZM301.308 85.17H299.651V83.82H301.308V81.246H302.784V83.82H305.106V85.17H302.784V90.588C302.784 90.972 302.856 91.248 303 91.416C303.156 91.572 303.42 91.65 303.792 91.65H305.394V93H303.702C302.838 93 302.22 92.808 301.848 92.424C301.488 92.04 301.308 91.434 301.308 90.606V85.17ZM305.891 88.41C305.891 87.474 306.071 86.652 306.431 85.944C306.803 85.236 307.319 84.69 307.979 84.306C308.639 83.91 309.395 83.712 310.247 83.712C311.087 83.712 311.831 83.886 312.479 84.234C313.127 84.582 313.637 85.086 314.009 85.746C314.381 86.406 314.579 87.18 314.603 88.068C314.603 88.2 314.591 88.41 314.567 88.698H307.439V88.824C307.463 89.724 307.739 90.444 308.267 90.984C308.795 91.524 309.485 91.794 310.337 91.794C310.997 91.794 311.555 91.632 312.011 91.308C312.479 90.972 312.791 90.51 312.947 89.922H314.441C314.261 90.858 313.811 91.626 313.091 92.226C312.371 92.814 311.489 93.108 310.445 93.108C309.533 93.108 308.735 92.916 308.051 92.532C307.367 92.136 306.833 91.584 306.449 90.876C306.077 90.156 305.891 89.334 305.891 88.41ZM313.073 87.474C313.001 86.694 312.707 86.088 312.191 85.656C311.687 85.224 311.045 85.008 310.265 85.008C309.569 85.008 308.957 85.236 308.429 85.692C307.901 86.148 307.601 86.742 307.529 87.474H313.073ZM320.949 83.82V85.26H320.211C319.335 85.26 318.705 85.554 318.321 86.142C317.949 86.73 317.763 87.456 317.763 88.32V93H316.287V83.82H317.565L317.763 85.206C318.027 84.786 318.369 84.45 318.789 84.198C319.209 83.946 319.791 83.82 320.535 83.82H320.949ZM321.469 83.82H323.053L325.825 91.326L328.579 83.82H330.127L326.689 93H324.907L321.469 83.82ZM330.553 88.41C330.553 87.474 330.733 86.652 331.093 85.944C331.465 85.236 331.981 84.69 332.641 84.306C333.301 83.91 334.057 83.712 334.909 83.712C335.749 83.712 336.493 83.886 337.141 84.234C337.789 84.582 338.299 85.086 338.671 85.746C339.043 86.406 339.241 87.18 339.265 88.068C339.265 88.2 339.253 88.41 339.229 88.698H332.101V88.824C332.125 89.724 332.401 90.444 332.929 90.984C333.457 91.524 334.147 91.794 334.999 91.794C335.659 91.794 336.217 91.632 336.673 91.308C337.141 90.972 337.453 90.51 337.609 89.922H339.103C338.923 90.858 338.473 91.626 337.753 92.226C337.033 92.814 336.151 93.108 335.107 93.108C334.195 93.108 333.397 92.916 332.713 92.532C332.029 92.136 331.495 91.584 331.111 90.876C330.739 90.156 330.553 89.334 330.553 88.41ZM337.735 87.474C337.663 86.694 337.369 86.088 336.853 85.656C336.349 85.224 335.707 85.008 334.927 85.008C334.231 85.008 333.619 85.236 333.091 85.692C332.563 86.148 332.263 86.742 332.191 87.474H337.735ZM345.449 83.712C346.565 83.712 347.459 84.048 348.131 84.72C348.815 85.392 349.157 86.448 349.157 87.888V93H347.681V87.978C347.681 87.03 347.465 86.31 347.033 85.818C346.613 85.314 346.001 85.062 345.197 85.062C344.333 85.062 343.655 85.362 343.163 85.962C342.671 86.562 342.425 87.378 342.425 88.41V93H340.949V83.82H342.227L342.425 85.062C343.121 84.162 344.129 83.712 345.449 83.712ZM351.651 85.17H349.995V83.82H351.651V81.246H353.127V83.82H355.449V85.17H353.127V90.588C353.127 90.972 353.199 91.248 353.343 91.416C353.499 91.572 353.763 91.65 354.135 91.65H355.737V93H354.045C353.181 93 352.563 92.808 352.191 92.424C351.831 92.04 351.651 91.434 351.651 90.606V85.17ZM357.525 80.274C357.801 80.274 358.029 80.364 358.209 80.544C358.389 80.724 358.479 80.952 358.479 81.228C358.479 81.504 358.389 81.732 358.209 81.912C358.029 82.092 357.801 82.182 357.525 82.182C357.249 82.182 357.021 82.092 356.841 81.912C356.661 81.732 356.571 81.504 356.571 81.228C356.571 80.952 356.661 80.724 356.841 80.544C357.021 80.364 357.249 80.274 357.525 80.274ZM356.787 83.82H358.263V93H356.787V83.82ZM364.515 93.108C363.627 93.108 362.835 92.91 362.139 92.514C361.455 92.118 360.921 91.566 360.537 90.858C360.153 90.15 359.961 89.334 359.961 88.41C359.961 87.486 360.153 86.67 360.537 85.962C360.921 85.254 361.455 84.702 362.139 84.306C362.835 83.91 363.627 83.712 364.515 83.712C365.403 83.712 366.189 83.91 366.873 84.306C367.569 84.702 368.109 85.254 368.493 85.962C368.877 86.67 369.069 87.486 369.069 88.41C369.069 89.334 368.877 90.15 368.493 90.858C368.109 91.566 367.569 92.118 366.873 92.514C366.189 92.91 365.403 93.108 364.515 93.108ZM364.515 91.794C365.115 91.794 365.643 91.65 366.099 91.362C366.567 91.074 366.927 90.672 367.179 90.156C367.431 89.64 367.557 89.058 367.557 88.41C367.557 87.762 367.431 87.18 367.179 86.664C366.927 86.148 366.567 85.746 366.099 85.458C365.643 85.17 365.115 85.026 364.515 85.026C363.915 85.026 363.381 85.17 362.913 85.458C362.457 85.746 362.103 86.148 361.851 86.664C361.599 87.18 361.473 87.762 361.473 88.41C361.473 89.058 361.599 89.64 361.851 90.156C362.103 90.672 362.457 91.074 362.913 91.362C363.381 91.65 363.915 91.794 364.515 91.794ZM375.262 83.712C376.378 83.712 377.272 84.048 377.944 84.72C378.628 85.392 378.97 86.448 378.97 87.888V93H377.494V87.978C377.494 87.03 377.278 86.31 376.846 85.818C376.426 85.314 375.814 85.062 375.01 85.062C374.146 85.062 373.468 85.362 372.976 85.962C372.484 86.562 372.238 87.378 372.238 88.41V93H370.762V83.82H372.04L372.238 85.062C372.934 84.162 373.942 83.712 375.262 83.712ZM392.169 82.182C391.893 82.182 391.665 82.092 391.485 81.912C391.305 81.732 391.215 81.504 391.215 81.228C391.215 80.952 391.305 80.724 391.485 80.544C391.665 80.364 391.893 80.274 392.169 80.274C392.445 80.274 392.673 80.364 392.853 80.544C393.033 80.724 393.123 80.952 393.123 81.228C393.123 81.504 393.033 81.732 392.853 81.912C392.673 82.092 392.445 82.182 392.169 82.182ZM392.907 93H391.431V85.17H387.651V93H386.175V85.17H384.519V83.82H386.175V82.794C386.175 81.978 386.361 81.378 386.733 80.994C387.117 80.598 387.729 80.4 388.569 80.4H390.081V81.75H388.659C388.299 81.75 388.041 81.828 387.885 81.984C387.729 82.14 387.651 82.398 387.651 82.758V83.82H392.907V93ZM399.576 83.82V85.26H398.838C397.962 85.26 397.332 85.554 396.948 86.142C396.576 86.73 396.39 87.456 396.39 88.32V93H394.914V83.82H396.192L396.39 85.206C396.654 84.786 396.996 84.45 397.416 84.198C397.836 83.946 398.418 83.82 399.162 83.82H399.576ZM401.744 89.976C401.768 90.528 402.008 90.978 402.464 91.326C402.932 91.674 403.532 91.848 404.264 91.848C404.912 91.848 405.434 91.722 405.83 91.47C406.238 91.206 406.442 90.864 406.442 90.444C406.442 90.084 406.346 89.808 406.154 89.616C405.962 89.424 405.71 89.292 405.398 89.22C405.098 89.148 404.666 89.076 404.102 89.004C403.31 88.908 402.662 88.782 402.158 88.626C401.654 88.47 401.246 88.224 400.934 87.888C400.622 87.54 400.466 87.066 400.466 86.466C400.466 85.926 400.616 85.446 400.916 85.026C401.228 84.606 401.648 84.282 402.176 84.054C402.704 83.814 403.298 83.694 403.958 83.694C405.038 83.694 405.914 83.946 406.586 84.45C407.27 84.954 407.648 85.674 407.72 86.61H406.244C406.184 86.13 405.95 85.734 405.542 85.422C405.134 85.11 404.624 84.954 404.012 84.954C403.388 84.954 402.884 85.086 402.5 85.35C402.116 85.602 401.924 85.938 401.924 86.358C401.924 86.67 402.014 86.91 402.194 87.078C402.374 87.246 402.602 87.36 402.878 87.42C403.166 87.48 403.598 87.546 404.174 87.618C404.978 87.714 405.638 87.846 406.154 88.014C406.682 88.182 407.102 88.452 407.414 88.824C407.738 89.196 407.9 89.7 407.9 90.336C407.9 90.888 407.738 91.374 407.414 91.794C407.09 92.214 406.652 92.538 406.1 92.766C405.548 92.994 404.936 93.108 404.264 93.108C403.064 93.108 402.098 92.832 401.366 92.28C400.646 91.728 400.28 90.96 400.268 89.976H401.744ZM410.186 85.17H408.53V83.82H410.186V81.246H411.662V83.82H413.984V85.17H411.662V90.588C411.662 90.972 411.734 91.248 411.878 91.416C412.034 91.572 412.298 91.65 412.67 91.65H414.272V93H412.58C411.716 93 411.098 92.808 410.726 92.424C410.366 92.04 410.186 91.434 410.186 90.606V85.17ZM415.23 92.1C415.23 91.8 415.326 91.56 415.518 91.38C415.71 91.188 415.956 91.092 416.256 91.092C416.556 91.092 416.802 91.188 416.994 91.38C417.186 91.56 417.282 91.8 417.282 92.1C417.282 92.4 417.186 92.646 416.994 92.838C416.802 93.018 416.556 93.108 416.256 93.108C415.956 93.108 415.71 93.018 415.518 92.838C415.326 92.646 415.23 92.4 415.23 92.1Z" fill="black"/>
<path d="M542.833 421.5C542.833 422.973 544.027 424.167 545.5 424.167C546.973 424.167 548.167 422.973 548.167 421.5C548.167 420.027 546.973 418.833 545.5 418.833C544.027 418.833 542.833 420.027 542.833 421.5ZM474 80L473.728 80.4196C474.27 80.7709 474.816 81.13 475.365 81.4968L475.643 81.081L475.921 80.6653C475.368 80.2959 474.818 79.9343 474.272 79.5804L474 80ZM478.986 83.382L478.697 83.79C479.759 84.5422 480.831 85.3219 481.912 86.1291L482.211 85.7284L482.51 85.3277C481.423 84.5157 480.343 83.731 479.275 82.974L478.986 83.382ZM485.437 88.1971L485.129 88.5905C486.158 89.3979 487.195 90.2292 488.237 91.0845L488.555 90.698L488.872 90.3114C487.824 89.4515 486.781 88.6155 485.746 87.8036L485.437 88.1971ZM491.653 93.2971L491.328 93.6767C492.328 94.534 493.333 95.4128 494.341 96.3131L494.674 95.9401L495.007 95.5672C493.994 94.6624 492.984 93.7791 491.979 92.9174L491.653 93.2971ZM497.658 98.6585L497.317 99.0248C498.285 99.9244 499.256 100.843 500.228 101.782L500.575 101.422L500.922 101.063C499.946 100.12 498.971 99.1962 497.998 98.2922L497.658 98.6585ZM503.452 104.253L503.098 104.607C504.032 105.543 504.967 106.497 505.901 107.469L506.262 107.122L506.622 106.776C505.683 105.799 504.744 104.841 503.806 103.9L503.452 104.253ZM509.038 110.062L508.672 110.402C509.57 111.371 510.468 112.356 511.365 113.357L511.738 113.024L512.11 112.69C511.209 111.684 510.307 110.695 509.405 109.722L509.038 110.062ZM514.417 116.069L514.039 116.396C514.901 117.394 515.762 118.407 516.621 119.435L517.005 119.114L517.388 118.794C516.526 117.761 515.662 116.744 514.795 115.742L514.417 116.069ZM519.578 122.25L519.189 122.564C520.018 123.592 520.845 124.635 521.669 125.692L522.063 125.384L522.457 125.077C521.63 124.016 520.8 122.969 519.967 121.936L519.578 122.25ZM524.518 128.589L524.119 128.89C524.919 129.953 525.715 131.029 526.508 132.119L526.912 131.825L527.316 131.531C526.521 130.437 525.721 129.356 524.918 128.289L524.518 128.589ZM529.248 135.094L528.839 135.381C529.609 136.478 530.375 137.587 531.136 138.71L531.55 138.429L531.964 138.148C531.2 137.021 530.431 135.907 529.658 134.807L529.248 135.094ZM533.767 141.757L533.349 142.031C534.081 143.15 534.809 144.281 535.532 145.425L535.954 145.158L536.377 144.891C535.652 143.743 534.921 142.607 534.185 141.483L533.767 141.757ZM538.072 148.572L537.645 148.832C538.337 149.968 539.024 151.116 539.705 152.276L540.136 152.023L540.567 151.77C539.883 150.605 539.194 149.453 538.499 148.312L538.072 148.572ZM542.16 155.533L541.724 155.779C542.376 156.931 543.022 158.095 543.661 159.268L544.1 159.029L544.539 158.79C543.897 157.611 543.249 156.444 542.595 155.287L542.16 155.533ZM546.003 162.591L545.561 162.823C546.179 164.004 546.792 165.195 547.397 166.398L547.844 166.173L548.291 165.948C547.683 164.741 547.068 163.544 546.446 162.359L546.003 162.591ZM549.621 169.771L549.171 169.989C549.755 171.196 550.332 172.414 550.902 173.642L551.356 173.432L551.81 173.221C551.237 171.988 550.658 170.766 550.071 169.553L549.621 169.771ZM553.014 177.079L552.557 177.282C553.099 178.5 553.634 179.727 554.161 180.964L554.621 180.768L555.081 180.573C554.552 179.33 554.015 178.098 553.471 176.876L553.014 177.079ZM556.18 184.51L555.717 184.699C556.216 185.925 556.708 187.16 557.192 188.405L557.658 188.224L558.124 188.043C557.638 186.793 557.144 185.553 556.643 184.321L556.18 184.51ZM559.09 191.993L558.621 192.167C559.086 193.422 559.544 194.686 559.993 195.96L560.464 195.794L560.936 195.627C560.485 194.349 560.026 193.079 559.558 191.819L559.09 191.993ZM561.766 199.579L561.292 199.738C561.717 201.006 562.134 202.282 562.543 203.568L563.019 203.416L563.496 203.265C563.086 201.975 562.667 200.693 562.24 199.42L561.766 199.579ZM564.21 207.271L563.731 207.415C564.113 208.686 564.487 209.965 564.852 211.253L565.333 211.116L565.814 210.98C565.447 209.687 565.072 208.403 564.689 207.127L564.21 207.271ZM566.404 215.011L565.921 215.14C566.265 216.431 566.6 217.729 566.927 219.036L567.412 218.915L567.897 218.793C567.569 217.482 567.232 216.178 566.887 214.882L566.404 215.011ZM568.353 222.809L567.866 222.922C568.171 224.226 568.466 225.537 568.753 226.855L569.241 226.749L569.73 226.643C569.442 225.319 569.146 224.003 568.84 222.695L568.353 222.809ZM570.067 230.698L569.577 230.796C569.839 232.097 570.091 233.405 570.335 234.72L570.827 234.629L571.318 234.538C571.074 233.217 570.82 231.905 570.557 230.599L570.067 230.698ZM571.532 238.604L571.039 238.688C571.263 240.008 571.478 241.335 571.683 242.67L572.177 242.594L572.671 242.518C572.465 241.178 572.25 239.846 572.025 238.52L571.532 238.604ZM572.756 246.551L572.26 246.619C572.444 247.942 572.618 249.273 572.783 250.61L573.279 250.549L573.775 250.487C573.61 249.145 573.435 247.81 573.251 246.482L572.756 246.551ZM573.745 254.579L573.248 254.633C573.39 255.947 573.523 257.268 573.647 258.596L574.145 258.549L574.643 258.503C574.518 257.17 574.385 255.845 574.242 254.525L573.745 254.579ZM574.489 262.559L573.99 262.598C574.096 263.938 574.191 265.285 574.278 266.639L574.777 266.607L575.276 266.575C575.189 265.217 575.093 263.865 574.987 262.52L574.489 262.559ZM575.002 270.602L574.503 270.627C574.568 271.954 574.624 273.289 574.671 274.629L575.171 274.611L575.67 274.594C575.623 273.249 575.567 271.91 575.501 270.577L575.002 270.602ZM575.283 278.657L574.783 278.667C574.811 280.003 574.829 281.344 574.837 282.692L575.337 282.688L575.837 282.685C575.829 281.333 575.81 279.987 575.783 278.647L575.283 278.657ZM575.335 286.686L574.836 286.683C574.826 288.019 574.806 289.36 574.778 290.708L575.278 290.719L575.778 290.729C575.806 289.377 575.826 288.031 575.835 286.69L575.335 286.686ZM575.163 294.785L574.663 294.768C574.617 296.087 574.561 297.412 574.497 298.742L574.996 298.767L575.496 298.791C575.561 297.456 575.616 296.127 575.663 294.803L575.163 294.785ZM574.775 302.775L574.276 302.744C574.193 304.083 574.1 305.427 573.999 306.777L574.497 306.815L574.996 306.852C575.098 305.498 575.19 304.149 575.274 302.806L574.775 302.775ZM574.167 310.839L573.669 310.795C573.552 312.112 573.426 313.434 573.291 314.762L573.789 314.812L574.286 314.863C574.422 313.531 574.548 312.205 574.665 310.883L574.167 310.839ZM573.356 318.816L572.859 318.759C572.706 320.096 572.544 321.438 572.372 322.785L572.868 322.849L573.364 322.912C573.536 321.561 573.699 320.214 573.853 318.873L573.356 318.816ZM572.335 326.822L571.84 326.753C571.656 328.065 571.463 329.382 571.261 330.704L571.756 330.78L572.25 330.855C572.452 329.529 572.646 328.208 572.831 326.892L572.335 326.822ZM571.122 334.764L570.628 334.683C570.408 336.014 570.179 337.349 569.941 338.689L570.433 338.777L570.925 338.865C571.164 337.521 571.394 336.181 571.615 334.846L571.122 334.764ZM569.711 342.701L569.22 342.608C568.972 343.911 568.716 345.219 568.45 346.531L568.94 346.63L569.431 346.729C569.697 345.413 569.954 344.102 570.202 342.795L569.711 342.701ZM568.117 350.584L567.628 350.479C567.345 351.799 567.053 353.124 566.752 354.453L567.24 354.563L567.728 354.674C568.029 353.341 568.322 352.013 568.606 350.689L568.117 350.584ZM566.339 358.444L565.852 358.329C565.545 359.619 565.229 360.913 564.905 362.211L565.39 362.333L565.875 362.454C566.2 361.152 566.517 359.854 566.825 358.56L566.339 358.444ZM564.39 366.244L563.906 366.118C563.564 367.424 563.214 368.734 562.855 370.048L563.337 370.18L563.819 370.312C564.179 368.994 564.531 367.681 564.873 366.371L564.39 366.244ZM562.264 374.027L561.783 373.89C561.42 375.164 561.05 376.442 560.671 377.723L561.15 377.865L561.629 378.007C562.01 376.722 562.381 375.441 562.745 374.164L562.264 374.027ZM559.986 381.724L559.508 381.578C559.112 382.866 558.708 384.158 558.295 385.454L558.772 385.606L559.248 385.757C559.662 384.458 560.067 383.163 560.464 381.871L559.986 381.724ZM557.532 389.433L557.057 389.277C556.643 390.531 556.222 391.789 555.793 393.05L556.266 393.212L556.739 393.373C557.17 392.108 557.592 390.847 558.007 389.59L557.532 389.433ZM554.952 397.01L554.48 396.844C554.035 398.112 553.581 399.384 553.12 400.658L553.59 400.828L554.06 400.999C554.523 399.721 554.977 398.447 555.424 397.176L554.952 397.01ZM552.184 404.653L551.715 404.478C551.256 405.711 550.788 406.946 550.313 408.185L550.78 408.364L551.247 408.543C551.723 407.302 552.191 406.063 552.652 404.828L552.184 404.653ZM549.33 412.094L548.864 411.911C548.374 413.156 547.876 414.404 547.37 415.655L547.833 415.843L548.297 416.03C548.804 414.776 549.303 413.525 549.795 412.278L549.33 412.094ZM546.29 419.609L545.828 419.418C545.567 420.047 545.304 420.676 545.039 421.306L545.5 421.5L545.961 421.694C546.226 421.062 546.49 420.431 546.751 419.801L546.29 419.609Z" fill="white"/>
</svg>
