<svg width="706" height="540" viewBox="0 0 706 540" fill="none" xmlns="http://www.w3.org/2000/svg">
<rect opacity="0.5" x="33" y="396" width="175" height="40" rx="5" fill="white"/>
<path d="M89.4554 418.812H89.3474C89.2754 418.988 89.1874 419.156 89.0834 419.316C88.9794 419.476 88.8514 419.62 88.6994 419.748C88.5474 419.868 88.3674 419.964 88.1594 420.036C87.9594 420.108 87.7314 420.144 87.4754 420.144C87.0674 420.144 86.7034 420.048 86.3834 419.856C86.0714 419.664 85.8074 419.384 85.5914 419.016C85.3754 418.648 85.2114 418.2 85.0994 417.672C84.9954 417.144 84.9434 416.548 84.9434 415.884C84.9434 414.46 85.2034 413.372 85.7234 412.62C86.2434 411.86 87.0474 411.48 88.1354 411.48C88.5674 411.48 88.9474 411.54 89.2754 411.66C89.6034 411.772 89.8834 411.936 90.1154 412.152C90.3554 412.36 90.5514 412.612 90.7034 412.908C90.8554 413.204 90.9754 413.532 91.0634 413.892L89.3834 414.3C89.3354 414.124 89.2794 413.956 89.2154 413.796C89.1594 413.628 89.0834 413.48 88.9874 413.352C88.8914 413.224 88.7714 413.124 88.6274 413.052C88.4834 412.972 88.3074 412.932 88.0994 412.932C87.6434 412.932 87.3194 413.12 87.1274 413.496C86.9434 413.872 86.8514 414.4 86.8514 415.08V416.448C86.8514 417.128 86.9514 417.672 87.1514 418.08C87.3594 418.488 87.7234 418.692 88.2434 418.692C88.6514 418.692 88.9554 418.572 89.1554 418.332C89.3554 418.092 89.4554 417.784 89.4554 417.408V416.796H88.0274V415.524H91.0634V420H89.4554V418.812ZM92.6788 420V411.624H98.0308V413.1H94.4788V415.02H97.9108V416.496H94.4788V418.524H98.0308V420H92.6788ZM101.314 414.432H101.182V420H99.6461V411.624H101.806L103.714 417.192H103.846V411.624H105.382V420H103.222L101.314 414.432ZM107.069 420V411.624H112.421V413.1H108.869V415.02H112.301V416.496H108.869V418.524H112.421V420H107.069ZM115.993 420H114.217V411.624H117.457C117.865 411.624 118.229 411.688 118.549 411.816C118.869 411.936 119.137 412.112 119.353 412.344C119.577 412.576 119.745 412.856 119.857 413.184C119.969 413.512 120.025 413.88 120.025 414.288C120.025 414.88 119.897 415.388 119.641 415.812C119.385 416.236 119.021 416.516 118.549 416.652L120.193 420H118.225L116.821 416.892H115.993V420ZM117.025 415.5C117.449 415.5 117.741 415.42 117.901 415.26C118.069 415.1 118.153 414.836 118.153 414.468V414.108C118.153 413.74 118.069 413.476 117.901 413.316C117.741 413.156 117.449 413.076 117.025 413.076H115.993V415.5H117.025ZM125.72 420L125.192 417.984H122.9L122.384 420H120.56L122.828 411.624H125.372L127.64 420H125.72ZM124.1 413.364H124.004L123.188 416.532H124.916L124.1 413.364ZM132.195 413.1V420H130.395V413.1H127.983V411.624H134.607V413.1H132.195ZM135.791 420V418.668H137.591V412.956H135.791V411.624H141.191V412.956H139.391V418.668H141.191V420H135.791ZM144.486 414.432H144.354V420H142.818V411.624H144.978L146.886 417.192H147.018V411.624H148.554V420H146.394L144.486 414.432ZM154.213 418.812H154.105C154.033 418.988 153.945 419.156 153.841 419.316C153.737 419.476 153.609 419.62 153.457 419.748C153.305 419.868 153.125 419.964 152.917 420.036C152.717 420.108 152.489 420.144 152.233 420.144C151.825 420.144 151.461 420.048 151.141 419.856C150.829 419.664 150.565 419.384 150.349 419.016C150.133 418.648 149.969 418.2 149.857 417.672C149.753 417.144 149.701 416.548 149.701 415.884C149.701 414.46 149.961 413.372 150.481 412.62C151.001 411.86 151.805 411.48 152.893 411.48C153.325 411.48 153.705 411.54 154.033 411.66C154.361 411.772 154.641 411.936 154.873 412.152C155.113 412.36 155.309 412.612 155.461 412.908C155.613 413.204 155.733 413.532 155.821 413.892L154.141 414.3C154.093 414.124 154.037 413.956 153.973 413.796C153.917 413.628 153.841 413.48 153.745 413.352C153.649 413.224 153.529 413.124 153.385 413.052C153.241 412.972 153.065 412.932 152.857 412.932C152.401 412.932 152.077 413.12 151.885 413.496C151.701 413.872 151.609 414.4 151.609 415.08V416.448C151.609 417.128 151.709 417.672 151.909 418.08C152.117 418.488 152.481 418.692 153.001 418.692C153.409 418.692 153.713 418.572 153.913 418.332C154.113 418.092 154.213 417.784 154.213 417.408V416.796H152.785V415.524H155.821V420H154.213V418.812Z" fill="white"/>
<rect opacity="0.8" x="680" y="125" width="462" height="89" rx="9" transform="rotate(-180 680 125)" fill="white"/>
<path d="M280.198 74L285.004 61.4H286.858L291.646 74H289.972L288.64 70.598H283.15L281.818 74H280.198ZM283.618 69.176H288.172L285.886 63.11L283.618 69.176ZM297.356 64.712C298.472 64.712 299.366 65.048 300.038 65.72C300.722 66.392 301.064 67.448 301.064 68.888V74H299.588V68.978C299.588 68.03 299.372 67.31 298.94 66.818C298.52 66.314 297.908 66.062 297.104 66.062C296.24 66.062 295.562 66.362 295.07 66.962C294.578 67.562 294.332 68.378 294.332 69.41V74H292.856V64.82H294.134L294.332 66.062C295.028 65.162 296.036 64.712 297.356 64.712ZM311.532 72.65V74H310.722C310.134 74 309.714 73.88 309.462 73.64C309.21 73.4 309.078 73.046 309.066 72.578C308.358 73.598 307.332 74.108 305.988 74.108C304.968 74.108 304.146 73.868 303.522 73.388C302.91 72.908 302.604 72.254 302.604 71.426C302.604 70.502 302.916 69.794 303.54 69.302C304.176 68.81 305.094 68.564 306.294 68.564H308.994V67.934C308.994 67.334 308.79 66.866 308.382 66.53C307.986 66.194 307.428 66.026 306.708 66.026C306.072 66.026 305.544 66.17 305.124 66.458C304.716 66.734 304.464 67.106 304.368 67.574H302.892C303 66.674 303.396 65.972 304.08 65.468C304.776 64.964 305.676 64.712 306.78 64.712C307.956 64.712 308.862 65 309.498 65.576C310.146 66.14 310.47 66.956 310.47 68.024V71.984C310.47 72.428 310.674 72.65 311.082 72.65H311.532ZM308.994 69.806H306.15C304.782 69.806 304.098 70.316 304.098 71.336C304.098 71.792 304.278 72.158 304.638 72.434C304.998 72.71 305.484 72.848 306.096 72.848C306.996 72.848 307.704 72.614 308.22 72.146C308.736 71.666 308.994 71.036 308.994 70.256V69.806ZM312.666 61.4H314.142V74H312.666V61.4ZM316.812 64.82L319.638 72.308L322.374 64.82H323.94L319.71 75.548C319.494 76.1 319.302 76.514 319.134 76.79C318.966 77.066 318.756 77.27 318.504 77.402C318.252 77.534 317.916 77.6 317.496 77.6H315.732V76.25H317.046C317.334 76.25 317.55 76.22 317.694 76.16C317.838 76.1 317.952 75.998 318.036 75.854C318.132 75.722 318.246 75.494 318.378 75.17L318.846 74.072L315.246 64.82H316.812ZM324.523 64.82H331.831V65.936L326.251 72.65H332.065V74H324.289V72.884L329.851 66.17H324.523V64.82ZM332.663 69.41C332.663 68.474 332.843 67.652 333.203 66.944C333.575 66.236 334.091 65.69 334.751 65.306C335.411 64.91 336.167 64.712 337.019 64.712C337.859 64.712 338.603 64.886 339.251 65.234C339.899 65.582 340.409 66.086 340.781 66.746C341.153 67.406 341.351 68.18 341.375 69.068C341.375 69.2 341.363 69.41 341.339 69.698H334.211V69.824C334.235 70.724 334.511 71.444 335.039 71.984C335.567 72.524 336.257 72.794 337.109 72.794C337.769 72.794 338.327 72.632 338.783 72.308C339.251 71.972 339.563 71.51 339.719 70.922H341.213C341.033 71.858 340.583 72.626 339.863 73.226C339.143 73.814 338.261 74.108 337.217 74.108C336.305 74.108 335.507 73.916 334.823 73.532C334.139 73.136 333.605 72.584 333.221 71.876C332.849 71.156 332.663 70.334 332.663 69.41ZM339.845 68.474C339.773 67.694 339.479 67.088 338.963 66.656C338.459 66.224 337.817 66.008 337.037 66.008C336.341 66.008 335.729 66.236 335.201 66.692C334.673 67.148 334.373 67.742 334.301 68.474H339.845ZM352.27 64.712C353.386 64.712 354.286 65.048 354.97 65.72C355.654 66.392 355.996 67.448 355.996 68.888V74H354.52V68.978C354.52 68.03 354.304 67.31 353.872 66.818C353.44 66.314 352.822 66.062 352.018 66.062C351.166 66.062 350.488 66.362 349.984 66.962C349.492 67.562 349.246 68.378 349.246 69.41V74H347.77V61.4H349.246V66.332C349.546 65.852 349.942 65.462 350.434 65.162C350.938 64.862 351.55 64.712 352.27 64.712ZM358.615 61.274C358.891 61.274 359.119 61.364 359.299 61.544C359.479 61.724 359.569 61.952 359.569 62.228C359.569 62.504 359.479 62.732 359.299 62.912C359.119 63.092 358.891 63.182 358.615 63.182C358.339 63.182 358.111 63.092 357.931 62.912C357.751 62.732 357.661 62.504 357.661 62.228C357.661 61.952 357.751 61.724 357.931 61.544C358.111 61.364 358.339 61.274 358.615 61.274ZM357.877 64.82H359.353V74H357.877V64.82ZM362.527 70.976C362.551 71.528 362.791 71.978 363.247 72.326C363.715 72.674 364.315 72.848 365.047 72.848C365.695 72.848 366.217 72.722 366.613 72.47C367.021 72.206 367.225 71.864 367.225 71.444C367.225 71.084 367.129 70.808 366.937 70.616C366.745 70.424 366.493 70.292 366.181 70.22C365.881 70.148 365.449 70.076 364.885 70.004C364.093 69.908 363.445 69.782 362.941 69.626C362.437 69.47 362.029 69.224 361.717 68.888C361.405 68.54 361.249 68.066 361.249 67.466C361.249 66.926 361.399 66.446 361.699 66.026C362.011 65.606 362.431 65.282 362.959 65.054C363.487 64.814 364.081 64.694 364.741 64.694C365.821 64.694 366.697 64.946 367.369 65.45C368.053 65.954 368.431 66.674 368.503 67.61H367.027C366.967 67.13 366.733 66.734 366.325 66.422C365.917 66.11 365.407 65.954 364.795 65.954C364.171 65.954 363.667 66.086 363.283 66.35C362.899 66.602 362.707 66.938 362.707 67.358C362.707 67.67 362.797 67.91 362.977 68.078C363.157 68.246 363.385 68.36 363.661 68.42C363.949 68.48 364.381 68.546 364.957 68.618C365.761 68.714 366.421 68.846 366.937 69.014C367.465 69.182 367.885 69.452 368.197 69.824C368.521 70.196 368.683 70.7 368.683 71.336C368.683 71.888 368.521 72.374 368.197 72.794C367.873 73.214 367.435 73.538 366.883 73.766C366.331 73.994 365.719 74.108 365.047 74.108C363.847 74.108 362.881 73.832 362.149 73.28C361.429 72.728 361.063 71.96 361.051 70.976H362.527ZM370.97 66.17H369.314V64.82H370.97V62.246H372.446V64.82H374.768V66.17H372.446V71.588C372.446 71.972 372.518 72.248 372.662 72.416C372.818 72.572 373.082 72.65 373.454 72.65H375.056V74H373.364C372.5 74 371.882 73.808 371.51 73.424C371.15 73.04 370.97 72.434 370.97 71.606V66.17ZM380.107 74.108C379.219 74.108 378.427 73.91 377.731 73.514C377.047 73.118 376.513 72.566 376.129 71.858C375.745 71.15 375.553 70.334 375.553 69.41C375.553 68.486 375.745 67.67 376.129 66.962C376.513 66.254 377.047 65.702 377.731 65.306C378.427 64.91 379.219 64.712 380.107 64.712C380.995 64.712 381.781 64.91 382.465 65.306C383.161 65.702 383.701 66.254 384.085 66.962C384.469 67.67 384.661 68.486 384.661 69.41C384.661 70.334 384.469 71.15 384.085 71.858C383.701 72.566 383.161 73.118 382.465 73.514C381.781 73.91 380.995 74.108 380.107 74.108ZM380.107 72.794C380.707 72.794 381.235 72.65 381.691 72.362C382.159 72.074 382.519 71.672 382.771 71.156C383.023 70.64 383.149 70.058 383.149 69.41C383.149 68.762 383.023 68.18 382.771 67.664C382.519 67.148 382.159 66.746 381.691 66.458C381.235 66.17 380.707 66.026 380.107 66.026C379.507 66.026 378.973 66.17 378.505 66.458C378.049 66.746 377.695 67.148 377.443 67.664C377.191 68.18 377.065 68.762 377.065 69.41C377.065 70.058 377.191 70.64 377.443 71.156C377.695 71.672 378.049 72.074 378.505 72.362C378.973 72.65 379.507 72.794 380.107 72.794ZM391.016 64.82V66.26H390.278C389.402 66.26 388.772 66.554 388.388 67.142C388.016 67.73 387.83 68.456 387.83 69.32V74H386.354V64.82H387.632L387.83 66.206C388.094 65.786 388.436 65.45 388.856 65.198C389.276 64.946 389.858 64.82 390.602 64.82H391.016ZM393.103 61.274C393.379 61.274 393.607 61.364 393.787 61.544C393.967 61.724 394.057 61.952 394.057 62.228C394.057 62.504 393.967 62.732 393.787 62.912C393.607 63.092 393.379 63.182 393.103 63.182C392.827 63.182 392.599 63.092 392.419 62.912C392.239 62.732 392.149 62.504 392.149 62.228C392.149 61.952 392.239 61.724 392.419 61.544C392.599 61.364 392.827 61.274 393.103 61.274ZM392.365 64.82H393.841V74H392.365V64.82ZM404.053 70.832C403.861 71.852 403.411 72.656 402.703 73.244C401.995 73.82 401.095 74.108 400.003 74.108C399.115 74.108 398.335 73.91 397.663 73.514C396.991 73.118 396.469 72.566 396.097 71.858C395.725 71.138 395.539 70.316 395.539 69.392C395.539 68.468 395.725 67.652 396.097 66.944C396.481 66.236 397.015 65.69 397.699 65.306C398.383 64.91 399.169 64.712 400.057 64.712C401.137 64.712 402.025 65 402.721 65.576C403.429 66.152 403.873 66.944 404.053 67.952H402.559C402.415 67.364 402.115 66.896 401.659 66.548C401.203 66.2 400.651 66.026 400.003 66.026C399.127 66.026 398.413 66.338 397.861 66.962C397.321 67.586 397.051 68.396 397.051 69.392C397.051 70.4 397.321 71.222 397.861 71.858C398.413 72.482 399.127 72.794 400.003 72.794C400.675 72.794 401.239 72.62 401.695 72.272C402.151 71.924 402.445 71.444 402.577 70.832H404.053ZM414.346 72.65V74H413.536C412.948 74 412.528 73.88 412.276 73.64C412.024 73.4 411.892 73.046 411.88 72.578C411.172 73.598 410.146 74.108 408.802 74.108C407.782 74.108 406.96 73.868 406.336 73.388C405.724 72.908 405.418 72.254 405.418 71.426C405.418 70.502 405.73 69.794 406.354 69.302C406.99 68.81 407.908 68.564 409.108 68.564H411.808V67.934C411.808 67.334 411.604 66.866 411.196 66.53C410.8 66.194 410.242 66.026 409.522 66.026C408.886 66.026 408.358 66.17 407.938 66.458C407.53 66.734 407.278 67.106 407.182 67.574H405.706C405.814 66.674 406.21 65.972 406.894 65.468C407.59 64.964 408.49 64.712 409.594 64.712C410.77 64.712 411.676 65 412.312 65.576C412.96 66.14 413.284 66.956 413.284 68.024V71.984C413.284 72.428 413.488 72.65 413.896 72.65H414.346ZM411.808 69.806H408.964C407.596 69.806 406.912 70.316 406.912 71.336C406.912 71.792 407.092 72.158 407.452 72.434C407.812 72.71 408.298 72.848 408.91 72.848C409.81 72.848 410.518 72.614 411.034 72.146C411.55 71.666 411.808 71.036 411.808 70.256V69.806ZM415.481 61.4H416.957V74H415.481V61.4ZM424.428 61.274C424.704 61.274 424.932 61.364 425.112 61.544C425.292 61.724 425.382 61.952 425.382 62.228C425.382 62.504 425.292 62.732 425.112 62.912C424.932 63.092 424.704 63.182 424.428 63.182C424.152 63.182 423.924 63.092 423.744 62.912C423.564 62.732 423.474 62.504 423.474 62.228C423.474 61.952 423.564 61.724 423.744 61.544C423.924 61.364 424.152 61.274 424.428 61.274ZM423.69 64.82H425.166V74H423.69V64.82ZM431.688 64.712C432.804 64.712 433.698 65.048 434.37 65.72C435.054 66.392 435.396 67.448 435.396 68.888V74H433.92V68.978C433.92 68.03 433.704 67.31 433.272 66.818C432.852 66.314 432.24 66.062 431.436 66.062C430.572 66.062 429.894 66.362 429.402 66.962C428.91 67.562 428.664 68.378 428.664 69.41V74H427.188V64.82H428.466L428.664 66.062C429.36 65.162 430.368 64.712 431.688 64.712ZM445.468 70.832C445.276 71.852 444.826 72.656 444.118 73.244C443.41 73.82 442.51 74.108 441.418 74.108C440.53 74.108 439.75 73.91 439.078 73.514C438.406 73.118 437.884 72.566 437.512 71.858C437.14 71.138 436.954 70.316 436.954 69.392C436.954 68.468 437.14 67.652 437.512 66.944C437.896 66.236 438.43 65.69 439.114 65.306C439.798 64.91 440.584 64.712 441.472 64.712C442.552 64.712 443.44 65 444.136 65.576C444.844 66.152 445.288 66.944 445.468 67.952H443.974C443.83 67.364 443.53 66.896 443.074 66.548C442.618 66.2 442.066 66.026 441.418 66.026C440.542 66.026 439.828 66.338 439.276 66.962C438.736 67.586 438.466 68.396 438.466 69.392C438.466 70.4 438.736 71.222 439.276 71.858C439.828 72.482 440.542 72.794 441.418 72.794C442.09 72.794 442.654 72.62 443.11 72.272C443.566 71.924 443.86 71.444 443.992 70.832H445.468ZM447.912 61.274C448.188 61.274 448.416 61.364 448.596 61.544C448.776 61.724 448.866 61.952 448.866 62.228C448.866 62.504 448.776 62.732 448.596 62.912C448.416 63.092 448.188 63.182 447.912 63.182C447.636 63.182 447.408 63.092 447.228 62.912C447.048 62.732 446.958 62.504 446.958 62.228C446.958 61.952 447.048 61.724 447.228 61.544C447.408 61.364 447.636 61.274 447.912 61.274ZM447.174 64.82H448.65V74H447.174V64.82ZM459.384 61.4V74H458.106L457.908 72.524C457.14 73.58 456.09 74.108 454.758 74.108C453.906 74.108 453.144 73.922 452.472 73.55C451.812 73.178 451.29 72.638 450.906 71.93C450.534 71.222 450.348 70.382 450.348 69.41C450.348 68.486 450.534 67.67 450.906 66.962C451.29 66.254 451.818 65.702 452.49 65.306C453.162 64.91 453.918 64.712 454.758 64.712C455.502 64.712 456.138 64.85 456.666 65.126C457.194 65.39 457.608 65.756 457.908 66.224V61.4H459.384ZM454.902 72.794C455.49 72.794 456.012 72.656 456.468 72.38C456.936 72.092 457.296 71.696 457.548 71.192C457.8 70.676 457.926 70.094 457.926 69.446C457.926 68.786 457.8 68.198 457.548 67.682C457.296 67.154 456.936 66.746 456.468 66.458C456.012 66.17 455.49 66.026 454.902 66.026C453.99 66.026 453.252 66.344 452.688 66.98C452.136 67.604 451.86 68.414 451.86 69.41C451.86 70.406 452.136 71.222 452.688 71.858C453.252 72.482 453.99 72.794 454.902 72.794ZM461.071 69.41C461.071 68.474 461.251 67.652 461.611 66.944C461.983 66.236 462.499 65.69 463.159 65.306C463.819 64.91 464.575 64.712 465.427 64.712C466.267 64.712 467.011 64.886 467.659 65.234C468.307 65.582 468.817 66.086 469.189 66.746C469.561 67.406 469.759 68.18 469.783 69.068C469.783 69.2 469.771 69.41 469.747 69.698H462.619V69.824C462.643 70.724 462.919 71.444 463.447 71.984C463.975 72.524 464.665 72.794 465.517 72.794C466.177 72.794 466.735 72.632 467.191 72.308C467.659 71.972 467.971 71.51 468.127 70.922H469.621C469.441 71.858 468.991 72.626 468.271 73.226C467.551 73.814 466.669 74.108 465.625 74.108C464.713 74.108 463.915 73.916 463.231 73.532C462.547 73.136 462.013 72.584 461.629 71.876C461.257 71.156 461.071 70.334 461.071 69.41ZM468.253 68.474C468.181 67.694 467.887 67.088 467.371 66.656C466.867 66.224 466.225 66.008 465.445 66.008C464.749 66.008 464.137 66.236 463.609 66.692C463.081 67.148 462.781 67.742 462.709 68.474H468.253ZM475.967 64.712C477.083 64.712 477.977 65.048 478.649 65.72C479.333 66.392 479.675 67.448 479.675 68.888V74H478.199V68.978C478.199 68.03 477.983 67.31 477.551 66.818C477.131 66.314 476.519 66.062 475.715 66.062C474.851 66.062 474.173 66.362 473.681 66.962C473.189 67.562 472.943 68.378 472.943 69.41V74H471.467V64.82H472.745L472.943 66.062C473.639 65.162 474.647 64.712 475.967 64.712ZM482.169 66.17H480.513V64.82H482.169V62.246H483.645V64.82H485.967V66.17H483.645V71.588C483.645 71.972 483.717 72.248 483.861 72.416C484.017 72.572 484.281 72.65 484.653 72.65H486.255V74H484.563C483.699 74 483.081 73.808 482.709 73.424C482.349 73.04 482.169 72.434 482.169 71.606V66.17ZM500.728 61.4V74H499.45L499.252 72.524C498.484 73.58 497.434 74.108 496.102 74.108C495.25 74.108 494.488 73.922 493.816 73.55C493.156 73.178 492.634 72.638 492.25 71.93C491.878 71.222 491.692 70.382 491.692 69.41C491.692 68.486 491.878 67.67 492.25 66.962C492.634 66.254 493.162 65.702 493.834 65.306C494.506 64.91 495.262 64.712 496.102 64.712C496.846 64.712 497.482 64.85 498.01 65.126C498.538 65.39 498.952 65.756 499.252 66.224V61.4H500.728ZM496.246 72.794C496.834 72.794 497.356 72.656 497.812 72.38C498.28 72.092 498.64 71.696 498.892 71.192C499.144 70.676 499.27 70.094 499.27 69.446C499.27 68.786 499.144 68.198 498.892 67.682C498.64 67.154 498.28 66.746 497.812 66.458C497.356 66.17 496.834 66.026 496.246 66.026C495.334 66.026 494.596 66.344 494.032 66.98C493.48 67.604 493.204 68.414 493.204 69.41C493.204 70.406 493.48 71.222 494.032 71.858C494.596 72.482 495.334 72.794 496.246 72.794ZM511.324 72.65V74H510.514C509.926 74 509.506 73.88 509.254 73.64C509.002 73.4 508.87 73.046 508.858 72.578C508.15 73.598 507.124 74.108 505.78 74.108C504.76 74.108 503.938 73.868 503.314 73.388C502.702 72.908 502.396 72.254 502.396 71.426C502.396 70.502 502.708 69.794 503.332 69.302C503.968 68.81 504.886 68.564 506.086 68.564H508.786V67.934C508.786 67.334 508.582 66.866 508.174 66.53C507.778 66.194 507.22 66.026 506.5 66.026C505.864 66.026 505.336 66.17 504.916 66.458C504.508 66.734 504.256 67.106 504.16 67.574H502.684C502.792 66.674 503.188 65.972 503.872 65.468C504.568 64.964 505.468 64.712 506.572 64.712C507.748 64.712 508.654 65 509.29 65.576C509.938 66.14 510.262 66.956 510.262 68.024V71.984C510.262 72.428 510.466 72.65 510.874 72.65H511.324ZM508.786 69.806H505.942C504.574 69.806 503.89 70.316 503.89 71.336C503.89 71.792 504.07 72.158 504.43 72.434C504.79 72.71 505.276 72.848 505.888 72.848C506.788 72.848 507.496 72.614 508.012 72.146C508.528 71.666 508.786 71.036 508.786 70.256V69.806ZM513.071 66.17H511.415V64.82H513.071V62.246H514.547V64.82H516.869V66.17H514.547V71.588C514.547 71.972 514.619 72.248 514.763 72.416C514.919 72.572 515.183 72.65 515.555 72.65H517.157V74H515.465C514.601 74 513.983 73.808 513.611 73.424C513.251 73.04 513.071 72.434 513.071 71.606V66.17ZM526.653 72.65V74H525.843C525.255 74 524.835 73.88 524.583 73.64C524.331 73.4 524.199 73.046 524.187 72.578C523.479 73.598 522.453 74.108 521.109 74.108C520.089 74.108 519.267 73.868 518.643 73.388C518.031 72.908 517.725 72.254 517.725 71.426C517.725 70.502 518.037 69.794 518.661 69.302C519.297 68.81 520.215 68.564 521.415 68.564H524.115V67.934C524.115 67.334 523.911 66.866 523.503 66.53C523.107 66.194 522.549 66.026 521.829 66.026C521.193 66.026 520.665 66.17 520.245 66.458C519.837 66.734 519.585 67.106 519.489 67.574H518.013C518.121 66.674 518.517 65.972 519.201 65.468C519.897 64.964 520.797 64.712 521.901 64.712C523.077 64.712 523.983 65 524.619 65.576C525.267 66.14 525.591 66.956 525.591 68.024V71.984C525.591 72.428 525.795 72.65 526.203 72.65H526.653ZM524.115 69.806H521.271C519.903 69.806 519.219 70.316 519.219 71.336C519.219 71.792 519.399 72.158 519.759 72.434C520.119 72.71 520.605 72.848 521.217 72.848C522.117 72.848 522.825 72.614 523.341 72.146C523.857 71.666 524.115 71.036 524.115 70.256V69.806ZM541.084 72.65V74H540.274C539.686 74 539.266 73.88 539.014 73.64C538.762 73.4 538.63 73.046 538.618 72.578C537.91 73.598 536.884 74.108 535.54 74.108C534.52 74.108 533.698 73.868 533.074 73.388C532.462 72.908 532.156 72.254 532.156 71.426C532.156 70.502 532.468 69.794 533.092 69.302C533.728 68.81 534.646 68.564 535.846 68.564H538.546V67.934C538.546 67.334 538.342 66.866 537.934 66.53C537.538 66.194 536.98 66.026 536.26 66.026C535.624 66.026 535.096 66.17 534.676 66.458C534.268 66.734 534.016 67.106 533.92 67.574H532.444C532.552 66.674 532.948 65.972 533.632 65.468C534.328 64.964 535.228 64.712 536.332 64.712C537.508 64.712 538.414 65 539.05 65.576C539.698 66.14 540.022 66.956 540.022 68.024V71.984C540.022 72.428 540.226 72.65 540.634 72.65H541.084ZM538.546 69.806H535.702C534.334 69.806 533.65 70.316 533.65 71.336C533.65 71.792 533.83 72.158 534.19 72.434C534.55 72.71 535.036 72.848 535.648 72.848C536.548 72.848 537.256 72.614 537.772 72.146C538.288 71.666 538.546 71.036 538.546 70.256V69.806ZM546.719 64.712C547.835 64.712 548.729 65.048 549.401 65.72C550.085 66.392 550.427 67.448 550.427 68.888V74H548.951V68.978C548.951 68.03 548.735 67.31 548.303 66.818C547.883 66.314 547.271 66.062 546.467 66.062C545.603 66.062 544.925 66.362 544.433 66.962C543.941 67.562 543.695 68.378 543.695 69.41V74H542.219V64.82H543.497L543.695 66.062C544.391 65.162 545.399 64.712 546.719 64.712ZM561.021 61.4V74H559.743L559.545 72.524C558.777 73.58 557.727 74.108 556.395 74.108C555.543 74.108 554.781 73.922 554.109 73.55C553.449 73.178 552.927 72.638 552.543 71.93C552.171 71.222 551.985 70.382 551.985 69.41C551.985 68.486 552.171 67.67 552.543 66.962C552.927 66.254 553.455 65.702 554.127 65.306C554.799 64.91 555.555 64.712 556.395 64.712C557.139 64.712 557.775 64.85 558.303 65.126C558.831 65.39 559.245 65.756 559.545 66.224V61.4H561.021ZM556.539 72.794C557.127 72.794 557.649 72.656 558.105 72.38C558.573 72.092 558.933 71.696 559.185 71.192C559.437 70.676 559.563 70.094 559.563 69.446C559.563 68.786 559.437 68.198 559.185 67.682C558.933 67.154 558.573 66.746 558.105 66.458C557.649 66.17 557.127 66.026 556.539 66.026C555.627 66.026 554.889 66.344 554.325 66.98C553.773 67.604 553.497 68.414 553.497 69.41C553.497 70.406 553.773 71.222 554.325 71.858C554.889 72.482 555.627 72.794 556.539 72.794ZM572.404 64.82V66.26H571.666C570.79 66.26 570.16 66.554 569.776 67.142C569.404 67.73 569.218 68.456 569.218 69.32V74H567.742V64.82H569.02L569.218 66.206C569.482 65.786 569.824 65.45 570.244 65.198C570.664 64.946 571.246 64.82 571.99 64.82H572.404ZM572.903 69.41C572.903 68.474 573.083 67.652 573.443 66.944C573.815 66.236 574.331 65.69 574.991 65.306C575.651 64.91 576.407 64.712 577.259 64.712C578.099 64.712 578.843 64.886 579.491 65.234C580.139 65.582 580.649 66.086 581.021 66.746C581.393 67.406 581.591 68.18 581.615 69.068C581.615 69.2 581.603 69.41 581.579 69.698H574.451V69.824C574.475 70.724 574.751 71.444 575.279 71.984C575.807 72.524 576.497 72.794 577.349 72.794C578.009 72.794 578.567 72.632 579.023 72.308C579.491 71.972 579.803 71.51 579.959 70.922H581.453C581.273 71.858 580.823 72.626 580.103 73.226C579.383 73.814 578.501 74.108 577.457 74.108C576.545 74.108 575.747 73.916 575.063 73.532C574.379 73.136 573.845 72.584 573.461 71.876C573.089 71.156 572.903 70.334 572.903 69.41ZM580.085 68.474C580.013 67.694 579.719 67.088 579.203 66.656C578.699 66.224 578.057 66.008 577.277 66.008C576.581 66.008 575.969 66.236 575.441 66.692C574.913 67.148 574.613 67.742 574.541 68.474H580.085ZM591.489 70.832C591.297 71.852 590.847 72.656 590.139 73.244C589.431 73.82 588.531 74.108 587.439 74.108C586.551 74.108 585.771 73.91 585.099 73.514C584.427 73.118 583.905 72.566 583.533 71.858C583.161 71.138 582.975 70.316 582.975 69.392C582.975 68.468 583.161 67.652 583.533 66.944C583.917 66.236 584.451 65.69 585.135 65.306C585.819 64.91 586.605 64.712 587.493 64.712C588.573 64.712 589.461 65 590.157 65.576C590.865 66.152 591.309 66.944 591.489 67.952H589.995C589.851 67.364 589.551 66.896 589.095 66.548C588.639 66.2 588.087 66.026 587.439 66.026C586.563 66.026 585.849 66.338 585.297 66.962C584.757 67.586 584.487 68.396 584.487 69.392C584.487 70.4 584.757 71.222 585.297 71.858C585.849 72.482 586.563 72.794 587.439 72.794C588.111 72.794 588.675 72.62 589.131 72.272C589.587 71.924 589.881 71.444 590.013 70.832H591.489ZM597.232 74.108C596.344 74.108 595.552 73.91 594.856 73.514C594.172 73.118 593.638 72.566 593.254 71.858C592.87 71.15 592.678 70.334 592.678 69.41C592.678 68.486 592.87 67.67 593.254 66.962C593.638 66.254 594.172 65.702 594.856 65.306C595.552 64.91 596.344 64.712 597.232 64.712C598.12 64.712 598.906 64.91 599.59 65.306C600.286 65.702 600.826 66.254 601.21 66.962C601.594 67.67 601.786 68.486 601.786 69.41C601.786 70.334 601.594 71.15 601.21 71.858C600.826 72.566 600.286 73.118 599.59 73.514C598.906 73.91 598.12 74.108 597.232 74.108ZM597.232 72.794C597.832 72.794 598.36 72.65 598.816 72.362C599.284 72.074 599.644 71.672 599.896 71.156C600.148 70.64 600.274 70.058 600.274 69.41C600.274 68.762 600.148 68.18 599.896 67.664C599.644 67.148 599.284 66.746 598.816 66.458C598.36 66.17 597.832 66.026 597.232 66.026C596.632 66.026 596.098 66.17 595.63 66.458C595.174 66.746 594.82 67.148 594.568 67.664C594.316 68.18 594.19 68.762 594.19 69.41C594.19 70.058 594.316 70.64 594.568 71.156C594.82 71.672 595.174 72.074 595.63 72.362C596.098 72.65 596.632 72.794 597.232 72.794ZM613.721 64.712C614.753 64.712 615.587 65.036 616.223 65.684C616.871 66.332 617.195 67.34 617.195 68.708V74H615.719V68.798C615.719 67.91 615.527 67.232 615.143 66.764C614.771 66.296 614.237 66.062 613.541 66.062C612.773 66.062 612.167 66.332 611.723 66.872C611.291 67.412 611.075 68.15 611.075 69.086V74H609.599V68.798C609.599 67.91 609.407 67.232 609.023 66.764C608.639 66.296 608.093 66.062 607.385 66.062C606.641 66.062 606.047 66.35 605.603 66.926C605.171 67.49 604.955 68.234 604.955 69.158V74H603.479V64.82H604.757L604.955 66.08C605.615 65.168 606.509 64.712 607.637 64.712C608.297 64.712 608.879 64.862 609.383 65.162C609.899 65.45 610.283 65.882 610.535 66.458C611.195 65.294 612.257 64.712 613.721 64.712ZM629.33 64.712C630.362 64.712 631.196 65.036 631.832 65.684C632.48 66.332 632.804 67.34 632.804 68.708V74H631.328V68.798C631.328 67.91 631.136 67.232 630.752 66.764C630.38 66.296 629.846 66.062 629.15 66.062C628.382 66.062 627.776 66.332 627.332 66.872C626.9 67.412 626.684 68.15 626.684 69.086V74H625.208V68.798C625.208 67.91 625.016 67.232 624.632 66.764C624.248 66.296 623.702 66.062 622.994 66.062C622.25 66.062 621.656 66.35 621.212 66.926C620.78 67.49 620.564 68.234 620.564 69.158V74H619.088V64.82H620.366L620.564 66.08C621.224 65.168 622.118 64.712 623.246 64.712C623.906 64.712 624.488 64.862 624.992 65.162C625.508 65.45 625.892 65.882 626.144 66.458C626.804 65.294 627.866 64.712 629.33 64.712ZM634.373 69.41C634.373 68.474 634.553 67.652 634.913 66.944C635.285 66.236 635.801 65.69 636.461 65.306C637.121 64.91 637.877 64.712 638.729 64.712C639.569 64.712 640.313 64.886 640.961 65.234C641.609 65.582 642.119 66.086 642.491 66.746C642.863 67.406 643.061 68.18 643.085 69.068C643.085 69.2 643.073 69.41 643.049 69.698H635.921V69.824C635.945 70.724 636.221 71.444 636.749 71.984C637.277 72.524 637.967 72.794 638.819 72.794C639.479 72.794 640.037 72.632 640.493 72.308C640.961 71.972 641.273 71.51 641.429 70.922H642.923C642.743 71.858 642.293 72.626 641.573 73.226C640.853 73.814 639.971 74.108 638.927 74.108C638.015 74.108 637.217 73.916 636.533 73.532C635.849 73.136 635.315 72.584 634.931 71.876C634.559 71.156 634.373 70.334 634.373 69.41ZM641.555 68.474C641.483 67.694 641.189 67.088 640.673 66.656C640.169 66.224 639.527 66.008 638.747 66.008C638.051 66.008 637.439 66.236 636.911 66.692C636.383 67.148 636.083 67.742 636.011 68.474H641.555ZM649.27 64.712C650.386 64.712 651.28 65.048 651.952 65.72C652.636 66.392 652.978 67.448 652.978 68.888V74H651.502V68.978C651.502 68.03 651.286 67.31 650.854 66.818C650.434 66.314 649.822 66.062 649.018 66.062C648.154 66.062 647.476 66.362 646.984 66.962C646.492 67.562 646.246 68.378 646.246 69.41V74H644.77V64.82H646.048L646.246 66.062C646.942 65.162 647.95 64.712 649.27 64.712ZM663.572 61.4V74H662.294L662.096 72.524C661.328 73.58 660.278 74.108 658.946 74.108C658.094 74.108 657.332 73.922 656.66 73.55C656 73.178 655.478 72.638 655.094 71.93C654.722 71.222 654.536 70.382 654.536 69.41C654.536 68.486 654.722 67.67 655.094 66.962C655.478 66.254 656.006 65.702 656.678 65.306C657.35 64.91 658.106 64.712 658.946 64.712C659.69 64.712 660.326 64.85 660.854 65.126C661.382 65.39 661.796 65.756 662.096 66.224V61.4H663.572ZM659.09 72.794C659.678 72.794 660.2 72.656 660.656 72.38C661.124 72.092 661.484 71.696 661.736 71.192C661.988 70.676 662.114 70.094 662.114 69.446C662.114 68.786 661.988 68.198 661.736 67.682C661.484 67.154 661.124 66.746 660.656 66.458C660.2 66.17 659.678 66.026 659.09 66.026C658.178 66.026 657.44 66.344 656.876 66.98C656.324 67.604 656.048 68.414 656.048 69.41C656.048 70.406 656.324 71.222 656.876 71.858C657.44 72.482 658.178 72.794 659.09 72.794ZM285.634 87.712C286.486 87.712 287.242 87.898 287.902 88.27C288.574 88.642 289.096 89.182 289.468 89.89C289.852 90.598 290.044 91.438 290.044 92.41C290.044 93.334 289.852 94.15 289.468 94.858C289.096 95.566 288.574 96.118 287.902 96.514C287.23 96.91 286.474 97.108 285.634 97.108C284.89 97.108 284.254 96.976 283.726 96.712C283.198 96.436 282.784 96.064 282.484 95.596V100.6H281.008V87.82H282.286L282.484 89.296C283.252 88.24 284.302 87.712 285.634 87.712ZM285.49 95.794C286.402 95.794 287.134 95.482 287.686 94.858C288.25 94.222 288.532 93.406 288.532 92.41C288.532 91.414 288.25 90.604 287.686 89.98C287.134 89.344 286.402 89.026 285.49 89.026C284.902 89.026 284.374 89.17 283.906 89.458C283.45 89.734 283.096 90.13 282.844 90.646C282.592 91.15 282.466 91.726 282.466 92.374C282.466 93.034 282.592 93.628 282.844 94.156C283.096 94.672 283.45 95.074 283.906 95.362C284.374 95.65 284.902 95.794 285.49 95.794ZM300.317 95.65V97H299.507C298.919 97 298.499 96.88 298.247 96.64C297.995 96.4 297.863 96.046 297.851 95.578C297.143 96.598 296.117 97.108 294.773 97.108C293.753 97.108 292.931 96.868 292.307 96.388C291.695 95.908 291.389 95.254 291.389 94.426C291.389 93.502 291.701 92.794 292.325 92.302C292.961 91.81 293.879 91.564 295.079 91.564H297.779V90.934C297.779 90.334 297.575 89.866 297.167 89.53C296.771 89.194 296.213 89.026 295.493 89.026C294.857 89.026 294.329 89.17 293.909 89.458C293.501 89.734 293.249 90.106 293.153 90.574H291.677C291.785 89.674 292.181 88.972 292.865 88.468C293.561 87.964 294.461 87.712 295.565 87.712C296.741 87.712 297.647 88 298.283 88.576C298.931 89.14 299.255 89.956 299.255 91.024V94.984C299.255 95.428 299.459 95.65 299.867 95.65H300.317ZM297.779 92.806H294.935C293.567 92.806 292.883 93.316 292.883 94.336C292.883 94.792 293.063 95.158 293.423 95.434C293.783 95.71 294.269 95.848 294.881 95.848C295.781 95.848 296.489 95.614 297.005 95.146C297.521 94.666 297.779 94.036 297.779 93.256V92.806ZM302.063 89.17H300.407V87.82H302.063V85.246H303.539V87.82H305.861V89.17H303.539V94.588C303.539 94.972 303.611 95.248 303.755 95.416C303.911 95.572 304.175 95.65 304.547 95.65H306.149V97H304.457C303.593 97 302.975 96.808 302.603 96.424C302.243 96.04 302.063 95.434 302.063 94.606V89.17ZM311.861 87.82V89.26H311.123C310.247 89.26 309.617 89.554 309.233 90.142C308.861 90.73 308.675 91.456 308.675 92.32V97H307.199V87.82H308.477L308.675 89.206C308.939 88.786 309.281 88.45 309.701 88.198C310.121 87.946 310.703 87.82 311.447 87.82H311.861ZM316.914 97.108C316.026 97.108 315.234 96.91 314.538 96.514C313.854 96.118 313.32 95.566 312.936 94.858C312.552 94.15 312.36 93.334 312.36 92.41C312.36 91.486 312.552 90.67 312.936 89.962C313.32 89.254 313.854 88.702 314.538 88.306C315.234 87.91 316.026 87.712 316.914 87.712C317.802 87.712 318.588 87.91 319.272 88.306C319.968 88.702 320.508 89.254 320.892 89.962C321.276 90.67 321.468 91.486 321.468 92.41C321.468 93.334 321.276 94.15 320.892 94.858C320.508 95.566 319.968 96.118 319.272 96.514C318.588 96.91 317.802 97.108 316.914 97.108ZM316.914 95.794C317.514 95.794 318.042 95.65 318.498 95.362C318.966 95.074 319.326 94.672 319.578 94.156C319.83 93.64 319.956 93.058 319.956 92.41C319.956 91.762 319.83 91.18 319.578 90.664C319.326 90.148 318.966 89.746 318.498 89.458C318.042 89.17 317.514 89.026 316.914 89.026C316.314 89.026 315.78 89.17 315.312 89.458C314.856 89.746 314.502 90.148 314.25 90.664C313.998 91.18 313.872 91.762 313.872 92.41C313.872 93.058 313.998 93.64 314.25 94.156C314.502 94.672 314.856 95.074 315.312 95.362C315.78 95.65 316.314 95.794 316.914 95.794ZM323.16 84.4H324.636V97H323.16V84.4ZM339.955 95.65V97H339.145C338.557 97 338.137 96.88 337.885 96.64C337.633 96.4 337.501 96.046 337.489 95.578C336.781 96.598 335.755 97.108 334.411 97.108C333.391 97.108 332.569 96.868 331.945 96.388C331.333 95.908 331.027 95.254 331.027 94.426C331.027 93.502 331.339 92.794 331.963 92.302C332.599 91.81 333.517 91.564 334.717 91.564H337.417V90.934C337.417 90.334 337.213 89.866 336.805 89.53C336.409 89.194 335.851 89.026 335.131 89.026C334.495 89.026 333.967 89.17 333.547 89.458C333.139 89.734 332.887 90.106 332.791 90.574H331.315C331.423 89.674 331.819 88.972 332.503 88.468C333.199 87.964 334.099 87.712 335.203 87.712C336.379 87.712 337.285 88 337.921 88.576C338.569 89.14 338.893 89.956 338.893 91.024V94.984C338.893 95.428 339.097 95.65 339.505 95.65H339.955ZM337.417 92.806H334.573C333.205 92.806 332.521 93.316 332.521 94.336C332.521 94.792 332.701 95.158 333.061 95.434C333.421 95.71 333.907 95.848 334.519 95.848C335.419 95.848 336.127 95.614 336.643 95.146C337.159 94.666 337.417 94.036 337.417 93.256V92.806ZM341.09 84.4H342.566V97H341.09V84.4ZM344.588 84.4H346.064V97H344.588V84.4ZM352.316 97.108C351.428 97.108 350.636 96.91 349.94 96.514C349.256 96.118 348.722 95.566 348.338 94.858C347.954 94.15 347.762 93.334 347.762 92.41C347.762 91.486 347.954 90.67 348.338 89.962C348.722 89.254 349.256 88.702 349.94 88.306C350.636 87.91 351.428 87.712 352.316 87.712C353.204 87.712 353.99 87.91 354.674 88.306C355.37 88.702 355.91 89.254 356.294 89.962C356.678 90.67 356.87 91.486 356.87 92.41C356.87 93.334 356.678 94.15 356.294 94.858C355.91 95.566 355.37 96.118 354.674 96.514C353.99 96.91 353.204 97.108 352.316 97.108ZM352.316 95.794C352.916 95.794 353.444 95.65 353.9 95.362C354.368 95.074 354.728 94.672 354.98 94.156C355.232 93.64 355.358 93.058 355.358 92.41C355.358 91.762 355.232 91.18 354.98 90.664C354.728 90.148 354.368 89.746 353.9 89.458C353.444 89.17 352.916 89.026 352.316 89.026C351.716 89.026 351.182 89.17 350.714 89.458C350.258 89.746 349.904 90.148 349.652 90.664C349.4 91.18 349.274 91.762 349.274 92.41C349.274 93.058 349.4 93.64 349.652 94.156C349.904 94.672 350.258 95.074 350.714 95.362C351.182 95.65 351.716 95.794 352.316 95.794ZM366.753 93.832C366.561 94.852 366.111 95.656 365.403 96.244C364.695 96.82 363.795 97.108 362.703 97.108C361.815 97.108 361.035 96.91 360.363 96.514C359.691 96.118 359.169 95.566 358.797 94.858C358.425 94.138 358.239 93.316 358.239 92.392C358.239 91.468 358.425 90.652 358.797 89.944C359.181 89.236 359.715 88.69 360.399 88.306C361.083 87.91 361.869 87.712 362.757 87.712C363.837 87.712 364.725 88 365.421 88.576C366.129 89.152 366.573 89.944 366.753 90.952H365.259C365.115 90.364 364.815 89.896 364.359 89.548C363.903 89.2 363.351 89.026 362.703 89.026C361.827 89.026 361.113 89.338 360.561 89.962C360.021 90.586 359.751 91.396 359.751 92.392C359.751 93.4 360.021 94.222 360.561 94.858C361.113 95.482 361.827 95.794 362.703 95.794C363.375 95.794 363.939 95.62 364.395 95.272C364.851 94.924 365.145 94.444 365.277 93.832H366.753ZM377.045 95.65V97H376.235C375.647 97 375.227 96.88 374.975 96.64C374.723 96.4 374.591 96.046 374.579 95.578C373.871 96.598 372.845 97.108 371.501 97.108C370.481 97.108 369.659 96.868 369.035 96.388C368.423 95.908 368.117 95.254 368.117 94.426C368.117 93.502 368.429 92.794 369.053 92.302C369.689 91.81 370.607 91.564 371.807 91.564H374.507V90.934C374.507 90.334 374.303 89.866 373.895 89.53C373.499 89.194 372.941 89.026 372.221 89.026C371.585 89.026 371.057 89.17 370.637 89.458C370.229 89.734 369.977 90.106 369.881 90.574H368.405C368.513 89.674 368.909 88.972 369.593 88.468C370.289 87.964 371.189 87.712 372.293 87.712C373.469 87.712 374.375 88 375.011 88.576C375.659 89.14 375.983 89.956 375.983 91.024V94.984C375.983 95.428 376.187 95.65 376.595 95.65H377.045ZM374.507 92.806H371.663C370.295 92.806 369.611 93.316 369.611 94.336C369.611 94.792 369.791 95.158 370.151 95.434C370.511 95.71 370.997 95.848 371.609 95.848C372.509 95.848 373.217 95.614 373.733 95.146C374.249 94.666 374.507 94.036 374.507 93.256V92.806ZM378.792 89.17H377.136V87.82H378.792V85.246H380.268V87.82H382.59V89.17H380.268V94.588C380.268 94.972 380.34 95.248 380.484 95.416C380.64 95.572 380.904 95.65 381.276 95.65H382.878V97H381.186C380.322 97 379.704 96.808 379.332 96.424C378.972 96.04 378.792 95.434 378.792 94.606V89.17ZM384.666 84.274C384.942 84.274 385.17 84.364 385.35 84.544C385.53 84.724 385.62 84.952 385.62 85.228C385.62 85.504 385.53 85.732 385.35 85.912C385.17 86.092 384.942 86.182 384.666 86.182C384.39 86.182 384.162 86.092 383.982 85.912C383.802 85.732 383.712 85.504 383.712 85.228C383.712 84.952 383.802 84.724 383.982 84.544C384.162 84.364 384.39 84.274 384.666 84.274ZM383.928 87.82H385.404V97H383.928V87.82ZM391.656 97.108C390.768 97.108 389.976 96.91 389.28 96.514C388.596 96.118 388.062 95.566 387.678 94.858C387.294 94.15 387.102 93.334 387.102 92.41C387.102 91.486 387.294 90.67 387.678 89.962C388.062 89.254 388.596 88.702 389.28 88.306C389.976 87.91 390.768 87.712 391.656 87.712C392.544 87.712 393.33 87.91 394.014 88.306C394.71 88.702 395.25 89.254 395.634 89.962C396.018 90.67 396.21 91.486 396.21 92.41C396.21 93.334 396.018 94.15 395.634 94.858C395.25 95.566 394.71 96.118 394.014 96.514C393.33 96.91 392.544 97.108 391.656 97.108ZM391.656 95.794C392.256 95.794 392.784 95.65 393.24 95.362C393.708 95.074 394.068 94.672 394.32 94.156C394.572 93.64 394.698 93.058 394.698 92.41C394.698 91.762 394.572 91.18 394.32 90.664C394.068 90.148 393.708 89.746 393.24 89.458C392.784 89.17 392.256 89.026 391.656 89.026C391.056 89.026 390.522 89.17 390.054 89.458C389.598 89.746 389.244 90.148 388.992 90.664C388.74 91.18 388.614 91.762 388.614 92.41C388.614 93.058 388.74 93.64 388.992 94.156C389.244 94.672 389.598 95.074 390.054 95.362C390.522 95.65 391.056 95.794 391.656 95.794ZM402.403 87.712C403.519 87.712 404.413 88.048 405.085 88.72C405.769 89.392 406.111 90.448 406.111 91.888V97H404.635V91.978C404.635 91.03 404.419 90.31 403.987 89.818C403.567 89.314 402.955 89.062 402.151 89.062C401.287 89.062 400.609 89.362 400.117 89.962C399.625 90.562 399.379 91.378 399.379 92.41V97H397.903V87.82H399.181L399.379 89.062C400.075 88.162 401.083 87.712 402.403 87.712ZM413.315 87.82V86.794C413.315 85.978 413.501 85.378 413.873 84.994C414.257 84.598 414.869 84.4 415.709 84.4H417.401V85.75H415.799C415.439 85.75 415.181 85.828 415.025 85.984C414.869 86.14 414.791 86.398 414.791 86.758V87.82H417.383V89.17H414.791V97H413.315V89.17H411.659V87.82H413.315ZM422.189 97.108C421.301 97.108 420.509 96.91 419.813 96.514C419.129 96.118 418.595 95.566 418.211 94.858C417.827 94.15 417.635 93.334 417.635 92.41C417.635 91.486 417.827 90.67 418.211 89.962C418.595 89.254 419.129 88.702 419.813 88.306C420.509 87.91 421.301 87.712 422.189 87.712C423.077 87.712 423.863 87.91 424.547 88.306C425.243 88.702 425.783 89.254 426.167 89.962C426.551 90.67 426.743 91.486 426.743 92.41C426.743 93.334 426.551 94.15 426.167 94.858C425.783 95.566 425.243 96.118 424.547 96.514C423.863 96.91 423.077 97.108 422.189 97.108ZM422.189 95.794C422.789 95.794 423.317 95.65 423.773 95.362C424.241 95.074 424.601 94.672 424.853 94.156C425.105 93.64 425.231 93.058 425.231 92.41C425.231 91.762 425.105 91.18 424.853 90.664C424.601 90.148 424.241 89.746 423.773 89.458C423.317 89.17 422.789 89.026 422.189 89.026C421.589 89.026 421.055 89.17 420.587 89.458C420.131 89.746 419.777 90.148 419.525 90.664C419.273 91.18 419.147 91.762 419.147 92.41C419.147 93.058 419.273 93.64 419.525 94.156C419.777 94.672 420.131 95.074 420.587 95.362C421.055 95.65 421.589 95.794 422.189 95.794ZM433.098 87.82V89.26H432.36C431.484 89.26 430.854 89.554 430.47 90.142C430.098 90.73 429.912 91.456 429.912 92.32V97H428.436V87.82H429.714L429.912 89.206C430.176 88.786 430.518 88.45 430.938 88.198C431.358 87.946 431.94 87.82 432.684 87.82H433.098ZM439.77 89.17H438.114V87.82H439.77V85.246H441.246V87.82H443.568V89.17H441.246V94.588C441.246 94.972 441.318 95.248 441.462 95.416C441.618 95.572 441.882 95.65 442.254 95.65H443.856V97H442.164C441.3 97 440.682 96.808 440.31 96.424C439.95 96.04 439.77 95.434 439.77 94.606V89.17ZM449.406 87.712C450.522 87.712 451.422 88.048 452.106 88.72C452.79 89.392 453.132 90.448 453.132 91.888V97H451.656V91.978C451.656 91.03 451.44 90.31 451.008 89.818C450.576 89.314 449.958 89.062 449.154 89.062C448.302 89.062 447.624 89.362 447.12 89.962C446.628 90.562 446.382 91.378 446.382 92.41V97H444.906V84.4H446.382V89.332C446.682 88.852 447.078 88.462 447.57 88.162C448.074 87.862 448.686 87.712 449.406 87.712ZM454.69 92.41C454.69 91.474 454.87 90.652 455.23 89.944C455.602 89.236 456.118 88.69 456.778 88.306C457.438 87.91 458.194 87.712 459.046 87.712C459.886 87.712 460.63 87.886 461.278 88.234C461.926 88.582 462.436 89.086 462.808 89.746C463.18 90.406 463.378 91.18 463.402 92.068C463.402 92.2 463.39 92.41 463.366 92.698H456.238V92.824C456.262 93.724 456.538 94.444 457.066 94.984C457.594 95.524 458.284 95.794 459.136 95.794C459.796 95.794 460.354 95.632 460.81 95.308C461.278 94.972 461.59 94.51 461.746 93.922H463.24C463.06 94.858 462.61 95.626 461.89 96.226C461.17 96.814 460.288 97.108 459.244 97.108C458.332 97.108 457.534 96.916 456.85 96.532C456.166 96.136 455.632 95.584 455.248 94.876C454.876 94.156 454.69 93.334 454.69 92.41ZM461.872 91.474C461.8 90.694 461.506 90.088 460.99 89.656C460.486 89.224 459.844 89.008 459.064 89.008C458.368 89.008 457.756 89.236 457.228 89.692C456.7 90.148 456.4 90.742 456.328 91.474H461.872ZM477.987 93.832C477.795 94.852 477.345 95.656 476.637 96.244C475.929 96.82 475.029 97.108 473.937 97.108C473.049 97.108 472.269 96.91 471.597 96.514C470.925 96.118 470.403 95.566 470.031 94.858C469.659 94.138 469.473 93.316 469.473 92.392C469.473 91.468 469.659 90.652 470.031 89.944C470.415 89.236 470.949 88.69 471.633 88.306C472.317 87.91 473.103 87.712 473.991 87.712C475.071 87.712 475.959 88 476.655 88.576C477.363 89.152 477.807 89.944 477.987 90.952H476.493C476.349 90.364 476.049 89.896 475.593 89.548C475.137 89.2 474.585 89.026 473.937 89.026C473.061 89.026 472.347 89.338 471.795 89.962C471.255 90.586 470.985 91.396 470.985 92.392C470.985 93.4 471.255 94.222 471.795 94.858C472.347 95.482 473.061 95.794 473.937 95.794C474.609 95.794 475.173 95.62 475.629 95.272C476.085 94.924 476.379 94.444 476.511 93.832H477.987ZM483.73 97.108C482.842 97.108 482.05 96.91 481.354 96.514C480.67 96.118 480.136 95.566 479.752 94.858C479.368 94.15 479.176 93.334 479.176 92.41C479.176 91.486 479.368 90.67 479.752 89.962C480.136 89.254 480.67 88.702 481.354 88.306C482.05 87.91 482.842 87.712 483.73 87.712C484.618 87.712 485.404 87.91 486.088 88.306C486.784 88.702 487.324 89.254 487.708 89.962C488.092 90.67 488.284 91.486 488.284 92.41C488.284 93.334 488.092 94.15 487.708 94.858C487.324 95.566 486.784 96.118 486.088 96.514C485.404 96.91 484.618 97.108 483.73 97.108ZM483.73 95.794C484.33 95.794 484.858 95.65 485.314 95.362C485.782 95.074 486.142 94.672 486.394 94.156C486.646 93.64 486.772 93.058 486.772 92.41C486.772 91.762 486.646 91.18 486.394 90.664C486.142 90.148 485.782 89.746 485.314 89.458C484.858 89.17 484.33 89.026 483.73 89.026C483.13 89.026 482.596 89.17 482.128 89.458C481.672 89.746 481.318 90.148 481.066 90.664C480.814 91.18 480.688 91.762 480.688 92.41C480.688 93.058 480.814 93.64 481.066 94.156C481.318 94.672 481.672 95.074 482.128 95.362C482.596 95.65 483.13 95.794 483.73 95.794ZM500.219 87.712C501.251 87.712 502.085 88.036 502.721 88.684C503.369 89.332 503.693 90.34 503.693 91.708V97H502.217V91.798C502.217 90.91 502.025 90.232 501.641 89.764C501.269 89.296 500.735 89.062 500.039 89.062C499.271 89.062 498.665 89.332 498.221 89.872C497.789 90.412 497.573 91.15 497.573 92.086V97H496.097V91.798C496.097 90.91 495.905 90.232 495.521 89.764C495.137 89.296 494.591 89.062 493.883 89.062C493.139 89.062 492.545 89.35 492.101 89.926C491.669 90.49 491.453 91.234 491.453 92.158V97H489.977V87.82H491.255L491.453 89.08C492.113 88.168 493.007 87.712 494.135 87.712C494.795 87.712 495.377 87.862 495.881 88.162C496.397 88.45 496.781 88.882 497.033 89.458C497.693 88.294 498.755 87.712 500.219 87.712ZM506.324 84.274C506.6 84.274 506.828 84.364 507.008 84.544C507.188 84.724 507.278 84.952 507.278 85.228C507.278 85.504 507.188 85.732 507.008 85.912C506.828 86.092 506.6 86.182 506.324 86.182C506.048 86.182 505.82 86.092 505.64 85.912C505.46 85.732 505.37 85.504 505.37 85.228C505.37 84.952 505.46 84.724 505.64 84.544C505.82 84.364 506.048 84.274 506.324 84.274ZM505.586 87.82H507.062V97H505.586V87.82ZM513.584 87.712C514.7 87.712 515.594 88.048 516.266 88.72C516.95 89.392 517.292 90.448 517.292 91.888V97H515.816V91.978C515.816 91.03 515.6 90.31 515.168 89.818C514.748 89.314 514.136 89.062 513.332 89.062C512.468 89.062 511.79 89.362 511.298 89.962C510.806 90.562 510.56 91.378 510.56 92.41V97H509.084V87.82H510.362L510.56 89.062C511.256 88.162 512.264 87.712 513.584 87.712ZM527.886 87.82V96.55C527.886 99.322 526.368 100.708 523.332 100.708C522.144 100.708 521.172 100.438 520.416 99.898C519.672 99.358 519.24 98.59 519.12 97.594H520.632C520.752 98.17 521.058 98.614 521.55 98.926C522.042 99.238 522.672 99.394 523.44 99.394C525.42 99.394 526.41 98.428 526.41 96.496V95.416C525.75 96.544 524.7 97.108 523.26 97.108C522.408 97.108 521.646 96.922 520.974 96.55C520.314 96.178 519.792 95.638 519.408 94.93C519.036 94.222 518.85 93.382 518.85 92.41C518.85 91.486 519.036 90.67 519.408 89.962C519.792 89.254 520.32 88.702 520.992 88.306C521.664 87.91 522.42 87.712 523.26 87.712C524.004 87.712 524.64 87.862 525.168 88.162C525.696 88.45 526.11 88.864 526.41 89.404L526.608 87.82H527.886ZM523.404 95.794C523.992 95.794 524.514 95.656 524.97 95.38C525.438 95.092 525.798 94.696 526.05 94.192C526.302 93.676 526.428 93.094 526.428 92.446C526.428 91.786 526.302 91.198 526.05 90.682C525.798 90.154 525.438 89.746 524.97 89.458C524.514 89.17 523.992 89.026 523.404 89.026C522.492 89.026 521.754 89.344 521.19 89.98C520.638 90.604 520.362 91.414 520.362 92.41C520.362 93.406 520.638 94.222 521.19 94.858C521.754 95.482 522.492 95.794 523.404 95.794ZM533.744 87.82H535.292L537.578 95.29L539.99 87.82H541.358L543.644 95.29L546.038 87.82H547.532L544.472 97H542.852L540.638 90.178L538.334 97L536.714 97.018L533.744 87.82ZM548.1 92.41C548.1 91.474 548.28 90.652 548.64 89.944C549.012 89.236 549.528 88.69 550.188 88.306C550.848 87.91 551.604 87.712 552.456 87.712C553.296 87.712 554.04 87.886 554.688 88.234C555.336 88.582 555.846 89.086 556.218 89.746C556.59 90.406 556.788 91.18 556.812 92.068C556.812 92.2 556.8 92.41 556.776 92.698H549.648V92.824C549.672 93.724 549.948 94.444 550.476 94.984C551.004 95.524 551.694 95.794 552.546 95.794C553.206 95.794 553.764 95.632 554.22 95.308C554.688 94.972 555 94.51 555.156 93.922H556.65C556.47 94.858 556.02 95.626 555.3 96.226C554.58 96.814 553.698 97.108 552.654 97.108C551.742 97.108 550.944 96.916 550.26 96.532C549.576 96.136 549.042 95.584 548.658 94.876C548.286 94.156 548.1 93.334 548.1 92.41ZM555.282 91.474C555.21 90.694 554.916 90.088 554.4 89.656C553.896 89.224 553.254 89.008 552.474 89.008C551.778 89.008 551.166 89.236 550.638 89.692C550.11 90.148 549.81 90.742 549.738 91.474H555.282ZM558.172 92.41C558.172 91.474 558.352 90.652 558.712 89.944C559.084 89.236 559.6 88.69 560.26 88.306C560.92 87.91 561.676 87.712 562.528 87.712C563.368 87.712 564.112 87.886 564.76 88.234C565.408 88.582 565.918 89.086 566.29 89.746C566.662 90.406 566.86 91.18 566.884 92.068C566.884 92.2 566.872 92.41 566.848 92.698H559.72V92.824C559.744 93.724 560.02 94.444 560.548 94.984C561.076 95.524 561.766 95.794 562.618 95.794C563.278 95.794 563.836 95.632 564.292 95.308C564.76 94.972 565.072 94.51 565.228 93.922H566.722C566.542 94.858 566.092 95.626 565.372 96.226C564.652 96.814 563.77 97.108 562.726 97.108C561.814 97.108 561.016 96.916 560.332 96.532C559.648 96.136 559.114 95.584 558.73 94.876C558.358 94.156 558.172 93.334 558.172 92.41ZM565.354 91.474C565.282 90.694 564.988 90.088 564.472 89.656C563.968 89.224 563.326 89.008 562.546 89.008C561.85 89.008 561.238 89.236 560.71 89.692C560.182 90.148 559.882 90.742 559.81 91.474H565.354ZM568.569 84.4H570.045V92.752L574.707 87.82H576.471L572.943 91.582L576.723 97H574.941L571.881 92.644L570.045 94.57V97H568.569V84.4ZM577.687 96.1C577.687 95.8 577.783 95.56 577.975 95.38C578.167 95.188 578.413 95.092 578.713 95.092C579.013 95.092 579.259 95.188 579.451 95.38C579.643 95.56 579.739 95.8 579.739 96.1C579.739 96.4 579.643 96.646 579.451 96.838C579.259 97.018 579.013 97.108 578.713 97.108C578.413 97.108 578.167 97.018 577.975 96.838C577.783 96.646 577.687 96.4 577.687 96.1Z" fill="black"/>
<path d="M222.833 414.5C222.833 415.973 224.027 417.167 225.5 417.167C226.973 417.167 228.167 415.973 228.167 414.5C228.167 413.027 226.973 411.833 225.5 411.833C224.027 411.833 222.833 413.027 222.833 414.5ZM225.5 414.5L225.717 414.95C226.33 414.655 226.941 414.358 227.55 414.061L227.331 413.612L227.112 413.162C226.503 413.459 225.894 413.755 225.283 414.05L225.5 414.5ZM230.967 411.821L231.19 412.269C232.398 411.668 233.6 411.064 234.796 410.457L234.57 410.011L234.344 409.565C233.15 410.171 231.95 410.774 230.745 411.373L230.967 411.821ZM238.14 408.184L238.369 408.628C239.564 408.01 240.753 407.389 241.936 406.766L241.703 406.323L241.47 405.881C240.289 406.503 239.102 407.123 237.91 407.739L238.14 408.184ZM245.284 404.418L245.52 404.858C246.709 404.219 247.893 403.578 249.07 402.933L248.83 402.494L248.59 402.056C247.414 402.699 246.234 403.34 245.047 403.977L245.284 404.418ZM252.341 400.553L252.585 400.99C253.758 400.335 254.926 399.677 256.088 399.016L255.84 398.582L255.593 398.147C254.434 398.806 253.268 399.463 252.097 400.116L252.341 400.553ZM259.359 396.562L259.609 396.995C260.777 396.318 261.939 395.639 263.095 394.956L262.841 394.526L262.587 394.095C261.433 394.776 260.273 395.454 259.108 396.13L259.359 396.562ZM266.288 392.472L266.545 392.9C267.698 392.207 268.844 391.512 269.985 390.813L269.723 390.387L269.462 389.961C268.324 390.658 267.18 391.352 266.03 392.043L266.288 392.472ZM273.173 388.255L273.437 388.679C274.582 387.965 275.721 387.248 276.854 386.528L276.585 386.106L276.317 385.684C275.187 386.402 274.051 387.118 272.908 387.83L273.173 388.255ZM279.962 383.941L280.233 384.361C281.364 383.629 282.489 382.895 283.608 382.158L283.333 381.74L283.058 381.323C281.941 382.058 280.819 382.791 279.69 383.522L279.962 383.941ZM286.707 379.497L286.986 379.912C288.105 379.161 289.219 378.407 290.326 377.651L290.044 377.238L289.762 376.825C288.657 377.58 287.546 378.332 286.429 379.082L286.707 379.497ZM293.343 374.965L293.628 375.375C294.738 374.604 295.841 373.829 296.938 373.053L296.649 372.645L296.361 372.237C295.266 373.012 294.165 373.784 293.058 374.554L293.343 374.965ZM299.942 370.293L300.235 370.698C301.327 369.911 302.413 369.121 303.493 368.33L303.197 367.926L302.901 367.523C301.824 368.314 300.74 369.101 299.65 369.887L299.942 370.293ZM306.413 365.546L306.712 365.947C307.8 365.135 308.881 364.321 309.955 363.504L309.653 363.106L309.35 362.708C308.278 363.523 307.199 364.335 306.114 365.146L306.413 365.546ZM312.858 360.648L313.164 361.043C314.227 360.221 315.284 359.396 316.334 358.57L316.024 358.177L315.715 357.784C314.667 358.609 313.613 359.432 312.552 360.252L312.858 360.648ZM319.169 355.679L319.482 356.069C320.541 355.221 321.593 354.37 322.639 353.518L322.323 353.13L322.007 352.743C320.963 353.593 319.914 354.442 318.857 355.289L319.169 355.679ZM325.435 350.569L325.754 350.954C326.786 350.098 327.811 349.24 328.829 348.38L328.507 347.998L328.184 347.616C327.168 348.474 326.145 349.33 325.116 350.185L325.435 350.569ZM331.584 345.375L331.91 345.755C332.937 344.872 333.956 343.988 334.969 343.103L334.639 342.726L334.31 342.35C333.3 343.234 332.283 344.116 331.258 344.996L331.584 345.375ZM337.653 340.067L337.985 340.441C338.988 339.548 339.985 338.653 340.974 337.757L340.638 337.386L340.302 337.015C339.315 337.91 338.321 338.803 337.32 339.694L337.653 340.067ZM343.632 334.65L343.971 335.018C344.963 334.103 345.947 333.187 346.925 332.27L346.583 331.905L346.241 331.541C345.265 332.456 344.283 333.37 343.293 334.282L343.632 334.65ZM349.491 329.153L349.836 329.514C350.816 328.578 351.79 327.64 352.755 326.702L352.407 326.343L352.058 325.985C351.095 326.921 350.124 327.857 349.145 328.791L349.491 329.153ZM355.292 323.515L355.643 323.87C356.598 322.925 357.546 321.979 358.487 321.032L358.132 320.68L357.778 320.327C356.839 321.272 355.893 322.216 354.94 323.159L355.292 323.515ZM360.958 317.809L361.316 318.159C362.263 317.188 363.202 316.217 364.134 315.245L363.773 314.899L363.412 314.553C362.482 315.523 361.545 316.492 360.6 317.46L360.958 317.809ZM366.543 311.984L366.907 312.327C367.828 311.349 368.741 310.37 369.647 309.391L369.28 309.052L368.913 308.712C368.009 309.689 367.098 310.665 366.179 311.641L366.543 311.984ZM372.021 306.061L372.391 306.398C373.298 305.399 374.198 304.401 375.089 303.401L374.716 303.069L374.343 302.736C373.454 303.733 372.556 304.729 371.651 305.725L372.021 306.061ZM377.365 300.074L377.741 300.403C378.638 299.38 379.527 298.356 380.408 297.333L380.029 297.006L379.65 296.68C378.771 297.702 377.884 298.723 376.989 299.744L377.365 300.074ZM382.646 293.938L383.028 294.261C383.893 293.237 384.75 292.214 385.599 291.19L385.214 290.871L384.83 290.551C383.982 291.573 383.127 292.594 382.264 293.616L382.646 293.938ZM387.79 287.738L388.178 288.054C389.032 287.005 389.877 285.957 390.714 284.91L390.324 284.598L389.933 284.285C389.098 285.331 388.254 286.376 387.402 287.422L387.79 287.738ZM392.809 281.46L393.202 281.769C394.041 280.7 394.871 279.632 395.693 278.565L395.296 278.26L394.9 277.955C394.08 279.02 393.252 280.085 392.415 281.152L392.809 281.46ZM397.744 275.051L398.143 275.353C398.951 274.283 399.75 273.214 400.542 272.146L400.14 271.848L399.738 271.55C398.949 272.616 398.151 273.682 397.345 274.75L397.744 275.051ZM402.54 268.578L402.945 268.872C403.74 267.778 404.526 266.685 405.303 265.594L404.896 265.304L404.489 265.014C403.713 266.102 402.929 267.193 402.136 268.284L402.54 268.578ZM407.2 262.04L407.609 262.326C408.39 261.208 409.162 260.093 409.925 258.979L409.512 258.696L409.1 258.414C408.339 259.525 407.569 260.638 406.79 261.753L407.2 262.04ZM411.772 255.362L412.187 255.641C412.936 254.525 413.675 253.412 414.406 252.3L413.988 252.026L413.57 251.751C412.841 252.86 412.104 253.971 411.357 255.084L411.772 255.362ZM416.202 248.621L416.623 248.892C417.352 247.758 418.072 246.627 418.783 245.499L418.36 245.233L417.937 244.966C417.228 246.092 416.51 247.22 415.782 248.351L416.202 248.621ZM420.49 241.816L420.916 242.079C421.629 240.922 422.333 239.768 423.027 238.618L422.598 238.359L422.17 238.101C421.478 239.249 420.776 240.4 420.064 241.554L420.49 241.816ZM424.648 234.924L425.079 235.178C425.771 234.005 426.452 232.836 427.124 231.671L426.691 231.421L426.257 231.172C425.588 232.333 424.908 233.5 424.217 234.67L424.648 234.924ZM428.686 227.92L429.122 228.165C429.782 226.992 430.433 225.823 431.073 224.659L430.635 224.418L430.197 224.177C429.558 225.338 428.909 226.504 428.25 227.674L428.686 227.92ZM432.573 220.85L433.014 221.086C433.65 219.9 434.275 218.72 434.89 217.545L434.447 217.314L434.004 217.082C433.391 218.254 432.767 219.431 432.132 220.613L432.573 220.85ZM436.307 213.712L436.752 213.939C437.367 212.732 437.971 211.531 438.564 210.337L438.116 210.115L437.668 209.893C437.077 211.084 436.475 212.281 435.861 213.485L436.307 213.712ZM439.883 206.505L440.334 206.722C440.927 205.494 441.508 204.273 442.077 203.06L441.624 202.847L441.171 202.635C440.604 203.845 440.024 205.062 439.433 206.288L439.883 206.505ZM443.298 199.225L443.753 199.432C444.322 198.182 444.878 196.942 445.422 195.71L444.964 195.508L444.507 195.306C443.965 196.534 443.41 197.772 442.843 199.018L443.298 199.225ZM446.554 191.847L447.013 192.044C447.553 190.78 448.079 189.528 448.591 188.286L448.129 188.095L447.667 187.904C447.156 189.142 446.632 190.391 446.094 191.651L446.554 191.847ZM449.631 184.388L450.095 184.573C450.603 183.297 451.096 182.034 451.574 180.783L451.107 180.605L450.64 180.426C450.164 181.672 449.672 182.932 449.166 184.203L449.631 184.388ZM452.511 176.86L452.981 177.032C453.455 175.74 453.914 174.462 454.356 173.201L453.885 173.035L453.413 172.87C452.972 174.127 452.515 175.4 452.042 176.687L452.511 176.86ZM455.177 169.263L455.651 169.422C456.09 168.108 456.512 166.814 456.915 165.538L456.439 165.387L455.962 165.236C455.56 166.507 455.14 167.796 454.703 169.105L455.177 169.263ZM457.612 161.573L458.091 161.716C458.487 160.388 458.863 159.083 459.219 157.802L458.738 157.668L458.256 157.534C457.901 158.809 457.527 160.108 457.132 161.43L457.612 161.573ZM459.78 153.775L460.265 153.899C460.605 152.575 460.923 151.28 461.22 150.013L460.733 149.899L460.246 149.786C459.952 151.044 459.635 152.333 459.296 153.65L459.78 153.775ZM461.614 145.92L462.103 146.022C462.239 145.371 462.368 144.728 462.491 144.095L462 144L461.509 143.905C461.387 144.533 461.259 145.171 461.124 145.819L461.614 145.92Z" fill="white"/>
<rect x="237" y="60" width="31" height="31" rx="4" fill="#5A7E83"/>
<path d="M259.222 84V82.1112C259.222 81.1092 258.824 80.1483 258.116 79.4399C257.407 78.7314 256.446 78.3334 255.444 78.3334H249.778C248.776 78.3334 247.815 78.7314 247.106 79.4399C246.398 80.1483 246 81.1092 246 82.1112V84" stroke="white" stroke-width="1.5" stroke-linecap="round" stroke-linejoin="round"/>
<path d="M252.612 74.5556C254.698 74.5556 256.39 72.8642 256.39 70.7778C256.39 68.6914 254.698 67 252.612 67C250.525 67 248.834 68.6914 248.834 70.7778C248.834 72.8642 250.525 74.5556 252.612 74.5556Z" stroke="white" stroke-width="1.5" stroke-linecap="round" stroke-linejoin="round"/>
</svg>
