<svg width="706" height="540" viewBox="0 0 706 540" fill="none" xmlns="http://www.w3.org/2000/svg">
<rect opacity="0.5" x="498" y="459" width="175" height="40" rx="5" fill="white"/>
<path d="M554.455 481.812H554.347C554.275 481.988 554.187 482.156 554.083 482.316C553.979 482.476 553.851 482.62 553.699 482.748C553.547 482.868 553.367 482.964 553.159 483.036C552.959 483.108 552.731 483.144 552.475 483.144C552.067 483.144 551.703 483.048 551.383 482.856C551.071 482.664 550.807 482.384 550.591 482.016C550.375 481.648 550.211 481.2 550.099 480.672C549.995 480.144 549.943 479.548 549.943 478.884C549.943 477.46 550.203 476.372 550.723 475.62C551.243 474.86 552.047 474.48 553.135 474.48C553.567 474.48 553.947 474.54 554.275 474.66C554.603 474.772 554.883 474.936 555.115 475.152C555.355 475.36 555.551 475.612 555.703 475.908C555.855 476.204 555.975 476.532 556.063 476.892L554.383 477.3C554.335 477.124 554.279 476.956 554.215 476.796C554.159 476.628 554.083 476.48 553.987 476.352C553.891 476.224 553.771 476.124 553.627 476.052C553.483 475.972 553.307 475.932 553.099 475.932C552.643 475.932 552.319 476.12 552.127 476.496C551.943 476.872 551.851 477.4 551.851 478.08V479.448C551.851 480.128 551.951 480.672 552.151 481.08C552.359 481.488 552.723 481.692 553.243 481.692C553.651 481.692 553.955 481.572 554.155 481.332C554.355 481.092 554.455 480.784 554.455 480.408V479.796H553.027V478.524H556.063V483H554.455V481.812ZM557.679 483V474.624H563.031V476.1H559.479V478.02H562.911V479.496H559.479V481.524H563.031V483H557.679ZM566.314 477.432H566.182V483H564.646V474.624H566.806L568.714 480.192H568.846V474.624H570.382V483H568.222L566.314 477.432ZM572.069 483V474.624H577.421V476.1H573.869V478.02H577.301V479.496H573.869V481.524H577.421V483H572.069ZM580.993 483H579.217V474.624H582.457C582.865 474.624 583.229 474.688 583.549 474.816C583.869 474.936 584.137 475.112 584.353 475.344C584.577 475.576 584.745 475.856 584.857 476.184C584.969 476.512 585.025 476.88 585.025 477.288C585.025 477.88 584.897 478.388 584.641 478.812C584.385 479.236 584.021 479.516 583.549 479.652L585.193 483H583.225L581.821 479.892H580.993V483ZM582.025 478.5C582.449 478.5 582.741 478.42 582.901 478.26C583.069 478.1 583.153 477.836 583.153 477.468V477.108C583.153 476.74 583.069 476.476 582.901 476.316C582.741 476.156 582.449 476.076 582.025 476.076H580.993V478.5H582.025ZM590.72 483L590.192 480.984H587.9L587.384 483H585.56L587.828 474.624H590.372L592.64 483H590.72ZM589.1 476.364H589.004L588.188 479.532H589.916L589.1 476.364ZM597.195 476.1V483H595.395V476.1H592.983V474.624H599.607V476.1H597.195ZM600.791 483V481.668H602.591V475.956H600.791V474.624H606.191V475.956H604.391V481.668H606.191V483H600.791ZM609.486 477.432H609.354V483H607.818V474.624H609.978L611.886 480.192H612.018V474.624H613.554V483H611.394L609.486 477.432ZM619.213 481.812H619.105C619.033 481.988 618.945 482.156 618.841 482.316C618.737 482.476 618.609 482.62 618.457 482.748C618.305 482.868 618.125 482.964 617.917 483.036C617.717 483.108 617.489 483.144 617.233 483.144C616.825 483.144 616.461 483.048 616.141 482.856C615.829 482.664 615.565 482.384 615.349 482.016C615.133 481.648 614.969 481.2 614.857 480.672C614.753 480.144 614.701 479.548 614.701 478.884C614.701 477.46 614.961 476.372 615.481 475.62C616.001 474.86 616.805 474.48 617.893 474.48C618.325 474.48 618.705 474.54 619.033 474.66C619.361 474.772 619.641 474.936 619.873 475.152C620.113 475.36 620.309 475.612 620.461 475.908C620.613 476.204 620.733 476.532 620.821 476.892L619.141 477.3C619.093 477.124 619.037 476.956 618.973 476.796C618.917 476.628 618.841 476.48 618.745 476.352C618.649 476.224 618.529 476.124 618.385 476.052C618.241 475.972 618.065 475.932 617.857 475.932C617.401 475.932 617.077 476.12 616.885 476.496C616.701 476.872 616.609 477.4 616.609 478.08V479.448C616.609 480.128 616.709 480.672 616.909 481.08C617.117 481.488 617.481 481.692 618.001 481.692C618.409 481.692 618.713 481.572 618.913 481.332C619.113 481.092 619.213 480.784 619.213 480.408V479.796H617.785V478.524H620.821V483H619.213V481.812Z" fill="white"/>
<rect opacity="0.8" x="503" y="118" width="474" height="89" rx="9" transform="rotate(-180 503 118)" fill="white"/>
<path d="M97.066 54.4C97.894 54.4 98.626 54.562 99.262 54.886C99.898 55.198 100.384 55.648 100.72 56.236C101.068 56.812 101.242 57.49 101.242 58.27C101.242 59.05 101.068 59.734 100.72 60.322C100.372 60.91 99.88 61.366 99.244 61.69C98.62 62.002 97.894 62.158 97.066 62.158H93.79V67H92.224V54.4H97.066ZM93.79 60.718H96.922C97.75 60.718 98.41 60.496 98.902 60.052C99.394 59.608 99.64 59.014 99.64 58.27C99.64 57.526 99.394 56.938 98.902 56.506C98.422 56.062 97.768 55.84 96.94 55.84H93.79V60.718ZM107.358 57.82V59.26H106.62C105.744 59.26 105.114 59.554 104.73 60.142C104.358 60.73 104.172 61.456 104.172 62.32V67H102.696V57.82H103.974L104.172 59.206C104.436 58.786 104.778 58.45 105.198 58.198C105.618 57.946 106.2 57.82 106.944 57.82H107.358ZM107.856 62.41C107.856 61.474 108.036 60.652 108.396 59.944C108.768 59.236 109.284 58.69 109.944 58.306C110.604 57.91 111.36 57.712 112.212 57.712C113.052 57.712 113.796 57.886 114.444 58.234C115.092 58.582 115.602 59.086 115.974 59.746C116.346 60.406 116.544 61.18 116.568 62.068C116.568 62.2 116.556 62.41 116.532 62.698H109.404V62.824C109.428 63.724 109.704 64.444 110.232 64.984C110.76 65.524 111.45 65.794 112.302 65.794C112.962 65.794 113.52 65.632 113.976 65.308C114.444 64.972 114.756 64.51 114.912 63.922H116.406C116.226 64.858 115.776 65.626 115.056 66.226C114.336 66.814 113.454 67.108 112.41 67.108C111.498 67.108 110.7 66.916 110.016 66.532C109.332 66.136 108.798 65.584 108.414 64.876C108.042 64.156 107.856 63.334 107.856 62.41ZM115.038 61.474C114.966 60.694 114.672 60.088 114.156 59.656C113.652 59.224 113.01 59.008 112.23 59.008C111.534 59.008 110.922 59.236 110.394 59.692C109.866 60.148 109.566 60.742 109.494 61.474H115.038ZM126.964 54.4V67H125.686L125.488 65.524C124.72 66.58 123.67 67.108 122.338 67.108C121.486 67.108 120.724 66.922 120.052 66.55C119.392 66.178 118.87 65.638 118.486 64.93C118.114 64.222 117.928 63.382 117.928 62.41C117.928 61.486 118.114 60.67 118.486 59.962C118.87 59.254 119.398 58.702 120.07 58.306C120.742 57.91 121.498 57.712 122.338 57.712C123.082 57.712 123.718 57.85 124.246 58.126C124.774 58.39 125.188 58.756 125.488 59.224V54.4H126.964ZM122.482 65.794C123.07 65.794 123.592 65.656 124.048 65.38C124.516 65.092 124.876 64.696 125.128 64.192C125.38 63.676 125.506 63.094 125.506 62.446C125.506 61.786 125.38 61.198 125.128 60.682C124.876 60.154 124.516 59.746 124.048 59.458C123.592 59.17 123.07 59.026 122.482 59.026C121.57 59.026 120.832 59.344 120.268 59.98C119.716 60.604 119.44 61.414 119.44 62.41C119.44 63.406 119.716 64.222 120.268 64.858C120.832 65.482 121.57 65.794 122.482 65.794ZM129.713 54.274C129.989 54.274 130.217 54.364 130.397 54.544C130.577 54.724 130.667 54.952 130.667 55.228C130.667 55.504 130.577 55.732 130.397 55.912C130.217 56.092 129.989 56.182 129.713 56.182C129.437 56.182 129.209 56.092 129.029 55.912C128.849 55.732 128.759 55.504 128.759 55.228C128.759 54.952 128.849 54.724 129.029 54.544C129.209 54.364 129.437 54.274 129.713 54.274ZM128.975 57.82H130.451V67H128.975V57.82ZM140.663 63.832C140.471 64.852 140.021 65.656 139.313 66.244C138.605 66.82 137.705 67.108 136.613 67.108C135.725 67.108 134.945 66.91 134.273 66.514C133.601 66.118 133.079 65.566 132.707 64.858C132.335 64.138 132.149 63.316 132.149 62.392C132.149 61.468 132.335 60.652 132.707 59.944C133.091 59.236 133.625 58.69 134.309 58.306C134.993 57.91 135.779 57.712 136.667 57.712C137.747 57.712 138.635 58 139.331 58.576C140.039 59.152 140.483 59.944 140.663 60.952H139.169C139.025 60.364 138.725 59.896 138.269 59.548C137.813 59.2 137.261 59.026 136.613 59.026C135.737 59.026 135.023 59.338 134.471 59.962C133.931 60.586 133.661 61.396 133.661 62.392C133.661 63.4 133.931 64.222 134.471 64.858C135.023 65.482 135.737 65.794 136.613 65.794C137.285 65.794 137.849 65.62 138.305 65.272C138.761 64.924 139.055 64.444 139.187 63.832H140.663ZM142.981 59.17H141.325V57.82H142.981V55.246H144.457V57.82H146.779V59.17H144.457V64.588C144.457 64.972 144.529 65.248 144.673 65.416C144.829 65.572 145.093 65.65 145.465 65.65H147.067V67H145.375C144.511 67 143.893 66.808 143.521 66.424C143.161 66.04 142.981 65.434 142.981 64.606V59.17ZM152.504 62.41C152.504 61.474 152.684 60.652 153.044 59.944C153.416 59.236 153.932 58.69 154.592 58.306C155.252 57.91 156.008 57.712 156.86 57.712C157.7 57.712 158.444 57.886 159.092 58.234C159.74 58.582 160.25 59.086 160.622 59.746C160.994 60.406 161.192 61.18 161.216 62.068C161.216 62.2 161.204 62.41 161.18 62.698H154.052V62.824C154.076 63.724 154.352 64.444 154.88 64.984C155.408 65.524 156.098 65.794 156.95 65.794C157.61 65.794 158.168 65.632 158.624 65.308C159.092 64.972 159.404 64.51 159.56 63.922H161.054C160.874 64.858 160.424 65.626 159.704 66.226C158.984 66.814 158.102 67.108 157.058 67.108C156.146 67.108 155.348 66.916 154.664 66.532C153.98 66.136 153.446 65.584 153.062 64.876C152.69 64.156 152.504 63.334 152.504 62.41ZM159.686 61.474C159.614 60.694 159.32 60.088 158.804 59.656C158.3 59.224 157.658 59.008 156.878 59.008C156.182 59.008 155.57 59.236 155.042 59.692C154.514 60.148 154.214 60.742 154.142 61.474H159.686ZM171.613 57.82V70.6H170.137V65.524C169.369 66.58 168.319 67.108 166.987 67.108C166.135 67.108 165.373 66.922 164.701 66.55C164.041 66.178 163.519 65.638 163.135 64.93C162.763 64.222 162.577 63.382 162.577 62.41C162.577 61.486 162.763 60.67 163.135 59.962C163.519 59.254 164.047 58.702 164.719 58.306C165.391 57.91 166.147 57.712 166.987 57.712C167.731 57.712 168.367 57.85 168.895 58.126C169.423 58.39 169.837 58.756 170.137 59.224L170.335 57.82H171.613ZM167.131 65.794C167.719 65.794 168.241 65.656 168.697 65.38C169.165 65.092 169.525 64.696 169.777 64.192C170.029 63.676 170.155 63.094 170.155 62.446C170.155 61.786 170.029 61.198 169.777 60.682C169.525 60.154 169.165 59.746 168.697 59.458C168.241 59.17 167.719 59.026 167.131 59.026C166.219 59.026 165.481 59.344 164.917 59.98C164.365 60.604 164.089 61.414 164.089 62.41C164.089 63.406 164.365 64.222 164.917 64.858C165.481 65.482 166.219 65.794 167.131 65.794ZM181.525 57.82V67H180.247L180.049 65.776C179.353 66.664 178.375 67.108 177.115 67.108C176.023 67.108 175.147 66.772 174.487 66.1C173.827 65.428 173.497 64.372 173.497 62.932V57.82H174.973V62.842C174.973 63.79 175.177 64.516 175.585 65.02C176.005 65.512 176.599 65.758 177.367 65.758C178.207 65.758 178.861 65.458 179.329 64.858C179.809 64.258 180.049 63.442 180.049 62.41V57.82H181.525ZM184.275 54.274C184.551 54.274 184.779 54.364 184.959 54.544C185.139 54.724 185.229 54.952 185.229 55.228C185.229 55.504 185.139 55.732 184.959 55.912C184.779 56.092 184.551 56.182 184.275 56.182C183.999 56.182 183.771 56.092 183.591 55.912C183.411 55.732 183.321 55.504 183.321 55.228C183.321 54.952 183.411 54.724 183.591 54.544C183.771 54.364 183.999 54.274 184.275 54.274ZM183.537 57.82H185.013V67H183.537V57.82ZM191.661 57.712C192.513 57.712 193.269 57.898 193.929 58.27C194.601 58.642 195.123 59.182 195.495 59.89C195.879 60.598 196.071 61.438 196.071 62.41C196.071 63.334 195.879 64.15 195.495 64.858C195.123 65.566 194.601 66.118 193.929 66.514C193.257 66.91 192.501 67.108 191.661 67.108C190.917 67.108 190.281 66.976 189.753 66.712C189.225 66.436 188.811 66.064 188.511 65.596V70.6H187.035V57.82H188.313L188.511 59.296C189.279 58.24 190.329 57.712 191.661 57.712ZM191.517 65.794C192.429 65.794 193.161 65.482 193.713 64.858C194.277 64.222 194.559 63.406 194.559 62.41C194.559 61.414 194.277 60.604 193.713 59.98C193.161 59.344 192.429 59.026 191.517 59.026C190.929 59.026 190.401 59.17 189.933 59.458C189.477 59.734 189.123 60.13 188.871 60.646C188.619 61.15 188.493 61.726 188.493 62.374C188.493 63.034 188.619 63.628 188.871 64.156C189.123 64.672 189.477 65.074 189.933 65.362C190.401 65.65 190.929 65.794 191.517 65.794ZM208 57.712C209.032 57.712 209.866 58.036 210.502 58.684C211.15 59.332 211.474 60.34 211.474 61.708V67H209.998V61.798C209.998 60.91 209.806 60.232 209.422 59.764C209.05 59.296 208.516 59.062 207.82 59.062C207.052 59.062 206.446 59.332 206.002 59.872C205.57 60.412 205.354 61.15 205.354 62.086V67H203.878V61.798C203.878 60.91 203.686 60.232 203.302 59.764C202.918 59.296 202.372 59.062 201.664 59.062C200.92 59.062 200.326 59.35 199.882 59.926C199.45 60.49 199.234 61.234 199.234 62.158V67H197.758V57.82H199.036L199.234 59.08C199.894 58.168 200.788 57.712 201.916 57.712C202.576 57.712 203.158 57.862 203.662 58.162C204.178 58.45 204.562 58.882 204.814 59.458C205.474 58.294 206.536 57.712 208 57.712ZM213.043 62.41C213.043 61.474 213.223 60.652 213.583 59.944C213.955 59.236 214.471 58.69 215.131 58.306C215.791 57.91 216.547 57.712 217.399 57.712C218.239 57.712 218.983 57.886 219.631 58.234C220.279 58.582 220.789 59.086 221.161 59.746C221.533 60.406 221.731 61.18 221.755 62.068C221.755 62.2 221.743 62.41 221.719 62.698H214.591V62.824C214.615 63.724 214.891 64.444 215.419 64.984C215.947 65.524 216.637 65.794 217.489 65.794C218.149 65.794 218.707 65.632 219.163 65.308C219.631 64.972 219.943 64.51 220.099 63.922H221.593C221.413 64.858 220.963 65.626 220.243 66.226C219.523 66.814 218.641 67.108 217.597 67.108C216.685 67.108 215.887 66.916 215.203 66.532C214.519 66.136 213.985 65.584 213.601 64.876C213.229 64.156 213.043 63.334 213.043 62.41ZM220.225 61.474C220.153 60.694 219.859 60.088 219.343 59.656C218.839 59.224 218.197 59.008 217.417 59.008C216.721 59.008 216.109 59.236 215.581 59.692C215.053 60.148 214.753 60.742 214.681 61.474H220.225ZM227.94 57.712C229.056 57.712 229.95 58.048 230.622 58.72C231.306 59.392 231.648 60.448 231.648 61.888V67H230.172V61.978C230.172 61.03 229.956 60.31 229.524 59.818C229.104 59.314 228.492 59.062 227.688 59.062C226.824 59.062 226.146 59.362 225.654 59.962C225.162 60.562 224.916 61.378 224.916 62.41V67H223.44V57.82H224.718L224.916 59.062C225.612 58.162 226.62 57.712 227.94 57.712ZM234.141 59.17H232.485V57.82H234.141V55.246H235.617V57.82H237.939V59.17H235.617V64.588C235.617 64.972 235.689 65.248 235.833 65.416C235.989 65.572 236.253 65.65 236.625 65.65H238.227V67H236.535C235.671 67 235.053 66.808 234.681 66.424C234.321 66.04 234.141 65.434 234.141 64.606V59.17ZM244.726 54.274C245.002 54.274 245.23 54.364 245.41 54.544C245.59 54.724 245.68 54.952 245.68 55.228C245.68 55.504 245.59 55.732 245.41 55.912C245.23 56.092 245.002 56.182 244.726 56.182C244.45 56.182 244.222 56.092 244.042 55.912C243.862 55.732 243.772 55.504 243.772 55.228C243.772 54.952 243.862 54.724 244.042 54.544C244.222 54.364 244.45 54.274 244.726 54.274ZM243.988 57.82H245.464V67H243.988V57.82ZM248.639 63.976C248.663 64.528 248.903 64.978 249.359 65.326C249.827 65.674 250.427 65.848 251.159 65.848C251.807 65.848 252.329 65.722 252.725 65.47C253.133 65.206 253.337 64.864 253.337 64.444C253.337 64.084 253.241 63.808 253.049 63.616C252.857 63.424 252.605 63.292 252.293 63.22C251.993 63.148 251.561 63.076 250.997 63.004C250.205 62.908 249.557 62.782 249.053 62.626C248.549 62.47 248.141 62.224 247.829 61.888C247.517 61.54 247.361 61.066 247.361 60.466C247.361 59.926 247.511 59.446 247.811 59.026C248.123 58.606 248.543 58.282 249.071 58.054C249.599 57.814 250.193 57.694 250.853 57.694C251.933 57.694 252.809 57.946 253.481 58.45C254.165 58.954 254.543 59.674 254.615 60.61H253.139C253.079 60.13 252.845 59.734 252.437 59.422C252.029 59.11 251.519 58.954 250.907 58.954C250.283 58.954 249.779 59.086 249.395 59.35C249.011 59.602 248.819 59.938 248.819 60.358C248.819 60.67 248.909 60.91 249.089 61.078C249.269 61.246 249.497 61.36 249.773 61.42C250.061 61.48 250.493 61.546 251.069 61.618C251.873 61.714 252.533 61.846 253.049 62.014C253.577 62.182 253.997 62.452 254.309 62.824C254.633 63.196 254.795 63.7 254.795 64.336C254.795 64.888 254.633 65.374 254.309 65.794C253.985 66.214 253.547 66.538 252.995 66.766C252.443 66.994 251.831 67.108 251.159 67.108C249.959 67.108 248.993 66.832 248.261 66.28C247.541 65.728 247.175 64.96 247.163 63.976H248.639ZM257.445 63.976C257.469 64.528 257.709 64.978 258.165 65.326C258.633 65.674 259.233 65.848 259.965 65.848C260.613 65.848 261.135 65.722 261.531 65.47C261.939 65.206 262.143 64.864 262.143 64.444C262.143 64.084 262.047 63.808 261.855 63.616C261.663 63.424 261.411 63.292 261.099 63.22C260.799 63.148 260.367 63.076 259.803 63.004C259.011 62.908 258.363 62.782 257.859 62.626C257.355 62.47 256.947 62.224 256.635 61.888C256.323 61.54 256.167 61.066 256.167 60.466C256.167 59.926 256.317 59.446 256.617 59.026C256.929 58.606 257.349 58.282 257.877 58.054C258.405 57.814 258.999 57.694 259.659 57.694C260.739 57.694 261.615 57.946 262.287 58.45C262.971 58.954 263.349 59.674 263.421 60.61H261.945C261.885 60.13 261.651 59.734 261.243 59.422C260.835 59.11 260.325 58.954 259.713 58.954C259.089 58.954 258.585 59.086 258.201 59.35C257.817 59.602 257.625 59.938 257.625 60.358C257.625 60.67 257.715 60.91 257.895 61.078C258.075 61.246 258.303 61.36 258.579 61.42C258.867 61.48 259.299 61.546 259.875 61.618C260.679 61.714 261.339 61.846 261.855 62.014C262.383 62.182 262.803 62.452 263.115 62.824C263.439 63.196 263.601 63.7 263.601 64.336C263.601 64.888 263.439 65.374 263.115 65.794C262.791 66.214 262.353 66.538 261.801 66.766C261.249 66.994 260.637 67.108 259.965 67.108C258.765 67.108 257.799 66.832 257.067 66.28C256.347 65.728 255.981 64.96 255.969 63.976H257.445ZM273.178 57.82V67H271.9L271.702 65.776C271.006 66.664 270.028 67.108 268.768 67.108C267.676 67.108 266.8 66.772 266.14 66.1C265.48 65.428 265.15 64.372 265.15 62.932V57.82H266.626V62.842C266.626 63.79 266.83 64.516 267.238 65.02C267.658 65.512 268.252 65.758 269.02 65.758C269.86 65.758 270.514 65.458 270.982 64.858C271.462 64.258 271.702 63.442 271.702 62.41V57.82H273.178ZM274.866 62.41C274.866 61.474 275.046 60.652 275.406 59.944C275.778 59.236 276.294 58.69 276.954 58.306C277.614 57.91 278.37 57.712 279.222 57.712C280.062 57.712 280.806 57.886 281.454 58.234C282.102 58.582 282.612 59.086 282.984 59.746C283.356 60.406 283.554 61.18 283.578 62.068C283.578 62.2 283.566 62.41 283.542 62.698H276.414V62.824C276.438 63.724 276.714 64.444 277.242 64.984C277.77 65.524 278.46 65.794 279.312 65.794C279.972 65.794 280.53 65.632 280.986 65.308C281.454 64.972 281.766 64.51 281.922 63.922H283.416C283.236 64.858 282.786 65.626 282.066 66.226C281.346 66.814 280.464 67.108 279.42 67.108C278.508 67.108 277.71 66.916 277.026 66.532C276.342 66.136 275.808 65.584 275.424 64.876C275.052 64.156 274.866 63.334 274.866 62.41ZM282.048 61.474C281.976 60.694 281.682 60.088 281.166 59.656C280.662 59.224 280.02 59.008 279.24 59.008C278.544 59.008 277.932 59.236 277.404 59.692C276.876 60.148 276.576 60.742 276.504 61.474H282.048ZM286.379 63.976C286.403 64.528 286.643 64.978 287.099 65.326C287.567 65.674 288.167 65.848 288.899 65.848C289.547 65.848 290.069 65.722 290.465 65.47C290.873 65.206 291.077 64.864 291.077 64.444C291.077 64.084 290.981 63.808 290.789 63.616C290.597 63.424 290.345 63.292 290.033 63.22C289.733 63.148 289.301 63.076 288.737 63.004C287.945 62.908 287.297 62.782 286.793 62.626C286.289 62.47 285.881 62.224 285.569 61.888C285.257 61.54 285.101 61.066 285.101 60.466C285.101 59.926 285.251 59.446 285.551 59.026C285.863 58.606 286.283 58.282 286.811 58.054C287.339 57.814 287.933 57.694 288.593 57.694C289.673 57.694 290.549 57.946 291.221 58.45C291.905 58.954 292.283 59.674 292.355 60.61H290.879C290.819 60.13 290.585 59.734 290.177 59.422C289.769 59.11 289.259 58.954 288.647 58.954C288.023 58.954 287.519 59.086 287.135 59.35C286.751 59.602 286.559 59.938 286.559 60.358C286.559 60.67 286.649 60.91 286.829 61.078C287.009 61.246 287.237 61.36 287.513 61.42C287.801 61.48 288.233 61.546 288.809 61.618C289.613 61.714 290.273 61.846 290.789 62.014C291.317 62.182 291.737 62.452 292.049 62.824C292.373 63.196 292.535 63.7 292.535 64.336C292.535 64.888 292.373 65.374 292.049 65.794C291.725 66.214 291.287 66.538 290.735 66.766C290.183 66.994 289.571 67.108 288.899 67.108C287.699 67.108 286.733 66.832 286.001 66.28C285.281 65.728 284.915 64.96 284.903 63.976H286.379ZM307.506 65.65V67H306.696C306.108 67 305.688 66.88 305.436 66.64C305.184 66.4 305.052 66.046 305.04 65.578C304.332 66.598 303.306 67.108 301.962 67.108C300.942 67.108 300.12 66.868 299.496 66.388C298.884 65.908 298.578 65.254 298.578 64.426C298.578 63.502 298.89 62.794 299.514 62.302C300.15 61.81 301.068 61.564 302.268 61.564H304.968V60.934C304.968 60.334 304.764 59.866 304.356 59.53C303.96 59.194 303.402 59.026 302.682 59.026C302.046 59.026 301.518 59.17 301.098 59.458C300.69 59.734 300.438 60.106 300.342 60.574H298.866C298.974 59.674 299.37 58.972 300.054 58.468C300.75 57.964 301.65 57.712 302.754 57.712C303.93 57.712 304.836 58 305.472 58.576C306.12 59.14 306.444 59.956 306.444 61.024V64.984C306.444 65.428 306.648 65.65 307.056 65.65H307.506ZM304.968 62.806H302.124C300.756 62.806 300.072 63.316 300.072 64.336C300.072 64.792 300.252 65.158 300.612 65.434C300.972 65.71 301.458 65.848 302.07 65.848C302.97 65.848 303.678 65.614 304.194 65.146C304.71 64.666 304.968 64.036 304.968 63.256V62.806ZM313.141 57.712C314.257 57.712 315.151 58.048 315.823 58.72C316.507 59.392 316.849 60.448 316.849 61.888V67H315.373V61.978C315.373 61.03 315.157 60.31 314.725 59.818C314.305 59.314 313.693 59.062 312.889 59.062C312.025 59.062 311.347 59.362 310.855 59.962C310.363 60.562 310.117 61.378 310.117 62.41V67H308.641V57.82H309.919L310.117 59.062C310.813 58.162 311.821 57.712 313.141 57.712ZM327.443 54.4V67H326.165L325.967 65.524C325.199 66.58 324.149 67.108 322.817 67.108C321.965 67.108 321.203 66.922 320.531 66.55C319.871 66.178 319.349 65.638 318.965 64.93C318.593 64.222 318.407 63.382 318.407 62.41C318.407 61.486 318.593 60.67 318.965 59.962C319.349 59.254 319.877 58.702 320.549 58.306C321.221 57.91 321.977 57.712 322.817 57.712C323.561 57.712 324.197 57.85 324.725 58.126C325.253 58.39 325.667 58.756 325.967 59.224V54.4H327.443ZM322.961 65.794C323.549 65.794 324.071 65.656 324.527 65.38C324.995 65.092 325.355 64.696 325.607 64.192C325.859 63.676 325.985 63.094 325.985 62.446C325.985 61.786 325.859 61.198 325.607 60.682C325.355 60.154 324.995 59.746 324.527 59.458C324.071 59.17 323.549 59.026 322.961 59.026C322.049 59.026 321.311 59.344 320.747 59.98C320.195 60.604 319.919 61.414 319.919 62.41C319.919 63.406 320.195 64.222 320.747 64.858C321.311 65.482 322.049 65.794 322.961 65.794ZM335.316 63.976C335.34 64.528 335.58 64.978 336.036 65.326C336.504 65.674 337.104 65.848 337.836 65.848C338.484 65.848 339.006 65.722 339.402 65.47C339.81 65.206 340.014 64.864 340.014 64.444C340.014 64.084 339.918 63.808 339.726 63.616C339.534 63.424 339.282 63.292 338.97 63.22C338.67 63.148 338.238 63.076 337.674 63.004C336.882 62.908 336.234 62.782 335.73 62.626C335.226 62.47 334.818 62.224 334.506 61.888C334.194 61.54 334.038 61.066 334.038 60.466C334.038 59.926 334.188 59.446 334.488 59.026C334.8 58.606 335.22 58.282 335.748 58.054C336.276 57.814 336.87 57.694 337.53 57.694C338.61 57.694 339.486 57.946 340.158 58.45C340.842 58.954 341.22 59.674 341.292 60.61H339.816C339.756 60.13 339.522 59.734 339.114 59.422C338.706 59.11 338.196 58.954 337.584 58.954C336.96 58.954 336.456 59.086 336.072 59.35C335.688 59.602 335.496 59.938 335.496 60.358C335.496 60.67 335.586 60.91 335.766 61.078C335.946 61.246 336.174 61.36 336.45 61.42C336.738 61.48 337.17 61.546 337.746 61.618C338.55 61.714 339.21 61.846 339.726 62.014C340.254 62.182 340.674 62.452 340.986 62.824C341.31 63.196 341.472 63.7 341.472 64.336C341.472 64.888 341.31 65.374 340.986 65.794C340.662 66.214 340.224 66.538 339.672 66.766C339.12 66.994 338.508 67.108 337.836 67.108C336.636 67.108 335.67 66.832 334.938 66.28C334.218 65.728 333.852 64.96 333.84 63.976H335.316ZM351.337 63.832C351.145 64.852 350.695 65.656 349.987 66.244C349.279 66.82 348.379 67.108 347.287 67.108C346.399 67.108 345.619 66.91 344.947 66.514C344.275 66.118 343.753 65.566 343.381 64.858C343.009 64.138 342.823 63.316 342.823 62.392C342.823 61.468 343.009 60.652 343.381 59.944C343.765 59.236 344.299 58.69 344.983 58.306C345.667 57.91 346.453 57.712 347.341 57.712C348.421 57.712 349.309 58 350.005 58.576C350.713 59.152 351.157 59.944 351.337 60.952H349.843C349.699 60.364 349.399 59.896 348.943 59.548C348.487 59.2 347.935 59.026 347.287 59.026C346.411 59.026 345.697 59.338 345.145 59.962C344.605 60.586 344.335 61.396 344.335 62.392C344.335 63.4 344.605 64.222 345.145 64.858C345.697 65.482 346.411 65.794 347.287 65.794C347.959 65.794 348.523 65.62 348.979 65.272C349.435 64.924 349.729 64.444 349.861 63.832H351.337ZM357.543 57.712C358.659 57.712 359.559 58.048 360.243 58.72C360.927 59.392 361.269 60.448 361.269 61.888V67H359.793V61.978C359.793 61.03 359.577 60.31 359.145 59.818C358.713 59.314 358.095 59.062 357.291 59.062C356.439 59.062 355.761 59.362 355.257 59.962C354.765 60.562 354.519 61.378 354.519 62.41V67H353.043V54.4H354.519V59.332C354.819 58.852 355.215 58.462 355.707 58.162C356.211 57.862 356.823 57.712 357.543 57.712ZM362.827 62.41C362.827 61.474 363.007 60.652 363.367 59.944C363.739 59.236 364.255 58.69 364.915 58.306C365.575 57.91 366.331 57.712 367.183 57.712C368.023 57.712 368.767 57.886 369.415 58.234C370.063 58.582 370.573 59.086 370.945 59.746C371.317 60.406 371.515 61.18 371.539 62.068C371.539 62.2 371.527 62.41 371.503 62.698H364.375V62.824C364.399 63.724 364.675 64.444 365.203 64.984C365.731 65.524 366.421 65.794 367.273 65.794C367.933 65.794 368.491 65.632 368.947 65.308C369.415 64.972 369.727 64.51 369.883 63.922H371.377C371.197 64.858 370.747 65.626 370.027 66.226C369.307 66.814 368.425 67.108 367.381 67.108C366.469 67.108 365.671 66.916 364.987 66.532C364.303 66.136 363.769 65.584 363.385 64.876C363.013 64.156 362.827 63.334 362.827 62.41ZM370.009 61.474C369.937 60.694 369.643 60.088 369.127 59.656C368.623 59.224 367.981 59.008 367.201 59.008C366.505 59.008 365.893 59.236 365.365 59.692C364.837 60.148 364.537 60.742 364.465 61.474H370.009ZM381.935 54.4V67H380.657L380.459 65.524C379.691 66.58 378.641 67.108 377.309 67.108C376.457 67.108 375.695 66.922 375.023 66.55C374.363 66.178 373.841 65.638 373.457 64.93C373.085 64.222 372.899 63.382 372.899 62.41C372.899 61.486 373.085 60.67 373.457 59.962C373.841 59.254 374.369 58.702 375.041 58.306C375.713 57.91 376.469 57.712 377.309 57.712C378.053 57.712 378.689 57.85 379.217 58.126C379.745 58.39 380.159 58.756 380.459 59.224V54.4H381.935ZM377.453 65.794C378.041 65.794 378.563 65.656 379.019 65.38C379.487 65.092 379.847 64.696 380.099 64.192C380.351 63.676 380.477 63.094 380.477 62.446C380.477 61.786 380.351 61.198 380.099 60.682C379.847 60.154 379.487 59.746 379.019 59.458C378.563 59.17 378.041 59.026 377.453 59.026C376.541 59.026 375.803 59.344 375.239 59.98C374.687 60.604 374.411 61.414 374.411 62.41C374.411 63.406 374.687 64.222 375.239 64.858C375.803 65.482 376.541 65.794 377.453 65.794ZM391.848 57.82V67H390.57L390.372 65.776C389.676 66.664 388.698 67.108 387.438 67.108C386.346 67.108 385.47 66.772 384.81 66.1C384.15 65.428 383.82 64.372 383.82 62.932V57.82H385.296V62.842C385.296 63.79 385.5 64.516 385.908 65.02C386.328 65.512 386.922 65.758 387.689 65.758C388.53 65.758 389.184 65.458 389.652 64.858C390.132 64.258 390.372 63.442 390.372 62.41V57.82H391.848ZM393.86 54.4H395.336V67H393.86V54.4ZM397.034 62.41C397.034 61.474 397.214 60.652 397.574 59.944C397.946 59.236 398.462 58.69 399.122 58.306C399.782 57.91 400.538 57.712 401.39 57.712C402.23 57.712 402.974 57.886 403.622 58.234C404.27 58.582 404.78 59.086 405.152 59.746C405.524 60.406 405.722 61.18 405.746 62.068C405.746 62.2 405.734 62.41 405.71 62.698H398.582V62.824C398.606 63.724 398.882 64.444 399.41 64.984C399.938 65.524 400.628 65.794 401.48 65.794C402.14 65.794 402.698 65.632 403.154 65.308C403.622 64.972 403.934 64.51 404.09 63.922H405.584C405.404 64.858 404.954 65.626 404.234 66.226C403.514 66.814 402.632 67.108 401.588 67.108C400.676 67.108 399.878 66.916 399.194 66.532C398.51 66.136 397.976 65.584 397.592 64.876C397.22 64.156 397.034 63.334 397.034 62.41ZM404.216 61.474C404.144 60.694 403.85 60.088 403.334 59.656C402.83 59.224 402.188 59.008 401.408 59.008C400.712 59.008 400.1 59.236 399.572 59.692C399.044 60.148 398.744 60.742 398.672 61.474H404.216ZM102.25 80.712C103.282 80.712 104.116 81.036 104.752 81.684C105.4 82.332 105.724 83.34 105.724 84.708V90H104.248V84.798C104.248 83.91 104.056 83.232 103.672 82.764C103.3 82.296 102.766 82.062 102.07 82.062C101.302 82.062 100.696 82.332 100.252 82.872C99.82 83.412 99.604 84.15 99.604 85.086V90H98.128V84.798C98.128 83.91 97.936 83.232 97.552 82.764C97.168 82.296 96.622 82.062 95.914 82.062C95.17 82.062 94.576 82.35 94.132 82.926C93.7 83.49 93.484 84.234 93.484 85.158V90H92.008V80.82H93.286L93.484 82.08C94.144 81.168 95.038 80.712 96.166 80.712C96.826 80.712 97.408 80.862 97.912 81.162C98.428 81.45 98.812 81.882 99.064 82.458C99.724 81.294 100.786 80.712 102.25 80.712ZM116.203 88.65V90H115.393C114.805 90 114.385 89.88 114.133 89.64C113.881 89.4 113.749 89.046 113.737 88.578C113.029 89.598 112.003 90.108 110.659 90.108C109.639 90.108 108.817 89.868 108.193 89.388C107.581 88.908 107.275 88.254 107.275 87.426C107.275 86.502 107.587 85.794 108.211 85.302C108.847 84.81 109.765 84.564 110.965 84.564H113.665V83.934C113.665 83.334 113.461 82.866 113.053 82.53C112.657 82.194 112.099 82.026 111.379 82.026C110.743 82.026 110.215 82.17 109.795 82.458C109.387 82.734 109.135 83.106 109.039 83.574H107.563C107.671 82.674 108.067 81.972 108.751 81.468C109.447 80.964 110.347 80.712 111.451 80.712C112.627 80.712 113.533 81 114.169 81.576C114.817 82.14 115.141 82.956 115.141 84.024V87.984C115.141 88.428 115.345 88.65 115.753 88.65H116.203ZM113.665 85.806H110.821C109.453 85.806 108.769 86.316 108.769 87.336C108.769 87.792 108.949 88.158 109.309 88.434C109.669 88.71 110.155 88.848 110.767 88.848C111.667 88.848 112.375 88.614 112.891 88.146C113.407 87.666 113.665 87.036 113.665 86.256V85.806ZM118.076 77.274C118.352 77.274 118.58 77.364 118.76 77.544C118.94 77.724 119.03 77.952 119.03 78.228C119.03 78.504 118.94 78.732 118.76 78.912C118.58 79.092 118.352 79.182 118.076 79.182C117.8 79.182 117.572 79.092 117.392 78.912C117.212 78.732 117.122 78.504 117.122 78.228C117.122 77.952 117.212 77.724 117.392 77.544C117.572 77.364 117.8 77.274 118.076 77.274ZM117.338 80.82H118.814V90H117.338V80.82ZM125.336 80.712C126.452 80.712 127.346 81.048 128.018 81.72C128.702 82.392 129.044 83.448 129.044 84.888V90H127.568V84.978C127.568 84.03 127.352 83.31 126.92 82.818C126.5 82.314 125.888 82.062 125.084 82.062C124.22 82.062 123.542 82.362 123.05 82.962C122.558 83.562 122.312 84.378 122.312 85.41V90H120.836V80.82H122.114L122.312 82.062C123.008 81.162 124.016 80.712 125.336 80.712ZM131.538 82.17H129.882V80.82H131.538V78.246H133.014V80.82H135.336V82.17H133.014V87.588C133.014 87.972 133.086 88.248 133.23 88.416C133.386 88.572 133.65 88.65 134.022 88.65H135.624V90H133.932C133.068 90 132.45 89.808 132.078 89.424C131.718 89.04 131.538 88.434 131.538 87.606V82.17ZM136.122 85.41C136.122 84.474 136.302 83.652 136.662 82.944C137.034 82.236 137.55 81.69 138.21 81.306C138.87 80.91 139.626 80.712 140.478 80.712C141.318 80.712 142.062 80.886 142.71 81.234C143.358 81.582 143.868 82.086 144.24 82.746C144.612 83.406 144.81 84.18 144.834 85.068C144.834 85.2 144.822 85.41 144.798 85.698H137.67V85.824C137.694 86.724 137.97 87.444 138.498 87.984C139.026 88.524 139.716 88.794 140.568 88.794C141.228 88.794 141.786 88.632 142.242 88.308C142.71 87.972 143.022 87.51 143.178 86.922H144.672C144.492 87.858 144.042 88.626 143.322 89.226C142.602 89.814 141.72 90.108 140.676 90.108C139.764 90.108 138.966 89.916 138.282 89.532C137.598 89.136 137.064 88.584 136.68 87.876C136.308 87.156 136.122 86.334 136.122 85.41ZM143.304 84.474C143.232 83.694 142.938 83.088 142.422 82.656C141.918 82.224 141.276 82.008 140.496 82.008C139.8 82.008 139.188 82.236 138.66 82.692C138.132 83.148 137.832 83.742 137.76 84.474H143.304ZM151.018 80.712C152.134 80.712 153.028 81.048 153.7 81.72C154.384 82.392 154.726 83.448 154.726 84.888V90H153.25V84.978C153.25 84.03 153.034 83.31 152.602 82.818C152.182 82.314 151.57 82.062 150.766 82.062C149.902 82.062 149.224 82.362 148.732 82.962C148.24 83.562 147.994 84.378 147.994 85.41V90H146.518V80.82H147.796L147.994 82.062C148.69 81.162 149.698 80.712 151.018 80.712ZM165.194 88.65V90H164.384C163.796 90 163.376 89.88 163.124 89.64C162.872 89.4 162.74 89.046 162.728 88.578C162.02 89.598 160.994 90.108 159.65 90.108C158.63 90.108 157.808 89.868 157.184 89.388C156.572 88.908 156.266 88.254 156.266 87.426C156.266 86.502 156.578 85.794 157.202 85.302C157.838 84.81 158.756 84.564 159.956 84.564H162.656V83.934C162.656 83.334 162.452 82.866 162.044 82.53C161.648 82.194 161.09 82.026 160.37 82.026C159.734 82.026 159.206 82.17 158.786 82.458C158.378 82.734 158.126 83.106 158.03 83.574H156.554C156.662 82.674 157.058 81.972 157.742 81.468C158.438 80.964 159.338 80.712 160.442 80.712C161.618 80.712 162.524 81 163.16 81.576C163.808 82.14 164.132 82.956 164.132 84.024V87.984C164.132 88.428 164.336 88.65 164.744 88.65H165.194ZM162.656 85.806H159.812C158.444 85.806 157.76 86.316 157.76 87.336C157.76 87.792 157.94 88.158 158.3 88.434C158.66 88.71 159.146 88.848 159.758 88.848C160.658 88.848 161.366 88.614 161.882 88.146C162.398 87.666 162.656 87.036 162.656 86.256V85.806ZM170.828 80.712C171.944 80.712 172.838 81.048 173.51 81.72C174.194 82.392 174.536 83.448 174.536 84.888V90H173.06V84.978C173.06 84.03 172.844 83.31 172.412 82.818C171.992 82.314 171.38 82.062 170.576 82.062C169.712 82.062 169.034 82.362 168.542 82.962C168.05 83.562 167.804 84.378 167.804 85.41V90H166.328V80.82H167.606L167.804 82.062C168.5 81.162 169.508 80.712 170.828 80.712ZM184.608 86.832C184.416 87.852 183.966 88.656 183.258 89.244C182.55 89.82 181.65 90.108 180.558 90.108C179.67 90.108 178.89 89.91 178.218 89.514C177.546 89.118 177.024 88.566 176.652 87.858C176.28 87.138 176.094 86.316 176.094 85.392C176.094 84.468 176.28 83.652 176.652 82.944C177.036 82.236 177.57 81.69 178.254 81.306C178.938 80.91 179.724 80.712 180.612 80.712C181.692 80.712 182.58 81 183.276 81.576C183.984 82.152 184.428 82.944 184.608 83.952H183.114C182.97 83.364 182.67 82.896 182.214 82.548C181.758 82.2 181.206 82.026 180.558 82.026C179.682 82.026 178.968 82.338 178.416 82.962C177.876 83.586 177.606 84.396 177.606 85.392C177.606 86.4 177.876 87.222 178.416 87.858C178.968 88.482 179.682 88.794 180.558 88.794C181.23 88.794 181.794 88.62 182.25 88.272C182.706 87.924 183 87.444 183.132 86.832H184.608ZM185.797 85.41C185.797 84.474 185.977 83.652 186.337 82.944C186.709 82.236 187.225 81.69 187.885 81.306C188.545 80.91 189.301 80.712 190.153 80.712C190.993 80.712 191.737 80.886 192.385 81.234C193.033 81.582 193.543 82.086 193.915 82.746C194.287 83.406 194.485 84.18 194.509 85.068C194.509 85.2 194.497 85.41 194.473 85.698H187.345V85.824C187.369 86.724 187.645 87.444 188.173 87.984C188.701 88.524 189.391 88.794 190.243 88.794C190.903 88.794 191.461 88.632 191.917 88.308C192.385 87.972 192.697 87.51 192.853 86.922H194.347C194.167 87.858 193.717 88.626 192.997 89.226C192.277 89.814 191.395 90.108 190.351 90.108C189.439 90.108 188.641 89.916 187.957 89.532C187.273 89.136 186.739 88.584 186.355 87.876C185.983 87.156 185.797 86.334 185.797 85.41ZM192.979 84.474C192.907 83.694 192.613 83.088 192.097 82.656C191.593 82.224 190.951 82.008 190.171 82.008C189.475 82.008 188.863 82.236 188.335 82.692C187.807 83.148 187.507 83.742 187.435 84.474H192.979ZM205.53 80.712C206.382 80.712 207.138 80.898 207.798 81.27C208.47 81.642 208.992 82.182 209.364 82.89C209.748 83.598 209.94 84.438 209.94 85.41C209.94 86.334 209.748 87.15 209.364 87.858C208.992 88.566 208.47 89.118 207.798 89.514C207.126 89.91 206.37 90.108 205.53 90.108C204.786 90.108 204.15 89.976 203.622 89.712C203.094 89.436 202.68 89.064 202.38 88.596L202.182 90H200.904V77.4H202.38V82.296C203.148 81.24 204.198 80.712 205.53 80.712ZM205.386 88.794C206.298 88.794 207.03 88.482 207.582 87.858C208.146 87.222 208.428 86.406 208.428 85.41C208.428 84.414 208.146 83.604 207.582 82.98C207.03 82.344 206.298 82.026 205.386 82.026C204.798 82.026 204.27 82.17 203.802 82.458C203.346 82.734 202.992 83.13 202.74 83.646C202.488 84.15 202.362 84.726 202.362 85.374C202.362 86.034 202.488 86.628 202.74 87.156C202.992 87.672 203.346 88.074 203.802 88.362C204.27 88.65 204.798 88.794 205.386 88.794ZM211.303 85.41C211.303 84.474 211.483 83.652 211.843 82.944C212.215 82.236 212.731 81.69 213.391 81.306C214.051 80.91 214.807 80.712 215.659 80.712C216.499 80.712 217.243 80.886 217.891 81.234C218.539 81.582 219.049 82.086 219.421 82.746C219.793 83.406 219.991 84.18 220.015 85.068C220.015 85.2 220.003 85.41 219.979 85.698H212.851V85.824C212.875 86.724 213.151 87.444 213.679 87.984C214.207 88.524 214.897 88.794 215.749 88.794C216.409 88.794 216.967 88.632 217.423 88.308C217.891 87.972 218.203 87.51 218.359 86.922H219.853C219.673 87.858 219.223 88.626 218.503 89.226C217.783 89.814 216.901 90.108 215.857 90.108C214.945 90.108 214.147 89.916 213.463 89.532C212.779 89.136 212.245 88.584 211.861 87.876C211.489 87.156 211.303 86.334 211.303 85.41ZM218.485 84.474C218.413 83.694 218.119 83.088 217.603 82.656C217.099 82.224 216.457 82.008 215.677 82.008C214.981 82.008 214.369 82.236 213.841 82.692C213.313 83.148 213.013 83.742 212.941 84.474H218.485ZM222.206 80.82V79.794C222.206 78.978 222.392 78.378 222.764 77.994C223.148 77.598 223.76 77.4 224.6 77.4H226.292V78.75H224.69C224.33 78.75 224.072 78.828 223.916 78.984C223.76 79.14 223.682 79.398 223.682 79.758V80.82H226.274V82.17H223.682V90H222.206V82.17H220.55V80.82H222.206ZM231.08 90.108C230.192 90.108 229.4 89.91 228.704 89.514C228.02 89.118 227.486 88.566 227.102 87.858C226.718 87.15 226.526 86.334 226.526 85.41C226.526 84.486 226.718 83.67 227.102 82.962C227.486 82.254 228.02 81.702 228.704 81.306C229.4 80.91 230.192 80.712 231.08 80.712C231.968 80.712 232.754 80.91 233.438 81.306C234.134 81.702 234.674 82.254 235.058 82.962C235.442 83.67 235.634 84.486 235.634 85.41C235.634 86.334 235.442 87.15 235.058 87.858C234.674 88.566 234.134 89.118 233.438 89.514C232.754 89.91 231.968 90.108 231.08 90.108ZM231.08 88.794C231.68 88.794 232.208 88.65 232.664 88.362C233.132 88.074 233.492 87.672 233.744 87.156C233.996 86.64 234.122 86.058 234.122 85.41C234.122 84.762 233.996 84.18 233.744 83.664C233.492 83.148 233.132 82.746 232.664 82.458C232.208 82.17 231.68 82.026 231.08 82.026C230.48 82.026 229.946 82.17 229.478 82.458C229.022 82.746 228.668 83.148 228.416 83.664C228.164 84.18 228.038 84.762 228.038 85.41C228.038 86.058 228.164 86.64 228.416 87.156C228.668 87.672 229.022 88.074 229.478 88.362C229.946 88.65 230.48 88.794 231.08 88.794ZM241.988 80.82V82.26H241.25C240.374 82.26 239.744 82.554 239.36 83.142C238.988 83.73 238.802 84.456 238.802 85.32V90H237.326V80.82H238.604L238.802 82.206C239.066 81.786 239.408 81.45 239.828 81.198C240.248 80.946 240.83 80.82 241.574 80.82H241.988ZM242.487 85.41C242.487 84.474 242.667 83.652 243.027 82.944C243.399 82.236 243.915 81.69 244.575 81.306C245.235 80.91 245.991 80.712 246.843 80.712C247.683 80.712 248.427 80.886 249.075 81.234C249.723 81.582 250.233 82.086 250.605 82.746C250.977 83.406 251.175 84.18 251.199 85.068C251.199 85.2 251.187 85.41 251.163 85.698H244.035V85.824C244.059 86.724 244.335 87.444 244.863 87.984C245.391 88.524 246.081 88.794 246.933 88.794C247.593 88.794 248.151 88.632 248.607 88.308C249.075 87.972 249.387 87.51 249.543 86.922H251.037C250.857 87.858 250.407 88.626 249.687 89.226C248.967 89.814 248.085 90.108 247.041 90.108C246.129 90.108 245.331 89.916 244.647 89.532C243.963 89.136 243.429 88.584 243.045 87.876C242.673 87.156 242.487 86.334 242.487 85.41ZM249.669 84.474C249.597 83.694 249.303 83.088 248.787 82.656C248.283 82.224 247.641 82.008 246.861 82.008C246.165 82.008 245.553 82.236 245.025 82.692C244.497 83.148 244.197 83.742 244.125 84.474H249.669ZM266.306 80.82V89.55C266.306 92.322 264.788 93.708 261.752 93.708C260.564 93.708 259.592 93.438 258.836 92.898C258.092 92.358 257.66 91.59 257.54 90.594H259.052C259.172 91.17 259.478 91.614 259.97 91.926C260.462 92.238 261.092 92.394 261.86 92.394C263.84 92.394 264.83 91.428 264.83 89.496V88.416C264.17 89.544 263.12 90.108 261.68 90.108C260.828 90.108 260.066 89.922 259.394 89.55C258.734 89.178 258.212 88.638 257.828 87.93C257.456 87.222 257.27 86.382 257.27 85.41C257.27 84.486 257.456 83.67 257.828 82.962C258.212 82.254 258.74 81.702 259.412 81.306C260.084 80.91 260.84 80.712 261.68 80.712C262.424 80.712 263.06 80.862 263.588 81.162C264.116 81.45 264.53 81.864 264.83 82.404L265.028 80.82H266.306ZM261.824 88.794C262.412 88.794 262.934 88.656 263.39 88.38C263.858 88.092 264.218 87.696 264.47 87.192C264.722 86.676 264.848 86.094 264.848 85.446C264.848 84.786 264.722 84.198 264.47 83.682C264.218 83.154 263.858 82.746 263.39 82.458C262.934 82.17 262.412 82.026 261.824 82.026C260.912 82.026 260.174 82.344 259.61 82.98C259.058 83.604 258.782 84.414 258.782 85.41C258.782 86.406 259.058 87.222 259.61 87.858C260.174 88.482 260.912 88.794 261.824 88.794ZM276.219 80.82V90H274.941L274.743 88.776C274.047 89.664 273.069 90.108 271.809 90.108C270.717 90.108 269.841 89.772 269.181 89.1C268.521 88.428 268.191 87.372 268.191 85.932V80.82H269.667V85.842C269.667 86.79 269.871 87.516 270.279 88.02C270.699 88.512 271.293 88.758 272.061 88.758C272.901 88.758 273.555 88.458 274.023 87.858C274.503 87.258 274.743 86.442 274.743 85.41V80.82H276.219ZM277.907 85.41C277.907 84.474 278.087 83.652 278.447 82.944C278.819 82.236 279.335 81.69 279.995 81.306C280.655 80.91 281.411 80.712 282.263 80.712C283.103 80.712 283.847 80.886 284.495 81.234C285.143 81.582 285.653 82.086 286.025 82.746C286.397 83.406 286.595 84.18 286.619 85.068C286.619 85.2 286.607 85.41 286.583 85.698H279.455V85.824C279.479 86.724 279.755 87.444 280.283 87.984C280.811 88.524 281.501 88.794 282.353 88.794C283.013 88.794 283.571 88.632 284.027 88.308C284.495 87.972 284.807 87.51 284.963 86.922H286.457C286.277 87.858 285.827 88.626 285.107 89.226C284.387 89.814 283.505 90.108 282.461 90.108C281.549 90.108 280.751 89.916 280.067 89.532C279.383 89.136 278.849 88.584 278.465 87.876C278.093 87.156 277.907 86.334 277.907 85.41ZM285.089 84.474C285.017 83.694 284.723 83.088 284.207 82.656C283.703 82.224 283.061 82.008 282.281 82.008C281.585 82.008 280.973 82.236 280.445 82.692C279.917 83.148 279.617 83.742 279.545 84.474H285.089ZM289.42 86.976C289.444 87.528 289.684 87.978 290.14 88.326C290.608 88.674 291.208 88.848 291.94 88.848C292.588 88.848 293.11 88.722 293.506 88.47C293.914 88.206 294.118 87.864 294.118 87.444C294.118 87.084 294.022 86.808 293.83 86.616C293.638 86.424 293.386 86.292 293.074 86.22C292.774 86.148 292.342 86.076 291.778 86.004C290.986 85.908 290.338 85.782 289.834 85.626C289.33 85.47 288.922 85.224 288.61 84.888C288.298 84.54 288.142 84.066 288.142 83.466C288.142 82.926 288.292 82.446 288.592 82.026C288.904 81.606 289.324 81.282 289.852 81.054C290.38 80.814 290.974 80.694 291.634 80.694C292.714 80.694 293.59 80.946 294.262 81.45C294.946 81.954 295.324 82.674 295.396 83.61H293.92C293.86 83.13 293.626 82.734 293.218 82.422C292.81 82.11 292.3 81.954 291.688 81.954C291.064 81.954 290.56 82.086 290.176 82.35C289.792 82.602 289.6 82.938 289.6 83.358C289.6 83.67 289.69 83.91 289.87 84.078C290.05 84.246 290.278 84.36 290.554 84.42C290.842 84.48 291.274 84.546 291.85 84.618C292.654 84.714 293.314 84.846 293.83 85.014C294.358 85.182 294.778 85.452 295.09 85.824C295.414 86.196 295.576 86.7 295.576 87.336C295.576 87.888 295.414 88.374 295.09 88.794C294.766 89.214 294.328 89.538 293.776 89.766C293.224 89.994 292.612 90.108 291.94 90.108C290.74 90.108 289.774 89.832 289.042 89.28C288.322 88.728 287.956 87.96 287.944 86.976H289.42ZM297.862 82.17H296.206V80.82H297.862V78.246H299.338V80.82H301.66V82.17H299.338V87.588C299.338 87.972 299.41 88.248 299.554 88.416C299.71 88.572 299.974 88.65 300.346 88.65H301.948V90H300.256C299.392 90 298.774 89.808 298.402 89.424C298.042 89.04 297.862 88.434 297.862 87.606V82.17ZM307.385 85.41C307.385 84.474 307.565 83.652 307.925 82.944C308.297 82.236 308.813 81.69 309.473 81.306C310.133 80.91 310.889 80.712 311.741 80.712C312.581 80.712 313.325 80.886 313.973 81.234C314.621 81.582 315.131 82.086 315.503 82.746C315.875 83.406 316.073 84.18 316.097 85.068C316.097 85.2 316.085 85.41 316.061 85.698H308.933V85.824C308.957 86.724 309.233 87.444 309.761 87.984C310.289 88.524 310.979 88.794 311.831 88.794C312.491 88.794 313.049 88.632 313.505 88.308C313.973 87.972 314.285 87.51 314.441 86.922H315.935C315.755 87.858 315.305 88.626 314.585 89.226C313.865 89.814 312.983 90.108 311.939 90.108C311.027 90.108 310.229 89.916 309.545 89.532C308.861 89.136 308.327 88.584 307.943 87.876C307.571 87.156 307.385 86.334 307.385 85.41ZM314.567 84.474C314.495 83.694 314.201 83.088 313.685 82.656C313.181 82.224 312.539 82.008 311.759 82.008C311.063 82.008 310.451 82.236 309.923 82.692C309.395 83.148 309.095 83.742 309.023 84.474H314.567ZM320.058 85.284L316.8 80.82H318.564L321.012 84.222L323.496 80.82H325.134L321.858 85.284L325.368 90H323.604L320.904 86.31L318.204 90H316.566L320.058 85.284ZM331.144 80.712C331.996 80.712 332.752 80.898 333.412 81.27C334.084 81.642 334.606 82.182 334.978 82.89C335.362 83.598 335.554 84.438 335.554 85.41C335.554 86.334 335.362 87.15 334.978 87.858C334.606 88.566 334.084 89.118 333.412 89.514C332.74 89.91 331.984 90.108 331.144 90.108C330.4 90.108 329.764 89.976 329.236 89.712C328.708 89.436 328.294 89.064 327.994 88.596V93.6H326.518V80.82H327.796L327.994 82.296C328.762 81.24 329.812 80.712 331.144 80.712ZM331 88.794C331.912 88.794 332.644 88.482 333.196 87.858C333.76 87.222 334.042 86.406 334.042 85.41C334.042 84.414 333.76 83.604 333.196 82.98C332.644 82.344 331.912 82.026 331 82.026C330.412 82.026 329.884 82.17 329.416 82.458C328.96 82.734 328.606 83.13 328.354 83.646C328.102 84.15 327.976 84.726 327.976 85.374C327.976 86.034 328.102 86.628 328.354 87.156C328.606 87.672 328.96 88.074 329.416 88.362C329.884 88.65 330.412 88.794 331 88.794ZM336.916 85.41C336.916 84.474 337.096 83.652 337.456 82.944C337.828 82.236 338.344 81.69 339.004 81.306C339.664 80.91 340.42 80.712 341.272 80.712C342.112 80.712 342.856 80.886 343.504 81.234C344.152 81.582 344.662 82.086 345.034 82.746C345.406 83.406 345.604 84.18 345.628 85.068C345.628 85.2 345.616 85.41 345.592 85.698H338.464V85.824C338.488 86.724 338.764 87.444 339.292 87.984C339.82 88.524 340.51 88.794 341.362 88.794C342.022 88.794 342.58 88.632 343.036 88.308C343.504 87.972 343.816 87.51 343.972 86.922H345.466C345.286 87.858 344.836 88.626 344.116 89.226C343.396 89.814 342.514 90.108 341.47 90.108C340.558 90.108 339.76 89.916 339.076 89.532C338.392 89.136 337.858 88.584 337.474 87.876C337.102 87.156 336.916 86.334 336.916 85.41ZM344.098 84.474C344.026 83.694 343.732 83.088 343.216 82.656C342.712 82.224 342.07 82.008 341.29 82.008C340.594 82.008 339.982 82.236 339.454 82.692C338.926 83.148 338.626 83.742 338.554 84.474H344.098ZM351.975 80.82V82.26H351.237C350.361 82.26 349.731 82.554 349.347 83.142C348.975 83.73 348.789 84.456 348.789 85.32V90H347.313V80.82H348.591L348.789 82.206C349.053 81.786 349.395 81.45 349.815 81.198C350.235 80.946 350.817 80.82 351.561 80.82H351.975ZM354.062 77.274C354.338 77.274 354.566 77.364 354.746 77.544C354.926 77.724 355.016 77.952 355.016 78.228C355.016 78.504 354.926 78.732 354.746 78.912C354.566 79.092 354.338 79.182 354.062 79.182C353.786 79.182 353.558 79.092 353.378 78.912C353.198 78.732 353.108 78.504 353.108 78.228C353.108 77.952 353.198 77.724 353.378 77.544C353.558 77.364 353.786 77.274 354.062 77.274ZM353.324 80.82H354.8V90H353.324V80.82ZM356.498 85.41C356.498 84.474 356.678 83.652 357.038 82.944C357.41 82.236 357.926 81.69 358.586 81.306C359.246 80.91 360.002 80.712 360.854 80.712C361.694 80.712 362.438 80.886 363.086 81.234C363.734 81.582 364.244 82.086 364.616 82.746C364.988 83.406 365.186 84.18 365.21 85.068C365.21 85.2 365.198 85.41 365.174 85.698H358.046V85.824C358.07 86.724 358.346 87.444 358.874 87.984C359.402 88.524 360.092 88.794 360.944 88.794C361.604 88.794 362.162 88.632 362.618 88.308C363.086 87.972 363.398 87.51 363.554 86.922H365.048C364.868 87.858 364.418 88.626 363.698 89.226C362.978 89.814 362.096 90.108 361.052 90.108C360.14 90.108 359.342 89.916 358.658 89.532C357.974 89.136 357.44 88.584 357.056 87.876C356.684 87.156 356.498 86.334 356.498 85.41ZM363.68 84.474C363.608 83.694 363.314 83.088 362.798 82.656C362.294 82.224 361.652 82.008 360.872 82.008C360.176 82.008 359.564 82.236 359.036 82.692C358.508 83.148 358.208 83.742 358.136 84.474H363.68ZM371.395 80.712C372.511 80.712 373.405 81.048 374.077 81.72C374.761 82.392 375.103 83.448 375.103 84.888V90H373.627V84.978C373.627 84.03 373.411 83.31 372.979 82.818C372.559 82.314 371.947 82.062 371.143 82.062C370.279 82.062 369.601 82.362 369.109 82.962C368.617 83.562 368.371 84.378 368.371 85.41V90H366.895V80.82H368.173L368.371 82.062C369.067 81.162 370.075 80.712 371.395 80.712ZM385.175 86.832C384.983 87.852 384.533 88.656 383.825 89.244C383.117 89.82 382.217 90.108 381.125 90.108C380.237 90.108 379.457 89.91 378.785 89.514C378.113 89.118 377.591 88.566 377.219 87.858C376.847 87.138 376.661 86.316 376.661 85.392C376.661 84.468 376.847 83.652 377.219 82.944C377.603 82.236 378.137 81.69 378.821 81.306C379.505 80.91 380.291 80.712 381.179 80.712C382.259 80.712 383.147 81 383.843 81.576C384.551 82.152 384.995 82.944 385.175 83.952H383.681C383.537 83.364 383.237 82.896 382.781 82.548C382.325 82.2 381.773 82.026 381.125 82.026C380.249 82.026 379.535 82.338 378.983 82.962C378.443 83.586 378.173 84.396 378.173 85.392C378.173 86.4 378.443 87.222 378.983 87.858C379.535 88.482 380.249 88.794 381.125 88.794C381.797 88.794 382.361 88.62 382.817 88.272C383.273 87.924 383.567 87.444 383.699 86.832H385.175ZM386.364 85.41C386.364 84.474 386.544 83.652 386.904 82.944C387.276 82.236 387.792 81.69 388.452 81.306C389.112 80.91 389.868 80.712 390.72 80.712C391.56 80.712 392.304 80.886 392.952 81.234C393.6 81.582 394.11 82.086 394.482 82.746C394.854 83.406 395.052 84.18 395.076 85.068C395.076 85.2 395.064 85.41 395.04 85.698H387.912V85.824C387.936 86.724 388.212 87.444 388.74 87.984C389.268 88.524 389.958 88.794 390.81 88.794C391.47 88.794 392.028 88.632 392.484 88.308C392.952 87.972 393.264 87.51 393.42 86.922H394.914C394.734 87.858 394.284 88.626 393.564 89.226C392.844 89.814 391.962 90.108 390.918 90.108C390.006 90.108 389.208 89.916 388.524 89.532C387.84 89.136 387.306 88.584 386.922 87.876C386.55 87.156 386.364 86.334 386.364 85.41ZM393.546 84.474C393.474 83.694 393.18 83.088 392.664 82.656C392.16 82.224 391.518 82.008 390.738 82.008C390.042 82.008 389.43 82.236 388.902 82.692C388.374 83.148 388.074 83.742 388.002 84.474H393.546ZM402.209 77.274C402.485 77.274 402.713 77.364 402.893 77.544C403.073 77.724 403.163 77.952 403.163 78.228C403.163 78.504 403.073 78.732 402.893 78.912C402.713 79.092 402.485 79.182 402.209 79.182C401.933 79.182 401.705 79.092 401.525 78.912C401.345 78.732 401.255 78.504 401.255 78.228C401.255 77.952 401.345 77.724 401.525 77.544C401.705 77.364 401.933 77.274 402.209 77.274ZM401.471 80.82H402.947V90H401.471V80.82ZM406.121 86.976C406.145 87.528 406.385 87.978 406.841 88.326C407.309 88.674 407.909 88.848 408.641 88.848C409.289 88.848 409.811 88.722 410.207 88.47C410.615 88.206 410.819 87.864 410.819 87.444C410.819 87.084 410.723 86.808 410.531 86.616C410.339 86.424 410.087 86.292 409.775 86.22C409.475 86.148 409.043 86.076 408.479 86.004C407.687 85.908 407.039 85.782 406.535 85.626C406.031 85.47 405.623 85.224 405.311 84.888C404.999 84.54 404.843 84.066 404.843 83.466C404.843 82.926 404.993 82.446 405.293 82.026C405.605 81.606 406.025 81.282 406.553 81.054C407.081 80.814 407.675 80.694 408.335 80.694C409.415 80.694 410.291 80.946 410.963 81.45C411.647 81.954 412.025 82.674 412.097 83.61H410.621C410.561 83.13 410.327 82.734 409.919 82.422C409.511 82.11 409.001 81.954 408.389 81.954C407.765 81.954 407.261 82.086 406.877 82.35C406.493 82.602 406.301 82.938 406.301 83.358C406.301 83.67 406.391 83.91 406.571 84.078C406.751 84.246 406.979 84.36 407.255 84.42C407.543 84.48 407.975 84.546 408.551 84.618C409.355 84.714 410.015 84.846 410.531 85.014C411.059 85.182 411.479 85.452 411.791 85.824C412.115 86.196 412.277 86.7 412.277 87.336C412.277 87.888 412.115 88.374 411.791 88.794C411.467 89.214 411.029 89.538 410.477 89.766C409.925 89.994 409.313 90.108 408.641 90.108C407.441 90.108 406.475 89.832 405.743 89.28C405.023 88.728 404.657 87.96 404.645 86.976H406.121ZM427.248 88.65V90H426.438C425.85 90 425.43 89.88 425.178 89.64C424.926 89.4 424.794 89.046 424.782 88.578C424.074 89.598 423.048 90.108 421.704 90.108C420.684 90.108 419.862 89.868 419.238 89.388C418.626 88.908 418.32 88.254 418.32 87.426C418.32 86.502 418.632 85.794 419.256 85.302C419.892 84.81 420.81 84.564 422.01 84.564H424.71V83.934C424.71 83.334 424.506 82.866 424.098 82.53C423.702 82.194 423.144 82.026 422.424 82.026C421.788 82.026 421.26 82.17 420.84 82.458C420.432 82.734 420.18 83.106 420.084 83.574H418.608C418.716 82.674 419.112 81.972 419.796 81.468C420.492 80.964 421.392 80.712 422.496 80.712C423.672 80.712 424.578 81 425.214 81.576C425.862 82.14 426.186 82.956 426.186 84.024V87.984C426.186 88.428 426.39 88.65 426.798 88.65H427.248ZM424.71 85.806H421.866C420.498 85.806 419.814 86.316 419.814 87.336C419.814 87.792 419.994 88.158 420.354 88.434C420.714 88.71 421.2 88.848 421.812 88.848C422.712 88.848 423.42 88.614 423.936 88.146C424.452 87.666 424.71 87.036 424.71 86.256V85.806ZM428.995 80.82V79.794C428.995 78.978 429.181 78.378 429.553 77.994C429.937 77.598 430.549 77.4 431.389 77.4H433.081V78.75H431.479C431.119 78.75 430.861 78.828 430.705 78.984C430.549 79.14 430.471 79.398 430.471 79.758V80.82H433.063V82.17H430.471V90H428.995V82.17H427.339V80.82H428.995ZM434.061 79.794C434.061 78.978 434.247 78.378 434.619 77.994C435.003 77.598 435.615 77.4 436.455 77.4H438.147V78.75H436.545C436.185 78.75 435.927 78.828 435.771 78.984C435.615 79.14 435.537 79.398 435.537 79.758V80.82H438.129V82.17H435.537V90H434.061V79.794ZM438.377 85.41C438.377 84.474 438.557 83.652 438.917 82.944C439.289 82.236 439.805 81.69 440.465 81.306C441.125 80.91 441.881 80.712 442.733 80.712C443.573 80.712 444.317 80.886 444.965 81.234C445.613 81.582 446.123 82.086 446.495 82.746C446.867 83.406 447.065 84.18 447.089 85.068C447.089 85.2 447.077 85.41 447.053 85.698H439.925V85.824C439.949 86.724 440.225 87.444 440.753 87.984C441.281 88.524 441.971 88.794 442.823 88.794C443.483 88.794 444.041 88.632 444.497 88.308C444.965 87.972 445.277 87.51 445.433 86.922H446.927C446.747 87.858 446.297 88.626 445.577 89.226C444.857 89.814 443.975 90.108 442.931 90.108C442.019 90.108 441.221 89.916 440.537 89.532C439.853 89.136 439.319 88.584 438.935 87.876C438.563 87.156 438.377 86.334 438.377 85.41ZM445.559 84.474C445.487 83.694 445.193 83.088 444.677 82.656C444.173 82.224 443.531 82.008 442.751 82.008C442.055 82.008 441.443 82.236 440.915 82.692C440.387 83.148 440.087 83.742 440.015 84.474H445.559ZM456.964 86.832C456.772 87.852 456.322 88.656 455.614 89.244C454.906 89.82 454.006 90.108 452.914 90.108C452.026 90.108 451.246 89.91 450.574 89.514C449.902 89.118 449.38 88.566 449.008 87.858C448.636 87.138 448.45 86.316 448.45 85.392C448.45 84.468 448.636 83.652 449.008 82.944C449.392 82.236 449.926 81.69 450.61 81.306C451.294 80.91 452.08 80.712 452.968 80.712C454.048 80.712 454.936 81 455.632 81.576C456.34 82.152 456.784 82.944 456.964 83.952H455.47C455.326 83.364 455.026 82.896 454.57 82.548C454.114 82.2 453.562 82.026 452.914 82.026C452.038 82.026 451.324 82.338 450.772 82.962C450.232 83.586 449.962 84.396 449.962 85.392C449.962 86.4 450.232 87.222 450.772 87.858C451.324 88.482 452.038 88.794 452.914 88.794C453.586 88.794 454.15 88.62 454.606 88.272C455.062 87.924 455.356 87.444 455.488 86.832H456.964ZM459.282 82.17H457.626V80.82H459.282V78.246H460.758V80.82H463.08V82.17H460.758V87.588C460.758 87.972 460.83 88.248 460.974 88.416C461.13 88.572 461.394 88.65 461.766 88.65H463.368V90H461.676C460.812 90 460.194 89.808 459.822 89.424C459.462 89.04 459.282 88.434 459.282 87.606V82.17ZM463.866 85.41C463.866 84.474 464.046 83.652 464.406 82.944C464.778 82.236 465.294 81.69 465.954 81.306C466.614 80.91 467.37 80.712 468.222 80.712C469.062 80.712 469.806 80.886 470.454 81.234C471.102 81.582 471.612 82.086 471.984 82.746C472.356 83.406 472.554 84.18 472.578 85.068C472.578 85.2 472.566 85.41 472.542 85.698H465.414V85.824C465.438 86.724 465.714 87.444 466.242 87.984C466.77 88.524 467.46 88.794 468.312 88.794C468.972 88.794 469.53 88.632 469.986 88.308C470.454 87.972 470.766 87.51 470.922 86.922H472.416C472.236 87.858 471.786 88.626 471.066 89.226C470.346 89.814 469.464 90.108 468.42 90.108C467.508 90.108 466.71 89.916 466.026 89.532C465.342 89.136 464.808 88.584 464.424 87.876C464.052 87.156 463.866 86.334 463.866 85.41ZM471.048 84.474C470.976 83.694 470.682 83.088 470.166 82.656C469.662 82.224 469.02 82.008 468.24 82.008C467.544 82.008 466.932 82.236 466.404 82.692C465.876 83.148 465.576 83.742 465.504 84.474H471.048ZM482.974 77.4V90H481.696L481.498 88.524C480.73 89.58 479.68 90.108 478.348 90.108C477.496 90.108 476.734 89.922 476.062 89.55C475.402 89.178 474.88 88.638 474.496 87.93C474.124 87.222 473.938 86.382 473.938 85.41C473.938 84.486 474.124 83.67 474.496 82.962C474.88 82.254 475.408 81.702 476.08 81.306C476.752 80.91 477.508 80.712 478.348 80.712C479.092 80.712 479.728 80.85 480.256 81.126C480.784 81.39 481.198 81.756 481.498 82.224V77.4H482.974ZM478.492 88.794C479.08 88.794 479.602 88.656 480.058 88.38C480.526 88.092 480.886 87.696 481.138 87.192C481.39 86.676 481.516 86.094 481.516 85.446C481.516 84.786 481.39 84.198 481.138 83.682C480.886 83.154 480.526 82.746 480.058 82.458C479.602 82.17 479.08 82.026 478.492 82.026C477.58 82.026 476.842 82.344 476.278 82.98C475.726 83.604 475.45 84.414 475.45 85.41C475.45 86.406 475.726 87.222 476.278 87.858C476.842 88.482 477.58 88.794 478.492 88.794ZM484.805 89.1C484.805 88.8 484.901 88.56 485.093 88.38C485.285 88.188 485.531 88.092 485.831 88.092C486.131 88.092 486.377 88.188 486.569 88.38C486.761 88.56 486.857 88.8 486.857 89.1C486.857 89.4 486.761 89.646 486.569 89.838C486.377 90.018 486.131 90.108 485.831 90.108C485.531 90.108 485.285 90.018 485.093 89.838C484.901 89.646 484.805 89.4 484.805 89.1Z" fill="black"/>
<path d="M584.333 441.5C584.333 442.973 585.527 444.167 587 444.167C588.473 444.167 589.667 442.973 589.667 441.5C589.667 440.027 588.473 438.833 587 438.833C585.527 438.833 584.333 440.027 584.333 441.5ZM517 68.5L516.58 68.7721C516.925 69.3041 517.273 69.8436 517.622 70.3906L518.044 70.1214L518.465 69.8522C518.114 69.3033 517.766 68.7619 517.42 68.2279L517 68.5ZM520.169 73.4978L519.745 73.7615C520.424 74.8556 521.11 75.976 521.803 77.1223L522.231 76.8636L522.659 76.605C521.964 75.4554 521.275 74.3316 520.594 73.2341L520.169 73.4978ZM524.284 80.304L523.853 80.5578C524.508 81.669 525.168 82.8021 525.833 83.9567L526.266 83.7073L526.699 83.4578C526.033 82.3003 525.371 81.1643 524.715 80.0501L524.284 80.304ZM528.245 87.1841L527.809 87.4294C528.445 88.5594 529.085 89.7082 529.728 90.8755L530.166 90.6343L530.603 90.3931C529.959 89.2231 529.318 88.0716 528.681 86.9389L528.245 87.1841ZM532.071 94.1316L531.631 94.3689C532.252 95.5195 532.875 96.6867 533.5 97.8702L533.942 97.6366L534.384 97.4031C533.757 96.2171 533.133 95.0474 532.511 93.8943L532.071 94.1316ZM535.777 101.145L535.333 101.375C535.94 102.547 536.549 103.735 537.159 104.937L537.605 104.71L538.051 104.484C537.44 103.279 536.829 102.09 536.221 100.915L535.777 101.145ZM539.372 108.224L538.925 108.447C539.515 109.63 540.105 110.827 540.696 112.037L541.146 111.818L541.595 111.598C541.002 110.386 540.411 109.187 539.82 108.001L539.372 108.224ZM542.865 115.369L542.414 115.586C542.982 116.768 543.549 117.963 544.117 119.17L544.57 118.957L545.022 118.744C544.453 117.535 543.884 116.338 543.316 115.153L542.865 115.369ZM546.26 122.58L545.806 122.79C546.352 123.972 546.898 125.165 547.444 126.369L547.899 126.162L548.354 125.956C547.808 124.75 547.261 123.555 546.713 122.371L546.26 122.58ZM549.536 129.806L549.08 130.009C549.613 131.208 550.146 132.416 550.678 133.633L551.136 133.433L551.594 133.233C551.061 132.013 550.527 130.803 549.993 129.603L549.536 129.806ZM552.709 137.066L552.249 137.263C552.772 138.482 553.294 139.711 553.815 140.948L554.276 140.754L554.737 140.56C554.215 139.321 553.692 138.09 553.168 136.869L552.709 137.066ZM555.793 144.393L555.331 144.584C555.833 145.8 556.334 147.023 556.833 148.255L557.297 148.068L557.76 147.88C557.26 146.646 556.758 145.42 556.255 144.202L555.793 144.393ZM558.789 151.785L558.324 151.97C558.807 153.182 559.287 154.403 559.766 155.63L560.232 155.449L560.698 155.267C560.218 154.037 559.737 152.815 559.254 151.6L558.789 151.785ZM561.664 159.157L561.197 159.336C561.67 160.573 562.142 161.818 562.611 163.07L563.079 162.895L563.547 162.719C563.077 161.465 562.605 160.218 562.131 158.979L561.664 159.157ZM564.451 166.592L563.982 166.764C564.437 168.003 564.89 169.247 565.34 170.499L565.811 170.329L566.281 170.16C565.83 168.907 565.376 167.66 564.921 166.42L564.451 166.592ZM567.15 174.091L566.679 174.257C567.114 175.492 567.547 176.733 567.978 177.98L568.451 177.817L568.923 177.654C568.492 176.405 568.058 175.161 567.622 173.924L567.15 174.091ZM569.736 181.58L569.262 181.74C569.686 182.995 570.108 184.257 570.526 185.524L571.001 185.367L571.476 185.21C571.056 183.941 570.634 182.677 570.209 181.42L569.736 181.58ZM572.228 189.119L571.752 189.273C572.157 190.528 572.56 191.789 572.96 193.055L573.437 192.904L573.914 192.754C573.513 191.485 573.11 190.223 572.703 188.966L572.228 189.119ZM574.628 196.72L574.15 196.867C574.537 198.12 574.92 199.377 575.3 200.639L575.779 200.495L576.258 200.351C575.877 199.086 575.493 197.827 575.106 196.572L574.628 196.72ZM576.911 204.3L576.432 204.441C576.806 205.713 577.176 206.99 577.544 208.272L578.024 208.134L578.505 207.996C578.137 206.713 577.766 205.433 577.391 204.159L576.911 204.3ZM579.101 211.941L578.62 212.075C578.974 213.344 579.325 214.618 579.672 215.896L580.155 215.765L580.637 215.633C580.289 214.353 579.938 213.078 579.583 211.806L579.101 211.941ZM581.187 219.614L580.704 219.742C581.041 221.017 581.375 222.295 581.704 223.578L582.189 223.453L582.673 223.329C582.343 222.044 582.008 220.763 581.671 219.486L581.187 219.614ZM583.162 227.294L582.677 227.415C582.997 228.698 583.314 229.985 583.627 231.276L584.113 231.159L584.599 231.041C584.285 229.748 583.968 228.458 583.647 227.173L583.162 227.294ZM585.036 235.028L584.549 235.143C584.85 236.423 585.147 237.708 585.439 238.996L585.927 238.885L586.414 238.774C586.121 237.484 585.824 236.197 585.522 234.914L585.036 235.028ZM586.794 242.764L586.306 242.871C586.59 244.166 586.87 245.464 587.147 246.766L587.636 246.662L588.125 246.559C587.848 245.254 587.567 243.954 587.282 242.656L586.794 242.764ZM588.443 250.534L587.953 250.635C588.217 251.927 588.477 253.223 588.733 254.523L589.224 254.426L589.714 254.329C589.458 253.028 589.197 251.729 588.932 250.434L588.443 250.534ZM589.979 258.337L589.488 258.429C589.733 259.726 589.974 261.025 590.21 262.327L590.702 262.237L591.194 262.148C590.957 260.844 590.716 259.542 590.47 258.244L589.979 258.337ZM591.395 266.141L590.902 266.227C591.129 267.53 591.35 268.835 591.567 270.144L592.061 270.062L592.554 269.98C592.336 268.669 592.114 267.361 591.888 266.056L591.395 266.141ZM592.696 273.989L592.202 274.067C592.408 275.368 592.609 276.672 592.805 277.979L593.299 277.904L593.794 277.83C593.597 276.521 593.396 275.215 593.19 273.911L592.696 273.989ZM593.873 281.835L593.378 281.905C593.564 283.216 593.745 284.53 593.921 285.846L594.417 285.779L594.912 285.713C594.736 284.394 594.554 283.078 594.368 281.764L593.873 281.835ZM594.927 289.71L594.431 289.773C594.596 291.082 594.755 292.394 594.91 293.707L595.406 293.649L595.903 293.591C595.748 292.274 595.588 290.96 595.423 289.648L594.927 289.71ZM595.854 297.601L595.357 297.655C595.501 298.969 595.639 300.285 595.772 301.604L596.27 301.554L596.767 301.503C596.634 300.182 596.495 298.863 596.351 297.546L595.854 297.601ZM596.651 305.499L596.154 305.545C596.275 306.861 596.392 308.179 596.503 309.498L597.001 309.456L597.499 309.414C597.388 308.092 597.271 306.772 597.149 305.453L596.651 305.499ZM597.317 313.424L596.819 313.462C596.918 314.777 597.012 316.093 597.1 317.412L597.599 317.378L598.098 317.345C598.009 316.024 597.915 314.704 597.816 313.386L597.317 313.424ZM597.846 321.339L597.347 321.368C597.424 322.689 597.495 324.011 597.56 325.334L598.059 325.309L598.559 325.285C598.493 323.958 598.422 322.634 598.345 321.31L597.846 321.339ZM598.238 329.28L597.738 329.3C597.791 330.618 597.839 331.937 597.88 333.258L598.38 333.242L598.88 333.227C598.838 331.903 598.791 330.58 598.737 329.259L598.238 329.28ZM598.487 337.213L597.987 337.224C598.017 338.547 598.04 339.872 598.058 341.197L598.558 341.191L599.058 341.184C599.04 339.855 599.017 338.528 598.987 337.202L598.487 337.213ZM598.592 345.157L598.092 345.159C598.097 346.479 598.096 347.8 598.089 349.123L598.589 349.125L599.089 349.128C599.096 347.803 599.097 346.478 599.092 345.155L598.592 345.157ZM598.549 353.1L598.049 353.093C598.03 354.415 598.004 355.738 597.972 357.062L598.471 357.074L598.971 357.087C599.004 355.759 599.03 354.433 599.049 353.107L598.549 353.1ZM598.356 361.038L597.856 361.021C597.811 362.341 597.76 363.662 597.702 364.984L598.202 365.006L598.701 365.028C598.759 363.703 598.81 362.378 598.855 361.055L598.356 361.038ZM598.008 368.979L597.509 368.952C597.438 370.27 597.361 371.589 597.277 372.909L597.776 372.94L598.275 372.972C598.359 371.649 598.437 370.327 598.507 369.005L598.008 368.979ZM597.504 376.899L597.006 376.862C596.909 378.18 596.805 379.499 596.694 380.818L597.192 380.86L597.691 380.902C597.801 379.579 597.906 378.257 598.003 376.935L597.504 376.899ZM596.839 384.822L596.342 384.775C596.218 386.088 596.087 387.401 595.95 388.715L596.447 388.767L596.945 388.819C597.082 387.502 597.213 386.185 597.337 384.869L596.839 384.822ZM596.014 392.713L595.517 392.656C595.366 393.97 595.207 395.284 595.042 396.598L595.538 396.661L596.034 396.723C596.2 395.405 596.359 394.088 596.51 392.77L596.014 392.713ZM595.021 400.598L594.525 400.531C594.347 401.838 594.161 403.145 593.968 404.452L594.463 404.525L594.957 404.598C595.151 403.287 595.337 401.977 595.516 400.666L595.021 400.598ZM593.861 408.451L593.367 408.373C593.16 409.68 592.945 410.987 592.723 412.294L593.216 412.378L593.709 412.461C593.932 411.151 594.147 409.84 594.355 408.53L593.861 408.451ZM592.53 416.283L592.038 416.194C591.803 417.492 591.56 418.791 591.31 420.089L591.801 420.183L592.292 420.278C592.543 418.976 592.786 417.674 593.022 416.372L592.53 416.283ZM591.027 424.082L590.537 423.982C590.272 425.278 590 426.573 589.72 427.868L590.208 427.974L590.697 428.08C590.978 426.781 591.251 425.482 591.517 424.182L591.027 424.082ZM589.349 431.842L588.862 431.731C588.568 433.018 588.267 434.305 587.958 435.591L588.444 435.708L588.93 435.825C589.24 434.535 589.542 433.244 589.837 431.953L589.349 431.842ZM587.493 439.57L587.008 439.448C586.846 440.09 586.682 440.733 586.516 441.375L587 441.5L587.484 441.625C587.651 440.981 587.815 440.337 587.978 439.693L587.493 439.57Z" fill="white"/>
<rect x="48" y="53" width="31" height="31" rx="4" fill="#5A7E83"/>
<path d="M70.2222 77V75.1112C70.2222 74.1092 69.8242 73.1483 69.1157 72.4399C68.4073 71.7314 67.4464 71.3334 66.4444 71.3334H60.7778C59.7758 71.3334 58.815 71.7314 58.1065 72.4399C57.398 73.1483 57 74.1092 57 75.1112V77" stroke="white" stroke-width="1.5" stroke-linecap="round" stroke-linejoin="round"/>
<path d="M63.6098 67.5556C65.6962 67.5556 67.3876 65.8642 67.3876 63.7778C67.3876 61.6914 65.6962 60 63.6098 60C61.5234 60 59.832 61.6914 59.832 63.7778C59.832 65.8642 61.5234 67.5556 63.6098 67.5556Z" stroke="white" stroke-width="1.5" stroke-linecap="round" stroke-linejoin="round"/>
</svg>
