<svg width="429" height="429" viewBox="0 0 429 429" fill="none" xmlns="http://www.w3.org/2000/svg">
<foreignObject x="-100" y="-100" width="629" height="629"><div xmlns="http://www.w3.org/1999/xhtml" style="backdrop-filter:blur(50px);clip-path:url(#bgblur_0_87_1460_clip_path);height:100%;width:100%"></div></foreignObject><rect data-figma-bg-blur-radius="100" width="429" height="429" rx="20" fill="url(#paint0_linear_87_1460)" fill-opacity="0.3"/>
<foreignObject x="-100" y="-62" width="576" height="591"><div xmlns="http://www.w3.org/1999/xhtml" style="backdrop-filter:blur(50px);clip-path:url(#bgblur_1_87_1460_clip_path);height:100%;width:100%"></div></foreignObject><path data-figma-bg-blur-radius="100" d="M0 38H356C367.046 38 376 46.9543 376 58V429H0V38Z" fill="url(#paint1_linear_87_1460)" fill-opacity="0.4"/>
<foreignObject x="-100" y="36" width="543" height="493"><div xmlns="http://www.w3.org/1999/xhtml" style="backdrop-filter:blur(50px);clip-path:url(#bgblur_2_87_1460_clip_path);height:100%;width:100%"></div></foreignObject><rect data-figma-bg-blur-radius="100" y="136" width="343" height="293" fill="url(#paint2_linear_87_1460)" fill-opacity="0.4"/>
<foreignObject x="-100" y="-11" width="543" height="247"><div xmlns="http://www.w3.org/1999/xhtml" style="backdrop-filter:blur(50px);clip-path:url(#bgblur_3_87_1460_clip_path);height:100%;width:100%"></div></foreignObject><path data-figma-bg-blur-radius="100" d="M0 89H323C334.046 89 343 97.9543 343 109V136H0V89Z" fill="white" fill-opacity="0.5"/>
<rect width="115" height="27" rx="5.07913" transform="matrix(1 0 0 -1 9 78)" fill="#175679" fill-opacity="0.6"/>
<path d="M21.0681 60.064H22.2681V62.864H24.9401V63.968H22.2681V66.784H21.0681V63.968H18.4121V62.864H21.0681V60.064ZM29.7338 63.5529C29.7338 62.6635 29.9074 61.8758 30.2547 61.1896C30.602 60.5035 31.0975 59.9741 31.7413 59.6014C32.3851 59.2202 33.1305 59.0296 33.9775 59.0296C34.9601 59.0296 35.7818 59.2965 36.4425 59.8301C37.1117 60.3638 37.531 61.0922 37.7004 62.0155H36.595C36.434 61.3972 36.1164 60.9144 35.642 60.5671C35.1761 60.2198 34.6044 60.0461 33.9267 60.0461C33.3168 60.0461 32.779 60.1944 32.3131 60.4908C31.8472 60.7873 31.4872 61.2024 31.2331 61.736C30.9874 62.2612 30.8646 62.8668 30.8646 63.5529C30.8646 64.2306 30.9874 64.8362 31.2331 65.3699C31.4872 65.9035 31.8472 66.3186 32.3131 66.6151C32.779 66.9115 33.3168 67.0598 33.9267 67.0598C34.6128 67.0598 35.1846 66.8904 35.642 66.5515C36.0994 66.2042 36.4128 65.7172 36.5823 65.0904H37.6877C37.5183 66.0136 37.1032 66.7421 36.4425 67.2758C35.7903 67.8094 34.9686 68.0762 33.9775 68.0762C33.1305 68.0762 32.3851 67.8899 31.7413 67.5172C31.0975 67.136 30.602 66.6066 30.2547 65.9289C29.9074 65.2428 29.7338 64.4508 29.7338 63.5529ZM42.2232 61.52V62.5365H41.7022C41.0839 62.5365 40.6392 62.744 40.3681 63.1591C40.1055 63.5741 39.9742 64.0866 39.9742 64.6965V68H38.9323V61.52H39.8345L39.9742 62.4984C40.1606 62.2019 40.402 61.9647 40.6985 61.7868C40.9949 61.6089 41.4058 61.52 41.9309 61.52H42.2232ZM42.575 64.76C42.575 64.0993 42.702 63.5191 42.9561 63.0193C43.2187 62.5195 43.583 62.1341 44.0488 61.8631C44.5147 61.5835 45.0484 61.4438 45.6498 61.4438C46.2427 61.4438 46.7679 61.5666 47.2253 61.8122C47.6827 62.0579 48.0427 62.4136 48.3053 62.8795C48.5679 63.3454 48.7077 63.8918 48.7246 64.5186C48.7246 64.6118 48.7161 64.76 48.6992 64.9633H43.6677V65.0522C43.6846 65.6875 43.8794 66.1958 44.2521 66.5769C44.6248 66.9581 45.1119 67.1487 45.7133 67.1487C46.1792 67.1487 46.5731 67.0344 46.895 66.8056C47.2253 66.5685 47.4456 66.2424 47.5557 65.8273H48.6103C48.4832 66.488 48.1656 67.0301 47.6573 67.4536C47.1491 67.8687 46.5265 68.0762 45.7896 68.0762C45.1458 68.0762 44.5825 67.9407 44.0997 67.6696C43.6168 67.3901 43.2399 67.0005 42.9688 66.5007C42.7063 65.9925 42.575 65.4122 42.575 64.76ZM47.6446 64.0993C47.5938 63.5487 47.3863 63.1209 47.022 62.816C46.6663 62.5111 46.2131 62.3586 45.6625 62.3586C45.1712 62.3586 44.7392 62.5195 44.3665 62.8414C43.9938 63.1633 43.782 63.5826 43.7312 64.0993H47.6446ZM55.9742 67.0471V68H55.4024C54.9874 68 54.6909 67.9153 54.513 67.7459C54.3351 67.5765 54.242 67.3266 54.2335 66.9962C53.7337 67.7162 53.0095 68.0762 52.0608 68.0762C51.3408 68.0762 50.7606 67.9068 50.3201 67.568C49.8881 67.2292 49.6721 66.7675 49.6721 66.1831C49.6721 65.5308 49.8923 65.0311 50.3328 64.6838C50.7817 64.3365 51.4297 64.1628 52.2768 64.1628H54.1827V63.7181C54.1827 63.2946 54.0387 62.9642 53.7507 62.7271C53.4711 62.4899 53.0773 62.3713 52.569 62.3713C52.1201 62.3713 51.7474 62.4729 51.4509 62.6762C51.1629 62.8711 50.985 63.1336 50.9173 63.464H49.8754C49.9516 62.8287 50.2311 62.3332 50.714 61.9774C51.2053 61.6216 51.8406 61.4438 52.6199 61.4438C53.45 61.4438 54.0895 61.6471 54.5384 62.0536C54.9959 62.4518 55.2246 63.0278 55.2246 63.7816V66.5769C55.2246 66.8904 55.3686 67.0471 55.6566 67.0471H55.9742ZM54.1827 65.0395H52.1751C51.2095 65.0395 50.7267 65.3995 50.7267 66.1195C50.7267 66.4414 50.8537 66.6998 51.1079 66.8946C51.362 67.0894 51.705 67.1868 52.137 67.1868C52.7723 67.1868 53.2721 67.0216 53.6363 66.6913C54.0006 66.3525 54.1827 65.9078 54.1827 65.3572V65.0395ZM57.2072 62.4729H56.0382V61.52H57.2072V59.7031H58.2491V61.52H59.8881V62.4729H58.2491V66.2974C58.2491 66.5685 58.2999 66.7633 58.4015 66.8819C58.5116 66.992 58.698 67.0471 58.9606 67.0471H60.0914V68H58.8971C58.2872 68 57.8509 67.8645 57.5884 67.5934C57.3342 67.3224 57.2072 66.8946 57.2072 66.3101V62.4729ZM60.4426 64.76C60.4426 64.0993 60.5697 63.5191 60.8238 63.0193C61.0864 62.5195 61.4506 62.1341 61.9165 61.8631C62.3824 61.5835 62.916 61.4438 63.5174 61.4438C64.1104 61.4438 64.6356 61.5666 65.093 61.8122C65.5504 62.0579 65.9104 62.4136 66.173 62.8795C66.4356 63.3454 66.5753 63.8918 66.5923 64.5186C66.5923 64.6118 66.5838 64.76 66.5668 64.9633H61.5353V65.0522C61.5523 65.6875 61.7471 66.1958 62.1198 66.5769C62.4925 66.9581 62.9796 67.1487 63.581 67.1487C64.0468 67.1487 64.4407 67.0344 64.7626 66.8056C65.093 66.5685 65.3132 66.2424 65.4233 65.8273H66.4779C66.3508 66.488 66.0332 67.0301 65.525 67.4536C65.0167 67.8687 64.3941 68.0762 63.6572 68.0762C63.0134 68.0762 62.4501 67.9407 61.9673 67.6696C61.4845 67.3901 61.1076 67.0005 60.8365 66.5007C60.5739 65.9925 60.4426 65.4122 60.4426 64.76ZM65.5123 64.0993C65.4614 63.5487 65.2539 63.1209 64.8897 62.816C64.5339 62.5111 64.0807 62.3586 63.5301 62.3586C63.0388 62.3586 62.6068 62.5195 62.2341 62.8414C61.8614 63.1633 61.6497 63.5826 61.5988 64.0993H65.5123ZM71.259 59.1059H72.6566L75.8077 66.488L78.9206 59.1059H80.2929V68H79.2129V60.9864L76.2651 68H75.2868L72.339 60.9864V68H71.259V59.1059ZM81.6356 64.76C81.6356 64.0993 81.7627 63.5191 82.0168 63.0193C82.2794 62.5195 82.6436 62.1341 83.1095 61.8631C83.5754 61.5835 84.109 61.4438 84.7104 61.4438C85.3034 61.4438 85.8286 61.5666 86.286 61.8122C86.7434 62.0579 87.1034 62.4136 87.366 62.8795C87.6286 63.3454 87.7683 63.8918 87.7853 64.5186C87.7853 64.6118 87.7768 64.76 87.7599 64.9633H82.7283V65.0522C82.7453 65.6875 82.9401 66.1958 83.3128 66.5769C83.6855 66.9581 84.1726 67.1487 84.774 67.1487C85.2399 67.1487 85.6337 67.0344 85.9556 66.8056C86.286 66.5685 86.5062 66.2424 86.6163 65.8273H87.6709C87.5439 66.488 87.2262 67.0301 86.718 67.4536C86.2097 67.8687 85.5872 68.0762 84.8502 68.0762C84.2064 68.0762 83.6432 67.9407 83.1603 67.6696C82.6775 67.3901 82.3006 67.0005 82.0295 66.5007C81.7669 65.9925 81.6356 65.4122 81.6356 64.76ZM86.7053 64.0993C86.6544 63.5487 86.4469 63.1209 86.0827 62.816C85.7269 62.5111 85.2737 62.3586 84.7232 62.3586C84.2319 62.3586 83.7999 62.5195 83.4272 62.8414C83.0544 63.1633 82.8427 63.5826 82.7919 64.0993H86.7053ZM88.7455 64.76C88.7455 64.0993 88.8725 63.5191 89.1266 63.0193C89.3892 62.5195 89.7535 62.1341 90.2193 61.8631C90.6852 61.5835 91.2189 61.4438 91.8203 61.4438C92.4132 61.4438 92.9384 61.5666 93.3958 61.8122C93.8532 62.0579 94.2132 62.4136 94.4758 62.8795C94.7384 63.3454 94.8782 63.8918 94.8951 64.5186C94.8951 64.6118 94.8866 64.76 94.8697 64.9633H89.8382V65.0522C89.8551 65.6875 90.0499 66.1958 90.4226 66.5769C90.7953 66.9581 91.2824 67.1487 91.8838 67.1487C92.3497 67.1487 92.7436 67.0344 93.0655 66.8056C93.3958 66.5685 93.616 66.2424 93.7262 65.8273H94.7808C94.6537 66.488 94.336 67.0301 93.8278 67.4536C93.3196 67.8687 92.697 68.0762 91.96 68.0762C91.3163 68.0762 90.753 67.9407 90.2702 67.6696C89.7873 67.3901 89.4104 67.0005 89.1393 66.5007C88.8768 65.9925 88.7455 65.4122 88.7455 64.76ZM93.8151 64.0993C93.7643 63.5487 93.5568 63.1209 93.1925 62.816C92.8368 62.5111 92.3836 62.3586 91.833 62.3586C91.3417 62.3586 90.9097 62.5195 90.537 62.8414C90.1643 63.1633 89.9525 63.5826 89.9017 64.0993H93.8151ZM96.4415 62.4729H95.2726V61.52H96.4415V59.7031H97.4834V61.52H99.1225V62.4729H97.4834V66.2974C97.4834 66.5685 97.5343 66.7633 97.6359 66.8819C97.746 66.992 97.9324 67.0471 98.195 67.0471H99.3258V68H98.1314C97.5215 68 97.0853 67.8645 96.8227 67.5934C96.5686 67.3224 96.4415 66.8946 96.4415 66.3101V62.4729ZM100.588 59.0169C100.783 59.0169 100.944 59.0805 101.071 59.2075C101.198 59.3346 101.261 59.4955 101.261 59.6904C101.261 59.8852 101.198 60.0461 101.071 60.1732C100.944 60.3002 100.783 60.3638 100.588 60.3638C100.393 60.3638 100.232 60.3002 100.105 60.1732C99.9781 60.0461 99.9145 59.8852 99.9145 59.6904C99.9145 59.4955 99.9781 59.3346 100.105 59.2075C100.232 59.0805 100.393 59.0169 100.588 59.0169ZM100.067 61.52H101.109V68H100.067V61.52ZM105.713 61.4438C106.5 61.4438 107.132 61.6809 107.606 62.1553C108.089 62.6296 108.33 63.3751 108.33 64.3915V68H107.288V64.4551C107.288 63.7859 107.136 63.2776 106.831 62.9304C106.534 62.5746 106.102 62.3967 105.535 62.3967C104.925 62.3967 104.446 62.6085 104.099 63.032C103.752 63.4555 103.578 64.0315 103.578 64.76V68H102.536V61.52H103.438L103.578 62.3967C104.069 61.7614 104.781 61.4438 105.713 61.4438ZM115.808 61.52V67.6824C115.808 69.6391 114.737 70.6174 112.594 70.6174C111.755 70.6174 111.069 70.4268 110.535 70.0456C110.01 69.6645 109.705 69.1224 109.62 68.4193H110.688C110.772 68.8259 110.988 69.1393 111.336 69.3595C111.683 69.5798 112.128 69.6899 112.67 69.6899C114.067 69.6899 114.766 69.008 114.766 67.6442V66.8819C114.3 67.6781 113.559 68.0762 112.543 68.0762C111.941 68.0762 111.403 67.9449 110.929 67.6824C110.463 67.4198 110.095 67.0386 109.824 66.5388C109.561 66.0391 109.43 65.4461 109.43 64.76C109.43 64.1078 109.561 63.5318 109.824 63.032C110.095 62.5322 110.467 62.1426 110.942 61.8631C111.416 61.5835 111.95 61.4438 112.543 61.4438C113.068 61.4438 113.517 61.5496 113.89 61.7614C114.262 61.9647 114.554 62.2569 114.766 62.6381L114.906 61.52H115.808ZM112.644 67.1487C113.059 67.1487 113.428 67.0513 113.75 66.8565C114.08 66.6532 114.334 66.3736 114.512 66.0179C114.69 65.6536 114.779 65.2428 114.779 64.7854C114.779 64.3195 114.69 63.9045 114.512 63.5402C114.334 63.1675 114.08 62.8795 113.75 62.6762C113.428 62.4729 113.059 62.3713 112.644 62.3713C112.001 62.3713 111.48 62.5958 111.082 63.0447C110.692 63.4852 110.497 64.0569 110.497 64.76C110.497 65.4631 110.692 66.0391 111.082 66.488C111.48 66.9285 112.001 67.1487 112.644 67.1487Z" fill="white"/>
<rect width="27" height="27" rx="5.07913" transform="matrix(1 0 0 -1 134 78)" fill="white" fill-opacity="0.5"/>
<path d="M150 61.9996L146 64.8885" stroke="black" stroke-width="1.25" stroke-linecap="round"/>
<path d="M150 67.7777L146 64.8888" stroke="black" stroke-width="1.25" stroke-linecap="round"/>
<rect x="279" y="78" width="27" height="27" rx="5.07913" transform="rotate(180 279 78)" fill="white" fill-opacity="0.5"/>
<path d="M263 61.9996L267 64.8885" stroke="black" stroke-width="1.25" stroke-linecap="round"/>
<path d="M263 67.7777L267 64.8888" stroke="black" stroke-width="1.25" stroke-linecap="round"/>
<path d="M172.003 58.1059V64.9035C172.003 65.5896 171.825 66.1106 171.469 66.4664C171.113 66.8221 170.592 67 169.906 67H168.75V65.9581H169.766C170.165 65.9581 170.453 65.8692 170.63 65.6913C170.808 65.5049 170.897 65.2127 170.897 64.8146V58.1059H172.003ZM179.634 66.0471V67H179.062C178.647 67 178.351 66.9153 178.173 66.7459C177.995 66.5765 177.902 66.3266 177.893 65.9962C177.393 66.7162 176.669 67.0762 175.72 67.0762C175 67.0762 174.42 66.9068 173.98 66.568C173.548 66.2292 173.332 65.7675 173.332 65.1831C173.332 64.5308 173.552 64.0311 173.992 63.6838C174.441 63.3365 175.089 63.1628 175.936 63.1628H177.842V62.7181C177.842 62.2946 177.698 61.9642 177.41 61.7271C177.131 61.4899 176.737 61.3713 176.229 61.3713C175.78 61.3713 175.407 61.4729 175.111 61.6762C174.823 61.8711 174.645 62.1336 174.577 62.464H173.535C173.611 61.8287 173.891 61.3332 174.374 60.9774C174.865 60.6216 175.5 60.4438 176.28 60.4438C177.11 60.4438 177.749 60.6471 178.198 61.0536C178.656 61.4518 178.884 62.0278 178.884 62.7816V65.5769C178.884 65.8904 179.028 66.0471 179.316 66.0471H179.634ZM177.842 64.0395H175.835C174.869 64.0395 174.386 64.3995 174.386 65.1195C174.386 65.4414 174.513 65.6998 174.768 65.8946C175.022 66.0894 175.365 66.1868 175.797 66.1868C176.432 66.1868 176.932 66.0216 177.296 65.6913C177.66 65.3525 177.842 64.9078 177.842 64.3572V64.0395ZM183.611 60.4438C184.399 60.4438 185.03 60.6809 185.505 61.1553C185.987 61.6296 186.229 62.3751 186.229 63.3915V67H185.187V63.4551C185.187 62.7859 185.034 62.2776 184.729 61.9304C184.433 61.5746 184.001 61.3967 183.433 61.3967C182.824 61.3967 182.345 61.6085 181.998 62.032C181.65 62.4555 181.477 63.0315 181.477 63.76V67H180.435V60.52H181.337L181.477 61.3967C181.968 60.7614 182.68 60.4438 183.611 60.4438ZM193.135 60.52V67H192.233L192.093 66.136C191.602 66.7628 190.911 67.0762 190.022 67.0762C189.251 67.0762 188.633 66.8391 188.167 66.3647C187.701 65.8904 187.468 65.1449 187.468 64.1285V60.52H188.51V64.0649C188.51 64.7341 188.654 65.2466 188.942 65.6024C189.239 65.9496 189.658 66.1233 190.2 66.1233C190.793 66.1233 191.255 65.9115 191.585 65.488C191.924 65.0645 192.093 64.4885 192.093 63.76V60.52H193.135ZM200.616 66.0471V67H200.044C199.629 67 199.333 66.9153 199.155 66.7459C198.977 66.5765 198.884 66.3266 198.875 65.9962C198.376 66.7162 197.651 67.0762 196.703 67.0762C195.983 67.0762 195.402 66.9068 194.962 66.568C194.53 66.2292 194.314 65.7675 194.314 65.1831C194.314 64.5308 194.534 64.0311 194.975 63.6838C195.424 63.3365 196.072 63.1628 196.919 63.1628H198.824V62.7181C198.824 62.2946 198.68 61.9642 198.392 61.7271C198.113 61.4899 197.719 61.3713 197.211 61.3713C196.762 61.3713 196.389 61.4729 196.093 61.6762C195.805 61.8711 195.627 62.1336 195.559 62.464H194.517C194.593 61.8287 194.873 61.3332 195.356 60.9774C195.847 60.6216 196.482 60.4438 197.262 60.4438C198.092 60.4438 198.731 60.6471 199.18 61.0536C199.638 61.4518 199.866 62.0278 199.866 62.7816V65.5769C199.866 65.8904 200.01 66.0471 200.298 66.0471H200.616ZM198.824 64.0395H196.817C195.851 64.0395 195.368 64.3995 195.368 65.1195C195.368 65.4414 195.496 65.6998 195.75 65.8946C196.004 66.0894 196.347 66.1868 196.779 66.1868C197.414 66.1868 197.914 66.0216 198.278 65.6913C198.642 65.3525 198.824 64.9078 198.824 64.3572V64.0395ZM204.708 60.52V61.5365H204.187C203.568 61.5365 203.124 61.744 202.853 62.1591C202.59 62.5741 202.459 63.0866 202.459 63.6965V67H201.417V60.52H202.319L202.459 61.4984C202.645 61.2019 202.887 60.9647 203.183 60.7868C203.48 60.6089 203.89 60.52 204.416 60.52H204.708ZM206.18 60.52L208.175 65.8056L210.106 60.52H211.211L208.226 68.0927C208.073 68.4824 207.938 68.7746 207.819 68.9694C207.7 69.1642 207.552 69.3082 207.374 69.4014C207.196 69.4946 206.959 69.5412 206.663 69.5412H205.418V68.5882H206.345C206.548 68.5882 206.701 68.5671 206.803 68.5247C206.904 68.4824 206.985 68.4104 207.044 68.3087C207.112 68.2155 207.192 68.0546 207.285 67.8259L207.616 67.0508L205.075 60.52H206.18ZM218.554 63.0993C219.054 62.6673 219.431 62.2776 219.685 61.9304C219.939 61.5746 220.066 61.1765 220.066 60.736C220.066 60.1854 219.888 59.7534 219.532 59.44C219.185 59.1266 218.715 58.9699 218.122 58.9699C217.546 58.9699 217.084 59.1478 216.737 59.5035C216.39 59.8593 216.216 60.3421 216.216 60.952V61.1172H215.149V60.8885C215.149 60.3294 215.272 59.8339 215.517 59.4019C215.763 58.9699 216.11 58.6311 216.559 58.3854C217.017 58.1398 217.538 58.0169 218.122 58.0169C219.071 58.0169 219.812 58.2584 220.346 58.7412C220.888 59.224 221.159 59.872 221.159 60.6852C221.159 61.1087 221.074 61.4941 220.905 61.8414C220.744 62.1887 220.532 62.5064 220.269 62.7944C220.007 63.0739 219.664 63.3958 219.24 63.76L216.572 66.0216H221.222V67H215.098V66.0979L218.554 63.0993ZM222.384 62.3496C222.384 61.5111 222.524 60.7656 222.803 60.1134C223.091 59.4612 223.489 58.9529 223.998 58.5887C224.514 58.216 225.103 58.0296 225.764 58.0296C226.416 58.0296 226.996 58.216 227.504 58.5887C228.021 58.9529 228.419 59.4612 228.699 60.1134C228.987 60.7656 229.131 61.5111 229.131 62.3496V62.7562C229.131 63.6287 228.987 64.3911 228.699 65.0433C228.419 65.6955 228.025 66.1995 227.517 66.5553C227.009 66.9026 226.424 67.0762 225.764 67.0762C225.095 67.0762 224.506 66.9026 223.998 66.5553C223.489 66.1995 223.091 65.6955 222.803 65.0433C222.524 64.3911 222.384 63.6287 222.384 62.7562V62.3496ZM228.051 62.3878C228.051 61.6932 227.953 61.0918 227.759 60.5835C227.572 60.0753 227.305 59.6856 226.958 59.4146C226.619 59.1435 226.221 59.008 225.764 59.008C225.306 59.008 224.904 59.1435 224.557 59.4146C224.209 59.6856 223.938 60.0753 223.743 60.5835C223.557 61.0918 223.464 61.6932 223.464 62.3878V62.7181C223.464 63.4127 223.557 64.0141 223.743 64.5224C223.938 65.0306 224.209 65.4202 224.557 65.6913C224.904 65.9624 225.306 66.0979 225.764 66.0979C226.221 66.0979 226.619 65.9624 226.958 65.6913C227.305 65.4202 227.572 65.0306 227.759 64.5224C227.953 64.0141 228.051 63.4127 228.051 62.7181V62.3878ZM233.679 63.0993C234.179 62.6673 234.556 62.2776 234.81 61.9304C235.064 61.5746 235.191 61.1765 235.191 60.736C235.191 60.1854 235.014 59.7534 234.658 59.44C234.311 59.1266 233.84 58.9699 233.247 58.9699C232.671 58.9699 232.21 59.1478 231.863 59.5035C231.515 59.8593 231.342 60.3421 231.342 60.952V61.1172H230.274V60.8885C230.274 60.3294 230.397 59.8339 230.643 59.4019C230.888 58.9699 231.236 58.6311 231.685 58.3854C232.142 58.1398 232.663 58.0169 233.247 58.0169C234.196 58.0169 234.937 58.2584 235.471 58.7412C236.013 59.224 236.284 59.872 236.284 60.6852C236.284 61.1087 236.199 61.4941 236.03 61.8414C235.869 62.1887 235.657 62.5064 235.395 62.7944C235.132 63.0739 234.789 63.3958 234.366 63.76L231.697 66.0216H236.348V67H230.223V66.0979L233.679 63.0993ZM238.208 65.6024C237.988 65.2127 237.814 64.7595 237.687 64.2428C237.569 63.7261 237.509 63.1755 237.509 62.5911C237.509 61.6593 237.641 60.8504 237.903 60.1642C238.174 59.4781 238.564 58.9529 239.072 58.5887C239.58 58.216 240.186 58.0296 240.889 58.0296C241.694 58.0296 242.355 58.2541 242.871 58.7031C243.396 59.1435 243.714 59.7365 243.824 60.4819H242.757C242.655 60.016 242.439 59.6475 242.109 59.3765C241.787 59.1054 241.364 58.9699 240.838 58.9699C240.076 58.9699 239.483 59.2833 239.06 59.9101C238.644 60.5369 238.437 61.3628 238.437 62.3878L238.45 62.8198C238.475 62.7096 238.5 62.6292 238.526 62.5784C238.729 62.1294 239.047 61.7736 239.479 61.5111C239.911 61.2485 240.419 61.1172 241.004 61.1172C241.588 61.1172 242.105 61.24 242.554 61.4856C243.003 61.7313 243.354 62.0786 243.608 62.5275C243.862 62.9765 243.989 63.4974 243.989 64.0904C243.989 64.6579 243.858 65.1704 243.596 65.6278C243.333 66.0767 242.969 66.4325 242.503 66.6951C242.037 66.9492 241.503 67.0762 240.902 67.0762C240.3 67.0762 239.771 66.9492 239.314 66.6951C238.865 66.4325 238.496 66.0682 238.208 65.6024ZM242.922 64.0904C242.922 63.4889 242.74 63.0019 242.376 62.6292C242.02 62.248 241.537 62.0574 240.927 62.0574C240.309 62.0574 239.809 62.248 239.428 62.6292C239.047 63.0104 238.856 63.5059 238.856 64.1158C238.856 64.7172 239.043 65.2042 239.415 65.5769C239.788 65.9496 240.279 66.136 240.889 66.136C241.499 66.136 241.99 65.9454 242.363 65.5642C242.736 65.1831 242.922 64.6918 242.922 64.0904Z" fill="black"/>
<rect width="53" height="27" rx="5.07913" transform="matrix(1 0 0 -1 290 78)" fill="white" fill-opacity="0.5"/>
<rect width="94" height="38" rx="5.07913" transform="matrix(1 0 0 -1 10 213)" fill="white"/>
<path d="M299.682 58.1059H306.556V59.1224H303.672V67H302.566V59.1224H299.682V58.1059ZM309.427 67.0762C308.8 67.0762 308.241 66.9365 307.75 66.6569C307.267 66.3774 306.89 65.9878 306.619 65.488C306.348 64.9882 306.213 64.4122 306.213 63.76C306.213 63.1078 306.348 62.5318 306.619 62.032C306.89 61.5322 307.267 61.1426 307.75 60.8631C308.241 60.5835 308.8 60.4438 309.427 60.4438C310.054 60.4438 310.609 60.5835 311.092 60.8631C311.583 61.1426 311.964 61.5322 312.235 62.032C312.506 62.5318 312.642 63.1078 312.642 63.76C312.642 64.4122 312.506 64.9882 312.235 65.488C311.964 65.9878 311.583 66.3774 311.092 66.6569C310.609 66.9365 310.054 67.0762 309.427 67.0762ZM309.427 66.1487C309.851 66.1487 310.223 66.0471 310.545 65.8438C310.876 65.6405 311.13 65.3567 311.308 64.9925C311.486 64.6282 311.574 64.2174 311.574 63.76C311.574 63.3026 311.486 62.8918 311.308 62.5275C311.13 62.1633 310.876 61.8795 310.545 61.6762C310.223 61.4729 309.851 61.3713 309.427 61.3713C309.004 61.3713 308.627 61.4729 308.296 61.6762C307.974 61.8795 307.725 62.1633 307.547 62.5275C307.369 62.8918 307.28 63.3026 307.28 63.76C307.28 64.2174 307.369 64.6282 307.547 64.9925C307.725 65.3567 307.974 65.6405 308.296 65.8438C308.627 66.0471 309.004 66.1487 309.427 66.1487ZM319.986 58.1059V67H319.084L318.944 65.9581C318.402 66.7035 317.661 67.0762 316.721 67.0762C316.119 67.0762 315.581 66.9449 315.107 66.6824C314.641 66.4198 314.273 66.0386 314.002 65.5388C313.739 65.0391 313.608 64.4461 313.608 63.76C313.608 63.1078 313.739 62.5318 314.002 62.032C314.273 61.5322 314.645 61.1426 315.12 60.8631C315.594 60.5835 316.128 60.4438 316.721 60.4438C317.246 60.4438 317.695 60.5412 318.068 60.736C318.44 60.9224 318.733 61.1807 318.944 61.5111V58.1059H319.986ZM316.822 66.1487C317.237 66.1487 317.606 66.0513 317.928 65.8565C318.258 65.6532 318.512 65.3736 318.69 65.0179C318.868 64.6536 318.957 64.2428 318.957 63.7854C318.957 63.3195 318.868 62.9045 318.69 62.5402C318.512 62.1675 318.258 61.8795 317.928 61.6762C317.606 61.4729 317.237 61.3713 316.822 61.3713C316.179 61.3713 315.658 61.5958 315.26 62.0447C314.87 62.4852 314.675 63.0569 314.675 63.76C314.675 64.4631 314.87 65.0391 315.26 65.488C315.658 65.9285 316.179 66.1487 316.822 66.1487ZM327.466 66.0471V67H326.894C326.479 67 326.183 66.9153 326.005 66.7459C325.827 66.5765 325.734 66.3266 325.725 65.9962C325.226 66.7162 324.501 67.0762 323.553 67.0762C322.833 67.0762 322.253 66.9068 321.812 66.568C321.38 66.2292 321.164 65.7675 321.164 65.1831C321.164 64.5308 321.384 64.0311 321.825 63.6838C322.274 63.3365 322.922 63.1628 323.769 63.1628H325.675V62.7181C325.675 62.2946 325.531 61.9642 325.243 61.7271C324.963 61.4899 324.569 61.3713 324.061 61.3713C323.612 61.3713 323.239 61.4729 322.943 61.6762C322.655 61.8711 322.477 62.1336 322.409 62.464H321.367C321.444 61.8287 321.723 61.3332 322.206 60.9774C322.697 60.6216 323.333 60.4438 324.112 60.4438C324.942 60.4438 325.581 60.6471 326.03 61.0536C326.488 61.4518 326.717 62.0278 326.717 62.7816V65.5769C326.717 65.8904 326.861 66.0471 327.149 66.0471H327.466ZM325.675 64.0395H323.667C322.701 64.0395 322.219 64.3995 322.219 65.1195C322.219 65.4414 322.346 65.6998 322.6 65.8946C322.854 66.0894 323.197 66.1868 323.629 66.1868C324.264 66.1868 324.764 66.0216 325.128 65.6913C325.493 65.3525 325.675 64.9078 325.675 64.3572V64.0395ZM328.538 60.52L330.533 65.8056L332.465 60.52H333.57L330.584 68.0927C330.432 68.4824 330.296 68.7746 330.177 68.9694C330.059 69.1642 329.911 69.3082 329.733 69.4014C329.555 69.4946 329.318 69.5412 329.021 69.5412H327.776V68.5882H328.704C328.907 68.5882 329.059 68.5671 329.161 68.5247C329.263 68.4824 329.343 68.4104 329.402 68.3087C329.47 68.2155 329.551 68.0546 329.644 67.8259L329.974 67.0508L327.433 60.52H328.538Z" fill="black"/>
<path d="M46.4978 108.106H53.3717V109.122H50.4874V117H49.382V109.122H46.4978V108.106ZM57.575 110.444C58.3628 110.444 58.9981 110.681 59.4809 111.155C59.9637 111.63 60.2052 112.375 60.2052 113.392V117H59.1633V113.455C59.1633 112.786 59.0108 112.278 58.7059 111.93C58.4009 111.575 57.9647 111.397 57.3972 111.397C56.7957 111.397 56.3172 111.608 55.9614 112.032C55.6141 112.456 55.4405 113.032 55.4405 113.76V117H54.3986V108.106H55.4405V111.587C55.6522 111.248 55.9317 110.973 56.279 110.761C56.6348 110.55 57.0668 110.444 57.575 110.444ZM67.1111 110.52V117H66.209L66.0692 116.136C65.5779 116.763 64.8876 117.076 63.9982 117.076C63.2273 117.076 62.609 116.839 62.1431 116.365C61.6772 115.89 61.4443 115.145 61.4443 114.128V110.52H62.4862V114.065C62.4862 114.734 62.6302 115.247 62.9182 115.602C63.2146 115.95 63.6339 116.123 64.176 116.123C64.769 116.123 65.2306 115.912 65.561 115.488C65.8998 115.064 66.0692 114.488 66.0692 113.76V110.52H67.1111Z" fill="black"/>
<path d="M10.5 145V152H9.66V147.06C9.56667 147.147 9.40667 147.19 9.18 147.19H8.05V146.44H9.19C9.35 146.44 9.47 146.387 9.55 146.28C9.63667 146.167 9.68 146.02 9.68 145.84V145H10.5Z" fill="black"/>
<path d="M127.11 148.93C127.503 148.59 127.8 148.283 128 148.01C128.2 147.73 128.3 147.417 128.3 147.07C128.3 146.637 128.16 146.297 127.88 146.05C127.607 145.803 127.237 145.68 126.77 145.68C126.317 145.68 125.953 145.82 125.68 146.1C125.407 146.38 125.27 146.76 125.27 147.24V147.37H124.43V147.19C124.43 146.75 124.527 146.36 124.72 146.02C124.913 145.68 125.187 145.413 125.54 145.22C125.9 145.027 126.31 144.93 126.77 144.93C127.517 144.93 128.1 145.12 128.52 145.5C128.947 145.88 129.16 146.39 129.16 147.03C129.16 147.363 129.093 147.667 128.96 147.94C128.833 148.213 128.667 148.463 128.46 148.69C128.253 148.91 127.983 149.163 127.65 149.45L125.55 151.23H129.21V152H124.39V151.29L127.11 148.93Z" fill="black"/>
<path d="M243.05 148.39C243.463 148.47 243.813 148.657 244.1 148.95C244.387 149.237 244.53 149.607 244.53 150.06C244.53 150.453 244.423 150.803 244.21 151.11C244.003 151.41 243.707 151.643 243.32 151.81C242.933 151.977 242.487 152.06 241.98 152.06C241.207 152.06 240.59 151.863 240.13 151.47C239.67 151.07 239.44 150.527 239.44 149.84H240.3C240.307 150.293 240.467 150.653 240.78 150.92C241.1 151.18 241.517 151.31 242.03 151.31C242.503 151.31 242.893 151.19 243.2 150.95C243.513 150.71 243.67 150.393 243.67 150C243.67 149.627 243.52 149.333 243.22 149.12C242.92 148.907 242.497 148.8 241.95 148.8H241.35V148.07H241.9C242.413 148.07 242.807 147.957 243.08 147.73C243.353 147.503 243.49 147.207 243.49 146.84C243.49 146.487 243.35 146.207 243.07 146C242.797 145.793 242.443 145.69 242.01 145.69C241.557 145.69 241.187 145.807 240.9 146.04C240.62 146.267 240.477 146.577 240.47 146.97H239.63C239.637 146.337 239.853 145.84 240.28 145.48C240.707 145.12 241.273 144.94 241.98 144.94C242.46 144.94 242.88 145.017 243.24 145.17C243.6 145.323 243.873 145.54 244.06 145.82C244.253 146.1 244.35 146.423 244.35 146.79C244.35 147.217 244.233 147.57 244 147.85C243.767 148.13 243.45 148.31 243.05 148.39Z" fill="black"/>
<path d="M11.98 236.37C12.44 236.463 12.8133 236.663 13.1 236.97C13.3867 237.27 13.53 237.653 13.53 238.12C13.53 238.5 13.4267 238.837 13.22 239.13C13.02 239.423 12.7267 239.653 12.34 239.82C11.96 239.98 11.5133 240.06 11 240.06C10.4867 240.06 10.0367 239.98 9.65 239.82C9.27 239.653 8.97667 239.423 8.77 239.13C8.57 238.837 8.47 238.5 8.47 238.12C8.47 237.66 8.61333 237.28 8.9 236.98C9.18667 236.673 9.56 236.47 10.02 236.37C9.62667 236.29 9.30333 236.11 9.05 235.83C8.79667 235.543 8.67 235.197 8.67 234.79C8.67 234.423 8.76333 234.1 8.95 233.82C9.14333 233.54 9.41667 233.323 9.77 233.17C10.1233 233.01 10.5333 232.93 11 232.93C11.4667 232.93 11.8767 233.01 12.23 233.17C12.5833 233.323 12.8533 233.54 13.04 233.82C13.2333 234.1 13.33 234.423 13.33 234.79C13.33 235.19 13.2033 235.537 12.95 235.83C12.6967 236.117 12.3733 236.297 11.98 236.37ZM9.5 234.79C9.5 235.137 9.64 235.42 9.92 235.64C10.2 235.853 10.56 235.96 11 235.96C11.44 235.96 11.8 235.853 12.08 235.64C12.36 235.42 12.5 235.137 12.5 234.79C12.5 234.45 12.36 234.173 12.08 233.96C11.8 233.74 11.44 233.63 11 233.63C10.56 233.63 10.2 233.74 9.92 233.96C9.64 234.173 9.5 234.45 9.5 234.79ZM11 239.37C11.4933 239.37 11.8967 239.25 12.21 239.01C12.53 238.77 12.69 238.463 12.69 238.09C12.69 237.843 12.6167 237.62 12.47 237.42C12.3233 237.22 12.12 237.063 11.86 236.95C11.6067 236.837 11.32 236.78 11 236.78C10.68 236.78 10.39 236.837 10.13 236.95C9.87667 237.063 9.67667 237.22 9.53 237.42C9.38333 237.62 9.31 237.843 9.31 238.09C9.31 238.463 9.47 238.77 9.79 239.01C10.11 239.25 10.5133 239.37 11 239.37Z" fill="black"/>
<path d="M129.02 234.1C129.193 234.407 129.327 234.763 129.42 235.17C129.52 235.577 129.57 236.01 129.57 236.47C129.57 237.203 129.463 237.84 129.25 238.38C129.043 238.92 128.74 239.337 128.34 239.63C127.94 239.917 127.463 240.06 126.91 240.06C126.277 240.06 125.753 239.887 125.34 239.54C124.933 239.187 124.687 238.717 124.6 238.13H125.44C125.52 238.497 125.687 238.787 125.94 239C126.2 239.213 126.537 239.32 126.95 239.32C127.55 239.32 128.013 239.073 128.34 238.58C128.673 238.087 128.84 237.437 128.84 236.63L128.83 236.29C128.81 236.377 128.79 236.44 128.77 236.48C128.61 236.833 128.36 237.113 128.02 237.32C127.68 237.527 127.28 237.63 126.82 237.63C126.36 237.63 125.953 237.533 125.6 237.34C125.247 237.147 124.97 236.873 124.77 236.52C124.57 236.167 124.47 235.757 124.47 235.29C124.47 234.843 124.573 234.443 124.78 234.09C124.987 233.73 125.273 233.45 125.64 233.25C126.007 233.043 126.427 232.94 126.9 232.94C127.373 232.94 127.787 233.043 128.14 233.25C128.5 233.45 128.793 233.733 129.02 234.1ZM125.31 235.29C125.31 235.763 125.45 236.15 125.73 236.45C126.017 236.743 126.4 236.89 126.88 236.89C127.367 236.89 127.76 236.74 128.06 236.44C128.36 236.14 128.51 235.75 128.51 235.27C128.51 234.797 128.363 234.413 128.07 234.12C127.777 233.827 127.39 233.68 126.91 233.68C126.43 233.68 126.043 233.83 125.75 234.13C125.457 234.43 125.31 234.817 125.31 235.29Z" fill="black"/>
<path d="M241.5 233V240H240.66V235.06C240.567 235.147 240.407 235.19 240.18 235.19H239.05V234.44H240.19C240.35 234.44 240.47 234.387 240.55 234.28C240.637 234.167 240.68 234.02 240.68 233.84V233H241.5ZM242.712 236.34C242.712 235.68 242.822 235.093 243.042 234.58C243.269 234.067 243.582 233.667 243.982 233.38C244.389 233.087 244.852 232.94 245.372 232.94C245.886 232.94 246.342 233.087 246.742 233.38C247.149 233.667 247.462 234.067 247.682 234.58C247.909 235.093 248.022 235.68 248.022 236.34V236.66C248.022 237.347 247.909 237.947 247.682 238.46C247.462 238.973 247.152 239.37 246.752 239.65C246.352 239.923 245.892 240.06 245.372 240.06C244.846 240.06 244.382 239.923 243.982 239.65C243.582 239.37 243.269 238.973 243.042 238.46C242.822 237.947 242.712 237.347 242.712 236.66V236.34ZM247.172 236.37C247.172 235.823 247.096 235.35 246.942 234.95C246.796 234.55 246.586 234.243 246.312 234.03C246.046 233.817 245.732 233.71 245.372 233.71C245.012 233.71 244.696 233.817 244.422 234.03C244.149 234.243 243.936 234.55 243.782 234.95C243.636 235.35 243.562 235.823 243.562 236.37V236.63C243.562 237.177 243.636 237.65 243.782 238.05C243.936 238.45 244.149 238.757 244.422 238.97C244.696 239.183 245.012 239.29 245.372 239.29C245.732 239.29 246.046 239.183 246.312 238.97C246.586 238.757 246.796 238.45 246.942 238.05C247.096 237.65 247.172 237.177 247.172 236.63V236.37Z" fill="black"/>
<path d="M10.5 319V326H9.66V321.06C9.56667 321.147 9.40667 321.19 9.18 321.19H8.05V320.44H9.19C9.35 320.44 9.47 320.387 9.55 320.28C9.63667 320.167 9.68 320.02 9.68 319.84V319H10.5ZM14.4422 321.31C14.8822 321.31 15.2755 321.41 15.6222 321.61C15.9689 321.81 16.2389 322.087 16.4322 322.44C16.6255 322.793 16.7222 323.2 16.7222 323.66C16.7222 324.16 16.6122 324.59 16.3922 324.95C16.1722 325.31 15.8755 325.583 15.5022 325.77C15.1289 325.957 14.7189 326.05 14.2722 326.05C13.7655 326.05 13.3255 325.953 12.9522 325.76C12.5789 325.56 12.2889 325.29 12.0822 324.95C11.8822 324.61 11.7689 324.233 11.7422 323.82H12.5822C12.6222 324.24 12.7922 324.593 13.0922 324.88C13.3989 325.16 13.7922 325.3 14.2722 325.3C14.5522 325.3 14.8122 325.24 15.0522 325.12C15.2989 324.993 15.4955 324.807 15.6422 324.56C15.7889 324.313 15.8622 324.017 15.8622 323.67C15.8622 323.19 15.7189 322.8 15.4322 322.5C15.1455 322.2 14.7622 322.05 14.2822 322.05C13.9689 322.05 13.6589 322.117 13.3522 322.25C13.0455 322.383 12.8255 322.633 12.6922 323L11.8822 322.98L12.1122 319H16.2722V319.77H12.8822L12.7222 322.07C12.9289 321.803 13.1855 321.61 13.4922 321.49C13.8055 321.37 14.1222 321.31 14.4422 321.31Z" fill="black"/>
<path d="M126.5 319V326H125.66V321.06C125.567 321.147 125.407 321.19 125.18 321.19H124.05V320.44H125.19C125.35 320.44 125.47 320.387 125.55 320.28C125.637 320.167 125.68 320.02 125.68 319.84V319H126.5ZM128.262 324.9C128.089 324.593 127.952 324.237 127.852 323.83C127.759 323.423 127.712 322.99 127.712 322.53C127.712 321.797 127.816 321.16 128.022 320.62C128.236 320.08 128.542 319.667 128.942 319.38C129.342 319.087 129.819 318.94 130.372 318.94C131.006 318.94 131.526 319.117 131.932 319.47C132.346 319.817 132.596 320.283 132.682 320.87H131.842C131.762 320.503 131.592 320.213 131.332 320C131.079 319.787 130.746 319.68 130.332 319.68C129.732 319.68 129.266 319.927 128.932 320.42C128.606 320.913 128.442 321.563 128.442 322.37L128.452 322.71C128.472 322.623 128.492 322.56 128.512 322.52C128.672 322.167 128.922 321.887 129.262 321.68C129.602 321.473 130.002 321.37 130.462 321.37C130.922 321.37 131.329 321.467 131.682 321.66C132.036 321.853 132.312 322.127 132.512 322.48C132.712 322.833 132.812 323.243 132.812 323.71C132.812 324.157 132.709 324.56 132.502 324.92C132.296 325.273 132.009 325.553 131.642 325.76C131.276 325.96 130.856 326.06 130.382 326.06C129.909 326.06 129.492 325.96 129.132 325.76C128.779 325.553 128.489 325.267 128.262 324.9ZM131.972 323.71C131.972 323.237 131.829 322.853 131.542 322.56C131.262 322.26 130.882 322.11 130.402 322.11C129.916 322.11 129.522 322.26 129.222 322.56C128.922 322.86 128.772 323.25 128.772 323.73C128.772 324.203 128.919 324.587 129.212 324.88C129.506 325.173 129.892 325.32 130.372 325.32C130.852 325.32 131.239 325.17 131.532 324.87C131.826 324.57 131.972 324.183 131.972 323.71Z" fill="black"/>
<path d="M241.5 319V326H240.66V321.06C240.567 321.147 240.407 321.19 240.18 321.19H239.05V320.44H240.19C240.35 320.44 240.47 320.387 240.55 320.28C240.637 320.167 240.68 320.02 240.68 319.84V319H241.5ZM242.372 319H247.312V319.59L243.872 326H242.962L246.392 319.77H242.372V319Z" fill="black"/>
<path d="M11.11 405.93C11.5033 405.59 11.8 405.283 12 405.01C12.2 404.73 12.3 404.417 12.3 404.07C12.3 403.637 12.16 403.297 11.88 403.05C11.6067 402.803 11.2367 402.68 10.77 402.68C10.3167 402.68 9.95333 402.82 9.68 403.1C9.40667 403.38 9.27 403.76 9.27 404.24V404.37H8.43V404.19C8.43 403.75 8.52667 403.36 8.72 403.02C8.91333 402.68 9.18667 402.413 9.54 402.22C9.9 402.027 10.31 401.93 10.77 401.93C11.5167 401.93 12.1 402.12 12.52 402.5C12.9467 402.88 13.16 403.39 13.16 404.03C13.16 404.363 13.0933 404.667 12.96 404.94C12.8333 405.213 12.6667 405.463 12.46 405.69C12.2533 405.91 11.9833 406.163 11.65 406.45L9.55 408.23H13.21V409H8.39V408.29L11.11 405.93ZM16.735 405.93C17.1283 405.59 17.425 405.283 17.625 405.01C17.825 404.73 17.925 404.417 17.925 404.07C17.925 403.637 17.785 403.297 17.505 403.05C17.2317 402.803 16.8617 402.68 16.395 402.68C15.9417 402.68 15.5783 402.82 15.305 403.1C15.0317 403.38 14.895 403.76 14.895 404.24V404.37H14.055V404.19C14.055 403.75 14.1517 403.36 14.345 403.02C14.5383 402.68 14.8117 402.413 15.165 402.22C15.525 402.027 15.935 401.93 16.395 401.93C17.1417 401.93 17.725 402.12 18.145 402.5C18.5717 402.88 18.785 403.39 18.785 404.03C18.785 404.363 18.7183 404.667 18.585 404.94C18.4583 405.213 18.2917 405.463 18.085 405.69C17.8783 405.91 17.6083 406.163 17.275 406.45L15.175 408.23H18.835V409H14.015V408.29L16.735 405.93Z" fill="black"/>
<path d="M127.11 405.93C127.503 405.59 127.8 405.283 128 405.01C128.2 404.73 128.3 404.417 128.3 404.07C128.3 403.637 128.16 403.297 127.88 403.05C127.607 402.803 127.237 402.68 126.77 402.68C126.317 402.68 125.953 402.82 125.68 403.1C125.407 403.38 125.27 403.76 125.27 404.24V404.37H124.43V404.19C124.43 403.75 124.527 403.36 124.72 403.02C124.913 402.68 125.187 402.413 125.54 402.22C125.9 402.027 126.31 401.93 126.77 401.93C127.517 401.93 128.1 402.12 128.52 402.5C128.947 402.88 129.16 403.39 129.16 404.03C129.16 404.363 129.093 404.667 128.96 404.94C128.833 405.213 128.667 405.463 128.46 405.69C128.253 405.91 127.983 406.163 127.65 406.45L125.55 408.23H129.21V409H124.39V408.29L127.11 405.93ZM133.704 405.39C134.118 405.47 134.468 405.657 134.754 405.95C135.041 406.237 135.184 406.607 135.184 407.06C135.184 407.453 135.078 407.803 134.864 408.11C134.658 408.41 134.361 408.643 133.974 408.81C133.588 408.977 133.141 409.06 132.634 409.06C131.861 409.06 131.244 408.863 130.784 408.47C130.324 408.07 130.094 407.527 130.094 406.84H130.954C130.961 407.293 131.121 407.653 131.434 407.92C131.754 408.18 132.171 408.31 132.684 408.31C133.158 408.31 133.548 408.19 133.854 407.95C134.168 407.71 134.324 407.393 134.324 407C134.324 406.627 134.174 406.333 133.874 406.12C133.574 405.907 133.151 405.8 132.604 405.8H132.004V405.07H132.554C133.068 405.07 133.461 404.957 133.734 404.73C134.008 404.503 134.144 404.207 134.144 403.84C134.144 403.487 134.004 403.207 133.724 403C133.451 402.793 133.098 402.69 132.664 402.69C132.211 402.69 131.841 402.807 131.554 403.04C131.274 403.267 131.131 403.577 131.124 403.97H130.284C130.291 403.337 130.508 402.84 130.934 402.48C131.361 402.12 131.928 401.94 132.634 401.94C133.114 401.94 133.534 402.017 133.894 402.17C134.254 402.323 134.528 402.54 134.714 402.82C134.908 403.1 135.004 403.423 135.004 403.79C135.004 404.217 134.888 404.57 134.654 404.85C134.421 405.13 134.104 405.31 133.704 405.39Z" fill="black"/>
<path d="M242.11 405.93C242.503 405.59 242.8 405.283 243 405.01C243.2 404.73 243.3 404.417 243.3 404.07C243.3 403.637 243.16 403.297 242.88 403.05C242.607 402.803 242.237 402.68 241.77 402.68C241.317 402.68 240.953 402.82 240.68 403.1C240.407 403.38 240.27 403.76 240.27 404.24V404.37H239.43V404.19C239.43 403.75 239.527 403.36 239.72 403.02C239.913 402.68 240.187 402.413 240.54 402.22C240.9 402.027 241.31 401.93 241.77 401.93C242.517 401.93 243.1 402.12 243.52 402.5C243.947 402.88 244.16 403.39 244.16 404.03C244.16 404.363 244.093 404.667 243.96 404.94C243.833 405.213 243.667 405.463 243.46 405.69C243.253 405.91 242.983 406.163 242.65 406.45L240.55 408.23H244.21V409H239.39V408.29L242.11 405.93ZM244.728 406.54L248.238 402H249.238V406.52H250.368V407.29H249.238V409H248.398V407.29H244.728V406.54ZM245.628 406.52H248.398V402.94L245.628 406.52Z" fill="black"/>
<path d="M165.344 108.106H170.871V109.122H166.449V112.096H170.108V113.112H166.449V117H165.344V108.106ZM174.81 110.52V111.536H174.289C173.671 111.536 173.226 111.744 172.955 112.159C172.692 112.574 172.561 113.087 172.561 113.696V117H171.519V110.52H172.421L172.561 111.498C172.747 111.202 172.989 110.965 173.285 110.787C173.582 110.609 173.993 110.52 174.518 110.52H174.81ZM176.284 108.017C176.479 108.017 176.639 108.08 176.767 108.208C176.894 108.335 176.957 108.496 176.957 108.69C176.957 108.885 176.894 109.046 176.767 109.173C176.639 109.3 176.479 109.364 176.284 109.364C176.089 109.364 175.928 109.3 175.801 109.173C175.674 109.046 175.61 108.885 175.61 108.69C175.61 108.496 175.674 108.335 175.801 108.208C175.928 108.08 176.089 108.017 176.284 108.017ZM175.763 110.52H176.805V117H175.763V110.52Z" fill="black"/>
<path d="M277.808 114.09C277.85 114.692 278.092 115.175 278.532 115.539C278.973 115.895 279.532 116.072 280.209 116.072C280.819 116.072 281.31 115.941 281.683 115.679C282.064 115.408 282.255 115.035 282.255 114.56C282.255 114.213 282.149 113.938 281.937 113.735C281.734 113.531 281.467 113.383 281.137 113.29C280.815 113.188 280.374 113.091 279.815 112.998C278.926 112.845 278.219 112.595 277.694 112.248C277.168 111.901 276.906 111.337 276.906 110.558C276.906 110.058 277.033 109.618 277.287 109.237C277.541 108.847 277.897 108.546 278.354 108.335C278.82 108.123 279.35 108.017 279.942 108.017C280.569 108.017 281.124 108.131 281.607 108.36C282.09 108.589 282.471 108.911 282.75 109.326C283.03 109.732 283.187 110.202 283.221 110.736H282.128C282.06 110.219 281.827 109.804 281.429 109.491C281.031 109.177 280.535 109.021 279.942 109.021C279.35 109.021 278.879 109.152 278.532 109.415C278.185 109.669 278.011 110.029 278.011 110.495C278.011 110.833 278.113 111.1 278.316 111.295C278.519 111.481 278.782 111.625 279.104 111.727C279.426 111.82 279.866 111.913 280.425 112.007C281.315 112.159 282.026 112.413 282.56 112.769C283.094 113.116 283.36 113.68 283.36 114.459C283.36 114.967 283.225 115.42 282.954 115.818C282.691 116.216 282.318 116.526 281.836 116.746C281.361 116.966 280.815 117.076 280.197 117.076C279.502 117.076 278.896 116.953 278.38 116.708C277.863 116.454 277.461 116.102 277.173 115.653C276.893 115.196 276.741 114.675 276.715 114.09H277.808ZM290.672 116.047V117H290.1C289.685 117 289.388 116.915 289.21 116.746C289.033 116.576 288.939 116.327 288.931 115.996C288.431 116.716 287.707 117.076 286.758 117.076C286.038 117.076 285.458 116.907 285.017 116.568C284.585 116.229 284.369 115.768 284.369 115.183C284.369 114.531 284.59 114.031 285.03 113.684C285.479 113.336 286.127 113.163 286.974 113.163H288.88V112.718C288.88 112.295 288.736 111.964 288.448 111.727C288.169 111.49 287.775 111.371 287.266 111.371C286.817 111.371 286.445 111.473 286.148 111.676C285.86 111.871 285.682 112.134 285.615 112.464H284.573C284.649 111.829 284.929 111.333 285.411 110.977C285.903 110.622 286.538 110.444 287.317 110.444C288.147 110.444 288.787 110.647 289.236 111.054C289.693 111.452 289.922 112.028 289.922 112.782V115.577C289.922 115.89 290.066 116.047 290.354 116.047H290.672ZM288.88 114.04H286.873C285.907 114.04 285.424 114.4 285.424 115.12C285.424 115.441 285.551 115.7 285.805 115.895C286.059 116.089 286.402 116.187 286.834 116.187C287.47 116.187 287.969 116.022 288.334 115.691C288.698 115.352 288.88 114.908 288.88 114.357V114.04ZM291.905 111.473H290.736V110.52H291.905V108.703H292.946V110.52H294.586V111.473H292.946V115.297C292.946 115.568 292.997 115.763 293.099 115.882C293.209 115.992 293.395 116.047 293.658 116.047H294.789V117H293.594C292.985 117 292.548 116.864 292.286 116.593C292.032 116.322 291.905 115.895 291.905 115.31V111.473Z" fill="black"/>
<path d="M343 222L-9.77516e-06 222" stroke="#A6C6DD"/>
<path d="M343 307L-9.77516e-06 307" stroke="#A6C6DD"/>
<path d="M343 392L-9.77516e-06 392" stroke="#A6C6DD"/>
<path d="M17.611 188.948C17.635 189.26 17.761 189.512 17.989 189.704C18.223 189.89 18.532 189.983 18.916 189.983C19.234 189.983 19.492 189.917 19.69 189.785C19.894 189.647 19.996 189.458 19.996 189.218C19.996 189.05 19.939 188.918 19.825 188.822C19.717 188.72 19.561 188.642 19.357 188.588C19.159 188.528 18.85 188.456 18.43 188.372C18.016 188.294 17.668 188.195 17.386 188.075C17.104 187.949 16.873 187.766 16.693 187.526C16.519 187.28 16.432 186.956 16.432 186.554C16.432 186.188 16.531 185.861 16.729 185.573C16.933 185.285 17.212 185.06 17.566 184.898C17.926 184.73 18.331 184.646 18.781 184.646C19.243 184.646 19.657 184.733 20.023 184.907C20.395 185.075 20.686 185.309 20.896 185.609C21.112 185.909 21.223 186.248 21.229 186.626H19.906C19.876 186.356 19.762 186.14 19.564 185.978C19.366 185.81 19.105 185.726 18.781 185.726C18.481 185.726 18.241 185.789 18.061 185.915C17.881 186.041 17.791 186.221 17.791 186.455C17.791 186.623 17.845 186.755 17.953 186.851C18.061 186.941 18.214 187.016 18.412 187.076C18.61 187.13 18.916 187.196 19.33 187.274C19.75 187.352 20.104 187.451 20.392 187.571C20.68 187.685 20.911 187.862 21.085 188.102C21.265 188.336 21.355 188.651 21.355 189.047C21.355 189.431 21.25 189.776 21.04 190.082C20.83 190.382 20.536 190.619 20.158 190.793C19.786 190.967 19.366 191.054 18.898 191.054C18.394 191.054 17.944 190.964 17.548 190.784C17.158 190.598 16.852 190.343 16.63 190.019C16.408 189.695 16.294 189.332 16.288 188.93L17.611 188.948ZM26.62 189.929V191H25.972C25.39 191 25.105 190.748 25.117 190.244C24.949 190.508 24.742 190.709 24.496 190.847C24.25 190.985 23.953 191.054 23.605 191.054C23.089 191.054 22.672 190.937 22.354 190.703C22.042 190.463 21.886 190.127 21.886 189.695C21.886 189.203 22.066 188.825 22.426 188.561C22.792 188.291 23.32 188.156 24.01 188.156H24.928V187.931C24.928 187.721 24.85 187.556 24.694 187.436C24.538 187.31 24.328 187.247 24.064 187.247C23.83 187.247 23.638 187.298 23.488 187.4C23.338 187.502 23.248 187.64 23.218 187.814H21.994C22.036 187.34 22.246 186.974 22.624 186.716C23.002 186.452 23.503 186.32 24.127 186.32C24.781 186.32 25.285 186.464 25.639 186.752C25.999 187.04 26.179 187.457 26.179 188.003V189.632C26.179 189.746 26.203 189.824 26.251 189.866C26.299 189.908 26.374 189.929 26.476 189.929H26.62ZM24.928 189.002H24.001C23.737 189.002 23.53 189.056 23.38 189.164C23.236 189.266 23.164 189.413 23.164 189.605C23.164 189.767 23.224 189.896 23.344 189.992C23.47 190.088 23.638 190.136 23.848 190.136C24.178 190.136 24.439 190.043 24.631 189.857C24.823 189.665 24.922 189.41 24.928 189.092V189.002ZM27.1109 184.7H28.3799V191H27.1109V184.7ZM29.0842 188.696C29.0842 188.216 29.1802 187.799 29.3722 187.445C29.5702 187.085 29.8432 186.809 30.1912 186.617C30.5452 186.419 30.9532 186.32 31.4152 186.32C31.8832 186.32 32.2942 186.413 32.6482 186.599C33.0082 186.779 33.2872 187.037 33.4852 187.373C33.6892 187.703 33.7942 188.093 33.8002 188.543C33.8002 188.705 33.7882 188.849 33.7642 188.975H30.4072V189.011C30.4372 189.347 30.5452 189.611 30.7312 189.803C30.9172 189.995 31.1722 190.091 31.4962 190.091C31.7542 190.091 31.9672 190.037 32.1352 189.929C32.3092 189.815 32.4232 189.65 32.4772 189.434H33.7282C33.6802 189.74 33.5632 190.016 33.3772 190.262C33.1912 190.508 32.9452 190.703 32.6392 190.847C32.3332 190.985 31.9822 191.054 31.5862 191.054C31.0702 191.054 30.6232 190.958 30.2452 190.766C29.8732 190.574 29.5852 190.301 29.3812 189.947C29.1832 189.587 29.0842 189.17 29.0842 188.696ZM32.5312 188.147C32.4892 187.865 32.3722 187.649 32.1802 187.499C31.9942 187.343 31.7572 187.265 31.4692 187.265C31.1932 187.265 30.9592 187.346 30.7672 187.508C30.5812 187.664 30.4702 187.877 30.4342 188.147H32.5312ZM35.4936 189.461C35.5116 189.665 35.6106 189.83 35.7906 189.956C35.9706 190.082 36.2016 190.145 36.4836 190.145C36.7536 190.145 36.9666 190.103 37.1226 190.019C37.2786 189.929 37.3566 189.803 37.3566 189.641C37.3566 189.521 37.3206 189.431 37.2486 189.371C37.1766 189.311 37.0746 189.269 36.9426 189.245C36.8106 189.215 36.5946 189.182 36.2946 189.146C35.8866 189.092 35.5476 189.023 35.2776 188.939C35.0076 188.855 34.7916 188.723 34.6296 188.543C34.4676 188.363 34.3866 188.123 34.3866 187.823C34.3866 187.523 34.4676 187.259 34.6296 187.031C34.7976 186.797 35.0316 186.617 35.3316 186.491C35.6316 186.365 35.9766 186.302 36.3666 186.302C36.9966 186.308 37.5036 186.443 37.8876 186.707C38.2776 186.971 38.4876 187.337 38.5176 187.805H37.3116C37.2936 187.631 37.2006 187.49 37.0326 187.382C36.8706 187.268 36.6606 187.211 36.4026 187.211C36.1626 187.211 35.9676 187.256 35.8176 187.346C35.6736 187.436 35.6016 187.556 35.6016 187.706C35.6016 187.814 35.6406 187.895 35.7186 187.949C35.7966 188.003 35.8986 188.042 36.0246 188.066C36.1506 188.09 36.3606 188.117 36.6546 188.147C37.2786 188.219 37.7556 188.354 38.0856 188.552C38.4216 188.744 38.5896 189.077 38.5896 189.551C38.5896 189.851 38.4996 190.115 38.3196 190.343C38.1456 190.571 37.8996 190.748 37.5816 190.874C37.2696 190.994 36.9066 191.054 36.4926 191.054C35.8506 191.054 35.3286 190.913 34.9266 190.631C34.5246 190.343 34.3116 189.953 34.2876 189.461H35.4936ZM41.6504 184.7H43.4234L45.1694 189.326L46.8614 184.7H48.5984V191H47.3114V186.779L45.6734 191H44.5754L42.9374 186.779V191H41.6504V184.7ZM49.3958 188.696C49.3958 188.216 49.4918 187.799 49.6838 187.445C49.8818 187.085 50.1548 186.809 50.5028 186.617C50.8568 186.419 51.2648 186.32 51.7268 186.32C52.1948 186.32 52.6058 186.413 52.9598 186.599C53.3198 186.779 53.5988 187.037 53.7968 187.373C54.0008 187.703 54.1058 188.093 54.1118 188.543C54.1118 188.705 54.0998 188.849 54.0758 188.975H50.7188V189.011C50.7488 189.347 50.8568 189.611 51.0428 189.803C51.2288 189.995 51.4838 190.091 51.8078 190.091C52.0658 190.091 52.2788 190.037 52.4468 189.929C52.6208 189.815 52.7348 189.65 52.7888 189.434H54.0398C53.9918 189.74 53.8748 190.016 53.6888 190.262C53.5028 190.508 53.2568 190.703 52.9508 190.847C52.6448 190.985 52.2938 191.054 51.8978 191.054C51.3818 191.054 50.9348 190.958 50.5568 190.766C50.1848 190.574 49.8968 190.301 49.6928 189.947C49.4948 189.587 49.3958 189.17 49.3958 188.696ZM52.8428 188.147C52.8008 187.865 52.6838 187.649 52.4918 187.499C52.3058 187.343 52.0688 187.265 51.7808 187.265C51.5048 187.265 51.2708 187.346 51.0788 187.508C50.8928 187.664 50.7818 187.877 50.7458 188.147H52.8428ZM54.6253 188.696C54.6253 188.216 54.7213 187.799 54.9133 187.445C55.1113 187.085 55.3843 186.809 55.7323 186.617C56.0863 186.419 56.4943 186.32 56.9563 186.32C57.4243 186.32 57.8353 186.413 58.1893 186.599C58.5493 186.779 58.8283 187.037 59.0263 187.373C59.2303 187.703 59.3353 188.093 59.3413 188.543C59.3413 188.705 59.3293 188.849 59.3053 188.975H55.9483V189.011C55.9783 189.347 56.0863 189.611 56.2723 189.803C56.4583 189.995 56.7133 190.091 57.0373 190.091C57.2953 190.091 57.5083 190.037 57.6763 189.929C57.8503 189.815 57.9643 189.65 58.0183 189.434H59.2693C59.2213 189.74 59.1043 190.016 58.9183 190.262C58.7323 190.508 58.4863 190.703 58.1803 190.847C57.8743 190.985 57.5233 191.054 57.1273 191.054C56.6113 191.054 56.1643 190.958 55.7863 190.766C55.4143 190.574 55.1263 190.301 54.9223 189.947C54.7243 189.587 54.6253 189.17 54.6253 188.696ZM58.0723 188.147C58.0303 187.865 57.9133 187.649 57.7213 187.499C57.5353 187.343 57.2983 187.265 57.0103 187.265C56.7343 187.265 56.5003 187.346 56.3083 187.508C56.1223 187.664 56.0113 187.877 55.9753 188.147H58.0723ZM60.3142 187.445H59.5492V186.374H60.3142V185.078H61.5832V186.374H62.6362V187.445H61.5832V189.47C61.5832 189.632 61.6162 189.749 61.6822 189.821C61.7542 189.893 61.8712 189.929 62.0332 189.929H62.6902V191H61.6372C60.7552 191 60.3142 190.559 60.3142 189.677V187.445ZM63.8642 184.448C64.0742 184.448 64.2482 184.517 64.3862 184.655C64.5242 184.787 64.5932 184.955 64.5932 185.159C64.5932 185.363 64.5242 185.534 64.3862 185.672C64.2482 185.81 64.0742 185.879 63.8642 185.879C63.6542 185.879 63.4772 185.81 63.3332 185.672C63.1952 185.534 63.1262 185.363 63.1262 185.159C63.1262 184.955 63.1952 184.787 63.3332 184.655C63.4772 184.517 63.6542 184.448 63.8642 184.448ZM63.2252 186.374H64.4942V191H63.2252V186.374ZM68.0335 186.32C68.5735 186.32 69.0175 186.488 69.3655 186.824C69.7135 187.16 69.8875 187.715 69.8875 188.489V191H68.6185V188.561C68.6185 187.763 68.3065 187.364 67.6825 187.364C67.3525 187.364 67.0975 187.475 66.9175 187.697C66.7375 187.919 66.6475 188.231 66.6475 188.633V191H65.3785V186.374H66.4855L66.6025 186.95C66.7645 186.752 66.9595 186.599 67.1875 186.491C67.4155 186.377 67.6975 186.32 68.0335 186.32ZM75.3131 186.374V190.865C75.3131 191.471 75.1121 191.954 74.7101 192.314C74.3081 192.674 73.6841 192.854 72.8381 192.854C72.1841 192.854 71.6561 192.71 71.2541 192.422C70.8521 192.134 70.6361 191.726 70.6061 191.198H71.8841C71.9441 191.42 72.0611 191.591 72.2351 191.711C72.4151 191.831 72.6491 191.891 72.9371 191.891C73.2971 191.891 73.5761 191.801 73.7741 191.621C73.9721 191.441 74.0711 191.174 74.0711 190.82V190.334C73.7351 190.76 73.2581 190.973 72.6401 190.973C72.2321 190.973 71.8661 190.877 71.5421 190.685C71.2181 190.493 70.9631 190.223 70.7771 189.875C70.5971 189.521 70.5071 189.11 70.5071 188.642C70.5071 188.18 70.5971 187.772 70.7771 187.418C70.9631 187.064 71.2181 186.791 71.5421 186.599C71.8721 186.407 72.2411 186.311 72.6491 186.311C73.2551 186.311 73.7351 186.545 74.0891 187.013L74.1971 186.374H75.3131ZM72.9371 189.956C73.2791 189.956 73.5521 189.836 73.7561 189.596C73.9601 189.356 74.0621 189.044 74.0621 188.66C74.0621 188.27 73.9601 187.952 73.7561 187.706C73.5521 187.46 73.2791 187.337 72.9371 187.337C72.5951 187.337 72.3191 187.46 72.1091 187.706C71.9051 187.946 71.8031 188.261 71.8031 188.651C71.8031 189.041 71.9051 189.356 72.1091 189.596C72.3191 189.836 72.5951 189.956 72.9371 189.956ZM77.9893 186.374H79.3303L80.2573 189.632L81.1303 186.374H82.2733L83.1193 189.641L84.0643 186.374H85.3603L83.8393 191H82.4893L81.6793 188.21L80.8513 191H79.5013L77.9893 186.374ZM86.4433 184.448C86.6533 184.448 86.8273 184.517 86.9653 184.655C87.1033 184.787 87.1723 184.955 87.1723 185.159C87.1723 185.363 87.1033 185.534 86.9653 185.672C86.8273 185.81 86.6533 185.879 86.4433 185.879C86.2333 185.879 86.0563 185.81 85.9123 185.672C85.7743 185.534 85.7053 185.363 85.7053 185.159C85.7053 184.955 85.7743 184.787 85.9123 184.655C86.0563 184.517 86.2333 184.448 86.4433 184.448ZM85.8043 186.374H87.0733V191H85.8043V186.374ZM87.8676 190.307C87.8676 190.085 87.9396 189.905 88.0836 189.767C88.2276 189.623 88.4106 189.551 88.6326 189.551C88.8486 189.551 89.0286 189.623 89.1726 189.767C89.3226 189.911 89.3976 190.091 89.3976 190.307C89.3976 190.523 89.3226 190.703 89.1726 190.847C89.0286 190.985 88.8486 191.054 88.6326 191.054C88.4106 191.054 88.2276 190.985 88.0836 190.847C87.9396 190.703 87.8676 190.523 87.8676 190.307ZM90.1 190.307C90.1 190.085 90.172 189.905 90.316 189.767C90.46 189.623 90.643 189.551 90.865 189.551C91.081 189.551 91.261 189.623 91.405 189.767C91.555 189.911 91.63 190.091 91.63 190.307C91.63 190.523 91.555 190.703 91.405 190.847C91.261 190.985 91.081 191.054 90.865 191.054C90.643 191.054 90.46 190.985 90.316 190.847C90.172 190.703 90.1 190.523 90.1 190.307ZM92.3324 190.307C92.3324 190.085 92.4044 189.905 92.5484 189.767C92.6924 189.623 92.8754 189.551 93.0974 189.551C93.3134 189.551 93.4934 189.623 93.6374 189.767C93.7874 189.911 93.8624 190.091 93.8624 190.307C93.8624 190.523 93.7874 190.703 93.6374 190.847C93.4934 190.985 93.3134 191.054 93.0974 191.054C92.8754 191.054 92.6924 190.985 92.5484 190.847C92.4044 190.703 92.3324 190.523 92.3324 190.307Z" fill="black"/>
<path d="M30.25 198.7V205H29.494V200.554C29.41 200.632 29.266 200.671 29.062 200.671H28.045V199.996H29.071C29.215 199.996 29.323 199.948 29.395 199.852C29.473 199.75 29.512 199.618 29.512 199.456V198.7H30.25ZM33.717 202.237C34.071 201.931 34.338 201.655 34.518 201.409C34.698 201.157 34.788 200.875 34.788 200.563C34.788 200.173 34.662 199.867 34.41 199.645C34.164 199.423 33.831 199.312 33.411 199.312C33.003 199.312 32.676 199.438 32.43 199.69C32.184 199.942 32.061 200.284 32.061 200.716V200.833H31.305V200.671C31.305 200.275 31.392 199.924 31.566 199.618C31.74 199.312 31.986 199.072 32.304 198.898C32.628 198.724 32.997 198.637 33.411 198.637C34.083 198.637 34.608 198.808 34.986 199.15C35.37 199.492 35.562 199.951 35.562 200.527C35.562 200.827 35.502 201.1 35.382 201.346C35.268 201.592 35.118 201.817 34.932 202.021C34.746 202.219 34.503 202.447 34.203 202.705L32.313 204.307H35.607V205H31.269V204.361L33.717 202.237ZM36.3329 201.175C36.3329 201.025 36.3809 200.905 36.4769 200.815C36.5729 200.719 36.6959 200.671 36.8459 200.671C36.9959 200.671 37.1189 200.719 37.2149 200.815C37.3109 200.905 37.3589 201.025 37.3589 201.175C37.3589 201.325 37.3109 201.448 37.2149 201.544C37.1189 201.634 36.9959 201.679 36.8459 201.679C36.6959 201.679 36.5729 201.634 36.4769 201.544C36.3809 201.448 36.3329 201.325 36.3329 201.175ZM36.3329 204.55C36.3329 204.4 36.3809 204.28 36.4769 204.19C36.5729 204.094 36.6959 204.046 36.8459 204.046C36.9959 204.046 37.1189 204.094 37.2149 204.19C37.3109 204.28 37.3589 204.4 37.3589 204.55C37.3589 204.7 37.3109 204.823 37.2149 204.919C37.1189 205.009 36.9959 205.054 36.8459 205.054C36.6959 205.054 36.5729 205.009 36.4769 204.919C36.3809 204.823 36.3329 204.7 36.3329 204.55ZM38.1964 201.706C38.1964 201.112 38.2954 200.584 38.4934 200.122C38.6974 199.66 38.9794 199.3 39.3394 199.042C39.7054 198.778 40.1224 198.646 40.5904 198.646C41.0524 198.646 41.4634 198.778 41.8234 199.042C42.1894 199.3 42.4714 199.66 42.6694 200.122C42.8734 200.584 42.9754 201.112 42.9754 201.706V201.994C42.9754 202.612 42.8734 203.152 42.6694 203.614C42.4714 204.076 42.1924 204.433 41.8324 204.685C41.4724 204.931 41.0584 205.054 40.5904 205.054C40.1164 205.054 39.6994 204.931 39.3394 204.685C38.9794 204.433 38.6974 204.076 38.4934 203.614C38.2954 203.152 38.1964 202.612 38.1964 201.994V201.706ZM42.2104 201.733C42.2104 201.241 42.1414 200.815 42.0034 200.455C41.8714 200.095 41.6824 199.819 41.4364 199.627C41.1964 199.435 40.9144 199.339 40.5904 199.339C40.2664 199.339 39.9814 199.435 39.7354 199.627C39.4894 199.819 39.2974 200.095 39.1594 200.455C39.0274 200.815 38.9614 201.241 38.9614 201.733V201.967C38.9614 202.459 39.0274 202.885 39.1594 203.245C39.2974 203.605 39.4894 203.881 39.7354 204.073C39.9814 204.265 40.2664 204.361 40.5904 204.361C40.9144 204.361 41.1964 204.265 41.4364 204.073C41.6824 203.881 41.8714 203.605 42.0034 203.245C42.1414 202.885 42.2104 202.459 42.2104 201.967V201.733ZM43.8214 201.706C43.8214 201.112 43.9204 200.584 44.1184 200.122C44.3224 199.66 44.6044 199.3 44.9644 199.042C45.3304 198.778 45.7474 198.646 46.2154 198.646C46.6774 198.646 47.0884 198.778 47.4484 199.042C47.8144 199.3 48.0964 199.66 48.2944 200.122C48.4984 200.584 48.6004 201.112 48.6004 201.706V201.994C48.6004 202.612 48.4984 203.152 48.2944 203.614C48.0964 204.076 47.8174 204.433 47.4574 204.685C47.0974 204.931 46.6834 205.054 46.2154 205.054C45.7414 205.054 45.3244 204.931 44.9644 204.685C44.6044 204.433 44.3224 204.076 44.1184 203.614C43.9204 203.152 43.8214 202.612 43.8214 201.994V201.706ZM47.8354 201.733C47.8354 201.241 47.7664 200.815 47.6284 200.455C47.4964 200.095 47.3074 199.819 47.0614 199.627C46.8214 199.435 46.5394 199.339 46.2154 199.339C45.8914 199.339 45.6064 199.435 45.3604 199.627C45.1144 199.819 44.9224 200.095 44.7844 200.455C44.6524 200.815 44.5864 201.241 44.5864 201.733V201.967C44.5864 202.459 44.6524 202.885 44.7844 203.245C44.9224 203.605 45.1144 203.881 45.3604 204.073C45.6064 204.265 45.8914 204.361 46.2154 204.361C46.5394 204.361 46.8214 204.265 47.0614 204.073C47.3074 203.881 47.4964 203.605 47.6284 203.245C47.7664 202.885 47.8354 202.459 47.8354 201.967V201.733ZM54.4119 198.7C54.8259 198.7 55.1919 198.781 55.5099 198.943C55.8279 199.099 56.0709 199.324 56.2389 199.618C56.4129 199.906 56.4999 200.245 56.4999 200.635C56.4999 201.025 56.4129 201.367 56.2389 201.661C56.0649 201.955 55.8189 202.183 55.5009 202.345C55.1889 202.501 54.8259 202.579 54.4119 202.579H52.7739V205H51.9909V198.7H54.4119ZM52.7739 201.859H54.3399C54.7539 201.859 55.0839 201.748 55.3299 201.526C55.5759 201.304 55.6989 201.007 55.6989 200.635C55.6989 200.263 55.5759 199.969 55.3299 199.753C55.0899 199.531 54.7629 199.42 54.3489 199.42H52.7739V201.859ZM57.3347 198.7H58.3247L60.5567 203.929L62.7617 198.7H63.7337V205H62.9687V200.032L60.8807 205H60.1877L58.0997 200.032V205H57.3347V198.7Z" fill="black"/>
<path d="M20.5 199.132V201.02C20.5 201.173 20.5739 201.316 20.6984 201.405L22.1579 202.448" stroke="black" stroke-width="0.8" stroke-linecap="round"/>
<circle cx="20.5" cy="201.5" r="4.1" stroke="black" stroke-width="0.8"/>
<g clip-path="url(#clip4_87_1460)">
<path fill-rule="evenodd" clip-rule="evenodd" d="M89.3843 73.9366L89.8125 86.5041L92.3163 82.1767L96.5142 89.9029L97.9118 89.1435L93.7139 81.4174L98.7069 81.6714L89.3843 73.9366Z" fill="#020618"/>
<mask id="mask0_87_1460" style="mask-type:luminance" maskUnits="userSpaceOnUse" x="83" y="71" width="21" height="22">
<path d="M103.559 76.4714L88.3071 71.9584L83.5684 87.9732L98.8206 92.4862L103.559 76.4714Z" fill="white"/>
<path fill-rule="evenodd" clip-rule="evenodd" d="M89.3809 73.9349L89.8091 86.5024L92.3129 82.175L96.5108 89.9012L97.9084 89.1418L93.7105 81.4157L98.7035 81.6697L89.3809 73.9349Z" fill="black"/>
</mask>
<g mask="url(#mask0_87_1460)">
<path d="M89.8128 86.504L88.6206 86.5446C88.6387 87.0766 89.007 87.5321 89.5232 87.6613C90.0395 87.7905 90.5789 87.5621 90.8454 87.1015L89.8128 86.504ZM89.3846 73.9367L90.1463 73.0186C89.7848 72.7186 89.2808 72.6588 88.8591 72.8657C88.4374 73.0726 88.1763 73.5078 88.1923 73.9773L89.3846 73.9367ZM92.3166 82.1767L93.3649 81.6073C93.1588 81.2281 92.7641 80.9897 92.3326 80.9839C91.9011 80.9782 91.5002 81.2058 91.284 81.5793L92.3166 82.1767ZM96.5145 89.9029L95.4663 90.4724C95.7808 91.0513 96.5052 91.2657 97.0841 90.9511L96.5145 89.9029ZM97.9121 89.1435L98.4817 90.1918C99.0606 89.8772 99.2749 89.1529 98.9604 88.574L97.9121 89.1435ZM93.7142 81.4174L93.7749 80.226C93.3439 80.204 92.9348 80.4166 92.7048 80.7817C92.4748 81.1468 92.46 81.6077 92.6661 81.9869L93.7142 81.4174ZM98.7072 81.6714L98.6467 82.8628C99.1599 82.8889 99.6321 82.5835 99.8187 82.1047C100.005 81.626 99.8645 81.0815 99.469 80.7534L98.7072 81.6714ZM91.0051 86.4635L90.5768 73.896L88.1923 73.9773L88.6206 86.5446L91.0051 86.4635ZM91.284 81.5793L88.7803 85.9066L90.8454 87.1015L93.3492 82.7742L91.284 81.5793ZM97.5628 89.3334L93.3649 81.6073L91.2684 82.7463L95.4663 90.4724L97.5628 89.3334ZM97.3427 88.0953L95.945 88.8547L97.0841 90.9511L98.4817 90.1918L97.3427 88.0953ZM92.6661 81.9869L96.864 89.7131L98.9604 88.574L94.7625 80.8479L92.6661 81.9869ZM98.7678 80.4801L93.7749 80.226L93.6537 82.6088L98.6467 82.8628L98.7678 80.4801ZM88.6228 74.8547L97.9455 82.5895L99.469 80.7534L90.1463 73.0186L88.6228 74.8547Z" fill="white"/>
</g>
</g>
<rect width="94" height="38" rx="5.07913" transform="matrix(1 0 0 -1 124 298)" fill="white"/>
<path d="M136.768 274.857V276H136.12C135.868 276 135.67 275.967 135.526 275.901C135.388 275.835 135.259 275.727 135.139 275.577C134.641 275.895 134.065 276.054 133.411 276.054C132.805 276.054 132.265 275.916 131.791 275.64C131.317 275.364 130.948 274.983 130.684 274.497C130.42 274.005 130.288 273.456 130.288 272.85C130.288 272.244 130.42 271.698 130.684 271.212C130.948 270.72 131.317 270.336 131.791 270.06C132.265 269.784 132.805 269.646 133.411 269.646C134.017 269.646 134.557 269.784 135.031 270.06C135.505 270.336 135.874 270.72 136.138 271.212C136.402 271.698 136.534 272.244 136.534 272.85C136.534 273.6 136.336 274.254 135.94 274.812C136 274.842 136.069 274.857 136.147 274.857H136.768ZM131.665 272.85C131.665 273.246 131.737 273.6 131.881 273.912C132.025 274.224 132.229 274.47 132.493 274.65C132.757 274.824 133.063 274.911 133.411 274.911C133.771 274.911 134.092 274.812 134.374 274.614L134.284 274.506C134.212 274.41 134.143 274.341 134.077 274.299C134.011 274.251 133.93 274.227 133.834 274.227H133.249V273.084H133.933C134.173 273.084 134.356 273.12 134.482 273.192C134.608 273.264 134.734 273.381 134.86 273.543L135.004 273.732C135.1 273.468 135.148 273.174 135.148 272.85C135.148 272.454 135.076 272.1 134.932 271.788C134.788 271.476 134.584 271.233 134.32 271.059C134.056 270.879 133.753 270.789 133.411 270.789C133.063 270.789 132.757 270.879 132.493 271.059C132.229 271.233 132.025 271.476 131.881 271.788C131.737 272.1 131.665 272.454 131.665 272.85ZM137.062 273.579L139.843 269.7H141.445V273.57H142.318V274.65H141.445V276H140.176V274.65H137.062V273.579ZM138.295 273.57H140.176V270.96L138.295 273.57ZM146.35 273.948C146.374 274.26 146.5 274.512 146.728 274.704C146.962 274.89 147.271 274.983 147.655 274.983C147.973 274.983 148.231 274.917 148.429 274.785C148.633 274.647 148.735 274.458 148.735 274.218C148.735 274.05 148.678 273.918 148.564 273.822C148.456 273.72 148.3 273.642 148.096 273.588C147.898 273.528 147.589 273.456 147.169 273.372C146.755 273.294 146.407 273.195 146.125 273.075C145.843 272.949 145.612 272.766 145.432 272.526C145.258 272.28 145.171 271.956 145.171 271.554C145.171 271.188 145.27 270.861 145.468 270.573C145.672 270.285 145.951 270.06 146.305 269.898C146.665 269.73 147.07 269.646 147.52 269.646C147.982 269.646 148.396 269.733 148.762 269.907C149.134 270.075 149.425 270.309 149.635 270.609C149.851 270.909 149.962 271.248 149.968 271.626H148.645C148.615 271.356 148.501 271.14 148.303 270.978C148.105 270.81 147.844 270.726 147.52 270.726C147.22 270.726 146.98 270.789 146.8 270.915C146.62 271.041 146.53 271.221 146.53 271.455C146.53 271.623 146.584 271.755 146.692 271.851C146.8 271.941 146.953 272.016 147.151 272.076C147.349 272.13 147.655 272.196 148.069 272.274C148.489 272.352 148.843 272.451 149.131 272.571C149.419 272.685 149.65 272.862 149.824 273.102C150.004 273.336 150.094 273.651 150.094 274.047C150.094 274.431 149.989 274.776 149.779 275.082C149.569 275.382 149.275 275.619 148.897 275.793C148.525 275.967 148.105 276.054 147.637 276.054C147.133 276.054 146.683 275.964 146.287 275.784C145.897 275.598 145.591 275.343 145.369 275.019C145.147 274.695 145.033 274.332 145.027 273.93L146.35 273.948ZM151.102 272.445H150.337V271.374H151.102V270.078H152.371V271.374H153.424V272.445H152.371V274.47C152.371 274.632 152.404 274.749 152.47 274.821C152.542 274.893 152.659 274.929 152.821 274.929H153.478V276H152.425C151.543 276 151.102 275.559 151.102 274.677V272.445ZM156.83 271.374V272.526H156.326C155.966 272.526 155.702 272.634 155.534 272.85C155.366 273.066 155.282 273.36 155.282 273.732V276H154.013V271.374H155.165L155.282 272.067C155.42 271.839 155.591 271.668 155.795 271.554C155.999 271.434 156.272 271.374 156.614 271.374H156.83ZM161.819 274.929V276H161.171C160.589 276 160.304 275.748 160.316 275.244C160.148 275.508 159.941 275.709 159.695 275.847C159.449 275.985 159.152 276.054 158.804 276.054C158.288 276.054 157.871 275.937 157.553 275.703C157.241 275.463 157.085 275.127 157.085 274.695C157.085 274.203 157.265 273.825 157.625 273.561C157.991 273.291 158.519 273.156 159.209 273.156H160.127V272.931C160.127 272.721 160.049 272.556 159.893 272.436C159.737 272.31 159.527 272.247 159.263 272.247C159.029 272.247 158.837 272.298 158.687 272.4C158.537 272.502 158.447 272.64 158.417 272.814H157.193C157.235 272.34 157.445 271.974 157.823 271.716C158.201 271.452 158.702 271.32 159.326 271.32C159.98 271.32 160.484 271.464 160.838 271.752C161.198 272.04 161.378 272.457 161.378 273.003V274.632C161.378 274.746 161.402 274.824 161.45 274.866C161.498 274.908 161.573 274.929 161.675 274.929H161.819ZM160.127 274.002H159.2C158.936 274.002 158.729 274.056 158.579 274.164C158.435 274.266 158.363 274.413 158.363 274.605C158.363 274.767 158.423 274.896 158.543 274.992C158.669 275.088 158.837 275.136 159.047 275.136C159.377 275.136 159.638 275.043 159.83 274.857C160.022 274.665 160.121 274.41 160.127 274.092V274.002ZM162.607 272.445H161.842V271.374H162.607V270.078H163.876V271.374H164.929V272.445H163.876V274.47C163.876 274.632 163.909 274.749 163.975 274.821C164.047 274.893 164.164 274.929 164.326 274.929H164.983V276H163.93C163.048 276 162.607 275.559 162.607 274.677V272.445ZM165.268 273.696C165.268 273.216 165.364 272.799 165.556 272.445C165.754 272.085 166.027 271.809 166.375 271.617C166.729 271.419 167.137 271.32 167.599 271.32C168.067 271.32 168.478 271.413 168.832 271.599C169.192 271.779 169.471 272.037 169.669 272.373C169.873 272.703 169.978 273.093 169.984 273.543C169.984 273.705 169.972 273.849 169.948 273.975H166.591V274.011C166.621 274.347 166.729 274.611 166.915 274.803C167.101 274.995 167.356 275.091 167.68 275.091C167.938 275.091 168.151 275.037 168.319 274.929C168.493 274.815 168.607 274.65 168.661 274.434H169.912C169.864 274.74 169.747 275.016 169.561 275.262C169.375 275.508 169.129 275.703 168.823 275.847C168.517 275.985 168.166 276.054 167.77 276.054C167.254 276.054 166.807 275.958 166.429 275.766C166.057 275.574 165.769 275.301 165.565 274.947C165.367 274.587 165.268 274.17 165.268 273.696ZM168.715 273.147C168.673 272.865 168.556 272.649 168.364 272.499C168.178 272.343 167.941 272.265 167.653 272.265C167.377 272.265 167.143 272.346 166.951 272.508C166.765 272.664 166.654 272.877 166.618 273.147H168.715ZM175.303 271.374V275.865C175.303 276.471 175.102 276.954 174.7 277.314C174.298 277.674 173.674 277.854 172.828 277.854C172.174 277.854 171.646 277.71 171.244 277.422C170.842 277.134 170.626 276.726 170.596 276.198H171.874C171.934 276.42 172.051 276.591 172.225 276.711C172.405 276.831 172.639 276.891 172.927 276.891C173.287 276.891 173.566 276.801 173.764 276.621C173.962 276.441 174.061 276.174 174.061 275.82V275.334C173.725 275.76 173.248 275.973 172.63 275.973C172.222 275.973 171.856 275.877 171.532 275.685C171.208 275.493 170.953 275.223 170.767 274.875C170.587 274.521 170.497 274.11 170.497 273.642C170.497 273.18 170.587 272.772 170.767 272.418C170.953 272.064 171.208 271.791 171.532 271.599C171.862 271.407 172.231 271.311 172.639 271.311C173.245 271.311 173.725 271.545 174.079 272.013L174.187 271.374H175.303ZM172.927 274.956C173.269 274.956 173.542 274.836 173.746 274.596C173.95 274.356 174.052 274.044 174.052 273.66C174.052 273.27 173.95 272.952 173.746 272.706C173.542 272.46 173.269 272.337 172.927 272.337C172.585 272.337 172.309 272.46 172.099 272.706C171.895 272.946 171.793 273.261 171.793 273.651C171.793 274.041 171.895 274.356 172.099 274.596C172.309 274.836 172.585 274.956 172.927 274.956ZM177.088 271.374L178.213 274.695L179.311 271.374H180.67L178.618 276.657C178.51 276.939 178.408 277.158 178.312 277.314C178.216 277.476 178.093 277.596 177.943 277.674C177.799 277.758 177.61 277.8 177.376 277.8H176.143V276.729H176.845C177.007 276.729 177.124 276.702 177.196 276.648C177.268 276.594 177.337 276.489 177.403 276.333L177.52 276.027L175.738 271.374H177.088Z" fill="black"/>
<path d="M144.25 283.7V290H143.494V285.554C143.41 285.632 143.266 285.671 143.062 285.671H142.045V284.996H143.071C143.215 284.996 143.323 284.948 143.395 284.852C143.473 284.75 143.512 284.618 143.512 284.456V283.7H144.25ZM145.341 286.706C145.341 286.112 145.44 285.584 145.638 285.122C145.842 284.66 146.124 284.3 146.484 284.042C146.85 283.778 147.267 283.646 147.735 283.646C148.197 283.646 148.608 283.778 148.968 284.042C149.334 284.3 149.616 284.66 149.814 285.122C150.018 285.584 150.12 286.112 150.12 286.706V286.994C150.12 287.612 150.018 288.152 149.814 288.614C149.616 289.076 149.337 289.433 148.977 289.685C148.617 289.931 148.203 290.054 147.735 290.054C147.261 290.054 146.844 289.931 146.484 289.685C146.124 289.433 145.842 289.076 145.638 288.614C145.44 288.152 145.341 287.612 145.341 286.994V286.706ZM149.355 286.733C149.355 286.241 149.286 285.815 149.148 285.455C149.016 285.095 148.827 284.819 148.581 284.627C148.341 284.435 148.059 284.339 147.735 284.339C147.411 284.339 147.126 284.435 146.88 284.627C146.634 284.819 146.442 285.095 146.304 285.455C146.172 285.815 146.106 286.241 146.106 286.733V286.967C146.106 287.459 146.172 287.885 146.304 288.245C146.442 288.605 146.634 288.881 146.88 289.073C147.126 289.265 147.411 289.361 147.735 289.361C148.059 289.361 148.341 289.265 148.581 289.073C148.827 288.881 149.016 288.605 149.148 288.245C149.286 287.885 149.355 287.459 149.355 286.967V286.733ZM150.957 286.175C150.957 286.025 151.005 285.905 151.101 285.815C151.197 285.719 151.32 285.671 151.47 285.671C151.62 285.671 151.743 285.719 151.839 285.815C151.935 285.905 151.983 286.025 151.983 286.175C151.983 286.325 151.935 286.448 151.839 286.544C151.743 286.634 151.62 286.679 151.47 286.679C151.32 286.679 151.197 286.634 151.101 286.544C151.005 286.448 150.957 286.325 150.957 286.175ZM150.957 289.55C150.957 289.4 151.005 289.28 151.101 289.19C151.197 289.094 151.32 289.046 151.47 289.046C151.62 289.046 151.743 289.094 151.839 289.19C151.935 289.28 151.983 289.4 151.983 289.55C151.983 289.7 151.935 289.823 151.839 289.919C151.743 290.009 151.62 290.054 151.47 290.054C151.32 290.054 151.197 290.009 151.101 289.919C151.005 289.823 150.957 289.7 150.957 289.55ZM152.82 286.706C152.82 286.112 152.919 285.584 153.117 285.122C153.321 284.66 153.603 284.3 153.963 284.042C154.329 283.778 154.746 283.646 155.214 283.646C155.676 283.646 156.087 283.778 156.447 284.042C156.813 284.3 157.095 284.66 157.293 285.122C157.497 285.584 157.599 286.112 157.599 286.706V286.994C157.599 287.612 157.497 288.152 157.293 288.614C157.095 289.076 156.816 289.433 156.456 289.685C156.096 289.931 155.682 290.054 155.214 290.054C154.74 290.054 154.323 289.931 153.963 289.685C153.603 289.433 153.321 289.076 153.117 288.614C152.919 288.152 152.82 287.612 152.82 286.994V286.706ZM156.834 286.733C156.834 286.241 156.765 285.815 156.627 285.455C156.495 285.095 156.306 284.819 156.06 284.627C155.82 284.435 155.538 284.339 155.214 284.339C154.89 284.339 154.605 284.435 154.359 284.627C154.113 284.819 153.921 285.095 153.783 285.455C153.651 285.815 153.585 286.241 153.585 286.733V286.967C153.585 287.459 153.651 287.885 153.783 288.245C153.921 288.605 154.113 288.881 154.359 289.073C154.605 289.265 154.89 289.361 155.214 289.361C155.538 289.361 155.82 289.265 156.06 289.073C156.306 288.881 156.495 288.605 156.627 288.245C156.765 287.885 156.834 287.459 156.834 286.967V286.733ZM158.445 286.706C158.445 286.112 158.544 285.584 158.742 285.122C158.946 284.66 159.228 284.3 159.588 284.042C159.954 283.778 160.371 283.646 160.839 283.646C161.301 283.646 161.712 283.778 162.072 284.042C162.438 284.3 162.72 284.66 162.918 285.122C163.122 285.584 163.224 286.112 163.224 286.706V286.994C163.224 287.612 163.122 288.152 162.918 288.614C162.72 289.076 162.441 289.433 162.081 289.685C161.721 289.931 161.307 290.054 160.839 290.054C160.365 290.054 159.948 289.931 159.588 289.685C159.228 289.433 158.946 289.076 158.742 288.614C158.544 288.152 158.445 287.612 158.445 286.994V286.706ZM162.459 286.733C162.459 286.241 162.39 285.815 162.252 285.455C162.12 285.095 161.931 284.819 161.685 284.627C161.445 284.435 161.163 284.339 160.839 284.339C160.515 284.339 160.23 284.435 159.984 284.627C159.738 284.819 159.546 285.095 159.408 285.455C159.276 285.815 159.21 286.241 159.21 286.733V286.967C159.21 287.459 159.276 287.885 159.408 288.245C159.546 288.605 159.738 288.881 159.984 289.073C160.23 289.265 160.515 289.361 160.839 289.361C161.163 289.361 161.445 289.265 161.685 289.073C161.931 288.881 162.12 288.605 162.252 288.245C162.39 287.885 162.459 287.459 162.459 286.967V286.733ZM166.102 290L168.505 283.7H169.432L171.826 290H170.989L170.323 288.299H167.578L166.912 290H166.102ZM167.812 287.588H170.089L168.946 284.555L167.812 287.588ZM172.539 283.7H173.529L175.761 288.929L177.966 283.7H178.938V290H178.173V285.032L176.085 290H175.392L173.304 285.032V290H172.539V283.7Z" fill="black"/>
<path d="M134.5 284.132V286.02C134.5 286.173 134.574 286.316 134.698 286.405L136.158 287.448" stroke="black" stroke-width="0.8" stroke-linecap="round"/>
<circle cx="134.5" cy="286.5" r="4.1" stroke="black" stroke-width="0.8"/>
<path d="M114 136V429" stroke="#A6C6DD"/>
<path d="M228 136V429" stroke="#A6C6DD"/>
<defs>
<clipPath id="bgblur_0_87_1460_clip_path" transform="translate(100 100)"><rect width="429" height="429" rx="20"/>
</clipPath><clipPath id="bgblur_1_87_1460_clip_path" transform="translate(100 62)"><path d="M0 38H356C367.046 38 376 46.9543 376 58V429H0V38Z"/>
</clipPath><clipPath id="bgblur_2_87_1460_clip_path" transform="translate(100 -36)"><rect y="136" width="343" height="293"/>
</clipPath><clipPath id="bgblur_3_87_1460_clip_path" transform="translate(100 11)"><path d="M0 89H323C334.046 89 343 97.9543 343 109V136H0V89Z"/>
</clipPath><linearGradient id="paint0_linear_87_1460" x1="214.5" y1="0" x2="214.5" y2="429" gradientUnits="userSpaceOnUse">
<stop stop-color="#243E4E"/>
<stop offset="1" stop-color="#243E4E" stop-opacity="0"/>
</linearGradient>
<linearGradient id="paint1_linear_87_1460" x1="188" y1="38" x2="188" y2="429" gradientUnits="userSpaceOnUse">
<stop stop-color="white"/>
<stop offset="1" stop-color="white" stop-opacity="0"/>
</linearGradient>
<linearGradient id="paint2_linear_87_1460" x1="171.5" y1="136" x2="171.5" y2="429" gradientUnits="userSpaceOnUse">
<stop stop-color="#A6C6DD"/>
<stop offset="1" stop-color="#A6C6DD" stop-opacity="0"/>
</linearGradient>
<clipPath id="clip4_87_1460">
<rect width="19.0871" height="19.0871" fill="white" transform="translate(87.2363 69.9836) rotate(16.4832)"/>
</clipPath>
</defs>
</svg>
