<svg width="706" height="540" viewBox="0 0 706 540" fill="none" xmlns="http://www.w3.org/2000/svg">
<rect opacity="0.5" x="440" y="178" width="175" height="40" rx="5" fill="white"/>
<path d="M496.455 200.812H496.347C496.275 200.988 496.187 201.156 496.083 201.316C495.979 201.476 495.851 201.62 495.699 201.748C495.547 201.868 495.367 201.964 495.159 202.036C494.959 202.108 494.731 202.144 494.475 202.144C494.067 202.144 493.703 202.048 493.383 201.856C493.071 201.664 492.807 201.384 492.591 201.016C492.375 200.648 492.211 200.2 492.099 199.672C491.995 199.144 491.943 198.548 491.943 197.884C491.943 196.46 492.203 195.372 492.723 194.62C493.243 193.86 494.047 193.48 495.135 193.48C495.567 193.48 495.947 193.54 496.275 193.66C496.603 193.772 496.883 193.936 497.115 194.152C497.355 194.36 497.551 194.612 497.703 194.908C497.855 195.204 497.975 195.532 498.063 195.892L496.383 196.3C496.335 196.124 496.279 195.956 496.215 195.796C496.159 195.628 496.083 195.48 495.987 195.352C495.891 195.224 495.771 195.124 495.627 195.052C495.483 194.972 495.307 194.932 495.099 194.932C494.643 194.932 494.319 195.12 494.127 195.496C493.943 195.872 493.851 196.4 493.851 197.08V198.448C493.851 199.128 493.951 199.672 494.151 200.08C494.359 200.488 494.723 200.692 495.243 200.692C495.651 200.692 495.955 200.572 496.155 200.332C496.355 200.092 496.455 199.784 496.455 199.408V198.796H495.027V197.524H498.063V202H496.455V200.812ZM499.679 202V193.624H505.031V195.1H501.479V197.02H504.911V198.496H501.479V200.524H505.031V202H499.679ZM508.314 196.432H508.182V202H506.646V193.624H508.806L510.714 199.192H510.846V193.624H512.382V202H510.222L508.314 196.432ZM514.069 202V193.624H519.421V195.1H515.869V197.02H519.301V198.496H515.869V200.524H519.421V202H514.069ZM522.993 202H521.217V193.624H524.457C524.865 193.624 525.229 193.688 525.549 193.816C525.869 193.936 526.137 194.112 526.353 194.344C526.577 194.576 526.745 194.856 526.857 195.184C526.969 195.512 527.025 195.88 527.025 196.288C527.025 196.88 526.897 197.388 526.641 197.812C526.385 198.236 526.021 198.516 525.549 198.652L527.193 202H525.225L523.821 198.892H522.993V202ZM524.025 197.5C524.449 197.5 524.741 197.42 524.901 197.26C525.069 197.1 525.153 196.836 525.153 196.468V196.108C525.153 195.74 525.069 195.476 524.901 195.316C524.741 195.156 524.449 195.076 524.025 195.076H522.993V197.5H524.025ZM532.72 202L532.192 199.984H529.9L529.384 202H527.56L529.828 193.624H532.372L534.64 202H532.72ZM531.1 195.364H531.004L530.188 198.532H531.916L531.1 195.364ZM539.195 195.1V202H537.395V195.1H534.983V193.624H541.607V195.1H539.195ZM542.791 202V200.668H544.591V194.956H542.791V193.624H548.191V194.956H546.391V200.668H548.191V202H542.791ZM551.486 196.432H551.354V202H549.818V193.624H551.978L553.886 199.192H554.018V193.624H555.554V202H553.394L551.486 196.432ZM561.213 200.812H561.105C561.033 200.988 560.945 201.156 560.841 201.316C560.737 201.476 560.609 201.62 560.457 201.748C560.305 201.868 560.125 201.964 559.917 202.036C559.717 202.108 559.489 202.144 559.233 202.144C558.825 202.144 558.461 202.048 558.141 201.856C557.829 201.664 557.565 201.384 557.349 201.016C557.133 200.648 556.969 200.2 556.857 199.672C556.753 199.144 556.701 198.548 556.701 197.884C556.701 196.46 556.961 195.372 557.481 194.62C558.001 193.86 558.805 193.48 559.893 193.48C560.325 193.48 560.705 193.54 561.033 193.66C561.361 193.772 561.641 193.936 561.873 194.152C562.113 194.36 562.309 194.612 562.461 194.908C562.613 195.204 562.733 195.532 562.821 195.892L561.141 196.3C561.093 196.124 561.037 195.956 560.973 195.796C560.917 195.628 560.841 195.48 560.745 195.352C560.649 195.224 560.529 195.124 560.385 195.052C560.241 194.972 560.065 194.932 559.857 194.932C559.401 194.932 559.077 195.12 558.885 195.496C558.701 195.872 558.609 196.4 558.609 197.08V198.448C558.609 199.128 558.709 199.672 558.909 200.08C559.117 200.488 559.481 200.692 560.001 200.692C560.409 200.692 560.713 200.572 560.913 200.332C561.113 200.092 561.213 199.784 561.213 199.408V198.796H559.785V197.524H562.821V202H561.213V200.812Z" fill="white"/>
<rect opacity="0.8" x="490" y="492" width="454" height="89" rx="9" transform="rotate(-180 490 492)" fill="white"/>
<path d="M98.198 441L103.004 428.4H104.858L109.646 441H107.972L106.64 437.598H101.15L99.818 441H98.198ZM101.618 436.176H106.172L103.886 430.11L101.618 436.176ZM115.356 431.712C116.472 431.712 117.366 432.048 118.038 432.72C118.722 433.392 119.064 434.448 119.064 435.888V441H117.588V435.978C117.588 435.03 117.372 434.31 116.94 433.818C116.52 433.314 115.908 433.062 115.104 433.062C114.24 433.062 113.562 433.362 113.07 433.962C112.578 434.562 112.332 435.378 112.332 436.41V441H110.856V431.82H112.134L112.332 433.062C113.028 432.162 114.036 431.712 115.356 431.712ZM129.532 439.65V441H128.722C128.134 441 127.714 440.88 127.462 440.64C127.21 440.4 127.078 440.046 127.066 439.578C126.358 440.598 125.332 441.108 123.988 441.108C122.968 441.108 122.146 440.868 121.522 440.388C120.91 439.908 120.604 439.254 120.604 438.426C120.604 437.502 120.916 436.794 121.54 436.302C122.176 435.81 123.094 435.564 124.294 435.564H126.994V434.934C126.994 434.334 126.79 433.866 126.382 433.53C125.986 433.194 125.428 433.026 124.708 433.026C124.072 433.026 123.544 433.17 123.124 433.458C122.716 433.734 122.464 434.106 122.368 434.574H120.892C121 433.674 121.396 432.972 122.08 432.468C122.776 431.964 123.676 431.712 124.78 431.712C125.956 431.712 126.862 432 127.498 432.576C128.146 433.14 128.47 433.956 128.47 435.024V438.984C128.47 439.428 128.674 439.65 129.082 439.65H129.532ZM126.994 436.806H124.15C122.782 436.806 122.098 437.316 122.098 438.336C122.098 438.792 122.278 439.158 122.638 439.434C122.998 439.71 123.484 439.848 124.096 439.848C124.996 439.848 125.704 439.614 126.22 439.146C126.736 438.666 126.994 438.036 126.994 437.256V436.806ZM130.666 428.4H132.142V441H130.666V428.4ZM134.812 431.82L137.638 439.308L140.374 431.82H141.94L137.71 442.548C137.494 443.1 137.302 443.514 137.134 443.79C136.966 444.066 136.756 444.27 136.504 444.402C136.252 444.534 135.916 444.6 135.496 444.6H133.732V443.25H135.046C135.334 443.25 135.55 443.22 135.694 443.16C135.838 443.1 135.952 442.998 136.036 442.854C136.132 442.722 136.246 442.494 136.378 442.17L136.846 441.072L133.246 431.82H134.812ZM142.523 431.82H149.831V432.936L144.251 439.65H150.065V441H142.289V439.884L147.851 433.17H142.523V431.82ZM150.663 436.41C150.663 435.474 150.843 434.652 151.203 433.944C151.575 433.236 152.091 432.69 152.751 432.306C153.411 431.91 154.167 431.712 155.019 431.712C155.859 431.712 156.603 431.886 157.251 432.234C157.899 432.582 158.409 433.086 158.781 433.746C159.153 434.406 159.351 435.18 159.375 436.068C159.375 436.2 159.363 436.41 159.339 436.698H152.211V436.824C152.235 437.724 152.511 438.444 153.039 438.984C153.567 439.524 154.257 439.794 155.109 439.794C155.769 439.794 156.327 439.632 156.783 439.308C157.251 438.972 157.563 438.51 157.719 437.922H159.213C159.033 438.858 158.583 439.626 157.863 440.226C157.143 440.814 156.261 441.108 155.217 441.108C154.305 441.108 153.507 440.916 152.823 440.532C152.139 440.136 151.605 439.584 151.221 438.876C150.849 438.156 150.663 437.334 150.663 436.41ZM157.845 435.474C157.773 434.694 157.479 434.088 156.963 433.656C156.459 433.224 155.817 433.008 155.037 433.008C154.341 433.008 153.729 433.236 153.201 433.692C152.673 434.148 152.373 434.742 152.301 435.474H157.845ZM166.382 433.17H164.726V431.82H166.382V429.246H167.858V431.82H170.18V433.17H167.858V438.588C167.858 438.972 167.93 439.248 168.074 439.416C168.23 439.572 168.494 439.65 168.866 439.65H170.468V441H168.776C167.912 441 167.294 440.808 166.922 440.424C166.562 440.04 166.382 439.434 166.382 438.606V433.17ZM176.018 431.712C177.134 431.712 178.034 432.048 178.718 432.72C179.402 433.392 179.744 434.448 179.744 435.888V441H178.268V435.978C178.268 435.03 178.052 434.31 177.62 433.818C177.188 433.314 176.57 433.062 175.766 433.062C174.914 433.062 174.236 433.362 173.732 433.962C173.24 434.562 172.994 435.378 172.994 436.41V441H171.518V428.4H172.994V433.332C173.294 432.852 173.69 432.462 174.182 432.162C174.686 431.862 175.298 431.712 176.018 431.712ZM182.363 428.274C182.639 428.274 182.867 428.364 183.047 428.544C183.227 428.724 183.317 428.952 183.317 429.228C183.317 429.504 183.227 429.732 183.047 429.912C182.867 430.092 182.639 430.182 182.363 430.182C182.087 430.182 181.859 430.092 181.679 429.912C181.499 429.732 181.409 429.504 181.409 429.228C181.409 428.952 181.499 428.724 181.679 428.544C181.859 428.364 182.087 428.274 182.363 428.274ZM181.625 431.82H183.101V441H181.625V431.82ZM186.275 437.976C186.299 438.528 186.539 438.978 186.995 439.326C187.463 439.674 188.063 439.848 188.795 439.848C189.443 439.848 189.965 439.722 190.361 439.47C190.769 439.206 190.973 438.864 190.973 438.444C190.973 438.084 190.877 437.808 190.685 437.616C190.493 437.424 190.241 437.292 189.929 437.22C189.629 437.148 189.197 437.076 188.633 437.004C187.841 436.908 187.193 436.782 186.689 436.626C186.185 436.47 185.777 436.224 185.465 435.888C185.153 435.54 184.997 435.066 184.997 434.466C184.997 433.926 185.147 433.446 185.447 433.026C185.759 432.606 186.179 432.282 186.707 432.054C187.235 431.814 187.829 431.694 188.489 431.694C189.569 431.694 190.445 431.946 191.117 432.45C191.801 432.954 192.179 433.674 192.251 434.61H190.775C190.715 434.13 190.481 433.734 190.073 433.422C189.665 433.11 189.155 432.954 188.543 432.954C187.919 432.954 187.415 433.086 187.031 433.35C186.647 433.602 186.455 433.938 186.455 434.358C186.455 434.67 186.545 434.91 186.725 435.078C186.905 435.246 187.133 435.36 187.409 435.42C187.697 435.48 188.129 435.546 188.705 435.618C189.509 435.714 190.169 435.846 190.685 436.014C191.213 436.182 191.633 436.452 191.945 436.824C192.269 437.196 192.431 437.7 192.431 438.336C192.431 438.888 192.269 439.374 191.945 439.794C191.621 440.214 191.183 440.538 190.631 440.766C190.079 440.994 189.467 441.108 188.795 441.108C187.595 441.108 186.629 440.832 185.897 440.28C185.177 439.728 184.811 438.96 184.799 437.976H186.275ZM199.969 437.976C199.993 438.528 200.233 438.978 200.689 439.326C201.157 439.674 201.757 439.848 202.489 439.848C203.137 439.848 203.659 439.722 204.055 439.47C204.463 439.206 204.667 438.864 204.667 438.444C204.667 438.084 204.571 437.808 204.379 437.616C204.187 437.424 203.935 437.292 203.623 437.22C203.323 437.148 202.891 437.076 202.327 437.004C201.535 436.908 200.887 436.782 200.383 436.626C199.879 436.47 199.471 436.224 199.159 435.888C198.847 435.54 198.691 435.066 198.691 434.466C198.691 433.926 198.841 433.446 199.141 433.026C199.453 432.606 199.873 432.282 200.401 432.054C200.929 431.814 201.523 431.694 202.183 431.694C203.263 431.694 204.139 431.946 204.811 432.45C205.495 432.954 205.873 433.674 205.945 434.61H204.469C204.409 434.13 204.175 433.734 203.767 433.422C203.359 433.11 202.849 432.954 202.237 432.954C201.613 432.954 201.109 433.086 200.725 433.35C200.341 433.602 200.149 433.938 200.149 434.358C200.149 434.67 200.239 434.91 200.419 435.078C200.599 435.246 200.827 435.36 201.103 435.42C201.391 435.48 201.823 435.546 202.399 435.618C203.203 435.714 203.863 435.846 204.379 436.014C204.907 436.182 205.327 436.452 205.639 436.824C205.963 437.196 206.125 437.7 206.125 438.336C206.125 438.888 205.963 439.374 205.639 439.794C205.315 440.214 204.877 440.538 204.325 440.766C203.773 440.994 203.161 441.108 202.489 441.108C201.289 441.108 200.323 440.832 199.591 440.28C198.871 439.728 198.505 438.96 198.493 437.976H199.969ZM208.537 428.274C208.813 428.274 209.041 428.364 209.221 428.544C209.401 428.724 209.491 428.952 209.491 429.228C209.491 429.504 209.401 429.732 209.221 429.912C209.041 430.092 208.813 430.182 208.537 430.182C208.261 430.182 208.033 430.092 207.853 429.912C207.673 429.732 207.583 429.504 207.583 429.228C207.583 428.952 207.673 428.724 207.853 428.544C208.033 428.364 208.261 428.274 208.537 428.274ZM207.799 431.82H209.275V441H207.799V431.82ZM211.909 433.17H210.253V431.82H211.909V429.246H213.385V431.82H215.707V433.17H213.385V438.588C213.385 438.972 213.457 439.248 213.601 439.416C213.757 439.572 214.021 439.65 214.393 439.65H215.995V441H214.303C213.439 441 212.821 440.808 212.449 440.424C212.089 440.04 211.909 439.434 211.909 438.606V433.17ZM216.493 436.41C216.493 435.474 216.673 434.652 217.033 433.944C217.405 433.236 217.921 432.69 218.581 432.306C219.241 431.91 219.997 431.712 220.849 431.712C221.689 431.712 222.433 431.886 223.081 432.234C223.729 432.582 224.239 433.086 224.611 433.746C224.983 434.406 225.181 435.18 225.205 436.068C225.205 436.2 225.193 436.41 225.169 436.698H218.041V436.824C218.065 437.724 218.341 438.444 218.869 438.984C219.397 439.524 220.087 439.794 220.939 439.794C221.599 439.794 222.157 439.632 222.613 439.308C223.081 438.972 223.393 438.51 223.549 437.922H225.043C224.863 438.858 224.413 439.626 223.693 440.226C222.973 440.814 222.091 441.108 221.047 441.108C220.135 441.108 219.337 440.916 218.653 440.532C217.969 440.136 217.435 439.584 217.051 438.876C216.679 438.156 216.493 437.334 216.493 436.41ZM223.675 435.474C223.603 434.694 223.309 434.088 222.793 433.656C222.289 433.224 221.647 433.008 220.867 433.008C220.171 433.008 219.559 433.236 219.031 433.692C218.503 434.148 218.203 434.742 218.131 435.474H223.675ZM226.729 428.292C227.161 428.292 227.503 428.472 227.755 428.832C228.019 429.18 228.151 429.612 228.151 430.128C228.151 430.896 227.923 431.496 227.467 431.928C227.023 432.36 226.405 432.588 225.613 432.612V431.766C226.141 431.754 226.525 431.604 226.765 431.316C227.005 431.028 227.125 430.698 227.125 430.326C227.125 430.218 227.119 430.14 227.107 430.092C226.963 430.236 226.759 430.308 226.495 430.308C226.207 430.308 225.973 430.224 225.793 430.056C225.625 429.888 225.541 429.648 225.541 429.336C225.541 429.036 225.643 428.79 225.847 428.598C226.063 428.394 226.357 428.292 226.729 428.292ZM230.607 437.976C230.631 438.528 230.871 438.978 231.327 439.326C231.795 439.674 232.395 439.848 233.127 439.848C233.775 439.848 234.297 439.722 234.693 439.47C235.101 439.206 235.305 438.864 235.305 438.444C235.305 438.084 235.209 437.808 235.017 437.616C234.825 437.424 234.573 437.292 234.261 437.22C233.961 437.148 233.529 437.076 232.965 437.004C232.173 436.908 231.525 436.782 231.021 436.626C230.517 436.47 230.109 436.224 229.797 435.888C229.485 435.54 229.329 435.066 229.329 434.466C229.329 433.926 229.479 433.446 229.779 433.026C230.091 432.606 230.511 432.282 231.039 432.054C231.567 431.814 232.161 431.694 232.821 431.694C233.901 431.694 234.777 431.946 235.449 432.45C236.133 432.954 236.511 433.674 236.583 434.61H235.107C235.047 434.13 234.813 433.734 234.405 433.422C233.997 433.11 233.487 432.954 232.875 432.954C232.251 432.954 231.747 433.086 231.363 433.35C230.979 433.602 230.787 433.938 230.787 434.358C230.787 434.67 230.877 434.91 231.057 435.078C231.237 435.246 231.465 435.36 231.741 435.42C232.029 435.48 232.461 435.546 233.037 435.618C233.841 435.714 234.501 435.846 235.017 436.014C235.545 436.182 235.965 436.452 236.277 436.824C236.601 437.196 236.763 437.7 236.763 438.336C236.763 438.888 236.601 439.374 236.277 439.794C235.953 440.214 235.515 440.538 234.963 440.766C234.411 440.994 233.799 441.108 233.127 441.108C231.927 441.108 230.961 440.832 230.229 440.28C229.509 439.728 229.143 438.96 229.131 437.976H230.607ZM251.861 428.4V441H250.583L250.385 439.524C249.617 440.58 248.567 441.108 247.235 441.108C246.383 441.108 245.621 440.922 244.949 440.55C244.289 440.178 243.767 439.638 243.383 438.93C243.011 438.222 242.825 437.382 242.825 436.41C242.825 435.486 243.011 434.67 243.383 433.962C243.767 433.254 244.295 432.702 244.967 432.306C245.639 431.91 246.395 431.712 247.235 431.712C247.979 431.712 248.615 431.85 249.143 432.126C249.671 432.39 250.085 432.756 250.385 433.224V428.4H251.861ZM247.379 439.794C247.967 439.794 248.489 439.656 248.945 439.38C249.413 439.092 249.773 438.696 250.025 438.192C250.277 437.676 250.403 437.094 250.403 436.446C250.403 435.786 250.277 435.198 250.025 434.682C249.773 434.154 249.413 433.746 248.945 433.458C248.489 433.17 247.967 433.026 247.379 433.026C246.467 433.026 245.729 433.344 245.165 433.98C244.613 434.604 244.337 435.414 244.337 436.41C244.337 437.406 244.613 438.222 245.165 438.858C245.729 439.482 246.467 439.794 247.379 439.794ZM253.547 436.41C253.547 435.474 253.727 434.652 254.087 433.944C254.459 433.236 254.975 432.69 255.635 432.306C256.295 431.91 257.051 431.712 257.903 431.712C258.743 431.712 259.487 431.886 260.135 432.234C260.783 432.582 261.293 433.086 261.665 433.746C262.037 434.406 262.235 435.18 262.259 436.068C262.259 436.2 262.247 436.41 262.223 436.698H255.095V436.824C255.119 437.724 255.395 438.444 255.923 438.984C256.451 439.524 257.141 439.794 257.993 439.794C258.653 439.794 259.211 439.632 259.667 439.308C260.135 438.972 260.447 438.51 260.603 437.922H262.097C261.917 438.858 261.467 439.626 260.747 440.226C260.027 440.814 259.145 441.108 258.101 441.108C257.189 441.108 256.391 440.916 255.707 440.532C255.023 440.136 254.489 439.584 254.105 438.876C253.733 438.156 253.547 437.334 253.547 436.41ZM260.729 435.474C260.657 434.694 260.363 434.088 259.847 433.656C259.343 433.224 258.701 433.008 257.921 433.008C257.225 433.008 256.613 433.236 256.085 433.692C255.557 434.148 255.257 434.742 255.185 435.474H260.729ZM274.186 431.712C275.218 431.712 276.052 432.036 276.688 432.684C277.336 433.332 277.66 434.34 277.66 435.708V441H276.184V435.798C276.184 434.91 275.992 434.232 275.608 433.764C275.236 433.296 274.702 433.062 274.006 433.062C273.238 433.062 272.632 433.332 272.188 433.872C271.756 434.412 271.54 435.15 271.54 436.086V441H270.064V435.798C270.064 434.91 269.872 434.232 269.488 433.764C269.104 433.296 268.558 433.062 267.85 433.062C267.106 433.062 266.512 433.35 266.068 433.926C265.636 434.49 265.42 435.234 265.42 436.158V441H263.944V431.82H265.222L265.42 433.08C266.08 432.168 266.974 431.712 268.102 431.712C268.762 431.712 269.344 431.862 269.848 432.162C270.364 432.45 270.748 432.882 271 433.458C271.66 432.294 272.722 431.712 274.186 431.712ZM283.783 441.108C282.895 441.108 282.103 440.91 281.407 440.514C280.723 440.118 280.189 439.566 279.805 438.858C279.421 438.15 279.229 437.334 279.229 436.41C279.229 435.486 279.421 434.67 279.805 433.962C280.189 433.254 280.723 432.702 281.407 432.306C282.103 431.91 282.895 431.712 283.783 431.712C284.671 431.712 285.457 431.91 286.141 432.306C286.837 432.702 287.377 433.254 287.761 433.962C288.145 434.67 288.337 435.486 288.337 436.41C288.337 437.334 288.145 438.15 287.761 438.858C287.377 439.566 286.837 440.118 286.141 440.514C285.457 440.91 284.671 441.108 283.783 441.108ZM283.783 439.794C284.383 439.794 284.911 439.65 285.367 439.362C285.835 439.074 286.195 438.672 286.447 438.156C286.699 437.64 286.825 437.058 286.825 436.41C286.825 435.762 286.699 435.18 286.447 434.664C286.195 434.148 285.835 433.746 285.367 433.458C284.911 433.17 284.383 433.026 283.783 433.026C283.183 433.026 282.649 433.17 282.181 433.458C281.725 433.746 281.371 434.148 281.119 434.664C280.867 435.18 280.741 435.762 280.741 436.41C280.741 437.058 280.867 437.64 281.119 438.156C281.371 438.672 281.725 439.074 282.181 439.362C282.649 439.65 283.183 439.794 283.783 439.794ZM298.741 431.82V440.55C298.741 443.322 297.223 444.708 294.187 444.708C292.999 444.708 292.027 444.438 291.271 443.898C290.527 443.358 290.095 442.59 289.975 441.594H291.487C291.607 442.17 291.913 442.614 292.405 442.926C292.897 443.238 293.527 443.394 294.295 443.394C296.275 443.394 297.265 442.428 297.265 440.496V439.416C296.605 440.544 295.555 441.108 294.115 441.108C293.263 441.108 292.501 440.922 291.829 440.55C291.169 440.178 290.647 439.638 290.263 438.93C289.891 438.222 289.705 437.382 289.705 436.41C289.705 435.486 289.891 434.67 290.263 433.962C290.647 433.254 291.175 432.702 291.847 432.306C292.519 431.91 293.275 431.712 294.115 431.712C294.859 431.712 295.495 431.862 296.023 432.162C296.551 432.45 296.965 432.864 297.265 433.404L297.463 431.82H298.741ZM294.259 439.794C294.847 439.794 295.369 439.656 295.825 439.38C296.293 439.092 296.653 438.696 296.905 438.192C297.157 437.676 297.283 437.094 297.283 436.446C297.283 435.786 297.157 435.198 296.905 434.682C296.653 434.154 296.293 433.746 295.825 433.458C295.369 433.17 294.847 433.026 294.259 433.026C293.347 433.026 292.609 433.344 292.045 433.98C291.493 434.604 291.217 435.414 291.217 436.41C291.217 437.406 291.493 438.222 292.045 438.858C292.609 439.482 293.347 439.794 294.259 439.794ZM305.414 431.82V433.26H304.676C303.8 433.26 303.17 433.554 302.786 434.142C302.414 434.73 302.228 435.456 302.228 436.32V441H300.752V431.82H302.03L302.228 433.206C302.492 432.786 302.834 432.45 303.254 432.198C303.674 431.946 304.256 431.82 305 431.82H305.414ZM314.91 439.65V441H314.1C313.512 441 313.092 440.88 312.84 440.64C312.588 440.4 312.456 440.046 312.444 439.578C311.736 440.598 310.71 441.108 309.366 441.108C308.346 441.108 307.524 440.868 306.9 440.388C306.288 439.908 305.982 439.254 305.982 438.426C305.982 437.502 306.294 436.794 306.918 436.302C307.554 435.81 308.472 435.564 309.672 435.564H312.372V434.934C312.372 434.334 312.168 433.866 311.76 433.53C311.364 433.194 310.806 433.026 310.086 433.026C309.45 433.026 308.922 433.17 308.502 433.458C308.094 433.734 307.842 434.106 307.746 434.574H306.27C306.378 433.674 306.774 432.972 307.458 432.468C308.154 431.964 309.054 431.712 310.158 431.712C311.334 431.712 312.24 432 312.876 432.576C313.524 433.14 313.848 433.956 313.848 435.024V438.984C313.848 439.428 314.052 439.65 314.46 439.65H314.91ZM312.372 436.806H309.528C308.16 436.806 307.476 437.316 307.476 438.336C307.476 438.792 307.656 439.158 308.016 439.434C308.376 439.71 308.862 439.848 309.474 439.848C310.374 439.848 311.082 439.614 311.598 439.146C312.114 438.666 312.372 438.036 312.372 437.256V436.806ZM320.671 431.712C321.523 431.712 322.279 431.898 322.939 432.27C323.611 432.642 324.133 433.182 324.505 433.89C324.889 434.598 325.081 435.438 325.081 436.41C325.081 437.334 324.889 438.15 324.505 438.858C324.133 439.566 323.611 440.118 322.939 440.514C322.267 440.91 321.511 441.108 320.671 441.108C319.927 441.108 319.291 440.976 318.763 440.712C318.235 440.436 317.821 440.064 317.521 439.596V444.6H316.045V431.82H317.323L317.521 433.296C318.289 432.24 319.339 431.712 320.671 431.712ZM320.527 439.794C321.439 439.794 322.171 439.482 322.723 438.858C323.287 438.222 323.569 437.406 323.569 436.41C323.569 435.414 323.287 434.604 322.723 433.98C322.171 433.344 321.439 433.026 320.527 433.026C319.939 433.026 319.411 433.17 318.943 433.458C318.487 433.734 318.133 434.13 317.881 434.646C317.629 435.15 317.503 435.726 317.503 436.374C317.503 437.034 317.629 437.628 317.881 438.156C318.133 438.672 318.487 439.074 318.943 439.362C319.411 439.65 319.939 439.794 320.527 439.794ZM331.268 431.712C332.384 431.712 333.284 432.048 333.968 432.72C334.652 433.392 334.994 434.448 334.994 435.888V441H333.518V435.978C333.518 435.03 333.302 434.31 332.87 433.818C332.438 433.314 331.82 433.062 331.016 433.062C330.164 433.062 329.486 433.362 328.982 433.962C328.49 434.562 328.244 435.378 328.244 436.41V441H326.768V428.4H328.244V433.332C328.544 432.852 328.94 432.462 329.432 432.162C329.936 431.862 330.548 431.712 331.268 431.712ZM337.613 428.274C337.889 428.274 338.117 428.364 338.297 428.544C338.477 428.724 338.567 428.952 338.567 429.228C338.567 429.504 338.477 429.732 338.297 429.912C338.117 430.092 337.889 430.182 337.613 430.182C337.337 430.182 337.109 430.092 336.929 429.912C336.749 429.732 336.659 429.504 336.659 429.228C336.659 428.952 336.749 428.724 336.929 428.544C337.109 428.364 337.337 428.274 337.613 428.274ZM336.875 431.82H338.351V441H336.875V431.82ZM348.563 437.832C348.371 438.852 347.921 439.656 347.213 440.244C346.505 440.82 345.605 441.108 344.513 441.108C343.625 441.108 342.845 440.91 342.173 440.514C341.501 440.118 340.979 439.566 340.607 438.858C340.235 438.138 340.049 437.316 340.049 436.392C340.049 435.468 340.235 434.652 340.607 433.944C340.991 433.236 341.525 432.69 342.209 432.306C342.893 431.91 343.679 431.712 344.567 431.712C345.647 431.712 346.535 432 347.231 432.576C347.939 433.152 348.383 433.944 348.563 434.952H347.069C346.925 434.364 346.625 433.896 346.169 433.548C345.713 433.2 345.161 433.026 344.513 433.026C343.637 433.026 342.923 433.338 342.371 433.962C341.831 434.586 341.561 435.396 341.561 436.392C341.561 437.4 341.831 438.222 342.371 438.858C342.923 439.482 343.637 439.794 344.513 439.794C345.185 439.794 345.749 439.62 346.205 439.272C346.661 438.924 346.955 438.444 347.087 437.832H348.563ZM351.422 437.976C351.446 438.528 351.686 438.978 352.142 439.326C352.61 439.674 353.21 439.848 353.942 439.848C354.59 439.848 355.112 439.722 355.508 439.47C355.916 439.206 356.12 438.864 356.12 438.444C356.12 438.084 356.024 437.808 355.832 437.616C355.64 437.424 355.388 437.292 355.076 437.22C354.776 437.148 354.344 437.076 353.78 437.004C352.988 436.908 352.34 436.782 351.836 436.626C351.332 436.47 350.924 436.224 350.612 435.888C350.3 435.54 350.144 435.066 350.144 434.466C350.144 433.926 350.294 433.446 350.594 433.026C350.906 432.606 351.326 432.282 351.854 432.054C352.382 431.814 352.976 431.694 353.636 431.694C354.716 431.694 355.592 431.946 356.264 432.45C356.948 432.954 357.326 433.674 357.398 434.61H355.922C355.862 434.13 355.628 433.734 355.22 433.422C354.812 433.11 354.302 432.954 353.69 432.954C353.066 432.954 352.562 433.086 352.178 433.35C351.794 433.602 351.602 433.938 351.602 434.358C351.602 434.67 351.692 434.91 351.872 435.078C352.052 435.246 352.28 435.36 352.556 435.42C352.844 435.48 353.276 435.546 353.852 435.618C354.656 435.714 355.316 435.846 355.832 436.014C356.36 436.182 356.78 436.452 357.092 436.824C357.416 437.196 357.578 437.7 357.578 438.336C357.578 438.888 357.416 439.374 357.092 439.794C356.768 440.214 356.33 440.538 355.778 440.766C355.226 440.994 354.614 441.108 353.942 441.108C352.742 441.108 351.776 440.832 351.044 440.28C350.324 439.728 349.958 438.96 349.946 437.976H351.422ZM359.778 439.11C360.21 439.11 360.552 439.29 360.804 439.65C361.068 439.998 361.2 440.43 361.2 440.946C361.2 441.714 360.972 442.314 360.516 442.746C360.072 443.178 359.454 443.406 358.662 443.43V442.584C359.19 442.572 359.574 442.422 359.814 442.134C360.054 441.846 360.174 441.516 360.174 441.144C360.174 441.036 360.168 440.958 360.156 440.91C360.012 441.054 359.808 441.126 359.544 441.126C359.268 441.126 359.04 441.042 358.86 440.874C358.68 440.706 358.59 440.466 358.59 440.154C358.59 439.854 358.692 439.608 358.896 439.416C359.112 439.212 359.406 439.11 359.778 439.11ZM375.721 437.832C375.529 438.852 375.079 439.656 374.371 440.244C373.663 440.82 372.763 441.108 371.671 441.108C370.783 441.108 370.003 440.91 369.331 440.514C368.659 440.118 368.137 439.566 367.765 438.858C367.393 438.138 367.207 437.316 367.207 436.392C367.207 435.468 367.393 434.652 367.765 433.944C368.149 433.236 368.683 432.69 369.367 432.306C370.051 431.91 370.837 431.712 371.725 431.712C372.805 431.712 373.693 432 374.389 432.576C375.097 433.152 375.541 433.944 375.721 434.952H374.227C374.083 434.364 373.783 433.896 373.327 433.548C372.871 433.2 372.319 433.026 371.671 433.026C370.795 433.026 370.081 433.338 369.529 433.962C368.989 434.586 368.719 435.396 368.719 436.392C368.719 437.4 368.989 438.222 369.529 438.858C370.081 439.482 370.795 439.794 371.671 439.794C372.343 439.794 372.907 439.62 373.363 439.272C373.819 438.924 374.113 438.444 374.245 437.832H375.721ZM381.465 441.108C380.577 441.108 379.785 440.91 379.089 440.514C378.405 440.118 377.871 439.566 377.487 438.858C377.103 438.15 376.911 437.334 376.911 436.41C376.911 435.486 377.103 434.67 377.487 433.962C377.871 433.254 378.405 432.702 379.089 432.306C379.785 431.91 380.577 431.712 381.465 431.712C382.353 431.712 383.139 431.91 383.823 432.306C384.519 432.702 385.059 433.254 385.443 433.962C385.827 434.67 386.019 435.486 386.019 436.41C386.019 437.334 385.827 438.15 385.443 438.858C385.059 439.566 384.519 440.118 383.823 440.514C383.139 440.91 382.353 441.108 381.465 441.108ZM381.465 439.794C382.065 439.794 382.593 439.65 383.049 439.362C383.517 439.074 383.877 438.672 384.129 438.156C384.381 437.64 384.507 437.058 384.507 436.41C384.507 435.762 384.381 435.18 384.129 434.664C383.877 434.148 383.517 433.746 383.049 433.458C382.593 433.17 382.065 433.026 381.465 433.026C380.865 433.026 380.331 433.17 379.863 433.458C379.407 433.746 379.053 434.148 378.801 434.664C378.549 435.18 378.423 435.762 378.423 436.41C378.423 437.058 378.549 437.64 378.801 438.156C379.053 438.672 379.407 439.074 379.863 439.362C380.331 439.65 380.865 439.794 381.465 439.794ZM397.953 431.712C398.985 431.712 399.819 432.036 400.455 432.684C401.103 433.332 401.427 434.34 401.427 435.708V441H399.951V435.798C399.951 434.91 399.759 434.232 399.375 433.764C399.003 433.296 398.469 433.062 397.773 433.062C397.005 433.062 396.399 433.332 395.955 433.872C395.523 434.412 395.307 435.15 395.307 436.086V441H393.831V435.798C393.831 434.91 393.639 434.232 393.255 433.764C392.871 433.296 392.325 433.062 391.617 433.062C390.873 433.062 390.279 433.35 389.835 433.926C389.403 434.49 389.187 435.234 389.187 436.158V441H387.711V431.82H388.989L389.187 433.08C389.847 432.168 390.741 431.712 391.869 431.712C392.529 431.712 393.111 431.862 393.615 432.162C394.131 432.45 394.515 432.882 394.767 433.458C395.427 432.294 396.489 431.712 397.953 431.712ZM407.947 431.712C408.799 431.712 409.555 431.898 410.215 432.27C410.887 432.642 411.409 433.182 411.781 433.89C412.165 434.598 412.357 435.438 412.357 436.41C412.357 437.334 412.165 438.15 411.781 438.858C411.409 439.566 410.887 440.118 410.215 440.514C409.543 440.91 408.787 441.108 407.947 441.108C407.203 441.108 406.567 440.976 406.039 440.712C405.511 440.436 405.097 440.064 404.797 439.596V444.6H403.321V431.82H404.599L404.797 433.296C405.565 432.24 406.615 431.712 407.947 431.712ZM407.803 439.794C408.715 439.794 409.447 439.482 409.999 438.858C410.563 438.222 410.845 437.406 410.845 436.41C410.845 435.414 410.563 434.604 409.999 433.98C409.447 433.344 408.715 433.026 407.803 433.026C407.215 433.026 406.687 433.17 406.219 433.458C405.763 433.734 405.409 434.13 405.157 434.646C404.905 435.15 404.779 435.726 404.779 436.374C404.779 437.034 404.905 437.628 405.157 438.156C405.409 438.672 405.763 439.074 406.219 439.362C406.687 439.65 407.215 439.794 407.803 439.794ZM422.629 439.65V441H421.819C421.231 441 420.811 440.88 420.559 440.64C420.307 440.4 420.175 440.046 420.163 439.578C419.455 440.598 418.429 441.108 417.085 441.108C416.065 441.108 415.243 440.868 414.619 440.388C414.007 439.908 413.701 439.254 413.701 438.426C413.701 437.502 414.013 436.794 414.637 436.302C415.273 435.81 416.191 435.564 417.391 435.564H420.091V434.934C420.091 434.334 419.887 433.866 419.479 433.53C419.083 433.194 418.525 433.026 417.805 433.026C417.169 433.026 416.641 433.17 416.221 433.458C415.813 433.734 415.561 434.106 415.465 434.574H413.989C414.097 433.674 414.493 432.972 415.177 432.468C415.873 431.964 416.773 431.712 417.877 431.712C419.053 431.712 419.959 432 420.595 432.576C421.243 433.14 421.567 433.956 421.567 435.024V438.984C421.567 439.428 421.771 439.65 422.179 439.65H422.629ZM420.091 436.806H417.247C415.879 436.806 415.195 437.316 415.195 438.336C415.195 438.792 415.375 439.158 415.735 439.434C416.095 439.71 416.581 439.848 417.193 439.848C418.093 439.848 418.801 439.614 419.317 439.146C419.833 438.666 420.091 438.036 420.091 437.256V436.806ZM428.426 431.82V433.26H427.688C426.812 433.26 426.182 433.554 425.798 434.142C425.426 434.73 425.24 435.456 425.24 436.32V441H423.764V431.82H425.042L425.24 433.206C425.504 432.786 425.846 432.45 426.266 432.198C426.686 431.946 427.268 431.82 428.012 431.82H428.426ZM437.922 439.65V441H437.112C436.524 441 436.104 440.88 435.852 440.64C435.6 440.4 435.468 440.046 435.456 439.578C434.748 440.598 433.722 441.108 432.378 441.108C431.358 441.108 430.536 440.868 429.912 440.388C429.3 439.908 428.994 439.254 428.994 438.426C428.994 437.502 429.306 436.794 429.93 436.302C430.566 435.81 431.484 435.564 432.684 435.564H435.384V434.934C435.384 434.334 435.18 433.866 434.772 433.53C434.376 433.194 433.818 433.026 433.098 433.026C432.462 433.026 431.934 433.17 431.514 433.458C431.106 433.734 430.854 434.106 430.758 434.574H429.282C429.39 433.674 429.786 432.972 430.47 432.468C431.166 431.964 432.066 431.712 433.17 431.712C434.346 431.712 435.252 432 435.888 432.576C436.536 433.14 436.86 433.956 436.86 435.024V438.984C436.86 439.428 437.064 439.65 437.472 439.65H437.922ZM435.384 436.806H432.54C431.172 436.806 430.488 437.316 430.488 438.336C430.488 438.792 430.668 439.158 431.028 439.434C431.388 439.71 431.874 439.848 432.486 439.848C433.386 439.848 434.094 439.614 434.61 439.146C435.126 438.666 435.384 438.036 435.384 437.256V436.806ZM443.683 431.712C444.535 431.712 445.291 431.898 445.951 432.27C446.623 432.642 447.145 433.182 447.517 433.89C447.901 434.598 448.093 435.438 448.093 436.41C448.093 437.334 447.901 438.15 447.517 438.858C447.145 439.566 446.623 440.118 445.951 440.514C445.279 440.91 444.523 441.108 443.683 441.108C442.939 441.108 442.303 440.976 441.775 440.712C441.247 440.436 440.833 440.064 440.533 439.596L440.335 441H439.057V428.4H440.533V433.296C441.301 432.24 442.351 431.712 443.683 431.712ZM443.539 439.794C444.451 439.794 445.183 439.482 445.735 438.858C446.299 438.222 446.581 437.406 446.581 436.41C446.581 435.414 446.299 434.604 445.735 433.98C445.183 433.344 444.451 433.026 443.539 433.026C442.951 433.026 442.423 433.17 441.955 433.458C441.499 433.734 441.145 434.13 440.893 434.646C440.641 435.15 440.515 435.726 440.515 436.374C440.515 437.034 440.641 437.628 440.893 438.156C441.145 438.672 441.499 439.074 441.955 439.362C442.423 439.65 442.951 439.794 443.539 439.794ZM449.779 428.4H451.255V441H449.779V428.4ZM452.954 436.41C452.954 435.474 453.134 434.652 453.494 433.944C453.866 433.236 454.382 432.69 455.042 432.306C455.702 431.91 456.458 431.712 457.31 431.712C458.15 431.712 458.894 431.886 459.542 432.234C460.19 432.582 460.7 433.086 461.072 433.746C461.444 434.406 461.642 435.18 461.666 436.068C461.666 436.2 461.654 436.41 461.63 436.698H454.502V436.824C454.526 437.724 454.802 438.444 455.33 438.984C455.858 439.524 456.548 439.794 457.4 439.794C458.06 439.794 458.618 439.632 459.074 439.308C459.542 438.972 459.854 438.51 460.01 437.922H461.504C461.324 438.858 460.874 439.626 460.154 440.226C459.434 440.814 458.552 441.108 457.508 441.108C456.596 441.108 455.798 440.916 455.114 440.532C454.43 440.136 453.896 439.584 453.512 438.876C453.14 438.156 452.954 437.334 452.954 436.41ZM460.136 435.474C460.064 434.694 459.77 434.088 459.254 433.656C458.75 433.224 458.108 433.008 457.328 433.008C456.632 433.008 456.02 433.236 455.492 433.692C454.964 434.148 454.664 434.742 454.592 435.474H460.136ZM464.467 437.976C464.491 438.528 464.731 438.978 465.187 439.326C465.655 439.674 466.255 439.848 466.987 439.848C467.635 439.848 468.157 439.722 468.553 439.47C468.961 439.206 469.165 438.864 469.165 438.444C469.165 438.084 469.069 437.808 468.877 437.616C468.685 437.424 468.433 437.292 468.121 437.22C467.821 437.148 467.389 437.076 466.825 437.004C466.033 436.908 465.385 436.782 464.881 436.626C464.377 436.47 463.969 436.224 463.657 435.888C463.345 435.54 463.189 435.066 463.189 434.466C463.189 433.926 463.339 433.446 463.639 433.026C463.951 432.606 464.371 432.282 464.899 432.054C465.427 431.814 466.021 431.694 466.681 431.694C467.761 431.694 468.637 431.946 469.309 432.45C469.993 432.954 470.371 433.674 470.443 434.61H468.967C468.907 434.13 468.673 433.734 468.265 433.422C467.857 433.11 467.347 432.954 466.735 432.954C466.111 432.954 465.607 433.086 465.223 433.35C464.839 433.602 464.647 433.938 464.647 434.358C464.647 434.67 464.737 434.91 464.917 435.078C465.097 435.246 465.325 435.36 465.601 435.42C465.889 435.48 466.321 435.546 466.897 435.618C467.701 435.714 468.361 435.846 468.877 436.014C469.405 436.182 469.825 436.452 470.137 436.824C470.461 437.196 470.623 437.7 470.623 438.336C470.623 438.888 470.461 439.374 470.137 439.794C469.813 440.214 469.375 440.538 468.823 440.766C468.271 440.994 467.659 441.108 466.987 441.108C465.787 441.108 464.821 440.832 464.089 440.28C463.369 439.728 463.003 438.96 462.991 437.976H464.467ZM472.822 439.11C473.254 439.11 473.596 439.29 473.848 439.65C474.112 439.998 474.244 440.43 474.244 440.946C474.244 441.714 474.016 442.314 473.56 442.746C473.116 443.178 472.498 443.406 471.706 443.43V442.584C472.234 442.572 472.618 442.422 472.858 442.134C473.098 441.846 473.218 441.516 473.218 441.144C473.218 441.036 473.212 440.958 473.2 440.91C473.056 441.054 472.852 441.126 472.588 441.126C472.312 441.126 472.084 441.042 471.904 440.874C471.724 440.706 471.634 440.466 471.634 440.154C471.634 439.854 471.736 439.608 471.94 439.416C472.156 439.212 472.45 439.11 472.822 439.11ZM107.594 462.65V464H106.784C106.196 464 105.776 463.88 105.524 463.64C105.272 463.4 105.14 463.046 105.128 462.578C104.42 463.598 103.394 464.108 102.05 464.108C101.03 464.108 100.208 463.868 99.584 463.388C98.972 462.908 98.666 462.254 98.666 461.426C98.666 460.502 98.978 459.794 99.602 459.302C100.238 458.81 101.156 458.564 102.356 458.564H105.056V457.934C105.056 457.334 104.852 456.866 104.444 456.53C104.048 456.194 103.49 456.026 102.77 456.026C102.134 456.026 101.606 456.17 101.186 456.458C100.778 456.734 100.526 457.106 100.43 457.574H98.954C99.062 456.674 99.458 455.972 100.142 455.468C100.838 454.964 101.738 454.712 102.842 454.712C104.018 454.712 104.924 455 105.56 455.576C106.208 456.14 106.532 456.956 106.532 458.024V461.984C106.532 462.428 106.736 462.65 107.144 462.65H107.594ZM105.056 459.806H102.212C100.844 459.806 100.16 460.316 100.16 461.336C100.16 461.792 100.34 462.158 100.7 462.434C101.06 462.71 101.546 462.848 102.158 462.848C103.058 462.848 103.766 462.614 104.282 462.146C104.798 461.666 105.056 461.036 105.056 460.256V459.806ZM113.229 454.712C114.345 454.712 115.239 455.048 115.911 455.72C116.595 456.392 116.937 457.448 116.937 458.888V464H115.461V458.978C115.461 458.03 115.245 457.31 114.813 456.818C114.393 456.314 113.781 456.062 112.977 456.062C112.113 456.062 111.435 456.362 110.943 456.962C110.451 457.562 110.205 458.378 110.205 459.41V464H108.729V454.82H110.007L110.205 456.062C110.901 455.162 111.909 454.712 113.229 454.712ZM127.531 451.4V464H126.253L126.055 462.524C125.287 463.58 124.237 464.108 122.905 464.108C122.053 464.108 121.291 463.922 120.619 463.55C119.959 463.178 119.437 462.638 119.053 461.93C118.681 461.222 118.495 460.382 118.495 459.41C118.495 458.486 118.681 457.67 119.053 456.962C119.437 456.254 119.965 455.702 120.637 455.306C121.309 454.91 122.065 454.712 122.905 454.712C123.649 454.712 124.285 454.85 124.813 455.126C125.341 455.39 125.755 455.756 126.055 456.224V451.4H127.531ZM123.049 462.794C123.637 462.794 124.159 462.656 124.615 462.38C125.083 462.092 125.443 461.696 125.695 461.192C125.947 460.676 126.073 460.094 126.073 459.446C126.073 458.786 125.947 458.198 125.695 457.682C125.443 457.154 125.083 456.746 124.615 456.458C124.159 456.17 123.637 456.026 123.049 456.026C122.137 456.026 121.399 456.344 120.835 456.98C120.283 457.604 120.007 458.414 120.007 459.41C120.007 460.406 120.283 461.222 120.835 461.858C121.399 462.482 122.137 462.794 123.049 462.794ZM133.874 454.82H141.182V455.936L135.602 462.65H141.416V464H133.64V462.884L139.202 456.17H133.874V454.82ZM146.568 464.108C145.68 464.108 144.888 463.91 144.192 463.514C143.508 463.118 142.974 462.566 142.59 461.858C142.206 461.15 142.014 460.334 142.014 459.41C142.014 458.486 142.206 457.67 142.59 456.962C142.974 456.254 143.508 455.702 144.192 455.306C144.888 454.91 145.68 454.712 146.568 454.712C147.456 454.712 148.242 454.91 148.926 455.306C149.622 455.702 150.162 456.254 150.546 456.962C150.93 457.67 151.122 458.486 151.122 459.41C151.122 460.334 150.93 461.15 150.546 461.858C150.162 462.566 149.622 463.118 148.926 463.514C148.242 463.91 147.456 464.108 146.568 464.108ZM146.568 462.794C147.168 462.794 147.696 462.65 148.152 462.362C148.62 462.074 148.98 461.672 149.232 461.156C149.484 460.64 149.61 460.058 149.61 459.41C149.61 458.762 149.484 458.18 149.232 457.664C148.98 457.148 148.62 456.746 148.152 456.458C147.696 456.17 147.168 456.026 146.568 456.026C145.968 456.026 145.434 456.17 144.966 456.458C144.51 456.746 144.156 457.148 143.904 457.664C143.652 458.18 143.526 458.762 143.526 459.41C143.526 460.058 143.652 460.64 143.904 461.156C144.156 461.672 144.51 462.074 144.966 462.362C145.434 462.65 145.968 462.794 146.568 462.794ZM157.315 454.712C158.431 454.712 159.325 455.048 159.997 455.72C160.681 456.392 161.023 457.448 161.023 458.888V464H159.547V458.978C159.547 458.03 159.331 457.31 158.899 456.818C158.479 456.314 157.867 456.062 157.063 456.062C156.199 456.062 155.521 456.362 155.029 456.962C154.537 457.562 154.291 458.378 154.291 459.41V464H152.815V454.82H154.093L154.291 456.062C154.987 455.162 155.995 454.712 157.315 454.712ZM163.642 451.274C163.918 451.274 164.146 451.364 164.326 451.544C164.506 451.724 164.596 451.952 164.596 452.228C164.596 452.504 164.506 452.732 164.326 452.912C164.146 453.092 163.918 453.182 163.642 453.182C163.366 453.182 163.138 453.092 162.958 452.912C162.778 452.732 162.688 452.504 162.688 452.228C162.688 451.952 162.778 451.724 162.958 451.544C163.138 451.364 163.366 451.274 163.642 451.274ZM162.904 454.82H164.38V464H162.904V454.82ZM170.903 454.712C172.019 454.712 172.913 455.048 173.585 455.72C174.269 456.392 174.611 457.448 174.611 458.888V464H173.135V458.978C173.135 458.03 172.919 457.31 172.487 456.818C172.067 456.314 171.455 456.062 170.651 456.062C169.787 456.062 169.109 456.362 168.617 456.962C168.125 457.562 167.879 458.378 167.879 459.41V464H166.403V454.82H167.681L167.879 456.062C168.575 455.162 169.583 454.712 170.903 454.712ZM185.204 454.82V463.55C185.204 466.322 183.686 467.708 180.65 467.708C179.462 467.708 178.49 467.438 177.734 466.898C176.99 466.358 176.558 465.59 176.438 464.594H177.95C178.07 465.17 178.376 465.614 178.868 465.926C179.36 466.238 179.99 466.394 180.758 466.394C182.738 466.394 183.728 465.428 183.728 463.496V462.416C183.068 463.544 182.018 464.108 180.578 464.108C179.726 464.108 178.964 463.922 178.292 463.55C177.632 463.178 177.11 462.638 176.726 461.93C176.354 461.222 176.168 460.382 176.168 459.41C176.168 458.486 176.354 457.67 176.726 456.962C177.11 456.254 177.638 455.702 178.31 455.306C178.982 454.91 179.738 454.712 180.578 454.712C181.322 454.712 181.958 454.862 182.486 455.162C183.014 455.45 183.428 455.864 183.728 456.404L183.926 454.82H185.204ZM180.722 462.794C181.31 462.794 181.832 462.656 182.288 462.38C182.756 462.092 183.116 461.696 183.368 461.192C183.62 460.676 183.746 460.094 183.746 459.446C183.746 458.786 183.62 458.198 183.368 457.682C183.116 457.154 182.756 456.746 182.288 456.458C181.832 456.17 181.31 456.026 180.722 456.026C179.81 456.026 179.072 456.344 178.508 456.98C177.956 457.604 177.68 458.414 177.68 459.41C177.68 460.406 177.956 461.222 178.508 461.858C179.072 462.482 179.81 462.794 180.722 462.794ZM192.538 456.17H190.882V454.82H192.538V452.246H194.014V454.82H196.336V456.17H194.014V461.588C194.014 461.972 194.086 462.248 194.23 462.416C194.386 462.572 194.65 462.65 195.022 462.65H196.624V464H194.932C194.068 464 193.45 463.808 193.078 463.424C192.718 463.04 192.538 462.434 192.538 461.606V456.17ZM201.676 464.108C200.788 464.108 199.996 463.91 199.3 463.514C198.616 463.118 198.082 462.566 197.698 461.858C197.314 461.15 197.122 460.334 197.122 459.41C197.122 458.486 197.314 457.67 197.698 456.962C198.082 456.254 198.616 455.702 199.3 455.306C199.996 454.91 200.788 454.712 201.676 454.712C202.564 454.712 203.35 454.91 204.034 455.306C204.73 455.702 205.27 456.254 205.654 456.962C206.038 457.67 206.23 458.486 206.23 459.41C206.23 460.334 206.038 461.15 205.654 461.858C205.27 462.566 204.73 463.118 204.034 463.514C203.35 463.91 202.564 464.108 201.676 464.108ZM201.676 462.794C202.276 462.794 202.804 462.65 203.26 462.362C203.728 462.074 204.088 461.672 204.34 461.156C204.592 460.64 204.718 460.058 204.718 459.41C204.718 458.762 204.592 458.18 204.34 457.664C204.088 457.148 203.728 456.746 203.26 456.458C202.804 456.17 202.276 456.026 201.676 456.026C201.076 456.026 200.542 456.17 200.074 456.458C199.618 456.746 199.264 457.148 199.012 457.664C198.76 458.18 198.634 458.762 198.634 459.41C198.634 460.058 198.76 460.64 199.012 461.156C199.264 461.672 199.618 462.074 200.074 462.362C200.542 462.65 201.076 462.794 201.676 462.794ZM221.219 462.65V464H220.409C219.821 464 219.401 463.88 219.149 463.64C218.897 463.4 218.765 463.046 218.753 462.578C218.045 463.598 217.019 464.108 215.675 464.108C214.655 464.108 213.833 463.868 213.209 463.388C212.597 462.908 212.291 462.254 212.291 461.426C212.291 460.502 212.603 459.794 213.227 459.302C213.863 458.81 214.781 458.564 215.981 458.564H218.681V457.934C218.681 457.334 218.477 456.866 218.069 456.53C217.673 456.194 217.115 456.026 216.395 456.026C215.759 456.026 215.231 456.17 214.811 456.458C214.403 456.734 214.151 457.106 214.055 457.574H212.579C212.687 456.674 213.083 455.972 213.767 455.468C214.463 454.964 215.363 454.712 216.467 454.712C217.643 454.712 218.549 455 219.185 455.576C219.833 456.14 220.157 456.956 220.157 458.024V461.984C220.157 462.428 220.361 462.65 220.769 462.65H221.219ZM218.681 459.806H215.837C214.469 459.806 213.785 460.316 213.785 461.336C213.785 461.792 213.965 462.158 214.325 462.434C214.685 462.71 215.171 462.848 215.783 462.848C216.683 462.848 217.391 462.614 217.907 462.146C218.423 461.666 218.681 461.036 218.681 460.256V459.806ZM223.506 460.976C223.53 461.528 223.77 461.978 224.226 462.326C224.694 462.674 225.294 462.848 226.026 462.848C226.674 462.848 227.196 462.722 227.592 462.47C228 462.206 228.204 461.864 228.204 461.444C228.204 461.084 228.108 460.808 227.916 460.616C227.724 460.424 227.472 460.292 227.16 460.22C226.86 460.148 226.428 460.076 225.864 460.004C225.072 459.908 224.424 459.782 223.92 459.626C223.416 459.47 223.008 459.224 222.696 458.888C222.384 458.54 222.228 458.066 222.228 457.466C222.228 456.926 222.378 456.446 222.678 456.026C222.99 455.606 223.41 455.282 223.938 455.054C224.466 454.814 225.06 454.694 225.72 454.694C226.8 454.694 227.676 454.946 228.348 455.45C229.032 455.954 229.41 456.674 229.482 457.61H228.006C227.946 457.13 227.712 456.734 227.304 456.422C226.896 456.11 226.386 455.954 225.774 455.954C225.15 455.954 224.646 456.086 224.262 456.35C223.878 456.602 223.686 456.938 223.686 457.358C223.686 457.67 223.776 457.91 223.956 458.078C224.136 458.246 224.364 458.36 224.64 458.42C224.928 458.48 225.36 458.546 225.936 458.618C226.74 458.714 227.4 458.846 227.916 459.014C228.444 459.182 228.864 459.452 229.176 459.824C229.5 460.196 229.662 460.7 229.662 461.336C229.662 461.888 229.5 462.374 229.176 462.794C228.852 463.214 228.414 463.538 227.862 463.766C227.31 463.994 226.698 464.108 226.026 464.108C224.826 464.108 223.86 463.832 223.128 463.28C222.408 462.728 222.042 461.96 222.03 460.976H223.506ZM232.312 460.976C232.336 461.528 232.576 461.978 233.032 462.326C233.5 462.674 234.1 462.848 234.832 462.848C235.48 462.848 236.002 462.722 236.398 462.47C236.806 462.206 237.01 461.864 237.01 461.444C237.01 461.084 236.914 460.808 236.722 460.616C236.53 460.424 236.278 460.292 235.966 460.22C235.666 460.148 235.234 460.076 234.67 460.004C233.878 459.908 233.23 459.782 232.726 459.626C232.222 459.47 231.814 459.224 231.502 458.888C231.19 458.54 231.034 458.066 231.034 457.466C231.034 456.926 231.184 456.446 231.484 456.026C231.796 455.606 232.216 455.282 232.744 455.054C233.272 454.814 233.866 454.694 234.526 454.694C235.606 454.694 236.482 454.946 237.154 455.45C237.838 455.954 238.216 456.674 238.288 457.61H236.812C236.752 457.13 236.518 456.734 236.11 456.422C235.702 456.11 235.192 455.954 234.58 455.954C233.956 455.954 233.452 456.086 233.068 456.35C232.684 456.602 232.492 456.938 232.492 457.358C232.492 457.67 232.582 457.91 232.762 458.078C232.942 458.246 233.17 458.36 233.446 458.42C233.734 458.48 234.166 458.546 234.742 458.618C235.546 458.714 236.206 458.846 236.722 459.014C237.25 459.182 237.67 459.452 237.982 459.824C238.306 460.196 238.468 460.7 238.468 461.336C238.468 461.888 238.306 462.374 237.982 462.794C237.658 463.214 237.22 463.538 236.668 463.766C236.116 463.994 235.504 464.108 234.832 464.108C233.632 464.108 232.666 463.832 231.934 463.28C231.214 462.728 230.848 461.96 230.836 460.976H232.312ZM239.819 459.41C239.819 458.474 239.999 457.652 240.359 456.944C240.731 456.236 241.247 455.69 241.907 455.306C242.567 454.91 243.323 454.712 244.175 454.712C245.015 454.712 245.759 454.886 246.407 455.234C247.055 455.582 247.565 456.086 247.937 456.746C248.309 457.406 248.507 458.18 248.531 459.068C248.531 459.2 248.519 459.41 248.495 459.698H241.367V459.824C241.391 460.724 241.667 461.444 242.195 461.984C242.723 462.524 243.413 462.794 244.265 462.794C244.925 462.794 245.483 462.632 245.939 462.308C246.407 461.972 246.719 461.51 246.875 460.922H248.369C248.189 461.858 247.739 462.626 247.019 463.226C246.299 463.814 245.417 464.108 244.373 464.108C243.461 464.108 242.663 463.916 241.979 463.532C241.295 463.136 240.761 462.584 240.377 461.876C240.005 461.156 239.819 460.334 239.819 459.41ZM247.001 458.474C246.929 457.694 246.635 457.088 246.119 456.656C245.615 456.224 244.973 456.008 244.193 456.008C243.497 456.008 242.885 456.236 242.357 456.692C241.829 457.148 241.529 457.742 241.457 458.474H247.001ZM251.332 460.976C251.356 461.528 251.596 461.978 252.052 462.326C252.52 462.674 253.12 462.848 253.852 462.848C254.5 462.848 255.022 462.722 255.418 462.47C255.826 462.206 256.03 461.864 256.03 461.444C256.03 461.084 255.934 460.808 255.742 460.616C255.55 460.424 255.298 460.292 254.986 460.22C254.686 460.148 254.254 460.076 253.69 460.004C252.898 459.908 252.25 459.782 251.746 459.626C251.242 459.47 250.834 459.224 250.522 458.888C250.21 458.54 250.054 458.066 250.054 457.466C250.054 456.926 250.204 456.446 250.504 456.026C250.816 455.606 251.236 455.282 251.764 455.054C252.292 454.814 252.886 454.694 253.546 454.694C254.626 454.694 255.502 454.946 256.174 455.45C256.858 455.954 257.236 456.674 257.308 457.61H255.832C255.772 457.13 255.538 456.734 255.13 456.422C254.722 456.11 254.212 455.954 253.6 455.954C252.976 455.954 252.472 456.086 252.088 456.35C251.704 456.602 251.512 456.938 251.512 457.358C251.512 457.67 251.602 457.91 251.782 458.078C251.962 458.246 252.19 458.36 252.466 458.42C252.754 458.48 253.186 458.546 253.762 458.618C254.566 458.714 255.226 458.846 255.742 459.014C256.27 459.182 256.69 459.452 257.002 459.824C257.326 460.196 257.488 460.7 257.488 461.336C257.488 461.888 257.326 462.374 257.002 462.794C256.678 463.214 256.24 463.538 255.688 463.766C255.136 463.994 254.524 464.108 253.852 464.108C252.652 464.108 251.686 463.832 250.954 463.28C250.234 462.728 249.868 461.96 249.856 460.976H251.332ZM260.139 460.976C260.163 461.528 260.403 461.978 260.859 462.326C261.327 462.674 261.927 462.848 262.659 462.848C263.307 462.848 263.829 462.722 264.225 462.47C264.633 462.206 264.837 461.864 264.837 461.444C264.837 461.084 264.741 460.808 264.549 460.616C264.357 460.424 264.105 460.292 263.793 460.22C263.493 460.148 263.061 460.076 262.497 460.004C261.705 459.908 261.057 459.782 260.553 459.626C260.049 459.47 259.641 459.224 259.329 458.888C259.017 458.54 258.861 458.066 258.861 457.466C258.861 456.926 259.011 456.446 259.311 456.026C259.623 455.606 260.043 455.282 260.571 455.054C261.099 454.814 261.693 454.694 262.353 454.694C263.433 454.694 264.309 454.946 264.981 455.45C265.665 455.954 266.043 456.674 266.115 457.61H264.639C264.579 457.13 264.345 456.734 263.937 456.422C263.529 456.11 263.019 455.954 262.407 455.954C261.783 455.954 261.279 456.086 260.895 456.35C260.511 456.602 260.319 456.938 260.319 457.358C260.319 457.67 260.409 457.91 260.589 458.078C260.769 458.246 260.997 458.36 261.273 458.42C261.561 458.48 261.993 458.546 262.569 458.618C263.373 458.714 264.033 458.846 264.549 459.014C265.077 459.182 265.497 459.452 265.809 459.824C266.133 460.196 266.295 460.7 266.295 461.336C266.295 461.888 266.133 462.374 265.809 462.794C265.485 463.214 265.047 463.538 264.495 463.766C263.943 463.994 263.331 464.108 262.659 464.108C261.459 464.108 260.493 463.832 259.761 463.28C259.041 462.728 258.675 461.96 258.663 460.976H260.139ZM273.418 451.274C273.694 451.274 273.922 451.364 274.102 451.544C274.282 451.724 274.372 451.952 274.372 452.228C274.372 452.504 274.282 452.732 274.102 452.912C273.922 453.092 273.694 453.182 273.418 453.182C273.142 453.182 272.914 453.092 272.734 452.912C272.554 452.732 272.464 452.504 272.464 452.228C272.464 451.952 272.554 451.724 272.734 451.544C272.914 451.364 273.142 451.274 273.418 451.274ZM272.68 454.82H274.156V464H272.68V454.82ZM280.678 454.712C281.794 454.712 282.688 455.048 283.36 455.72C284.044 456.392 284.386 457.448 284.386 458.888V464H282.91V458.978C282.91 458.03 282.694 457.31 282.262 456.818C281.842 456.314 281.23 456.062 280.426 456.062C279.562 456.062 278.884 456.362 278.392 456.962C277.9 457.562 277.654 458.378 277.654 459.41V464H276.178V454.82H277.456L277.654 456.062C278.35 455.162 279.358 454.712 280.678 454.712ZM285.086 454.82H286.67L289.442 462.326L292.196 454.82H293.744L290.306 464H288.524L285.086 454.82ZM294.17 459.41C294.17 458.474 294.35 457.652 294.71 456.944C295.082 456.236 295.598 455.69 296.258 455.306C296.918 454.91 297.674 454.712 298.526 454.712C299.366 454.712 300.11 454.886 300.758 455.234C301.406 455.582 301.916 456.086 302.288 456.746C302.66 457.406 302.858 458.18 302.882 459.068C302.882 459.2 302.87 459.41 302.846 459.698H295.718V459.824C295.742 460.724 296.018 461.444 296.546 461.984C297.074 462.524 297.764 462.794 298.616 462.794C299.276 462.794 299.834 462.632 300.29 462.308C300.758 461.972 301.07 461.51 301.226 460.922H302.72C302.54 461.858 302.09 462.626 301.37 463.226C300.65 463.814 299.768 464.108 298.724 464.108C297.812 464.108 297.014 463.916 296.33 463.532C295.646 463.136 295.112 462.584 294.728 461.876C294.356 461.156 294.17 460.334 294.17 459.41ZM301.352 458.474C301.28 457.694 300.986 457.088 300.47 456.656C299.966 456.224 299.324 456.008 298.544 456.008C297.848 456.008 297.236 456.236 296.708 456.692C296.18 457.148 295.88 457.742 295.808 458.474H301.352ZM305.683 460.976C305.707 461.528 305.947 461.978 306.403 462.326C306.871 462.674 307.471 462.848 308.203 462.848C308.851 462.848 309.373 462.722 309.769 462.47C310.177 462.206 310.381 461.864 310.381 461.444C310.381 461.084 310.285 460.808 310.093 460.616C309.901 460.424 309.649 460.292 309.337 460.22C309.037 460.148 308.605 460.076 308.041 460.004C307.249 459.908 306.601 459.782 306.097 459.626C305.593 459.47 305.185 459.224 304.873 458.888C304.561 458.54 304.405 458.066 304.405 457.466C304.405 456.926 304.555 456.446 304.855 456.026C305.167 455.606 305.587 455.282 306.115 455.054C306.643 454.814 307.237 454.694 307.897 454.694C308.977 454.694 309.853 454.946 310.525 455.45C311.209 455.954 311.587 456.674 311.659 457.61H310.183C310.123 457.13 309.889 456.734 309.481 456.422C309.073 456.11 308.563 455.954 307.951 455.954C307.327 455.954 306.823 456.086 306.439 456.35C306.055 456.602 305.863 456.938 305.863 457.358C305.863 457.67 305.953 457.91 306.133 458.078C306.313 458.246 306.541 458.36 306.817 458.42C307.105 458.48 307.537 458.546 308.113 458.618C308.917 458.714 309.577 458.846 310.093 459.014C310.621 459.182 311.041 459.452 311.353 459.824C311.677 460.196 311.839 460.7 311.839 461.336C311.839 461.888 311.677 462.374 311.353 462.794C311.029 463.214 310.591 463.538 310.039 463.766C309.487 463.994 308.875 464.108 308.203 464.108C307.003 464.108 306.037 463.832 305.305 463.28C304.585 462.728 304.219 461.96 304.207 460.976H305.683ZM314.126 456.17H312.47V454.82H314.126V452.246H315.602V454.82H317.924V456.17H315.602V461.588C315.602 461.972 315.674 462.248 315.818 462.416C315.974 462.572 316.238 462.65 316.61 462.65H318.212V464H316.52C315.656 464 315.038 463.808 314.666 463.424C314.306 463.04 314.126 462.434 314.126 461.606V456.17ZM329.504 454.712C330.536 454.712 331.37 455.036 332.006 455.684C332.654 456.332 332.978 457.34 332.978 458.708V464H331.502V458.798C331.502 457.91 331.31 457.232 330.926 456.764C330.554 456.296 330.02 456.062 329.324 456.062C328.556 456.062 327.95 456.332 327.506 456.872C327.074 457.412 326.858 458.15 326.858 459.086V464H325.382V458.798C325.382 457.91 325.19 457.232 324.806 456.764C324.422 456.296 323.876 456.062 323.168 456.062C322.424 456.062 321.83 456.35 321.386 456.926C320.954 457.49 320.738 458.234 320.738 459.158V464H319.262V454.82H320.54L320.738 456.08C321.398 455.168 322.292 454.712 323.42 454.712C324.08 454.712 324.662 454.862 325.166 455.162C325.682 455.45 326.066 455.882 326.318 456.458C326.978 455.294 328.04 454.712 329.504 454.712ZM334.547 459.41C334.547 458.474 334.727 457.652 335.087 456.944C335.459 456.236 335.975 455.69 336.635 455.306C337.295 454.91 338.051 454.712 338.903 454.712C339.743 454.712 340.487 454.886 341.135 455.234C341.783 455.582 342.293 456.086 342.665 456.746C343.037 457.406 343.235 458.18 343.259 459.068C343.259 459.2 343.247 459.41 343.223 459.698H336.095V459.824C336.119 460.724 336.395 461.444 336.923 461.984C337.451 462.524 338.141 462.794 338.993 462.794C339.653 462.794 340.211 462.632 340.667 462.308C341.135 461.972 341.447 461.51 341.603 460.922H343.097C342.917 461.858 342.467 462.626 341.747 463.226C341.027 463.814 340.145 464.108 339.101 464.108C338.189 464.108 337.391 463.916 336.707 463.532C336.023 463.136 335.489 462.584 335.105 461.876C334.733 461.156 334.547 460.334 334.547 459.41ZM341.729 458.474C341.657 457.694 341.363 457.088 340.847 456.656C340.343 456.224 339.701 456.008 338.921 456.008C338.225 456.008 337.613 456.236 337.085 456.692C336.557 457.148 336.257 457.742 336.185 458.474H341.729ZM349.444 454.712C350.56 454.712 351.454 455.048 352.126 455.72C352.81 456.392 353.152 457.448 353.152 458.888V464H351.676V458.978C351.676 458.03 351.46 457.31 351.028 456.818C350.608 456.314 349.996 456.062 349.192 456.062C348.328 456.062 347.65 456.362 347.158 456.962C346.666 457.562 346.42 458.378 346.42 459.41V464H344.944V454.82H346.222L346.42 456.062C347.116 455.162 348.124 454.712 349.444 454.712ZM355.645 456.17H353.989V454.82H355.645V452.246H357.121V454.82H359.443V456.17H357.121V461.588C357.121 461.972 357.193 462.248 357.337 462.416C357.493 462.572 357.757 462.65 358.129 462.65H359.731V464H358.039C357.175 464 356.557 463.808 356.185 463.424C355.825 463.04 355.645 462.434 355.645 461.606V456.17ZM370.118 454.712C370.97 454.712 371.726 454.898 372.386 455.27C373.058 455.642 373.58 456.182 373.952 456.89C374.336 457.598 374.528 458.438 374.528 459.41C374.528 460.334 374.336 461.15 373.952 461.858C373.58 462.566 373.058 463.118 372.386 463.514C371.714 463.91 370.958 464.108 370.118 464.108C369.374 464.108 368.738 463.976 368.21 463.712C367.682 463.436 367.268 463.064 366.968 462.596V467.6H365.492V454.82H366.77L366.968 456.296C367.736 455.24 368.786 454.712 370.118 454.712ZM369.974 462.794C370.886 462.794 371.618 462.482 372.17 461.858C372.734 461.222 373.016 460.406 373.016 459.41C373.016 458.414 372.734 457.604 372.17 456.98C371.618 456.344 370.886 456.026 369.974 456.026C369.386 456.026 368.858 456.17 368.39 456.458C367.934 456.734 367.58 457.13 367.328 457.646C367.076 458.15 366.95 458.726 366.95 459.374C366.95 460.034 367.076 460.628 367.328 461.156C367.58 461.672 367.934 462.074 368.39 462.362C368.858 462.65 369.386 462.794 369.974 462.794ZM380.445 464.108C379.557 464.108 378.765 463.91 378.069 463.514C377.385 463.118 376.851 462.566 376.467 461.858C376.083 461.15 375.891 460.334 375.891 459.41C375.891 458.486 376.083 457.67 376.467 456.962C376.851 456.254 377.385 455.702 378.069 455.306C378.765 454.91 379.557 454.712 380.445 454.712C381.333 454.712 382.119 454.91 382.803 455.306C383.499 455.702 384.039 456.254 384.423 456.962C384.807 457.67 384.999 458.486 384.999 459.41C384.999 460.334 384.807 461.15 384.423 461.858C384.039 462.566 383.499 463.118 382.803 463.514C382.119 463.91 381.333 464.108 380.445 464.108ZM380.445 462.794C381.045 462.794 381.573 462.65 382.029 462.362C382.497 462.074 382.857 461.672 383.109 461.156C383.361 460.64 383.487 460.058 383.487 459.41C383.487 458.762 383.361 458.18 383.109 457.664C382.857 457.148 382.497 456.746 382.029 456.458C381.573 456.17 381.045 456.026 380.445 456.026C379.845 456.026 379.311 456.17 378.843 456.458C378.387 456.746 378.033 457.148 377.781 457.664C377.529 458.18 377.403 458.762 377.403 459.41C377.403 460.058 377.529 460.64 377.781 461.156C378.033 461.672 378.387 462.074 378.843 462.362C379.311 462.65 379.845 462.794 380.445 462.794ZM387.198 456.17H385.542V454.82H387.198V452.246H388.674V454.82H390.996V456.17H388.674V461.588C388.674 461.972 388.746 462.248 388.89 462.416C389.046 462.572 389.31 462.65 389.682 462.65H391.284V464H389.592C388.728 464 388.11 463.808 387.738 463.424C387.378 463.04 387.198 462.434 387.198 461.606V456.17ZM391.782 459.41C391.782 458.474 391.962 457.652 392.322 456.944C392.694 456.236 393.21 455.69 393.87 455.306C394.53 454.91 395.286 454.712 396.138 454.712C396.978 454.712 397.722 454.886 398.37 455.234C399.018 455.582 399.528 456.086 399.9 456.746C400.272 457.406 400.47 458.18 400.494 459.068C400.494 459.2 400.482 459.41 400.458 459.698H393.33V459.824C393.354 460.724 393.63 461.444 394.158 461.984C394.686 462.524 395.376 462.794 396.228 462.794C396.888 462.794 397.446 462.632 397.902 462.308C398.37 461.972 398.682 461.51 398.838 460.922H400.332C400.152 461.858 399.702 462.626 398.982 463.226C398.262 463.814 397.38 464.108 396.336 464.108C395.424 464.108 394.626 463.916 393.942 463.532C393.258 463.136 392.724 462.584 392.34 461.876C391.968 461.156 391.782 460.334 391.782 459.41ZM398.964 458.474C398.892 457.694 398.598 457.088 398.082 456.656C397.578 456.224 396.936 456.008 396.156 456.008C395.46 456.008 394.848 456.236 394.32 456.692C393.792 457.148 393.492 457.742 393.42 458.474H398.964ZM406.678 454.712C407.794 454.712 408.688 455.048 409.36 455.72C410.044 456.392 410.386 457.448 410.386 458.888V464H408.91V458.978C408.91 458.03 408.694 457.31 408.262 456.818C407.842 456.314 407.23 456.062 406.426 456.062C405.562 456.062 404.884 456.362 404.392 456.962C403.9 457.562 403.654 458.378 403.654 459.41V464H402.178V454.82H403.456L403.654 456.062C404.35 455.162 405.358 454.712 406.678 454.712ZM412.88 456.17H411.224V454.82H412.88V452.246H414.356V454.82H416.678V456.17H414.356V461.588C414.356 461.972 414.428 462.248 414.572 462.416C414.728 462.572 414.992 462.65 415.364 462.65H416.966V464H415.274C414.41 464 413.792 463.808 413.42 463.424C413.06 463.04 412.88 462.434 412.88 461.606V456.17ZM418.754 451.274C419.03 451.274 419.258 451.364 419.438 451.544C419.618 451.724 419.708 451.952 419.708 452.228C419.708 452.504 419.618 452.732 419.438 452.912C419.258 453.092 419.03 453.182 418.754 453.182C418.478 453.182 418.25 453.092 418.07 452.912C417.89 452.732 417.8 452.504 417.8 452.228C417.8 451.952 417.89 451.724 418.07 451.544C418.25 451.364 418.478 451.274 418.754 451.274ZM418.016 454.82H419.492V464H418.016V454.82ZM430.1 462.65V464H429.29C428.702 464 428.282 463.88 428.03 463.64C427.778 463.4 427.646 463.046 427.634 462.578C426.926 463.598 425.9 464.108 424.556 464.108C423.536 464.108 422.714 463.868 422.09 463.388C421.478 462.908 421.172 462.254 421.172 461.426C421.172 460.502 421.484 459.794 422.108 459.302C422.744 458.81 423.662 458.564 424.862 458.564H427.562V457.934C427.562 457.334 427.358 456.866 426.95 456.53C426.554 456.194 425.996 456.026 425.276 456.026C424.64 456.026 424.112 456.17 423.692 456.458C423.284 456.734 423.032 457.106 422.936 457.574H421.46C421.568 456.674 421.964 455.972 422.648 455.468C423.344 454.964 424.244 454.712 425.348 454.712C426.524 454.712 427.43 455 428.066 455.576C428.714 456.14 429.038 456.956 429.038 458.024V461.984C429.038 462.428 429.242 462.65 429.65 462.65H430.1ZM427.562 459.806H424.718C423.35 459.806 422.666 460.316 422.666 461.336C422.666 461.792 422.846 462.158 423.206 462.434C423.566 462.71 424.052 462.848 424.664 462.848C425.564 462.848 426.272 462.614 426.788 462.146C427.304 461.666 427.562 461.036 427.562 460.256V459.806ZM431.235 451.4H432.711V464H431.235V451.4ZM434.553 463.1C434.553 462.8 434.649 462.56 434.841 462.38C435.033 462.188 435.279 462.092 435.579 462.092C435.879 462.092 436.125 462.188 436.317 462.38C436.509 462.56 436.605 462.8 436.605 463.1C436.605 463.4 436.509 463.646 436.317 463.838C436.125 464.018 435.879 464.108 435.579 464.108C435.279 464.108 435.033 464.018 434.841 463.838C434.649 463.646 434.553 463.4 434.553 463.1Z" fill="black"/>
<path d="M424.834 194C424.834 195.473 426.028 196.667 427.501 196.667C428.973 196.667 430.167 195.473 430.167 194C430.167 192.527 428.973 191.333 427.501 191.333C426.028 191.333 424.834 192.527 424.834 194ZM258.501 380.5L259 380.481C258.974 379.796 258.951 379.114 258.932 378.433L258.432 378.447L257.932 378.462C257.951 379.145 257.974 379.831 258.001 380.519L258.501 380.5ZM258.36 374.382L258.86 374.378C258.851 373.036 258.856 371.701 258.875 370.376L258.375 370.369L257.875 370.361C257.856 371.694 257.851 373.035 257.86 374.385L258.36 374.382ZM258.479 366.31L258.979 366.328C259.029 364.973 259.094 363.628 259.173 362.291L258.674 362.261L258.175 362.232C258.095 363.576 258.03 364.929 257.98 366.292L258.479 366.31ZM258.957 358.268L259.455 358.31C259.568 356.949 259.695 355.598 259.838 354.258L259.341 354.205L258.843 354.152C258.7 355.501 258.572 356.859 258.459 358.227L258.957 358.268ZM259.815 350.196L260.311 350.26C260.485 348.924 260.675 347.598 260.879 346.282L260.385 346.205L259.891 346.128C259.686 347.453 259.495 348.787 259.319 350.131L259.815 350.196ZM261.058 342.197L261.55 342.286C261.789 340.964 262.043 339.653 262.311 338.352L261.822 338.251L261.332 338.149C261.062 339.459 260.806 340.778 260.566 342.108L261.058 342.197ZM262.693 334.283L263.18 334.397C263.486 333.082 263.807 331.778 264.144 330.484L263.66 330.358L263.176 330.232C262.838 331.534 262.514 332.847 262.206 334.17L262.693 334.283ZM264.724 326.469L265.205 326.607C265.579 325.305 265.969 324.014 266.373 322.733L265.896 322.583L265.42 322.432C265.013 323.721 264.621 325.02 264.244 326.331L264.724 326.469ZM267.158 318.762L267.63 318.925C268.072 317.644 268.528 316.374 268.999 315.115L268.531 314.94L268.062 314.765C267.588 316.031 267.129 317.31 266.685 318.599L267.158 318.762ZM269.995 311.176L270.458 311.363C270.964 310.113 271.483 308.874 272.017 307.647L271.558 307.447L271.1 307.248C270.563 308.483 270.04 309.73 269.531 310.989L269.995 311.176ZM273.221 303.755L273.675 303.967C274.242 302.748 274.824 301.542 275.42 300.346L274.972 300.123L274.525 299.9C273.925 301.103 273.34 302.318 272.768 303.544L273.221 303.755ZM276.828 296.516L277.269 296.75C277.9 295.564 278.543 294.388 279.2 293.224L278.764 292.979L278.329 292.733C277.668 293.904 277.02 295.087 276.386 296.282L276.828 296.516ZM280.801 289.474L281.23 289.73C281.921 288.575 282.625 287.432 283.341 286.301L282.919 286.033L282.496 285.766C281.776 286.904 281.067 288.055 280.372 289.217L280.801 289.474ZM285.125 282.642L285.541 282.92C286.29 281.8 287.051 280.691 287.824 279.595L287.415 279.307L287.006 279.019C286.229 280.122 285.463 281.237 284.71 282.364L285.125 282.642ZM289.783 276.033L290.184 276.33C290.987 275.247 291.802 274.176 292.628 273.117L292.234 272.81L291.839 272.502C291.009 273.568 290.189 274.645 289.381 275.735L289.783 276.033ZM294.753 269.655L295.14 269.972C295.995 268.928 296.86 267.895 297.735 266.875L297.355 266.549L296.976 266.224C296.096 267.25 295.225 268.288 294.366 269.339L294.753 269.655ZM300.019 263.515L300.391 263.849C301.292 262.845 302.203 261.853 303.124 260.873L302.759 260.531L302.395 260.189C301.469 261.174 300.553 262.171 299.647 263.181L300.019 263.515ZM305.558 257.617L305.915 257.967C306.859 257.005 307.812 256.055 308.774 255.116L308.424 254.759L308.075 254.401C307.109 255.344 306.15 256.299 305.201 257.266L305.558 257.617ZM311.348 251.966L311.69 252.331C312.674 251.411 313.666 250.502 314.665 249.605L314.331 249.233L313.997 248.861C312.993 249.762 311.996 250.675 311.007 251.601L311.348 251.966ZM317.37 246.563L317.696 246.941C318.717 246.063 319.744 245.196 320.778 244.341L320.46 243.955L320.141 243.57C319.102 244.429 318.069 245.3 317.044 246.184L317.37 246.563ZM323.604 241.406L323.915 241.798C324.969 240.96 326.029 240.135 327.095 239.321L326.791 238.924L326.488 238.526C325.417 239.344 324.352 240.173 323.293 241.015L323.604 241.406ZM330.033 236.495L330.329 236.898C331.414 236.102 332.503 235.317 333.597 234.544L333.309 234.136L333.02 233.727C331.921 234.504 330.827 235.292 329.738 236.092L330.033 236.495ZM336.641 231.827L336.922 232.24C338.035 231.484 339.151 230.74 340.27 230.008L339.997 229.589L339.723 229.171C338.599 229.906 337.477 230.654 336.36 231.413L336.641 231.827ZM343.412 227.398L343.678 227.821C344.817 227.104 345.959 226.4 347.103 225.707L346.844 225.279L346.585 224.851C345.436 225.547 344.289 226.255 343.146 226.975L343.412 227.398ZM350.332 223.206L350.584 223.638C351.747 222.96 352.912 222.295 354.078 221.641L353.834 221.205L353.589 220.768C352.418 221.425 351.249 222.094 350.08 222.774L350.332 223.206ZM357.389 219.249L357.626 219.689C358.812 219.05 359.998 218.423 361.184 217.808L360.954 217.364L360.724 216.92C359.533 217.537 358.342 218.167 357.152 218.809L357.389 219.249ZM364.572 215.524L364.795 215.972C366.001 215.371 367.206 214.782 368.409 214.206L368.193 213.755L367.977 213.304C366.769 213.882 365.559 214.473 364.349 215.077L364.572 215.524ZM371.87 212.03L372.079 212.484C373.303 211.922 374.525 211.372 375.743 210.835L375.541 210.378L375.34 209.92C374.117 210.459 372.89 211.011 371.661 211.576L371.87 212.03ZM379.274 208.767L379.469 209.228C380.71 208.704 381.947 208.193 383.179 207.695L382.992 207.232L382.805 206.768C381.568 207.268 380.326 207.78 379.08 208.306L379.274 208.767ZM386.777 205.737L386.957 206.203C388.218 205.717 389.472 205.244 390.72 204.785L390.547 204.316L390.374 203.847C389.122 204.308 387.863 204.782 386.597 205.27L386.777 205.737ZM394.368 202.944L394.534 203.416C395.815 202.968 397.087 202.534 398.35 202.114L398.193 201.64L398.035 201.165C396.767 201.586 395.49 202.022 394.203 202.472L394.368 202.944ZM402.039 200.397L402.189 200.874C403.492 200.465 404.784 200.071 406.063 199.693L405.921 199.213L405.779 198.734C404.495 199.114 403.198 199.509 401.889 199.92L402.039 200.397ZM409.777 198.109L409.911 198.59C411.238 198.223 412.549 197.872 413.843 197.538L413.718 197.054L413.593 196.57C412.293 196.905 410.976 197.257 409.644 197.627L409.777 198.109ZM417.641 196.081L417.757 196.568C419.081 196.253 420.385 195.956 421.667 195.678L421.561 195.19L421.455 194.701C420.166 194.981 418.856 195.278 417.526 195.595L417.641 196.081ZM425.554 194.367L425.649 194.858C426.303 194.731 426.95 194.609 427.591 194.492L427.501 194L427.411 193.508C426.767 193.626 426.116 193.749 425.459 193.877L425.554 194.367Z" fill="white"/>
<rect x="54" y="427" width="31" height="31" rx="4" fill="#5A7E83"/>
<path d="M76.2222 451V449.111C76.2222 448.109 75.8242 447.148 75.1157 446.44C74.4073 445.731 73.4464 445.333 72.4444 445.333H66.7778C65.7758 445.333 64.815 445.731 64.1065 446.44C63.398 447.148 63 448.109 63 449.111V451" stroke="white" stroke-width="1.5" stroke-linecap="round" stroke-linejoin="round"/>
<path d="M69.6098 441.556C71.6962 441.556 73.3876 439.864 73.3876 437.778C73.3876 435.691 71.6962 434 69.6098 434C67.5234 434 65.832 435.691 65.832 437.778C65.832 439.864 67.5234 441.556 69.6098 441.556Z" stroke="white" stroke-width="1.5" stroke-linecap="round" stroke-linejoin="round"/>
</svg>
