<svg width="706" height="540" viewBox="0 0 706 540" fill="none" xmlns="http://www.w3.org/2000/svg">
<rect opacity="0.5" x="505" y="262" width="175" height="40" rx="5" fill="white"/>
<path d="M561.455 284.812H561.347C561.275 284.988 561.187 285.156 561.083 285.316C560.979 285.476 560.851 285.62 560.699 285.748C560.547 285.868 560.367 285.964 560.159 286.036C559.959 286.108 559.731 286.144 559.475 286.144C559.067 286.144 558.703 286.048 558.383 285.856C558.071 285.664 557.807 285.384 557.591 285.016C557.375 284.648 557.211 284.2 557.099 283.672C556.995 283.144 556.943 282.548 556.943 281.884C556.943 280.46 557.203 279.372 557.723 278.62C558.243 277.86 559.047 277.48 560.135 277.48C560.567 277.48 560.947 277.54 561.275 277.66C561.603 277.772 561.883 277.936 562.115 278.152C562.355 278.36 562.551 278.612 562.703 278.908C562.855 279.204 562.975 279.532 563.063 279.892L561.383 280.3C561.335 280.124 561.279 279.956 561.215 279.796C561.159 279.628 561.083 279.48 560.987 279.352C560.891 279.224 560.771 279.124 560.627 279.052C560.483 278.972 560.307 278.932 560.099 278.932C559.643 278.932 559.319 279.12 559.127 279.496C558.943 279.872 558.851 280.4 558.851 281.08V282.448C558.851 283.128 558.951 283.672 559.151 284.08C559.359 284.488 559.723 284.692 560.243 284.692C560.651 284.692 560.955 284.572 561.155 284.332C561.355 284.092 561.455 283.784 561.455 283.408V282.796H560.027V281.524H563.063V286H561.455V284.812ZM564.679 286V277.624H570.031V279.1H566.479V281.02H569.911V282.496H566.479V284.524H570.031V286H564.679ZM573.314 280.432H573.182V286H571.646V277.624H573.806L575.714 283.192H575.846V277.624H577.382V286H575.222L573.314 280.432ZM579.069 286V277.624H584.421V279.1H580.869V281.02H584.301V282.496H580.869V284.524H584.421V286H579.069ZM587.993 286H586.217V277.624H589.457C589.865 277.624 590.229 277.688 590.549 277.816C590.869 277.936 591.137 278.112 591.353 278.344C591.577 278.576 591.745 278.856 591.857 279.184C591.969 279.512 592.025 279.88 592.025 280.288C592.025 280.88 591.897 281.388 591.641 281.812C591.385 282.236 591.021 282.516 590.549 282.652L592.193 286H590.225L588.821 282.892H587.993V286ZM589.025 281.5C589.449 281.5 589.741 281.42 589.901 281.26C590.069 281.1 590.153 280.836 590.153 280.468V280.108C590.153 279.74 590.069 279.476 589.901 279.316C589.741 279.156 589.449 279.076 589.025 279.076H587.993V281.5H589.025ZM597.72 286L597.192 283.984H594.9L594.384 286H592.56L594.828 277.624H597.372L599.64 286H597.72ZM596.1 279.364H596.004L595.188 282.532H596.916L596.1 279.364ZM604.195 279.1V286H602.395V279.1H599.983V277.624H606.607V279.1H604.195ZM607.791 286V284.668H609.591V278.956H607.791V277.624H613.191V278.956H611.391V284.668H613.191V286H607.791ZM616.486 280.432H616.354V286H614.818V277.624H616.978L618.886 283.192H619.018V277.624H620.554V286H618.394L616.486 280.432ZM626.213 284.812H626.105C626.033 284.988 625.945 285.156 625.841 285.316C625.737 285.476 625.609 285.62 625.457 285.748C625.305 285.868 625.125 285.964 624.917 286.036C624.717 286.108 624.489 286.144 624.233 286.144C623.825 286.144 623.461 286.048 623.141 285.856C622.829 285.664 622.565 285.384 622.349 285.016C622.133 284.648 621.969 284.2 621.857 283.672C621.753 283.144 621.701 282.548 621.701 281.884C621.701 280.46 621.961 279.372 622.481 278.62C623.001 277.86 623.805 277.48 624.893 277.48C625.325 277.48 625.705 277.54 626.033 277.66C626.361 277.772 626.641 277.936 626.873 278.152C627.113 278.36 627.309 278.612 627.461 278.908C627.613 279.204 627.733 279.532 627.821 279.892L626.141 280.3C626.093 280.124 626.037 279.956 625.973 279.796C625.917 279.628 625.841 279.48 625.745 279.352C625.649 279.224 625.529 279.124 625.385 279.052C625.241 278.972 625.065 278.932 624.857 278.932C624.401 278.932 624.077 279.12 623.885 279.496C623.701 279.872 623.609 280.4 623.609 281.08V282.448C623.609 283.128 623.709 283.672 623.909 284.08C624.117 284.488 624.481 284.692 625.001 284.692C625.409 284.692 625.713 284.572 625.913 284.332C626.113 284.092 626.213 283.784 626.213 283.408V282.796H624.785V281.524H627.821V286H626.213V284.812Z" fill="white"/>
<rect opacity="0.8" x="465" y="137" width="438" height="89" rx="9" transform="rotate(-180 465 137)" fill="white"/>
<path d="M95.048 73.4C95.876 73.4 96.608 73.562 97.244 73.886C97.88 74.198 98.372 74.648 98.72 75.236C99.068 75.812 99.242 76.49 99.242 77.27C99.242 78.146 98.996 78.908 98.504 79.556C98.024 80.192 97.376 80.624 96.56 80.852L99.386 86H97.622L95.012 81.158H91.79V86H90.224V73.4H95.048ZM91.79 79.718H94.922C95.75 79.718 96.41 79.496 96.902 79.052C97.394 78.608 97.64 78.014 97.64 77.27C97.64 76.538 97.394 75.95 96.902 75.506C96.41 75.062 95.756 74.84 94.94 74.84H91.79V79.718ZM100.213 81.41C100.213 80.474 100.393 79.652 100.753 78.944C101.125 78.236 101.641 77.69 102.301 77.306C102.961 76.91 103.717 76.712 104.569 76.712C105.409 76.712 106.153 76.886 106.801 77.234C107.449 77.582 107.959 78.086 108.331 78.746C108.703 79.406 108.901 80.18 108.925 81.068C108.925 81.2 108.913 81.41 108.889 81.698H101.761V81.824C101.785 82.724 102.061 83.444 102.589 83.984C103.117 84.524 103.807 84.794 104.659 84.794C105.319 84.794 105.877 84.632 106.333 84.308C106.801 83.972 107.113 83.51 107.269 82.922H108.763C108.583 83.858 108.133 84.626 107.413 85.226C106.693 85.814 105.811 86.108 104.767 86.108C103.855 86.108 103.057 85.916 102.373 85.532C101.689 85.136 101.155 84.584 100.771 83.876C100.399 83.156 100.213 82.334 100.213 81.41ZM107.395 80.474C107.323 79.694 107.029 79.088 106.513 78.656C106.009 78.224 105.367 78.008 104.587 78.008C103.891 78.008 103.279 78.236 102.751 78.692C102.223 79.148 101.923 79.742 101.851 80.474H107.395ZM109.34 76.82H110.924L113.696 84.326L116.45 76.82H117.998L114.56 86H112.778L109.34 76.82ZM119.838 73.274C120.114 73.274 120.342 73.364 120.522 73.544C120.702 73.724 120.792 73.952 120.792 74.228C120.792 74.504 120.702 74.732 120.522 74.912C120.342 75.092 120.114 75.182 119.838 75.182C119.562 75.182 119.334 75.092 119.154 74.912C118.974 74.732 118.884 74.504 118.884 74.228C118.884 73.952 118.974 73.724 119.154 73.544C119.334 73.364 119.562 73.274 119.838 73.274ZM119.1 76.82H120.576V86H119.1V76.82ZM122.274 81.41C122.274 80.474 122.454 79.652 122.814 78.944C123.186 78.236 123.702 77.69 124.362 77.306C125.022 76.91 125.778 76.712 126.63 76.712C127.47 76.712 128.214 76.886 128.862 77.234C129.51 77.582 130.02 78.086 130.392 78.746C130.764 79.406 130.962 80.18 130.986 81.068C130.986 81.2 130.974 81.41 130.95 81.698H123.822V81.824C123.846 82.724 124.122 83.444 124.65 83.984C125.178 84.524 125.868 84.794 126.72 84.794C127.38 84.794 127.938 84.632 128.394 84.308C128.862 83.972 129.174 83.51 129.33 82.922H130.824C130.644 83.858 130.194 84.626 129.474 85.226C128.754 85.814 127.872 86.108 126.828 86.108C125.916 86.108 125.118 85.916 124.434 85.532C123.75 85.136 123.216 84.584 122.832 83.876C122.46 83.156 122.274 82.334 122.274 81.41ZM129.456 80.474C129.384 79.694 129.09 79.088 128.574 78.656C128.07 78.224 127.428 78.008 126.648 78.008C125.952 78.008 125.34 78.236 124.812 78.692C124.284 79.148 123.984 79.742 123.912 80.474H129.456ZM131.542 76.82H133.09L135.376 84.29L137.788 76.82H139.156L141.442 84.29L143.836 76.82H145.33L142.27 86H140.65L138.436 79.178L136.132 86L134.512 86.018L131.542 76.82ZM151.809 78.17H150.153V76.82H151.809V74.246H153.285V76.82H155.607V78.17H153.285V83.588C153.285 83.972 153.357 84.248 153.501 84.416C153.657 84.572 153.921 84.65 154.293 84.65H155.895V86H154.203C153.339 86 152.721 85.808 152.349 85.424C151.989 85.04 151.809 84.434 151.809 83.606V78.17ZM161.446 76.712C162.562 76.712 163.462 77.048 164.146 77.72C164.83 78.392 165.172 79.448 165.172 80.888V86H163.696V80.978C163.696 80.03 163.48 79.31 163.048 78.818C162.616 78.314 161.998 78.062 161.194 78.062C160.342 78.062 159.664 78.362 159.16 78.962C158.668 79.562 158.422 80.378 158.422 81.41V86H156.946V73.4H158.422V78.332C158.722 77.852 159.118 77.462 159.61 77.162C160.114 76.862 160.726 76.712 161.446 76.712ZM166.729 81.41C166.729 80.474 166.909 79.652 167.269 78.944C167.641 78.236 168.157 77.69 168.817 77.306C169.477 76.91 170.233 76.712 171.085 76.712C171.925 76.712 172.669 76.886 173.317 77.234C173.965 77.582 174.475 78.086 174.847 78.746C175.219 79.406 175.417 80.18 175.441 81.068C175.441 81.2 175.429 81.41 175.405 81.698H168.277V81.824C168.301 82.724 168.577 83.444 169.105 83.984C169.633 84.524 170.323 84.794 171.175 84.794C171.835 84.794 172.393 84.632 172.849 84.308C173.317 83.972 173.629 83.51 173.785 82.922H175.279C175.099 83.858 174.649 84.626 173.929 85.226C173.209 85.814 172.327 86.108 171.283 86.108C170.371 86.108 169.573 85.916 168.889 85.532C168.205 85.136 167.671 84.584 167.287 83.876C166.915 83.156 166.729 82.334 166.729 81.41ZM173.911 80.474C173.839 79.694 173.545 79.088 173.029 78.656C172.525 78.224 171.883 78.008 171.103 78.008C170.407 78.008 169.795 78.236 169.267 78.692C168.739 79.148 168.439 79.742 168.367 80.474H173.911ZM178.242 82.976C178.266 83.528 178.506 83.978 178.962 84.326C179.43 84.674 180.03 84.848 180.762 84.848C181.41 84.848 181.932 84.722 182.328 84.47C182.736 84.206 182.94 83.864 182.94 83.444C182.94 83.084 182.844 82.808 182.652 82.616C182.46 82.424 182.208 82.292 181.896 82.22C181.596 82.148 181.164 82.076 180.6 82.004C179.808 81.908 179.16 81.782 178.656 81.626C178.152 81.47 177.744 81.224 177.432 80.888C177.12 80.54 176.964 80.066 176.964 79.466C176.964 78.926 177.114 78.446 177.414 78.026C177.726 77.606 178.146 77.282 178.674 77.054C179.202 76.814 179.796 76.694 180.456 76.694C181.536 76.694 182.412 76.946 183.084 77.45C183.768 77.954 184.146 78.674 184.218 79.61H182.742C182.682 79.13 182.448 78.734 182.04 78.422C181.632 78.11 181.122 77.954 180.51 77.954C179.886 77.954 179.382 78.086 178.998 78.35C178.614 78.602 178.422 78.938 178.422 79.358C178.422 79.67 178.512 79.91 178.692 80.078C178.872 80.246 179.1 80.36 179.376 80.42C179.664 80.48 180.096 80.546 180.672 80.618C181.476 80.714 182.136 80.846 182.652 81.014C183.18 81.182 183.6 81.452 183.912 81.824C184.236 82.196 184.398 82.7 184.398 83.336C184.398 83.888 184.236 84.374 183.912 84.794C183.588 85.214 183.15 85.538 182.598 85.766C182.046 85.994 181.434 86.108 180.762 86.108C179.562 86.108 178.596 85.832 177.864 85.28C177.144 84.728 176.778 83.96 176.766 82.976H178.242ZM185.748 81.41C185.748 80.474 185.928 79.652 186.288 78.944C186.66 78.236 187.176 77.69 187.836 77.306C188.496 76.91 189.252 76.712 190.104 76.712C190.944 76.712 191.688 76.886 192.336 77.234C192.984 77.582 193.494 78.086 193.866 78.746C194.238 79.406 194.436 80.18 194.46 81.068C194.46 81.2 194.448 81.41 194.424 81.698H187.296V81.824C187.32 82.724 187.596 83.444 188.124 83.984C188.652 84.524 189.342 84.794 190.194 84.794C190.854 84.794 191.412 84.632 191.868 84.308C192.336 83.972 192.648 83.51 192.804 82.922H194.298C194.118 83.858 193.668 84.626 192.948 85.226C192.228 85.814 191.346 86.108 190.302 86.108C189.39 86.108 188.592 85.916 187.908 85.532C187.224 85.136 186.69 84.584 186.306 83.876C185.934 83.156 185.748 82.334 185.748 81.41ZM192.93 80.474C192.858 79.694 192.564 79.088 192.048 78.656C191.544 78.224 190.902 78.008 190.122 78.008C189.426 78.008 188.814 78.236 188.286 78.692C187.758 79.148 187.458 79.742 187.386 80.474H192.93ZM209.442 84.65V86H208.632C208.044 86 207.624 85.88 207.372 85.64C207.12 85.4 206.988 85.046 206.976 84.578C206.268 85.598 205.242 86.108 203.898 86.108C202.878 86.108 202.056 85.868 201.432 85.388C200.82 84.908 200.514 84.254 200.514 83.426C200.514 82.502 200.826 81.794 201.45 81.302C202.086 80.81 203.004 80.564 204.204 80.564H206.904V79.934C206.904 79.334 206.7 78.866 206.292 78.53C205.896 78.194 205.338 78.026 204.618 78.026C203.982 78.026 203.454 78.17 203.034 78.458C202.626 78.734 202.374 79.106 202.278 79.574H200.802C200.91 78.674 201.306 77.972 201.99 77.468C202.686 76.964 203.586 76.712 204.69 76.712C205.866 76.712 206.772 77 207.408 77.576C208.056 78.14 208.38 78.956 208.38 80.024V83.984C208.38 84.428 208.584 84.65 208.992 84.65H209.442ZM206.904 81.806H204.06C202.692 81.806 202.008 82.316 202.008 83.336C202.008 83.792 202.188 84.158 202.548 84.434C202.908 84.71 203.394 84.848 204.006 84.848C204.906 84.848 205.614 84.614 206.13 84.146C206.646 83.666 206.904 83.036 206.904 82.256V81.806ZM215.202 76.712C216.054 76.712 216.81 76.898 217.47 77.27C218.142 77.642 218.664 78.182 219.036 78.89C219.42 79.598 219.612 80.438 219.612 81.41C219.612 82.334 219.42 83.15 219.036 83.858C218.664 84.566 218.142 85.118 217.47 85.514C216.798 85.91 216.042 86.108 215.202 86.108C214.458 86.108 213.822 85.976 213.294 85.712C212.766 85.436 212.352 85.064 212.052 84.596V89.6H210.576V76.82H211.854L212.052 78.296C212.82 77.24 213.87 76.712 215.202 76.712ZM215.058 84.794C215.97 84.794 216.702 84.482 217.254 83.858C217.818 83.222 218.1 82.406 218.1 81.41C218.1 80.414 217.818 79.604 217.254 78.98C216.702 78.344 215.97 78.026 215.058 78.026C214.47 78.026 213.942 78.17 213.474 78.458C213.018 78.734 212.664 79.13 212.412 79.646C212.16 80.15 212.034 80.726 212.034 81.374C212.034 82.034 212.16 82.628 212.412 83.156C212.664 83.672 213.018 84.074 213.474 84.362C213.942 84.65 214.47 84.794 215.058 84.794ZM225.925 76.712C226.777 76.712 227.533 76.898 228.193 77.27C228.865 77.642 229.387 78.182 229.759 78.89C230.143 79.598 230.335 80.438 230.335 81.41C230.335 82.334 230.143 83.15 229.759 83.858C229.387 84.566 228.865 85.118 228.193 85.514C227.521 85.91 226.765 86.108 225.925 86.108C225.181 86.108 224.545 85.976 224.017 85.712C223.489 85.436 223.075 85.064 222.775 84.596V89.6H221.299V76.82H222.577L222.775 78.296C223.543 77.24 224.593 76.712 225.925 76.712ZM225.781 84.794C226.693 84.794 227.425 84.482 227.977 83.858C228.541 83.222 228.823 82.406 228.823 81.41C228.823 80.414 228.541 79.604 227.977 78.98C227.425 78.344 226.693 78.026 225.781 78.026C225.193 78.026 224.665 78.17 224.197 78.458C223.741 78.734 223.387 79.13 223.135 79.646C222.883 80.15 222.757 80.726 222.757 81.374C222.757 82.034 222.883 82.628 223.135 83.156C223.387 83.672 223.741 84.074 224.197 84.362C224.665 84.65 225.193 84.794 225.781 84.794ZM232.022 73.4H233.498V86H232.022V73.4ZM236.258 73.274C236.534 73.274 236.762 73.364 236.942 73.544C237.122 73.724 237.212 73.952 237.212 74.228C237.212 74.504 237.122 74.732 236.942 74.912C236.762 75.092 236.534 75.182 236.258 75.182C235.982 75.182 235.754 75.092 235.574 74.912C235.394 74.732 235.304 74.504 235.304 74.228C235.304 73.952 235.394 73.724 235.574 73.544C235.754 73.364 235.982 73.274 236.258 73.274ZM235.52 76.82H236.996V86H235.52V76.82ZM247.208 82.832C247.016 83.852 246.566 84.656 245.858 85.244C245.15 85.82 244.25 86.108 243.158 86.108C242.27 86.108 241.49 85.91 240.818 85.514C240.146 85.118 239.624 84.566 239.252 83.858C238.88 83.138 238.694 82.316 238.694 81.392C238.694 80.468 238.88 79.652 239.252 78.944C239.636 78.236 240.17 77.69 240.854 77.306C241.538 76.91 242.324 76.712 243.212 76.712C244.292 76.712 245.18 77 245.876 77.576C246.584 78.152 247.028 78.944 247.208 79.952H245.714C245.57 79.364 245.27 78.896 244.814 78.548C244.358 78.2 243.806 78.026 243.158 78.026C242.282 78.026 241.568 78.338 241.016 78.962C240.476 79.586 240.206 80.396 240.206 81.392C240.206 82.4 240.476 83.222 241.016 83.858C241.568 84.482 242.282 84.794 243.158 84.794C243.83 84.794 244.394 84.62 244.85 84.272C245.306 83.924 245.6 83.444 245.732 82.832H247.208ZM257.5 84.65V86H256.69C256.102 86 255.682 85.88 255.43 85.64C255.178 85.4 255.046 85.046 255.034 84.578C254.326 85.598 253.3 86.108 251.956 86.108C250.936 86.108 250.114 85.868 249.49 85.388C248.878 84.908 248.572 84.254 248.572 83.426C248.572 82.502 248.884 81.794 249.508 81.302C250.144 80.81 251.062 80.564 252.262 80.564H254.962V79.934C254.962 79.334 254.758 78.866 254.35 78.53C253.954 78.194 253.396 78.026 252.676 78.026C252.04 78.026 251.512 78.17 251.092 78.458C250.684 78.734 250.432 79.106 250.336 79.574H248.86C248.968 78.674 249.364 77.972 250.048 77.468C250.744 76.964 251.644 76.712 252.748 76.712C253.924 76.712 254.83 77 255.466 77.576C256.114 78.14 256.438 78.956 256.438 80.024V83.984C256.438 84.428 256.642 84.65 257.05 84.65H257.5ZM254.962 81.806H252.118C250.75 81.806 250.066 82.316 250.066 83.336C250.066 83.792 250.246 84.158 250.606 84.434C250.966 84.71 251.452 84.848 252.064 84.848C252.964 84.848 253.672 84.614 254.188 84.146C254.704 83.666 254.962 83.036 254.962 82.256V81.806ZM259.247 78.17H257.591V76.82H259.247V74.246H260.723V76.82H263.045V78.17H260.723V83.588C260.723 83.972 260.795 84.248 260.939 84.416C261.095 84.572 261.359 84.65 261.731 84.65H263.333V86H261.641C260.777 86 260.159 85.808 259.787 85.424C259.427 85.04 259.247 84.434 259.247 83.606V78.17ZM265.121 73.274C265.397 73.274 265.625 73.364 265.805 73.544C265.985 73.724 266.075 73.952 266.075 74.228C266.075 74.504 265.985 74.732 265.805 74.912C265.625 75.092 265.397 75.182 265.121 75.182C264.845 75.182 264.617 75.092 264.437 74.912C264.257 74.732 264.167 74.504 264.167 74.228C264.167 73.952 264.257 73.724 264.437 73.544C264.617 73.364 264.845 73.274 265.121 73.274ZM264.383 76.82H265.859V86H264.383V76.82ZM272.111 86.108C271.223 86.108 270.431 85.91 269.735 85.514C269.051 85.118 268.517 84.566 268.133 83.858C267.749 83.15 267.557 82.334 267.557 81.41C267.557 80.486 267.749 79.67 268.133 78.962C268.517 78.254 269.051 77.702 269.735 77.306C270.431 76.91 271.223 76.712 272.111 76.712C272.999 76.712 273.785 76.91 274.469 77.306C275.165 77.702 275.705 78.254 276.089 78.962C276.473 79.67 276.665 80.486 276.665 81.41C276.665 82.334 276.473 83.15 276.089 83.858C275.705 84.566 275.165 85.118 274.469 85.514C273.785 85.91 272.999 86.108 272.111 86.108ZM272.111 84.794C272.711 84.794 273.239 84.65 273.695 84.362C274.163 84.074 274.523 83.672 274.775 83.156C275.027 82.64 275.153 82.058 275.153 81.41C275.153 80.762 275.027 80.18 274.775 79.664C274.523 79.148 274.163 78.746 273.695 78.458C273.239 78.17 272.711 78.026 272.111 78.026C271.511 78.026 270.977 78.17 270.509 78.458C270.053 78.746 269.699 79.148 269.447 79.664C269.195 80.18 269.069 80.762 269.069 81.41C269.069 82.058 269.195 82.64 269.447 83.156C269.699 83.672 270.053 84.074 270.509 84.362C270.977 84.65 271.511 84.794 272.111 84.794ZM282.858 76.712C283.974 76.712 284.868 77.048 285.54 77.72C286.224 78.392 286.566 79.448 286.566 80.888V86H285.09V80.978C285.09 80.03 284.874 79.31 284.442 78.818C284.022 78.314 283.41 78.062 282.606 78.062C281.742 78.062 281.064 78.362 280.572 78.962C280.08 79.562 279.834 80.378 279.834 81.41V86H278.358V76.82H279.636L279.834 78.062C280.53 77.162 281.538 76.712 282.858 76.712ZM289.599 82.976C289.623 83.528 289.863 83.978 290.319 84.326C290.787 84.674 291.387 84.848 292.119 84.848C292.767 84.848 293.289 84.722 293.685 84.47C294.093 84.206 294.297 83.864 294.297 83.444C294.297 83.084 294.201 82.808 294.009 82.616C293.817 82.424 293.565 82.292 293.253 82.22C292.953 82.148 292.521 82.076 291.957 82.004C291.165 81.908 290.517 81.782 290.013 81.626C289.509 81.47 289.101 81.224 288.789 80.888C288.477 80.54 288.321 80.066 288.321 79.466C288.321 78.926 288.471 78.446 288.771 78.026C289.083 77.606 289.503 77.282 290.031 77.054C290.559 76.814 291.153 76.694 291.813 76.694C292.893 76.694 293.769 76.946 294.441 77.45C295.125 77.954 295.503 78.674 295.575 79.61H294.099C294.039 79.13 293.805 78.734 293.397 78.422C292.989 78.11 292.479 77.954 291.867 77.954C291.243 77.954 290.739 78.086 290.355 78.35C289.971 78.602 289.779 78.938 289.779 79.358C289.779 79.67 289.869 79.91 290.049 80.078C290.229 80.246 290.457 80.36 290.733 80.42C291.021 80.48 291.453 80.546 292.029 80.618C292.833 80.714 293.493 80.846 294.009 81.014C294.537 81.182 294.957 81.452 295.269 81.824C295.593 82.196 295.755 82.7 295.755 83.336C295.755 83.888 295.593 84.374 295.269 84.794C294.945 85.214 294.507 85.538 293.955 85.766C293.403 85.994 292.791 86.108 292.119 86.108C290.919 86.108 289.953 85.832 289.221 85.28C288.501 84.728 288.135 83.96 288.123 82.976H289.599ZM297.955 84.11C298.387 84.11 298.729 84.29 298.981 84.65C299.245 84.998 299.377 85.43 299.377 85.946C299.377 86.714 299.149 87.314 298.693 87.746C298.249 88.178 297.631 88.406 296.839 88.43V87.584C297.367 87.572 297.751 87.422 297.991 87.134C298.231 86.846 298.351 86.516 298.351 86.144C298.351 86.036 298.345 85.958 298.333 85.91C298.189 86.054 297.985 86.126 297.721 86.126C297.445 86.126 297.217 86.042 297.037 85.874C296.857 85.706 296.767 85.466 296.767 85.154C296.767 84.854 296.869 84.608 297.073 84.416C297.289 84.212 297.583 84.11 297.955 84.11ZM304.791 76.82H306.375L309.147 84.326L311.901 76.82H313.449L310.011 86H308.229L304.791 76.82ZM313.875 81.41C313.875 80.474 314.055 79.652 314.415 78.944C314.787 78.236 315.303 77.69 315.963 77.306C316.623 76.91 317.379 76.712 318.231 76.712C319.071 76.712 319.815 76.886 320.463 77.234C321.111 77.582 321.621 78.086 321.993 78.746C322.365 79.406 322.563 80.18 322.587 81.068C322.587 81.2 322.575 81.41 322.551 81.698H315.423V81.824C315.447 82.724 315.723 83.444 316.251 83.984C316.779 84.524 317.469 84.794 318.321 84.794C318.981 84.794 319.539 84.632 319.995 84.308C320.463 83.972 320.775 83.51 320.931 82.922H322.425C322.245 83.858 321.795 84.626 321.075 85.226C320.355 85.814 319.473 86.108 318.429 86.108C317.517 86.108 316.719 85.916 316.035 85.532C315.351 85.136 314.817 84.584 314.433 83.876C314.061 83.156 313.875 82.334 313.875 81.41ZM321.057 80.474C320.985 79.694 320.691 79.088 320.175 78.656C319.671 78.224 319.029 78.008 318.249 78.008C317.553 78.008 316.941 78.236 316.413 78.692C315.885 79.148 315.585 79.742 315.513 80.474H321.057ZM328.934 76.82V78.26H328.196C327.32 78.26 326.69 78.554 326.306 79.142C325.934 79.73 325.748 80.456 325.748 81.32V86H324.272V76.82H325.55L325.748 78.206C326.012 77.786 326.354 77.45 326.774 77.198C327.194 76.946 327.776 76.82 328.52 76.82H328.934ZM331.021 73.274C331.297 73.274 331.525 73.364 331.705 73.544C331.885 73.724 331.975 73.952 331.975 74.228C331.975 74.504 331.885 74.732 331.705 74.912C331.525 75.092 331.297 75.182 331.021 75.182C330.745 75.182 330.517 75.092 330.337 74.912C330.157 74.732 330.067 74.504 330.067 74.228C330.067 73.952 330.157 73.724 330.337 73.544C330.517 73.364 330.745 73.274 331.021 73.274ZM330.283 76.82H331.759V86H330.283V76.82ZM334.393 76.82V75.794C334.393 74.978 334.579 74.378 334.951 73.994C335.335 73.598 335.947 73.4 336.787 73.4H338.479V74.75H336.877C336.517 74.75 336.259 74.828 336.103 74.984C335.947 75.14 335.869 75.398 335.869 75.758V76.82H338.461V78.17H335.869V86H334.393V78.17H332.737V76.82H334.393ZM340.23 76.82L343.056 84.308L345.792 76.82H347.358L343.128 87.548C342.912 88.1 342.72 88.514 342.552 88.79C342.384 89.066 342.174 89.27 341.922 89.402C341.67 89.534 341.334 89.6 340.914 89.6H339.15V88.25H340.464C340.752 88.25 340.968 88.22 341.112 88.16C341.256 88.1 341.37 87.998 341.454 87.854C341.55 87.722 341.664 87.494 341.796 87.17L342.264 86.072L338.664 76.82H340.23ZM361.882 73.4V86H360.604L360.406 84.524C359.638 85.58 358.588 86.108 357.256 86.108C356.404 86.108 355.642 85.922 354.97 85.55C354.31 85.178 353.788 84.638 353.404 83.93C353.032 83.222 352.846 82.382 352.846 81.41C352.846 80.486 353.032 79.67 353.404 78.962C353.788 78.254 354.316 77.702 354.988 77.306C355.66 76.91 356.416 76.712 357.256 76.712C358 76.712 358.636 76.85 359.164 77.126C359.692 77.39 360.106 77.756 360.406 78.224V73.4H361.882ZM357.4 84.794C357.988 84.794 358.51 84.656 358.966 84.38C359.434 84.092 359.794 83.696 360.046 83.192C360.298 82.676 360.424 82.094 360.424 81.446C360.424 80.786 360.298 80.198 360.046 79.682C359.794 79.154 359.434 78.746 358.966 78.458C358.51 78.17 357.988 78.026 357.4 78.026C356.488 78.026 355.75 78.344 355.186 78.98C354.634 79.604 354.358 80.414 354.358 81.41C354.358 82.406 354.634 83.222 355.186 83.858C355.75 84.482 356.488 84.794 357.4 84.794ZM368.123 86.108C367.235 86.108 366.443 85.91 365.747 85.514C365.063 85.118 364.529 84.566 364.145 83.858C363.761 83.15 363.569 82.334 363.569 81.41C363.569 80.486 363.761 79.67 364.145 78.962C364.529 78.254 365.063 77.702 365.747 77.306C366.443 76.91 367.235 76.712 368.123 76.712C369.011 76.712 369.797 76.91 370.481 77.306C371.177 77.702 371.717 78.254 372.101 78.962C372.485 79.67 372.677 80.486 372.677 81.41C372.677 82.334 372.485 83.15 372.101 83.858C371.717 84.566 371.177 85.118 370.481 85.514C369.797 85.91 369.011 86.108 368.123 86.108ZM368.123 84.794C368.723 84.794 369.251 84.65 369.707 84.362C370.175 84.074 370.535 83.672 370.787 83.156C371.039 82.64 371.165 82.058 371.165 81.41C371.165 80.762 371.039 80.18 370.787 79.664C370.535 79.148 370.175 78.746 369.707 78.458C369.251 78.17 368.723 78.026 368.123 78.026C367.523 78.026 366.989 78.17 366.521 78.458C366.065 78.746 365.711 79.148 365.459 79.664C365.207 80.18 365.081 80.762 365.081 81.41C365.081 82.058 365.207 82.64 365.459 83.156C365.711 83.672 366.065 84.074 366.521 84.362C366.989 84.65 367.523 84.794 368.123 84.794ZM382.559 82.832C382.367 83.852 381.917 84.656 381.209 85.244C380.501 85.82 379.601 86.108 378.509 86.108C377.621 86.108 376.841 85.91 376.169 85.514C375.497 85.118 374.975 84.566 374.603 83.858C374.231 83.138 374.045 82.316 374.045 81.392C374.045 80.468 374.231 79.652 374.603 78.944C374.987 78.236 375.521 77.69 376.205 77.306C376.889 76.91 377.675 76.712 378.563 76.712C379.643 76.712 380.531 77 381.227 77.576C381.935 78.152 382.379 78.944 382.559 79.952H381.065C380.921 79.364 380.621 78.896 380.165 78.548C379.709 78.2 379.157 78.026 378.509 78.026C377.633 78.026 376.919 78.338 376.367 78.962C375.827 79.586 375.557 80.396 375.557 81.392C375.557 82.4 375.827 83.222 376.367 83.858C376.919 84.482 377.633 84.794 378.509 84.794C379.181 84.794 379.745 84.62 380.201 84.272C380.657 83.924 380.951 83.444 381.083 82.832H382.559ZM392.168 76.82V86H390.89L390.692 84.776C389.996 85.664 389.018 86.108 387.758 86.108C386.666 86.108 385.79 85.772 385.13 85.1C384.47 84.428 384.14 83.372 384.14 81.932V76.82H385.616V81.842C385.616 82.79 385.82 83.516 386.228 84.02C386.648 84.512 387.242 84.758 388.01 84.758C388.85 84.758 389.504 84.458 389.972 83.858C390.452 83.258 390.692 82.442 390.692 81.41V76.82H392.168ZM404.422 76.712C405.454 76.712 406.288 77.036 406.924 77.684C407.572 78.332 407.896 79.34 407.896 80.708V86H406.42V80.798C406.42 79.91 406.228 79.232 405.844 78.764C405.472 78.296 404.938 78.062 404.242 78.062C403.474 78.062 402.868 78.332 402.424 78.872C401.992 79.412 401.776 80.15 401.776 81.086V86H400.3V80.798C400.3 79.91 400.108 79.232 399.724 78.764C399.34 78.296 398.794 78.062 398.086 78.062C397.342 78.062 396.748 78.35 396.304 78.926C395.872 79.49 395.656 80.234 395.656 81.158V86H394.18V76.82H395.458L395.656 78.08C396.316 77.168 397.21 76.712 398.338 76.712C398.998 76.712 399.58 76.862 400.084 77.162C400.6 77.45 400.984 77.882 401.236 78.458C401.896 77.294 402.958 76.712 404.422 76.712ZM409.465 81.41C409.465 80.474 409.645 79.652 410.005 78.944C410.377 78.236 410.893 77.69 411.553 77.306C412.213 76.91 412.969 76.712 413.821 76.712C414.661 76.712 415.405 76.886 416.053 77.234C416.701 77.582 417.211 78.086 417.583 78.746C417.955 79.406 418.153 80.18 418.177 81.068C418.177 81.2 418.165 81.41 418.141 81.698H411.013V81.824C411.037 82.724 411.313 83.444 411.841 83.984C412.369 84.524 413.059 84.794 413.911 84.794C414.571 84.794 415.129 84.632 415.585 84.308C416.053 83.972 416.365 83.51 416.521 82.922H418.015C417.835 83.858 417.385 84.626 416.665 85.226C415.945 85.814 415.063 86.108 414.019 86.108C413.107 86.108 412.309 85.916 411.625 85.532C410.941 85.136 410.407 84.584 410.023 83.876C409.651 83.156 409.465 82.334 409.465 81.41ZM416.647 80.474C416.575 79.694 416.281 79.088 415.765 78.656C415.261 78.224 414.619 78.008 413.839 78.008C413.143 78.008 412.531 78.236 412.003 78.692C411.475 79.148 411.175 79.742 411.103 80.474H416.647ZM424.362 76.712C425.478 76.712 426.372 77.048 427.044 77.72C427.728 78.392 428.07 79.448 428.07 80.888V86H426.594V80.978C426.594 80.03 426.378 79.31 425.946 78.818C425.526 78.314 424.914 78.062 424.11 78.062C423.246 78.062 422.568 78.362 422.076 78.962C421.584 79.562 421.338 80.378 421.338 81.41V86H419.862V76.82H421.14L421.338 78.062C422.034 77.162 423.042 76.712 424.362 76.712ZM430.563 78.17H428.907V76.82H430.563V74.246H432.039V76.82H434.361V78.17H432.039V83.588C432.039 83.972 432.111 84.248 432.255 84.416C432.411 84.572 432.675 84.65 433.047 84.65H434.649V86H432.957C432.093 86 431.475 85.808 431.103 85.424C430.743 85.04 430.563 84.434 430.563 83.606V78.17ZM436.851 82.976C436.875 83.528 437.115 83.978 437.571 84.326C438.039 84.674 438.639 84.848 439.371 84.848C440.019 84.848 440.541 84.722 440.937 84.47C441.345 84.206 441.549 83.864 441.549 83.444C441.549 83.084 441.453 82.808 441.261 82.616C441.069 82.424 440.817 82.292 440.505 82.22C440.205 82.148 439.773 82.076 439.209 82.004C438.417 81.908 437.769 81.782 437.265 81.626C436.761 81.47 436.353 81.224 436.041 80.888C435.729 80.54 435.573 80.066 435.573 79.466C435.573 78.926 435.723 78.446 436.023 78.026C436.335 77.606 436.755 77.282 437.283 77.054C437.811 76.814 438.405 76.694 439.065 76.694C440.145 76.694 441.021 76.946 441.693 77.45C442.377 77.954 442.755 78.674 442.827 79.61H441.351C441.291 79.13 441.057 78.734 440.649 78.422C440.241 78.11 439.731 77.954 439.119 77.954C438.495 77.954 437.991 78.086 437.607 78.35C437.223 78.602 437.031 78.938 437.031 79.358C437.031 79.67 437.121 79.91 437.301 80.078C437.481 80.246 437.709 80.36 437.985 80.42C438.273 80.48 438.705 80.546 439.281 80.618C440.085 80.714 440.745 80.846 441.261 81.014C441.789 81.182 442.209 81.452 442.521 81.824C442.845 82.196 443.007 82.7 443.007 83.336C443.007 83.888 442.845 84.374 442.521 84.794C442.197 85.214 441.759 85.538 441.207 85.766C440.655 85.994 440.043 86.108 439.371 86.108C438.171 86.108 437.205 85.832 436.473 85.28C435.753 84.728 435.387 83.96 435.375 82.976H436.851ZM445.207 84.11C445.639 84.11 445.981 84.29 446.233 84.65C446.497 84.998 446.629 85.43 446.629 85.946C446.629 86.714 446.401 87.314 445.945 87.746C445.501 88.178 444.883 88.406 444.091 88.43V87.584C444.619 87.572 445.003 87.422 445.243 87.134C445.483 86.846 445.603 86.516 445.603 86.144C445.603 86.036 445.597 85.958 445.585 85.91C445.441 86.054 445.237 86.126 444.973 86.126C444.697 86.126 444.469 86.042 444.289 85.874C444.109 85.706 444.019 85.466 444.019 85.154C444.019 84.854 444.121 84.608 444.325 84.416C444.541 84.212 444.835 84.11 445.207 84.11ZM98.594 107.65V109H97.784C97.196 109 96.776 108.88 96.524 108.64C96.272 108.4 96.14 108.046 96.128 107.578C95.42 108.598 94.394 109.108 93.05 109.108C92.03 109.108 91.208 108.868 90.584 108.388C89.972 107.908 89.666 107.254 89.666 106.426C89.666 105.502 89.978 104.794 90.602 104.302C91.238 103.81 92.156 103.564 93.356 103.564H96.056V102.934C96.056 102.334 95.852 101.866 95.444 101.53C95.048 101.194 94.49 101.026 93.77 101.026C93.134 101.026 92.606 101.17 92.186 101.458C91.778 101.734 91.526 102.106 91.43 102.574H89.954C90.062 101.674 90.458 100.972 91.142 100.468C91.838 99.964 92.738 99.712 93.842 99.712C95.018 99.712 95.924 100 96.56 100.576C97.208 101.14 97.532 101.956 97.532 103.024V106.984C97.532 107.428 97.736 107.65 98.144 107.65H98.594ZM96.056 104.806H93.212C91.844 104.806 91.16 105.316 91.16 106.336C91.16 106.792 91.34 107.158 91.7 107.434C92.06 107.71 92.546 107.848 93.158 107.848C94.058 107.848 94.766 107.614 95.282 107.146C95.798 106.666 96.056 106.036 96.056 105.256V104.806ZM104.229 99.712C105.345 99.712 106.239 100.048 106.911 100.72C107.595 101.392 107.937 102.448 107.937 103.888V109H106.461V103.978C106.461 103.03 106.245 102.31 105.813 101.818C105.393 101.314 104.781 101.062 103.977 101.062C103.113 101.062 102.435 101.362 101.943 101.962C101.451 102.562 101.205 103.378 101.205 104.41V109H99.7287V99.82H101.007L101.205 101.062C101.901 100.162 102.909 99.712 104.229 99.712ZM118.531 96.4V109H117.253L117.055 107.524C116.287 108.58 115.237 109.108 113.905 109.108C113.053 109.108 112.291 108.922 111.619 108.55C110.959 108.178 110.437 107.638 110.053 106.93C109.681 106.222 109.495 105.382 109.495 104.41C109.495 103.486 109.681 102.67 110.053 101.962C110.437 101.254 110.965 100.702 111.637 100.306C112.309 99.91 113.065 99.712 113.905 99.712C114.649 99.712 115.285 99.85 115.813 100.126C116.341 100.39 116.755 100.756 117.055 101.224V96.4H118.531ZM114.049 107.794C114.637 107.794 115.159 107.656 115.615 107.38C116.083 107.092 116.443 106.696 116.695 106.192C116.947 105.676 117.073 105.094 117.073 104.446C117.073 103.786 116.947 103.198 116.695 102.682C116.443 102.154 116.083 101.746 115.615 101.458C115.159 101.17 114.637 101.026 114.049 101.026C113.137 101.026 112.399 101.344 111.835 101.98C111.283 102.604 111.007 103.414 111.007 104.41C111.007 105.406 111.283 106.222 111.835 106.858C112.399 107.482 113.137 107.794 114.049 107.794ZM126.404 105.976C126.428 106.528 126.668 106.978 127.124 107.326C127.592 107.674 128.192 107.848 128.924 107.848C129.572 107.848 130.094 107.722 130.49 107.47C130.898 107.206 131.102 106.864 131.102 106.444C131.102 106.084 131.006 105.808 130.814 105.616C130.622 105.424 130.37 105.292 130.058 105.22C129.758 105.148 129.326 105.076 128.762 105.004C127.97 104.908 127.322 104.782 126.818 104.626C126.314 104.47 125.906 104.224 125.594 103.888C125.282 103.54 125.126 103.066 125.126 102.466C125.126 101.926 125.276 101.446 125.576 101.026C125.888 100.606 126.308 100.282 126.836 100.054C127.364 99.814 127.958 99.694 128.618 99.694C129.698 99.694 130.574 99.946 131.246 100.45C131.93 100.954 132.308 101.674 132.38 102.61H130.904C130.844 102.13 130.61 101.734 130.202 101.422C129.794 101.11 129.284 100.954 128.672 100.954C128.048 100.954 127.544 101.086 127.16 101.35C126.776 101.602 126.584 101.938 126.584 102.358C126.584 102.67 126.674 102.91 126.854 103.078C127.034 103.246 127.262 103.36 127.538 103.42C127.826 103.48 128.258 103.546 128.834 103.618C129.638 103.714 130.298 103.846 130.814 104.014C131.342 104.182 131.762 104.452 132.074 104.824C132.398 105.196 132.56 105.7 132.56 106.336C132.56 106.888 132.398 107.374 132.074 107.794C131.75 108.214 131.312 108.538 130.76 108.766C130.208 108.994 129.596 109.108 128.924 109.108C127.724 109.108 126.758 108.832 126.026 108.28C125.306 107.728 124.94 106.96 124.928 105.976H126.404ZM142.425 105.832C142.233 106.852 141.783 107.656 141.075 108.244C140.367 108.82 139.467 109.108 138.375 109.108C137.487 109.108 136.707 108.91 136.035 108.514C135.363 108.118 134.841 107.566 134.469 106.858C134.097 106.138 133.911 105.316 133.911 104.392C133.911 103.468 134.097 102.652 134.469 101.944C134.853 101.236 135.387 100.69 136.071 100.306C136.755 99.91 137.541 99.712 138.429 99.712C139.509 99.712 140.397 100 141.093 100.576C141.801 101.152 142.245 101.944 142.425 102.952H140.931C140.787 102.364 140.487 101.896 140.031 101.548C139.575 101.2 139.023 101.026 138.375 101.026C137.499 101.026 136.785 101.338 136.233 101.962C135.693 102.586 135.423 103.396 135.423 104.392C135.423 105.4 135.693 106.222 136.233 106.858C136.785 107.482 137.499 107.794 138.375 107.794C139.047 107.794 139.611 107.62 140.067 107.272C140.523 106.924 140.817 106.444 140.949 105.832H142.425ZM148.168 109.108C147.28 109.108 146.488 108.91 145.792 108.514C145.108 108.118 144.574 107.566 144.19 106.858C143.806 106.15 143.614 105.334 143.614 104.41C143.614 103.486 143.806 102.67 144.19 101.962C144.574 101.254 145.108 100.702 145.792 100.306C146.488 99.91 147.28 99.712 148.168 99.712C149.056 99.712 149.842 99.91 150.526 100.306C151.222 100.702 151.762 101.254 152.146 101.962C152.53 102.67 152.722 103.486 152.722 104.41C152.722 105.334 152.53 106.15 152.146 106.858C151.762 107.566 151.222 108.118 150.526 108.514C149.842 108.91 149.056 109.108 148.168 109.108ZM148.168 107.794C148.768 107.794 149.296 107.65 149.752 107.362C150.22 107.074 150.58 106.672 150.832 106.156C151.084 105.64 151.21 105.058 151.21 104.41C151.21 103.762 151.084 103.18 150.832 102.664C150.58 102.148 150.22 101.746 149.752 101.458C149.296 101.17 148.768 101.026 148.168 101.026C147.568 101.026 147.034 101.17 146.566 101.458C146.11 101.746 145.756 102.148 145.504 102.664C145.252 103.18 145.126 103.762 145.126 104.41C145.126 105.058 145.252 105.64 145.504 106.156C145.756 106.672 146.11 107.074 146.566 107.362C147.034 107.65 147.568 107.794 148.168 107.794ZM159.076 99.82V101.26H158.338C157.462 101.26 156.832 101.554 156.448 102.142C156.076 102.73 155.89 103.456 155.89 104.32V109H154.414V99.82H155.692L155.89 101.206C156.154 100.786 156.496 100.45 156.916 100.198C157.336 99.946 157.918 99.82 158.662 99.82H159.076ZM159.575 104.41C159.575 103.474 159.755 102.652 160.115 101.944C160.487 101.236 161.003 100.69 161.663 100.306C162.323 99.91 163.079 99.712 163.931 99.712C164.771 99.712 165.515 99.886 166.163 100.234C166.811 100.582 167.321 101.086 167.693 101.746C168.065 102.406 168.263 103.18 168.287 104.068C168.287 104.2 168.275 104.41 168.251 104.698H161.123V104.824C161.147 105.724 161.423 106.444 161.951 106.984C162.479 107.524 163.169 107.794 164.021 107.794C164.681 107.794 165.239 107.632 165.695 107.308C166.163 106.972 166.475 106.51 166.631 105.922H168.125C167.945 106.858 167.495 107.626 166.775 108.226C166.055 108.814 165.173 109.108 164.129 109.108C163.217 109.108 162.419 108.916 161.735 108.532C161.051 108.136 160.517 107.584 160.133 106.876C159.761 106.156 159.575 105.334 159.575 104.41ZM166.757 103.474C166.685 102.694 166.391 102.088 165.875 101.656C165.371 101.224 164.729 101.008 163.949 101.008C163.253 101.008 162.641 101.236 162.113 101.692C161.585 102.148 161.285 102.742 161.213 103.474H166.757ZM182.872 105.832C182.68 106.852 182.23 107.656 181.522 108.244C180.814 108.82 179.914 109.108 178.822 109.108C177.934 109.108 177.154 108.91 176.482 108.514C175.81 108.118 175.288 107.566 174.916 106.858C174.544 106.138 174.358 105.316 174.358 104.392C174.358 103.468 174.544 102.652 174.916 101.944C175.3 101.236 175.834 100.69 176.518 100.306C177.202 99.91 177.988 99.712 178.876 99.712C179.956 99.712 180.844 100 181.54 100.576C182.248 101.152 182.692 101.944 182.872 102.952H181.378C181.234 102.364 180.934 101.896 180.478 101.548C180.022 101.2 179.47 101.026 178.822 101.026C177.946 101.026 177.232 101.338 176.68 101.962C176.14 102.586 175.87 103.396 175.87 104.392C175.87 105.4 176.14 106.222 176.68 106.858C177.232 107.482 177.946 107.794 178.822 107.794C179.494 107.794 180.058 107.62 180.514 107.272C180.97 106.924 181.264 106.444 181.396 105.832H182.872ZM193.164 107.65V109H192.354C191.766 109 191.346 108.88 191.094 108.64C190.842 108.4 190.71 108.046 190.698 107.578C189.99 108.598 188.964 109.108 187.62 109.108C186.6 109.108 185.778 108.868 185.154 108.388C184.542 107.908 184.236 107.254 184.236 106.426C184.236 105.502 184.548 104.794 185.172 104.302C185.808 103.81 186.726 103.564 187.926 103.564H190.626V102.934C190.626 102.334 190.422 101.866 190.014 101.53C189.618 101.194 189.06 101.026 188.34 101.026C187.704 101.026 187.176 101.17 186.756 101.458C186.348 101.734 186.096 102.106 186 102.574H184.524C184.632 101.674 185.028 100.972 185.712 100.468C186.408 99.964 187.308 99.712 188.412 99.712C189.588 99.712 190.494 100 191.13 100.576C191.778 101.14 192.102 101.956 192.102 103.024V106.984C192.102 107.428 192.306 107.65 192.714 107.65H193.164ZM190.626 104.806H187.782C186.414 104.806 185.73 105.316 185.73 106.336C185.73 106.792 185.91 107.158 186.27 107.434C186.63 107.71 187.116 107.848 187.728 107.848C188.628 107.848 189.336 107.614 189.852 107.146C190.368 106.666 190.626 106.036 190.626 105.256V104.806ZM198.799 99.712C199.915 99.712 200.809 100.048 201.481 100.72C202.165 101.392 202.507 102.448 202.507 103.888V109H201.031V103.978C201.031 103.03 200.815 102.31 200.383 101.818C199.963 101.314 199.351 101.062 198.547 101.062C197.683 101.062 197.005 101.362 196.513 101.962C196.021 102.562 195.775 103.378 195.775 104.41V109H194.299V99.82H195.577L195.775 101.062C196.471 100.162 197.479 99.712 198.799 99.712ZM213.101 96.4V109H211.823L211.625 107.524C210.857 108.58 209.807 109.108 208.475 109.108C207.623 109.108 206.861 108.922 206.189 108.55C205.529 108.178 205.007 107.638 204.623 106.93C204.251 106.222 204.065 105.382 204.065 104.41C204.065 103.486 204.251 102.67 204.623 101.962C205.007 101.254 205.535 100.702 206.207 100.306C206.879 99.91 207.635 99.712 208.475 99.712C209.219 99.712 209.855 99.85 210.383 100.126C210.911 100.39 211.325 100.756 211.625 101.224V96.4H213.101ZM208.619 107.794C209.207 107.794 209.729 107.656 210.185 107.38C210.653 107.092 211.013 106.696 211.265 106.192C211.517 105.676 211.643 105.094 211.643 104.446C211.643 103.786 211.517 103.198 211.265 102.682C211.013 102.154 210.653 101.746 210.185 101.458C209.729 101.17 209.207 101.026 208.619 101.026C207.707 101.026 206.969 101.344 206.405 101.98C205.853 102.604 205.577 103.414 205.577 104.41C205.577 105.406 205.853 106.222 206.405 106.858C206.969 107.482 207.707 107.794 208.619 107.794ZM215.85 96.274C216.126 96.274 216.354 96.364 216.534 96.544C216.714 96.724 216.804 96.952 216.804 97.228C216.804 97.504 216.714 97.732 216.534 97.912C216.354 98.092 216.126 98.182 215.85 98.182C215.574 98.182 215.346 98.092 215.166 97.912C214.986 97.732 214.896 97.504 214.896 97.228C214.896 96.952 214.986 96.724 215.166 96.544C215.346 96.364 215.574 96.274 215.85 96.274ZM215.112 99.82H216.588V109H215.112V99.82ZM227.322 96.4V109H226.044L225.846 107.524C225.078 108.58 224.028 109.108 222.696 109.108C221.844 109.108 221.082 108.922 220.41 108.55C219.75 108.178 219.228 107.638 218.844 106.93C218.472 106.222 218.286 105.382 218.286 104.41C218.286 103.486 218.472 102.67 218.844 101.962C219.228 101.254 219.756 100.702 220.428 100.306C221.1 99.91 221.856 99.712 222.696 99.712C223.44 99.712 224.076 99.85 224.604 100.126C225.132 100.39 225.546 100.756 225.846 101.224V96.4H227.322ZM222.84 107.794C223.428 107.794 223.95 107.656 224.406 107.38C224.874 107.092 225.234 106.696 225.486 106.192C225.738 105.676 225.864 105.094 225.864 104.446C225.864 103.786 225.738 103.198 225.486 102.682C225.234 102.154 224.874 101.746 224.406 101.458C223.95 101.17 223.428 101.026 222.84 101.026C221.928 101.026 221.19 101.344 220.626 101.98C220.074 102.604 219.798 103.414 219.798 104.41C219.798 105.406 220.074 106.222 220.626 106.858C221.19 107.482 221.928 107.794 222.84 107.794ZM237.918 107.65V109H237.108C236.52 109 236.1 108.88 235.848 108.64C235.596 108.4 235.464 108.046 235.452 107.578C234.744 108.598 233.718 109.108 232.374 109.108C231.354 109.108 230.532 108.868 229.908 108.388C229.296 107.908 228.99 107.254 228.99 106.426C228.99 105.502 229.302 104.794 229.926 104.302C230.562 103.81 231.48 103.564 232.68 103.564H235.38V102.934C235.38 102.334 235.176 101.866 234.768 101.53C234.372 101.194 233.814 101.026 233.094 101.026C232.458 101.026 231.93 101.17 231.51 101.458C231.102 101.734 230.85 102.106 230.754 102.574H229.278C229.386 101.674 229.782 100.972 230.466 100.468C231.162 99.964 232.062 99.712 233.166 99.712C234.342 99.712 235.248 100 235.884 100.576C236.532 101.14 236.856 101.956 236.856 103.024V106.984C236.856 107.428 237.06 107.65 237.468 107.65H237.918ZM235.38 104.806H232.536C231.168 104.806 230.484 105.316 230.484 106.336C230.484 106.792 230.664 107.158 231.024 107.434C231.384 107.71 231.87 107.848 232.482 107.848C233.382 107.848 234.09 107.614 234.606 107.146C235.122 106.666 235.38 106.036 235.38 105.256V104.806ZM239.665 101.17H238.009V99.82H239.665V97.246H241.141V99.82H243.463V101.17H241.141V106.588C241.141 106.972 241.213 107.248 241.357 107.416C241.513 107.572 241.777 107.65 242.149 107.65H243.751V109H242.059C241.195 109 240.577 108.808 240.205 108.424C239.845 108.04 239.665 107.434 239.665 106.606V101.17ZM244.248 104.41C244.248 103.474 244.428 102.652 244.788 101.944C245.16 101.236 245.676 100.69 246.336 100.306C246.996 99.91 247.752 99.712 248.604 99.712C249.444 99.712 250.188 99.886 250.836 100.234C251.484 100.582 251.994 101.086 252.366 101.746C252.738 102.406 252.936 103.18 252.96 104.068C252.96 104.2 252.948 104.41 252.924 104.698H245.796V104.824C245.82 105.724 246.096 106.444 246.624 106.984C247.152 107.524 247.842 107.794 248.694 107.794C249.354 107.794 249.912 107.632 250.368 107.308C250.836 106.972 251.148 106.51 251.304 105.922H252.798C252.618 106.858 252.168 107.626 251.448 108.226C250.728 108.814 249.846 109.108 248.802 109.108C247.89 109.108 247.092 108.916 246.408 108.532C245.724 108.136 245.19 107.584 244.806 106.876C244.434 106.156 244.248 105.334 244.248 104.41ZM251.43 103.474C251.358 102.694 251.064 102.088 250.548 101.656C250.044 101.224 249.402 101.008 248.622 101.008C247.926 101.008 247.314 101.236 246.786 101.692C246.258 102.148 245.958 102.742 245.886 103.474H251.43ZM255.762 105.976C255.786 106.528 256.026 106.978 256.482 107.326C256.95 107.674 257.55 107.848 258.282 107.848C258.93 107.848 259.452 107.722 259.848 107.47C260.256 107.206 260.46 106.864 260.46 106.444C260.46 106.084 260.364 105.808 260.172 105.616C259.98 105.424 259.728 105.292 259.416 105.22C259.116 105.148 258.684 105.076 258.12 105.004C257.328 104.908 256.68 104.782 256.176 104.626C255.672 104.47 255.264 104.224 254.952 103.888C254.64 103.54 254.484 103.066 254.484 102.466C254.484 101.926 254.634 101.446 254.934 101.026C255.246 100.606 255.666 100.282 256.194 100.054C256.722 99.814 257.316 99.694 257.976 99.694C259.056 99.694 259.932 99.946 260.604 100.45C261.288 100.954 261.666 101.674 261.738 102.61H260.262C260.202 102.13 259.968 101.734 259.56 101.422C259.152 101.11 258.642 100.954 258.03 100.954C257.406 100.954 256.902 101.086 256.518 101.35C256.134 101.602 255.942 101.938 255.942 102.358C255.942 102.67 256.032 102.91 256.212 103.078C256.392 103.246 256.62 103.36 256.896 103.42C257.184 103.48 257.616 103.546 258.192 103.618C258.996 103.714 259.656 103.846 260.172 104.014C260.7 104.182 261.12 104.452 261.432 104.824C261.756 105.196 261.918 105.7 261.918 106.336C261.918 106.888 261.756 107.374 261.432 107.794C261.108 108.214 260.67 108.538 260.118 108.766C259.566 108.994 258.954 109.108 258.282 109.108C257.082 109.108 256.116 108.832 255.384 108.28C254.664 107.728 254.298 106.96 254.286 105.976H255.762ZM276.889 107.65V109H276.079C275.491 109 275.071 108.88 274.819 108.64C274.567 108.4 274.435 108.046 274.423 107.578C273.715 108.598 272.689 109.108 271.345 109.108C270.325 109.108 269.503 108.868 268.879 108.388C268.267 107.908 267.961 107.254 267.961 106.426C267.961 105.502 268.273 104.794 268.897 104.302C269.533 103.81 270.451 103.564 271.651 103.564H274.351V102.934C274.351 102.334 274.147 101.866 273.739 101.53C273.343 101.194 272.785 101.026 272.065 101.026C271.429 101.026 270.901 101.17 270.481 101.458C270.073 101.734 269.821 102.106 269.725 102.574H268.249C268.357 101.674 268.753 100.972 269.437 100.468C270.133 99.964 271.033 99.712 272.137 99.712C273.313 99.712 274.219 100 274.855 100.576C275.503 101.14 275.827 101.956 275.827 103.024V106.984C275.827 107.428 276.031 107.65 276.439 107.65H276.889ZM274.351 104.806H271.507C270.139 104.806 269.455 105.316 269.455 106.336C269.455 106.792 269.635 107.158 269.995 107.434C270.355 107.71 270.841 107.848 271.453 107.848C272.353 107.848 273.061 107.614 273.577 107.146C274.093 106.666 274.351 106.036 274.351 105.256V104.806ZM286.736 99.82V108.55C286.736 111.322 285.218 112.708 282.182 112.708C280.994 112.708 280.022 112.438 279.266 111.898C278.522 111.358 278.09 110.59 277.97 109.594H279.482C279.602 110.17 279.908 110.614 280.4 110.926C280.892 111.238 281.522 111.394 282.29 111.394C284.27 111.394 285.26 110.428 285.26 108.496V107.416C284.6 108.544 283.55 109.108 282.11 109.108C281.258 109.108 280.496 108.922 279.824 108.55C279.164 108.178 278.642 107.638 278.258 106.93C277.886 106.222 277.7 105.382 277.7 104.41C277.7 103.486 277.886 102.67 278.258 101.962C278.642 101.254 279.17 100.702 279.842 100.306C280.514 99.91 281.27 99.712 282.11 99.712C282.854 99.712 283.49 99.862 284.018 100.162C284.546 100.45 284.96 100.864 285.26 101.404L285.458 99.82H286.736ZM282.254 107.794C282.842 107.794 283.364 107.656 283.82 107.38C284.288 107.092 284.648 106.696 284.9 106.192C285.152 105.676 285.278 105.094 285.278 104.446C285.278 103.786 285.152 103.198 284.9 102.682C284.648 102.154 284.288 101.746 283.82 101.458C283.364 101.17 282.842 101.026 282.254 101.026C281.342 101.026 280.604 101.344 280.04 101.98C279.488 102.604 279.212 103.414 279.212 104.41C279.212 105.406 279.488 106.222 280.04 106.858C280.604 107.482 281.342 107.794 282.254 107.794ZM297.332 107.65V109H296.522C295.934 109 295.514 108.88 295.262 108.64C295.01 108.4 294.878 108.046 294.866 107.578C294.158 108.598 293.132 109.108 291.788 109.108C290.768 109.108 289.946 108.868 289.322 108.388C288.71 107.908 288.404 107.254 288.404 106.426C288.404 105.502 288.716 104.794 289.34 104.302C289.976 103.81 290.894 103.564 292.094 103.564H294.794V102.934C294.794 102.334 294.59 101.866 294.182 101.53C293.786 101.194 293.228 101.026 292.508 101.026C291.872 101.026 291.344 101.17 290.924 101.458C290.516 101.734 290.264 102.106 290.168 102.574H288.692C288.8 101.674 289.196 100.972 289.88 100.468C290.576 99.964 291.476 99.712 292.58 99.712C293.756 99.712 294.662 100 295.298 100.576C295.946 101.14 296.27 101.956 296.27 103.024V106.984C296.27 107.428 296.474 107.65 296.882 107.65H297.332ZM294.794 104.806H291.95C290.582 104.806 289.898 105.316 289.898 106.336C289.898 106.792 290.078 107.158 290.438 107.434C290.798 107.71 291.284 107.848 291.896 107.848C292.796 107.848 293.504 107.614 294.02 107.146C294.536 106.666 294.794 106.036 294.794 105.256V104.806ZM299.205 96.274C299.481 96.274 299.709 96.364 299.889 96.544C300.069 96.724 300.159 96.952 300.159 97.228C300.159 97.504 300.069 97.732 299.889 97.912C299.709 98.092 299.481 98.182 299.205 98.182C298.929 98.182 298.701 98.092 298.521 97.912C298.341 97.732 298.251 97.504 298.251 97.228C298.251 96.952 298.341 96.724 298.521 96.544C298.701 96.364 298.929 96.274 299.205 96.274ZM298.467 99.82H299.943V109H298.467V99.82ZM306.465 99.712C307.581 99.712 308.475 100.048 309.147 100.72C309.831 101.392 310.173 102.448 310.173 103.888V109H308.697V103.978C308.697 103.03 308.481 102.31 308.049 101.818C307.629 101.314 307.017 101.062 306.213 101.062C305.349 101.062 304.671 101.362 304.179 101.962C303.687 102.562 303.441 103.378 303.441 104.41V109H301.965V99.82H303.243L303.441 101.062C304.137 100.162 305.145 99.712 306.465 99.712ZM313.207 105.976C313.231 106.528 313.471 106.978 313.927 107.326C314.395 107.674 314.995 107.848 315.727 107.848C316.375 107.848 316.897 107.722 317.293 107.47C317.701 107.206 317.905 106.864 317.905 106.444C317.905 106.084 317.809 105.808 317.617 105.616C317.425 105.424 317.173 105.292 316.861 105.22C316.561 105.148 316.129 105.076 315.565 105.004C314.773 104.908 314.125 104.782 313.621 104.626C313.117 104.47 312.709 104.224 312.397 103.888C312.085 103.54 311.929 103.066 311.929 102.466C311.929 101.926 312.079 101.446 312.379 101.026C312.691 100.606 313.111 100.282 313.639 100.054C314.167 99.814 314.761 99.694 315.421 99.694C316.501 99.694 317.377 99.946 318.049 100.45C318.733 100.954 319.111 101.674 319.183 102.61H317.707C317.647 102.13 317.413 101.734 317.005 101.422C316.597 101.11 316.087 100.954 315.475 100.954C314.851 100.954 314.347 101.086 313.963 101.35C313.579 101.602 313.387 101.938 313.387 102.358C313.387 102.67 313.477 102.91 313.657 103.078C313.837 103.246 314.065 103.36 314.341 103.42C314.629 103.48 315.061 103.546 315.637 103.618C316.441 103.714 317.101 103.846 317.617 104.014C318.145 104.182 318.565 104.452 318.877 104.824C319.201 105.196 319.363 105.7 319.363 106.336C319.363 106.888 319.201 107.374 318.877 107.794C318.553 108.214 318.115 108.538 317.563 108.766C317.011 108.994 316.399 109.108 315.727 109.108C314.527 109.108 313.561 108.832 312.829 108.28C312.109 107.728 311.743 106.96 311.731 105.976H313.207ZM321.649 101.17H319.993V99.82H321.649V97.246H323.125V99.82H325.447V101.17H323.125V106.588C323.125 106.972 323.197 107.248 323.341 107.416C323.497 107.572 323.761 107.65 324.133 107.65H325.735V109H324.043C323.179 109 322.561 108.808 322.189 108.424C321.829 108.04 321.649 107.434 321.649 106.606V101.17ZM339.686 105.832C339.494 106.852 339.044 107.656 338.336 108.244C337.628 108.82 336.728 109.108 335.636 109.108C334.748 109.108 333.968 108.91 333.296 108.514C332.624 108.118 332.102 107.566 331.73 106.858C331.358 106.138 331.172 105.316 331.172 104.392C331.172 103.468 331.358 102.652 331.73 101.944C332.114 101.236 332.648 100.69 333.332 100.306C334.016 99.91 334.802 99.712 335.69 99.712C336.77 99.712 337.658 100 338.354 100.576C339.062 101.152 339.506 101.944 339.686 102.952H338.192C338.048 102.364 337.748 101.896 337.292 101.548C336.836 101.2 336.284 101.026 335.636 101.026C334.76 101.026 334.046 101.338 333.494 101.962C332.954 102.586 332.684 103.396 332.684 104.392C332.684 105.4 332.954 106.222 333.494 106.858C334.046 107.482 334.76 107.794 335.636 107.794C336.308 107.794 336.872 107.62 337.328 107.272C337.784 106.924 338.078 106.444 338.21 105.832H339.686ZM346.055 99.82V101.26H345.317C344.441 101.26 343.811 101.554 343.427 102.142C343.055 102.73 342.869 103.456 342.869 104.32V109H341.393V99.82H342.671L342.869 101.206C343.133 100.786 343.475 100.45 343.895 100.198C344.315 99.946 344.897 99.82 345.641 99.82H346.055ZM348.142 96.274C348.418 96.274 348.646 96.364 348.826 96.544C349.006 96.724 349.096 96.952 349.096 97.228C349.096 97.504 349.006 97.732 348.826 97.912C348.646 98.092 348.418 98.182 348.142 98.182C347.866 98.182 347.638 98.092 347.458 97.912C347.278 97.732 347.188 97.504 347.188 97.228C347.188 96.952 347.278 96.724 347.458 96.544C347.638 96.364 347.866 96.274 348.142 96.274ZM347.404 99.82H348.88V109H347.404V99.82ZM351.515 101.17H349.859V99.82H351.515V97.246H352.991V99.82H355.313V101.17H352.991V106.588C352.991 106.972 353.063 107.248 353.207 107.416C353.363 107.572 353.627 107.65 353.999 107.65H355.601V109H353.909C353.045 109 352.427 108.808 352.055 108.424C351.695 108.04 351.515 107.434 351.515 106.606V101.17ZM356.098 104.41C356.098 103.474 356.278 102.652 356.638 101.944C357.01 101.236 357.526 100.69 358.186 100.306C358.846 99.91 359.602 99.712 360.454 99.712C361.294 99.712 362.038 99.886 362.686 100.234C363.334 100.582 363.844 101.086 364.216 101.746C364.588 102.406 364.786 103.18 364.81 104.068C364.81 104.2 364.798 104.41 364.774 104.698H357.646V104.824C357.67 105.724 357.946 106.444 358.474 106.984C359.002 107.524 359.692 107.794 360.544 107.794C361.204 107.794 361.762 107.632 362.218 107.308C362.686 106.972 362.998 106.51 363.154 105.922H364.648C364.468 106.858 364.018 107.626 363.298 108.226C362.578 108.814 361.696 109.108 360.652 109.108C359.74 109.108 358.942 108.916 358.258 108.532C357.574 108.136 357.04 107.584 356.656 106.876C356.284 106.156 356.098 105.334 356.098 104.41ZM363.28 103.474C363.208 102.694 362.914 102.088 362.398 101.656C361.894 101.224 361.252 101.008 360.472 101.008C359.776 101.008 359.164 101.236 358.636 101.692C358.108 102.148 357.808 102.742 357.736 103.474H363.28ZM371.156 99.82V101.26H370.418C369.542 101.26 368.912 101.554 368.528 102.142C368.156 102.73 367.97 103.456 367.97 104.32V109H366.494V99.82H367.772L367.97 101.206C368.234 100.786 368.576 100.45 368.996 100.198C369.416 99.946 369.998 99.82 370.742 99.82H371.156ZM373.244 96.274C373.52 96.274 373.748 96.364 373.928 96.544C374.108 96.724 374.198 96.952 374.198 97.228C374.198 97.504 374.108 97.732 373.928 97.912C373.748 98.092 373.52 98.182 373.244 98.182C372.968 98.182 372.74 98.092 372.56 97.912C372.38 97.732 372.29 97.504 372.29 97.228C372.29 96.952 372.38 96.724 372.56 96.544C372.74 96.364 372.968 96.274 373.244 96.274ZM372.506 99.82H373.982V109H372.506V99.82ZM384.59 107.65V109H383.78C383.192 109 382.772 108.88 382.52 108.64C382.268 108.4 382.136 108.046 382.124 107.578C381.416 108.598 380.39 109.108 379.046 109.108C378.026 109.108 377.204 108.868 376.58 108.388C375.968 107.908 375.662 107.254 375.662 106.426C375.662 105.502 375.974 104.794 376.598 104.302C377.234 103.81 378.152 103.564 379.352 103.564H382.052V102.934C382.052 102.334 381.848 101.866 381.44 101.53C381.044 101.194 380.486 101.026 379.766 101.026C379.13 101.026 378.602 101.17 378.182 101.458C377.774 101.734 377.522 102.106 377.426 102.574H375.95C376.058 101.674 376.454 100.972 377.138 100.468C377.834 99.964 378.734 99.712 379.838 99.712C381.014 99.712 381.92 100 382.556 100.576C383.204 101.14 383.528 101.956 383.528 103.024V106.984C383.528 107.428 383.732 107.65 384.14 107.65H384.59ZM382.052 104.806H379.208C377.84 104.806 377.156 105.316 377.156 106.336C377.156 106.792 377.336 107.158 377.696 107.434C378.056 107.71 378.542 107.848 379.154 107.848C380.054 107.848 380.762 107.614 381.278 107.146C381.794 106.666 382.052 106.036 382.052 105.256V104.806ZM385.545 108.1C385.545 107.8 385.641 107.56 385.833 107.38C386.025 107.188 386.271 107.092 386.571 107.092C386.871 107.092 387.117 107.188 387.309 107.38C387.501 107.56 387.597 107.8 387.597 108.1C387.597 108.4 387.501 108.646 387.309 108.838C387.117 109.018 386.871 109.108 386.571 109.108C386.271 109.108 386.025 109.018 385.833 108.838C385.641 108.646 385.545 108.4 385.545 108.1Z" fill="black"/>
<rect x="46" y="72" width="31" height="31" rx="4" fill="#5A7E83"/>
<path d="M68.2222 96V94.1112C68.2222 93.1092 67.8242 92.1483 67.1157 91.4399C66.4073 90.7314 65.4464 90.3334 64.4444 90.3334H58.7778C57.7758 90.3334 56.815 90.7314 56.1065 91.4399C55.398 92.1483 55 93.1092 55 94.1112V96" stroke="white" stroke-width="1.5" stroke-linecap="round" stroke-linejoin="round"/>
<path d="M61.6098 86.5556C63.6962 86.5556 65.3876 84.8642 65.3876 82.7778C65.3876 80.6914 63.6962 79 61.6098 79C59.5234 79 57.832 80.6914 57.832 82.7778C57.832 84.8642 59.5234 86.5556 61.6098 86.5556Z" stroke="white" stroke-width="1.5" stroke-linecap="round" stroke-linejoin="round"/>
<path d="M491.833 278.5C491.833 279.973 493.027 281.167 494.5 281.167C495.973 281.167 497.167 279.973 497.167 278.5C497.167 277.027 495.973 275.833 494.5 275.833C493.027 275.833 491.833 277.027 491.833 278.5ZM246 159L245.545 159.208C245.815 159.799 246.096 160.398 246.388 161.005L246.839 160.788L247.289 160.571C247 159.97 246.722 159.377 246.455 158.792L246 159ZM248.665 164.394L248.223 164.628C248.841 165.794 249.497 166.982 250.192 168.191L250.625 167.942L251.059 167.693C250.37 166.493 249.719 165.315 249.107 164.16L248.665 164.394ZM252.694 171.417L252.269 171.679C252.957 172.797 253.678 173.93 254.429 175.077L254.847 174.803L255.266 174.529C254.519 173.389 253.804 172.264 253.12 171.155L252.694 171.417ZM257.105 178.149L256.694 178.434C257.454 179.53 258.243 180.637 259.059 181.754L259.463 181.458L259.866 181.163C259.055 180.053 258.271 178.953 257.515 177.864L257.105 178.149ZM261.87 184.67L261.474 184.975C262.282 186.028 263.116 187.088 263.973 188.154L264.363 187.841L264.752 187.528C263.899 186.467 263.071 185.413 262.267 184.366L261.87 184.67ZM266.947 190.983L266.564 191.304C267.414 192.315 268.286 193.331 269.18 194.349L269.556 194.02L269.932 193.69C269.043 192.676 268.175 191.666 267.33 190.661L266.947 190.983ZM272.258 197.037L271.889 197.374C272.787 198.357 273.706 199.343 274.645 200.33L275.007 199.985L275.369 199.641C274.435 198.658 273.521 197.678 272.627 196.7L272.258 197.037ZM277.814 202.88L277.459 203.231C278.401 204.184 279.362 205.137 280.342 206.091L280.69 205.733L281.039 205.375C280.064 204.425 279.107 203.476 278.17 202.528L277.814 202.88ZM283.596 208.509L283.254 208.874C284.235 209.793 285.233 210.713 286.25 211.631L286.585 211.26L286.92 210.889C285.908 209.975 284.914 209.06 283.938 208.144L283.596 208.509ZM289.584 213.922L289.256 214.299C290.271 215.184 291.303 216.067 292.353 216.949L292.674 216.566L292.996 216.183C291.951 215.305 290.924 214.426 289.913 213.545L289.584 213.922ZM295.763 219.116L295.448 219.504C296.495 220.353 297.558 221.2 298.637 222.044L298.945 221.65L299.253 221.256C298.179 220.416 297.121 219.573 296.078 218.728L295.763 219.116ZM302.121 224.091L301.819 224.49C302.894 225.302 303.985 226.111 305.09 226.916L305.384 226.512L305.679 226.107C304.578 225.306 303.493 224.5 302.422 223.692L302.121 224.091ZM308.645 228.846L308.357 229.255C309.458 230.028 310.573 230.799 311.702 231.565L311.982 231.151L312.263 230.737C311.139 229.974 310.029 229.207 308.933 228.437L308.645 228.846ZM315.326 233.379L315.052 233.798C316.176 234.533 317.312 235.264 318.463 235.99L318.73 235.568L318.997 235.145C317.851 234.421 316.719 233.693 315.6 232.961L315.326 233.379ZM322.155 237.692L321.895 238.119C323.039 238.815 324.195 239.507 325.365 240.194L325.618 239.762L325.871 239.331C324.706 238.647 323.554 237.958 322.415 237.265L322.155 237.692ZM329.124 241.783L328.878 242.219C330.039 242.876 331.213 243.528 332.399 244.174L332.639 243.735L332.878 243.296C331.697 242.652 330.527 242.003 329.37 241.348L329.124 241.783ZM336.225 245.654L335.993 246.097C337.17 246.715 338.359 247.327 339.56 247.934L339.786 247.487L340.011 247.041C338.815 246.437 337.631 245.827 336.458 245.211L336.225 245.654ZM343.416 249.286L343.197 249.736C344.4 250.321 345.614 250.899 346.84 251.472L347.052 251.019L347.263 250.566C346.042 249.995 344.833 249.419 343.634 248.837L343.416 249.286ZM350.717 252.698L350.513 253.154C351.742 253.706 352.982 254.251 354.234 254.791L354.432 254.331L354.63 253.872C353.383 253.335 352.147 252.791 350.922 252.242L350.717 252.698ZM358.127 255.891L357.936 256.353C359.18 256.867 360.435 257.375 361.701 257.877L361.885 257.412L362.069 256.947C360.808 256.448 359.558 255.941 358.318 255.429L358.127 255.891ZM365.639 258.867L365.461 259.335C366.713 259.809 367.975 260.278 369.246 260.739L369.417 260.269L369.588 259.799C368.32 259.339 367.063 258.873 365.816 258.4L365.639 258.867ZM373.25 261.628L373.086 262.101C374.343 262.536 375.609 262.965 376.885 263.387L377.042 262.913L377.199 262.438C375.927 262.017 374.666 261.59 373.413 261.156L373.25 261.628ZM380.892 264.156L380.741 264.633C382.022 265.037 383.313 265.434 384.613 265.824L384.757 265.345L384.9 264.866C383.605 264.477 382.319 264.082 381.042 263.679L380.892 264.156ZM388.612 266.472L388.474 266.953C389.771 267.323 391.076 267.685 392.391 268.041L392.522 267.558L392.652 267.075C391.342 266.721 390.041 266.36 388.749 265.991L388.612 266.472ZM396.414 268.582L396.29 269.066C397.586 269.398 398.89 269.722 400.203 270.04L400.321 269.554L400.438 269.068C399.129 268.751 397.829 268.428 396.538 268.097L396.414 268.582ZM404.28 270.483L404.169 270.97C405.468 271.266 406.776 271.555 408.092 271.836L408.197 271.348L408.301 270.859C406.989 270.578 405.686 270.29 404.391 269.995L404.28 270.483ZM412.144 272.166L412.045 272.656C413.371 272.922 414.706 273.181 416.049 273.432L416.141 272.941L416.233 272.449C414.894 272.199 413.564 271.941 412.242 271.675L412.144 272.166ZM420.08 273.653L419.994 274.145C421.314 274.375 422.642 274.598 423.978 274.814L424.057 274.32L424.137 273.827C422.805 273.612 421.482 273.389 420.166 273.16L420.08 273.653ZM428.082 274.945L428.009 275.439C429.324 275.635 430.646 275.823 431.976 276.005L432.044 275.509L432.112 275.014C430.785 274.833 429.467 274.645 428.156 274.45L428.082 274.945ZM436.042 276.031L435.98 276.527C437.322 276.693 438.672 276.853 440.029 277.005L440.085 276.508L440.14 276.011C438.787 275.86 437.441 275.701 436.103 275.534L436.042 276.031ZM444.07 276.932L444.02 277.429C445.351 277.563 446.689 277.689 448.034 277.808L448.078 277.31L448.122 276.812C446.781 276.693 445.447 276.567 444.12 276.434L444.07 276.932ZM452.13 277.646L452.091 278.145C453.424 278.248 454.763 278.343 456.109 278.432L456.142 277.933L456.175 277.434C454.832 277.346 453.497 277.25 452.168 277.148L452.13 277.646ZM460.152 278.175L460.125 278.674C461.47 278.748 462.823 278.814 464.182 278.874L464.203 278.374L464.225 277.875C462.87 277.815 461.521 277.749 460.18 277.676L460.152 278.175ZM468.247 278.529L468.231 279.029C469.561 279.072 470.897 279.109 472.24 279.139L472.251 278.639L472.262 278.139C470.923 278.109 469.59 278.073 468.264 278.029L468.247 278.529ZM476.294 278.708L476.288 279.208C477.644 279.223 479.006 279.232 480.374 279.234L480.375 278.734L480.376 278.234C479.011 278.232 477.652 278.223 476.3 278.208L476.294 278.708ZM484.366 278.718L484.37 279.218C485.708 279.206 487.052 279.188 488.402 279.162L488.392 278.662L488.383 278.162C487.036 278.188 485.696 278.207 484.361 278.218L484.366 278.718ZM492.455 278.564L492.469 279.064C493.15 279.045 493.833 279.023 494.517 279L494.5 278.5L494.483 278C493.801 278.024 493.12 278.045 492.44 278.065L492.455 278.564Z" fill="white"/>
</svg>
