<svg width="428" height="110" viewBox="0 0 428 110" fill="none" xmlns="http://www.w3.org/2000/svg">
<path d="M155.504 1.62963L153.123 14.0772C150.446 8.14815 142.868 0 127.712 0C106.004 0 88.0323 17.0418 88.0323 43.5839C88.0323 65.6706 100.964 78.2742 118.796 78.2742C130.841 78.2742 139.305 71.1663 143.164 64.9251L140.939 76.6446H159.658L174.241 1.62963H155.504ZM125.488 61.8219C113.895 61.8219 107.047 53.6738 107.047 42.249C107.047 28.7612 115.668 16.4523 130.233 16.4523C141.669 16.4523 148.517 24.6005 148.517 36.0252C148.517 49.9638 139.01 61.8219 125.488 61.8219Z" fill="url(#paint0_linear_640_1166)"/>
<path d="M172.172 76.6447H190.891L205.612 1.62972H186.737L172.172 76.6447Z" fill="url(#paint1_linear_640_1166)"/>
<path d="M269.715 12.8983C268.081 9.77778 260.503 0 244.6 0C225.134 0 209.074 14.8227 209.074 39.1285C209.074 63.4342 225.134 78.2742 244.443 78.2742C260.938 78.2742 268.377 67.8897 269.871 64.7864V76.6446H288.747V1.62963H269.715V12.8983ZM249.501 61.6659C236.726 61.6659 228.401 51.8881 228.401 39.1285C228.401 26.3688 236.726 16.591 249.501 16.591C262.276 16.591 270.01 26.3688 270.01 39.1285C270.01 51.8881 261.842 61.6659 249.501 61.6659Z" fill="url(#paint2_linear_640_1166)"/>
<path d="M341.182 0C327.504 0 319.039 8.89362 316.206 14.2333V1.62963H297.331V76.6446H316.206V36.6147C316.206 25.0512 323.645 16.9031 335.081 16.9031C346.518 16.9031 353.366 24.7565 353.366 36.6147V76.6446H372.537V32.9046C372.537 13.7825 360.058 0 341.182 0Z" fill="url(#paint3_linear_640_1166)"/>
<path d="M428 33.8756V17.718H400.208V1.62972H381.176V52.1829C381.176 68.2018 389.502 76.6447 407.195 76.6447H428V59.7416H413.574C403.319 59.7416 400.191 55.7369 400.191 46.3925V33.8582H427.983L428 33.8756Z" fill="url(#paint4_linear_640_1166)"/>
<path d="M61.5276 13.037C60.0329 10.0725 52.0204 3.90718e-07 35.8042 3.90718e-07C16.1988 3.90718e-07 0 14.528 0 38.9898C0 63.4515 16.1988 77.9795 35.8216 77.9795C52.1768 77.9795 60.0502 67.595 61.684 64.3357V74.7202C61.684 87.1678 53.8106 94.2931 40.132 94.2931C27.9481 94.2931 23.4813 88.0693 22.4385 86.5784H0.590943C1.77283 92.0567 11.141 110 40.132 110C67.3327 110 80.5594 95.6281 80.5594 75.015V1.62963H61.5276V13.037ZM40.7229 61.3712C27.6353 61.3712 19.3099 51.4374 19.3099 38.9898C19.3099 26.5422 27.6353 16.6084 40.7229 16.6084C53.8106 16.6084 61.8231 26.2474 61.8231 38.9898C61.8231 51.7321 53.4977 61.3712 40.7229 61.3712Z" fill="url(#paint5_linear_640_1166)"/>
<defs>
<linearGradient id="paint0_linear_640_1166" x1="-32.3788" y1="110" x2="450.617" y2="-0.533576" gradientUnits="userSpaceOnUse">
<stop stop-color="#011955"/>
<stop offset="0.5" stop-color="#5C86AE"/>
<stop offset="1" stop-color="#08444C"/>
</linearGradient>
<linearGradient id="paint1_linear_640_1166" x1="-32.3788" y1="110" x2="450.617" y2="-0.533576" gradientUnits="userSpaceOnUse">
<stop stop-color="#011955"/>
<stop offset="0.5" stop-color="#5C86AE"/>
<stop offset="1" stop-color="#08444C"/>
</linearGradient>
<linearGradient id="paint2_linear_640_1166" x1="-32.3788" y1="110" x2="450.617" y2="-0.533576" gradientUnits="userSpaceOnUse">
<stop stop-color="#011955"/>
<stop offset="0.5" stop-color="#5C86AE"/>
<stop offset="1" stop-color="#08444C"/>
</linearGradient>
<linearGradient id="paint3_linear_640_1166" x1="-32.3788" y1="110" x2="450.617" y2="-0.533576" gradientUnits="userSpaceOnUse">
<stop stop-color="#011955"/>
<stop offset="0.5" stop-color="#5C86AE"/>
<stop offset="1" stop-color="#08444C"/>
</linearGradient>
<linearGradient id="paint4_linear_640_1166" x1="-32.3788" y1="110" x2="450.617" y2="-0.533576" gradientUnits="userSpaceOnUse">
<stop stop-color="#011955"/>
<stop offset="0.5" stop-color="#5C86AE"/>
<stop offset="1" stop-color="#08444C"/>
</linearGradient>
<linearGradient id="paint5_linear_640_1166" x1="-32.3788" y1="110" x2="450.617" y2="-0.533576" gradientUnits="userSpaceOnUse">
<stop stop-color="#011955"/>
<stop offset="0.5" stop-color="#5C86AE"/>
<stop offset="1" stop-color="#08444C"/>
</linearGradient>
</defs>
</svg>
