<svg width="970" height="250" viewBox="0 0 970 250" fill="none" xmlns="http://www.w3.org/2000/svg">
<mask id="mask0_1555_6274" style="mask-type:alpha" maskUnits="userSpaceOnUse" x="0" y="0" width="970" height="250">
<path d="M352.427 3.70274L347.031 31.9854C340.964 18.5137 323.79 0 289.441 0C240.242 0 199.512 38.7212 199.512 99.0287C199.512 149.213 228.819 177.85 269.234 177.85C296.531 177.85 315.715 161.7 324.46 147.519L319.418 174.147H361.842L394.89 3.70274H352.467H352.427ZM284.399 140.468C258.125 140.468 242.605 121.954 242.605 95.9956C242.605 65.3495 262.143 37.3819 295.153 37.3819C321.072 37.3819 336.592 55.8957 336.592 81.8542C336.592 113.525 315.045 140.468 284.399 140.468Z" fill="white"/>
<path d="M390.203 174.147H432.627L465.991 3.70312H423.213L390.203 174.147Z" fill="white"/>
<path d="M611.271 29.3068C607.568 22.2165 590.394 0 554.351 0C510.233 0 473.836 33.6792 473.836 88.9052C473.836 144.131 510.233 177.85 553.996 177.85C591.378 177.85 608.238 154.255 611.625 147.204V174.147H654.404V3.70274H611.271V29.3068ZM565.459 140.113C536.507 140.113 517.639 117.897 517.639 88.9052C517.639 59.9135 536.507 37.6971 565.459 37.6971C594.411 37.6971 611.94 59.9135 611.94 88.9052C611.94 117.897 593.427 140.113 565.459 140.113Z" fill="white"/>
<path d="M773.246 0C742.246 0 723.062 20.2075 716.642 32.3399V3.70274H673.863V174.147H716.642V83.1936C716.642 56.9198 733.501 38.4061 759.42 38.4061C785.339 38.4061 800.859 56.2502 800.859 83.1936V174.147H844.308V74.7639C844.308 31.3158 816.025 0 773.246 0Z" fill="white"/>
<path d="M970.002 76.9702V40.2579H907.016V3.70312H863.883V118.567C863.883 154.964 882.751 174.147 922.851 174.147H970.002V135.741H937.307C914.067 135.741 906.976 126.642 906.976 105.41V76.9308H969.962L970.002 76.9702Z" fill="white"/>
<path d="M139.444 29.6219C136.056 22.8861 117.897 0 81.1452 0C36.7123 0 0 33.0096 0 88.5901C0 144.171 36.7123 177.18 81.1846 177.18C118.251 177.18 136.095 153.585 139.798 146.18V169.775C139.798 198.057 121.954 214.247 90.9535 214.247C63.3405 214.247 53.2171 200.106 50.8536 196.718H1.33929C4.01787 209.166 25.2496 249.935 90.9535 249.935C152.6 249.935 182.577 217.28 182.577 170.444V3.70274H139.444V29.6219ZM92.2928 139.444C62.6315 139.444 43.7633 116.873 43.7633 88.5901C43.7633 60.3074 62.6315 37.7365 92.2928 37.7365C121.954 37.7365 140.113 59.6378 140.113 88.5901C140.113 117.542 121.245 139.444 92.2928 139.444Z" fill="white"/>
</mask>
<g mask="url(#mask0_1555_6274)">
<g filter="url(#filter0_f_1555_6274)">
<g clip-path="url(#paint0_diamond_1555_6274_clip_path)" data-figma-skip-parse="true"><g transform="matrix(-1.02439 0.0974535 -0.0974534 -1.02439 999.463 90.6546)"><rect x="0" y="0" width="1026.84" height="245.892" fill="url(#paint0_diamond_1555_6274)" opacity="1" shape-rendering="crispEdges"/><rect x="0" y="0" width="1026.84" height="245.892" transform="scale(1 -1)" fill="url(#paint0_diamond_1555_6274)" opacity="1" shape-rendering="crispEdges"/><rect x="0" y="0" width="1026.84" height="245.892" transform="scale(-1 1)" fill="url(#paint0_diamond_1555_6274)" opacity="1" shape-rendering="crispEdges"/><rect x="0" y="0" width="1026.84" height="245.892" transform="scale(-1)" fill="url(#paint0_diamond_1555_6274)" opacity="1" shape-rendering="crispEdges"/></g></g><rect x="-40.7969" y="-63.458" width="1040.26" height="364.884" data-figma-gradient-fill="{&#34;type&#34;:&#34;GRADIENT_DIAMOND&#34;,&#34;stops&#34;:[{&#34;color&#34;:{&#34;r&#34;:0.0,&#34;g&#34;:0.098039217293262482,&#34;b&#34;:0.34901961684226990,&#34;a&#34;:1.0},&#34;position&#34;:0.0},{&#34;color&#34;:{&#34;r&#34;:0.42352941632270813,&#34;g&#34;:0.60352939367294312,&#34;b&#34;:0.74117648601531982,&#34;a&#34;:1.0},&#34;position&#34;:0.59645634889602661},{&#34;color&#34;:{&#34;r&#34;:0.0078431377187371254,&#34;g&#34;:0.25098040699958801,&#34;b&#34;:0.27058824896812439,&#34;a&#34;:1.0},&#34;position&#34;:1.0}],&#34;stopsVar&#34;:[{&#34;color&#34;:{&#34;r&#34;:0.0,&#34;g&#34;:0.098039217293262482,&#34;b&#34;:0.34901961684226990,&#34;a&#34;:1.0},&#34;position&#34;:0.0},{&#34;color&#34;:{&#34;r&#34;:0.42352941632270813,&#34;g&#34;:0.60352939367294312,&#34;b&#34;:0.74117648601531982,&#34;a&#34;:1.0},&#34;position&#34;:0.59645634889602661},{&#34;color&#34;:{&#34;r&#34;:0.0078431377187371254,&#34;g&#34;:0.25098040699958801,&#34;b&#34;:0.27058824896812439,&#34;a&#34;:1.0},&#34;position&#34;:1.0}],&#34;transform&#34;:{&#34;m00&#34;:-2048.7897949218750,&#34;m01&#34;:-194.90687561035156,&#34;m02&#34;:2121.3107910156250,&#34;m10&#34;:194.90692138671875,&#34;m11&#34;:-2048.7897949218750,&#34;m12&#34;:1017.5959472656250},&#34;opacity&#34;:1.0,&#34;blendMode&#34;:&#34;NORMAL&#34;,&#34;visible&#34;:true}"/>
</g>
</g>
<defs>
<filter id="filter0_f_1555_6274" x="-154.797" y="-177.458" width="1268.26" height="592.884" filterUnits="userSpaceOnUse" color-interpolation-filters="sRGB">
<feFlood flood-opacity="0" result="BackgroundImageFix"/>
<feBlend mode="normal" in="SourceGraphic" in2="BackgroundImageFix" result="shape"/>
<feGaussianBlur stdDeviation="57" result="effect1_foregroundBlur_1555_6274"/>
</filter>
<clipPath id="paint0_diamond_1555_6274_clip_path"><rect x="-40.7969" y="-63.458" width="1040.26" height="364.884"/></clipPath><linearGradient id="paint0_diamond_1555_6274" x1="0" y1="0" x2="500" y2="500" gradientUnits="userSpaceOnUse">
<stop stop-color="#001959"/>
<stop offset="0.596456" stop-color="#6C9ABD"/>
<stop offset="1" stop-color="#024045"/>
</linearGradient>
</defs>
</svg>
