<svg width="110" height="28" viewBox="0 0 110 28" fill="none" xmlns="http://www.w3.org/2000/svg">
<path d="M4.74667 27.5132H0V0H4.74667V11.776C5.45834 10.4299 7.58662 8.18751 11.0275 8.18751C15.7741 8.18751 18.9162 11.6653 18.9162 16.4858V27.5132H14.0957V17.419C14.0957 14.428 12.2997 12.4474 9.4967 12.4474C6.69368 12.4474 4.75003 14.5052 4.75003 17.419V27.5132H4.74667Z" fill="white"/>
<path d="M41.4043 18.0569C41.4043 23.814 36.9934 28.0001 31.2363 28.0001C25.4792 28.0001 21.0312 23.814 21.0312 18.0569C21.0312 12.2998 25.4053 8.11377 31.2363 8.11377C37.0672 8.11377 41.4043 12.2998 41.4043 18.0569ZM36.5805 18.0569C36.5805 14.841 34.4119 12.3737 31.2329 12.3737C28.0539 12.3737 25.8484 14.8779 25.8484 18.0569C25.8484 21.2359 28.017 23.7402 31.2329 23.7402C34.4488 23.7402 36.5805 21.2729 36.5805 18.0569Z" fill="white"/>
<path d="M48.2623 27.5133H43.5156V8.59711H48.2623V11.7761C48.749 10.6918 50.2059 8.48633 54.392 8.48633H58.803V13.233H53.7576C49.7192 13.233 48.2623 14.5791 48.2623 17.5701V27.5133Z" fill="white"/>
<path d="M60.9209 8.59717H65.7045V27.5134H60.9209V8.59717Z" fill="white"/>
<path d="M88.1924 18.0569C88.1924 23.814 83.7814 28.0001 78.0243 28.0001C72.2672 28.0001 67.8193 23.814 67.8193 18.0569C67.8193 12.2998 72.1934 8.11377 78.0243 8.11377C83.8553 8.11377 88.1924 12.2998 88.1924 18.0569ZM83.3686 18.0569C83.3686 14.841 81.2 12.3737 78.021 12.3737C74.842 12.3737 72.6365 14.8779 72.6365 18.0569C72.6365 21.2359 74.8051 23.7402 78.021 23.7402C81.2369 23.7402 83.3686 21.2729 83.3686 18.0569Z" fill="white"/>
<path d="M95.0543 27.5132H90.3076V8.59704H95.0543V11.776C95.766 10.4299 97.8942 8.1875 101.335 8.1875C106.082 8.1875 109.224 11.6653 109.224 16.4858V27.5132H104.403V17.419C104.403 14.428 102.607 12.4474 99.8043 12.4474C97.0013 12.4474 95.0577 14.5052 95.0577 17.419V27.5132H95.0543Z" fill="white"/>
</svg>
