<svg width="1440" height="370" viewBox="0 0 1440 370" fill="none" xmlns="http://www.w3.org/2000/svg">
<path d="M0 363.573V0H62.5804V155.614C71.963 137.826 100.022 108.194 145.387 108.194C207.967 108.194 249.392 154.15 249.392 217.851V363.573H185.838V230.183C185.838 190.659 162.16 164.486 125.205 164.486C88.2499 164.486 62.6247 191.679 62.6247 230.183V363.573H0Z" fill="url(#paint0_linear_65_360)"/>
<path d="M545.876 238.606C545.876 314.683 487.722 370 411.82 370C335.918 370 277.276 314.683 277.276 238.606C277.276 162.529 334.944 107.212 411.82 107.212C488.695 107.212 545.876 162.529 545.876 238.606ZM482.278 238.606C482.278 196.109 453.687 163.505 411.775 163.505C369.863 163.505 340.786 196.597 340.786 238.606C340.786 280.615 369.377 313.707 411.775 313.707C454.174 313.707 482.278 281.103 482.278 238.606Z" fill="url(#paint1_linear_65_360)"/>
<path d="M636.292 363.575H573.711V113.607H636.292V155.616C642.709 141.287 661.917 112.143 717.106 112.143H775.261V174.868H708.742C655.5 174.868 636.292 192.656 636.292 232.181V363.575Z" fill="url(#paint2_linear_65_360)"/>
<path d="M803.2 113.601H866.267V363.569H803.2V113.601Z" fill="url(#paint3_linear_65_360)"/>
<path d="M1162.74 238.606C1162.74 314.683 1104.59 370 1028.69 370C952.785 370 894.144 314.683 894.144 238.606C894.144 162.529 951.811 107.212 1028.69 107.212C1105.56 107.212 1162.74 162.529 1162.74 238.606ZM1099.15 238.606C1099.15 196.109 1070.55 163.505 1028.64 163.505C986.731 163.505 957.653 196.597 957.653 238.606C957.653 280.615 986.244 313.707 1028.64 313.707C1071.04 313.707 1099.15 281.103 1099.15 238.606Z" fill="url(#paint4_linear_65_360)"/>
<path d="M1190.61 363.573V113.605H1253.19V155.614C1262.57 137.826 1290.63 108.193 1335.99 108.193C1398.57 108.193 1440 154.15 1440 217.851V363.573H1376.45V230.183C1376.45 190.658 1352.77 164.486 1315.81 164.486C1278.86 164.486 1253.23 191.678 1253.23 230.183V363.573H1190.61Z" fill="url(#paint5_linear_65_360)"/>
<defs>
<linearGradient id="paint0_linear_65_360" x1="0" y1="185" x2="1440" y2="185" gradientUnits="userSpaceOnUse">
<stop stop-color="#A6C6DD"/>
<stop offset="1" stop-color="#175679"/>
</linearGradient>
<linearGradient id="paint1_linear_65_360" x1="0" y1="185" x2="1440" y2="185" gradientUnits="userSpaceOnUse">
<stop stop-color="#A6C6DD"/>
<stop offset="1" stop-color="#175679"/>
</linearGradient>
<linearGradient id="paint2_linear_65_360" x1="0" y1="185" x2="1440" y2="185" gradientUnits="userSpaceOnUse">
<stop stop-color="#A6C6DD"/>
<stop offset="1" stop-color="#175679"/>
</linearGradient>
<linearGradient id="paint3_linear_65_360" x1="0" y1="185" x2="1440" y2="185" gradientUnits="userSpaceOnUse">
<stop stop-color="#A6C6DD"/>
<stop offset="1" stop-color="#175679"/>
</linearGradient>
<linearGradient id="paint4_linear_65_360" x1="0" y1="185" x2="1440" y2="185" gradientUnits="userSpaceOnUse">
<stop stop-color="#A6C6DD"/>
<stop offset="1" stop-color="#175679"/>
</linearGradient>
<linearGradient id="paint5_linear_65_360" x1="0" y1="185" x2="1440" y2="185" gradientUnits="userSpaceOnUse">
<stop stop-color="#A6C6DD"/>
<stop offset="1" stop-color="#175679"/>
</linearGradient>
</defs>
</svg>
