<svg width="686" height="636" viewBox="0 0 686 636" fill="none" xmlns="http://www.w3.org/2000/svg">
<rect x="84.1902" y="13.0779" width="609.765" height="71.9294" rx="19.6171" transform="rotate(90 84.1902 13.0779)" fill="black" fill-opacity="0.2"/>
<rect x="98.0854" y="568.896" width="573.8" height="53.947" rx="9.80855" fill="#F1F1F1" fill-opacity="0.05"/>
<rect x="194.536" y="582.792" width="70.2946" height="26.1561" rx="4.90428" fill="white" fill-opacity="0.1"/>
<rect x="284.448" y="582.792" width="70.2946" height="26.1561" rx="4.90428" fill="white" fill-opacity="0.1"/>
<rect x="374.36" y="582.792" width="70.2946" height="26.1561" rx="4.90428" fill="white" fill-opacity="0.1"/>
<rect x="464.271" y="582.792" width="111.981" height="26.1561" rx="4.90428" fill="white" fill-opacity="0.1"/>
<rect x="125.059" y="427.489" width="519.853" height="114.433" rx="8.99117" fill="black" fill-opacity="0.2" stroke="url(#paint0_linear_699_3510)" stroke-width="1.63476"/>
<rect x="33.717" y="63.96" width="29.017" height="29.017" rx="8.78683" fill="#1E5128" fill-opacity="0.6" stroke="#7DB487" stroke-width="0.40869"/>
<rect x="98.2898" y="19.8215" width="29.017" height="29.017" rx="8.78683" fill="white" fill-opacity="0.3" stroke="#798566" stroke-width="0.40869"/>
<path d="M108.478 31.4107L111.677 33.8103C112.549 34.4642 113.748 34.4642 114.62 33.8103L117.819 31.4106" stroke="white" stroke-width="0.817379" stroke-linecap="round" stroke-linejoin="round"/>
<rect x="107.894" y="30.2432" width="10.5092" height="8.17379" rx="1.63476" stroke="white" stroke-width="0.817379" stroke-linecap="round"/>
<path d="M229.769 171.627H232.893L238.523 191.813L244.428 171.627H247.449L253.148 191.813L258.812 171.627H261.902L254.864 195.658H251.294L245.801 176.605L240.343 195.658H236.772L229.769 171.627ZM273.375 177.944C275.503 177.944 277.219 178.585 278.524 179.867C279.829 181.148 280.481 183.162 280.481 185.909V195.658H277.666V186.08C277.666 184.272 277.254 182.899 276.43 181.961C275.606 181 274.427 180.519 272.894 180.519C271.269 180.519 269.976 181.091 269.015 182.235C268.076 183.38 267.607 184.936 267.607 186.904V195.658H264.792V171.627H267.607V181.034C268.179 180.118 268.935 179.375 269.873 178.802C270.834 178.23 272.001 177.944 273.375 177.944ZM300.444 193.084V195.658H298.9C297.778 195.658 296.977 195.43 296.497 194.972C296.016 194.514 295.764 193.839 295.741 192.946C294.391 194.892 292.434 195.864 289.871 195.864C287.926 195.864 286.358 195.407 285.168 194.491C284 193.576 283.417 192.328 283.417 190.749C283.417 188.987 284.012 187.637 285.202 186.698C286.415 185.76 288.166 185.291 290.454 185.291H295.604V184.089C295.604 182.945 295.215 182.052 294.437 181.412C293.681 180.771 292.617 180.45 291.244 180.45C290.031 180.45 289.024 180.725 288.223 181.274C287.445 181.801 286.964 182.51 286.781 183.403H283.966C284.172 181.686 284.927 180.347 286.232 179.386C287.559 178.425 289.276 177.944 291.381 177.944C293.624 177.944 295.352 178.493 296.565 179.592C297.801 180.668 298.419 182.224 298.419 184.261V191.813C298.419 192.66 298.808 193.084 299.586 193.084H300.444ZM295.604 187.66H290.18C287.571 187.66 286.266 188.632 286.266 190.578C286.266 191.447 286.61 192.145 287.296 192.672C287.983 193.198 288.91 193.461 290.077 193.461C291.793 193.461 293.144 193.015 294.128 192.122C295.112 191.207 295.604 190.005 295.604 188.518V187.66ZM303.776 180.725H300.617V178.15H303.776V173.241H306.591V178.15H311.019V180.725H306.591V191.058C306.591 191.791 306.728 192.317 307.003 192.637C307.3 192.935 307.804 193.084 308.513 193.084H311.569V195.658H308.342C306.694 195.658 305.515 195.292 304.806 194.56C304.119 193.828 303.776 192.672 303.776 191.093V180.725ZM323.723 180.725H320.565V178.15H323.723V173.241H326.538V178.15H330.967V180.725H326.538V191.058C326.538 191.791 326.676 192.317 326.95 192.637C327.248 192.935 327.751 193.084 328.461 193.084H331.516V195.658H328.289C326.641 195.658 325.463 195.292 324.753 194.56C324.067 193.828 323.723 192.672 323.723 191.093V180.725ZM349.626 193.084V195.658H348.081C346.96 195.658 346.159 195.43 345.678 194.972C345.198 194.514 344.946 193.839 344.923 192.946C343.573 194.892 341.616 195.864 339.053 195.864C337.107 195.864 335.539 195.407 334.349 194.491C333.182 193.576 332.599 192.328 332.599 190.749C332.599 188.987 333.194 187.637 334.384 186.698C335.597 185.76 337.347 185.291 339.636 185.291H344.786V184.089C344.786 182.945 344.397 182.052 343.618 181.412C342.863 180.771 341.799 180.45 340.426 180.45C339.213 180.45 338.206 180.725 337.405 181.274C336.627 181.801 336.146 182.51 335.963 183.403H333.148C333.354 181.686 334.109 180.347 335.414 179.386C336.741 178.425 338.457 177.944 340.563 177.944C342.806 177.944 344.534 178.493 345.747 179.592C346.983 180.668 347.601 182.224 347.601 184.261V191.813C347.601 192.66 347.99 193.084 348.768 193.084H349.626ZM344.786 187.66H339.361C336.752 187.66 335.448 188.632 335.448 190.578C335.448 191.447 335.791 192.145 336.478 192.672C337.164 193.198 338.091 193.461 339.259 193.461C340.975 193.461 342.325 193.015 343.309 192.122C344.294 191.207 344.786 190.005 344.786 188.518V187.66ZM353.987 189.891C354.033 190.944 354.491 191.802 355.361 192.466C356.253 193.129 357.397 193.461 358.794 193.461C360.029 193.461 361.025 193.221 361.78 192.74C362.558 192.237 362.948 191.585 362.948 190.784C362.948 190.097 362.764 189.571 362.398 189.204C362.032 188.838 361.551 188.586 360.956 188.449C360.384 188.312 359.56 188.175 358.485 188.037C356.974 187.854 355.738 187.614 354.777 187.316C353.816 187.019 353.038 186.55 352.443 185.909C351.847 185.245 351.55 184.341 351.55 183.197C351.55 182.167 351.836 181.251 352.408 180.45C353.003 179.649 353.804 179.031 354.811 178.596C355.818 178.139 356.951 177.91 358.21 177.91C360.27 177.91 361.94 178.39 363.222 179.352C364.527 180.313 365.248 181.686 365.385 183.471H362.57C362.455 182.556 362.009 181.801 361.231 181.206C360.453 180.61 359.48 180.313 358.313 180.313C357.123 180.313 356.162 180.565 355.429 181.068C354.697 181.549 354.331 182.19 354.331 182.991C354.331 183.586 354.502 184.043 354.846 184.364C355.189 184.684 355.624 184.902 356.15 185.016C356.699 185.131 357.523 185.256 358.622 185.394C360.155 185.577 361.414 185.829 362.398 186.149C363.405 186.469 364.206 186.984 364.801 187.694C365.419 188.403 365.728 189.365 365.728 190.578C365.728 191.63 365.419 192.557 364.801 193.358C364.183 194.159 363.348 194.777 362.295 195.212C361.242 195.647 360.075 195.864 358.794 195.864C356.505 195.864 354.663 195.338 353.266 194.285C351.893 193.232 351.195 191.768 351.172 189.891H353.987ZM368.922 171.627H371.737V187.557L380.628 178.15H383.993L377.264 185.325L384.473 195.658H381.075L375.238 187.351L371.737 191.024V195.658H368.922V171.627ZM411.262 189.616C410.895 191.562 410.037 193.095 408.687 194.217C407.336 195.315 405.62 195.864 403.537 195.864C401.844 195.864 400.356 195.487 399.074 194.732C397.793 193.976 396.797 192.923 396.088 191.573C395.378 190.2 395.023 188.632 395.023 186.87C395.023 185.108 395.378 183.551 396.088 182.201C396.82 180.851 397.839 179.809 399.143 179.077C400.448 178.322 401.947 177.944 403.64 177.944C405.7 177.944 407.394 178.493 408.721 179.592C410.071 180.691 410.918 182.201 411.262 184.124H408.412C408.137 183.002 407.565 182.11 406.696 181.446C405.826 180.782 404.773 180.45 403.537 180.45C401.867 180.45 400.505 181.045 399.452 182.235C398.422 183.426 397.907 184.97 397.907 186.87C397.907 188.792 398.422 190.36 399.452 191.573C400.505 192.763 401.867 193.358 403.537 193.358C404.819 193.358 405.895 193.026 406.764 192.363C407.634 191.699 408.195 190.784 408.446 189.616H411.262ZM430.892 193.084V195.658H429.347C428.225 195.658 427.424 195.43 426.944 194.972C426.463 194.514 426.211 193.839 426.188 192.946C424.838 194.892 422.881 195.864 420.318 195.864C418.373 195.864 416.805 195.407 415.615 194.491C414.447 193.576 413.864 192.328 413.864 190.749C413.864 188.987 414.459 187.637 415.649 186.698C416.862 185.76 418.613 185.291 420.902 185.291H426.051V184.089C426.051 182.945 425.662 182.052 424.884 181.412C424.129 180.771 423.064 180.45 421.691 180.45C420.478 180.45 419.471 180.725 418.67 181.274C417.892 181.801 417.411 182.51 417.228 183.403H414.413C414.619 181.686 415.374 180.347 416.679 179.386C418.006 178.425 419.723 177.944 421.828 177.944C424.071 177.944 425.799 178.493 427.012 179.592C428.248 180.668 428.866 182.224 428.866 184.261V191.813C428.866 192.66 429.255 193.084 430.033 193.084H430.892ZM426.051 187.66H420.627C418.018 187.66 416.713 188.632 416.713 190.578C416.713 191.447 417.057 192.145 417.743 192.672C418.43 193.198 419.357 193.461 420.524 193.461C422.24 193.461 423.591 193.015 424.575 192.122C425.559 191.207 426.051 190.005 426.051 188.518V187.66ZM441.638 177.944C443.767 177.944 445.472 178.585 446.753 179.867C448.058 181.148 448.71 183.162 448.71 185.909V195.658H445.895V186.08C445.895 184.272 445.483 182.899 444.659 181.961C443.858 181 442.691 180.519 441.158 180.519C439.51 180.519 438.217 181.091 437.278 182.235C436.34 183.38 435.871 184.936 435.871 186.904V195.658H433.056V178.15H435.493L435.871 180.519C437.198 178.802 439.121 177.944 441.638 177.944ZM461.696 171.627H464.683V195.658H461.696V171.627ZM479.08 180.725H475.921V178.15H479.08V173.241H481.895V178.15H486.323V180.725H481.895V191.058C481.895 191.791 482.032 192.317 482.307 192.637C482.604 192.935 483.108 193.084 483.817 193.084H486.873V195.658H483.646C481.998 195.658 480.819 195.292 480.11 194.56C479.423 193.828 479.08 192.672 479.08 191.093V180.725ZM504.982 193.084V195.658H503.438C502.316 195.658 501.515 195.43 501.035 194.972C500.554 194.514 500.302 193.839 500.279 192.946C498.929 194.892 496.972 195.864 494.409 195.864C492.464 195.864 490.896 195.407 489.706 194.491C488.538 193.576 487.955 192.328 487.955 190.749C487.955 188.987 488.55 187.637 489.74 186.698C490.953 185.76 492.704 185.291 494.992 185.291H500.142V184.089C500.142 182.945 499.753 182.052 498.975 181.412C498.219 180.771 497.155 180.45 495.782 180.45C494.569 180.45 493.562 180.725 492.761 181.274C491.983 181.801 491.502 182.51 491.319 183.403H488.504C488.71 181.686 489.465 180.347 490.77 179.386C492.097 178.425 493.814 177.944 495.919 177.944C498.162 177.944 499.89 178.493 501.103 179.592C502.339 180.668 502.957 182.224 502.957 184.261V191.813C502.957 192.66 503.346 193.084 504.124 193.084H504.982ZM500.142 187.66H494.718C492.109 187.66 490.804 188.632 490.804 190.578C490.804 191.447 491.148 192.145 491.834 192.672C492.521 193.198 493.448 193.461 494.615 193.461C496.331 193.461 497.682 193.015 498.666 192.122C499.65 191.207 500.142 190.005 500.142 188.518V187.66ZM507.147 171.627H509.962V187.557L518.853 178.15H522.217L515.489 185.325L522.698 195.658H519.299L513.463 187.351L509.962 191.024V195.658H507.147V171.627ZM523.258 186.904C523.258 185.119 523.601 183.551 524.288 182.201C524.997 180.851 525.981 179.809 527.24 179.077C528.499 178.322 529.941 177.944 531.566 177.944C533.168 177.944 534.587 178.276 535.823 178.94C537.058 179.603 538.031 180.565 538.741 181.823C539.45 183.082 539.828 184.558 539.874 186.252C539.874 186.504 539.851 186.904 539.805 187.454H526.21V187.694C526.256 189.41 526.782 190.784 527.789 191.813C528.796 192.843 530.112 193.358 531.737 193.358C532.996 193.358 534.06 193.049 534.93 192.431C535.823 191.791 536.418 190.909 536.715 189.788H539.565C539.221 191.573 538.363 193.038 536.99 194.182C535.617 195.304 533.934 195.864 531.943 195.864C530.204 195.864 528.682 195.498 527.377 194.766C526.073 194.011 525.054 192.958 524.322 191.608C523.613 190.234 523.258 188.667 523.258 186.904ZM536.955 185.119C536.818 183.632 536.257 182.476 535.273 181.652C534.312 180.828 533.088 180.416 531.6 180.416C530.273 180.416 529.105 180.851 528.098 181.72C527.091 182.59 526.519 183.723 526.382 185.119H536.955ZM286.555 232.864C284.861 232.864 283.351 232.487 282.023 231.732C280.719 230.976 279.7 229.923 278.968 228.573C278.235 227.223 277.869 225.667 277.869 223.904C277.869 222.142 278.235 220.586 278.968 219.235C279.7 217.885 280.719 216.832 282.023 216.077C283.351 215.322 284.861 214.944 286.555 214.944C288.248 214.944 289.747 215.322 291.052 216.077C292.379 216.832 293.409 217.885 294.142 219.235C294.874 220.586 295.24 222.142 295.24 223.904C295.24 225.667 294.874 227.223 294.142 228.573C293.409 229.923 292.379 230.976 291.052 231.732C289.747 232.487 288.248 232.864 286.555 232.864ZM286.555 230.358C287.699 230.358 288.706 230.084 289.576 229.534C290.468 228.985 291.155 228.218 291.636 227.234C292.116 226.25 292.356 225.14 292.356 223.904C292.356 222.668 292.116 221.558 291.636 220.574C291.155 219.59 290.468 218.823 289.576 218.274C288.706 217.725 287.699 217.45 286.555 217.45C285.41 217.45 284.392 217.725 283.499 218.274C282.63 218.823 281.954 219.59 281.474 220.574C280.993 221.558 280.753 222.668 280.753 223.904C280.753 225.14 280.993 226.25 281.474 227.234C281.954 228.218 282.63 228.985 283.499 229.534C284.392 230.084 285.41 230.358 286.555 230.358ZM299.434 215.15V213.193C299.434 211.637 299.789 210.493 300.499 209.76C301.231 209.005 302.398 208.627 304 208.627H307.227V211.202H304.172C303.485 211.202 302.993 211.351 302.696 211.649C302.398 211.946 302.249 212.438 302.249 213.125V215.15H307.193V217.725H302.249V232.658H299.434V217.725H296.276V215.15H299.434ZM309.096 213.193C309.096 211.637 309.451 210.493 310.16 209.76C310.892 209.005 312.06 208.627 313.662 208.627H316.889V211.202H313.833C313.147 211.202 312.655 211.351 312.357 211.649C312.06 211.946 311.911 212.438 311.911 213.125V215.15H316.854V217.725H311.911V232.658H309.096V213.193ZM328.972 215.15L334.362 229.431L339.58 215.15H342.566L334.499 235.611C334.087 236.664 333.721 237.453 333.4 237.98C333.08 238.506 332.679 238.895 332.199 239.147C331.718 239.399 331.077 239.524 330.276 239.524H326.912V236.95H329.418C329.967 236.95 330.379 236.892 330.654 236.778C330.929 236.664 331.146 236.469 331.306 236.194C331.489 235.943 331.707 235.508 331.958 234.89L332.851 232.796L325.985 215.15H328.972ZM352.063 232.864C350.37 232.864 348.859 232.487 347.532 231.732C346.227 230.976 345.209 229.923 344.476 228.573C343.744 227.223 343.378 225.667 343.378 223.904C343.378 222.142 343.744 220.586 344.476 219.235C345.209 217.885 346.227 216.832 347.532 216.077C348.859 215.322 350.37 214.944 352.063 214.944C353.757 214.944 355.256 215.322 356.56 216.077C357.888 216.832 358.918 217.885 359.65 219.235C360.382 220.586 360.749 222.142 360.749 223.904C360.749 225.667 360.382 227.223 359.65 228.573C358.918 229.923 357.888 230.976 356.56 231.732C355.256 232.487 353.757 232.864 352.063 232.864ZM352.063 230.358C353.207 230.358 354.215 230.084 355.084 229.534C355.977 228.985 356.663 228.218 357.144 227.234C357.625 226.25 357.865 225.14 357.865 223.904C357.865 222.668 357.625 221.558 357.144 220.574C356.663 219.59 355.977 218.823 355.084 218.274C354.215 217.725 353.207 217.45 352.063 217.45C350.919 217.45 349.9 217.725 349.008 218.274C348.138 218.823 347.463 219.59 346.982 220.574C346.502 221.558 346.261 222.668 346.261 223.904C346.261 225.14 346.502 226.25 346.982 227.234C347.463 228.218 348.138 228.985 349.008 229.534C349.9 230.084 350.919 230.358 352.063 230.358ZM379.048 215.15V232.658H376.61L376.233 230.324C374.905 232.018 373.04 232.864 370.637 232.864C368.554 232.864 366.883 232.224 365.625 230.942C364.366 229.66 363.736 227.646 363.736 224.9V215.15H366.551V224.728C366.551 226.536 366.941 227.921 367.719 228.882C368.52 229.821 369.653 230.29 371.117 230.29C372.719 230.29 373.967 229.718 374.859 228.573C375.775 227.429 376.233 225.873 376.233 223.904V215.15H379.048ZM391.776 215.15V217.897H390.369C388.698 217.897 387.497 218.457 386.764 219.579C386.055 220.7 385.7 222.085 385.7 223.733V232.658H382.885V215.15H385.322L385.7 217.794C386.204 216.993 386.856 216.352 387.657 215.871C388.458 215.39 389.568 215.15 390.987 215.15H391.776ZM412.158 214.944C413.783 214.944 415.225 215.299 416.484 216.008C417.765 216.718 418.761 217.748 419.471 219.098C420.203 220.448 420.569 222.05 420.569 223.904C420.569 225.667 420.203 227.223 419.471 228.573C418.761 229.923 417.765 230.976 416.484 231.732C415.202 232.487 413.76 232.864 412.158 232.864C410.739 232.864 409.526 232.613 408.519 232.109C407.512 231.583 406.723 230.873 406.151 229.981V239.524H403.335V215.15H405.773L406.151 217.965C407.615 215.951 409.618 214.944 412.158 214.944ZM411.884 230.358C413.623 230.358 415.019 229.763 416.072 228.573C417.148 227.36 417.685 225.804 417.685 223.904C417.685 222.005 417.148 220.46 416.072 219.27C415.019 218.057 413.623 217.45 411.884 217.45C410.762 217.45 409.755 217.725 408.863 218.274C407.993 218.801 407.318 219.556 406.837 220.54C406.356 221.501 406.116 222.6 406.116 223.836C406.116 225.094 406.356 226.227 406.837 227.234C407.318 228.218 407.993 228.985 408.863 229.534C409.755 230.084 410.762 230.358 411.884 230.358ZM423.786 208.627H426.601V232.658H423.786V208.627ZM446.833 230.084V232.658H445.288C444.167 232.658 443.366 232.43 442.885 231.972C442.404 231.514 442.153 230.839 442.13 229.946C440.779 231.892 438.823 232.864 436.259 232.864C434.314 232.864 432.746 232.407 431.556 231.491C430.389 230.576 429.805 229.328 429.805 227.749C429.805 225.987 430.4 224.637 431.59 223.698C432.803 222.76 434.554 222.291 436.843 222.291H441.992V221.089C441.992 219.945 441.603 219.052 440.825 218.412C440.07 217.771 439.006 217.45 437.632 217.45C436.419 217.45 435.412 217.725 434.611 218.274C433.833 218.801 433.353 219.51 433.17 220.403H430.354C430.56 218.686 431.316 217.347 432.62 216.386C433.948 215.425 435.664 214.944 437.77 214.944C440.013 214.944 441.741 215.493 442.954 216.592C444.189 217.668 444.807 219.224 444.807 221.261V228.813C444.807 229.66 445.196 230.084 445.975 230.084H446.833ZM441.992 224.66H436.568C433.959 224.66 432.655 225.632 432.655 227.578C432.655 228.447 432.998 229.145 433.684 229.672C434.371 230.198 435.298 230.461 436.465 230.461C438.182 230.461 439.532 230.015 440.516 229.122C441.5 228.207 441.992 227.005 441.992 225.518V224.66ZM450.164 217.725H447.006V215.15H450.164V210.241H452.979V215.15H457.408V217.725H452.979V228.058C452.979 228.791 453.117 229.317 453.391 229.637C453.689 229.935 454.192 230.084 454.902 230.084H457.957V232.658H454.73C453.082 232.658 451.904 232.292 451.194 231.56C450.507 230.828 450.164 229.672 450.164 228.093V217.725ZM458.906 223.904C458.906 222.119 459.249 220.551 459.936 219.201C460.645 217.851 461.629 216.809 462.888 216.077C464.147 215.322 465.589 214.944 467.214 214.944C468.816 214.944 470.235 215.276 471.471 215.94C472.707 216.603 473.679 217.565 474.389 218.823C475.098 220.082 475.476 221.558 475.522 223.252C475.522 223.504 475.499 223.904 475.453 224.454H461.858V224.694C461.904 226.41 462.431 227.784 463.438 228.813C464.445 229.843 465.761 230.358 467.385 230.358C468.644 230.358 469.708 230.049 470.578 229.431C471.471 228.791 472.066 227.909 472.363 226.788H475.213C474.869 228.573 474.011 230.038 472.638 231.182C471.265 232.304 469.583 232.864 467.591 232.864C465.852 232.864 464.33 232.498 463.026 231.766C461.721 231.011 460.703 229.958 459.97 228.608C459.261 227.234 458.906 225.667 458.906 223.904ZM472.604 222.119C472.466 220.632 471.906 219.476 470.921 218.652C469.96 217.828 468.736 217.416 467.248 217.416C465.921 217.416 464.753 217.851 463.746 218.72C462.739 219.59 462.167 220.723 462.03 222.119H472.604ZM476.973 216.283C476.973 214.818 477.282 213.491 477.9 212.301C478.541 211.088 479.445 210.138 480.612 209.451C481.802 208.765 483.187 208.422 484.766 208.422C486.231 208.422 487.524 208.685 488.645 209.211C489.767 209.737 490.625 210.458 491.22 211.374C491.838 212.289 492.147 213.331 492.147 214.498C492.147 215.894 491.849 217.038 491.254 217.931C490.659 218.823 489.835 219.636 488.782 220.368C487.638 221.169 486.826 221.845 486.345 222.394C485.864 222.92 485.624 223.607 485.624 224.454V225.346H482.981V224.145C482.981 223.298 483.141 222.565 483.461 221.948C483.782 221.33 484.171 220.826 484.628 220.437C485.109 220.025 485.784 219.522 486.654 218.926C487.501 218.331 488.13 217.713 488.542 217.073C488.977 216.432 489.194 215.665 489.194 214.773C489.194 213.674 488.782 212.781 487.958 212.095C487.157 211.385 486.105 211.031 484.8 211.031C483.312 211.031 482.111 211.511 481.195 212.472C480.303 213.434 479.857 214.704 479.857 216.283H476.973ZM482.397 230.942C482.397 230.37 482.58 229.912 482.946 229.569C483.312 229.203 483.782 229.019 484.354 229.019C484.926 229.019 485.395 229.203 485.761 229.569C486.128 229.912 486.311 230.37 486.311 230.942C486.311 231.514 486.128 231.983 485.761 232.349C485.395 232.693 484.926 232.864 484.354 232.864C483.782 232.864 483.312 232.693 482.946 232.349C482.58 231.983 482.397 231.514 482.397 230.942Z" fill="white"/>
<path d="M344.636 144.344H345.773V148.332H350.508V144.344H351.645V153.511H350.508V149.379H345.773V153.511H344.636V144.344ZM353.03 150.176C353.03 149.496 353.161 148.899 353.422 148.385C353.693 147.87 354.068 147.474 354.547 147.195C355.027 146.907 355.576 146.763 356.195 146.763C356.805 146.763 357.346 146.889 357.817 147.142C358.287 147.395 358.658 147.761 358.928 148.241C359.199 148.72 359.342 149.283 359.36 149.928C359.36 150.024 359.351 150.176 359.334 150.386H354.155V150.477C354.172 151.131 354.373 151.654 354.756 152.046C355.14 152.439 355.641 152.635 356.26 152.635C356.74 152.635 357.145 152.517 357.477 152.282C357.817 152.038 358.043 151.702 358.157 151.275H359.242C359.111 151.955 358.784 152.513 358.261 152.949C357.738 153.376 357.097 153.59 356.339 153.59C355.676 153.59 355.096 153.45 354.599 153.171C354.102 152.883 353.714 152.482 353.435 151.968C353.165 151.445 353.03 150.848 353.03 150.176ZM358.248 149.496C358.196 148.93 357.982 148.489 357.607 148.175C357.241 147.862 356.775 147.705 356.208 147.705C355.702 147.705 355.258 147.87 354.874 148.202C354.49 148.533 354.272 148.964 354.22 149.496H358.248ZM360.584 144.357H361.656V153.511H360.584V144.357ZM363.125 144.357H364.198V153.511H363.125V144.357ZM368.74 153.59C368.095 153.59 367.519 153.446 367.014 153.158C366.517 152.87 366.129 152.469 365.85 151.955C365.571 151.441 365.431 150.848 365.431 150.176C365.431 149.505 365.571 148.912 365.85 148.398C366.129 147.883 366.517 147.482 367.014 147.195C367.519 146.907 368.095 146.763 368.74 146.763C369.385 146.763 369.956 146.907 370.453 147.195C370.959 147.482 371.351 147.883 371.63 148.398C371.909 148.912 372.049 149.505 372.049 150.176C372.049 150.848 371.909 151.441 371.63 151.955C371.351 152.469 370.959 152.87 370.453 153.158C369.956 153.446 369.385 153.59 368.74 153.59ZM368.74 152.635C369.176 152.635 369.56 152.53 369.891 152.321C370.231 152.112 370.492 151.82 370.676 151.445C370.859 151.07 370.95 150.647 370.95 150.176C370.95 149.706 370.859 149.283 370.676 148.908C370.492 148.533 370.231 148.241 369.891 148.032C369.56 147.822 369.176 147.718 368.74 147.718C368.304 147.718 367.916 147.822 367.576 148.032C367.245 148.241 366.988 148.533 366.804 148.908C366.621 149.283 366.53 149.706 366.53 150.176C366.53 150.647 366.621 151.07 366.804 151.445C366.988 151.82 367.245 152.112 367.576 152.321C367.916 152.53 368.304 152.635 368.74 152.635ZM373.328 152.138C373.642 152.138 373.891 152.269 374.074 152.53C374.265 152.783 374.361 153.097 374.361 153.472C374.361 154.03 374.196 154.466 373.864 154.78C373.542 155.094 373.093 155.259 372.517 155.277V154.662C372.901 154.653 373.18 154.544 373.354 154.335C373.529 154.126 373.616 153.886 373.616 153.616C373.616 153.537 373.612 153.481 373.603 153.446C373.498 153.55 373.35 153.603 373.158 153.603C372.958 153.603 372.792 153.542 372.661 153.42C372.53 153.298 372.465 153.123 372.465 152.897C372.465 152.679 372.539 152.5 372.687 152.36C372.844 152.212 373.058 152.138 373.328 152.138ZM379.119 144.357H380.257V149.549L384.873 144.357H386.259L382.911 148.215L386.521 153.511H385.161L382.074 149.078L380.257 151.131V153.511H379.119V144.357ZM393.476 152.53V153.511H392.888C392.46 153.511 392.155 153.424 391.972 153.25C391.789 153.075 391.693 152.818 391.684 152.478C391.17 153.219 390.424 153.59 389.448 153.59C388.707 153.59 388.11 153.415 387.656 153.067C387.212 152.718 386.989 152.243 386.989 151.641C386.989 150.97 387.216 150.455 387.669 150.098C388.131 149.74 388.798 149.562 389.67 149.562H391.632V149.104C391.632 148.668 391.484 148.328 391.187 148.084C390.9 147.84 390.494 147.718 389.971 147.718C389.509 147.718 389.125 147.822 388.82 148.032C388.524 148.232 388.341 148.502 388.271 148.842H387.199C387.277 148.188 387.565 147.678 388.062 147.312C388.567 146.946 389.221 146.763 390.023 146.763C390.878 146.763 391.536 146.972 391.998 147.391C392.469 147.8 392.704 148.393 392.704 149.169V152.046C392.704 152.369 392.853 152.53 393.149 152.53H393.476ZM391.632 150.464H389.566C388.572 150.464 388.075 150.835 388.075 151.576C388.075 151.907 388.206 152.173 388.467 152.373C388.729 152.574 389.082 152.674 389.526 152.674C390.18 152.674 390.695 152.504 391.07 152.164C391.445 151.815 391.632 151.358 391.632 150.791V150.464ZM397.688 146.841V147.888H397.151C396.515 147.888 396.057 148.101 395.778 148.528C395.508 148.956 395.373 149.483 395.373 150.111V153.511H394.3V146.841H395.229L395.373 147.848C395.565 147.543 395.813 147.299 396.118 147.116C396.423 146.933 396.846 146.841 397.387 146.841H397.688ZM398.05 150.176C398.05 149.496 398.181 148.899 398.442 148.385C398.712 147.87 399.087 147.474 399.567 147.195C400.046 146.907 400.596 146.763 401.215 146.763C401.825 146.763 402.366 146.889 402.836 147.142C403.307 147.395 403.678 147.761 403.948 148.241C404.218 148.72 404.362 149.283 404.38 149.928C404.38 150.024 404.371 150.176 404.353 150.386H399.174V150.477C399.192 151.131 399.392 151.654 399.776 152.046C400.16 152.439 400.661 152.635 401.28 152.635C401.76 152.635 402.165 152.517 402.496 152.282C402.836 152.038 403.063 151.702 403.176 151.275H404.262C404.131 151.955 403.804 152.513 403.281 152.949C402.758 153.376 402.117 153.59 401.359 153.59C400.696 153.59 400.116 153.45 399.619 153.171C399.122 152.883 398.734 152.482 398.455 151.968C398.185 151.445 398.05 150.848 398.05 150.176ZM403.268 149.496C403.216 148.93 403.002 148.489 402.627 148.175C402.261 147.862 401.794 147.705 401.228 147.705C400.722 147.705 400.277 147.87 399.894 148.202C399.51 148.533 399.292 148.964 399.24 149.496H403.268ZM405.368 150.176C405.368 149.496 405.499 148.899 405.76 148.385C406.031 147.87 406.405 147.474 406.885 147.195C407.364 146.907 407.914 146.763 408.533 146.763C409.143 146.763 409.684 146.889 410.154 147.142C410.625 147.395 410.996 147.761 411.266 148.241C411.536 148.72 411.68 149.283 411.698 149.928C411.698 150.024 411.689 150.176 411.672 150.386H406.493V150.477C406.51 151.131 406.711 151.654 407.094 152.046C407.478 152.439 407.979 152.635 408.598 152.635C409.078 152.635 409.483 152.517 409.814 152.282C410.154 152.038 410.381 151.702 410.494 151.275H411.58C411.449 151.955 411.122 152.513 410.599 152.949C410.076 153.376 409.435 153.59 408.677 153.59C408.014 153.59 407.434 153.45 406.937 153.171C406.44 152.883 406.052 152.482 405.773 151.968C405.503 151.445 405.368 150.848 405.368 150.176ZM410.586 149.496C410.534 148.93 410.32 148.489 409.945 148.175C409.579 147.862 409.113 147.705 408.546 147.705C408.04 147.705 407.596 147.87 407.212 148.202C406.828 148.533 406.61 148.964 406.558 149.496H410.586ZM420.363 146.763C421.113 146.763 421.719 146.998 422.181 147.469C422.651 147.94 422.887 148.672 422.887 149.666V153.511H421.814V149.732C421.814 149.086 421.675 148.594 421.396 148.254C421.126 147.914 420.738 147.744 420.232 147.744C419.674 147.744 419.234 147.94 418.911 148.332C418.597 148.725 418.44 149.261 418.44 149.941V153.511H417.368V149.732C417.368 149.086 417.228 148.594 416.949 148.254C416.67 147.914 416.274 147.744 415.759 147.744C415.219 147.744 414.787 147.953 414.465 148.372C414.151 148.781 413.994 149.322 413.994 149.993V153.511H412.921V146.841H413.85L413.994 147.757C414.473 147.094 415.123 146.763 415.942 146.763C416.422 146.763 416.845 146.872 417.211 147.09C417.586 147.299 417.865 147.613 418.048 148.032C418.528 147.186 419.299 146.763 420.363 146.763ZM424.132 152.857C424.132 152.639 424.201 152.465 424.341 152.334C424.48 152.195 424.659 152.125 424.877 152.125C425.095 152.125 425.274 152.195 425.413 152.334C425.553 152.465 425.623 152.639 425.623 152.857C425.623 153.075 425.553 153.254 425.413 153.394C425.274 153.524 425.095 153.59 424.877 153.59C424.659 153.59 424.48 153.524 424.341 153.394C424.201 153.254 424.132 153.075 424.132 152.857Z" fill="white" fill-opacity="0.6"/>
<path d="M595.49 380.931C595.523 381.395 595.709 381.768 596.049 382.049C596.389 382.324 596.821 382.461 597.344 382.461C597.815 382.461 598.194 382.36 598.482 382.157C598.776 381.948 598.923 381.66 598.923 381.294C598.923 381.026 598.842 380.813 598.678 380.656C598.521 380.499 598.315 380.385 598.06 380.313C597.812 380.234 597.472 380.159 597.04 380.087C596.354 379.97 595.808 379.777 595.402 379.509C594.997 379.241 594.794 378.806 594.794 378.204C594.794 377.818 594.892 377.478 595.088 377.184C595.284 376.883 595.559 376.651 595.912 376.488C596.272 376.324 596.68 376.242 597.138 376.242C597.622 376.242 598.05 376.331 598.423 376.507C598.796 376.684 599.09 376.932 599.306 377.253C599.522 377.567 599.643 377.929 599.669 378.341H598.825C598.773 377.943 598.593 377.622 598.286 377.38C597.978 377.138 597.596 377.017 597.138 377.017C596.68 377.017 596.318 377.119 596.049 377.321C595.781 377.517 595.647 377.795 595.647 378.155C595.647 378.417 595.726 378.623 595.883 378.773C596.04 378.917 596.242 379.028 596.491 379.106C596.739 379.178 597.079 379.25 597.511 379.322C598.198 379.44 598.747 379.636 599.159 379.911C599.571 380.179 599.777 380.614 599.777 381.215C599.777 381.608 599.672 381.957 599.463 382.265C599.26 382.572 598.972 382.811 598.6 382.981C598.233 383.151 597.812 383.236 597.334 383.236C596.798 383.236 596.331 383.141 595.932 382.951C595.533 382.755 595.222 382.484 595 382.137C594.784 381.784 594.666 381.382 594.647 380.931H595.49ZM603.194 378.116C603.802 378.116 604.293 378.299 604.665 378.665C605.038 379.031 605.225 379.607 605.225 380.391V383.177H604.42V380.44C604.42 379.924 604.303 379.531 604.067 379.263C603.832 378.989 603.495 378.851 603.057 378.851C602.593 378.851 602.223 379.015 601.949 379.342C601.68 379.669 601.546 380.113 601.546 380.676V383.177H600.742V376.311H601.546V378.999C601.71 378.737 601.926 378.524 602.194 378.361C602.468 378.198 602.802 378.116 603.194 378.116ZM608.555 383.236C608.071 383.236 607.639 383.128 607.26 382.912C606.887 382.696 606.596 382.396 606.387 382.01C606.178 381.624 606.073 381.179 606.073 380.676C606.073 380.172 606.178 379.728 606.387 379.342C606.596 378.956 606.887 378.655 607.26 378.439C607.639 378.224 608.071 378.116 608.555 378.116C609.039 378.116 609.467 378.224 609.84 378.439C610.219 378.655 610.513 378.956 610.723 379.342C610.932 379.728 611.036 380.172 611.036 380.676C611.036 381.179 610.932 381.624 610.723 382.01C610.513 382.396 610.219 382.696 609.84 382.912C609.467 383.128 609.039 383.236 608.555 383.236ZM608.555 382.52C608.882 382.52 609.169 382.441 609.418 382.284C609.673 382.127 609.869 381.908 610.006 381.627C610.144 381.346 610.212 381.029 610.212 380.676C610.212 380.323 610.144 380.006 610.006 379.724C609.869 379.443 609.673 379.224 609.418 379.067C609.169 378.91 608.882 378.832 608.555 378.832C608.228 378.832 607.937 378.91 607.682 379.067C607.433 379.224 607.24 379.443 607.103 379.724C606.966 380.006 606.897 380.323 606.897 380.676C606.897 381.029 606.966 381.346 607.103 381.627C607.24 381.908 607.433 382.127 607.682 382.284C607.937 382.441 608.228 382.52 608.555 382.52ZM611.344 378.175H612.188L613.433 382.245L614.748 378.175H615.493L616.739 382.245L618.043 378.175H618.858L617.19 383.177H616.307L615.101 379.46L613.845 383.177L612.963 383.187L611.344 378.175ZM627.636 378.116C628.198 378.116 628.652 378.292 628.999 378.645C629.352 378.999 629.529 379.548 629.529 380.293V383.177H628.724V380.342C628.724 379.858 628.62 379.489 628.411 379.234C628.208 378.979 627.917 378.851 627.538 378.851C627.119 378.851 626.789 378.999 626.547 379.293C626.312 379.587 626.194 379.989 626.194 380.499V383.177H625.39V380.342C625.39 379.858 625.285 379.489 625.076 379.234C624.866 378.979 624.569 378.851 624.183 378.851C623.778 378.851 623.454 379.008 623.212 379.322C622.977 379.63 622.859 380.035 622.859 380.539V383.177H622.055V378.175H622.751L622.859 378.861C623.219 378.364 623.706 378.116 624.32 378.116C624.68 378.116 624.997 378.198 625.272 378.361C625.553 378.518 625.762 378.753 625.9 379.067C626.259 378.433 626.838 378.116 627.636 378.116ZM632.865 383.236C632.382 383.236 631.95 383.128 631.571 382.912C631.198 382.696 630.907 382.396 630.698 382.01C630.489 381.624 630.384 381.179 630.384 380.676C630.384 380.172 630.489 379.728 630.698 379.342C630.907 378.956 631.198 378.655 631.571 378.439C631.95 378.224 632.382 378.116 632.865 378.116C633.349 378.116 633.778 378.224 634.15 378.439C634.53 378.655 634.824 378.956 635.033 379.342C635.242 379.728 635.347 380.172 635.347 380.676C635.347 381.179 635.242 381.624 635.033 382.01C634.824 382.396 634.53 382.696 634.15 382.912C633.778 383.128 633.349 383.236 632.865 383.236ZM632.865 382.52C633.192 382.52 633.48 382.441 633.729 382.284C633.984 382.127 634.18 381.908 634.317 381.627C634.454 381.346 634.523 381.029 634.523 380.676C634.523 380.323 634.454 380.006 634.317 379.724C634.18 379.443 633.984 379.224 633.729 379.067C633.48 378.91 633.192 378.832 632.865 378.832C632.539 378.832 632.248 378.91 631.993 379.067C631.744 379.224 631.551 379.443 631.414 379.724C631.276 380.006 631.208 380.323 631.208 380.676C631.208 381.029 631.276 381.346 631.414 381.627C631.551 381.908 631.744 382.127 631.993 382.284C632.248 382.441 632.539 382.52 632.865 382.52ZM638.81 378.175V378.959H638.408C637.93 378.959 637.587 379.12 637.378 379.44C637.175 379.76 637.074 380.156 637.074 380.627V383.177H636.269V378.175H636.966L637.074 378.93C637.218 378.701 637.404 378.518 637.633 378.381C637.862 378.243 638.179 378.175 638.584 378.175H638.81ZM639.081 380.676C639.081 380.166 639.179 379.718 639.376 379.332C639.578 378.946 639.859 378.649 640.219 378.439C640.579 378.224 640.991 378.116 641.455 378.116C641.913 378.116 642.318 378.211 642.671 378.4C643.024 378.59 643.302 378.865 643.505 379.224C643.708 379.584 643.816 380.006 643.829 380.489C643.829 380.561 643.822 380.676 643.809 380.833H639.925V380.901C639.938 381.392 640.088 381.784 640.376 382.078C640.664 382.373 641.04 382.52 641.504 382.52C641.864 382.52 642.168 382.432 642.416 382.255C642.671 382.072 642.841 381.82 642.926 381.5H643.74C643.642 382.01 643.397 382.428 643.005 382.755C642.612 383.076 642.132 383.236 641.563 383.236C641.066 383.236 640.631 383.131 640.258 382.922C639.886 382.706 639.595 382.405 639.385 382.02C639.183 381.627 639.081 381.179 639.081 380.676ZM642.995 380.166C642.956 379.741 642.796 379.411 642.514 379.175C642.24 378.94 641.89 378.822 641.465 378.822C641.086 378.822 640.752 378.946 640.464 379.195C640.177 379.443 640.013 379.767 639.974 380.166H642.995Z" fill="white" fill-opacity="0.5"/>
<path d="M111.164 413.185H658.808" stroke="white" stroke-opacity="0.3" stroke-width="0.40869"/>
<path d="M48.3889 152.032V163.476" stroke="white" stroke-width="0.817379" stroke-linecap="round" stroke-linejoin="round"/>
<path d="M51.2496 153.749H46.9584C46.4273 153.749 45.9179 153.96 45.5424 154.336C45.1668 154.711 44.9558 155.22 44.9558 155.752C44.9558 156.283 45.1668 156.792 45.5424 157.168C45.9179 157.543 46.4273 157.754 46.9584 157.754H49.8192C50.3503 157.754 50.8597 157.965 51.2353 158.341C51.6108 158.716 51.8218 159.226 51.8218 159.757C51.8218 160.288 51.6108 160.797 51.2353 161.173C50.8597 161.548 50.3503 161.759 49.8192 161.759H44.9558" stroke="white" stroke-width="0.817379" stroke-linecap="round" stroke-linejoin="round"/>
<circle cx="43.7297" cy="445.063" r="1.22607" fill="white"/>
<circle cx="47.8166" cy="445.063" r="1.22607" fill="white"/>
<circle cx="51.9036" cy="445.063" r="1.22607" fill="white"/>
<path d="M52.5234 195.712L47.9529 198.351L43.3806 195.708" stroke="white" stroke-width="0.817379" stroke-linecap="round" stroke-linejoin="round"/>
<path d="M47.9529 198.351V203.255" stroke="white" stroke-width="0.817379" stroke-linecap="round" stroke-linejoin="round"/>
<path d="M47.1355 193.374C47.6413 193.082 48.2644 193.082 48.7702 193.374L51.8546 195.154C52.3604 195.446 52.672 195.986 52.672 196.57V200.132C52.672 200.716 52.3604 201.255 51.8546 201.547L48.7702 203.328C48.2644 203.62 47.6413 203.62 47.1355 203.328L44.0511 201.547C43.5453 201.255 43.2337 200.716 43.2337 200.132V196.57C43.2337 195.986 43.5453 195.446 44.0511 195.154L47.1355 193.374Z" stroke="white" stroke-width="0.817379" stroke-linecap="round" stroke-linejoin="round"/>
<path d="M46.0457 194.264L50.1326 196.716" stroke="white" stroke-width="0.817379" stroke-linecap="round" stroke-linejoin="round"/>
<path d="M42.7095 115.004C45.9558 115.179 47.2851 114.356 47.8173 113.543C48.0268 113.222 48.1241 112.84 48.1241 112.457V111.981" stroke="white" stroke-width="0.817379" stroke-miterlimit="10" stroke-linecap="round" stroke-linejoin="bevel"/>
<path d="M45.8978 119.689C45.4531 120.033 44.8568 120.244 44.2001 120.244C43.5435 120.244 42.9484 120.033 42.5037 119.689L43.7985 116.13L44.2001 115.028L44.6017 116.13L45.8978 119.689Z" stroke="white" stroke-width="0.817379" stroke-miterlimit="10" stroke-linecap="round" stroke-linejoin="bevel"/>
<path d="M53.5386 115.004C50.2923 115.179 48.963 114.356 48.4308 113.543C48.2214 113.222 48.124 112.84 48.124 112.457V111.981" stroke="white" stroke-width="0.817379" stroke-miterlimit="10" stroke-linecap="round" stroke-linejoin="bevel"/>
<path d="M50.3489 119.689C50.7936 120.033 51.3899 120.244 52.0466 120.244C52.7032 120.244 53.2983 120.033 53.743 119.689L52.4482 116.13L52.0466 115.028L51.6449 116.13L50.3489 119.689Z" stroke="white" stroke-width="0.817379" stroke-miterlimit="10" stroke-linecap="round" stroke-linejoin="bevel"/>
<path d="M48.124 111.981V122.607" stroke="white" stroke-width="0.817379" stroke-miterlimit="10" stroke-linecap="round" stroke-linejoin="bevel"/>
<path d="M51.4049 122.545H44.8433" stroke="white" stroke-width="0.817379" stroke-miterlimit="10" stroke-linecap="round" stroke-linejoin="bevel"/>
<path d="M45.5688 234.588C45.5688 233.685 46.3008 232.953 47.2036 232.953H48.8384C49.7412 232.953 50.4731 233.685 50.4731 234.588V242.762H45.5688V234.588Z" stroke="white" stroke-width="0.817379" stroke-linecap="round" stroke-linejoin="round"/>
<rect x="42.5037" y="235.405" width="11.0346" height="7.35641" rx="1.63476" stroke="white" stroke-width="0.817379" stroke-linecap="round" stroke-linejoin="round"/>
<path d="M48.2253 74.6161C48.2253 74.3083 48.4223 74.0328 48.7175 73.9456C50.356 73.4618 51.6063 73.4383 53.2071 73.8752C53.6526 73.9967 53.947 74.4121 53.947 74.8739V81.6908C53.947 82.179 53.4688 82.5214 52.9955 82.4021C51.4884 82.0223 50.2735 82.0661 48.699 82.5335C48.465 82.603 48.2253 82.431 48.2253 82.1869V74.6161Z" stroke="white" stroke-width="0.817379"/>
<path d="M48.2253 74.6161C48.2253 74.3083 48.0284 74.0327 47.7331 73.9456C46.0947 73.4618 44.8444 73.4383 43.2436 73.8751C42.7981 73.9967 42.5037 74.412 42.5037 74.8738V81.6908C42.5037 82.179 42.9818 82.5213 43.4552 82.4021C44.9623 82.0223 46.1771 82.0661 47.7517 82.5335C47.9857 82.603 48.2253 82.431 48.2253 82.1869V74.6161Z" stroke="white" stroke-width="0.817379"/>
<path d="M48.2253 80.9204V83.7812" stroke="white" stroke-width="0.817379"/>
<path d="M50.1325 317.961V316.871C50.1325 316.293 49.9029 315.738 49.4941 315.33C49.0854 314.921 48.5309 314.691 47.9529 314.691H44.6833C44.1053 314.691 43.5508 314.921 43.1421 315.33C42.7333 315.738 42.5037 316.293 42.5037 316.871V317.961" stroke="white" stroke-width="0.817379" stroke-linecap="round" stroke-linejoin="round"/>
<path d="M46.3181 312.511C47.5219 312.511 48.4978 311.536 48.4978 310.332C48.4978 309.128 47.5219 308.152 46.3181 308.152C45.1143 308.152 44.1384 309.128 44.1384 310.332C44.1384 311.536 45.1143 312.511 46.3181 312.511Z" stroke="white" stroke-width="0.817379" stroke-linecap="round" stroke-linejoin="round"/>
<path d="M54.2195 317.961V316.871C54.2195 316.293 53.9898 315.738 53.5811 315.33C53.1723 314.921 52.6179 314.691 52.0398 314.691" stroke="white" stroke-width="0.817379" stroke-linecap="round" stroke-linejoin="round"/>
<path d="M50.405 312.511C51.6088 312.511 52.5847 311.536 52.5847 310.332C52.5847 309.128 51.6088 308.152 50.405 308.152" stroke="white" stroke-width="0.817379" stroke-linecap="round" stroke-linejoin="round"/>
<path d="M53.1296 272.187V278.9L48.4111 277.578L48.1023 277.491L45.3797 276.728L45.3483 276.719L43.321 276.151V274.936L53.1296 272.187Z" stroke="white" stroke-width="0.817379" stroke-miterlimit="10"/>
<path d="M48.4112 277.578C48.4128 277.603 48.4136 277.628 48.4136 277.652C48.4136 278.567 47.6713 279.31 46.7555 279.31C45.8397 279.31 45.0981 278.567 45.0981 277.652C45.0981 277.31 45.2022 276.993 45.3797 276.728" stroke="white" stroke-width="0.792858" stroke-miterlimit="10"/>
<path d="M44.9558 390.552H51.7954V393.423C51.7954 394.762 50.7086 395.848 49.3696 395.848H47.3825C46.0434 395.848 44.9566 394.762 44.9566 393.423V390.552H44.9558Z" stroke="white" stroke-width="0.817379" stroke-miterlimit="10"/>
<path d="M48.3752 395.849V398.963" stroke="white" stroke-width="0.817379" stroke-miterlimit="10"/>
<path d="M46.7312 387.438V390.552" stroke="white" stroke-width="0.817379" stroke-miterlimit="10"/>
<path d="M50.02 387.438V390.552" stroke="white" stroke-width="0.817379" stroke-miterlimit="10"/>
<path d="M51.9868 347.386H44.0551C43.1983 347.386 42.5037 348.081 42.5037 348.938V356.869C42.5037 357.726 43.1983 358.421 44.0551 358.421H51.9868C52.8437 358.421 53.5383 357.726 53.5383 356.869V348.938C53.5383 348.081 52.8437 347.386 51.9868 347.386Z" stroke="white" stroke-width="0.817379" stroke-miterlimit="10"/>
<path d="M49.3853 351.54H46.6575V354.268H49.3853V351.54Z" stroke="white" stroke-width="0.817379" stroke-miterlimit="10"/>
<path d="M49.3845 351.54L51.1046 349.857" stroke="white" stroke-width="0.817379" stroke-miterlimit="10"/>
<path d="M49.3845 354.267L51.1046 355.95" stroke="white" stroke-width="0.817379" stroke-miterlimit="10"/>
<path d="M46.6573 351.54L44.9373 349.857" stroke="white" stroke-width="0.817379" stroke-miterlimit="10"/>
<path d="M46.6573 354.267L44.9373 355.95" stroke="white" stroke-width="0.817379" stroke-miterlimit="10"/>
<g filter="url(#filter0_f_699_3510)">
<g clip-path="url(#paint1_diamond_699_3510_clip_path)" data-figma-skip-parse="true"><g transform="matrix(-0.0147461 -0.0511072 0.0511072 -0.0147461 387.471 107.923)"><rect x="0" y="0" width="1008.74" height="729.992" fill="url(#paint1_diamond_699_3510)" opacity="0.8" shape-rendering="crispEdges"/><rect x="0" y="0" width="1008.74" height="729.992" transform="scale(1 -1)" fill="url(#paint1_diamond_699_3510)" opacity="0.8" shape-rendering="crispEdges"/><rect x="0" y="0" width="1008.74" height="729.992" transform="scale(-1 1)" fill="url(#paint1_diamond_699_3510)" opacity="0.8" shape-rendering="crispEdges"/><rect x="0" y="0" width="1008.74" height="729.992" transform="scale(-1)" fill="url(#paint1_diamond_699_3510)" opacity="0.8" shape-rendering="crispEdges"/></g></g><path d="M366.599 109.119C356.443 98.9623 356.443 82.4957 366.599 72.3394C376.755 62.183 393.222 62.183 403.378 72.3394C413.534 82.4957 413.534 98.9623 403.378 109.119C393.222 119.275 376.755 119.275 366.599 109.119Z" data-figma-gradient-fill="{&#34;type&#34;:&#34;GRADIENT_DIAMOND&#34;,&#34;stops&#34;:[{&#34;color&#34;:{&#34;r&#34;:0.11764705926179886,&#34;g&#34;:0.31764706969261169,&#34;b&#34;:0.15686275064945221,&#34;a&#34;:1.0},&#34;position&#34;:0.0},{&#34;color&#34;:{&#34;r&#34;:0.48627451062202454,&#34;g&#34;:0.70196080207824707,&#34;b&#34;:0.52941179275512695,&#34;a&#34;:1.0},&#34;position&#34;:1.0}],&#34;stopsVar&#34;:[{&#34;color&#34;:{&#34;r&#34;:0.11764705926179886,&#34;g&#34;:0.31764706969261169,&#34;b&#34;:0.15686275064945221,&#34;a&#34;:1.0},&#34;position&#34;:0.0},{&#34;color&#34;:{&#34;r&#34;:0.48627451062202454,&#34;g&#34;:0.70196080207824707,&#34;b&#34;:0.52941179275512695,&#34;a&#34;:1.0},&#34;position&#34;:1.0}],&#34;transform&#34;:{&#34;m00&#34;:-29.492132186889648,&#34;m01&#34;:102.21440887451172,&#34;m02&#34;:351.10998535156250,&#34;m10&#34;:-102.21440887451172,&#34;m11&#34;:-29.492132186889648,&#34;m12&#34;:173.77659606933594},&#34;opacity&#34;:0.80000001192092896,&#34;blendMode&#34;:&#34;NORMAL&#34;,&#34;visible&#34;:true}"/>
</g>
<path d="M147.263 459.028L150.537 450.446H151.8L155.061 459.028H153.921L153.014 456.711H149.274L148.367 459.028H147.263ZM149.593 455.742H152.695L151.138 451.611L149.593 455.742ZM156.67 456.969C156.686 457.345 156.85 457.651 157.16 457.888C157.479 458.125 157.888 458.244 158.386 458.244C158.828 458.244 159.183 458.158 159.453 457.986C159.731 457.806 159.87 457.573 159.87 457.287C159.87 457.042 159.804 456.854 159.674 456.723C159.543 456.593 159.371 456.503 159.159 456.454C158.954 456.405 158.66 456.355 158.276 456.306C157.736 456.241 157.295 456.155 156.952 456.049C156.608 455.943 156.331 455.775 156.118 455.546C155.905 455.309 155.799 454.986 155.799 454.578C155.799 454.21 155.901 453.883 156.106 453.597C156.318 453.311 156.604 453.09 156.964 452.935C157.324 452.771 157.728 452.69 158.178 452.69C158.913 452.69 159.51 452.861 159.968 453.204C160.434 453.548 160.691 454.038 160.74 454.676H159.735C159.694 454.349 159.535 454.079 159.257 453.867C158.979 453.654 158.631 453.548 158.215 453.548C157.79 453.548 157.446 453.638 157.185 453.818C156.923 453.989 156.792 454.218 156.792 454.504C156.792 454.717 156.854 454.88 156.976 454.995C157.099 455.109 157.254 455.187 157.442 455.228C157.638 455.268 157.933 455.313 158.325 455.362C158.873 455.428 159.322 455.518 159.674 455.632C160.033 455.747 160.319 455.93 160.532 456.184C160.753 456.437 160.863 456.781 160.863 457.214C160.863 457.59 160.753 457.921 160.532 458.207C160.311 458.493 160.013 458.714 159.637 458.869C159.261 459.024 158.844 459.102 158.386 459.102C157.569 459.102 156.911 458.914 156.412 458.538C155.922 458.162 155.673 457.639 155.664 456.969H156.67ZM162.003 450.446H163.009V456.135L166.184 452.775H167.386L164.983 455.338L167.558 459.028H166.344L164.259 456.061L163.009 457.373V459.028H162.003V450.446ZM178.522 452.702C179.225 452.702 179.794 452.922 180.227 453.364C180.668 453.805 180.889 454.492 180.889 455.424V459.028H179.883V455.485C179.883 454.88 179.753 454.418 179.491 454.1C179.238 453.781 178.874 453.621 178.4 453.621C177.877 453.621 177.464 453.805 177.162 454.173C176.867 454.541 176.72 455.044 176.72 455.681V459.028H175.715V455.485C175.715 454.88 175.584 454.418 175.322 454.1C175.061 453.781 174.689 453.621 174.207 453.621C173.7 453.621 173.295 453.818 172.993 454.21C172.699 454.594 172.552 455.101 172.552 455.73V459.028H171.546V452.775H172.417L172.552 453.634C173.001 453.012 173.61 452.702 174.378 452.702C174.828 452.702 175.224 452.804 175.568 453.008C175.919 453.204 176.181 453.499 176.352 453.891C176.802 453.098 177.525 452.702 178.522 452.702ZM181.958 455.902C181.958 455.264 182.08 454.704 182.326 454.222C182.579 453.74 182.93 453.368 183.38 453.106C183.83 452.837 184.345 452.702 184.925 452.702C185.497 452.702 186.004 452.82 186.445 453.057C186.887 453.294 187.234 453.638 187.487 454.087C187.741 454.537 187.876 455.064 187.892 455.669C187.892 455.759 187.884 455.902 187.867 456.098H183.012V456.184C183.029 456.797 183.217 457.287 183.576 457.655C183.936 458.023 184.406 458.207 184.986 458.207C185.436 458.207 185.816 458.097 186.126 457.876C186.445 457.647 186.658 457.332 186.764 456.932H187.782C187.659 457.569 187.352 458.092 186.862 458.501C186.372 458.902 185.771 459.102 185.06 459.102C184.439 459.102 183.895 458.971 183.429 458.71C182.963 458.44 182.599 458.064 182.338 457.582C182.084 457.091 181.958 456.531 181.958 455.902ZM186.85 455.264C186.801 454.733 186.6 454.32 186.249 454.026C185.906 453.732 185.468 453.585 184.937 453.585C184.463 453.585 184.046 453.74 183.687 454.05C183.327 454.361 183.123 454.766 183.074 455.264H186.85ZM198.096 458.109V459.028H197.545C197.144 459.028 196.858 458.947 196.686 458.783C196.515 458.62 196.425 458.379 196.417 458.06C195.934 458.754 195.236 459.102 194.32 459.102C193.625 459.102 193.065 458.938 192.64 458.611C192.224 458.285 192.015 457.839 192.015 457.275C192.015 456.646 192.228 456.163 192.653 455.828C193.086 455.493 193.711 455.326 194.529 455.326H196.368V454.896C196.368 454.488 196.229 454.169 195.951 453.94C195.681 453.711 195.301 453.597 194.811 453.597C194.377 453.597 194.018 453.695 193.732 453.891C193.454 454.079 193.282 454.332 193.217 454.651H192.211C192.285 454.038 192.555 453.56 193.02 453.217C193.495 452.873 194.108 452.702 194.86 452.702C195.661 452.702 196.278 452.898 196.711 453.29C197.152 453.674 197.373 454.23 197.373 454.958V457.655C197.373 457.958 197.512 458.109 197.79 458.109H198.096ZM196.368 456.172H194.43C193.499 456.172 193.033 456.519 193.033 457.214C193.033 457.524 193.155 457.774 193.401 457.962C193.646 458.15 193.977 458.244 194.394 458.244C195.007 458.244 195.489 458.084 195.84 457.765C196.192 457.439 196.368 457.009 196.368 456.478V456.172ZM201.934 452.702C202.695 452.702 203.304 452.931 203.761 453.388C204.227 453.846 204.46 454.565 204.46 455.546V459.028H203.455V455.608C203.455 454.962 203.308 454.471 203.013 454.136C202.727 453.793 202.31 453.621 201.763 453.621C201.174 453.621 200.712 453.826 200.377 454.234C200.042 454.643 199.875 455.199 199.875 455.902V459.028H198.869V452.775H199.74L199.875 453.621C200.349 453.008 201.035 452.702 201.934 452.702ZM206.004 452.775L207.929 457.876L209.792 452.775H210.859L207.978 460.083C207.831 460.459 207.7 460.741 207.585 460.929C207.471 461.117 207.328 461.256 207.156 461.346C206.985 461.436 206.756 461.48 206.47 461.48H205.268V460.561H206.163C206.359 460.561 206.506 460.54 206.605 460.5C206.703 460.459 206.78 460.389 206.838 460.291C206.903 460.201 206.981 460.046 207.07 459.825L207.389 459.077L204.937 452.775H206.004ZM211.609 451.022H212.614V452.775H214.196V453.695H212.614V457.385C212.614 457.647 212.663 457.835 212.761 457.949C212.868 458.056 213.048 458.109 213.301 458.109H214.392V459.028H213.24C212.651 459.028 212.23 458.898 211.977 458.636C211.732 458.374 211.609 457.962 211.609 457.398V451.022ZM218.17 452.702C218.93 452.702 219.544 452.931 220.009 453.388C220.475 453.846 220.708 454.565 220.708 455.546V459.028H219.703V455.608C219.703 454.962 219.556 454.471 219.262 454.136C218.967 453.793 218.546 453.621 217.999 453.621C217.418 453.621 216.956 453.826 216.613 454.234C216.278 454.643 216.111 455.199 216.111 455.902V459.028H215.105V450.446H216.111V453.805C216.315 453.478 216.585 453.213 216.92 453.008C217.263 452.804 217.68 452.702 218.17 452.702ZM222.492 450.36C222.68 450.36 222.836 450.421 222.958 450.544C223.081 450.667 223.142 450.822 223.142 451.01C223.142 451.198 223.081 451.353 222.958 451.476C222.836 451.598 222.68 451.66 222.492 451.66C222.304 451.66 222.149 451.598 222.027 451.476C221.904 451.353 221.843 451.198 221.843 451.01C221.843 450.822 221.904 450.667 222.027 450.544C222.149 450.421 222.304 450.36 222.492 450.36ZM221.99 452.775H222.995V459.028H221.99V452.775ZM227.438 452.702C228.198 452.702 228.807 452.931 229.265 453.388C229.73 453.846 229.963 454.565 229.963 455.546V459.028H228.958V455.608C228.958 454.962 228.811 454.471 228.517 454.136C228.231 453.793 227.814 453.621 227.266 453.621C226.678 453.621 226.216 453.826 225.881 454.234C225.545 454.643 225.378 455.199 225.378 455.902V459.028H224.372V452.775H225.243L225.378 453.621C225.852 453.008 226.539 452.702 227.438 452.702ZM237.179 452.775V458.722C237.179 460.61 236.145 461.554 234.077 461.554C233.268 461.554 232.606 461.37 232.091 461.002C231.584 460.634 231.29 460.111 231.208 459.433H232.238C232.32 459.825 232.528 460.128 232.864 460.34C233.199 460.553 233.628 460.659 234.151 460.659C235.5 460.659 236.174 460.001 236.174 458.685V457.949C235.724 458.718 235.009 459.102 234.028 459.102C233.448 459.102 232.929 458.975 232.471 458.722C232.022 458.468 231.666 458.101 231.405 457.618C231.151 457.136 231.024 456.564 231.024 455.902C231.024 455.272 231.151 454.717 231.405 454.234C231.666 453.752 232.026 453.376 232.484 453.106C232.941 452.837 233.456 452.702 234.028 452.702C234.535 452.702 234.968 452.804 235.328 453.008C235.688 453.204 235.97 453.486 236.174 453.854L236.309 452.775H237.179ZM234.126 458.207C234.527 458.207 234.883 458.113 235.193 457.925C235.512 457.729 235.757 457.459 235.929 457.116C236.1 456.764 236.186 456.368 236.186 455.926C236.186 455.477 236.1 455.076 235.929 454.725C235.757 454.365 235.512 454.087 235.193 453.891C234.883 453.695 234.527 453.597 234.126 453.597C233.505 453.597 233.003 453.813 232.618 454.247C232.242 454.672 232.054 455.223 232.054 455.902C232.054 456.58 232.242 457.136 232.618 457.569C233.003 457.994 233.505 458.207 234.126 458.207ZM238.426 458.415C238.426 458.211 238.492 458.047 238.622 457.925C238.753 457.794 238.921 457.729 239.125 457.729C239.33 457.729 239.497 457.794 239.628 457.925C239.759 458.047 239.824 458.211 239.824 458.415C239.824 458.62 239.759 458.787 239.628 458.918C239.497 459.041 239.33 459.102 239.125 459.102C238.921 459.102 238.753 459.041 238.622 458.918C238.492 458.787 238.426 458.62 238.426 458.415ZM240.953 458.415C240.953 458.211 241.018 458.047 241.149 457.925C241.28 457.794 241.447 457.729 241.652 457.729C241.856 457.729 242.023 457.794 242.154 457.925C242.285 458.047 242.35 458.211 242.35 458.415C242.35 458.62 242.285 458.787 242.154 458.918C242.023 459.041 241.856 459.102 241.652 459.102C241.447 459.102 241.28 459.041 241.149 458.918C241.018 458.787 240.953 458.62 240.953 458.415ZM243.479 458.415C243.479 458.211 243.544 458.047 243.675 457.925C243.806 457.794 243.974 457.729 244.178 457.729C244.382 457.729 244.55 457.794 244.681 457.925C244.811 458.047 244.877 458.211 244.877 458.415C244.877 458.62 244.811 458.787 244.681 458.918C244.55 459.041 244.382 459.102 244.178 459.102C243.974 459.102 243.806 459.041 243.675 458.918C243.544 458.787 243.479 458.62 243.479 458.415Z" fill="white" fill-opacity="0.6"/>
<rect x="141.407" y="499.419" width="29.4257" height="29.4257" rx="8.99117" fill="white" fill-opacity="0.1"/>
<circle cx="153.259" cy="511.271" r="1.63476" stroke="white" stroke-opacity="0.5" stroke-width="0.817379"/>
<path d="M154.893 511.271H161.024" stroke="white" stroke-opacity="0.5" stroke-width="0.817379"/>
<circle cx="2.04345" cy="2.04345" r="1.63476" transform="matrix(-1 0 0 1 161.024 514.949)" stroke="white" stroke-opacity="0.5" stroke-width="0.817379"/>
<path d="M157.345 516.992H151.215" stroke="white" stroke-opacity="0.5" stroke-width="0.817379"/>
<path d="M538.558 509.789H540.758C541.523 509.789 542.185 509.945 542.745 510.257C543.311 510.561 543.743 510.993 544.041 511.553C544.346 512.113 544.498 512.764 544.498 513.508C544.498 514.245 544.346 514.897 544.041 515.463C543.743 516.023 543.311 516.459 542.745 516.77C542.185 517.075 541.523 517.227 540.758 517.227H538.558V509.789ZM540.758 516.377C541.643 516.377 542.33 516.119 542.819 515.602C543.308 515.084 543.552 514.387 543.552 513.508C543.552 512.623 543.308 511.925 542.819 511.415C542.337 510.898 541.65 510.639 540.758 510.639H539.482V516.377H540.758ZM548.291 511.808V512.658H547.855C547.338 512.658 546.966 512.832 546.739 513.179C546.52 513.526 546.41 513.955 546.41 514.465V517.227H545.539V511.808H546.293L546.41 512.626C546.566 512.378 546.768 512.18 547.016 512.031C547.264 511.882 547.607 511.808 548.046 511.808H548.291ZM553.897 516.43V517.227H553.419C553.071 517.227 552.823 517.156 552.675 517.015C552.526 516.873 552.448 516.664 552.441 516.388C552.023 516.99 551.417 517.291 550.624 517.291C550.022 517.291 549.537 517.149 549.168 516.866C548.807 516.583 548.626 516.197 548.626 515.708C548.626 515.162 548.81 514.744 549.179 514.454C549.554 514.163 550.096 514.018 550.805 514.018H552.398V513.646C552.398 513.292 552.278 513.016 552.037 512.818C551.803 512.619 551.474 512.52 551.049 512.52C550.674 512.52 550.362 512.605 550.114 512.775C549.873 512.938 549.724 513.158 549.668 513.434H548.796C548.86 512.903 549.094 512.488 549.498 512.191C549.908 511.893 550.44 511.744 551.091 511.744C551.786 511.744 552.321 511.914 552.696 512.254C553.079 512.587 553.27 513.069 553.27 513.699V516.037C553.27 516.299 553.39 516.43 553.631 516.43H553.897ZM552.398 514.751H550.72C549.912 514.751 549.508 515.053 549.508 515.655C549.508 515.924 549.614 516.14 549.827 516.303C550.039 516.466 550.326 516.547 550.688 516.547C551.219 516.547 551.637 516.409 551.942 516.133C552.246 515.849 552.398 515.478 552.398 515.017V514.751ZM559.71 511.808V516.962C559.71 518.598 558.813 519.416 557.021 519.416C556.32 519.416 555.746 519.257 555.3 518.938C554.861 518.619 554.606 518.166 554.535 517.578H555.427C555.498 517.918 555.679 518.18 555.969 518.364C556.26 518.548 556.632 518.641 557.085 518.641C558.254 518.641 558.838 518.07 558.838 516.93V516.292C558.449 516.958 557.829 517.291 556.979 517.291C556.476 517.291 556.026 517.181 555.629 516.962C555.24 516.742 554.931 516.423 554.705 516.005C554.485 515.587 554.375 515.091 554.375 514.518C554.375 513.972 554.485 513.491 554.705 513.073C554.931 512.655 555.243 512.329 555.64 512.095C556.036 511.861 556.483 511.744 556.979 511.744C557.418 511.744 557.793 511.833 558.105 512.01C558.417 512.18 558.661 512.424 558.838 512.743L558.955 511.808H559.71ZM557.064 516.515C557.411 516.515 557.719 516.434 557.988 516.271C558.264 516.101 558.477 515.867 558.626 515.57C558.774 515.265 558.849 514.921 558.849 514.539C558.849 514.149 558.774 513.802 558.626 513.498C558.477 513.186 558.264 512.945 557.988 512.775C557.719 512.605 557.411 512.52 557.064 512.52C556.525 512.52 556.09 512.708 555.757 513.083C555.431 513.452 555.268 513.93 555.268 514.518C555.268 515.106 555.431 515.587 555.757 515.963C556.09 516.331 556.525 516.515 557.064 516.515ZM567.577 510.841C567.414 510.841 567.28 510.788 567.173 510.682C567.067 510.575 567.014 510.441 567.014 510.278C567.014 510.115 567.067 509.98 567.173 509.874C567.28 509.768 567.414 509.715 567.577 509.715C567.74 509.715 567.875 509.768 567.981 509.874C568.087 509.98 568.14 510.115 568.14 510.278C568.14 510.441 568.087 510.575 567.981 510.682C567.875 510.788 567.74 510.841 567.577 510.841ZM568.013 517.227H567.142V512.605H564.91V517.227H564.039V512.605H563.061V511.808H564.039V511.202C564.039 510.721 564.149 510.366 564.368 510.14C564.595 509.906 564.956 509.789 565.452 509.789H566.345V510.586H565.505C565.293 510.586 565.14 510.632 565.048 510.724C564.956 510.816 564.91 510.969 564.91 511.181V511.808H568.013V517.227ZM569.198 509.789H570.069V517.227H569.198V509.789ZM571.072 514.518C571.072 513.965 571.178 513.48 571.39 513.062C571.61 512.644 571.915 512.322 572.304 512.095C572.694 511.861 573.14 511.744 573.643 511.744C574.139 511.744 574.578 511.847 574.961 512.052C575.343 512.258 575.644 512.555 575.864 512.945C576.084 513.335 576.2 513.792 576.215 514.316C576.215 514.394 576.208 514.518 576.193 514.688H571.986V514.762C572 515.293 572.163 515.718 572.474 516.037C572.786 516.356 573.193 516.515 573.696 516.515C574.086 516.515 574.415 516.42 574.685 516.228C574.961 516.03 575.145 515.757 575.237 515.41H576.119C576.013 515.963 575.747 516.416 575.322 516.77C574.897 517.117 574.376 517.291 573.76 517.291C573.222 517.291 572.751 517.178 572.347 516.951C571.943 516.717 571.628 516.391 571.401 515.973C571.182 515.548 571.072 515.063 571.072 514.518ZM575.311 513.965C575.269 513.505 575.095 513.147 574.791 512.892C574.493 512.637 574.114 512.509 573.654 512.509C573.243 512.509 572.882 512.644 572.57 512.913C572.258 513.182 572.081 513.533 572.039 513.965H575.311ZM577.868 515.442C577.882 515.768 578.024 516.034 578.293 516.239C578.57 516.445 578.924 516.547 579.356 516.547C579.738 516.547 580.047 516.473 580.28 516.324C580.521 516.168 580.642 515.966 580.642 515.718C580.642 515.506 580.585 515.343 580.472 515.23C580.358 515.116 580.209 515.038 580.025 514.996C579.848 514.953 579.593 514.911 579.26 514.868C578.793 514.812 578.41 514.737 578.113 514.645C577.815 514.553 577.574 514.408 577.39 514.21C577.206 514.004 577.114 513.724 577.114 513.37C577.114 513.051 577.202 512.768 577.379 512.52C577.564 512.272 577.812 512.081 578.123 511.946C578.435 511.805 578.786 511.734 579.175 511.734C579.813 511.734 580.33 511.882 580.727 512.18C581.13 512.478 581.354 512.903 581.396 513.455H580.525C580.489 513.172 580.351 512.938 580.11 512.754C579.869 512.57 579.568 512.478 579.207 512.478C578.839 512.478 578.541 512.555 578.315 512.711C578.088 512.86 577.974 513.058 577.974 513.306C577.974 513.491 578.028 513.632 578.134 513.731C578.24 513.831 578.375 513.898 578.538 513.933C578.708 513.969 578.963 514.008 579.303 514.05C579.777 514.107 580.167 514.185 580.472 514.284C580.783 514.383 581.031 514.542 581.215 514.762C581.407 514.982 581.502 515.279 581.502 515.655C581.502 515.981 581.407 516.267 581.215 516.515C581.024 516.763 580.766 516.955 580.44 517.089C580.114 517.224 579.753 517.291 579.356 517.291C578.647 517.291 578.077 517.128 577.645 516.802C577.22 516.476 577.004 516.023 576.997 515.442H577.868ZM585.633 512.605H584.655V511.808H585.633V510.289H586.504V511.808H587.875V512.605H586.504V515.803C586.504 516.03 586.547 516.193 586.632 516.292C586.724 516.384 586.88 516.43 587.099 516.43H588.045V517.227H587.046C586.536 517.227 586.171 517.114 585.952 516.887C585.739 516.661 585.633 516.303 585.633 515.814V512.605ZM591.027 517.291C590.503 517.291 590.035 517.174 589.625 516.94C589.221 516.707 588.906 516.381 588.679 515.963C588.452 515.545 588.339 515.063 588.339 514.518C588.339 513.972 588.452 513.491 588.679 513.073C588.906 512.655 589.221 512.329 589.625 512.095C590.035 511.861 590.503 511.744 591.027 511.744C591.551 511.744 592.015 511.861 592.419 512.095C592.83 512.329 593.149 512.655 593.376 513.073C593.602 513.491 593.716 513.972 593.716 514.518C593.716 515.063 593.602 515.545 593.376 515.963C593.149 516.381 592.83 516.707 592.419 516.94C592.015 517.174 591.551 517.291 591.027 517.291ZM591.027 516.515C591.381 516.515 591.693 516.43 591.962 516.26C592.239 516.09 592.451 515.853 592.6 515.548C592.749 515.244 592.823 514.9 592.823 514.518C592.823 514.135 592.749 513.792 592.6 513.487C592.451 513.182 592.239 512.945 591.962 512.775C591.693 512.605 591.381 512.52 591.027 512.52C590.673 512.52 590.358 512.605 590.081 512.775C589.812 512.945 589.603 513.182 589.455 513.487C589.306 513.792 589.231 514.135 589.231 514.518C589.231 514.9 589.306 515.244 589.455 515.548C589.603 515.853 589.812 516.09 590.081 516.26C590.358 516.43 590.673 516.515 591.027 516.515ZM602.161 511.808V517.227H601.406L601.289 516.505C600.878 517.029 600.301 517.291 599.557 517.291C598.913 517.291 598.395 517.093 598.006 516.696C597.616 516.299 597.421 515.676 597.421 514.826V511.808H598.293V514.773C598.293 515.332 598.413 515.761 598.654 516.058C598.902 516.349 599.253 516.494 599.706 516.494C600.202 516.494 600.588 516.317 600.864 515.963C601.148 515.609 601.289 515.127 601.289 514.518V511.808H602.161ZM606.079 511.744C606.582 511.744 607.028 511.854 607.418 512.074C607.815 512.293 608.123 512.612 608.342 513.03C608.569 513.448 608.683 513.944 608.683 514.518C608.683 515.063 608.569 515.545 608.342 515.963C608.123 516.381 607.815 516.707 607.418 516.94C607.021 517.174 606.575 517.291 606.079 517.291C605.64 517.291 605.265 517.213 604.953 517.057C604.641 516.894 604.397 516.675 604.22 516.398V519.352H603.348V511.808H604.103L604.22 512.679C604.673 512.056 605.293 511.744 606.079 511.744ZM605.994 516.515C606.533 516.515 606.965 516.331 607.291 515.963C607.623 515.587 607.79 515.106 607.79 514.518C607.79 513.93 607.623 513.452 607.291 513.083C606.965 512.708 606.533 512.52 605.994 512.52C605.647 512.52 605.335 512.605 605.059 512.775C604.79 512.938 604.581 513.172 604.432 513.476C604.283 513.774 604.209 514.114 604.209 514.496C604.209 514.886 604.283 515.237 604.432 515.548C604.581 515.853 604.79 516.09 605.059 516.26C605.335 516.43 605.647 516.515 605.994 516.515ZM609.678 509.789H610.55V517.227H609.678V509.789ZM614.24 517.291C613.716 517.291 613.249 517.174 612.838 516.94C612.434 516.707 612.119 516.381 611.892 515.963C611.665 515.545 611.552 515.063 611.552 514.518C611.552 513.972 611.665 513.491 611.892 513.073C612.119 512.655 612.434 512.329 612.838 512.095C613.249 511.861 613.716 511.744 614.24 511.744C614.765 511.744 615.229 511.861 615.632 512.095C616.043 512.329 616.362 512.655 616.589 513.073C616.815 513.491 616.929 513.972 616.929 514.518C616.929 515.063 616.815 515.545 616.589 515.963C616.362 516.381 616.043 516.707 615.632 516.94C615.229 517.174 614.765 517.291 614.24 517.291ZM614.24 516.515C614.594 516.515 614.906 516.43 615.175 516.26C615.452 516.09 615.664 515.853 615.813 515.548C615.962 515.244 616.036 514.9 616.036 514.518C616.036 514.135 615.962 513.792 615.813 513.487C615.664 513.182 615.452 512.945 615.175 512.775C614.906 512.605 614.594 512.52 614.24 512.52C613.886 512.52 613.571 512.605 613.295 512.775C613.025 512.945 612.816 513.182 612.668 513.487C612.519 513.792 612.445 514.135 612.445 514.518C612.445 514.9 612.519 515.244 612.668 515.548C612.816 515.853 613.025 516.09 613.295 516.26C613.571 516.43 613.886 516.515 614.24 516.515ZM622.996 516.43V517.227H622.518C622.171 517.227 621.923 517.156 621.774 517.015C621.626 516.873 621.548 516.664 621.541 516.388C621.123 516.99 620.517 517.291 619.724 517.291C619.121 517.291 618.636 517.149 618.268 516.866C617.907 516.583 617.726 516.197 617.726 515.708C617.726 515.162 617.91 514.744 618.278 514.454C618.654 514.163 619.196 514.018 619.904 514.018H621.498V513.646C621.498 513.292 621.378 513.016 621.137 512.818C620.903 512.619 620.574 512.52 620.149 512.52C619.773 512.52 619.462 512.605 619.214 512.775C618.973 512.938 618.824 513.158 618.767 513.434H617.896C617.96 512.903 618.193 512.488 618.597 512.191C619.008 511.893 619.539 511.744 620.191 511.744C620.885 511.744 621.42 511.914 621.796 512.254C622.178 512.587 622.369 513.069 622.369 513.699V516.037C622.369 516.299 622.49 516.43 622.731 516.43H622.996ZM621.498 514.751H619.819C619.012 514.751 618.608 515.053 618.608 515.655C618.608 515.924 618.714 516.14 618.927 516.303C619.139 516.466 619.426 516.547 619.787 516.547C620.319 516.547 620.737 516.409 621.041 516.133C621.346 515.849 621.498 515.478 621.498 515.017V514.751ZM628.809 509.789V517.227H628.055L627.938 516.356C627.485 516.979 626.865 517.291 626.078 517.291C625.575 517.291 625.126 517.181 624.729 516.962C624.339 516.742 624.031 516.423 623.804 516.005C623.585 515.587 623.475 515.091 623.475 514.518C623.475 513.972 623.585 513.491 623.804 513.073C624.031 512.655 624.343 512.329 624.739 512.095C625.136 511.861 625.582 511.744 626.078 511.744C626.518 511.744 626.893 511.826 627.205 511.989C627.516 512.145 627.761 512.361 627.938 512.637V509.789H628.809ZM626.163 516.515C626.51 516.515 626.819 516.434 627.088 516.271C627.364 516.101 627.577 515.867 627.725 515.57C627.874 515.265 627.949 514.921 627.949 514.539C627.949 514.149 627.874 513.802 627.725 513.498C627.577 513.186 627.364 512.945 627.088 512.775C626.819 512.605 626.51 512.52 626.163 512.52C625.625 512.52 625.189 512.708 624.856 513.083C624.53 513.452 624.368 513.93 624.368 514.518C624.368 515.106 624.53 515.587 624.856 515.963C625.189 516.331 625.625 516.515 626.163 516.515Z" fill="white" fill-opacity="0.5"/>
<rect x="530.479" y="460.185" width="29.4257" height="29.4257" rx="8.99117" fill="white" fill-opacity="0.1"/>
<rect x="602.408" y="460.185" width="29.4257" height="29.4257" rx="8.99117" fill="white" fill-opacity="0.1"/>
<rect x="566.444" y="460.185" width="29.4257" height="29.4257" rx="8.99117" fill="white" fill-opacity="0.1"/>
<circle cx="578.296" cy="472.036" r="1.63476" stroke="white" stroke-width="0.817379"/>
<path d="M579.93 472.037H586.061" stroke="white" stroke-width="0.817379"/>
<circle cx="2.04345" cy="2.04345" r="1.63476" transform="matrix(-1 0 0 1 586.061 475.715)" stroke="white" stroke-width="0.817379"/>
<path d="M582.383 477.758H576.252" stroke="white" stroke-width="0.817379"/>
<path d="M622.843 469.176L611.808 473.263L616.241 476.013M622.843 469.176L619.165 480.21L616.241 476.013M622.843 469.176L616.241 476.013" stroke="white" stroke-width="0.817379" stroke-linecap="round" stroke-linejoin="round"/>
<path d="M540.357 480.071C539.817 479.55 539.504 478.834 539.487 478.081C539.47 477.328 539.75 476.598 540.265 476.052L540.22 476.098L546.091 469.905C546.61 469.362 547.322 469.046 548.071 469.029C548.819 469.011 549.544 469.293 550.087 469.811C550.627 470.333 550.94 471.049 550.957 471.802C550.974 472.555 550.694 473.285 550.178 473.832M550.039 473.977L545.462 478.809C545.155 479.129 544.734 479.315 544.291 479.324C543.849 479.334 543.421 479.167 543.1 478.861C542.781 478.553 542.596 478.13 542.585 477.684C542.575 477.239 542.74 476.807 543.045 476.483L547.022 472.286C547.195 472.106 547.432 472.002 547.681 471.996C547.93 471.99 548.171 472.082 548.352 472.254C548.531 472.427 548.635 472.665 548.641 472.916C548.647 473.167 548.554 473.41 548.382 473.591L545.885 476.222" stroke="white" stroke-width="0.817379" stroke-linecap="round" stroke-linejoin="round"/>
<path d="M225.086 591.383H231.719V592.364H228.936V599.965H227.869V592.364H225.086V591.383ZM234.489 600.039C233.885 600.039 233.345 599.904 232.871 599.634C232.405 599.365 232.041 598.989 231.78 598.506C231.518 598.024 231.388 597.468 231.388 596.839C231.388 596.209 231.518 595.654 231.78 595.171C232.041 594.689 232.405 594.313 232.871 594.043C233.345 593.774 233.885 593.639 234.489 593.639C235.094 593.639 235.63 593.774 236.096 594.043C236.57 594.313 236.938 594.689 237.199 595.171C237.461 595.654 237.591 596.209 237.591 596.839C237.591 597.468 237.461 598.024 237.199 598.506C236.938 598.989 236.57 599.365 236.096 599.634C235.63 599.904 235.094 600.039 234.489 600.039ZM234.489 599.144C234.898 599.144 235.258 599.046 235.568 598.85C235.887 598.653 236.132 598.38 236.304 598.028C236.476 597.677 236.562 597.28 236.562 596.839C236.562 596.397 236.476 596.001 236.304 595.65C236.132 595.298 235.887 595.024 235.568 594.828C235.258 594.632 234.898 594.534 234.489 594.534C234.081 594.534 233.717 594.632 233.398 594.828C233.088 595.024 232.847 595.298 232.675 595.65C232.503 596.001 232.417 596.397 232.417 596.839C232.417 597.28 232.503 597.677 232.675 598.028C232.847 598.38 233.088 598.653 233.398 598.85C233.717 599.046 234.081 599.144 234.489 599.144ZM241.626 600.039C241.021 600.039 240.481 599.904 240.007 599.634C239.541 599.365 239.178 598.989 238.916 598.506C238.654 598.024 238.524 597.468 238.524 596.839C238.524 596.209 238.654 595.654 238.916 595.171C239.178 594.689 239.541 594.313 240.007 594.043C240.481 593.774 241.021 593.639 241.626 593.639C242.23 593.639 242.766 593.774 243.232 594.043C243.706 594.313 244.074 594.689 244.335 595.171C244.597 595.654 244.728 596.209 244.728 596.839C244.728 597.468 244.597 598.024 244.335 598.506C244.074 598.989 243.706 599.365 243.232 599.634C242.766 599.904 242.23 600.039 241.626 600.039ZM241.626 599.144C242.034 599.144 242.394 599.046 242.705 598.85C243.023 598.653 243.269 598.38 243.44 598.028C243.612 597.677 243.698 597.28 243.698 596.839C243.698 596.397 243.612 596.001 243.44 595.65C243.269 595.298 243.023 595.024 242.705 594.828C242.394 594.632 242.034 594.534 241.626 594.534C241.217 594.534 240.853 594.632 240.534 594.828C240.224 595.024 239.983 595.298 239.811 595.65C239.639 596.001 239.554 596.397 239.554 596.839C239.554 597.28 239.639 597.677 239.811 598.028C239.983 598.38 240.224 598.653 240.534 598.85C240.853 599.046 241.217 599.144 241.626 599.144ZM245.88 591.383H246.886V599.965H245.88V591.383ZM249.048 597.906C249.064 598.282 249.228 598.588 249.538 598.825C249.857 599.062 250.266 599.181 250.764 599.181C251.206 599.181 251.561 599.095 251.831 598.923C252.109 598.743 252.248 598.51 252.248 598.224C252.248 597.979 252.182 597.791 252.052 597.66C251.921 597.53 251.749 597.44 251.537 597.391C251.332 597.342 251.038 597.293 250.654 597.243C250.114 597.178 249.673 597.092 249.33 596.986C248.986 596.88 248.709 596.712 248.496 596.483C248.284 596.246 248.177 595.923 248.177 595.515C248.177 595.147 248.279 594.82 248.484 594.534C248.696 594.248 248.982 594.027 249.342 593.872C249.702 593.708 250.106 593.627 250.556 593.627C251.292 593.627 251.888 593.798 252.346 594.142C252.812 594.485 253.069 594.975 253.118 595.613H252.113C252.072 595.286 251.913 595.016 251.635 594.804C251.357 594.591 251.01 594.485 250.593 594.485C250.168 594.485 249.824 594.575 249.563 594.755C249.301 594.926 249.17 595.155 249.17 595.441C249.17 595.654 249.232 595.817 249.354 595.932C249.477 596.046 249.632 596.124 249.82 596.165C250.016 596.205 250.311 596.25 250.703 596.299C251.251 596.365 251.7 596.455 252.052 596.569C252.411 596.684 252.697 596.867 252.91 597.121C253.131 597.374 253.241 597.718 253.241 598.151C253.241 598.527 253.131 598.858 252.91 599.144C252.689 599.43 252.391 599.651 252.015 599.806C251.639 599.961 251.222 600.039 250.764 600.039C249.947 600.039 249.289 599.851 248.79 599.475C248.3 599.099 248.051 598.576 248.042 597.906H249.048Z" fill="white" fill-opacity="0.5"/>
<path d="M314.802 591.383H315.929L318.553 598.702L321.165 591.383H322.268L319.179 599.965H317.891L314.802 591.383ZM328.111 599.046V599.965H327.559C327.159 599.965 326.872 599.884 326.701 599.72C326.529 599.557 326.439 599.316 326.431 598.997C325.949 599.692 325.25 600.039 324.334 600.039C323.64 600.039 323.08 599.875 322.655 599.548C322.238 599.222 322.029 598.776 322.029 598.212C322.029 597.583 322.242 597.1 322.667 596.765C323.1 596.43 323.726 596.263 324.543 596.263H326.382V595.833C326.382 595.425 326.243 595.106 325.965 594.877C325.695 594.648 325.315 594.534 324.825 594.534C324.392 594.534 324.032 594.632 323.746 594.828C323.468 595.016 323.296 595.269 323.231 595.588H322.226C322.299 594.975 322.569 594.497 323.035 594.154C323.509 593.81 324.122 593.639 324.874 593.639C325.675 593.639 326.292 593.835 326.725 594.227C327.167 594.611 327.387 595.167 327.387 595.895V598.592C327.387 598.895 327.526 599.046 327.804 599.046H328.111ZM326.382 597.109H324.445C323.513 597.109 323.047 597.456 323.047 598.151C323.047 598.461 323.17 598.711 323.415 598.899C323.66 599.087 323.991 599.181 324.408 599.181C325.021 599.181 325.503 599.021 325.855 598.702C326.206 598.376 326.382 597.946 326.382 597.415V597.109ZM334.266 593.712V599.965H333.396L333.261 599.132C332.787 599.736 332.12 600.039 331.262 600.039C330.518 600.039 329.922 599.81 329.472 599.352C329.023 598.895 328.798 598.175 328.798 597.194V593.712H329.803V597.133C329.803 597.779 329.942 598.273 330.22 598.617C330.506 598.952 330.911 599.119 331.434 599.119C332.006 599.119 332.452 598.915 332.77 598.506C333.097 598.098 333.261 597.542 333.261 596.839V593.712H334.266ZM335.637 591.383H336.642V599.965H335.637V591.383ZM338.019 591.959H339.025V593.712H340.606V594.632H339.025V598.322C339.025 598.584 339.074 598.772 339.172 598.886C339.278 598.993 339.458 599.046 339.711 599.046H340.803V599.965H339.65C339.061 599.965 338.641 599.835 338.387 599.573C338.142 599.311 338.019 598.899 338.019 598.335V591.959Z" fill="white" fill-opacity="0.5"/>
<path d="M274.639 587.696V604.452" stroke="white" stroke-opacity="0.1" stroke-width="0.817379"/>
<path d="M405.118 595.674C405.118 594.816 405.285 594.056 405.62 593.394C405.956 592.732 406.434 592.221 407.055 591.861C407.676 591.493 408.395 591.309 409.213 591.309C410.161 591.309 410.954 591.567 411.591 592.082C412.237 592.597 412.642 593.296 412.805 594.178H411.751C411.587 593.582 411.281 593.12 410.831 592.793C410.382 592.458 409.834 592.29 409.188 592.29C408.6 592.29 408.077 592.433 407.619 592.719C407.169 593.005 406.822 593.406 406.577 593.921C406.332 594.436 406.209 595.02 406.209 595.674C406.209 596.328 406.332 596.912 406.577 597.427C406.822 597.942 407.169 598.343 407.619 598.629C408.068 598.915 408.583 599.058 409.164 599.058C409.687 599.058 410.153 598.96 410.561 598.764C410.978 598.559 411.301 598.273 411.53 597.906C411.767 597.53 411.886 597.092 411.886 596.594V596.299H409.311V595.319H412.928V599.965H412.045L411.935 598.604C411.698 598.989 411.342 599.324 410.868 599.61C410.394 599.896 409.822 600.039 409.151 600.039C408.367 600.039 407.668 599.855 407.055 599.487C406.442 599.119 405.964 598.608 405.62 597.955C405.285 597.293 405.118 596.532 405.118 595.674ZM421.425 593.639C422.128 593.639 422.696 593.86 423.13 594.301C423.571 594.742 423.792 595.429 423.792 596.361V599.965H422.786V596.422C422.786 595.817 422.655 595.355 422.394 595.037C422.141 594.718 421.777 594.558 421.303 594.558C420.78 594.558 420.367 594.742 420.064 595.11C419.77 595.478 419.623 595.981 419.623 596.618V599.965H418.618V596.422C418.618 595.817 418.487 595.355 418.225 595.037C417.964 594.718 417.592 594.558 417.11 594.558C416.603 594.558 416.198 594.755 415.896 595.147C415.601 595.531 415.454 596.038 415.454 596.667V599.965H414.449V593.712H415.319L415.454 594.571C415.904 593.949 416.513 593.639 417.281 593.639C417.731 593.639 418.127 593.741 418.47 593.945C418.822 594.142 419.084 594.436 419.255 594.828C419.705 594.035 420.428 593.639 421.425 593.639ZM430.93 599.046V599.965H430.378C429.977 599.965 429.691 599.884 429.52 599.72C429.348 599.557 429.258 599.316 429.25 598.997C428.768 599.692 428.069 600.039 427.153 600.039C426.459 600.039 425.899 599.875 425.474 599.548C425.057 599.222 424.848 598.776 424.848 598.212C424.848 597.583 425.061 597.1 425.486 596.765C425.919 596.43 426.544 596.263 427.362 596.263H429.201V595.833C429.201 595.425 429.062 595.106 428.784 594.877C428.514 594.648 428.134 594.534 427.644 594.534C427.211 594.534 426.851 594.632 426.565 594.828C426.287 595.016 426.115 595.269 426.05 595.588H425.045C425.118 594.975 425.388 594.497 425.854 594.154C426.328 593.81 426.941 593.639 427.693 593.639C428.494 593.639 429.111 593.835 429.544 594.227C429.986 594.611 430.206 595.167 430.206 595.895V598.592C430.206 598.895 430.345 599.046 430.623 599.046H430.93ZM429.201 597.109H427.264C426.332 597.109 425.866 597.456 425.866 598.151C425.866 598.461 425.989 598.711 426.234 598.899C426.479 599.087 426.81 599.181 427.227 599.181C427.84 599.181 428.322 599.021 428.674 598.702C429.025 598.376 429.201 597.946 429.201 597.415V597.109ZM432.205 591.297C432.393 591.297 432.549 591.358 432.671 591.481C432.794 591.604 432.855 591.759 432.855 591.947C432.855 592.135 432.794 592.29 432.671 592.413C432.549 592.535 432.393 592.597 432.205 592.597C432.017 592.597 431.862 592.535 431.739 592.413C431.617 592.29 431.555 592.135 431.555 591.947C431.555 591.759 431.617 591.604 431.739 591.481C431.862 591.358 432.017 591.297 432.205 591.297ZM431.703 593.712H432.708V599.965H431.703V593.712ZM434.085 591.383H435.091V599.965H434.085V591.383Z" fill="white" fill-opacity="0.5"/>
<path d="M494.625 591.383H495.753L498.377 598.702L500.988 591.383H502.092L499.002 599.965H497.714L494.625 591.383ZM503.391 591.297C503.579 591.297 503.734 591.358 503.856 591.481C503.979 591.604 504.04 591.759 504.04 591.947C504.04 592.135 503.979 592.29 503.856 592.413C503.734 592.535 503.579 592.597 503.391 592.597C503.203 592.597 503.047 592.535 502.925 592.413C502.802 592.29 502.741 592.135 502.741 591.947C502.741 591.759 502.802 591.604 502.925 591.481C503.047 591.358 503.203 591.297 503.391 591.297ZM502.888 593.712H503.893V599.965H502.888V593.712ZM506.055 597.906C506.072 598.282 506.235 598.588 506.546 598.825C506.864 599.062 507.273 599.181 507.772 599.181C508.213 599.181 508.569 599.095 508.838 598.923C509.116 598.743 509.255 598.51 509.255 598.224C509.255 597.979 509.19 597.791 509.059 597.66C508.928 597.53 508.757 597.44 508.544 597.391C508.34 597.342 508.046 597.293 507.661 597.243C507.122 597.178 506.681 597.092 506.337 596.986C505.994 596.88 505.716 596.712 505.504 596.483C505.291 596.246 505.185 595.923 505.185 595.515C505.185 595.147 505.287 594.82 505.491 594.534C505.704 594.248 505.99 594.027 506.35 593.872C506.709 593.708 507.114 593.627 507.563 593.627C508.299 593.627 508.896 593.798 509.353 594.142C509.819 594.485 510.077 594.975 510.126 595.613H509.12C509.08 595.286 508.92 595.016 508.642 594.804C508.364 594.591 508.017 594.485 507.6 594.485C507.175 594.485 506.832 594.575 506.57 594.755C506.309 594.926 506.178 595.155 506.178 595.441C506.178 595.654 506.239 595.817 506.362 595.932C506.484 596.046 506.64 596.124 506.828 596.165C507.024 596.205 507.318 596.25 507.71 596.299C508.258 596.365 508.708 596.455 509.059 596.569C509.419 596.684 509.705 596.867 509.917 597.121C510.138 597.374 510.248 597.718 510.248 598.151C510.248 598.527 510.138 598.858 509.917 599.144C509.697 599.43 509.398 599.651 509.022 599.806C508.646 599.961 508.229 600.039 507.772 600.039C506.954 600.039 506.296 599.851 505.798 599.475C505.307 599.099 505.058 598.576 505.05 597.906H506.055ZM516.771 593.712V599.965H515.901L515.766 599.132C515.292 599.736 514.626 600.039 513.768 600.039C513.024 600.039 512.427 599.81 511.977 599.352C511.528 598.895 511.303 598.175 511.303 597.194V593.712H512.308V597.133C512.308 597.779 512.447 598.273 512.725 598.617C513.011 598.952 513.416 599.119 513.939 599.119C514.511 599.119 514.957 598.915 515.276 598.506C515.603 598.098 515.766 597.542 515.766 596.839V593.712H516.771ZM523.99 599.046V599.965H523.439C523.038 599.965 522.752 599.884 522.58 599.72C522.409 599.557 522.319 599.316 522.311 598.997C521.828 599.692 521.129 600.039 520.214 600.039C519.519 600.039 518.959 599.875 518.534 599.548C518.117 599.222 517.909 598.776 517.909 598.212C517.909 597.583 518.121 597.1 518.547 596.765C518.98 596.43 519.605 596.263 520.422 596.263H522.261V595.833C522.261 595.425 522.123 595.106 521.845 594.877C521.575 594.648 521.195 594.534 520.704 594.534C520.271 594.534 519.912 594.632 519.625 594.828C519.348 595.016 519.176 595.269 519.111 595.588H518.105C518.179 594.975 518.448 594.497 518.914 594.154C519.388 593.81 520.001 593.639 520.753 593.639C521.554 593.639 522.172 593.835 522.605 594.227C523.046 594.611 523.267 595.167 523.267 595.895V598.592C523.267 598.895 523.406 599.046 523.684 599.046H523.99ZM522.261 597.109H520.324C519.392 597.109 518.927 597.456 518.927 598.151C518.927 598.461 519.049 598.711 519.294 598.899C519.54 599.087 519.871 599.181 520.288 599.181C520.901 599.181 521.383 599.021 521.734 598.702C522.086 598.376 522.261 597.946 522.261 597.415V597.109ZM524.763 591.383H525.769V599.965H524.763V591.383ZM527.649 591.297C527.837 591.297 527.992 591.358 528.114 591.481C528.237 591.604 528.298 591.759 528.298 591.947C528.298 592.135 528.237 592.29 528.114 592.413C527.992 592.535 527.837 592.597 527.649 592.597C527.461 592.597 527.305 592.535 527.183 592.413C527.06 592.29 526.999 592.135 526.999 591.947C526.999 591.759 527.06 591.604 527.183 591.481C527.305 591.358 527.461 591.297 527.649 591.297ZM527.146 593.712H528.151V599.965H527.146V593.712ZM529.271 593.712H534.249V594.473L530.448 599.046H534.408V599.965H529.112V599.205L532.9 594.632H529.271V593.712ZM541.028 599.046V599.965H540.477C540.076 599.965 539.79 599.884 539.618 599.72C539.447 599.557 539.357 599.316 539.349 598.997C538.866 599.692 538.167 600.039 537.252 600.039C536.557 600.039 535.997 599.875 535.572 599.548C535.155 599.222 534.947 598.776 534.947 598.212C534.947 597.583 535.16 597.1 535.585 596.765C536.018 596.43 536.643 596.263 537.46 596.263H539.3V595.833C539.3 595.425 539.161 595.106 538.883 594.877C538.613 594.648 538.233 594.534 537.742 594.534C537.309 594.534 536.95 594.632 536.663 594.828C536.386 595.016 536.214 595.269 536.149 595.588H535.143C535.217 594.975 535.486 594.497 535.952 594.154C536.426 593.81 537.039 593.639 537.791 593.639C538.593 593.639 539.21 593.835 539.643 594.227C540.084 594.611 540.305 595.167 540.305 595.895V598.592C540.305 598.895 540.444 599.046 540.722 599.046H541.028ZM539.3 597.109H537.362C536.431 597.109 535.965 597.456 535.965 598.151C535.965 598.461 536.087 598.711 536.332 598.899C536.578 599.087 536.909 599.181 537.326 599.181C537.939 599.181 538.421 599.021 538.772 598.702C539.124 598.376 539.3 597.946 539.3 597.415V597.109ZM542.218 594.632H541.09V593.712H542.218V591.959H543.223V593.712H544.805V594.632H543.223V598.322C543.223 598.584 543.272 598.772 543.371 598.886C543.477 598.993 543.657 599.046 543.91 599.046H545.001V599.965H543.849C543.26 599.965 542.839 599.835 542.586 599.573C542.341 599.311 542.218 598.899 542.218 598.335V594.632ZM546.219 591.297C546.407 591.297 546.562 591.358 546.685 591.481C546.808 591.604 546.869 591.759 546.869 591.947C546.869 592.135 546.808 592.29 546.685 592.413C546.562 592.535 546.407 592.597 546.219 592.597C546.031 592.597 545.876 592.535 545.753 592.413C545.631 592.29 545.569 592.135 545.569 591.947C545.569 591.759 545.631 591.604 545.753 591.481C545.876 591.358 546.031 591.297 546.219 591.297ZM545.716 593.712H546.722V599.965H545.716V593.712ZM550.98 600.039C550.376 600.039 549.836 599.904 549.362 599.634C548.896 599.365 548.532 598.989 548.271 598.506C548.009 598.024 547.878 597.468 547.878 596.839C547.878 596.209 548.009 595.654 548.271 595.171C548.532 594.689 548.896 594.313 549.362 594.043C549.836 593.774 550.376 593.639 550.98 593.639C551.585 593.639 552.121 593.774 552.587 594.043C553.061 594.313 553.428 594.689 553.69 595.171C553.952 595.654 554.082 596.209 554.082 596.839C554.082 597.468 553.952 598.024 553.69 598.506C553.428 598.989 553.061 599.365 552.587 599.634C552.121 599.904 551.585 600.039 550.98 600.039ZM550.98 599.144C551.389 599.144 551.749 599.046 552.059 598.85C552.378 598.653 552.623 598.38 552.795 598.028C552.967 597.677 553.052 597.28 553.052 596.839C553.052 596.397 552.967 596.001 552.795 595.65C552.623 595.298 552.378 595.024 552.059 594.828C551.749 594.632 551.389 594.534 550.98 594.534C550.572 594.534 550.208 594.632 549.889 594.828C549.579 595.024 549.338 595.298 549.166 595.65C548.994 596.001 548.908 596.397 548.908 596.839C548.908 597.28 548.994 597.677 549.166 598.028C549.338 598.38 549.579 598.653 549.889 598.85C550.208 599.046 550.572 599.144 550.98 599.144ZM558.3 593.639C559.061 593.639 559.67 593.868 560.127 594.325C560.593 594.783 560.826 595.502 560.826 596.483V599.965H559.821V596.545C559.821 595.899 559.674 595.408 559.379 595.073C559.093 594.73 558.676 594.558 558.129 594.558C557.54 594.558 557.078 594.763 556.743 595.171C556.408 595.58 556.241 596.136 556.241 596.839V599.965H555.235V593.712H556.106L556.241 594.558C556.715 593.945 557.401 593.639 558.3 593.639Z" fill="white" fill-opacity="0.5"/>
<path d="M364.551 587.696V604.452" stroke="white" stroke-opacity="0.1" stroke-width="0.817379"/>
<path d="M454.463 587.696V604.452" stroke="white" stroke-opacity="0.1" stroke-width="0.817379"/>
<path d="M302.985 590.147H302.022H299.978C298.624 590.147 297.526 591.245 297.526 592.6V599.255C297.526 600.61 298.624 601.708 299.978 601.708H304.065C305.419 601.708 306.517 600.61 306.517 599.255V593.76M302.985 590.147L306.517 593.76M302.985 590.147V592.943C302.985 593.394 303.351 593.76 303.802 593.76H306.517" stroke="white" stroke-opacity="0.5" stroke-width="0.817379" stroke-linecap="round" stroke-linejoin="round"/>
<path d="M300.095 596.57H303.948" stroke="white" stroke-opacity="0.5" stroke-width="0.817379" stroke-linecap="round" stroke-linejoin="round"/>
<path d="M300.095 594.322H301.379" stroke="white" stroke-opacity="0.5" stroke-width="0.817379" stroke-linecap="round" stroke-linejoin="round"/>
<path d="M300.095 598.818H303.948" stroke="white" stroke-opacity="0.5" stroke-width="0.817379" stroke-linecap="round" stroke-linejoin="round"/>
<path d="M386.445 592.25L390.112 594.999C390.983 595.653 392.182 595.653 393.054 594.999L396.721 592.25" stroke="white" stroke-opacity="0.5" stroke-width="0.817379" stroke-linecap="round" stroke-linejoin="round"/>
<rect x="385.803" y="590.965" width="11.5601" height="8.99117" rx="1.63476" stroke="white" stroke-opacity="0.5" stroke-width="0.817379" stroke-linecap="round"/>
<path d="M478.984 590.557V599.548C478.984 600.451 479.716 601.183 480.619 601.183H489.202" stroke="white" stroke-opacity="0.5" stroke-width="0.817379"/>
<path d="M481.845 599.139V596.278" stroke="white" stroke-opacity="0.5" stroke-width="0.817379"/>
<path d="M484.706 599.139L484.706 591.783" stroke="white" stroke-opacity="0.5" stroke-width="0.817379"/>
<path d="M487.158 599.139L487.158 594.235" stroke="white" stroke-opacity="0.5" stroke-width="0.817379"/>
<path d="M217.423 593.686C217.423 595.641 215.836 597.225 213.879 597.225C213.554 597.225 213.239 597.182 212.94 597.099L209.205 600.409C208.607 600.939 207.692 600.885 207.162 600.288C206.631 599.69 206.686 598.777 207.283 598.247L210.689 595.229C210.462 594.763 210.335 594.239 210.335 593.686C210.335 591.732 211.921 590.147 213.879 590.147C214.493 590.147 215.071 590.303 215.574 590.578L213.401 592.588C213.245 592.733 213.14 592.912 213.088 593.103C212.993 593.454 213.076 593.845 213.342 594.132C213.752 594.575 214.445 594.601 214.888 594.192L215.804 593.346L217.08 592.166C217.3 592.626 217.423 593.142 217.423 593.686Z" stroke="white" stroke-opacity="0.5" stroke-width="0.653903" stroke-miterlimit="10"/>
<rect x="187.18" y="502.688" width="22.8866" height="22.0692" rx="8.99117" fill="white" fill-opacity="0.1"/>
<rect x="213.336" y="502.688" width="22.8866" height="22.0692" rx="8.99117" fill="white" fill-opacity="0.1"/>
<rect x="239.492" y="502.688" width="22.8866" height="22.0692" rx="8.99117" fill="white" fill-opacity="0.1"/>
<g clip-path="url(#clip0_699_3510)">
<path d="M194.885 515.831C194.885 516.582 194.278 517.19 193.526 517.19C192.774 517.19 192.167 516.582 192.167 515.831C192.167 515.079 192.774 514.471 193.526 514.471H194.885V515.831ZM195.565 515.831C195.565 515.079 196.172 514.471 196.924 514.471C197.676 514.471 198.283 515.079 198.283 515.831V519.229C198.283 519.981 197.676 520.588 196.924 520.588C196.172 520.588 195.565 519.981 195.565 519.229V515.831Z" fill="#E01E5A"/>
<path d="M196.924 510.373C196.172 510.373 195.565 509.765 195.565 509.014C195.565 508.262 196.172 507.654 196.924 507.654C197.676 507.654 198.283 508.262 198.283 509.014V510.373H196.924ZM196.924 511.063C197.676 511.063 198.283 511.67 198.283 512.422C198.283 513.174 197.676 513.781 196.924 513.781H193.516C192.764 513.781 192.156 513.174 192.156 512.422C192.156 511.67 192.764 511.063 193.516 511.063H196.924Z" fill="#36C5F0"/>
<path d="M202.372 512.422C202.372 511.67 202.979 511.063 203.731 511.063C204.483 511.063 205.09 511.67 205.09 512.422C205.09 513.174 204.483 513.781 203.731 513.781H202.372V512.422ZM201.692 512.422C201.692 513.174 201.084 513.781 200.333 513.781C199.581 513.781 198.973 513.174 198.973 512.422V509.014C198.973 508.262 199.581 507.654 200.333 507.654C201.084 507.654 201.692 508.262 201.692 509.014V512.422Z" fill="#2EB67D"/>
<path d="M200.333 517.87C201.084 517.87 201.692 518.477 201.692 519.229C201.692 519.981 201.084 520.588 200.333 520.588C199.581 520.588 198.973 519.981 198.973 519.229V517.87H200.333ZM200.333 517.19C199.581 517.19 198.973 516.582 198.973 515.831C198.973 515.079 199.581 514.471 200.333 514.471H203.741C204.493 514.471 205.101 515.079 205.101 515.831C205.101 516.582 204.493 517.19 203.741 517.19H200.333Z" fill="#ECB22E"/>
</g>
<g clip-path="url(#clip1_699_3510)">
<path d="M219.132 519.038H221.213V513.985L218.24 511.756V518.147C218.24 518.64 218.64 519.038 219.132 519.038Z" fill="#4285F4"/>
<path d="M228.346 519.038H230.427C230.92 519.038 231.318 518.638 231.318 518.147V511.756L228.346 513.985" fill="#34A853"/>
<path d="M228.346 510.122V513.985L231.318 511.756V510.567C231.318 509.465 230.06 508.836 229.178 509.497" fill="#FBBC04"/>
<path d="M221.213 513.985V510.121L224.779 512.796L228.346 510.121V513.985L224.779 516.66" fill="#EA4335"/>
<path d="M218.24 510.567V511.756L221.213 513.985V510.122L220.381 509.497C219.498 508.836 218.24 509.465 218.24 510.567Z" fill="#C5221F"/>
</g>
<path d="M244.238 516.124C244.235 516.34 244.29 516.557 244.402 516.75L245.896 519.342C246.115 519.722 246.52 519.955 246.958 519.955H254.913C255.351 519.955 255.756 519.722 255.975 519.342L257.469 516.75C257.581 516.557 257.636 516.34 257.633 516.124H244.238Z" fill="#4285F4"/>
<path d="M255.531 519.788L248.825 508.174C249.012 508.063 249.228 508.001 249.453 508.001H252.418C252.856 508.001 253.26 508.235 253.479 508.614L257.469 515.525C257.688 515.904 257.688 516.371 257.469 516.75L255.975 519.342C255.866 519.53 255.712 519.682 255.531 519.788Z" fill="#FBBC04"/>
<path d="M253.046 508.174C252.859 508.063 252.643 508.001 252.418 508.001H249.453C249.015 508.001 248.611 508.235 248.392 508.614L244.402 515.525C244.183 515.904 244.183 516.371 244.402 516.75L245.896 519.342C246.005 519.53 246.159 519.682 246.34 519.788L253.046 508.174Z" fill="#34A853"/>
<path d="M257.633 516.124C257.636 516.34 257.581 516.557 257.469 516.75L255.974 519.342C255.866 519.53 255.712 519.682 255.531 519.788L253.415 516.124H257.633Z" fill="#EA4335"/>
<path d="M253.046 508.174C252.859 508.063 252.643 508.001 252.418 508.001H249.453C249.228 508.001 249.012 508.063 248.825 508.174L250.936 511.829L253.046 508.174Z" fill="#188038"/>
<path d="M244.238 516.124C244.235 516.34 244.29 516.557 244.402 516.75L245.896 519.342C246.005 519.53 246.159 519.682 246.34 519.788L248.456 516.124H244.238Z" fill="#1967D2"/>
<path d="M46.5906 37.5993L49.8601 34.3298L46.5906 31.0603" stroke="white" stroke-width="0.817379" stroke-linecap="round" stroke-linejoin="round"/>
<rect x="0.5" y="0.5" width="684.781" height="634.921" rx="19.1171" stroke="white"/>
<defs>
<filter id="filter0_f_699_3510" x="350.808" y="56.5484" width="68.3613" height="68.3613" filterUnits="userSpaceOnUse" color-interpolation-filters="sRGB">
<feFlood flood-opacity="0" result="BackgroundImageFix"/>
<feBlend mode="normal" in="SourceGraphic" in2="BackgroundImageFix" result="shape"/>
<feGaussianBlur stdDeviation="4.0869" result="effect1_foregroundBlur_699_3510"/>
</filter>
<clipPath id="paint1_diamond_699_3510_clip_path"><path d="M366.599 109.119C356.443 98.9623 356.443 82.4957 366.599 72.3394C376.755 62.183 393.222 62.183 403.378 72.3394C413.534 82.4957 413.534 98.9623 403.378 109.119C393.222 119.275 376.755 119.275 366.599 109.119Z"/></clipPath><linearGradient id="paint0_linear_699_3510" x1="124.242" y1="444.654" x2="645.73" y2="542.74" gradientUnits="userSpaceOnUse">
<stop stop-color="#7EB689"/>
<stop offset="1" stop-color="#1E5128"/>
</linearGradient>
<linearGradient id="paint1_diamond_699_3510" x1="0" y1="0" x2="500" y2="500" gradientUnits="userSpaceOnUse">
<stop stop-color="#1E5128"/>
<stop offset="1" stop-color="#7CB387"/>
</linearGradient>
<clipPath id="clip0_699_3510">
<rect width="13.0781" height="13.0781" fill="white" transform="translate(192.084 507.593)"/>
</clipPath>
<clipPath id="clip1_699_3510">
<rect width="13.0781" height="13.0781" fill="white" transform="translate(218.24 507.593)"/>
</clipPath>
</defs>
</svg>
