<svg width="706" height="540" viewBox="0 0 706 540" fill="none" xmlns="http://www.w3.org/2000/svg">
<rect opacity="0.5" x="56" y="358" width="175" height="40" rx="5" fill="white"/>
<path d="M112.455 380.812H112.347C112.275 380.988 112.187 381.156 112.083 381.316C111.979 381.476 111.851 381.62 111.699 381.748C111.547 381.868 111.367 381.964 111.159 382.036C110.959 382.108 110.731 382.144 110.475 382.144C110.067 382.144 109.703 382.048 109.383 381.856C109.071 381.664 108.807 381.384 108.591 381.016C108.375 380.648 108.211 380.2 108.099 379.672C107.995 379.144 107.943 378.548 107.943 377.884C107.943 376.46 108.203 375.372 108.723 374.62C109.243 373.86 110.047 373.48 111.135 373.48C111.567 373.48 111.947 373.54 112.275 373.66C112.603 373.772 112.883 373.936 113.115 374.152C113.355 374.36 113.551 374.612 113.703 374.908C113.855 375.204 113.975 375.532 114.063 375.892L112.383 376.3C112.335 376.124 112.279 375.956 112.215 375.796C112.159 375.628 112.083 375.48 111.987 375.352C111.891 375.224 111.771 375.124 111.627 375.052C111.483 374.972 111.307 374.932 111.099 374.932C110.643 374.932 110.319 375.12 110.127 375.496C109.943 375.872 109.851 376.4 109.851 377.08V378.448C109.851 379.128 109.951 379.672 110.151 380.08C110.359 380.488 110.723 380.692 111.243 380.692C111.651 380.692 111.955 380.572 112.155 380.332C112.355 380.092 112.455 379.784 112.455 379.408V378.796H111.027V377.524H114.063V382H112.455V380.812ZM115.679 382V373.624H121.031V375.1H117.479V377.02H120.911V378.496H117.479V380.524H121.031V382H115.679ZM124.314 376.432H124.182V382H122.646V373.624H124.806L126.714 379.192H126.846V373.624H128.382V382H126.222L124.314 376.432ZM130.069 382V373.624H135.421V375.1H131.869V377.02H135.301V378.496H131.869V380.524H135.421V382H130.069ZM138.993 382H137.217V373.624H140.457C140.865 373.624 141.229 373.688 141.549 373.816C141.869 373.936 142.137 374.112 142.353 374.344C142.577 374.576 142.745 374.856 142.857 375.184C142.969 375.512 143.025 375.88 143.025 376.288C143.025 376.88 142.897 377.388 142.641 377.812C142.385 378.236 142.021 378.516 141.549 378.652L143.193 382H141.225L139.821 378.892H138.993V382ZM140.025 377.5C140.449 377.5 140.741 377.42 140.901 377.26C141.069 377.1 141.153 376.836 141.153 376.468V376.108C141.153 375.74 141.069 375.476 140.901 375.316C140.741 375.156 140.449 375.076 140.025 375.076H138.993V377.5H140.025ZM148.72 382L148.192 379.984H145.9L145.384 382H143.56L145.828 373.624H148.372L150.64 382H148.72ZM147.1 375.364H147.004L146.188 378.532H147.916L147.1 375.364ZM155.195 375.1V382H153.395V375.1H150.983V373.624H157.607V375.1H155.195ZM158.791 382V380.668H160.591V374.956H158.791V373.624H164.191V374.956H162.391V380.668H164.191V382H158.791ZM167.486 376.432H167.354V382H165.818V373.624H167.978L169.886 379.192H170.018V373.624H171.554V382H169.394L167.486 376.432ZM177.213 380.812H177.105C177.033 380.988 176.945 381.156 176.841 381.316C176.737 381.476 176.609 381.62 176.457 381.748C176.305 381.868 176.125 381.964 175.917 382.036C175.717 382.108 175.489 382.144 175.233 382.144C174.825 382.144 174.461 382.048 174.141 381.856C173.829 381.664 173.565 381.384 173.349 381.016C173.133 380.648 172.969 380.2 172.857 379.672C172.753 379.144 172.701 378.548 172.701 377.884C172.701 376.46 172.961 375.372 173.481 374.62C174.001 373.86 174.805 373.48 175.893 373.48C176.325 373.48 176.705 373.54 177.033 373.66C177.361 373.772 177.641 373.936 177.873 374.152C178.113 374.36 178.309 374.612 178.461 374.908C178.613 375.204 178.733 375.532 178.821 375.892L177.141 376.3C177.093 376.124 177.037 375.956 176.973 375.796C176.917 375.628 176.841 375.48 176.745 375.352C176.649 375.224 176.529 375.124 176.385 375.052C176.241 374.972 176.065 374.932 175.857 374.932C175.401 374.932 175.077 375.12 174.885 375.496C174.701 375.872 174.609 376.4 174.609 377.08V378.448C174.609 379.128 174.709 379.672 174.909 380.08C175.117 380.488 175.481 380.692 176.001 380.692C176.409 380.692 176.713 380.572 176.913 380.332C177.113 380.092 177.213 379.784 177.213 379.408V378.796H175.785V377.524H178.821V382H177.213V380.812Z" fill="white"/>
<path d="M144.989 336.808C143.544 337.092 142.602 338.494 142.886 339.939C143.17 341.384 144.572 342.325 146.017 342.041C147.462 341.758 148.403 340.356 148.119 338.911C147.836 337.466 146.434 336.524 144.989 336.808ZM284 130L283.772 129.555C283.202 129.847 282.626 130.148 282.042 130.456L282.276 130.898L282.509 131.34C283.09 131.034 283.663 130.735 284.228 130.445L284 130ZM278.768 132.805L278.524 132.369C277.387 133.003 276.226 133.667 275.045 134.358L275.298 134.789L275.55 135.221C276.726 134.533 277.88 133.873 279.012 133.242L278.768 132.805ZM271.91 136.815L271.649 136.388C270.537 137.067 269.408 137.769 268.265 138.494L268.533 138.916L268.801 139.339C269.939 138.617 271.063 137.917 272.17 137.242L271.91 136.815ZM265.167 141.092L264.892 140.674C263.807 141.388 262.711 142.122 261.604 142.875L261.885 143.288L262.167 143.701C263.269 142.951 264.361 142.221 265.442 141.51L265.167 141.092ZM258.612 145.552L258.324 145.143C257.247 145.9 256.161 146.675 255.068 147.468L255.362 147.872L255.655 148.277C256.744 147.487 257.826 146.715 258.899 145.961L258.612 145.552ZM252.175 150.217L251.876 149.816C250.817 150.607 249.753 151.414 248.682 152.236L248.987 152.633L249.292 153.029C250.358 152.209 251.419 151.405 252.474 150.618L252.175 150.217ZM245.866 155.066L245.556 154.674C244.521 155.492 243.483 156.325 242.441 157.172L242.756 157.56L243.072 157.948C244.11 157.103 245.145 156.274 246.176 155.459L245.866 155.066ZM239.689 160.087L239.369 159.704C238.358 160.548 237.345 161.406 236.33 162.277L236.655 162.656L236.981 163.036C237.993 162.167 239.003 161.312 240.01 160.471L239.689 160.087ZM233.65 165.27L233.319 164.895C232.332 165.766 231.343 166.649 230.354 167.544L230.689 167.915L231.025 168.285C232.011 167.393 232.996 166.513 233.98 165.646L233.65 165.27ZM227.751 170.61L227.41 170.244C226.446 171.14 225.482 172.048 224.518 172.968L224.863 173.329L225.208 173.691C226.169 172.774 227.13 171.869 228.091 170.976L227.751 170.61ZM221.996 176.102L221.646 175.745C220.705 176.667 219.765 177.6 218.827 178.544L219.181 178.896L219.536 179.249C220.471 178.308 221.408 177.378 222.346 176.459L221.996 176.102ZM216.389 181.743L216.03 181.395C215.113 182.343 214.198 183.301 213.285 184.27L213.649 184.613L214.013 184.956C214.923 183.99 215.835 183.035 216.749 182.091L216.389 181.743ZM210.937 187.531L210.568 187.194C209.676 188.167 208.786 189.15 207.9 190.143L208.273 190.476L208.646 190.809C209.529 189.819 210.416 188.839 211.305 187.869L210.937 187.531ZM205.643 193.465L205.265 193.137C204.399 194.136 203.536 195.144 202.676 196.162L203.059 196.484L203.441 196.807C204.297 195.792 205.157 194.788 206.02 193.793L205.643 193.465ZM200.515 199.542L200.128 199.225C199.288 200.249 198.453 201.282 197.622 202.324L198.013 202.636L198.404 202.948C199.232 201.909 200.065 200.879 200.901 199.859L200.515 199.542ZM195.559 205.761L195.164 205.455C194.352 206.504 193.546 207.562 192.744 208.629L193.144 208.929L193.544 209.229C194.342 208.166 195.146 207.112 195.954 206.067L195.559 205.761ZM190.784 212.12L190.379 211.826C189.598 212.899 188.821 213.982 188.051 215.073L188.46 215.361L188.868 215.65C189.635 214.562 190.409 213.484 191.188 212.415L190.784 212.12ZM186.197 218.618L185.784 218.336C185.034 219.432 184.291 220.537 183.554 221.65L183.971 221.926L184.388 222.202C185.122 221.093 185.863 219.992 186.609 218.9L186.197 218.618ZM181.807 225.251L181.386 224.981C180.671 226.099 179.962 227.224 179.261 228.358L179.686 228.621L180.112 228.884C180.81 227.755 181.516 226.634 182.228 225.521L181.807 225.251ZM177.623 232.017L177.194 231.761C176.515 232.899 175.843 234.045 175.179 235.199L175.612 235.448L176.045 235.698C176.707 234.548 177.376 233.407 178.052 232.274L177.623 232.017ZM173.655 238.914L173.217 238.671C172.576 239.829 171.942 240.994 171.316 242.167L171.757 242.403L172.199 242.638C172.822 241.469 173.453 240.309 174.092 239.156L173.655 238.914ZM169.911 245.936L169.466 245.708C168.863 246.885 168.269 248.069 167.683 249.26L168.132 249.481L168.581 249.701C169.164 248.515 169.756 247.336 170.356 246.164L169.911 245.936ZM166.405 253.071L165.953 252.858C165.389 254.056 164.834 255.261 164.289 256.473L164.745 256.678L165.201 256.883C165.744 255.676 166.296 254.476 166.857 253.284L166.405 253.071ZM163.144 260.32L162.684 260.122C162.161 261.341 161.647 262.567 161.142 263.8L161.605 263.989L162.068 264.179C162.57 262.951 163.082 261.73 163.603 260.517L163.144 260.32ZM160.134 267.678L159.668 267.497C159.186 268.736 158.715 269.982 158.253 271.236L158.722 271.409L159.191 271.582C159.651 270.334 160.121 269.093 160.6 267.859L160.134 267.678ZM157.385 275.14L156.913 274.976C156.476 276.229 156.05 277.49 155.634 278.757L156.109 278.913L156.584 279.069C156.998 277.807 157.423 276.553 157.857 275.305L157.385 275.14ZM154.905 282.699L154.427 282.552C154.037 283.818 153.657 285.09 153.288 286.369L153.769 286.508L154.249 286.646C154.616 285.373 154.994 284.106 155.382 282.846L154.905 282.699ZM152.7 290.347L152.217 290.218C151.874 291.494 151.542 292.776 151.222 294.065L151.707 294.186L152.192 294.307C152.511 293.024 152.842 291.747 153.183 290.477L152.7 290.347ZM150.78 298.064L150.293 297.952C149.998 299.241 149.714 300.536 149.441 301.837L149.93 301.94L150.419 302.043C150.691 300.747 150.974 299.458 151.268 298.175L150.78 298.064ZM149.151 305.839L148.659 305.746C148.411 307.05 148.175 308.36 147.95 309.677L148.443 309.761L148.936 309.845C149.159 308.535 149.395 307.231 149.642 305.932L149.151 305.839ZM147.812 313.674L147.318 313.599C147.119 314.913 146.931 316.232 146.756 317.557L147.251 317.623L147.747 317.689C147.922 316.37 148.108 315.056 148.306 313.749L147.812 313.674ZM146.768 321.561L146.271 321.505C146.122 322.82 145.985 324.141 145.859 325.467L146.357 325.514L146.855 325.561C146.98 324.241 147.116 322.926 147.265 321.618L146.768 321.561ZM146.019 329.492L145.521 329.455C145.422 330.769 145.334 332.088 145.259 333.412L145.758 333.441L146.258 333.469C146.332 332.151 146.419 330.838 146.518 329.53L146.019 329.492ZM145.57 337.422L145.07 337.403C145.045 338.071 145.022 338.74 145.003 339.41L145.503 339.425L146.003 339.439C146.022 338.772 146.044 338.106 146.069 337.441L145.57 337.422Z" fill="white"/>
<rect opacity="0.8" x="676" y="111" width="456" height="89" rx="9" transform="rotate(-180 676 111)" fill="white"/>
<path d="M283.224 47.4H291.054V48.84H284.79V53.052H289.974V54.492H284.79V60H283.224V47.4ZM296.062 60.108C295.174 60.108 294.382 59.91 293.686 59.514C293.002 59.118 292.468 58.566 292.084 57.858C291.7 57.15 291.508 56.334 291.508 55.41C291.508 54.486 291.7 53.67 292.084 52.962C292.468 52.254 293.002 51.702 293.686 51.306C294.382 50.91 295.174 50.712 296.062 50.712C296.95 50.712 297.736 50.91 298.42 51.306C299.116 51.702 299.656 52.254 300.04 52.962C300.424 53.67 300.616 54.486 300.616 55.41C300.616 56.334 300.424 57.15 300.04 57.858C299.656 58.566 299.116 59.118 298.42 59.514C297.736 59.91 296.95 60.108 296.062 60.108ZM296.062 58.794C296.662 58.794 297.19 58.65 297.646 58.362C298.114 58.074 298.474 57.672 298.726 57.156C298.978 56.64 299.104 56.058 299.104 55.41C299.104 54.762 298.978 54.18 298.726 53.664C298.474 53.148 298.114 52.746 297.646 52.458C297.19 52.17 296.662 52.026 296.062 52.026C295.462 52.026 294.928 52.17 294.46 52.458C294.004 52.746 293.65 53.148 293.398 53.664C293.146 54.18 293.02 54.762 293.02 55.41C293.02 56.058 293.146 56.64 293.398 57.156C293.65 57.672 294.004 58.074 294.46 58.362C294.928 58.65 295.462 58.794 296.062 58.794ZM306.971 50.82V52.26H306.233C305.357 52.26 304.727 52.554 304.343 53.142C303.971 53.73 303.785 54.456 303.785 55.32V60H302.309V50.82H303.587L303.785 52.206C304.049 51.786 304.391 51.45 304.811 51.198C305.231 50.946 305.813 50.82 306.557 50.82H306.971ZM307.469 55.41C307.469 54.474 307.649 53.652 308.009 52.944C308.381 52.236 308.897 51.69 309.557 51.306C310.217 50.91 310.973 50.712 311.825 50.712C312.665 50.712 313.409 50.886 314.057 51.234C314.705 51.582 315.215 52.086 315.587 52.746C315.959 53.406 316.157 54.18 316.181 55.068C316.181 55.2 316.169 55.41 316.145 55.698H309.017V55.824C309.041 56.724 309.317 57.444 309.845 57.984C310.373 58.524 311.063 58.794 311.915 58.794C312.575 58.794 313.133 58.632 313.589 58.308C314.057 57.972 314.369 57.51 314.525 56.922H316.019C315.839 57.858 315.389 58.626 314.669 59.226C313.949 59.814 313.067 60.108 312.023 60.108C311.111 60.108 310.313 59.916 309.629 59.532C308.945 59.136 308.411 58.584 308.027 57.876C307.655 57.156 307.469 56.334 307.469 55.41ZM314.651 54.474C314.579 53.694 314.285 53.088 313.769 52.656C313.265 52.224 312.623 52.008 311.843 52.008C311.147 52.008 310.535 52.236 310.007 52.692C309.479 53.148 309.179 53.742 309.107 54.474H314.651ZM326.055 56.832C325.863 57.852 325.413 58.656 324.705 59.244C323.997 59.82 323.097 60.108 322.005 60.108C321.117 60.108 320.337 59.91 319.665 59.514C318.993 59.118 318.471 58.566 318.099 57.858C317.727 57.138 317.541 56.316 317.541 55.392C317.541 54.468 317.727 53.652 318.099 52.944C318.483 52.236 319.017 51.69 319.701 51.306C320.385 50.91 321.171 50.712 322.059 50.712C323.139 50.712 324.027 51 324.723 51.576C325.431 52.152 325.875 52.944 326.055 53.952H324.561C324.417 53.364 324.117 52.896 323.661 52.548C323.205 52.2 322.653 52.026 322.005 52.026C321.129 52.026 320.415 52.338 319.863 52.962C319.323 53.586 319.053 54.396 319.053 55.392C319.053 56.4 319.323 57.222 319.863 57.858C320.415 58.482 321.129 58.794 322.005 58.794C322.677 58.794 323.241 58.62 323.697 58.272C324.153 57.924 324.447 57.444 324.579 56.832H326.055ZM336.348 58.65V60H335.538C334.95 60 334.53 59.88 334.278 59.64C334.026 59.4 333.894 59.046 333.882 58.578C333.174 59.598 332.148 60.108 330.804 60.108C329.784 60.108 328.962 59.868 328.338 59.388C327.726 58.908 327.42 58.254 327.42 57.426C327.42 56.502 327.732 55.794 328.356 55.302C328.992 54.81 329.91 54.564 331.11 54.564H333.81V53.934C333.81 53.334 333.606 52.866 333.198 52.53C332.802 52.194 332.244 52.026 331.524 52.026C330.888 52.026 330.36 52.17 329.94 52.458C329.532 52.734 329.28 53.106 329.184 53.574H327.708C327.816 52.674 328.212 51.972 328.896 51.468C329.592 50.964 330.492 50.712 331.596 50.712C332.772 50.712 333.678 51 334.314 51.576C334.962 52.14 335.286 52.956 335.286 54.024V57.984C335.286 58.428 335.49 58.65 335.898 58.65H336.348ZM333.81 55.806H330.966C329.598 55.806 328.914 56.316 328.914 57.336C328.914 57.792 329.094 58.158 329.454 58.434C329.814 58.71 330.3 58.848 330.912 58.848C331.812 58.848 332.52 58.614 333.036 58.146C333.552 57.666 333.81 57.036 333.81 56.256V55.806ZM338.635 56.976C338.659 57.528 338.899 57.978 339.355 58.326C339.823 58.674 340.423 58.848 341.155 58.848C341.803 58.848 342.325 58.722 342.721 58.47C343.129 58.206 343.333 57.864 343.333 57.444C343.333 57.084 343.237 56.808 343.045 56.616C342.853 56.424 342.601 56.292 342.289 56.22C341.989 56.148 341.557 56.076 340.993 56.004C340.201 55.908 339.553 55.782 339.049 55.626C338.545 55.47 338.137 55.224 337.825 54.888C337.513 54.54 337.357 54.066 337.357 53.466C337.357 52.926 337.507 52.446 337.807 52.026C338.119 51.606 338.539 51.282 339.067 51.054C339.595 50.814 340.189 50.694 340.849 50.694C341.929 50.694 342.805 50.946 343.477 51.45C344.161 51.954 344.539 52.674 344.611 53.61H343.135C343.075 53.13 342.841 52.734 342.433 52.422C342.025 52.11 341.515 51.954 340.903 51.954C340.279 51.954 339.775 52.086 339.391 52.35C339.007 52.602 338.815 52.938 338.815 53.358C338.815 53.67 338.905 53.91 339.085 54.078C339.265 54.246 339.493 54.36 339.769 54.42C340.057 54.48 340.489 54.546 341.065 54.618C341.869 54.714 342.529 54.846 343.045 55.014C343.573 55.182 343.993 55.452 344.305 55.824C344.629 56.196 344.791 56.7 344.791 57.336C344.791 57.888 344.629 58.374 344.305 58.794C343.981 59.214 343.543 59.538 342.991 59.766C342.439 59.994 341.827 60.108 341.155 60.108C339.955 60.108 338.989 59.832 338.257 59.28C337.537 58.728 337.171 57.96 337.159 56.976H338.635ZM347.077 52.17H345.421V50.82H347.077V48.246H348.553V50.82H350.875V52.17H348.553V57.588C348.553 57.972 348.625 58.248 348.769 58.416C348.925 58.572 349.189 58.65 349.561 58.65H351.163V60H349.471C348.607 60 347.989 59.808 347.617 59.424C347.257 59.04 347.077 58.434 347.077 57.606V52.17ZM365.51 58.65V60H364.7C364.112 60 363.692 59.88 363.44 59.64C363.188 59.4 363.056 59.046 363.044 58.578C362.336 59.598 361.31 60.108 359.966 60.108C358.946 60.108 358.124 59.868 357.5 59.388C356.888 58.908 356.582 58.254 356.582 57.426C356.582 56.502 356.894 55.794 357.518 55.302C358.154 54.81 359.072 54.564 360.272 54.564H362.972V53.934C362.972 53.334 362.768 52.866 362.36 52.53C361.964 52.194 361.406 52.026 360.686 52.026C360.05 52.026 359.522 52.17 359.102 52.458C358.694 52.734 358.442 53.106 358.346 53.574H356.87C356.978 52.674 357.374 51.972 358.058 51.468C358.754 50.964 359.654 50.712 360.758 50.712C361.934 50.712 362.84 51 363.476 51.576C364.124 52.14 364.448 52.956 364.448 54.024V57.984C364.448 58.428 364.652 58.65 365.06 58.65H365.51ZM362.972 55.806H360.128C358.76 55.806 358.076 56.316 358.076 57.336C358.076 57.792 358.256 58.158 358.616 58.434C358.976 58.71 359.462 58.848 360.074 58.848C360.974 58.848 361.682 58.614 362.198 58.146C362.714 57.666 362.972 57.036 362.972 56.256V55.806ZM367.797 56.976C367.821 57.528 368.061 57.978 368.517 58.326C368.985 58.674 369.585 58.848 370.317 58.848C370.965 58.848 371.487 58.722 371.883 58.47C372.291 58.206 372.495 57.864 372.495 57.444C372.495 57.084 372.399 56.808 372.207 56.616C372.015 56.424 371.763 56.292 371.451 56.22C371.151 56.148 370.719 56.076 370.155 56.004C369.363 55.908 368.715 55.782 368.211 55.626C367.707 55.47 367.299 55.224 366.987 54.888C366.675 54.54 366.519 54.066 366.519 53.466C366.519 52.926 366.669 52.446 366.969 52.026C367.281 51.606 367.701 51.282 368.229 51.054C368.757 50.814 369.351 50.694 370.011 50.694C371.091 50.694 371.967 50.946 372.639 51.45C373.323 51.954 373.701 52.674 373.773 53.61H372.297C372.237 53.13 372.003 52.734 371.595 52.422C371.187 52.11 370.677 51.954 370.065 51.954C369.441 51.954 368.937 52.086 368.553 52.35C368.169 52.602 367.977 52.938 367.977 53.358C367.977 53.67 368.067 53.91 368.247 54.078C368.427 54.246 368.655 54.36 368.931 54.42C369.219 54.48 369.651 54.546 370.227 54.618C371.031 54.714 371.691 54.846 372.207 55.014C372.735 55.182 373.155 55.452 373.467 55.824C373.791 56.196 373.953 56.7 373.953 57.336C373.953 57.888 373.791 58.374 373.467 58.794C373.143 59.214 372.705 59.538 372.153 59.766C371.601 59.994 370.989 60.108 370.317 60.108C369.117 60.108 368.151 59.832 367.419 59.28C366.699 58.728 366.333 57.96 366.321 56.976H367.797ZM376.603 56.976C376.627 57.528 376.867 57.978 377.323 58.326C377.791 58.674 378.391 58.848 379.123 58.848C379.771 58.848 380.293 58.722 380.689 58.47C381.097 58.206 381.301 57.864 381.301 57.444C381.301 57.084 381.205 56.808 381.013 56.616C380.821 56.424 380.569 56.292 380.257 56.22C379.957 56.148 379.525 56.076 378.961 56.004C378.169 55.908 377.521 55.782 377.017 55.626C376.513 55.47 376.105 55.224 375.793 54.888C375.481 54.54 375.325 54.066 375.325 53.466C375.325 52.926 375.475 52.446 375.775 52.026C376.087 51.606 376.507 51.282 377.035 51.054C377.563 50.814 378.157 50.694 378.817 50.694C379.897 50.694 380.773 50.946 381.445 51.45C382.129 51.954 382.507 52.674 382.579 53.61H381.103C381.043 53.13 380.809 52.734 380.401 52.422C379.993 52.11 379.483 51.954 378.871 51.954C378.247 51.954 377.743 52.086 377.359 52.35C376.975 52.602 376.783 52.938 376.783 53.358C376.783 53.67 376.873 53.91 377.053 54.078C377.233 54.246 377.461 54.36 377.737 54.42C378.025 54.48 378.457 54.546 379.033 54.618C379.837 54.714 380.497 54.846 381.013 55.014C381.541 55.182 381.961 55.452 382.273 55.824C382.597 56.196 382.759 56.7 382.759 57.336C382.759 57.888 382.597 58.374 382.273 58.794C381.949 59.214 381.511 59.538 380.959 59.766C380.407 59.994 379.795 60.108 379.123 60.108C377.923 60.108 376.957 59.832 376.225 59.28C375.505 58.728 375.139 57.96 375.127 56.976H376.603ZM384.11 55.41C384.11 54.474 384.29 53.652 384.65 52.944C385.022 52.236 385.538 51.69 386.198 51.306C386.858 50.91 387.614 50.712 388.466 50.712C389.306 50.712 390.05 50.886 390.698 51.234C391.346 51.582 391.856 52.086 392.228 52.746C392.6 53.406 392.798 54.18 392.822 55.068C392.822 55.2 392.81 55.41 392.786 55.698H385.658V55.824C385.682 56.724 385.958 57.444 386.486 57.984C387.014 58.524 387.704 58.794 388.556 58.794C389.216 58.794 389.774 58.632 390.23 58.308C390.698 57.972 391.01 57.51 391.166 56.922H392.66C392.48 57.858 392.03 58.626 391.31 59.226C390.59 59.814 389.708 60.108 388.664 60.108C387.752 60.108 386.954 59.916 386.27 59.532C385.586 59.136 385.052 58.584 384.668 57.876C384.296 57.156 384.11 56.334 384.11 55.41ZM391.292 54.474C391.22 53.694 390.926 53.088 390.41 52.656C389.906 52.224 389.264 52.008 388.484 52.008C387.788 52.008 387.176 52.236 386.648 52.692C386.12 53.148 385.82 53.742 385.748 54.474H391.292ZM395.013 52.17H393.357V50.82H395.013V48.246H396.489V50.82H398.811V52.17H396.489V57.588C396.489 57.972 396.561 58.248 396.705 58.416C396.861 58.572 397.125 58.65 397.497 58.65H399.099V60H397.407C396.543 60 395.925 59.808 395.553 59.424C395.193 59.04 395.013 58.434 395.013 57.606V52.17ZM403.942 50.82H405.526L408.298 58.326L411.052 50.82H412.6L409.162 60H407.38L403.942 50.82ZM421.936 58.65V60H421.126C420.538 60 420.118 59.88 419.866 59.64C419.614 59.4 419.482 59.046 419.47 58.578C418.762 59.598 417.736 60.108 416.392 60.108C415.372 60.108 414.55 59.868 413.926 59.388C413.314 58.908 413.008 58.254 413.008 57.426C413.008 56.502 413.32 55.794 413.944 55.302C414.58 54.81 415.498 54.564 416.698 54.564H419.398V53.934C419.398 53.334 419.194 52.866 418.786 52.53C418.39 52.194 417.832 52.026 417.112 52.026C416.476 52.026 415.948 52.17 415.528 52.458C415.12 52.734 414.868 53.106 414.772 53.574H413.296C413.404 52.674 413.8 51.972 414.484 51.468C415.18 50.964 416.08 50.712 417.184 50.712C418.36 50.712 419.266 51 419.902 51.576C420.55 52.14 420.874 52.956 420.874 54.024V57.984C420.874 58.428 421.078 58.65 421.486 58.65H421.936ZM419.398 55.806H416.554C415.186 55.806 414.502 56.316 414.502 57.336C414.502 57.792 414.682 58.158 415.042 58.434C415.402 58.71 415.888 58.848 416.5 58.848C417.4 58.848 418.108 58.614 418.624 58.146C419.14 57.666 419.398 57.036 419.398 56.256V55.806ZM423.071 47.4H424.547V60H423.071V47.4ZM434.471 50.82V60H433.193L432.995 58.776C432.299 59.664 431.321 60.108 430.061 60.108C428.969 60.108 428.093 59.772 427.433 59.1C426.773 58.428 426.443 57.372 426.443 55.932V50.82H427.919V55.842C427.919 56.79 428.123 57.516 428.531 58.02C428.951 58.512 429.545 58.758 430.313 58.758C431.153 58.758 431.807 58.458 432.275 57.858C432.755 57.258 432.995 56.442 432.995 55.41V50.82H434.471ZM436.159 55.41C436.159 54.474 436.339 53.652 436.699 52.944C437.071 52.236 437.587 51.69 438.247 51.306C438.907 50.91 439.663 50.712 440.515 50.712C441.355 50.712 442.099 50.886 442.747 51.234C443.395 51.582 443.905 52.086 444.277 52.746C444.649 53.406 444.847 54.18 444.871 55.068C444.871 55.2 444.859 55.41 444.835 55.698H437.707V55.824C437.731 56.724 438.007 57.444 438.535 57.984C439.063 58.524 439.753 58.794 440.605 58.794C441.265 58.794 441.823 58.632 442.279 58.308C442.747 57.972 443.059 57.51 443.215 56.922H444.709C444.529 57.858 444.079 58.626 443.359 59.226C442.639 59.814 441.757 60.108 440.713 60.108C439.801 60.108 439.003 59.916 438.319 59.532C437.635 59.136 437.101 58.584 436.717 57.876C436.345 57.156 436.159 56.334 436.159 55.41ZM443.341 54.474C443.269 53.694 442.975 53.088 442.459 52.656C441.955 52.224 441.313 52.008 440.533 52.008C439.837 52.008 439.225 52.236 438.697 52.692C438.169 53.148 437.869 53.742 437.797 54.474H443.341ZM451.878 52.17H450.222V50.82H451.878V48.246H453.354V50.82H455.676V52.17H453.354V57.588C453.354 57.972 453.426 58.248 453.57 58.416C453.726 58.572 453.99 58.65 454.362 58.65H455.964V60H454.272C453.408 60 452.79 59.808 452.418 59.424C452.058 59.04 451.878 58.434 451.878 57.606V52.17ZM461.676 50.82V52.26H460.938C460.062 52.26 459.432 52.554 459.048 53.142C458.676 53.73 458.49 54.456 458.49 55.32V60H457.014V50.82H458.292L458.49 52.206C458.754 51.786 459.096 51.45 459.516 51.198C459.936 50.946 460.518 50.82 461.262 50.82H461.676ZM462.174 55.41C462.174 54.474 462.354 53.652 462.714 52.944C463.086 52.236 463.602 51.69 464.262 51.306C464.922 50.91 465.678 50.712 466.53 50.712C467.37 50.712 468.114 50.886 468.762 51.234C469.41 51.582 469.92 52.086 470.292 52.746C470.664 53.406 470.862 54.18 470.886 55.068C470.886 55.2 470.874 55.41 470.85 55.698H463.722V55.824C463.746 56.724 464.022 57.444 464.55 57.984C465.078 58.524 465.768 58.794 466.62 58.794C467.28 58.794 467.838 58.632 468.294 58.308C468.762 57.972 469.074 57.51 469.23 56.922H470.724C470.544 57.858 470.094 58.626 469.374 59.226C468.654 59.814 467.772 60.108 466.728 60.108C465.816 60.108 465.018 59.916 464.334 59.532C463.65 59.136 463.116 58.584 462.732 57.876C462.36 57.156 462.174 56.334 462.174 55.41ZM469.356 54.474C469.284 53.694 468.99 53.088 468.474 52.656C467.97 52.224 467.328 52.008 466.548 52.008C465.852 52.008 465.24 52.236 464.712 52.692C464.184 53.148 463.884 53.742 463.812 54.474H469.356ZM477.071 50.712C478.187 50.712 479.081 51.048 479.753 51.72C480.437 52.392 480.779 53.448 480.779 54.888V60H479.303V54.978C479.303 54.03 479.087 53.31 478.655 52.818C478.235 52.314 477.623 52.062 476.819 52.062C475.955 52.062 475.277 52.362 474.785 52.962C474.293 53.562 474.047 54.378 474.047 55.41V60H472.571V50.82H473.849L474.047 52.062C474.743 51.162 475.751 50.712 477.071 50.712ZM491.372 47.4V60H490.094L489.896 58.524C489.128 59.58 488.078 60.108 486.746 60.108C485.894 60.108 485.132 59.922 484.46 59.55C483.8 59.178 483.278 58.638 482.894 57.93C482.522 57.222 482.336 56.382 482.336 55.41C482.336 54.486 482.522 53.67 482.894 52.962C483.278 52.254 483.806 51.702 484.478 51.306C485.15 50.91 485.906 50.712 486.746 50.712C487.49 50.712 488.126 50.85 488.654 51.126C489.182 51.39 489.596 51.756 489.896 52.224V47.4H491.372ZM486.89 58.794C487.478 58.794 488 58.656 488.456 58.38C488.924 58.092 489.284 57.696 489.536 57.192C489.788 56.676 489.914 56.094 489.914 55.446C489.914 54.786 489.788 54.198 489.536 53.682C489.284 53.154 488.924 52.746 488.456 52.458C488 52.17 487.478 52.026 486.89 52.026C485.978 52.026 485.24 52.344 484.676 52.98C484.124 53.604 483.848 54.414 483.848 55.41C483.848 56.406 484.124 57.222 484.676 57.858C485.24 58.482 485.978 58.794 486.89 58.794ZM494.535 56.976C494.559 57.528 494.799 57.978 495.255 58.326C495.723 58.674 496.323 58.848 497.055 58.848C497.703 58.848 498.225 58.722 498.621 58.47C499.029 58.206 499.233 57.864 499.233 57.444C499.233 57.084 499.137 56.808 498.945 56.616C498.753 56.424 498.501 56.292 498.189 56.22C497.889 56.148 497.457 56.076 496.893 56.004C496.101 55.908 495.453 55.782 494.949 55.626C494.445 55.47 494.037 55.224 493.725 54.888C493.413 54.54 493.257 54.066 493.257 53.466C493.257 52.926 493.407 52.446 493.707 52.026C494.019 51.606 494.439 51.282 494.967 51.054C495.495 50.814 496.089 50.694 496.749 50.694C497.829 50.694 498.705 50.946 499.377 51.45C500.061 51.954 500.439 52.674 500.511 53.61H499.035C498.975 53.13 498.741 52.734 498.333 52.422C497.925 52.11 497.415 51.954 496.803 51.954C496.179 51.954 495.675 52.086 495.291 52.35C494.907 52.602 494.715 52.938 494.715 53.358C494.715 53.67 494.805 53.91 494.985 54.078C495.165 54.246 495.393 54.36 495.669 54.42C495.957 54.48 496.389 54.546 496.965 54.618C497.769 54.714 498.429 54.846 498.945 55.014C499.473 55.182 499.893 55.452 500.205 55.824C500.529 56.196 500.691 56.7 500.691 57.336C500.691 57.888 500.529 58.374 500.205 58.794C499.881 59.214 499.443 59.538 498.891 59.766C498.339 59.994 497.727 60.108 497.055 60.108C495.855 60.108 494.889 59.832 494.157 59.28C493.437 58.728 493.071 57.96 493.059 56.976H494.535ZM507.688 50.82V49.794C507.688 48.978 507.874 48.378 508.246 47.994C508.63 47.598 509.242 47.4 510.082 47.4H511.774V48.75H510.172C509.812 48.75 509.554 48.828 509.398 48.984C509.242 49.14 509.164 49.398 509.164 49.758V50.82H511.756V52.17H509.164V60H507.688V52.17H506.032V50.82H507.688ZM516.562 60.108C515.674 60.108 514.882 59.91 514.186 59.514C513.502 59.118 512.968 58.566 512.584 57.858C512.2 57.15 512.008 56.334 512.008 55.41C512.008 54.486 512.2 53.67 512.584 52.962C512.968 52.254 513.502 51.702 514.186 51.306C514.882 50.91 515.674 50.712 516.562 50.712C517.45 50.712 518.236 50.91 518.92 51.306C519.616 51.702 520.156 52.254 520.54 52.962C520.924 53.67 521.116 54.486 521.116 55.41C521.116 56.334 520.924 57.15 520.54 57.858C520.156 58.566 519.616 59.118 518.92 59.514C518.236 59.91 517.45 60.108 516.562 60.108ZM516.562 58.794C517.162 58.794 517.69 58.65 518.146 58.362C518.614 58.074 518.974 57.672 519.226 57.156C519.478 56.64 519.604 56.058 519.604 55.41C519.604 54.762 519.478 54.18 519.226 53.664C518.974 53.148 518.614 52.746 518.146 52.458C517.69 52.17 517.162 52.026 516.562 52.026C515.962 52.026 515.428 52.17 514.96 52.458C514.504 52.746 514.15 53.148 513.898 53.664C513.646 54.18 513.52 54.762 513.52 55.41C513.52 56.058 513.646 56.64 513.898 57.156C514.15 57.672 514.504 58.074 514.96 58.362C515.428 58.65 515.962 58.794 516.562 58.794ZM527.471 50.82V52.26H526.733C525.857 52.26 525.227 52.554 524.843 53.142C524.471 53.73 524.285 54.456 524.285 55.32V60H522.809V50.82H524.087L524.285 52.206C524.549 51.786 524.891 51.45 525.311 51.198C525.731 50.946 526.313 50.82 527.057 50.82H527.471ZM534.143 52.17H532.487V50.82H534.143V48.246H535.619V50.82H537.941V52.17H535.619V57.588C535.619 57.972 535.691 58.248 535.835 58.416C535.991 58.572 536.255 58.65 536.627 58.65H538.229V60H536.537C535.673 60 535.055 59.808 534.683 59.424C534.323 59.04 534.143 58.434 534.143 57.606V52.17ZM543.779 50.712C544.895 50.712 545.795 51.048 546.479 51.72C547.163 52.392 547.505 53.448 547.505 54.888V60H546.029V54.978C546.029 54.03 545.813 53.31 545.381 52.818C544.949 52.314 544.331 52.062 543.527 52.062C542.675 52.062 541.997 52.362 541.493 52.962C541.001 53.562 540.755 54.378 540.755 55.41V60H539.279V47.4H540.755V52.332C541.055 51.852 541.451 51.462 541.943 51.162C542.447 50.862 543.059 50.712 543.779 50.712ZM549.063 55.41C549.063 54.474 549.243 53.652 549.603 52.944C549.975 52.236 550.491 51.69 551.151 51.306C551.811 50.91 552.567 50.712 553.419 50.712C554.259 50.712 555.003 50.886 555.651 51.234C556.299 51.582 556.809 52.086 557.181 52.746C557.553 53.406 557.751 54.18 557.775 55.068C557.775 55.2 557.763 55.41 557.739 55.698H550.611V55.824C550.635 56.724 550.911 57.444 551.439 57.984C551.967 58.524 552.657 58.794 553.509 58.794C554.169 58.794 554.727 58.632 555.183 58.308C555.651 57.972 555.963 57.51 556.119 56.922H557.613C557.433 57.858 556.983 58.626 556.263 59.226C555.543 59.814 554.661 60.108 553.617 60.108C552.705 60.108 551.907 59.916 551.223 59.532C550.539 59.136 550.005 58.584 549.621 57.876C549.249 57.156 549.063 56.334 549.063 55.41ZM556.245 54.474C556.173 53.694 555.879 53.088 555.363 52.656C554.859 52.224 554.217 52.008 553.437 52.008C552.741 52.008 552.129 52.236 551.601 52.692C551.073 53.148 550.773 53.742 550.701 54.474H556.245ZM568.67 50.712C569.786 50.712 570.68 51.048 571.352 51.72C572.036 52.392 572.378 53.448 572.378 54.888V60H570.902V54.978C570.902 54.03 570.686 53.31 570.254 52.818C569.834 52.314 569.222 52.062 568.418 52.062C567.554 52.062 566.876 52.362 566.384 52.962C565.892 53.562 565.646 54.378 565.646 55.41V60H564.17V50.82H565.448L565.646 52.062C566.342 51.162 567.35 50.712 568.67 50.712ZM573.936 55.41C573.936 54.474 574.116 53.652 574.476 52.944C574.848 52.236 575.364 51.69 576.024 51.306C576.684 50.91 577.44 50.712 578.292 50.712C579.132 50.712 579.876 50.886 580.524 51.234C581.172 51.582 581.682 52.086 582.054 52.746C582.426 53.406 582.624 54.18 582.648 55.068C582.648 55.2 582.636 55.41 582.612 55.698H575.484V55.824C575.508 56.724 575.784 57.444 576.312 57.984C576.84 58.524 577.53 58.794 578.382 58.794C579.042 58.794 579.6 58.632 580.056 58.308C580.524 57.972 580.836 57.51 580.992 56.922H582.486C582.306 57.858 581.856 58.626 581.136 59.226C580.416 59.814 579.534 60.108 578.49 60.108C577.578 60.108 576.78 59.916 576.096 59.532C575.412 59.136 574.878 58.584 574.494 57.876C574.122 57.156 573.936 56.334 573.936 55.41ZM581.118 54.474C581.046 53.694 580.752 53.088 580.236 52.656C579.732 52.224 579.09 52.008 578.31 52.008C577.614 52.008 577.002 52.236 576.474 52.692C575.946 53.148 575.646 53.742 575.574 54.474H581.118ZM586.609 55.284L583.351 50.82H585.115L587.563 54.222L590.047 50.82H591.685L588.409 55.284L591.919 60H590.155L587.455 56.31L584.755 60H583.117L586.609 55.284ZM593.033 48.246H594.509V50.82H596.831V52.17H594.509V57.588C594.509 57.972 594.581 58.248 594.725 58.416C594.881 58.572 595.145 58.65 595.517 58.65H597.119V60H595.427C594.563 60 593.945 59.808 593.573 59.424C593.213 59.04 593.033 58.434 593.033 57.606V48.246ZM611.589 50.82V63.6H610.113V58.524C609.345 59.58 608.295 60.108 606.963 60.108C606.111 60.108 605.349 59.922 604.677 59.55C604.017 59.178 603.495 58.638 603.111 57.93C602.739 57.222 602.553 56.382 602.553 55.41C602.553 54.486 602.739 53.67 603.111 52.962C603.495 52.254 604.023 51.702 604.695 51.306C605.367 50.91 606.123 50.712 606.963 50.712C607.707 50.712 608.343 50.85 608.871 51.126C609.399 51.39 609.813 51.756 610.113 52.224L610.311 50.82H611.589ZM607.107 58.794C607.695 58.794 608.217 58.656 608.673 58.38C609.141 58.092 609.501 57.696 609.753 57.192C610.005 56.676 610.131 56.094 610.131 55.446C610.131 54.786 610.005 54.198 609.753 53.682C609.501 53.154 609.141 52.746 608.673 52.458C608.217 52.17 607.695 52.026 607.107 52.026C606.195 52.026 605.457 52.344 604.893 52.98C604.341 53.604 604.065 54.414 604.065 55.41C604.065 56.406 604.341 57.222 604.893 57.858C605.457 58.482 606.195 58.794 607.107 58.794ZM621.502 50.82V60H620.224L620.026 58.776C619.33 59.664 618.352 60.108 617.092 60.108C616 60.108 615.124 59.772 614.464 59.1C613.804 58.428 613.474 57.372 613.474 55.932V50.82H614.95V55.842C614.95 56.79 615.154 57.516 615.562 58.02C615.982 58.512 616.576 58.758 617.344 58.758C618.184 58.758 618.838 58.458 619.306 57.858C619.786 57.258 620.026 56.442 620.026 55.41V50.82H621.502ZM632.1 58.65V60H631.29C630.702 60 630.282 59.88 630.03 59.64C629.778 59.4 629.646 59.046 629.634 58.578C628.926 59.598 627.9 60.108 626.556 60.108C625.536 60.108 624.714 59.868 624.09 59.388C623.478 58.908 623.172 58.254 623.172 57.426C623.172 56.502 623.484 55.794 624.108 55.302C624.744 54.81 625.662 54.564 626.862 54.564H629.562V53.934C629.562 53.334 629.358 52.866 628.95 52.53C628.554 52.194 627.996 52.026 627.276 52.026C626.64 52.026 626.112 52.17 625.692 52.458C625.284 52.734 625.032 53.106 624.936 53.574H623.46C623.568 52.674 623.964 51.972 624.648 51.468C625.344 50.964 626.244 50.712 627.348 50.712C628.524 50.712 629.43 51 630.066 51.576C630.714 52.14 631.038 52.956 631.038 54.024V57.984C631.038 58.428 631.242 58.65 631.65 58.65H632.1ZM629.562 55.806H626.718C625.35 55.806 624.666 56.316 624.666 57.336C624.666 57.792 624.846 58.158 625.206 58.434C625.566 58.71 626.052 58.848 626.664 58.848C627.564 58.848 628.272 58.614 628.788 58.146C629.304 57.666 629.562 57.036 629.562 56.256V55.806ZM637.897 50.82V52.26H637.159C636.283 52.26 635.653 52.554 635.269 53.142C634.897 53.73 634.711 54.456 634.711 55.32V60H633.235V50.82H634.513L634.711 52.206C634.975 51.786 635.317 51.45 635.737 51.198C636.157 50.946 636.739 50.82 637.483 50.82H637.897ZM639.246 48.246H640.722V50.82H643.044V52.17H640.722V57.588C640.722 57.972 640.794 58.248 640.938 58.416C641.094 58.572 641.358 58.65 641.73 58.65H643.332V60H641.64C640.776 60 640.158 59.808 639.786 59.424C639.426 59.04 639.246 58.434 639.246 57.606V48.246ZM643.827 55.41C643.827 54.474 644.007 53.652 644.367 52.944C644.739 52.236 645.255 51.69 645.915 51.306C646.575 50.91 647.331 50.712 648.183 50.712C649.023 50.712 649.767 50.886 650.415 51.234C651.063 51.582 651.573 52.086 651.945 52.746C652.317 53.406 652.515 54.18 652.539 55.068C652.539 55.2 652.527 55.41 652.503 55.698H645.375V55.824C645.399 56.724 645.675 57.444 646.203 57.984C646.731 58.524 647.421 58.794 648.273 58.794C648.933 58.794 649.491 58.632 649.947 58.308C650.415 57.972 650.727 57.51 650.883 56.922H652.377C652.197 57.858 651.747 58.626 651.027 59.226C650.307 59.814 649.425 60.108 648.381 60.108C647.469 60.108 646.671 59.916 645.987 59.532C645.303 59.136 644.769 58.584 644.385 57.876C644.013 57.156 643.827 56.334 643.827 55.41ZM651.009 54.474C650.937 53.694 650.643 53.088 650.127 52.656C649.623 52.224 648.981 52.008 648.201 52.008C647.505 52.008 646.893 52.236 646.365 52.692C645.837 53.148 645.537 53.742 645.465 54.474H651.009ZM658.885 50.82V52.26H658.147C657.271 52.26 656.641 52.554 656.257 53.142C655.885 53.73 655.699 54.456 655.699 55.32V60H654.223V50.82H655.501L655.699 52.206C655.963 51.786 656.305 51.45 656.725 51.198C657.145 50.946 657.727 50.82 658.471 50.82H658.885ZM290.91 73.82V83H289.632L289.434 81.776C288.738 82.664 287.76 83.108 286.5 83.108C285.408 83.108 284.532 82.772 283.872 82.1C283.212 81.428 282.882 80.372 282.882 78.932V73.82H284.358V78.842C284.358 79.79 284.562 80.516 284.97 81.02C285.39 81.512 285.984 81.758 286.752 81.758C287.592 81.758 288.246 81.458 288.714 80.858C289.194 80.258 289.434 79.442 289.434 78.41V73.82H290.91ZM294.074 79.976C294.098 80.528 294.338 80.978 294.794 81.326C295.262 81.674 295.862 81.848 296.594 81.848C297.242 81.848 297.764 81.722 298.16 81.47C298.568 81.206 298.772 80.864 298.772 80.444C298.772 80.084 298.676 79.808 298.484 79.616C298.292 79.424 298.04 79.292 297.728 79.22C297.428 79.148 296.996 79.076 296.432 79.004C295.64 78.908 294.992 78.782 294.488 78.626C293.984 78.47 293.576 78.224 293.264 77.888C292.952 77.54 292.796 77.066 292.796 76.466C292.796 75.926 292.946 75.446 293.246 75.026C293.558 74.606 293.978 74.282 294.506 74.054C295.034 73.814 295.628 73.694 296.288 73.694C297.368 73.694 298.244 73.946 298.916 74.45C299.6 74.954 299.978 75.674 300.05 76.61H298.574C298.514 76.13 298.28 75.734 297.872 75.422C297.464 75.11 296.954 74.954 296.342 74.954C295.718 74.954 295.214 75.086 294.83 75.35C294.446 75.602 294.254 75.938 294.254 76.358C294.254 76.67 294.344 76.91 294.524 77.078C294.704 77.246 294.932 77.36 295.208 77.42C295.496 77.48 295.928 77.546 296.504 77.618C297.308 77.714 297.968 77.846 298.484 78.014C299.012 78.182 299.432 78.452 299.744 78.824C300.068 79.196 300.23 79.7 300.23 80.336C300.23 80.888 300.068 81.374 299.744 81.794C299.42 82.214 298.982 82.538 298.43 82.766C297.878 82.994 297.266 83.108 296.594 83.108C295.394 83.108 294.428 82.832 293.696 82.28C292.976 81.728 292.61 80.96 292.598 79.976H294.074ZM302.642 70.274C302.918 70.274 303.146 70.364 303.326 70.544C303.506 70.724 303.596 70.952 303.596 71.228C303.596 71.504 303.506 71.732 303.326 71.912C303.146 72.092 302.918 72.182 302.642 72.182C302.366 72.182 302.138 72.092 301.958 71.912C301.778 71.732 301.688 71.504 301.688 71.228C301.688 70.952 301.778 70.724 301.958 70.544C302.138 70.364 302.366 70.274 302.642 70.274ZM301.904 73.82H303.38V83H301.904V73.82ZM309.903 73.712C311.019 73.712 311.913 74.048 312.585 74.72C313.269 75.392 313.611 76.448 313.611 77.888V83H312.135V77.978C312.135 77.03 311.919 76.31 311.487 75.818C311.067 75.314 310.455 75.062 309.651 75.062C308.787 75.062 308.109 75.362 307.617 75.962C307.125 76.562 306.879 77.378 306.879 78.41V83H305.403V73.82H306.681L306.879 75.062C307.575 74.162 308.583 73.712 309.903 73.712ZM324.204 73.82V82.55C324.204 85.322 322.686 86.708 319.65 86.708C318.462 86.708 317.49 86.438 316.734 85.898C315.99 85.358 315.558 84.59 315.438 83.594H316.95C317.07 84.17 317.376 84.614 317.868 84.926C318.36 85.238 318.99 85.394 319.758 85.394C321.738 85.394 322.728 84.428 322.728 82.496V81.416C322.068 82.544 321.018 83.108 319.578 83.108C318.726 83.108 317.964 82.922 317.292 82.55C316.632 82.178 316.11 81.638 315.726 80.93C315.354 80.222 315.168 79.382 315.168 78.41C315.168 77.486 315.354 76.67 315.726 75.962C316.11 75.254 316.638 74.702 317.31 74.306C317.982 73.91 318.738 73.712 319.578 73.712C320.322 73.712 320.958 73.862 321.486 74.162C322.014 74.45 322.428 74.864 322.728 75.404L322.926 73.82H324.204ZM319.722 81.794C320.31 81.794 320.832 81.656 321.288 81.38C321.756 81.092 322.116 80.696 322.368 80.192C322.62 79.676 322.746 79.094 322.746 78.446C322.746 77.786 322.62 77.198 322.368 76.682C322.116 76.154 321.756 75.746 321.288 75.458C320.832 75.17 320.31 75.026 319.722 75.026C318.81 75.026 318.072 75.344 317.508 75.98C316.956 76.604 316.68 77.414 316.68 78.41C316.68 79.406 316.956 80.222 317.508 80.858C318.072 81.482 318.81 81.794 319.722 81.794ZM335.588 73.82V75.26H334.85C333.974 75.26 333.344 75.554 332.96 76.142C332.588 76.73 332.402 77.456 332.402 78.32V83H330.926V73.82H332.204L332.402 75.206C332.666 74.786 333.008 74.45 333.428 74.198C333.848 73.946 334.43 73.82 335.174 73.82H335.588ZM336.086 78.41C336.086 77.474 336.266 76.652 336.626 75.944C336.998 75.236 337.514 74.69 338.174 74.306C338.834 73.91 339.59 73.712 340.442 73.712C341.282 73.712 342.026 73.886 342.674 74.234C343.322 74.582 343.832 75.086 344.204 75.746C344.576 76.406 344.774 77.18 344.798 78.068C344.798 78.2 344.786 78.41 344.762 78.698H337.634V78.824C337.658 79.724 337.934 80.444 338.462 80.984C338.99 81.524 339.68 81.794 340.532 81.794C341.192 81.794 341.75 81.632 342.206 81.308C342.674 80.972 342.986 80.51 343.142 79.922H344.636C344.456 80.858 344.006 81.626 343.286 82.226C342.566 82.814 341.684 83.108 340.64 83.108C339.728 83.108 338.93 82.916 338.246 82.532C337.562 82.136 337.028 81.584 336.644 80.876C336.272 80.156 336.086 79.334 336.086 78.41ZM343.268 77.474C343.196 76.694 342.902 76.088 342.386 75.656C341.882 75.224 341.24 75.008 340.46 75.008C339.764 75.008 339.152 75.236 338.624 75.692C338.096 76.148 337.796 76.742 337.724 77.474H343.268ZM355.069 81.65V83H354.259C353.671 83 353.251 82.88 352.999 82.64C352.747 82.4 352.615 82.046 352.603 81.578C351.895 82.598 350.869 83.108 349.525 83.108C348.505 83.108 347.683 82.868 347.059 82.388C346.447 81.908 346.141 81.254 346.141 80.426C346.141 79.502 346.453 78.794 347.077 78.302C347.713 77.81 348.631 77.564 349.831 77.564H352.531V76.934C352.531 76.334 352.327 75.866 351.919 75.53C351.523 75.194 350.965 75.026 350.245 75.026C349.609 75.026 349.081 75.17 348.661 75.458C348.253 75.734 348.001 76.106 347.905 76.574H346.429C346.537 75.674 346.933 74.972 347.617 74.468C348.313 73.964 349.213 73.712 350.317 73.712C351.493 73.712 352.399 74 353.035 74.576C353.683 75.14 354.007 75.956 354.007 77.024V80.984C354.007 81.428 354.211 81.65 354.619 81.65H355.069ZM352.531 78.806H349.687C348.319 78.806 347.635 79.316 347.635 80.336C347.635 80.792 347.815 81.158 348.175 81.434C348.535 81.71 349.021 81.848 349.633 81.848C350.533 81.848 351.241 81.614 351.757 81.146C352.273 80.666 352.531 80.036 352.531 79.256V78.806ZM356.203 70.4H357.679V83H356.203V70.4ZM359.629 78.5V77.276H365.623V78.5H359.629ZM367.925 75.17H366.269V73.82H367.925V71.246H369.401V73.82H371.723V75.17H369.401V80.588C369.401 80.972 369.473 81.248 369.617 81.416C369.773 81.572 370.037 81.65 370.409 81.65H372.011V83H370.319C369.455 83 368.837 82.808 368.465 82.424C368.105 82.04 367.925 81.434 367.925 80.606V75.17ZM373.799 70.274C374.075 70.274 374.303 70.364 374.483 70.544C374.663 70.724 374.753 70.952 374.753 71.228C374.753 71.504 374.663 71.732 374.483 71.912C374.303 72.092 374.075 72.182 373.799 72.182C373.523 72.182 373.295 72.092 373.115 71.912C372.935 71.732 372.845 71.504 372.845 71.228C372.845 70.952 372.935 70.724 373.115 70.544C373.295 70.364 373.523 70.274 373.799 70.274ZM373.061 73.82H374.537V83H373.061V73.82ZM386.801 73.712C387.833 73.712 388.667 74.036 389.303 74.684C389.951 75.332 390.275 76.34 390.275 77.708V83H388.799V77.798C388.799 76.91 388.607 76.232 388.223 75.764C387.851 75.296 387.317 75.062 386.621 75.062C385.853 75.062 385.247 75.332 384.803 75.872C384.371 76.412 384.155 77.15 384.155 78.086V83H382.679V77.798C382.679 76.91 382.487 76.232 382.103 75.764C381.719 75.296 381.173 75.062 380.465 75.062C379.721 75.062 379.127 75.35 378.683 75.926C378.251 76.49 378.035 77.234 378.035 78.158V83H376.559V73.82H377.837L378.035 75.08C378.695 74.168 379.589 73.712 380.717 73.712C381.377 73.712 381.959 73.862 382.463 74.162C382.979 74.45 383.363 74.882 383.615 75.458C384.275 74.294 385.337 73.712 386.801 73.712ZM391.844 78.41C391.844 77.474 392.024 76.652 392.384 75.944C392.756 75.236 393.272 74.69 393.932 74.306C394.592 73.91 395.348 73.712 396.2 73.712C397.04 73.712 397.784 73.886 398.432 74.234C399.08 74.582 399.59 75.086 399.962 75.746C400.334 76.406 400.532 77.18 400.556 78.068C400.556 78.2 400.544 78.41 400.52 78.698H393.392V78.824C393.416 79.724 393.692 80.444 394.22 80.984C394.748 81.524 395.438 81.794 396.29 81.794C396.95 81.794 397.508 81.632 397.964 81.308C398.432 80.972 398.744 80.51 398.9 79.922H400.394C400.214 80.858 399.764 81.626 399.044 82.226C398.324 82.814 397.442 83.108 396.398 83.108C395.486 83.108 394.688 82.916 394.004 82.532C393.32 82.136 392.786 81.584 392.402 80.876C392.03 80.156 391.844 79.334 391.844 78.41ZM399.026 77.474C398.954 76.694 398.66 76.088 398.144 75.656C397.64 75.224 396.998 75.008 396.218 75.008C395.522 75.008 394.91 75.236 394.382 75.692C393.854 76.148 393.554 76.742 393.482 77.474H399.026ZM417.193 73.712C418.225 73.712 419.059 74.036 419.695 74.684C420.343 75.332 420.667 76.34 420.667 77.708V83H419.191V77.798C419.191 76.91 418.999 76.232 418.615 75.764C418.243 75.296 417.709 75.062 417.013 75.062C416.245 75.062 415.639 75.332 415.195 75.872C414.763 76.412 414.547 77.15 414.547 78.086V83H413.071V77.798C413.071 76.91 412.879 76.232 412.495 75.764C412.111 75.296 411.565 75.062 410.857 75.062C410.113 75.062 409.519 75.35 409.075 75.926C408.643 76.49 408.427 77.234 408.427 78.158V83H406.951V73.82H408.229L408.427 75.08C409.087 74.168 409.981 73.712 411.109 73.712C411.769 73.712 412.351 73.862 412.855 74.162C413.371 74.45 413.755 74.882 414.007 75.458C414.667 74.294 415.729 73.712 417.193 73.712ZM431.147 81.65V83H430.337C429.749 83 429.329 82.88 429.077 82.64C428.825 82.4 428.693 82.046 428.681 81.578C427.973 82.598 426.947 83.108 425.603 83.108C424.583 83.108 423.761 82.868 423.137 82.388C422.525 81.908 422.219 81.254 422.219 80.426C422.219 79.502 422.531 78.794 423.155 78.302C423.791 77.81 424.709 77.564 425.909 77.564H428.609V76.934C428.609 76.334 428.405 75.866 427.997 75.53C427.601 75.194 427.043 75.026 426.323 75.026C425.687 75.026 425.159 75.17 424.739 75.458C424.331 75.734 424.079 76.106 423.983 76.574H422.507C422.615 75.674 423.011 74.972 423.695 74.468C424.391 73.964 425.291 73.712 426.395 73.712C427.571 73.712 428.477 74 429.113 74.576C429.761 75.14 430.085 75.956 430.085 77.024V80.984C430.085 81.428 430.289 81.65 430.697 81.65H431.147ZM428.609 78.806H425.765C424.397 78.806 423.713 79.316 423.713 80.336C423.713 80.792 423.893 81.158 424.253 81.434C424.613 81.71 425.099 81.848 425.711 81.848C426.611 81.848 427.319 81.614 427.835 81.146C428.351 80.666 428.609 80.036 428.609 79.256V78.806ZM436.943 73.82V75.26H436.205C435.329 75.26 434.699 75.554 434.315 76.142C433.943 76.73 433.757 77.456 433.757 78.32V83H432.281V73.82H433.559L433.757 75.206C434.021 74.786 434.363 74.45 434.783 74.198C435.203 73.946 435.785 73.82 436.529 73.82H436.943ZM438.293 70.4H439.769V78.752L444.431 73.82H446.195L442.667 77.582L446.447 83H444.665L441.605 78.644L439.769 80.57V83H438.293V70.4ZM446.741 78.41C446.741 77.474 446.921 76.652 447.281 75.944C447.653 75.236 448.169 74.69 448.829 74.306C449.489 73.91 450.245 73.712 451.097 73.712C451.937 73.712 452.681 73.886 453.329 74.234C453.977 74.582 454.487 75.086 454.859 75.746C455.231 76.406 455.429 77.18 455.453 78.068C455.453 78.2 455.441 78.41 455.417 78.698H448.289V78.824C448.313 79.724 448.589 80.444 449.117 80.984C449.645 81.524 450.335 81.794 451.187 81.794C451.847 81.794 452.405 81.632 452.861 81.308C453.329 80.972 453.641 80.51 453.797 79.922H455.291C455.111 80.858 454.661 81.626 453.941 82.226C453.221 82.814 452.339 83.108 451.295 83.108C450.383 83.108 449.585 82.916 448.901 82.532C448.217 82.136 447.683 81.584 447.299 80.876C446.927 80.156 446.741 79.334 446.741 78.41ZM453.923 77.474C453.851 76.694 453.557 76.088 453.041 75.656C452.537 75.224 451.895 75.008 451.115 75.008C450.419 75.008 449.807 75.236 449.279 75.692C448.751 76.148 448.451 76.742 448.379 77.474H453.923ZM457.643 75.17H455.987V73.82H457.643V71.246H459.119V73.82H461.441V75.17H459.119V80.588C459.119 80.972 459.191 81.248 459.335 81.416C459.491 81.572 459.755 81.65 460.127 81.65H461.729V83H460.037C459.173 83 458.555 82.808 458.183 82.424C457.823 82.04 457.643 81.434 457.643 80.606V75.17ZM476.076 81.65V83H475.266C474.678 83 474.258 82.88 474.006 82.64C473.754 82.4 473.622 82.046 473.61 81.578C472.902 82.598 471.876 83.108 470.532 83.108C469.512 83.108 468.69 82.868 468.066 82.388C467.454 81.908 467.148 81.254 467.148 80.426C467.148 79.502 467.46 78.794 468.084 78.302C468.72 77.81 469.638 77.564 470.838 77.564H473.538V76.934C473.538 76.334 473.334 75.866 472.926 75.53C472.53 75.194 471.972 75.026 471.252 75.026C470.616 75.026 470.088 75.17 469.668 75.458C469.26 75.734 469.008 76.106 468.912 76.574H467.436C467.544 75.674 467.94 74.972 468.624 74.468C469.32 73.964 470.22 73.712 471.324 73.712C472.5 73.712 473.406 74 474.042 74.576C474.69 75.14 475.014 75.956 475.014 77.024V80.984C475.014 81.428 475.218 81.65 475.626 81.65H476.076ZM473.538 78.806H470.694C469.326 78.806 468.642 79.316 468.642 80.336C468.642 80.792 468.822 81.158 469.182 81.434C469.542 81.71 470.028 81.848 470.64 81.848C471.54 81.848 472.248 81.614 472.764 81.146C473.28 80.666 473.538 80.036 473.538 79.256V78.806ZM481.711 73.712C482.827 73.712 483.721 74.048 484.393 74.72C485.077 75.392 485.419 76.448 485.419 77.888V83H483.943V77.978C483.943 77.03 483.727 76.31 483.295 75.818C482.875 75.314 482.263 75.062 481.459 75.062C480.595 75.062 479.917 75.362 479.425 75.962C478.933 76.562 478.687 77.378 478.687 78.41V83H477.211V73.82H478.489L478.687 75.062C479.383 74.162 480.391 73.712 481.711 73.712ZM496.013 70.4V83H494.735L494.537 81.524C493.769 82.58 492.719 83.108 491.387 83.108C490.535 83.108 489.773 82.922 489.101 82.55C488.441 82.178 487.919 81.638 487.535 80.93C487.163 80.222 486.977 79.382 486.977 78.41C486.977 77.486 487.163 76.67 487.535 75.962C487.919 75.254 488.447 74.702 489.119 74.306C489.791 73.91 490.547 73.712 491.387 73.712C492.131 73.712 492.767 73.85 493.295 74.126C493.823 74.39 494.237 74.756 494.537 75.224V70.4H496.013ZM491.531 81.794C492.119 81.794 492.641 81.656 493.097 81.38C493.565 81.092 493.925 80.696 494.177 80.192C494.429 79.676 494.555 79.094 494.555 78.446C494.555 77.786 494.429 77.198 494.177 76.682C493.925 76.154 493.565 75.746 493.097 75.458C492.641 75.17 492.119 75.026 491.531 75.026C490.619 75.026 489.881 75.344 489.317 75.98C488.765 76.604 488.489 77.414 488.489 78.41C488.489 79.406 488.765 80.222 489.317 80.858C489.881 81.482 490.619 81.794 491.531 81.794ZM511.321 81.65V83H510.511C509.923 83 509.503 82.88 509.251 82.64C508.999 82.4 508.867 82.046 508.855 81.578C508.147 82.598 507.121 83.108 505.777 83.108C504.757 83.108 503.935 82.868 503.311 82.388C502.699 81.908 502.393 81.254 502.393 80.426C502.393 79.502 502.705 78.794 503.329 78.302C503.965 77.81 504.883 77.564 506.083 77.564H508.783V76.934C508.783 76.334 508.579 75.866 508.171 75.53C507.775 75.194 507.217 75.026 506.497 75.026C505.861 75.026 505.333 75.17 504.913 75.458C504.505 75.734 504.253 76.106 504.157 76.574H502.681C502.789 75.674 503.185 74.972 503.869 74.468C504.565 73.964 505.465 73.712 506.569 73.712C507.745 73.712 508.651 74 509.287 74.576C509.935 75.14 510.259 75.956 510.259 77.024V80.984C510.259 81.428 510.463 81.65 510.871 81.65H511.321ZM508.783 78.806H505.939C504.571 78.806 503.887 79.316 503.887 80.336C503.887 80.792 504.067 81.158 504.427 81.434C504.787 81.71 505.273 81.848 505.885 81.848C506.785 81.848 507.493 81.614 508.009 81.146C508.525 80.666 508.783 80.036 508.783 79.256V78.806ZM512.455 70.4H513.931V83H512.455V70.4ZM515.953 71.246H517.429V73.82H519.751V75.17H517.429V80.588C517.429 80.972 517.501 81.248 517.645 81.416C517.801 81.572 518.065 81.65 518.437 81.65H520.039V83H518.347C517.483 83 516.865 82.808 516.493 82.424C516.133 82.04 515.953 81.434 515.953 80.606V71.246ZM520.534 78.41C520.534 77.474 520.714 76.652 521.074 75.944C521.446 75.236 521.962 74.69 522.622 74.306C523.282 73.91 524.038 73.712 524.89 73.712C525.73 73.712 526.474 73.886 527.122 74.234C527.77 74.582 528.28 75.086 528.652 75.746C529.024 76.406 529.222 77.18 529.246 78.068C529.246 78.2 529.234 78.41 529.21 78.698H522.082V78.824C522.106 79.724 522.382 80.444 522.91 80.984C523.438 81.524 524.128 81.794 524.98 81.794C525.64 81.794 526.198 81.632 526.654 81.308C527.122 80.972 527.434 80.51 527.59 79.922H529.084C528.904 80.858 528.454 81.626 527.734 82.226C527.014 82.814 526.132 83.108 525.088 83.108C524.176 83.108 523.378 82.916 522.694 82.532C522.01 82.136 521.476 81.584 521.092 80.876C520.72 80.156 520.534 79.334 520.534 78.41ZM527.716 77.474C527.644 76.694 527.35 76.088 526.834 75.656C526.33 75.224 525.688 75.008 524.908 75.008C524.212 75.008 523.6 75.236 523.072 75.692C522.544 76.148 522.244 76.742 522.172 77.474H527.716ZM535.592 73.82V75.26H534.854C533.978 75.26 533.348 75.554 532.964 76.142C532.592 76.73 532.406 77.456 532.406 78.32V83H530.93V73.82H532.208L532.406 75.206C532.67 74.786 533.012 74.45 533.432 74.198C533.852 73.946 534.434 73.82 535.178 73.82H535.592ZM541.442 73.712C542.558 73.712 543.452 74.048 544.124 74.72C544.808 75.392 545.15 76.448 545.15 77.888V83H543.674V77.978C543.674 77.03 543.458 76.31 543.026 75.818C542.606 75.314 541.994 75.062 541.19 75.062C540.326 75.062 539.648 75.362 539.156 75.962C538.664 76.562 538.418 77.378 538.418 78.41V83H536.942V73.82H538.22L538.418 75.062C539.114 74.162 540.122 73.712 541.442 73.712ZM555.617 81.65V83H554.807C554.219 83 553.799 82.88 553.547 82.64C553.295 82.4 553.163 82.046 553.151 81.578C552.443 82.598 551.417 83.108 550.073 83.108C549.053 83.108 548.231 82.868 547.607 82.388C546.995 81.908 546.689 81.254 546.689 80.426C546.689 79.502 547.001 78.794 547.625 78.302C548.261 77.81 549.179 77.564 550.379 77.564H553.079V76.934C553.079 76.334 552.875 75.866 552.467 75.53C552.071 75.194 551.513 75.026 550.793 75.026C550.157 75.026 549.629 75.17 549.209 75.458C548.801 75.734 548.549 76.106 548.453 76.574H546.977C547.085 75.674 547.481 74.972 548.165 74.468C548.861 73.964 549.761 73.712 550.865 73.712C552.041 73.712 552.947 74 553.583 74.576C554.231 75.14 554.555 75.956 554.555 77.024V80.984C554.555 81.428 554.759 81.65 555.167 81.65H555.617ZM553.079 78.806H550.235C548.867 78.806 548.183 79.316 548.183 80.336C548.183 80.792 548.363 81.158 548.723 81.434C549.083 81.71 549.569 81.848 550.181 81.848C551.081 81.848 551.789 81.614 552.305 81.146C552.821 80.666 553.079 80.036 553.079 79.256V78.806ZM557.364 75.17H555.708V73.82H557.364V71.246H558.84V73.82H561.162V75.17H558.84V80.588C558.84 80.972 558.912 81.248 559.056 81.416C559.212 81.572 559.476 81.65 559.848 81.65H561.45V83H559.758C558.894 83 558.276 82.808 557.904 82.424C557.544 82.04 557.364 81.434 557.364 80.606V75.17ZM563.238 70.274C563.514 70.274 563.742 70.364 563.922 70.544C564.102 70.724 564.192 70.952 564.192 71.228C564.192 71.504 564.102 71.732 563.922 71.912C563.742 72.092 563.514 72.182 563.238 72.182C562.962 72.182 562.734 72.092 562.554 71.912C562.374 71.732 562.284 71.504 562.284 71.228C562.284 70.952 562.374 70.724 562.554 70.544C562.734 70.364 562.962 70.274 563.238 70.274ZM562.5 73.82H563.976V83H562.5V73.82ZM565.08 73.82H566.664L569.436 81.326L572.19 73.82H573.738L570.3 83H568.518L565.08 73.82ZM574.164 78.41C574.164 77.474 574.344 76.652 574.704 75.944C575.076 75.236 575.592 74.69 576.252 74.306C576.912 73.91 577.668 73.712 578.52 73.712C579.36 73.712 580.104 73.886 580.752 74.234C581.4 74.582 581.91 75.086 582.282 75.746C582.654 76.406 582.852 77.18 582.876 78.068C582.876 78.2 582.864 78.41 582.84 78.698H575.712V78.824C575.736 79.724 576.012 80.444 576.54 80.984C577.068 81.524 577.758 81.794 578.61 81.794C579.27 81.794 579.828 81.632 580.284 81.308C580.752 80.972 581.064 80.51 581.22 79.922H582.714C582.534 80.858 582.084 81.626 581.364 82.226C580.644 82.814 579.762 83.108 578.718 83.108C577.806 83.108 577.008 82.916 576.324 82.532C575.64 82.136 575.106 81.584 574.722 80.876C574.35 80.156 574.164 79.334 574.164 78.41ZM581.346 77.474C581.274 76.694 580.98 76.088 580.464 75.656C579.96 75.224 579.318 75.008 578.538 75.008C577.842 75.008 577.23 75.236 576.702 75.692C576.174 76.148 575.874 76.742 575.802 77.474H581.346ZM597.984 70.4V83H596.706L596.508 81.524C595.74 82.58 594.69 83.108 593.358 83.108C592.506 83.108 591.744 82.922 591.072 82.55C590.412 82.178 589.89 81.638 589.506 80.93C589.134 80.222 588.948 79.382 588.948 78.41C588.948 77.486 589.134 76.67 589.506 75.962C589.89 75.254 590.418 74.702 591.09 74.306C591.762 73.91 592.518 73.712 593.358 73.712C594.102 73.712 594.738 73.85 595.266 74.126C595.794 74.39 596.208 74.756 596.508 75.224V70.4H597.984ZM593.502 81.794C594.09 81.794 594.612 81.656 595.068 81.38C595.536 81.092 595.896 80.696 596.148 80.192C596.4 79.676 596.526 79.094 596.526 78.446C596.526 77.786 596.4 77.198 596.148 76.682C595.896 76.154 595.536 75.746 595.068 75.458C594.612 75.17 594.09 75.026 593.502 75.026C592.59 75.026 591.852 75.344 591.288 75.98C590.736 76.604 590.46 77.414 590.46 78.41C590.46 79.406 590.736 80.222 591.288 80.858C591.852 81.482 592.59 81.794 593.502 81.794ZM608.58 81.65V83H607.77C607.182 83 606.762 82.88 606.51 82.64C606.258 82.4 606.126 82.046 606.114 81.578C605.406 82.598 604.38 83.108 603.036 83.108C602.016 83.108 601.194 82.868 600.57 82.388C599.958 81.908 599.652 81.254 599.652 80.426C599.652 79.502 599.964 78.794 600.588 78.302C601.224 77.81 602.142 77.564 603.342 77.564H606.042V76.934C606.042 76.334 605.838 75.866 605.43 75.53C605.034 75.194 604.476 75.026 603.756 75.026C603.12 75.026 602.592 75.17 602.172 75.458C601.764 75.734 601.512 76.106 601.416 76.574H599.94C600.048 75.674 600.444 74.972 601.128 74.468C601.824 73.964 602.724 73.712 603.828 73.712C605.004 73.712 605.91 74 606.546 74.576C607.194 75.14 607.518 75.956 607.518 77.024V80.984C607.518 81.428 607.722 81.65 608.13 81.65H608.58ZM606.042 78.806H603.198C601.83 78.806 601.146 79.316 601.146 80.336C601.146 80.792 601.326 81.158 601.686 81.434C602.046 81.71 602.532 81.848 603.144 81.848C604.044 81.848 604.752 81.614 605.268 81.146C605.784 80.666 606.042 80.036 606.042 79.256V78.806ZM610.327 75.17H608.671V73.82H610.327V71.246H611.803V73.82H614.125V75.17H611.803V80.588C611.803 80.972 611.875 81.248 612.019 81.416C612.175 81.572 612.439 81.65 612.811 81.65H614.413V83H612.721C611.857 83 611.239 82.808 610.867 82.424C610.507 82.04 610.327 81.434 610.327 80.606V75.17ZM623.908 81.65V83H623.098C622.51 83 622.09 82.88 621.838 82.64C621.586 82.4 621.454 82.046 621.442 81.578C620.734 82.598 619.708 83.108 618.364 83.108C617.344 83.108 616.522 82.868 615.898 82.388C615.286 81.908 614.98 81.254 614.98 80.426C614.98 79.502 615.292 78.794 615.916 78.302C616.552 77.81 617.47 77.564 618.67 77.564H621.37V76.934C621.37 76.334 621.166 75.866 620.758 75.53C620.362 75.194 619.804 75.026 619.084 75.026C618.448 75.026 617.92 75.17 617.5 75.458C617.092 75.734 616.84 76.106 616.744 76.574H615.268C615.376 75.674 615.772 74.972 616.456 74.468C617.152 73.964 618.052 73.712 619.156 73.712C620.332 73.712 621.238 74 621.874 74.576C622.522 75.14 622.846 75.956 622.846 77.024V80.984C622.846 81.428 623.05 81.65 623.458 81.65H623.908ZM621.37 78.806H618.526C617.158 78.806 616.474 79.316 616.474 80.336C616.474 80.792 616.654 81.158 617.014 81.434C617.374 81.71 617.86 81.848 618.472 81.848C619.372 81.848 620.08 81.614 620.596 81.146C621.112 80.666 621.37 80.036 621.37 79.256V78.806ZM624.863 82.1C624.863 81.8 624.959 81.56 625.151 81.38C625.343 81.188 625.589 81.092 625.889 81.092C626.189 81.092 626.435 81.188 626.627 81.38C626.819 81.56 626.915 81.8 626.915 82.1C626.915 82.4 626.819 82.646 626.627 82.838C626.435 83.018 626.189 83.108 625.889 83.108C625.589 83.108 625.343 83.018 625.151 82.838C624.959 82.646 624.863 82.4 624.863 82.1Z" fill="black"/>
<rect x="237" y="46" width="31" height="31" rx="4" fill="#5A7E83"/>
<path d="M259.222 70V68.1112C259.222 67.1092 258.824 66.1483 258.116 65.4399C257.407 64.7314 256.446 64.3334 255.444 64.3334H249.778C248.776 64.3334 247.815 64.7314 247.106 65.4399C246.398 66.1483 246 67.1092 246 68.1112V70" stroke="white" stroke-width="1.5" stroke-linecap="round" stroke-linejoin="round"/>
<path d="M252.611 60.5556C254.697 60.5556 256.389 58.8642 256.389 56.7778C256.389 54.6914 254.697 53 252.611 53C250.524 53 248.833 54.6914 248.833 56.7778C248.833 58.8642 250.524 60.5556 252.611 60.5556Z" stroke="white" stroke-width="1.5" stroke-linecap="round" stroke-linejoin="round"/>
</svg>
