<svg width="706" height="540" viewBox="0 0 706 540" fill="none" xmlns="http://www.w3.org/2000/svg">
<g clip-path="url(#clip0_6_4538)">
<mask id="mask0_6_4538" style="mask-type:alpha" maskUnits="userSpaceOnUse" x="0" y="0" width="706" height="540">
<rect width="706" height="540" fill="#D9D9D9"/>
</mask>
<g mask="url(#mask0_6_4538)">
<rect opacity="0.5" x="490" y="438" width="175" height="40" rx="5" fill="white"/>
<path d="M546.455 460.812H546.347C546.275 460.988 546.187 461.156 546.083 461.316C545.979 461.476 545.851 461.62 545.699 461.748C545.547 461.868 545.367 461.964 545.159 462.036C544.959 462.108 544.731 462.144 544.475 462.144C544.067 462.144 543.703 462.048 543.383 461.856C543.071 461.664 542.807 461.384 542.591 461.016C542.375 460.648 542.211 460.2 542.099 459.672C541.995 459.144 541.943 458.548 541.943 457.884C541.943 456.46 542.203 455.372 542.723 454.62C543.243 453.86 544.047 453.48 545.135 453.48C545.567 453.48 545.947 453.54 546.275 453.66C546.603 453.772 546.883 453.936 547.115 454.152C547.355 454.36 547.551 454.612 547.703 454.908C547.855 455.204 547.975 455.532 548.063 455.892L546.383 456.3C546.335 456.124 546.279 455.956 546.215 455.796C546.159 455.628 546.083 455.48 545.987 455.352C545.891 455.224 545.771 455.124 545.627 455.052C545.483 454.972 545.307 454.932 545.099 454.932C544.643 454.932 544.319 455.12 544.127 455.496C543.943 455.872 543.851 456.4 543.851 457.08V458.448C543.851 459.128 543.951 459.672 544.151 460.08C544.359 460.488 544.723 460.692 545.243 460.692C545.651 460.692 545.955 460.572 546.155 460.332C546.355 460.092 546.455 459.784 546.455 459.408V458.796H545.027V457.524H548.063V462H546.455V460.812ZM549.679 462V453.624H555.031V455.1H551.479V457.02H554.911V458.496H551.479V460.524H555.031V462H549.679ZM558.314 456.432H558.182V462H556.646V453.624H558.806L560.714 459.192H560.846V453.624H562.382V462H560.222L558.314 456.432ZM564.069 462V453.624H569.421V455.1H565.869V457.02H569.301V458.496H565.869V460.524H569.421V462H564.069ZM572.993 462H571.217V453.624H574.457C574.865 453.624 575.229 453.688 575.549 453.816C575.869 453.936 576.137 454.112 576.353 454.344C576.577 454.576 576.745 454.856 576.857 455.184C576.969 455.512 577.025 455.88 577.025 456.288C577.025 456.88 576.897 457.388 576.641 457.812C576.385 458.236 576.021 458.516 575.549 458.652L577.193 462H575.225L573.821 458.892H572.993V462ZM574.025 457.5C574.449 457.5 574.741 457.42 574.901 457.26C575.069 457.1 575.153 456.836 575.153 456.468V456.108C575.153 455.74 575.069 455.476 574.901 455.316C574.741 455.156 574.449 455.076 574.025 455.076H572.993V457.5H574.025ZM582.72 462L582.192 459.984H579.9L579.384 462H577.56L579.828 453.624H582.372L584.64 462H582.72ZM581.1 455.364H581.004L580.188 458.532H581.916L581.1 455.364ZM589.195 455.1V462H587.395V455.1H584.983V453.624H591.607V455.1H589.195ZM592.791 462V460.668H594.591V454.956H592.791V453.624H598.191V454.956H596.391V460.668H598.191V462H592.791ZM601.486 456.432H601.354V462H599.818V453.624H601.978L603.886 459.192H604.018V453.624H605.554V462H603.394L601.486 456.432ZM611.213 460.812H611.105C611.033 460.988 610.945 461.156 610.841 461.316C610.737 461.476 610.609 461.62 610.457 461.748C610.305 461.868 610.125 461.964 609.917 462.036C609.717 462.108 609.489 462.144 609.233 462.144C608.825 462.144 608.461 462.048 608.141 461.856C607.829 461.664 607.565 461.384 607.349 461.016C607.133 460.648 606.969 460.2 606.857 459.672C606.753 459.144 606.701 458.548 606.701 457.884C606.701 456.46 606.961 455.372 607.481 454.62C608.001 453.86 608.805 453.48 609.893 453.48C610.325 453.48 610.705 453.54 611.033 453.66C611.361 453.772 611.641 453.936 611.873 454.152C612.113 454.36 612.309 454.612 612.461 454.908C612.613 455.204 612.733 455.532 612.821 455.892L611.141 456.3C611.093 456.124 611.037 455.956 610.973 455.796C610.917 455.628 610.841 455.48 610.745 455.352C610.649 455.224 610.529 455.124 610.385 455.052C610.241 454.972 610.065 454.932 609.857 454.932C609.401 454.932 609.077 455.12 608.885 455.496C608.701 455.872 608.609 456.4 608.609 457.08V458.448C608.609 459.128 608.709 459.672 608.909 460.08C609.117 460.488 609.481 460.692 610.001 460.692C610.409 460.692 610.713 460.572 610.913 460.332C611.113 460.092 611.213 459.784 611.213 459.408V458.796H609.785V457.524H612.821V462H611.213V460.812Z" fill="white"/>
<rect opacity="0.8" x="495" y="299" width="462" height="89" rx="9" transform="rotate(-180 495 299)" fill="white"/>
<path d="M101.066 235.4C101.894 235.4 102.626 235.562 103.262 235.886C103.898 236.198 104.384 236.648 104.72 237.236C105.068 237.812 105.242 238.49 105.242 239.27C105.242 240.05 105.068 240.734 104.72 241.322C104.372 241.91 103.88 242.366 103.244 242.69C102.62 243.002 101.894 243.158 101.066 243.158H97.79V248H96.224V235.4H101.066ZM97.79 241.718H100.922C101.75 241.718 102.41 241.496 102.902 241.052C103.394 240.608 103.64 240.014 103.64 239.27C103.64 238.526 103.394 237.938 102.902 237.506C102.422 237.062 101.768 236.84 100.94 236.84H97.79V241.718ZM111.358 238.82V240.26H110.62C109.744 240.26 109.114 240.554 108.73 241.142C108.358 241.73 108.172 242.456 108.172 243.32V248H106.696V238.82H107.974L108.172 240.206C108.436 239.786 108.778 239.45 109.198 239.198C109.618 238.946 110.2 238.82 110.944 238.82H111.358ZM111.856 243.41C111.856 242.474 112.036 241.652 112.396 240.944C112.768 240.236 113.284 239.69 113.944 239.306C114.604 238.91 115.36 238.712 116.212 238.712C117.052 238.712 117.796 238.886 118.444 239.234C119.092 239.582 119.602 240.086 119.974 240.746C120.346 241.406 120.544 242.18 120.568 243.068C120.568 243.2 120.556 243.41 120.532 243.698H113.404V243.824C113.428 244.724 113.704 245.444 114.232 245.984C114.76 246.524 115.45 246.794 116.302 246.794C116.962 246.794 117.52 246.632 117.976 246.308C118.444 245.972 118.756 245.51 118.912 244.922H120.406C120.226 245.858 119.776 246.626 119.056 247.226C118.336 247.814 117.454 248.108 116.41 248.108C115.498 248.108 114.7 247.916 114.016 247.532C113.332 247.136 112.798 246.584 112.414 245.876C112.042 245.156 111.856 244.334 111.856 243.41ZM119.038 242.474C118.966 241.694 118.672 241.088 118.156 240.656C117.652 240.224 117.01 240.008 116.23 240.008C115.534 240.008 114.922 240.236 114.394 240.692C113.866 241.148 113.566 241.742 113.494 242.474H119.038ZM130.964 235.4V248H129.686L129.488 246.524C128.72 247.58 127.67 248.108 126.338 248.108C125.486 248.108 124.724 247.922 124.052 247.55C123.392 247.178 122.87 246.638 122.486 245.93C122.114 245.222 121.928 244.382 121.928 243.41C121.928 242.486 122.114 241.67 122.486 240.962C122.87 240.254 123.398 239.702 124.07 239.306C124.742 238.91 125.498 238.712 126.338 238.712C127.082 238.712 127.718 238.85 128.246 239.126C128.774 239.39 129.188 239.756 129.488 240.224V235.4H130.964ZM126.482 246.794C127.07 246.794 127.592 246.656 128.048 246.38C128.516 246.092 128.876 245.696 129.128 245.192C129.38 244.676 129.506 244.094 129.506 243.446C129.506 242.786 129.38 242.198 129.128 241.682C128.876 241.154 128.516 240.746 128.048 240.458C127.592 240.17 127.07 240.026 126.482 240.026C125.57 240.026 124.832 240.344 124.268 240.98C123.716 241.604 123.44 242.414 123.44 243.41C123.44 244.406 123.716 245.222 124.268 245.858C124.832 246.482 125.57 246.794 126.482 246.794ZM133.713 235.274C133.989 235.274 134.217 235.364 134.397 235.544C134.577 235.724 134.667 235.952 134.667 236.228C134.667 236.504 134.577 236.732 134.397 236.912C134.217 237.092 133.989 237.182 133.713 237.182C133.437 237.182 133.209 237.092 133.029 236.912C132.849 236.732 132.759 236.504 132.759 236.228C132.759 235.952 132.849 235.724 133.029 235.544C133.209 235.364 133.437 235.274 133.713 235.274ZM132.975 238.82H134.451V248H132.975V238.82ZM144.663 244.832C144.471 245.852 144.021 246.656 143.313 247.244C142.605 247.82 141.705 248.108 140.613 248.108C139.725 248.108 138.945 247.91 138.273 247.514C137.601 247.118 137.079 246.566 136.707 245.858C136.335 245.138 136.149 244.316 136.149 243.392C136.149 242.468 136.335 241.652 136.707 240.944C137.091 240.236 137.625 239.69 138.309 239.306C138.993 238.91 139.779 238.712 140.667 238.712C141.747 238.712 142.635 239 143.331 239.576C144.039 240.152 144.483 240.944 144.663 241.952H143.169C143.025 241.364 142.725 240.896 142.269 240.548C141.813 240.2 141.261 240.026 140.613 240.026C139.737 240.026 139.023 240.338 138.471 240.962C137.931 241.586 137.661 242.396 137.661 243.392C137.661 244.4 137.931 245.222 138.471 245.858C139.023 246.482 139.737 246.794 140.613 246.794C141.285 246.794 141.849 246.62 142.305 246.272C142.761 245.924 143.055 245.444 143.187 244.832H144.663ZM146.981 240.17H145.325V238.82H146.981V236.246H148.457V238.82H150.779V240.17H148.457V245.588C148.457 245.972 148.529 246.248 148.673 246.416C148.829 246.572 149.093 246.65 149.465 246.65H151.067V248H149.375C148.511 248 147.893 247.808 147.521 247.424C147.161 247.04 146.981 246.434 146.981 245.606V240.17ZM161.454 238.712C162.306 238.712 163.062 238.898 163.722 239.27C164.394 239.642 164.916 240.182 165.288 240.89C165.672 241.598 165.864 242.438 165.864 243.41C165.864 244.334 165.672 245.15 165.288 245.858C164.916 246.566 164.394 247.118 163.722 247.514C163.05 247.91 162.294 248.108 161.454 248.108C160.71 248.108 160.074 247.976 159.546 247.712C159.018 247.436 158.604 247.064 158.304 246.596V251.6H156.828V238.82H158.106L158.304 240.296C159.072 239.24 160.122 238.712 161.454 238.712ZM161.31 246.794C162.222 246.794 162.954 246.482 163.506 245.858C164.07 245.222 164.352 244.406 164.352 243.41C164.352 242.414 164.07 241.604 163.506 240.98C162.954 240.344 162.222 240.026 161.31 240.026C160.722 240.026 160.194 240.17 159.726 240.458C159.27 240.734 158.916 241.13 158.664 241.646C158.412 242.15 158.286 242.726 158.286 243.374C158.286 244.034 158.412 244.628 158.664 245.156C158.916 245.672 159.27 246.074 159.726 246.362C160.194 246.65 160.722 246.794 161.31 246.794ZM171.781 248.108C170.893 248.108 170.101 247.91 169.405 247.514C168.721 247.118 168.187 246.566 167.803 245.858C167.419 245.15 167.227 244.334 167.227 243.41C167.227 242.486 167.419 241.67 167.803 240.962C168.187 240.254 168.721 239.702 169.405 239.306C170.101 238.91 170.893 238.712 171.781 238.712C172.669 238.712 173.455 238.91 174.139 239.306C174.835 239.702 175.375 240.254 175.759 240.962C176.143 241.67 176.335 242.486 176.335 243.41C176.335 244.334 176.143 245.15 175.759 245.858C175.375 246.566 174.835 247.118 174.139 247.514C173.455 247.91 172.669 248.108 171.781 248.108ZM171.781 246.794C172.381 246.794 172.909 246.65 173.365 246.362C173.833 246.074 174.193 245.672 174.445 245.156C174.697 244.64 174.823 244.058 174.823 243.41C174.823 242.762 174.697 242.18 174.445 241.664C174.193 241.148 173.833 240.746 173.365 240.458C172.909 240.17 172.381 240.026 171.781 240.026C171.181 240.026 170.647 240.17 170.179 240.458C169.723 240.746 169.369 241.148 169.117 241.664C168.865 242.18 168.739 242.762 168.739 243.41C168.739 244.058 168.865 244.64 169.117 245.156C169.369 245.672 169.723 246.074 170.179 246.362C170.647 246.65 171.181 246.794 171.781 246.794ZM178.534 240.17H176.878V238.82H178.534V236.246H180.01V238.82H182.332V240.17H180.01V245.588C180.01 245.972 180.082 246.248 180.226 246.416C180.382 246.572 180.646 246.65 181.018 246.65H182.62V248H180.928C180.064 248 179.446 247.808 179.074 247.424C178.714 247.04 178.534 246.434 178.534 245.606V240.17ZM183.118 243.41C183.118 242.474 183.298 241.652 183.658 240.944C184.03 240.236 184.546 239.69 185.206 239.306C185.866 238.91 186.622 238.712 187.474 238.712C188.314 238.712 189.058 238.886 189.706 239.234C190.354 239.582 190.864 240.086 191.236 240.746C191.608 241.406 191.806 242.18 191.83 243.068C191.83 243.2 191.818 243.41 191.794 243.698H184.666V243.824C184.69 244.724 184.966 245.444 185.494 245.984C186.022 246.524 186.712 246.794 187.564 246.794C188.224 246.794 188.782 246.632 189.238 246.308C189.706 245.972 190.018 245.51 190.174 244.922H191.668C191.488 245.858 191.038 246.626 190.318 247.226C189.598 247.814 188.716 248.108 187.672 248.108C186.76 248.108 185.962 247.916 185.278 247.532C184.594 247.136 184.06 246.584 183.676 245.876C183.304 245.156 183.118 244.334 183.118 243.41ZM190.3 242.474C190.228 241.694 189.934 241.088 189.418 240.656C188.914 240.224 188.272 240.008 187.492 240.008C186.796 240.008 186.184 240.236 185.656 240.692C185.128 241.148 184.828 241.742 184.756 242.474H190.3ZM198.014 238.712C199.13 238.712 200.024 239.048 200.696 239.72C201.38 240.392 201.722 241.448 201.722 242.888V248H200.246V242.978C200.246 242.03 200.03 241.31 199.598 240.818C199.178 240.314 198.566 240.062 197.762 240.062C196.898 240.062 196.22 240.362 195.728 240.962C195.236 241.562 194.99 242.378 194.99 243.41V248H193.514V238.82H194.792L194.99 240.062C195.686 239.162 196.694 238.712 198.014 238.712ZM204.216 240.17H202.56V238.82H204.216V236.246H205.692V238.82H208.014V240.17H205.692V245.588C205.692 245.972 205.764 246.248 205.908 246.416C206.064 246.572 206.328 246.65 206.7 246.65H208.302V248H206.61C205.746 248 205.128 247.808 204.756 247.424C204.396 247.04 204.216 246.434 204.216 245.606V240.17ZM210.09 235.274C210.366 235.274 210.594 235.364 210.774 235.544C210.954 235.724 211.044 235.952 211.044 236.228C211.044 236.504 210.954 236.732 210.774 236.912C210.594 237.092 210.366 237.182 210.09 237.182C209.814 237.182 209.586 237.092 209.406 236.912C209.226 236.732 209.136 236.504 209.136 236.228C209.136 235.952 209.226 235.724 209.406 235.544C209.586 235.364 209.814 235.274 210.09 235.274ZM209.352 238.82H210.828V248H209.352V238.82ZM221.436 246.65V248H220.626C220.038 248 219.618 247.88 219.366 247.64C219.114 247.4 218.982 247.046 218.97 246.578C218.262 247.598 217.236 248.108 215.892 248.108C214.872 248.108 214.05 247.868 213.426 247.388C212.814 246.908 212.508 246.254 212.508 245.426C212.508 244.502 212.82 243.794 213.444 243.302C214.08 242.81 214.998 242.564 216.198 242.564H218.898V241.934C218.898 241.334 218.694 240.866 218.286 240.53C217.89 240.194 217.332 240.026 216.612 240.026C215.976 240.026 215.448 240.17 215.028 240.458C214.62 240.734 214.368 241.106 214.272 241.574H212.796C212.904 240.674 213.3 239.972 213.984 239.468C214.68 238.964 215.58 238.712 216.684 238.712C217.86 238.712 218.766 239 219.402 239.576C220.05 240.14 220.374 240.956 220.374 242.024V245.984C220.374 246.428 220.578 246.65 220.986 246.65H221.436ZM218.898 243.806H216.054C214.686 243.806 214.002 244.316 214.002 245.336C214.002 245.792 214.182 246.158 214.542 246.434C214.902 246.71 215.388 246.848 216 246.848C216.9 246.848 217.608 246.614 218.124 246.146C218.64 245.666 218.898 245.036 218.898 244.256V243.806ZM222.571 235.4H224.047V248H222.571V235.4ZM235.009 248.108C234.121 248.108 233.329 247.91 232.633 247.514C231.949 247.118 231.415 246.566 231.031 245.858C230.647 245.15 230.455 244.334 230.455 243.41C230.455 242.486 230.647 241.67 231.031 240.962C231.415 240.254 231.949 239.702 232.633 239.306C233.329 238.91 234.121 238.712 235.009 238.712C235.897 238.712 236.683 238.91 237.367 239.306C238.063 239.702 238.603 240.254 238.987 240.962C239.371 241.67 239.563 242.486 239.563 243.41C239.563 244.334 239.371 245.15 238.987 245.858C238.603 246.566 238.063 247.118 237.367 247.514C236.683 247.91 235.897 248.108 235.009 248.108ZM235.009 246.794C235.609 246.794 236.137 246.65 236.593 246.362C237.061 246.074 237.421 245.672 237.673 245.156C237.925 244.64 238.051 244.058 238.051 243.41C238.051 242.762 237.925 242.18 237.673 241.664C237.421 241.148 237.061 240.746 236.593 240.458C236.137 240.17 235.609 240.026 235.009 240.026C234.409 240.026 233.875 240.17 233.407 240.458C232.951 240.746 232.597 241.148 232.345 241.664C232.093 242.18 231.967 242.762 231.967 243.41C231.967 244.058 232.093 244.64 232.345 245.156C232.597 245.672 232.951 246.074 233.407 246.362C233.875 246.65 234.409 246.794 235.009 246.794ZM249.158 238.82V248H247.88L247.682 246.776C246.986 247.664 246.008 248.108 244.748 248.108C243.656 248.108 242.78 247.772 242.12 247.1C241.46 246.428 241.13 245.372 241.13 243.932V238.82H242.606V243.842C242.606 244.79 242.81 245.516 243.218 246.02C243.638 246.512 244.232 246.758 245 246.758C245.84 246.758 246.494 246.458 246.962 245.858C247.442 245.258 247.682 244.442 247.682 243.41V238.82H249.158ZM251.817 240.17H250.161V238.82H251.817V236.246H253.293V238.82H255.615V240.17H253.293V245.588C253.293 245.972 253.365 246.248 253.509 246.416C253.665 246.572 253.929 246.65 254.301 246.65H255.903V248H254.211C253.347 248 252.729 247.808 252.357 247.424C251.997 247.04 251.817 246.434 251.817 245.606V240.17ZM265.399 246.65V248H264.589C264.001 248 263.581 247.88 263.329 247.64C263.077 247.4 262.945 247.046 262.933 246.578C262.225 247.598 261.199 248.108 259.855 248.108C258.835 248.108 258.013 247.868 257.389 247.388C256.777 246.908 256.471 246.254 256.471 245.426C256.471 244.502 256.783 243.794 257.407 243.302C258.043 242.81 258.961 242.564 260.161 242.564H262.861V241.934C262.861 241.334 262.657 240.866 262.249 240.53C261.853 240.194 261.295 240.026 260.575 240.026C259.939 240.026 259.411 240.17 258.991 240.458C258.583 240.734 258.331 241.106 258.235 241.574H256.759C256.867 240.674 257.263 239.972 257.947 239.468C258.643 238.964 259.543 238.712 260.647 238.712C261.823 238.712 262.729 239 263.365 239.576C264.013 240.14 264.337 240.956 264.337 242.024V245.984C264.337 246.428 264.541 246.65 264.949 246.65H265.399ZM262.861 243.806H260.017C258.649 243.806 257.965 244.316 257.965 245.336C257.965 245.792 258.145 246.158 258.505 246.434C258.865 246.71 259.351 246.848 259.963 246.848C260.863 246.848 261.571 246.614 262.087 246.146C262.603 245.666 262.861 245.036 262.861 244.256V243.806ZM275.245 238.82V247.55C275.245 250.322 273.727 251.708 270.691 251.708C269.503 251.708 268.531 251.438 267.775 250.898C267.031 250.358 266.599 249.59 266.479 248.594H267.991C268.111 249.17 268.417 249.614 268.909 249.926C269.401 250.238 270.031 250.394 270.799 250.394C272.779 250.394 273.769 249.428 273.769 247.496V246.416C273.109 247.544 272.059 248.108 270.619 248.108C269.767 248.108 269.005 247.922 268.333 247.55C267.673 247.178 267.151 246.638 266.767 245.93C266.395 245.222 266.209 244.382 266.209 243.41C266.209 242.486 266.395 241.67 266.767 240.962C267.151 240.254 267.679 239.702 268.351 239.306C269.023 238.91 269.779 238.712 270.619 238.712C271.363 238.712 271.999 238.862 272.527 239.162C273.055 239.45 273.469 239.864 273.769 240.404L273.967 238.82H275.245ZM270.763 246.794C271.351 246.794 271.873 246.656 272.329 246.38C272.797 246.092 273.157 245.696 273.409 245.192C273.661 244.676 273.787 244.094 273.787 243.446C273.787 242.786 273.661 242.198 273.409 241.682C273.157 241.154 272.797 240.746 272.329 240.458C271.873 240.17 271.351 240.026 270.763 240.026C269.851 240.026 269.113 240.344 268.549 240.98C267.997 241.604 267.721 242.414 267.721 243.41C267.721 244.406 267.997 245.222 268.549 245.858C269.113 246.482 269.851 246.794 270.763 246.794ZM276.932 243.41C276.932 242.474 277.112 241.652 277.472 240.944C277.844 240.236 278.36 239.69 279.02 239.306C279.68 238.91 280.436 238.712 281.288 238.712C282.128 238.712 282.872 238.886 283.52 239.234C284.168 239.582 284.678 240.086 285.05 240.746C285.422 241.406 285.62 242.18 285.644 243.068C285.644 243.2 285.632 243.41 285.608 243.698H278.48V243.824C278.504 244.724 278.78 245.444 279.308 245.984C279.836 246.524 280.526 246.794 281.378 246.794C282.038 246.794 282.596 246.632 283.052 246.308C283.52 245.972 283.832 245.51 283.988 244.922H285.482C285.302 245.858 284.852 246.626 284.132 247.226C283.412 247.814 282.53 248.108 281.486 248.108C280.574 248.108 279.776 247.916 279.092 247.532C278.408 247.136 277.874 246.584 277.49 245.876C277.118 245.156 276.932 244.334 276.932 243.41ZM284.114 242.474C284.042 241.694 283.748 241.088 283.232 240.656C282.728 240.224 282.086 240.008 281.306 240.008C280.61 240.008 279.998 240.236 279.47 240.692C278.942 241.148 278.642 241.742 278.57 242.474H284.114ZM288.445 244.976C288.469 245.528 288.709 245.978 289.165 246.326C289.633 246.674 290.233 246.848 290.965 246.848C291.613 246.848 292.135 246.722 292.531 246.47C292.939 246.206 293.143 245.864 293.143 245.444C293.143 245.084 293.047 244.808 292.855 244.616C292.663 244.424 292.411 244.292 292.099 244.22C291.799 244.148 291.367 244.076 290.803 244.004C290.011 243.908 289.363 243.782 288.859 243.626C288.355 243.47 287.947 243.224 287.635 242.888C287.323 242.54 287.167 242.066 287.167 241.466C287.167 240.926 287.317 240.446 287.617 240.026C287.929 239.606 288.349 239.282 288.877 239.054C289.405 238.814 289.999 238.694 290.659 238.694C291.739 238.694 292.615 238.946 293.287 239.45C293.971 239.954 294.349 240.674 294.421 241.61H292.945C292.885 241.13 292.651 240.734 292.243 240.422C291.835 240.11 291.325 239.954 290.713 239.954C290.089 239.954 289.585 240.086 289.201 240.35C288.817 240.602 288.625 240.938 288.625 241.358C288.625 241.67 288.715 241.91 288.895 242.078C289.075 242.246 289.303 242.36 289.579 242.42C289.867 242.48 290.299 242.546 290.875 242.618C291.679 242.714 292.339 242.846 292.855 243.014C293.383 243.182 293.803 243.452 294.115 243.824C294.439 244.196 294.601 244.7 294.601 245.336C294.601 245.888 294.439 246.374 294.115 246.794C293.791 247.214 293.353 247.538 292.801 247.766C292.249 247.994 291.637 248.108 290.965 248.108C289.765 248.108 288.799 247.832 288.067 247.28C287.347 246.728 286.981 245.96 286.969 244.976H288.445ZM309.573 246.65V248H308.763C308.175 248 307.755 247.88 307.503 247.64C307.251 247.4 307.119 247.046 307.107 246.578C306.399 247.598 305.373 248.108 304.029 248.108C303.009 248.108 302.187 247.868 301.563 247.388C300.951 246.908 300.645 246.254 300.645 245.426C300.645 244.502 300.957 243.794 301.581 243.302C302.217 242.81 303.135 242.564 304.335 242.564H307.035V241.934C307.035 241.334 306.831 240.866 306.423 240.53C306.027 240.194 305.469 240.026 304.749 240.026C304.113 240.026 303.585 240.17 303.165 240.458C302.757 240.734 302.505 241.106 302.409 241.574H300.933C301.041 240.674 301.437 239.972 302.121 239.468C302.817 238.964 303.717 238.712 304.821 238.712C305.997 238.712 306.903 239 307.539 239.576C308.187 240.14 308.511 240.956 308.511 242.024V245.984C308.511 246.428 308.715 246.65 309.123 246.65H309.573ZM307.035 243.806H304.191C302.823 243.806 302.139 244.316 302.139 245.336C302.139 245.792 302.319 246.158 302.679 246.434C303.039 246.71 303.525 246.848 304.137 246.848C305.037 246.848 305.745 246.614 306.261 246.146C306.777 245.666 307.035 245.036 307.035 244.256V243.806ZM315.207 238.712C316.323 238.712 317.217 239.048 317.889 239.72C318.573 240.392 318.915 241.448 318.915 242.888V248H317.439V242.978C317.439 242.03 317.223 241.31 316.791 240.818C316.371 240.314 315.759 240.062 314.955 240.062C314.091 240.062 313.413 240.362 312.921 240.962C312.429 241.562 312.183 242.378 312.183 243.41V248H310.707V238.82H311.985L312.183 240.062C312.879 239.162 313.887 238.712 315.207 238.712ZM329.509 235.4V248H328.231L328.033 246.524C327.265 247.58 326.215 248.108 324.883 248.108C324.031 248.108 323.269 247.922 322.597 247.55C321.937 247.178 321.415 246.638 321.031 245.93C320.659 245.222 320.473 244.382 320.473 243.41C320.473 242.486 320.659 241.67 321.031 240.962C321.415 240.254 321.943 239.702 322.615 239.306C323.287 238.91 324.043 238.712 324.883 238.712C325.627 238.712 326.263 238.85 326.791 239.126C327.319 239.39 327.733 239.756 328.033 240.224V235.4H329.509ZM325.027 246.794C325.615 246.794 326.137 246.656 326.593 246.38C327.061 246.092 327.421 245.696 327.673 245.192C327.925 244.676 328.051 244.094 328.051 243.446C328.051 242.786 327.925 242.198 327.673 241.682C327.421 241.154 327.061 240.746 326.593 240.458C326.137 240.17 325.615 240.026 325.027 240.026C324.115 240.026 323.377 240.344 322.813 240.98C322.261 241.604 321.985 242.414 321.985 243.41C321.985 244.406 322.261 245.222 322.813 245.858C323.377 246.482 324.115 246.794 325.027 246.794ZM340.893 238.82V240.26H340.155C339.279 240.26 338.649 240.554 338.265 241.142C337.893 241.73 337.707 242.456 337.707 243.32V248H336.231V238.82H337.509L337.707 240.206C337.971 239.786 338.313 239.45 338.733 239.198C339.153 238.946 339.735 238.82 340.479 238.82H340.893ZM341.391 243.41C341.391 242.474 341.571 241.652 341.931 240.944C342.303 240.236 342.819 239.69 343.479 239.306C344.139 238.91 344.895 238.712 345.747 238.712C346.587 238.712 347.331 238.886 347.979 239.234C348.627 239.582 349.137 240.086 349.509 240.746C349.881 241.406 350.079 242.18 350.103 243.068C350.103 243.2 350.091 243.41 350.067 243.698H342.939V243.824C342.963 244.724 343.239 245.444 343.767 245.984C344.295 246.524 344.985 246.794 345.837 246.794C346.497 246.794 347.055 246.632 347.511 246.308C347.979 245.972 348.291 245.51 348.447 244.922H349.941C349.761 245.858 349.311 246.626 348.591 247.226C347.871 247.814 346.989 248.108 345.945 248.108C345.033 248.108 344.235 247.916 343.551 247.532C342.867 247.136 342.333 246.584 341.949 245.876C341.577 245.156 341.391 244.334 341.391 243.41ZM348.573 242.474C348.501 241.694 348.207 241.088 347.691 240.656C347.187 240.224 346.545 240.008 345.765 240.008C345.069 240.008 344.457 240.236 343.929 240.692C343.401 241.148 343.101 241.742 343.029 242.474H348.573ZM359.977 244.832C359.785 245.852 359.335 246.656 358.627 247.244C357.919 247.82 357.019 248.108 355.927 248.108C355.039 248.108 354.259 247.91 353.587 247.514C352.915 247.118 352.393 246.566 352.021 245.858C351.649 245.138 351.463 244.316 351.463 243.392C351.463 242.468 351.649 241.652 352.021 240.944C352.405 240.236 352.939 239.69 353.623 239.306C354.307 238.91 355.093 238.712 355.981 238.712C357.061 238.712 357.949 239 358.645 239.576C359.353 240.152 359.797 240.944 359.977 241.952H358.483C358.339 241.364 358.039 240.896 357.583 240.548C357.127 240.2 356.575 240.026 355.927 240.026C355.051 240.026 354.337 240.338 353.785 240.962C353.245 241.586 352.975 242.396 352.975 243.392C352.975 244.4 353.245 245.222 353.785 245.858C354.337 246.482 355.051 246.794 355.927 246.794C356.599 246.794 357.163 246.62 357.619 246.272C358.075 245.924 358.369 245.444 358.501 244.832H359.977ZM365.72 248.108C364.832 248.108 364.04 247.91 363.344 247.514C362.66 247.118 362.126 246.566 361.742 245.858C361.358 245.15 361.166 244.334 361.166 243.41C361.166 242.486 361.358 241.67 361.742 240.962C362.126 240.254 362.66 239.702 363.344 239.306C364.04 238.91 364.832 238.712 365.72 238.712C366.608 238.712 367.394 238.91 368.078 239.306C368.774 239.702 369.314 240.254 369.698 240.962C370.082 241.67 370.274 242.486 370.274 243.41C370.274 244.334 370.082 245.15 369.698 245.858C369.314 246.566 368.774 247.118 368.078 247.514C367.394 247.91 366.608 248.108 365.72 248.108ZM365.72 246.794C366.32 246.794 366.848 246.65 367.304 246.362C367.772 246.074 368.132 245.672 368.384 245.156C368.636 244.64 368.762 244.058 368.762 243.41C368.762 242.762 368.636 242.18 368.384 241.664C368.132 241.148 367.772 240.746 367.304 240.458C366.848 240.17 366.32 240.026 365.72 240.026C365.12 240.026 364.586 240.17 364.118 240.458C363.662 240.746 363.308 241.148 363.056 241.664C362.804 242.18 362.678 242.762 362.678 243.41C362.678 244.058 362.804 244.64 363.056 245.156C363.308 245.672 363.662 246.074 364.118 246.362C364.586 246.65 365.12 246.794 365.72 246.794ZM382.209 238.712C383.241 238.712 384.075 239.036 384.711 239.684C385.359 240.332 385.683 241.34 385.683 242.708V248H384.207V242.798C384.207 241.91 384.015 241.232 383.631 240.764C383.259 240.296 382.725 240.062 382.029 240.062C381.261 240.062 380.655 240.332 380.211 240.872C379.779 241.412 379.563 242.15 379.563 243.086V248H378.087V242.798C378.087 241.91 377.895 241.232 377.511 240.764C377.127 240.296 376.581 240.062 375.873 240.062C375.129 240.062 374.535 240.35 374.091 240.926C373.659 241.49 373.443 242.234 373.443 243.158V248H371.967V238.82H373.245L373.443 240.08C374.103 239.168 374.997 238.712 376.125 238.712C376.785 238.712 377.367 238.862 377.871 239.162C378.387 239.45 378.771 239.882 379.023 240.458C379.683 239.294 380.745 238.712 382.209 238.712ZM397.818 238.712C398.85 238.712 399.684 239.036 400.32 239.684C400.968 240.332 401.292 241.34 401.292 242.708V248H399.816V242.798C399.816 241.91 399.624 241.232 399.24 240.764C398.868 240.296 398.334 240.062 397.638 240.062C396.87 240.062 396.264 240.332 395.82 240.872C395.388 241.412 395.172 242.15 395.172 243.086V248H393.696V242.798C393.696 241.91 393.504 241.232 393.12 240.764C392.736 240.296 392.19 240.062 391.482 240.062C390.738 240.062 390.144 240.35 389.7 240.926C389.268 241.49 389.052 242.234 389.052 243.158V248H387.576V238.82H388.854L389.052 240.08C389.712 239.168 390.606 238.712 391.734 238.712C392.394 238.712 392.976 238.862 393.48 239.162C393.996 239.45 394.38 239.882 394.632 240.458C395.292 239.294 396.354 238.712 397.818 238.712ZM402.862 243.41C402.862 242.474 403.042 241.652 403.402 240.944C403.774 240.236 404.29 239.69 404.95 239.306C405.61 238.91 406.366 238.712 407.218 238.712C408.058 238.712 408.802 238.886 409.45 239.234C410.098 239.582 410.608 240.086 410.98 240.746C411.352 241.406 411.55 242.18 411.574 243.068C411.574 243.2 411.562 243.41 411.538 243.698H404.41V243.824C404.434 244.724 404.71 245.444 405.238 245.984C405.766 246.524 406.456 246.794 407.308 246.794C407.968 246.794 408.526 246.632 408.982 246.308C409.45 245.972 409.762 245.51 409.918 244.922H411.412C411.232 245.858 410.782 246.626 410.062 247.226C409.342 247.814 408.46 248.108 407.416 248.108C406.504 248.108 405.706 247.916 405.022 247.532C404.338 247.136 403.804 246.584 403.42 245.876C403.048 245.156 402.862 244.334 402.862 243.41ZM410.044 242.474C409.972 241.694 409.678 241.088 409.162 240.656C408.658 240.224 408.016 240.008 407.236 240.008C406.54 240.008 405.928 240.236 405.4 240.692C404.872 241.148 404.572 241.742 404.5 242.474H410.044ZM417.758 238.712C418.874 238.712 419.768 239.048 420.44 239.72C421.124 240.392 421.466 241.448 421.466 242.888V248H419.99V242.978C419.99 242.03 419.774 241.31 419.342 240.818C418.922 240.314 418.31 240.062 417.506 240.062C416.642 240.062 415.964 240.362 415.472 240.962C414.98 241.562 414.734 242.378 414.734 243.41V248H413.258V238.82H414.536L414.734 240.062C415.43 239.162 416.438 238.712 417.758 238.712ZM432.06 235.4V248H430.782L430.584 246.524C429.816 247.58 428.766 248.108 427.434 248.108C426.582 248.108 425.82 247.922 425.148 247.55C424.488 247.178 423.966 246.638 423.582 245.93C423.21 245.222 423.024 244.382 423.024 243.41C423.024 242.486 423.21 241.67 423.582 240.962C423.966 240.254 424.494 239.702 425.166 239.306C425.838 238.91 426.594 238.712 427.434 238.712C428.178 238.712 428.814 238.85 429.342 239.126C429.87 239.39 430.284 239.756 430.584 240.224V235.4H432.06ZM427.578 246.794C428.166 246.794 428.688 246.656 429.144 246.38C429.612 246.092 429.972 245.696 430.224 245.192C430.476 244.676 430.602 244.094 430.602 243.446C430.602 242.786 430.476 242.198 430.224 241.682C429.972 241.154 429.612 240.746 429.144 240.458C428.688 240.17 428.166 240.026 427.578 240.026C426.666 240.026 425.928 240.344 425.364 240.98C424.812 241.604 424.536 242.414 424.536 243.41C424.536 244.406 424.812 245.222 425.364 245.858C425.928 246.482 426.666 246.794 427.578 246.794ZM100.67 261.82V263.26H99.932C99.056 263.26 98.426 263.554 98.042 264.142C97.67 264.73 97.484 265.456 97.484 266.32V271H96.008V261.82H97.286L97.484 263.206C97.748 262.786 98.09 262.45 98.51 262.198C98.93 261.946 99.512 261.82 100.256 261.82H100.67ZM101.168 266.41C101.168 265.474 101.348 264.652 101.708 263.944C102.08 263.236 102.596 262.69 103.256 262.306C103.916 261.91 104.672 261.712 105.524 261.712C106.364 261.712 107.108 261.886 107.756 262.234C108.404 262.582 108.914 263.086 109.286 263.746C109.658 264.406 109.856 265.18 109.88 266.068C109.88 266.2 109.868 266.41 109.844 266.698H102.716V266.824C102.74 267.724 103.016 268.444 103.544 268.984C104.072 269.524 104.762 269.794 105.614 269.794C106.274 269.794 106.832 269.632 107.288 269.308C107.756 268.972 108.068 268.51 108.224 267.922H109.718C109.538 268.858 109.088 269.626 108.368 270.226C107.648 270.814 106.766 271.108 105.722 271.108C104.81 271.108 104.012 270.916 103.328 270.532C102.644 270.136 102.11 269.584 101.726 268.876C101.354 268.156 101.168 267.334 101.168 266.41ZM108.35 265.474C108.278 264.694 107.984 264.088 107.468 263.656C106.964 263.224 106.322 263.008 105.542 263.008C104.846 263.008 104.234 263.236 103.706 263.692C103.178 264.148 102.878 264.742 102.806 265.474H108.35ZM112.681 267.976C112.705 268.528 112.945 268.978 113.401 269.326C113.869 269.674 114.469 269.848 115.201 269.848C115.849 269.848 116.371 269.722 116.767 269.47C117.175 269.206 117.379 268.864 117.379 268.444C117.379 268.084 117.283 267.808 117.091 267.616C116.899 267.424 116.647 267.292 116.335 267.22C116.035 267.148 115.603 267.076 115.039 267.004C114.247 266.908 113.599 266.782 113.095 266.626C112.591 266.47 112.183 266.224 111.871 265.888C111.559 265.54 111.403 265.066 111.403 264.466C111.403 263.926 111.553 263.446 111.853 263.026C112.165 262.606 112.585 262.282 113.113 262.054C113.641 261.814 114.235 261.694 114.895 261.694C115.975 261.694 116.851 261.946 117.523 262.45C118.207 262.954 118.585 263.674 118.657 264.61H117.181C117.121 264.13 116.887 263.734 116.479 263.422C116.071 263.11 115.561 262.954 114.949 262.954C114.325 262.954 113.821 263.086 113.437 263.35C113.053 263.602 112.861 263.938 112.861 264.358C112.861 264.67 112.951 264.91 113.131 265.078C113.311 265.246 113.539 265.36 113.815 265.42C114.103 265.48 114.535 265.546 115.111 265.618C115.915 265.714 116.575 265.846 117.091 266.014C117.619 266.182 118.039 266.452 118.351 266.824C118.675 267.196 118.837 267.7 118.837 268.336C118.837 268.888 118.675 269.374 118.351 269.794C118.027 270.214 117.589 270.538 117.037 270.766C116.485 270.994 115.873 271.108 115.201 271.108C114.001 271.108 113.035 270.832 112.303 270.28C111.583 269.728 111.217 268.96 111.205 267.976H112.681ZM125.138 261.712C125.99 261.712 126.746 261.898 127.406 262.27C128.078 262.642 128.6 263.182 128.972 263.89C129.356 264.598 129.548 265.438 129.548 266.41C129.548 267.334 129.356 268.15 128.972 268.858C128.6 269.566 128.078 270.118 127.406 270.514C126.734 270.91 125.978 271.108 125.138 271.108C124.394 271.108 123.758 270.976 123.23 270.712C122.702 270.436 122.288 270.064 121.988 269.596V274.6H120.512V261.82H121.79L121.988 263.296C122.756 262.24 123.806 261.712 125.138 261.712ZM124.994 269.794C125.906 269.794 126.638 269.482 127.19 268.858C127.754 268.222 128.036 267.406 128.036 266.41C128.036 265.414 127.754 264.604 127.19 263.98C126.638 263.344 125.906 263.026 124.994 263.026C124.406 263.026 123.878 263.17 123.41 263.458C122.954 263.734 122.6 264.13 122.348 264.646C122.096 265.15 121.97 265.726 121.97 266.374C121.97 267.034 122.096 267.628 122.348 268.156C122.6 268.672 122.954 269.074 123.41 269.362C123.878 269.65 124.406 269.794 124.994 269.794ZM135.465 271.108C134.577 271.108 133.785 270.91 133.089 270.514C132.405 270.118 131.871 269.566 131.487 268.858C131.103 268.15 130.911 267.334 130.911 266.41C130.911 265.486 131.103 264.67 131.487 263.962C131.871 263.254 132.405 262.702 133.089 262.306C133.785 261.91 134.577 261.712 135.465 261.712C136.353 261.712 137.139 261.91 137.823 262.306C138.519 262.702 139.059 263.254 139.443 263.962C139.827 264.67 140.019 265.486 140.019 266.41C140.019 267.334 139.827 268.15 139.443 268.858C139.059 269.566 138.519 270.118 137.823 270.514C137.139 270.91 136.353 271.108 135.465 271.108ZM135.465 269.794C136.065 269.794 136.593 269.65 137.049 269.362C137.517 269.074 137.877 268.672 138.129 268.156C138.381 267.64 138.507 267.058 138.507 266.41C138.507 265.762 138.381 265.18 138.129 264.664C137.877 264.148 137.517 263.746 137.049 263.458C136.593 263.17 136.065 263.026 135.465 263.026C134.865 263.026 134.331 263.17 133.863 263.458C133.407 263.746 133.053 264.148 132.801 264.664C132.549 265.18 132.423 265.762 132.423 266.41C132.423 267.058 132.549 267.64 132.801 268.156C133.053 268.672 133.407 269.074 133.863 269.362C134.331 269.65 134.865 269.794 135.465 269.794ZM146.211 261.712C147.327 261.712 148.221 262.048 148.893 262.72C149.577 263.392 149.919 264.448 149.919 265.888V271H148.443V265.978C148.443 265.03 148.227 264.31 147.795 263.818C147.375 263.314 146.763 263.062 145.959 263.062C145.095 263.062 144.417 263.362 143.925 263.962C143.433 264.562 143.187 265.378 143.187 266.41V271H141.711V261.82H142.989L143.187 263.062C143.883 262.162 144.891 261.712 146.211 261.712ZM152.953 267.976C152.977 268.528 153.217 268.978 153.673 269.326C154.141 269.674 154.741 269.848 155.473 269.848C156.121 269.848 156.643 269.722 157.039 269.47C157.447 269.206 157.651 268.864 157.651 268.444C157.651 268.084 157.555 267.808 157.363 267.616C157.171 267.424 156.919 267.292 156.607 267.22C156.307 267.148 155.875 267.076 155.311 267.004C154.519 266.908 153.871 266.782 153.367 266.626C152.863 266.47 152.455 266.224 152.143 265.888C151.831 265.54 151.675 265.066 151.675 264.466C151.675 263.926 151.825 263.446 152.125 263.026C152.437 262.606 152.857 262.282 153.385 262.054C153.913 261.814 154.507 261.694 155.167 261.694C156.247 261.694 157.123 261.946 157.795 262.45C158.479 262.954 158.857 263.674 158.929 264.61H157.453C157.393 264.13 157.159 263.734 156.751 263.422C156.343 263.11 155.833 262.954 155.221 262.954C154.597 262.954 154.093 263.086 153.709 263.35C153.325 263.602 153.133 263.938 153.133 264.358C153.133 264.67 153.223 264.91 153.403 265.078C153.583 265.246 153.811 265.36 154.087 265.42C154.375 265.48 154.807 265.546 155.383 265.618C156.187 265.714 156.847 265.846 157.363 266.014C157.891 266.182 158.311 266.452 158.623 266.824C158.947 267.196 159.109 267.7 159.109 268.336C159.109 268.888 158.947 269.374 158.623 269.794C158.299 270.214 157.861 270.538 157.309 270.766C156.757 270.994 156.145 271.108 155.473 271.108C154.273 271.108 153.307 270.832 152.575 270.28C151.855 269.728 151.489 268.96 151.477 267.976H152.953ZM160.459 266.41C160.459 265.474 160.639 264.652 160.999 263.944C161.371 263.236 161.887 262.69 162.547 262.306C163.207 261.91 163.963 261.712 164.815 261.712C165.655 261.712 166.399 261.886 167.047 262.234C167.695 262.582 168.205 263.086 168.577 263.746C168.949 264.406 169.147 265.18 169.171 266.068C169.171 266.2 169.159 266.41 169.135 266.698H162.007V266.824C162.031 267.724 162.307 268.444 162.835 268.984C163.363 269.524 164.053 269.794 164.905 269.794C165.565 269.794 166.123 269.632 166.579 269.308C167.047 268.972 167.359 268.51 167.515 267.922H169.009C168.829 268.858 168.379 269.626 167.659 270.226C166.939 270.814 166.057 271.108 165.013 271.108C164.101 271.108 163.303 270.916 162.619 270.532C161.935 270.136 161.401 269.584 161.017 268.876C160.645 268.156 160.459 267.334 160.459 266.41ZM167.641 265.474C167.569 264.694 167.275 264.088 166.759 263.656C166.255 263.224 165.613 263.008 164.833 263.008C164.137 263.008 163.525 263.236 162.997 263.692C162.469 264.148 162.169 264.742 162.097 265.474H167.641ZM184.153 269.65V271H183.343C182.755 271 182.335 270.88 182.083 270.64C181.831 270.4 181.699 270.046 181.687 269.578C180.979 270.598 179.953 271.108 178.609 271.108C177.589 271.108 176.767 270.868 176.143 270.388C175.531 269.908 175.225 269.254 175.225 268.426C175.225 267.502 175.537 266.794 176.161 266.302C176.797 265.81 177.715 265.564 178.915 265.564H181.615V264.934C181.615 264.334 181.411 263.866 181.003 263.53C180.607 263.194 180.049 263.026 179.329 263.026C178.693 263.026 178.165 263.17 177.745 263.458C177.337 263.734 177.085 264.106 176.989 264.574H175.513C175.621 263.674 176.017 262.972 176.701 262.468C177.397 261.964 178.297 261.712 179.401 261.712C180.577 261.712 181.483 262 182.119 262.576C182.767 263.14 183.091 263.956 183.091 265.024V268.984C183.091 269.428 183.295 269.65 183.703 269.65H184.153ZM181.615 266.806H178.771C177.403 266.806 176.719 267.316 176.719 268.336C176.719 268.792 176.899 269.158 177.259 269.434C177.619 269.71 178.105 269.848 178.717 269.848C179.617 269.848 180.325 269.614 180.841 269.146C181.357 268.666 181.615 268.036 181.615 267.256V266.806ZM193.477 267.832C193.285 268.852 192.835 269.656 192.127 270.244C191.419 270.82 190.519 271.108 189.427 271.108C188.539 271.108 187.759 270.91 187.087 270.514C186.415 270.118 185.893 269.566 185.521 268.858C185.149 268.138 184.963 267.316 184.963 266.392C184.963 265.468 185.149 264.652 185.521 263.944C185.905 263.236 186.439 262.69 187.123 262.306C187.807 261.91 188.593 261.712 189.481 261.712C190.561 261.712 191.449 262 192.145 262.576C192.853 263.152 193.297 263.944 193.477 264.952H191.983C191.839 264.364 191.539 263.896 191.083 263.548C190.627 263.2 190.075 263.026 189.427 263.026C188.551 263.026 187.837 263.338 187.285 263.962C186.745 264.586 186.475 265.396 186.475 266.392C186.475 267.4 186.745 268.222 187.285 268.858C187.837 269.482 188.551 269.794 189.427 269.794C190.099 269.794 190.663 269.62 191.119 269.272C191.575 268.924 191.869 268.444 192.001 267.832H193.477ZM195.796 263.17H194.14V261.82H195.796V259.246H197.272V261.82H199.594V263.17H197.272V268.588C197.272 268.972 197.344 269.248 197.488 269.416C197.644 269.572 197.908 269.65 198.28 269.65H199.882V271H198.19C197.326 271 196.708 270.808 196.336 270.424C195.976 270.04 195.796 269.434 195.796 268.606V263.17ZM201.67 258.274C201.946 258.274 202.174 258.364 202.354 258.544C202.534 258.724 202.624 258.952 202.624 259.228C202.624 259.504 202.534 259.732 202.354 259.912C202.174 260.092 201.946 260.182 201.67 260.182C201.394 260.182 201.166 260.092 200.986 259.912C200.806 259.732 200.716 259.504 200.716 259.228C200.716 258.952 200.806 258.724 200.986 258.544C201.166 258.364 201.394 258.274 201.67 258.274ZM200.932 261.82H202.408V271H200.932V261.82ZM208.66 271.108C207.772 271.108 206.98 270.91 206.284 270.514C205.6 270.118 205.066 269.566 204.682 268.858C204.298 268.15 204.106 267.334 204.106 266.41C204.106 265.486 204.298 264.67 204.682 263.962C205.066 263.254 205.6 262.702 206.284 262.306C206.98 261.91 207.772 261.712 208.66 261.712C209.548 261.712 210.334 261.91 211.018 262.306C211.714 262.702 212.254 263.254 212.638 263.962C213.022 264.67 213.214 265.486 213.214 266.41C213.214 267.334 213.022 268.15 212.638 268.858C212.254 269.566 211.714 270.118 211.018 270.514C210.334 270.91 209.548 271.108 208.66 271.108ZM208.66 269.794C209.26 269.794 209.788 269.65 210.244 269.362C210.712 269.074 211.072 268.672 211.324 268.156C211.576 267.64 211.702 267.058 211.702 266.41C211.702 265.762 211.576 265.18 211.324 264.664C211.072 264.148 210.712 263.746 210.244 263.458C209.788 263.17 209.26 263.026 208.66 263.026C208.06 263.026 207.526 263.17 207.058 263.458C206.602 263.746 206.248 264.148 205.996 264.664C205.744 265.18 205.618 265.762 205.618 266.41C205.618 267.058 205.744 267.64 205.996 268.156C206.248 268.672 206.602 269.074 207.058 269.362C207.526 269.65 208.06 269.794 208.66 269.794ZM219.406 261.712C220.522 261.712 221.416 262.048 222.088 262.72C222.772 263.392 223.114 264.448 223.114 265.888V271H221.638V265.978C221.638 265.03 221.422 264.31 220.99 263.818C220.57 263.314 219.958 263.062 219.154 263.062C218.29 263.062 217.612 263.362 217.12 263.962C216.628 264.562 216.382 265.378 216.382 266.41V271H214.906V261.82H216.184L216.382 263.062C217.078 262.162 218.086 261.712 219.406 261.712ZM226.148 267.976C226.172 268.528 226.412 268.978 226.868 269.326C227.336 269.674 227.936 269.848 228.668 269.848C229.316 269.848 229.838 269.722 230.234 269.47C230.642 269.206 230.846 268.864 230.846 268.444C230.846 268.084 230.75 267.808 230.558 267.616C230.366 267.424 230.114 267.292 229.802 267.22C229.502 267.148 229.07 267.076 228.506 267.004C227.714 266.908 227.066 266.782 226.562 266.626C226.058 266.47 225.65 266.224 225.338 265.888C225.026 265.54 224.87 265.066 224.87 264.466C224.87 263.926 225.02 263.446 225.32 263.026C225.632 262.606 226.052 262.282 226.58 262.054C227.108 261.814 227.702 261.694 228.362 261.694C229.442 261.694 230.318 261.946 230.99 262.45C231.674 262.954 232.052 263.674 232.124 264.61H230.648C230.588 264.13 230.354 263.734 229.946 263.422C229.538 263.11 229.028 262.954 228.416 262.954C227.792 262.954 227.288 263.086 226.904 263.35C226.52 263.602 226.328 263.938 226.328 264.358C226.328 264.67 226.418 264.91 226.598 265.078C226.778 265.246 227.006 265.36 227.282 265.42C227.57 265.48 228.002 265.546 228.578 265.618C229.382 265.714 230.042 265.846 230.558 266.014C231.086 266.182 231.506 266.452 231.818 266.824C232.142 267.196 232.304 267.7 232.304 268.336C232.304 268.888 232.142 269.374 231.818 269.794C231.494 270.214 231.056 270.538 230.504 270.766C229.952 270.994 229.34 271.108 228.668 271.108C227.468 271.108 226.502 270.832 225.77 270.28C225.05 269.728 224.684 268.96 224.672 267.976H226.148ZM239.302 263.17H237.646V261.82H239.302V259.246H240.778V261.82H243.1V263.17H240.778V268.588C240.778 268.972 240.85 269.248 240.994 269.416C241.15 269.572 241.414 269.65 241.786 269.65H243.388V271H241.696C240.832 271 240.214 270.808 239.842 270.424C239.482 270.04 239.302 269.434 239.302 268.606V263.17ZM248.439 271.108C247.551 271.108 246.759 270.91 246.063 270.514C245.379 270.118 244.845 269.566 244.461 268.858C244.077 268.15 243.885 267.334 243.885 266.41C243.885 265.486 244.077 264.67 244.461 263.962C244.845 263.254 245.379 262.702 246.063 262.306C246.759 261.91 247.551 261.712 248.439 261.712C249.327 261.712 250.113 261.91 250.797 262.306C251.493 262.702 252.033 263.254 252.417 263.962C252.801 264.67 252.993 265.486 252.993 266.41C252.993 267.334 252.801 268.15 252.417 268.858C252.033 269.566 251.493 270.118 250.797 270.514C250.113 270.91 249.327 271.108 248.439 271.108ZM248.439 269.794C249.039 269.794 249.567 269.65 250.023 269.362C250.491 269.074 250.851 268.672 251.103 268.156C251.355 267.64 251.481 267.058 251.481 266.41C251.481 265.762 251.355 265.18 251.103 264.664C250.851 264.148 250.491 263.746 250.023 263.458C249.567 263.17 249.039 263.026 248.439 263.026C247.839 263.026 247.305 263.17 246.837 263.458C246.381 263.746 246.027 264.148 245.775 264.664C245.523 265.18 245.397 265.762 245.397 266.41C245.397 267.058 245.523 267.64 245.775 268.156C246.027 268.672 246.381 269.074 246.837 269.362C247.305 269.65 247.839 269.794 248.439 269.794ZM269.639 261.712C270.671 261.712 271.505 262.036 272.141 262.684C272.789 263.332 273.113 264.34 273.113 265.708V271H271.637V265.798C271.637 264.91 271.445 264.232 271.061 263.764C270.689 263.296 270.155 263.062 269.459 263.062C268.691 263.062 268.085 263.332 267.641 263.872C267.209 264.412 266.993 265.15 266.993 266.086V271H265.517V265.798C265.517 264.91 265.325 264.232 264.941 263.764C264.557 263.296 264.011 263.062 263.303 263.062C262.559 263.062 261.965 263.35 261.521 263.926C261.089 264.49 260.873 265.234 260.873 266.158V271H259.397V261.82H260.675L260.873 263.08C261.533 262.168 262.427 261.712 263.555 261.712C264.215 261.712 264.797 261.862 265.301 262.162C265.817 262.45 266.201 262.882 266.453 263.458C267.113 262.294 268.175 261.712 269.639 261.712ZM275.744 258.274C276.02 258.274 276.248 258.364 276.428 258.544C276.608 258.724 276.698 258.952 276.698 259.228C276.698 259.504 276.608 259.732 276.428 259.912C276.248 260.092 276.02 260.182 275.744 260.182C275.468 260.182 275.24 260.092 275.06 259.912C274.88 259.732 274.79 259.504 274.79 259.228C274.79 258.952 274.88 258.724 275.06 258.544C275.24 258.364 275.468 258.274 275.744 258.274ZM275.006 261.82H276.482V271H275.006V261.82ZM283.004 261.712C284.12 261.712 285.014 262.048 285.686 262.72C286.37 263.392 286.712 264.448 286.712 265.888V271H285.236V265.978C285.236 265.03 285.02 264.31 284.588 263.818C284.168 263.314 283.556 263.062 282.752 263.062C281.888 263.062 281.21 263.362 280.718 263.962C280.226 264.562 279.98 265.378 279.98 266.41V271H278.504V261.82H279.782L279.98 263.062C280.676 262.162 281.684 261.712 283.004 261.712ZM289.332 258.274C289.608 258.274 289.836 258.364 290.016 258.544C290.196 258.724 290.286 258.952 290.286 259.228C290.286 259.504 290.196 259.732 290.016 259.912C289.836 260.092 289.608 260.182 289.332 260.182C289.056 260.182 288.828 260.092 288.648 259.912C288.468 259.732 288.378 259.504 288.378 259.228C288.378 258.952 288.468 258.724 288.648 258.544C288.828 258.364 289.056 258.274 289.332 258.274ZM288.594 261.82H290.07V271H288.594V261.82ZM302.334 261.712C303.366 261.712 304.2 262.036 304.836 262.684C305.484 263.332 305.808 264.34 305.808 265.708V271H304.332V265.798C304.332 264.91 304.14 264.232 303.756 263.764C303.384 263.296 302.85 263.062 302.154 263.062C301.386 263.062 300.78 263.332 300.336 263.872C299.904 264.412 299.688 265.15 299.688 266.086V271H298.212V265.798C298.212 264.91 298.02 264.232 297.636 263.764C297.252 263.296 296.706 263.062 295.998 263.062C295.254 263.062 294.66 263.35 294.216 263.926C293.784 264.49 293.568 265.234 293.568 266.158V271H292.092V261.82H293.37L293.568 263.08C294.228 262.168 295.122 261.712 296.25 261.712C296.91 261.712 297.492 261.862 297.996 262.162C298.512 262.45 298.896 262.882 299.148 263.458C299.808 262.294 300.87 261.712 302.334 261.712ZM308.439 258.274C308.715 258.274 308.943 258.364 309.123 258.544C309.303 258.724 309.393 258.952 309.393 259.228C309.393 259.504 309.303 259.732 309.123 259.912C308.943 260.092 308.715 260.182 308.439 260.182C308.163 260.182 307.935 260.092 307.755 259.912C307.575 259.732 307.485 259.504 307.485 259.228C307.485 258.952 307.575 258.724 307.755 258.544C307.935 258.364 308.163 258.274 308.439 258.274ZM307.701 261.82H309.177V271H307.701V261.82ZM310.821 261.82H318.129V262.936L312.549 269.65H318.363V271H310.587V269.884L316.149 263.17H310.821V261.82ZM318.961 266.41C318.961 265.474 319.141 264.652 319.501 263.944C319.873 263.236 320.389 262.69 321.049 262.306C321.709 261.91 322.465 261.712 323.317 261.712C324.157 261.712 324.901 261.886 325.549 262.234C326.197 262.582 326.707 263.086 327.079 263.746C327.451 264.406 327.649 265.18 327.673 266.068C327.673 266.2 327.661 266.41 327.637 266.698H320.509V266.824C320.533 267.724 320.809 268.444 321.337 268.984C321.865 269.524 322.555 269.794 323.407 269.794C324.067 269.794 324.625 269.632 325.081 269.308C325.549 268.972 325.861 268.51 326.017 267.922H327.511C327.331 268.858 326.881 269.626 326.161 270.226C325.441 270.814 324.559 271.108 323.515 271.108C322.603 271.108 321.805 270.916 321.121 270.532C320.437 270.136 319.903 269.584 319.519 268.876C319.147 268.156 318.961 267.334 318.961 266.41ZM326.143 265.474C326.071 264.694 325.777 264.088 325.261 263.656C324.757 263.224 324.115 263.008 323.335 263.008C322.639 263.008 322.027 263.236 321.499 263.692C320.971 264.148 320.671 264.742 320.599 265.474H326.143ZM335.221 267.976C335.245 268.528 335.485 268.978 335.941 269.326C336.409 269.674 337.009 269.848 337.741 269.848C338.389 269.848 338.911 269.722 339.307 269.47C339.715 269.206 339.919 268.864 339.919 268.444C339.919 268.084 339.823 267.808 339.631 267.616C339.439 267.424 339.187 267.292 338.875 267.22C338.575 267.148 338.143 267.076 337.579 267.004C336.787 266.908 336.139 266.782 335.635 266.626C335.131 266.47 334.723 266.224 334.411 265.888C334.099 265.54 333.943 265.066 333.943 264.466C333.943 263.926 334.093 263.446 334.393 263.026C334.705 262.606 335.125 262.282 335.653 262.054C336.181 261.814 336.775 261.694 337.435 261.694C338.515 261.694 339.391 261.946 340.063 262.45C340.747 262.954 341.125 263.674 341.197 264.61H339.721C339.661 264.13 339.427 263.734 339.019 263.422C338.611 263.11 338.101 262.954 337.489 262.954C336.865 262.954 336.361 263.086 335.977 263.35C335.593 263.602 335.401 263.938 335.401 264.358C335.401 264.67 335.491 264.91 335.671 265.078C335.851 265.246 336.079 265.36 336.355 265.42C336.643 265.48 337.075 265.546 337.651 265.618C338.455 265.714 339.115 265.846 339.631 266.014C340.159 266.182 340.579 266.452 340.891 266.824C341.215 267.196 341.377 267.7 341.377 268.336C341.377 268.888 341.215 269.374 340.891 269.794C340.567 270.214 340.129 270.538 339.577 270.766C339.025 270.994 338.413 271.108 337.741 271.108C336.541 271.108 335.575 270.832 334.843 270.28C334.123 269.728 333.757 268.96 333.745 267.976H335.221ZM342.727 266.41C342.727 265.474 342.907 264.652 343.267 263.944C343.639 263.236 344.155 262.69 344.815 262.306C345.475 261.91 346.231 261.712 347.083 261.712C347.923 261.712 348.667 261.886 349.315 262.234C349.963 262.582 350.473 263.086 350.845 263.746C351.217 264.406 351.415 265.18 351.439 266.068C351.439 266.2 351.427 266.41 351.403 266.698H344.275V266.824C344.299 267.724 344.575 268.444 345.103 268.984C345.631 269.524 346.321 269.794 347.173 269.794C347.833 269.794 348.391 269.632 348.847 269.308C349.315 268.972 349.627 268.51 349.783 267.922H351.277C351.097 268.858 350.647 269.626 349.927 270.226C349.207 270.814 348.325 271.108 347.281 271.108C346.369 271.108 345.571 270.916 344.887 270.532C344.203 270.136 343.669 269.584 343.285 268.876C342.913 268.156 342.727 267.334 342.727 266.41ZM349.909 265.474C349.837 264.694 349.543 264.088 349.027 263.656C348.523 263.224 347.881 263.008 347.101 263.008C346.405 263.008 345.793 263.236 345.265 263.692C344.737 264.148 344.437 264.742 344.365 265.474H349.909ZM357.785 261.82V263.26H357.047C356.171 263.26 355.541 263.554 355.157 264.142C354.785 264.73 354.599 265.456 354.599 266.32V271H353.123V261.82H354.401L354.599 263.206C354.863 262.786 355.205 262.45 355.625 262.198C356.045 261.946 356.627 261.82 357.371 261.82H357.785ZM358.305 261.82H359.889L362.661 269.326L365.415 261.82H366.963L363.525 271H361.743L358.305 261.82ZM368.803 258.274C369.079 258.274 369.307 258.364 369.487 258.544C369.667 258.724 369.757 258.952 369.757 259.228C369.757 259.504 369.667 259.732 369.487 259.912C369.307 260.092 369.079 260.182 368.803 260.182C368.527 260.182 368.299 260.092 368.119 259.912C367.939 259.732 367.849 259.504 367.849 259.228C367.849 258.952 367.939 258.724 368.119 258.544C368.299 258.364 368.527 258.274 368.803 258.274ZM368.065 261.82H369.541V271H368.065V261.82ZM379.753 267.832C379.561 268.852 379.111 269.656 378.403 270.244C377.695 270.82 376.795 271.108 375.703 271.108C374.815 271.108 374.035 270.91 373.363 270.514C372.691 270.118 372.169 269.566 371.797 268.858C371.425 268.138 371.239 267.316 371.239 266.392C371.239 265.468 371.425 264.652 371.797 263.944C372.181 263.236 372.715 262.69 373.399 262.306C374.083 261.91 374.869 261.712 375.757 261.712C376.837 261.712 377.725 262 378.421 262.576C379.129 263.152 379.573 263.944 379.753 264.952H378.259C378.115 264.364 377.815 263.896 377.359 263.548C376.903 263.2 376.351 263.026 375.703 263.026C374.827 263.026 374.113 263.338 373.561 263.962C373.021 264.586 372.751 265.396 372.751 266.392C372.751 267.4 373.021 268.222 373.561 268.858C374.113 269.482 374.827 269.794 375.703 269.794C376.375 269.794 376.939 269.62 377.395 269.272C377.851 268.924 378.145 268.444 378.277 267.832H379.753ZM380.942 266.41C380.942 265.474 381.122 264.652 381.482 263.944C381.854 263.236 382.37 262.69 383.03 262.306C383.69 261.91 384.446 261.712 385.298 261.712C386.138 261.712 386.882 261.886 387.53 262.234C388.178 262.582 388.688 263.086 389.06 263.746C389.432 264.406 389.63 265.18 389.654 266.068C389.654 266.2 389.642 266.41 389.618 266.698H382.49V266.824C382.514 267.724 382.79 268.444 383.318 268.984C383.846 269.524 384.536 269.794 385.388 269.794C386.048 269.794 386.606 269.632 387.062 269.308C387.53 268.972 387.842 268.51 387.998 267.922H389.492C389.312 268.858 388.862 269.626 388.142 270.226C387.422 270.814 386.54 271.108 385.496 271.108C384.584 271.108 383.786 270.916 383.102 270.532C382.418 270.136 381.884 269.584 381.5 268.876C381.128 268.156 380.942 267.334 380.942 266.41ZM388.124 265.474C388.052 264.694 387.758 264.088 387.242 263.656C386.738 263.224 386.096 263.008 385.316 263.008C384.62 263.008 384.008 263.236 383.48 263.692C382.952 264.148 382.652 264.742 382.58 265.474H388.124ZM404.761 258.4V271H403.483L403.285 269.524C402.517 270.58 401.467 271.108 400.135 271.108C399.283 271.108 398.521 270.922 397.849 270.55C397.189 270.178 396.667 269.638 396.283 268.93C395.911 268.222 395.725 267.382 395.725 266.41C395.725 265.486 395.911 264.67 396.283 263.962C396.667 263.254 397.195 262.702 397.867 262.306C398.539 261.91 399.295 261.712 400.135 261.712C400.879 261.712 401.515 261.85 402.043 262.126C402.571 262.39 402.985 262.756 403.285 263.224V258.4H404.761ZM400.279 269.794C400.867 269.794 401.389 269.656 401.845 269.38C402.313 269.092 402.673 268.696 402.925 268.192C403.177 267.676 403.303 267.094 403.303 266.446C403.303 265.786 403.177 265.198 402.925 264.682C402.673 264.154 402.313 263.746 401.845 263.458C401.389 263.17 400.867 263.026 400.279 263.026C399.367 263.026 398.629 263.344 398.065 263.98C397.513 264.604 397.237 265.414 397.237 266.41C397.237 267.406 397.513 268.222 398.065 268.858C398.629 269.482 399.367 269.794 400.279 269.794ZM407.51 258.274C407.786 258.274 408.014 258.364 408.194 258.544C408.374 258.724 408.464 258.952 408.464 259.228C408.464 259.504 408.374 259.732 408.194 259.912C408.014 260.092 407.786 260.182 407.51 260.182C407.234 260.182 407.006 260.092 406.826 259.912C406.646 259.732 406.556 259.504 406.556 259.228C406.556 258.952 406.646 258.724 406.826 258.544C407.006 258.364 407.234 258.274 407.51 258.274ZM406.772 261.82H408.248V271H406.772V261.82ZM411.422 267.976C411.446 268.528 411.686 268.978 412.142 269.326C412.61 269.674 413.21 269.848 413.942 269.848C414.59 269.848 415.112 269.722 415.508 269.47C415.916 269.206 416.12 268.864 416.12 268.444C416.12 268.084 416.024 267.808 415.832 267.616C415.64 267.424 415.388 267.292 415.076 267.22C414.776 267.148 414.344 267.076 413.78 267.004C412.988 266.908 412.34 266.782 411.836 266.626C411.332 266.47 410.924 266.224 410.612 265.888C410.3 265.54 410.144 265.066 410.144 264.466C410.144 263.926 410.294 263.446 410.594 263.026C410.906 262.606 411.326 262.282 411.854 262.054C412.382 261.814 412.976 261.694 413.636 261.694C414.716 261.694 415.592 261.946 416.264 262.45C416.948 262.954 417.326 263.674 417.398 264.61H415.922C415.862 264.13 415.628 263.734 415.22 263.422C414.812 263.11 414.302 262.954 413.69 262.954C413.066 262.954 412.562 263.086 412.178 263.35C411.794 263.602 411.602 263.938 411.602 264.358C411.602 264.67 411.692 264.91 411.872 265.078C412.052 265.246 412.28 265.36 412.556 265.42C412.844 265.48 413.276 265.546 413.852 265.618C414.656 265.714 415.316 265.846 415.832 266.014C416.36 266.182 416.78 266.452 417.092 266.824C417.416 267.196 417.578 267.7 417.578 268.336C417.578 268.888 417.416 269.374 417.092 269.794C416.768 270.214 416.33 270.538 415.778 270.766C415.226 270.994 414.614 271.108 413.942 271.108C412.742 271.108 411.776 270.832 411.044 270.28C410.324 269.728 409.958 268.96 409.946 267.976H411.422ZM423.914 261.82V263.26H423.176C422.3 263.26 421.67 263.554 421.286 264.142C420.914 264.73 420.728 265.456 420.728 266.32V271H419.252V261.82H420.53L420.728 263.206C420.992 262.786 421.334 262.45 421.754 262.198C422.174 261.946 422.756 261.82 423.5 261.82H423.914ZM433.166 261.82V271H431.888L431.69 269.776C430.994 270.664 430.016 271.108 428.756 271.108C427.664 271.108 426.788 270.772 426.128 270.1C425.468 269.428 425.138 268.372 425.138 266.932V261.82H426.614V266.842C426.614 267.79 426.818 268.516 427.226 269.02C427.646 269.512 428.24 269.758 429.008 269.758C429.848 269.758 430.502 269.458 430.97 268.858C431.45 268.258 431.69 267.442 431.69 266.41V261.82H433.166ZM439.804 261.712C440.656 261.712 441.412 261.898 442.072 262.27C442.744 262.642 443.266 263.182 443.638 263.89C444.022 264.598 444.214 265.438 444.214 266.41C444.214 267.334 444.022 268.15 443.638 268.858C443.266 269.566 442.744 270.118 442.072 270.514C441.4 270.91 440.644 271.108 439.804 271.108C439.06 271.108 438.424 270.976 437.896 270.712C437.368 270.436 436.954 270.064 436.654 269.596V274.6H435.178V261.82H436.456L436.654 263.296C437.422 262.24 438.472 261.712 439.804 261.712ZM439.66 269.794C440.572 269.794 441.304 269.482 441.856 268.858C442.42 268.222 442.702 267.406 442.702 266.41C442.702 265.414 442.42 264.604 441.856 263.98C441.304 263.344 440.572 263.026 439.66 263.026C439.072 263.026 438.544 263.17 438.076 263.458C437.62 263.734 437.266 264.13 437.014 264.646C436.762 265.15 436.636 265.726 436.636 266.374C436.636 267.034 436.762 267.628 437.014 268.156C437.266 268.672 437.62 269.074 438.076 269.362C438.544 269.65 439.072 269.794 439.66 269.794ZM446.407 263.17H444.751V261.82H446.407V259.246H447.883V261.82H450.205V263.17H447.883V268.588C447.883 268.972 447.955 269.248 448.099 269.416C448.255 269.572 448.519 269.65 448.891 269.65H450.493V271H448.801C447.937 271 447.319 270.808 446.947 270.424C446.587 270.04 446.407 269.434 446.407 268.606V263.17ZM452.281 258.274C452.557 258.274 452.785 258.364 452.965 258.544C453.145 258.724 453.235 258.952 453.235 259.228C453.235 259.504 453.145 259.732 452.965 259.912C452.785 260.092 452.557 260.182 452.281 260.182C452.005 260.182 451.777 260.092 451.597 259.912C451.417 259.732 451.327 259.504 451.327 259.228C451.327 258.952 451.417 258.724 451.597 258.544C451.777 258.364 452.005 258.274 452.281 258.274ZM451.543 261.82H453.019V271H451.543V261.82ZM459.271 271.108C458.383 271.108 457.591 270.91 456.895 270.514C456.211 270.118 455.677 269.566 455.293 268.858C454.909 268.15 454.717 267.334 454.717 266.41C454.717 265.486 454.909 264.67 455.293 263.962C455.677 263.254 456.211 262.702 456.895 262.306C457.591 261.91 458.383 261.712 459.271 261.712C460.159 261.712 460.945 261.91 461.629 262.306C462.325 262.702 462.865 263.254 463.249 263.962C463.633 264.67 463.825 265.486 463.825 266.41C463.825 267.334 463.633 268.15 463.249 268.858C462.865 269.566 462.325 270.118 461.629 270.514C460.945 270.91 460.159 271.108 459.271 271.108ZM459.271 269.794C459.871 269.794 460.399 269.65 460.855 269.362C461.323 269.074 461.683 268.672 461.935 268.156C462.187 267.64 462.313 267.058 462.313 266.41C462.313 265.762 462.187 265.18 461.935 264.664C461.683 264.148 461.323 263.746 460.855 263.458C460.399 263.17 459.871 263.026 459.271 263.026C458.671 263.026 458.137 263.17 457.669 263.458C457.213 263.746 456.859 264.148 456.607 264.664C456.355 265.18 456.229 265.762 456.229 266.41C456.229 267.058 456.355 267.64 456.607 268.156C456.859 268.672 457.213 269.074 457.669 269.362C458.137 269.65 458.671 269.794 459.271 269.794ZM470.018 261.712C471.134 261.712 472.028 262.048 472.7 262.72C473.384 263.392 473.726 264.448 473.726 265.888V271H472.25V265.978C472.25 265.03 472.034 264.31 471.602 263.818C471.182 263.314 470.57 263.062 469.766 263.062C468.902 263.062 468.224 263.362 467.732 263.962C467.24 264.562 466.994 265.378 466.994 266.41V271H465.518V261.82H466.796L466.994 263.062C467.69 262.162 468.698 261.712 470.018 261.712ZM475.428 270.1C475.428 269.8 475.524 269.56 475.716 269.38C475.908 269.188 476.154 269.092 476.454 269.092C476.754 269.092 477 269.188 477.192 269.38C477.384 269.56 477.48 269.8 477.48 270.1C477.48 270.4 477.384 270.646 477.192 270.838C477 271.018 476.754 271.108 476.454 271.108C476.154 271.108 475.908 271.018 475.716 270.838C475.524 270.646 475.428 270.4 475.428 270.1Z" fill="black"/>
<path d="M469.333 456.431C469.333 457.904 470.527 459.098 472 459.098C473.473 459.098 474.667 457.904 474.667 456.431C474.667 454.958 473.473 453.764 472 453.764C470.527 453.764 469.333 454.958 469.333 456.431ZM247 317L246.55 317.218C246.833 317.803 247.123 318.394 247.42 318.991L247.868 318.769L248.315 318.546C248.02 317.952 247.732 317.364 247.45 316.782L247 317ZM249.713 322.39L249.27 322.621C249.877 323.782 250.506 324.962 251.16 326.159L251.599 325.92L252.038 325.68C251.387 324.489 250.76 323.314 250.156 322.158L249.713 322.39ZM253.558 329.438L253.123 329.685C253.783 330.846 254.464 332.022 255.165 333.211L255.596 332.956L256.026 332.702C255.328 331.519 254.65 330.348 253.993 329.191L253.558 329.438ZM257.651 336.38L257.225 336.64C257.92 337.778 258.633 338.927 259.364 340.084L259.787 339.817L260.209 339.55C259.481 338.397 258.77 337.253 258.078 336.119L257.651 336.38ZM261.959 343.202L261.54 343.475C262.267 344.59 263.01 345.712 263.768 346.84L264.183 346.561L264.598 346.282C263.842 345.158 263.102 344.04 262.378 342.929L261.959 343.202ZM266.461 349.899L266.05 350.184C266.806 351.276 267.577 352.374 268.363 353.476L268.77 353.186L269.177 352.895C268.394 351.797 267.626 350.703 266.872 349.614L266.461 349.899ZM271.143 356.467L270.739 356.762C271.525 357.834 272.325 358.909 273.137 359.986L273.536 359.685L273.936 359.384C273.126 358.31 272.329 357.239 271.546 356.171L271.143 356.467ZM275.997 362.903L275.602 363.21C276.417 364.261 277.244 365.313 278.083 366.368L278.475 366.056L278.866 365.744C278.029 364.694 277.204 363.644 276.392 362.597L275.997 362.903ZM281.019 369.206L280.632 369.523C281.475 370.554 282.33 371.585 283.197 372.616L283.58 372.294L283.963 371.972C283.099 370.944 282.246 369.917 281.405 368.89L281.019 369.206ZM286.204 375.373L285.826 375.7C286.698 376.709 287.582 377.718 288.476 378.726L288.85 378.394L289.224 378.062C288.332 377.057 287.452 376.052 286.583 375.046L286.204 375.373ZM291.552 381.397L291.183 381.734C292.084 382.722 292.995 383.708 293.917 384.692L294.282 384.35L294.647 384.008C293.728 383.028 292.82 382.045 291.922 381.061L291.552 381.397ZM297.062 387.275L296.702 387.622C297.631 388.587 298.571 389.549 299.52 390.508L299.876 390.156L300.231 389.804C299.284 388.848 298.348 387.89 297.422 386.928L297.062 387.275ZM302.732 392.999L302.381 393.356C303.339 394.296 304.307 395.233 305.284 396.165L305.629 395.804L305.975 395.442C305.001 394.513 304.036 393.579 303.082 392.642L302.732 392.999ZM308.562 398.561L308.222 398.928C309.208 399.842 310.203 400.751 311.209 401.656L311.543 401.284L311.878 400.913C310.876 400.011 309.884 399.105 308.902 398.195L308.562 398.561ZM314.552 403.952L314.223 404.329C315.237 405.215 316.26 406.096 317.293 406.97L317.616 406.589L317.939 406.208C316.91 405.336 315.891 404.459 314.881 403.576L314.552 403.952ZM320.701 409.163L320.383 409.549C321.423 410.403 322.471 411.251 323.528 412.092L323.84 411.701L324.151 411.309C323.098 410.471 322.053 409.627 321.018 408.777L320.701 409.163ZM327.008 414.182L326.703 414.578C327.768 415.398 328.841 416.211 329.923 417.017L330.222 416.616L330.521 416.215C329.443 415.412 328.374 414.602 327.314 413.786L327.008 414.182ZM333.474 418.997L333.182 419.403C334.271 420.187 335.369 420.964 336.476 421.733L336.761 421.322L337.047 420.912C335.945 420.146 334.851 419.372 333.766 418.591L333.474 418.997ZM340.095 423.597L339.817 424.012C340.931 424.759 342.054 425.498 343.185 426.227L343.456 425.807L343.727 425.387C342.601 424.66 341.483 423.925 340.373 423.182L340.095 423.597ZM346.867 427.966L346.603 428.391C347.743 429.099 348.892 429.797 350.048 430.487L350.304 430.057L350.56 429.628C349.409 428.942 348.266 428.246 347.13 427.541L346.867 427.966ZM353.785 432.091L353.537 432.525C354.704 433.192 355.878 433.85 357.061 434.497L357.301 434.059L357.541 433.62C356.364 432.976 355.195 432.321 354.034 431.657L353.785 432.091ZM360.851 435.96L360.62 436.403C361.812 437.028 363.012 437.642 364.22 438.245L364.444 437.798L364.667 437.35C363.465 436.75 362.27 436.139 361.083 435.518L360.851 435.96ZM368.06 439.56L367.845 440.012C369.061 440.59 370.285 441.157 371.516 441.713L371.722 441.257L371.927 440.802C370.702 440.249 369.485 439.684 368.275 439.109L368.06 439.56ZM375.405 442.877L375.208 443.336C376.445 443.865 377.688 444.382 378.94 444.888L379.127 444.424L379.314 443.961C378.069 443.458 376.832 442.943 375.601 442.417L375.405 442.877ZM382.879 445.895L382.702 446.363C383.957 446.84 385.219 447.305 386.488 447.758L386.656 447.287L386.824 446.816C385.561 446.366 384.306 445.903 383.057 445.428L382.879 445.895ZM390.475 448.604L390.318 449.078C391.589 449.501 392.867 449.912 394.153 450.31L394.301 449.832L394.448 449.355C393.17 448.959 391.898 448.55 390.633 448.129L390.475 448.604ZM398.167 450.984L398.03 451.465C399.321 451.834 400.618 452.19 401.923 452.533L402.05 452.049L402.177 451.566C400.88 451.225 399.589 450.871 398.305 450.503L398.167 450.984ZM405.955 453.03L405.839 453.516C407.149 453.83 408.465 454.13 409.789 454.416L409.894 453.928L410 453.439C408.684 453.154 407.375 452.856 406.072 452.544L405.955 453.03ZM413.829 454.733L413.734 455.224C415.055 455.479 416.383 455.72 417.718 455.947L417.801 455.454L417.885 454.962C416.558 454.736 415.238 454.496 413.923 454.242L413.829 454.733ZM421.775 456.085L421.702 456.579C423.03 456.775 424.363 456.956 425.703 457.123L425.764 456.626L425.826 456.13C424.494 455.965 423.168 455.784 421.848 455.59L421.775 456.085ZM429.783 457.08L429.733 457.578C431.062 457.713 432.397 457.833 433.738 457.939L433.777 457.441L433.817 456.942C432.483 456.837 431.156 456.717 429.834 456.583L429.783 457.08ZM437.807 457.714L437.779 458.213C439.117 458.288 440.462 458.349 441.812 458.395L441.829 457.895L441.846 457.396C440.503 457.35 439.166 457.29 437.835 457.214L437.807 457.714ZM445.848 457.987L445.842 458.487C447.192 458.503 448.546 458.504 449.907 458.49L449.901 457.99L449.896 457.49C448.543 457.504 447.196 457.503 445.854 457.487L445.848 457.987ZM453.905 457.904L453.921 458.404C455.262 458.36 456.609 458.302 457.961 458.228L457.933 457.729L457.906 457.23C456.562 457.303 455.223 457.361 453.889 457.404L453.905 457.904ZM461.969 457.466L462.007 457.964C463.335 457.863 464.669 457.747 466.008 457.616L465.959 457.119L465.911 456.621C464.579 456.751 463.252 456.866 461.931 456.967L461.969 457.466ZM469.979 456.683L470.038 457.179C470.712 457.099 471.388 457.015 472.064 456.927L472 456.431L471.936 455.935C471.262 456.023 470.591 456.106 469.92 456.186L469.979 456.683Z" fill="white"/>
<rect x="52" y="234" width="31" height="31" rx="4" fill="#5A7E83"/>
<path d="M74.2222 258V256.111C74.2222 255.109 73.8242 254.148 73.1157 253.44C72.4073 252.731 71.4464 252.333 70.4444 252.333H64.7778C63.7758 252.333 62.815 252.731 62.1065 253.44C61.398 254.148 61 255.109 61 256.111V258" stroke="white" stroke-width="1.5" stroke-linecap="round" stroke-linejoin="round"/>
<path d="M67.6118 248.556C69.6982 248.556 71.3895 246.864 71.3895 244.778C71.3895 242.691 69.6982 241 67.6118 241C65.5254 241 63.834 242.691 63.834 244.778C63.834 246.864 65.5254 248.556 67.6118 248.556Z" stroke="white" stroke-width="1.5" stroke-linecap="round" stroke-linejoin="round"/>
</g>
</g>
<defs>
<clipPath id="clip0_6_4538">
<rect width="706" height="540" fill="white"/>
</clipPath>
</defs>
</svg>
