<svg width="706" height="540" viewBox="0 0 706 540" fill="none" xmlns="http://www.w3.org/2000/svg">
<rect opacity="0.5" x="490" y="445" width="175" height="40" rx="5" fill="white"/>
<path d="M546.455 467.812H546.347C546.275 467.988 546.187 468.156 546.083 468.316C545.979 468.476 545.851 468.62 545.699 468.748C545.547 468.868 545.367 468.964 545.159 469.036C544.959 469.108 544.731 469.144 544.475 469.144C544.067 469.144 543.703 469.048 543.383 468.856C543.071 468.664 542.807 468.384 542.591 468.016C542.375 467.648 542.211 467.2 542.099 466.672C541.995 466.144 541.943 465.548 541.943 464.884C541.943 463.46 542.203 462.372 542.723 461.62C543.243 460.86 544.047 460.48 545.135 460.48C545.567 460.48 545.947 460.54 546.275 460.66C546.603 460.772 546.883 460.936 547.115 461.152C547.355 461.36 547.551 461.612 547.703 461.908C547.855 462.204 547.975 462.532 548.063 462.892L546.383 463.3C546.335 463.124 546.279 462.956 546.215 462.796C546.159 462.628 546.083 462.48 545.987 462.352C545.891 462.224 545.771 462.124 545.627 462.052C545.483 461.972 545.307 461.932 545.099 461.932C544.643 461.932 544.319 462.12 544.127 462.496C543.943 462.872 543.851 463.4 543.851 464.08V465.448C543.851 466.128 543.951 466.672 544.151 467.08C544.359 467.488 544.723 467.692 545.243 467.692C545.651 467.692 545.955 467.572 546.155 467.332C546.355 467.092 546.455 466.784 546.455 466.408V465.796H545.027V464.524H548.063V469H546.455V467.812ZM549.679 469V460.624H555.031V462.1H551.479V464.02H554.911V465.496H551.479V467.524H555.031V469H549.679ZM558.314 463.432H558.182V469H556.646V460.624H558.806L560.714 466.192H560.846V460.624H562.382V469H560.222L558.314 463.432ZM564.069 469V460.624H569.421V462.1H565.869V464.02H569.301V465.496H565.869V467.524H569.421V469H564.069ZM572.993 469H571.217V460.624H574.457C574.865 460.624 575.229 460.688 575.549 460.816C575.869 460.936 576.137 461.112 576.353 461.344C576.577 461.576 576.745 461.856 576.857 462.184C576.969 462.512 577.025 462.88 577.025 463.288C577.025 463.88 576.897 464.388 576.641 464.812C576.385 465.236 576.021 465.516 575.549 465.652L577.193 469H575.225L573.821 465.892H572.993V469ZM574.025 464.5C574.449 464.5 574.741 464.42 574.901 464.26C575.069 464.1 575.153 463.836 575.153 463.468V463.108C575.153 462.74 575.069 462.476 574.901 462.316C574.741 462.156 574.449 462.076 574.025 462.076H572.993V464.5H574.025ZM582.72 469L582.192 466.984H579.9L579.384 469H577.56L579.828 460.624H582.372L584.64 469H582.72ZM581.1 462.364H581.004L580.188 465.532H581.916L581.1 462.364ZM589.195 462.1V469H587.395V462.1H584.983V460.624H591.607V462.1H589.195ZM592.791 469V467.668H594.591V461.956H592.791V460.624H598.191V461.956H596.391V467.668H598.191V469H592.791ZM601.486 463.432H601.354V469H599.818V460.624H601.978L603.886 466.192H604.018V460.624H605.554V469H603.394L601.486 463.432ZM611.213 467.812H611.105C611.033 467.988 610.945 468.156 610.841 468.316C610.737 468.476 610.609 468.62 610.457 468.748C610.305 468.868 610.125 468.964 609.917 469.036C609.717 469.108 609.489 469.144 609.233 469.144C608.825 469.144 608.461 469.048 608.141 468.856C607.829 468.664 607.565 468.384 607.349 468.016C607.133 467.648 606.969 467.2 606.857 466.672C606.753 466.144 606.701 465.548 606.701 464.884C606.701 463.46 606.961 462.372 607.481 461.62C608.001 460.86 608.805 460.48 609.893 460.48C610.325 460.48 610.705 460.54 611.033 460.66C611.361 460.772 611.641 460.936 611.873 461.152C612.113 461.36 612.309 461.612 612.461 461.908C612.613 462.204 612.733 462.532 612.821 462.892L611.141 463.3C611.093 463.124 611.037 462.956 610.973 462.796C610.917 462.628 610.841 462.48 610.745 462.352C610.649 462.224 610.529 462.124 610.385 462.052C610.241 461.972 610.065 461.932 609.857 461.932C609.401 461.932 609.077 462.12 608.885 462.496C608.701 462.872 608.609 463.4 608.609 464.08V465.448C608.609 466.128 608.709 466.672 608.909 467.08C609.117 467.488 609.481 467.692 610.001 467.692C610.409 467.692 610.713 467.572 610.913 467.332C611.113 467.092 611.213 466.784 611.213 466.408V465.796H609.785V464.524H612.821V469H611.213V467.812Z" fill="white"/>
<rect opacity="0.8" x="432" y="125" width="399" height="89" rx="9" transform="rotate(-180 432 125)" fill="white"/>
<path d="M96.224 61.4H97.79V74H96.224V61.4ZM108.728 61.4V74H107.45L107.252 72.524C106.484 73.58 105.434 74.108 104.102 74.108C103.25 74.108 102.488 73.922 101.816 73.55C101.156 73.178 100.634 72.638 100.25 71.93C99.8778 71.222 99.6918 70.382 99.6918 69.41C99.6918 68.486 99.8778 67.67 100.25 66.962C100.634 66.254 101.162 65.702 101.834 65.306C102.506 64.91 103.262 64.712 104.102 64.712C104.846 64.712 105.482 64.85 106.01 65.126C106.538 65.39 106.952 65.756 107.252 66.224V61.4H108.728ZM104.246 72.794C104.834 72.794 105.356 72.656 105.812 72.38C106.28 72.092 106.64 71.696 106.892 71.192C107.144 70.676 107.27 70.094 107.27 69.446C107.27 68.786 107.144 68.198 106.892 67.682C106.64 67.154 106.28 66.746 105.812 66.458C105.356 66.17 104.834 66.026 104.246 66.026C103.334 66.026 102.596 66.344 102.032 66.98C101.48 67.604 101.204 68.414 101.204 69.41C101.204 70.406 101.48 71.222 102.032 71.858C102.596 72.482 103.334 72.794 104.246 72.794ZM110.414 69.41C110.414 68.474 110.594 67.652 110.954 66.944C111.326 66.236 111.842 65.69 112.502 65.306C113.162 64.91 113.918 64.712 114.77 64.712C115.61 64.712 116.354 64.886 117.002 65.234C117.65 65.582 118.16 66.086 118.532 66.746C118.904 67.406 119.102 68.18 119.126 69.068C119.126 69.2 119.114 69.41 119.09 69.698H111.962V69.824C111.986 70.724 112.262 71.444 112.79 71.984C113.318 72.524 114.008 72.794 114.86 72.794C115.52 72.794 116.078 72.632 116.534 72.308C117.002 71.972 117.314 71.51 117.47 70.922H118.964C118.784 71.858 118.334 72.626 117.614 73.226C116.894 73.814 116.012 74.108 114.968 74.108C114.056 74.108 113.258 73.916 112.574 73.532C111.89 73.136 111.356 72.584 110.972 71.876C110.6 71.156 110.414 70.334 110.414 69.41ZM117.596 68.474C117.524 67.694 117.23 67.088 116.714 66.656C116.21 66.224 115.568 66.008 114.788 66.008C114.092 66.008 113.48 66.236 112.952 66.692C112.424 67.148 112.124 67.742 112.052 68.474H117.596ZM125.311 64.712C126.427 64.712 127.321 65.048 127.993 65.72C128.677 66.392 129.019 67.448 129.019 68.888V74H127.543V68.978C127.543 68.03 127.327 67.31 126.895 66.818C126.475 66.314 125.863 66.062 125.059 66.062C124.195 66.062 123.517 66.362 123.025 66.962C122.533 67.562 122.287 68.378 122.287 69.41V74H120.811V64.82H122.089L122.287 66.062C122.983 65.162 123.991 64.712 125.311 64.712ZM131.513 66.17H129.857V64.82H131.513V62.246H132.989V64.82H135.311V66.17H132.989V71.588C132.989 71.972 133.061 72.248 133.205 72.416C133.361 72.572 133.625 72.65 133.997 72.65H135.599V74H133.907C133.043 74 132.425 73.808 132.053 73.424C131.693 73.04 131.513 72.434 131.513 71.606V66.17ZM137.387 61.274C137.663 61.274 137.891 61.364 138.071 61.544C138.251 61.724 138.341 61.952 138.341 62.228C138.341 62.504 138.251 62.732 138.071 62.912C137.891 63.092 137.663 63.182 137.387 63.182C137.111 63.182 136.883 63.092 136.703 62.912C136.523 62.732 136.433 62.504 136.433 62.228C136.433 61.952 136.523 61.724 136.703 61.544C136.883 61.364 137.111 61.274 137.387 61.274ZM136.649 64.82H138.125V74H136.649V64.82ZM140.759 64.82V63.794C140.759 62.978 140.945 62.378 141.317 61.994C141.701 61.598 142.313 61.4 143.153 61.4H144.845V62.75H143.243C142.883 62.75 142.625 62.828 142.469 62.984C142.313 63.14 142.235 63.398 142.235 63.758V64.82H144.827V66.17H142.235V74H140.759V66.17H139.103V64.82H140.759ZM146.595 64.82L149.421 72.308L152.157 64.82H153.723L149.493 75.548C149.277 76.1 149.085 76.514 148.917 76.79C148.749 77.066 148.539 77.27 148.287 77.402C148.035 77.534 147.699 77.6 147.279 77.6H145.515V76.25H146.829C147.117 76.25 147.333 76.22 147.477 76.16C147.621 76.1 147.735 75.998 147.819 75.854C147.915 75.722 148.029 75.494 148.161 75.17L148.629 74.072L145.029 64.82H146.595ZM167.725 70.832C167.533 71.852 167.083 72.656 166.375 73.244C165.667 73.82 164.767 74.108 163.675 74.108C162.787 74.108 162.007 73.91 161.335 73.514C160.663 73.118 160.141 72.566 159.769 71.858C159.397 71.138 159.211 70.316 159.211 69.392C159.211 68.468 159.397 67.652 159.769 66.944C160.153 66.236 160.687 65.69 161.371 65.306C162.055 64.91 162.841 64.712 163.729 64.712C164.809 64.712 165.697 65 166.393 65.576C167.101 66.152 167.545 66.944 167.725 67.952H166.231C166.087 67.364 165.787 66.896 165.331 66.548C164.875 66.2 164.323 66.026 163.675 66.026C162.799 66.026 162.085 66.338 161.533 66.962C160.993 67.586 160.723 68.396 160.723 69.392C160.723 70.4 160.993 71.222 161.533 71.858C162.085 72.482 162.799 72.794 163.675 72.794C164.347 72.794 164.911 72.62 165.367 72.272C165.823 71.924 166.117 71.444 166.249 70.832H167.725ZM177.334 64.82V74H176.056L175.858 72.776C175.162 73.664 174.184 74.108 172.924 74.108C171.832 74.108 170.956 73.772 170.296 73.1C169.636 72.428 169.306 71.372 169.306 69.932V64.82H170.782V69.842C170.782 70.79 170.986 71.516 171.394 72.02C171.814 72.512 172.408 72.758 173.176 72.758C174.016 72.758 174.67 72.458 175.138 71.858C175.618 71.258 175.858 70.442 175.858 69.41V64.82H177.334ZM180.498 70.976C180.522 71.528 180.762 71.978 181.218 72.326C181.686 72.674 182.286 72.848 183.018 72.848C183.666 72.848 184.188 72.722 184.584 72.47C184.992 72.206 185.196 71.864 185.196 71.444C185.196 71.084 185.1 70.808 184.908 70.616C184.716 70.424 184.464 70.292 184.152 70.22C183.852 70.148 183.42 70.076 182.856 70.004C182.064 69.908 181.416 69.782 180.912 69.626C180.408 69.47 180 69.224 179.688 68.888C179.376 68.54 179.22 68.066 179.22 67.466C179.22 66.926 179.37 66.446 179.67 66.026C179.982 65.606 180.402 65.282 180.93 65.054C181.458 64.814 182.052 64.694 182.712 64.694C183.792 64.694 184.668 64.946 185.34 65.45C186.024 65.954 186.402 66.674 186.474 67.61H184.998C184.938 67.13 184.704 66.734 184.296 66.422C183.888 66.11 183.378 65.954 182.766 65.954C182.142 65.954 181.638 66.086 181.254 66.35C180.87 66.602 180.678 66.938 180.678 67.358C180.678 67.67 180.768 67.91 180.948 68.078C181.128 68.246 181.356 68.36 181.632 68.42C181.92 68.48 182.352 68.546 182.928 68.618C183.732 68.714 184.392 68.846 184.908 69.014C185.436 69.182 185.856 69.452 186.168 69.824C186.492 70.196 186.654 70.7 186.654 71.336C186.654 71.888 186.492 72.374 186.168 72.794C185.844 73.214 185.406 73.538 184.854 73.766C184.302 73.994 183.69 74.108 183.018 74.108C181.818 74.108 180.852 73.832 180.12 73.28C179.4 72.728 179.034 71.96 179.022 70.976H180.498ZM188.94 66.17H187.284V64.82H188.94V62.246H190.416V64.82H192.738V66.17H190.416V71.588C190.416 71.972 190.488 72.248 190.632 72.416C190.788 72.572 191.052 72.65 191.424 72.65H193.026V74H191.334C190.47 74 189.852 73.808 189.48 73.424C189.12 73.04 188.94 72.434 188.94 71.606V66.17ZM198.078 74.108C197.19 74.108 196.398 73.91 195.702 73.514C195.018 73.118 194.484 72.566 194.1 71.858C193.716 71.15 193.524 70.334 193.524 69.41C193.524 68.486 193.716 67.67 194.1 66.962C194.484 66.254 195.018 65.702 195.702 65.306C196.398 64.91 197.19 64.712 198.078 64.712C198.966 64.712 199.752 64.91 200.436 65.306C201.132 65.702 201.672 66.254 202.056 66.962C202.44 67.67 202.632 68.486 202.632 69.41C202.632 70.334 202.44 71.15 202.056 71.858C201.672 72.566 201.132 73.118 200.436 73.514C199.752 73.91 198.966 74.108 198.078 74.108ZM198.078 72.794C198.678 72.794 199.206 72.65 199.662 72.362C200.13 72.074 200.49 71.672 200.742 71.156C200.994 70.64 201.12 70.058 201.12 69.41C201.12 68.762 200.994 68.18 200.742 67.664C200.49 67.148 200.13 66.746 199.662 66.458C199.206 66.17 198.678 66.026 198.078 66.026C197.478 66.026 196.944 66.17 196.476 66.458C196.02 66.746 195.666 67.148 195.414 67.664C195.162 68.18 195.036 68.762 195.036 69.41C195.036 70.058 195.162 70.64 195.414 71.156C195.666 71.672 196.02 72.074 196.476 72.362C196.944 72.65 197.478 72.794 198.078 72.794ZM214.566 64.712C215.598 64.712 216.432 65.036 217.068 65.684C217.716 66.332 218.04 67.34 218.04 68.708V74H216.564V68.798C216.564 67.91 216.372 67.232 215.988 66.764C215.616 66.296 215.082 66.062 214.386 66.062C213.618 66.062 213.012 66.332 212.568 66.872C212.136 67.412 211.92 68.15 211.92 69.086V74H210.444V68.798C210.444 67.91 210.252 67.232 209.868 66.764C209.484 66.296 208.938 66.062 208.23 66.062C207.486 66.062 206.892 66.35 206.448 66.926C206.016 67.49 205.8 68.234 205.8 69.158V74H204.324V64.82H205.602L205.8 66.08C206.46 65.168 207.354 64.712 208.482 64.712C209.142 64.712 209.724 64.862 210.228 65.162C210.744 65.45 211.128 65.882 211.38 66.458C212.04 65.294 213.102 64.712 214.566 64.712ZM219.61 69.41C219.61 68.474 219.79 67.652 220.15 66.944C220.522 66.236 221.038 65.69 221.698 65.306C222.358 64.91 223.114 64.712 223.966 64.712C224.806 64.712 225.55 64.886 226.198 65.234C226.846 65.582 227.356 66.086 227.728 66.746C228.1 67.406 228.298 68.18 228.322 69.068C228.322 69.2 228.31 69.41 228.286 69.698H221.158V69.824C221.182 70.724 221.458 71.444 221.986 71.984C222.514 72.524 223.204 72.794 224.056 72.794C224.716 72.794 225.274 72.632 225.73 72.308C226.198 71.972 226.51 71.51 226.666 70.922H228.16C227.98 71.858 227.53 72.626 226.81 73.226C226.09 73.814 225.208 74.108 224.164 74.108C223.252 74.108 222.454 73.916 221.77 73.532C221.086 73.136 220.552 72.584 220.168 71.876C219.796 71.156 219.61 70.334 219.61 69.41ZM226.792 68.474C226.72 67.694 226.426 67.088 225.91 66.656C225.406 66.224 224.764 66.008 223.984 66.008C223.288 66.008 222.676 66.236 222.148 66.692C221.62 67.148 221.32 67.742 221.248 68.474H226.792ZM234.668 64.82V66.26H233.93C233.054 66.26 232.424 66.554 232.04 67.142C231.668 67.73 231.482 68.456 231.482 69.32V74H230.006V64.82H231.284L231.482 66.206C231.746 65.786 232.088 65.45 232.508 65.198C232.928 64.946 233.51 64.82 234.254 64.82H234.668ZM236.836 70.976C236.86 71.528 237.1 71.978 237.556 72.326C238.024 72.674 238.624 72.848 239.356 72.848C240.004 72.848 240.526 72.722 240.922 72.47C241.33 72.206 241.534 71.864 241.534 71.444C241.534 71.084 241.438 70.808 241.246 70.616C241.054 70.424 240.802 70.292 240.49 70.22C240.19 70.148 239.758 70.076 239.194 70.004C238.402 69.908 237.754 69.782 237.25 69.626C236.746 69.47 236.338 69.224 236.026 68.888C235.714 68.54 235.558 68.066 235.558 67.466C235.558 66.926 235.708 66.446 236.008 66.026C236.32 65.606 236.74 65.282 237.268 65.054C237.796 64.814 238.39 64.694 239.05 64.694C240.13 64.694 241.006 64.946 241.678 65.45C242.362 65.954 242.74 66.674 242.812 67.61H241.336C241.276 67.13 241.042 66.734 240.634 66.422C240.226 66.11 239.716 65.954 239.104 65.954C238.48 65.954 237.976 66.086 237.592 66.35C237.208 66.602 237.016 66.938 237.016 67.358C237.016 67.67 237.106 67.91 237.286 68.078C237.466 68.246 237.694 68.36 237.97 68.42C238.258 68.48 238.69 68.546 239.266 68.618C240.07 68.714 240.73 68.846 241.246 69.014C241.774 69.182 242.194 69.452 242.506 69.824C242.83 70.196 242.992 70.7 242.992 71.336C242.992 71.888 242.83 72.374 242.506 72.794C242.182 73.214 241.744 73.538 241.192 73.766C240.64 73.994 240.028 74.108 239.356 74.108C238.156 74.108 237.19 73.832 236.458 73.28C235.738 72.728 235.372 71.96 235.36 70.976H236.836ZM257.963 72.65V74H257.153C256.565 74 256.145 73.88 255.893 73.64C255.641 73.4 255.509 73.046 255.497 72.578C254.789 73.598 253.763 74.108 252.419 74.108C251.399 74.108 250.577 73.868 249.953 73.388C249.341 72.908 249.035 72.254 249.035 71.426C249.035 70.502 249.347 69.794 249.971 69.302C250.607 68.81 251.525 68.564 252.725 68.564H255.425V67.934C255.425 67.334 255.221 66.866 254.813 66.53C254.417 66.194 253.859 66.026 253.139 66.026C252.503 66.026 251.975 66.17 251.555 66.458C251.147 66.734 250.895 67.106 250.799 67.574H249.323C249.431 66.674 249.827 65.972 250.511 65.468C251.207 64.964 252.107 64.712 253.211 64.712C254.387 64.712 255.293 65 255.929 65.576C256.577 66.14 256.901 66.956 256.901 68.024V71.984C256.901 72.428 257.105 72.65 257.513 72.65H257.963ZM255.425 69.806H252.581C251.213 69.806 250.529 70.316 250.529 71.336C250.529 71.792 250.709 72.158 251.069 72.434C251.429 72.71 251.915 72.848 252.527 72.848C253.427 72.848 254.135 72.614 254.651 72.146C255.167 71.666 255.425 71.036 255.425 70.256V69.806ZM259.71 66.17H258.054V64.82H259.71V62.246H261.186V64.82H263.508V66.17H261.186V71.588C261.186 71.972 261.258 72.248 261.402 72.416C261.558 72.572 261.822 72.65 262.194 72.65H263.796V74H262.104C261.24 74 260.622 73.808 260.25 73.424C259.89 73.04 259.71 72.434 259.71 71.606V66.17ZM274.219 64.82V66.26H273.481C272.605 66.26 271.975 66.554 271.591 67.142C271.219 67.73 271.033 68.456 271.033 69.32V74H269.557V64.82H270.835L271.033 66.206C271.297 65.786 271.639 65.45 272.059 65.198C272.479 64.946 273.061 64.82 273.805 64.82H274.219ZM276.307 61.274C276.583 61.274 276.811 61.364 276.991 61.544C277.171 61.724 277.261 61.952 277.261 62.228C277.261 62.504 277.171 62.732 276.991 62.912C276.811 63.092 276.583 63.182 276.307 63.182C276.031 63.182 275.803 63.092 275.623 62.912C275.443 62.732 275.353 62.504 275.353 62.228C275.353 61.952 275.443 61.724 275.623 61.544C275.803 61.364 276.031 61.274 276.307 61.274ZM275.569 64.82H277.045V74H275.569V64.82ZM280.219 70.976C280.243 71.528 280.483 71.978 280.939 72.326C281.407 72.674 282.007 72.848 282.739 72.848C283.387 72.848 283.909 72.722 284.305 72.47C284.713 72.206 284.917 71.864 284.917 71.444C284.917 71.084 284.821 70.808 284.629 70.616C284.437 70.424 284.185 70.292 283.873 70.22C283.573 70.148 283.141 70.076 282.577 70.004C281.785 69.908 281.137 69.782 280.633 69.626C280.129 69.47 279.721 69.224 279.409 68.888C279.097 68.54 278.941 68.066 278.941 67.466C278.941 66.926 279.091 66.446 279.391 66.026C279.703 65.606 280.123 65.282 280.651 65.054C281.179 64.814 281.773 64.694 282.433 64.694C283.513 64.694 284.389 64.946 285.061 65.45C285.745 65.954 286.123 66.674 286.195 67.61H284.719C284.659 67.13 284.425 66.734 284.017 66.422C283.609 66.11 283.099 65.954 282.487 65.954C281.863 65.954 281.359 66.086 280.975 66.35C280.591 66.602 280.399 66.938 280.399 67.358C280.399 67.67 280.489 67.91 280.669 68.078C280.849 68.246 281.077 68.36 281.353 68.42C281.641 68.48 282.073 68.546 282.649 68.618C283.453 68.714 284.113 68.846 284.629 69.014C285.157 69.182 285.577 69.452 285.889 69.824C286.213 70.196 286.375 70.7 286.375 71.336C286.375 71.888 286.213 72.374 285.889 72.794C285.565 73.214 285.127 73.538 284.575 73.766C284.023 73.994 283.411 74.108 282.739 74.108C281.539 74.108 280.573 73.832 279.841 73.28C279.121 72.728 278.755 71.96 278.743 70.976H280.219ZM288.049 61.4H289.525V69.752L294.187 64.82H295.951L292.423 68.582L296.203 74H294.421L291.361 69.644L289.525 71.57V74H288.049V61.4ZM306.289 74.108C305.401 74.108 304.609 73.91 303.913 73.514C303.229 73.118 302.695 72.566 302.311 71.858C301.927 71.15 301.735 70.334 301.735 69.41C301.735 68.486 301.927 67.67 302.311 66.962C302.695 66.254 303.229 65.702 303.913 65.306C304.609 64.91 305.401 64.712 306.289 64.712C307.177 64.712 307.963 64.91 308.647 65.306C309.343 65.702 309.883 66.254 310.267 66.962C310.651 67.67 310.843 68.486 310.843 69.41C310.843 70.334 310.651 71.15 310.267 71.858C309.883 72.566 309.343 73.118 308.647 73.514C307.963 73.91 307.177 74.108 306.289 74.108ZM306.289 72.794C306.889 72.794 307.417 72.65 307.873 72.362C308.341 72.074 308.701 71.672 308.953 71.156C309.205 70.64 309.331 70.058 309.331 69.41C309.331 68.762 309.205 68.18 308.953 67.664C308.701 67.148 308.341 66.746 307.873 66.458C307.417 66.17 306.889 66.026 306.289 66.026C305.689 66.026 305.155 66.17 304.687 66.458C304.231 66.746 303.877 67.148 303.625 67.664C303.373 68.18 303.247 68.762 303.247 69.41C303.247 70.058 303.373 70.64 303.625 71.156C303.877 71.672 304.231 72.074 304.687 72.362C305.155 72.65 305.689 72.794 306.289 72.794ZM313.042 64.82V63.794C313.042 62.978 313.228 62.378 313.6 61.994C313.984 61.598 314.596 61.4 315.436 61.4H317.128V62.75H315.526C315.166 62.75 314.908 62.828 314.752 62.984C314.596 63.14 314.518 63.398 314.518 63.758V64.82H317.11V66.17H314.518V74H313.042V66.17H311.386V64.82H313.042ZM331.009 70.832C330.817 71.852 330.367 72.656 329.659 73.244C328.951 73.82 328.051 74.108 326.959 74.108C326.071 74.108 325.291 73.91 324.619 73.514C323.947 73.118 323.425 72.566 323.053 71.858C322.681 71.138 322.495 70.316 322.495 69.392C322.495 68.468 322.681 67.652 323.053 66.944C323.437 66.236 323.971 65.69 324.655 65.306C325.339 64.91 326.125 64.712 327.013 64.712C328.093 64.712 328.981 65 329.677 65.576C330.385 66.152 330.829 66.944 331.009 67.952H329.515C329.371 67.364 329.071 66.896 328.615 66.548C328.159 66.2 327.607 66.026 326.959 66.026C326.083 66.026 325.369 66.338 324.817 66.962C324.277 67.586 324.007 68.396 324.007 69.392C324.007 70.4 324.277 71.222 324.817 71.858C325.369 72.482 326.083 72.794 326.959 72.794C327.631 72.794 328.195 72.62 328.651 72.272C329.107 71.924 329.401 71.444 329.533 70.832H331.009ZM337.215 64.712C338.331 64.712 339.231 65.048 339.915 65.72C340.599 66.392 340.941 67.448 340.941 68.888V74H339.465V68.978C339.465 68.03 339.249 67.31 338.817 66.818C338.385 66.314 337.767 66.062 336.963 66.062C336.111 66.062 335.433 66.362 334.929 66.962C334.437 67.562 334.191 68.378 334.191 69.41V74H332.715V61.4H334.191V66.332C334.491 65.852 334.887 65.462 335.379 65.162C335.883 64.862 336.495 64.712 337.215 64.712ZM350.724 64.82V74H349.446L349.248 72.776C348.552 73.664 347.574 74.108 346.314 74.108C345.222 74.108 344.346 73.772 343.686 73.1C343.026 72.428 342.696 71.372 342.696 69.932V64.82H344.172V69.842C344.172 70.79 344.376 71.516 344.784 72.02C345.204 72.512 345.798 72.758 346.566 72.758C347.406 72.758 348.06 72.458 348.528 71.858C349.008 71.258 349.248 70.442 349.248 69.41V64.82H350.724ZM357.399 64.82V66.26H356.661C355.785 66.26 355.155 66.554 354.771 67.142C354.399 67.73 354.213 68.456 354.213 69.32V74H352.737V64.82H354.015L354.213 66.206C354.477 65.786 354.819 65.45 355.239 65.198C355.659 64.946 356.241 64.82 356.985 64.82H357.399ZM363.248 64.712C364.364 64.712 365.258 65.048 365.93 65.72C366.614 66.392 366.956 67.448 366.956 68.888V74H365.48V68.978C365.48 68.03 365.264 67.31 364.832 66.818C364.412 66.314 363.8 66.062 362.996 66.062C362.132 66.062 361.454 66.362 360.962 66.962C360.47 67.562 360.224 68.378 360.224 69.41V74H358.748V64.82H360.026L360.224 66.062C360.92 65.162 361.928 64.712 363.248 64.712ZM382.135 72.65V74H381.325C380.737 74 380.317 73.88 380.065 73.64C379.813 73.4 379.681 73.046 379.669 72.578C378.961 73.598 377.935 74.108 376.591 74.108C375.571 74.108 374.749 73.868 374.125 73.388C373.513 72.908 373.207 72.254 373.207 71.426C373.207 70.502 373.519 69.794 374.143 69.302C374.779 68.81 375.697 68.564 376.897 68.564H379.597V67.934C379.597 67.334 379.393 66.866 378.985 66.53C378.589 66.194 378.031 66.026 377.311 66.026C376.675 66.026 376.147 66.17 375.727 66.458C375.319 66.734 375.067 67.106 374.971 67.574H373.495C373.603 66.674 373.999 65.972 374.683 65.468C375.379 64.964 376.279 64.712 377.383 64.712C378.559 64.712 379.465 65 380.101 65.576C380.749 66.14 381.073 66.956 381.073 68.024V71.984C381.073 72.428 381.277 72.65 381.685 72.65H382.135ZM379.597 69.806H376.753C375.385 69.806 374.701 70.316 374.701 71.336C374.701 71.792 374.881 72.158 375.241 72.434C375.601 72.71 376.087 72.848 376.699 72.848C377.599 72.848 378.307 72.614 378.823 72.146C379.339 71.666 379.597 71.036 379.597 70.256V69.806ZM387.77 64.712C388.886 64.712 389.78 65.048 390.452 65.72C391.136 66.392 391.478 67.448 391.478 68.888V74H390.002V68.978C390.002 68.03 389.786 67.31 389.354 66.818C388.934 66.314 388.322 66.062 387.518 66.062C386.654 66.062 385.976 66.362 385.484 66.962C384.992 67.562 384.746 68.378 384.746 69.41V74H383.27V64.82H384.548L384.746 66.062C385.442 65.162 386.45 64.712 387.77 64.712ZM402.072 61.4V74H400.794L400.596 72.524C399.828 73.58 398.778 74.108 397.446 74.108C396.594 74.108 395.832 73.922 395.16 73.55C394.5 73.178 393.978 72.638 393.594 71.93C393.222 71.222 393.036 70.382 393.036 69.41C393.036 68.486 393.222 67.67 393.594 66.962C393.978 66.254 394.506 65.702 395.178 65.306C395.85 64.91 396.606 64.712 397.446 64.712C398.19 64.712 398.826 64.85 399.354 65.126C399.882 65.39 400.296 65.756 400.596 66.224V61.4H402.072ZM397.59 72.794C398.178 72.794 398.7 72.656 399.156 72.38C399.624 72.092 399.984 71.696 400.236 71.192C400.488 70.676 400.614 70.094 400.614 69.446C400.614 68.786 400.488 68.198 400.236 67.682C399.984 67.154 399.624 66.746 399.156 66.458C398.7 66.17 398.178 66.026 397.59 66.026C396.678 66.026 395.94 66.344 395.376 66.98C394.824 67.604 394.548 68.414 394.548 69.41C394.548 70.406 394.824 71.222 395.376 71.858C395.94 72.482 396.678 72.794 397.59 72.794ZM97.16 93.976C97.184 94.528 97.424 94.978 97.88 95.326C98.348 95.674 98.948 95.848 99.68 95.848C100.328 95.848 100.85 95.722 101.246 95.47C101.654 95.206 101.858 94.864 101.858 94.444C101.858 94.084 101.762 93.808 101.57 93.616C101.378 93.424 101.126 93.292 100.814 93.22C100.514 93.148 100.082 93.076 99.518 93.004C98.726 92.908 98.078 92.782 97.574 92.626C97.07 92.47 96.662 92.224 96.35 91.888C96.038 91.54 95.882 91.066 95.882 90.466C95.882 89.926 96.032 89.446 96.332 89.026C96.644 88.606 97.064 88.282 97.592 88.054C98.12 87.814 98.714 87.694 99.374 87.694C100.454 87.694 101.33 87.946 102.002 88.45C102.686 88.954 103.064 89.674 103.136 90.61H101.66C101.6 90.13 101.366 89.734 100.958 89.422C100.55 89.11 100.04 88.954 99.428 88.954C98.804 88.954 98.3 89.086 97.916 89.35C97.532 89.602 97.34 89.938 97.34 90.358C97.34 90.67 97.43 90.91 97.61 91.078C97.79 91.246 98.018 91.36 98.294 91.42C98.582 91.48 99.014 91.546 99.59 91.618C100.394 91.714 101.054 91.846 101.57 92.014C102.098 92.182 102.518 92.452 102.83 92.824C103.154 93.196 103.316 93.7 103.316 94.336C103.316 94.888 103.154 95.374 102.83 95.794C102.506 96.214 102.068 96.538 101.516 96.766C100.964 96.994 100.352 97.108 99.68 97.108C98.48 97.108 97.514 96.832 96.782 96.28C96.062 95.728 95.696 94.96 95.684 93.976H97.16ZM112.892 87.82V97H111.614L111.416 95.776C110.72 96.664 109.742 97.108 108.482 97.108C107.39 97.108 106.514 96.772 105.854 96.1C105.194 95.428 104.864 94.372 104.864 92.932V87.82H106.34V92.842C106.34 93.79 106.544 94.516 106.952 95.02C107.372 95.512 107.966 95.758 108.734 95.758C109.574 95.758 110.228 95.458 110.696 94.858C111.176 94.258 111.416 93.442 111.416 92.41V87.82H112.892ZM123.616 87.82V96.55C123.616 99.322 122.098 100.708 119.062 100.708C117.874 100.708 116.902 100.438 116.146 99.898C115.402 99.358 114.97 98.59 114.85 97.594H116.362C116.482 98.17 116.788 98.614 117.28 98.926C117.772 99.238 118.402 99.394 119.17 99.394C121.15 99.394 122.14 98.428 122.14 96.496V95.416C121.48 96.544 120.43 97.108 118.99 97.108C118.138 97.108 117.376 96.922 116.704 96.55C116.044 96.178 115.522 95.638 115.138 94.93C114.766 94.222 114.58 93.382 114.58 92.41C114.58 91.486 114.766 90.67 115.138 89.962C115.522 89.254 116.05 88.702 116.722 88.306C117.394 87.91 118.15 87.712 118.99 87.712C119.734 87.712 120.37 87.862 120.898 88.162C121.426 88.45 121.84 88.864 122.14 89.404L122.338 87.82H123.616ZM119.134 95.794C119.722 95.794 120.244 95.656 120.7 95.38C121.168 95.092 121.528 94.696 121.78 94.192C122.032 93.676 122.158 93.094 122.158 92.446C122.158 91.786 122.032 91.198 121.78 90.682C121.528 90.154 121.168 89.746 120.7 89.458C120.244 89.17 119.722 89.026 119.134 89.026C118.222 89.026 117.484 89.344 116.92 89.98C116.368 90.604 116.092 91.414 116.092 92.41C116.092 93.406 116.368 94.222 116.92 94.858C117.484 95.482 118.222 95.794 119.134 95.794ZM134.339 87.82V96.55C134.339 99.322 132.821 100.708 129.785 100.708C128.597 100.708 127.625 100.438 126.869 99.898C126.125 99.358 125.693 98.59 125.573 97.594H127.085C127.205 98.17 127.511 98.614 128.003 98.926C128.495 99.238 129.125 99.394 129.893 99.394C131.873 99.394 132.863 98.428 132.863 96.496V95.416C132.203 96.544 131.153 97.108 129.713 97.108C128.861 97.108 128.099 96.922 127.427 96.55C126.767 96.178 126.245 95.638 125.861 94.93C125.489 94.222 125.303 93.382 125.303 92.41C125.303 91.486 125.489 90.67 125.861 89.962C126.245 89.254 126.773 88.702 127.445 88.306C128.117 87.91 128.873 87.712 129.713 87.712C130.457 87.712 131.093 87.862 131.621 88.162C132.149 88.45 132.563 88.864 132.863 89.404L133.061 87.82H134.339ZM129.857 95.794C130.445 95.794 130.967 95.656 131.423 95.38C131.891 95.092 132.251 94.696 132.503 94.192C132.755 93.676 132.881 93.094 132.881 92.446C132.881 91.786 132.755 91.198 132.503 90.682C132.251 90.154 131.891 89.746 131.423 89.458C130.967 89.17 130.445 89.026 129.857 89.026C128.945 89.026 128.207 89.344 127.643 89.98C127.091 90.604 126.815 91.414 126.815 92.41C126.815 93.406 127.091 94.222 127.643 94.858C128.207 95.482 128.945 95.794 129.857 95.794ZM136.026 92.41C136.026 91.474 136.206 90.652 136.566 89.944C136.938 89.236 137.454 88.69 138.114 88.306C138.774 87.91 139.53 87.712 140.382 87.712C141.222 87.712 141.966 87.886 142.614 88.234C143.262 88.582 143.772 89.086 144.144 89.746C144.516 90.406 144.714 91.18 144.738 92.068C144.738 92.2 144.726 92.41 144.702 92.698H137.574V92.824C137.598 93.724 137.874 94.444 138.402 94.984C138.93 95.524 139.62 95.794 140.472 95.794C141.132 95.794 141.69 95.632 142.146 95.308C142.614 94.972 142.926 94.51 143.082 93.922H144.576C144.396 94.858 143.946 95.626 143.226 96.226C142.506 96.814 141.624 97.108 140.58 97.108C139.668 97.108 138.87 96.916 138.186 96.532C137.502 96.136 136.968 95.584 136.584 94.876C136.212 94.156 136.026 93.334 136.026 92.41ZM143.208 91.474C143.136 90.694 142.842 90.088 142.326 89.656C141.822 89.224 141.18 89.008 140.4 89.008C139.704 89.008 139.092 89.236 138.564 89.692C138.036 90.148 137.736 90.742 137.664 91.474H143.208ZM147.539 93.976C147.563 94.528 147.803 94.978 148.259 95.326C148.727 95.674 149.327 95.848 150.059 95.848C150.707 95.848 151.229 95.722 151.625 95.47C152.033 95.206 152.237 94.864 152.237 94.444C152.237 94.084 152.141 93.808 151.949 93.616C151.757 93.424 151.505 93.292 151.193 93.22C150.893 93.148 150.461 93.076 149.897 93.004C149.105 92.908 148.457 92.782 147.953 92.626C147.449 92.47 147.041 92.224 146.729 91.888C146.417 91.54 146.261 91.066 146.261 90.466C146.261 89.926 146.411 89.446 146.711 89.026C147.023 88.606 147.443 88.282 147.971 88.054C148.499 87.814 149.093 87.694 149.753 87.694C150.833 87.694 151.709 87.946 152.381 88.45C153.065 88.954 153.443 89.674 153.515 90.61H152.039C151.979 90.13 151.745 89.734 151.337 89.422C150.929 89.11 150.419 88.954 149.807 88.954C149.183 88.954 148.679 89.086 148.295 89.35C147.911 89.602 147.719 89.938 147.719 90.358C147.719 90.67 147.809 90.91 147.989 91.078C148.169 91.246 148.397 91.36 148.673 91.42C148.961 91.48 149.393 91.546 149.969 91.618C150.773 91.714 151.433 91.846 151.949 92.014C152.477 92.182 152.897 92.452 153.209 92.824C153.533 93.196 153.695 93.7 153.695 94.336C153.695 94.888 153.533 95.374 153.209 95.794C152.885 96.214 152.447 96.538 151.895 96.766C151.343 96.994 150.731 97.108 150.059 97.108C148.859 97.108 147.893 96.832 147.161 96.28C146.441 95.728 146.075 94.96 146.063 93.976H147.539ZM155.981 89.17H154.325V87.82H155.981V85.246H157.457V87.82H159.779V89.17H157.457V94.588C157.457 94.972 157.529 95.248 157.673 95.416C157.829 95.572 158.093 95.65 158.465 95.65H160.067V97H158.375C157.511 97 156.893 96.808 156.521 96.424C156.161 96.04 155.981 95.434 155.981 94.606V89.17ZM166.44 89.17H164.784V87.82H166.44V85.246H167.916V87.82H170.238V89.17H167.916V94.588C167.916 94.972 167.988 95.248 168.132 95.416C168.288 95.572 168.552 95.65 168.924 95.65H170.526V97H168.834C167.97 97 167.352 96.808 166.98 96.424C166.62 96.04 166.44 95.434 166.44 94.606V89.17ZM180.022 95.65V97H179.212C178.624 97 178.204 96.88 177.952 96.64C177.7 96.4 177.568 96.046 177.556 95.578C176.848 96.598 175.822 97.108 174.478 97.108C173.458 97.108 172.636 96.868 172.012 96.388C171.4 95.908 171.094 95.254 171.094 94.426C171.094 93.502 171.406 92.794 172.03 92.302C172.666 91.81 173.584 91.564 174.784 91.564H177.484V90.934C177.484 90.334 177.28 89.866 176.872 89.53C176.476 89.194 175.918 89.026 175.198 89.026C174.562 89.026 174.034 89.17 173.614 89.458C173.206 89.734 172.954 90.106 172.858 90.574H171.382C171.49 89.674 171.886 88.972 172.57 88.468C173.266 87.964 174.166 87.712 175.27 87.712C176.446 87.712 177.352 88 177.988 88.576C178.636 89.14 178.96 89.956 178.96 91.024V94.984C178.96 95.428 179.164 95.65 179.572 95.65H180.022ZM177.484 92.806H174.64C173.272 92.806 172.588 93.316 172.588 94.336C172.588 94.792 172.768 95.158 173.128 95.434C173.488 95.71 173.974 95.848 174.586 95.848C175.486 95.848 176.194 95.614 176.71 95.146C177.226 94.666 177.484 94.036 177.484 93.256V92.806ZM185.818 87.82V89.26H185.08C184.204 89.26 183.574 89.554 183.19 90.142C182.818 90.73 182.632 91.456 182.632 92.32V97H181.156V87.82H182.434L182.632 89.206C182.896 88.786 183.238 88.45 183.658 88.198C184.078 87.946 184.66 87.82 185.404 87.82H185.818ZM195.353 87.82V96.55C195.353 99.322 193.835 100.708 190.799 100.708C189.611 100.708 188.639 100.438 187.883 99.898C187.139 99.358 186.707 98.59 186.587 97.594H188.099C188.219 98.17 188.525 98.614 189.017 98.926C189.509 99.238 190.139 99.394 190.907 99.394C192.887 99.394 193.877 98.428 193.877 96.496V95.416C193.217 96.544 192.167 97.108 190.727 97.108C189.875 97.108 189.113 96.922 188.441 96.55C187.781 96.178 187.259 95.638 186.875 94.93C186.503 94.222 186.317 93.382 186.317 92.41C186.317 91.486 186.503 90.67 186.875 89.962C187.259 89.254 187.787 88.702 188.459 88.306C189.131 87.91 189.887 87.712 190.727 87.712C191.471 87.712 192.107 87.862 192.635 88.162C193.163 88.45 193.577 88.864 193.877 89.404L194.075 87.82H195.353ZM190.871 95.794C191.459 95.794 191.981 95.656 192.437 95.38C192.905 95.092 193.265 94.696 193.517 94.192C193.769 93.676 193.895 93.094 193.895 92.446C193.895 91.786 193.769 91.198 193.517 90.682C193.265 90.154 192.905 89.746 192.437 89.458C191.981 89.17 191.459 89.026 190.871 89.026C189.959 89.026 189.221 89.344 188.657 89.98C188.105 90.604 187.829 91.414 187.829 92.41C187.829 93.406 188.105 94.222 188.657 94.858C189.221 95.482 189.959 95.794 190.871 95.794ZM197.039 92.41C197.039 91.474 197.219 90.652 197.579 89.944C197.951 89.236 198.467 88.69 199.127 88.306C199.787 87.91 200.543 87.712 201.395 87.712C202.235 87.712 202.979 87.886 203.627 88.234C204.275 88.582 204.785 89.086 205.157 89.746C205.529 90.406 205.727 91.18 205.751 92.068C205.751 92.2 205.739 92.41 205.715 92.698H198.587V92.824C198.611 93.724 198.887 94.444 199.415 94.984C199.943 95.524 200.633 95.794 201.485 95.794C202.145 95.794 202.703 95.632 203.159 95.308C203.627 94.972 203.939 94.51 204.095 93.922H205.589C205.409 94.858 204.959 95.626 204.239 96.226C203.519 96.814 202.637 97.108 201.593 97.108C200.681 97.108 199.883 96.916 199.199 96.532C198.515 96.136 197.981 95.584 197.597 94.876C197.225 94.156 197.039 93.334 197.039 92.41ZM204.221 91.474C204.149 90.694 203.855 90.088 203.339 89.656C202.835 89.224 202.193 89.008 201.413 89.008C200.717 89.008 200.105 89.236 199.577 89.692C199.049 90.148 198.749 90.742 198.677 91.474H204.221ZM207.942 89.17H206.286V87.82H207.942V85.246H209.418V87.82H211.74V89.17H209.418V94.588C209.418 94.972 209.49 95.248 209.634 95.416C209.79 95.572 210.054 95.65 210.426 95.65H212.028V97H210.336C209.472 97 208.854 96.808 208.482 96.424C208.122 96.04 207.942 95.434 207.942 94.606V89.17ZM212.526 92.41C212.526 91.474 212.706 90.652 213.066 89.944C213.438 89.236 213.954 88.69 214.614 88.306C215.274 87.91 216.03 87.712 216.882 87.712C217.722 87.712 218.466 87.886 219.114 88.234C219.762 88.582 220.272 89.086 220.644 89.746C221.016 90.406 221.214 91.18 221.238 92.068C221.238 92.2 221.226 92.41 221.202 92.698H214.074V92.824C214.098 93.724 214.374 94.444 214.902 94.984C215.43 95.524 216.12 95.794 216.972 95.794C217.632 95.794 218.19 95.632 218.646 95.308C219.114 94.972 219.426 94.51 219.582 93.922H221.076C220.896 94.858 220.446 95.626 219.726 96.226C219.006 96.814 218.124 97.108 217.08 97.108C216.168 97.108 215.37 96.916 214.686 96.532C214.002 96.136 213.468 95.584 213.084 94.876C212.712 94.156 212.526 93.334 212.526 92.41ZM219.708 91.474C219.636 90.694 219.342 90.088 218.826 89.656C218.322 89.224 217.68 89.008 216.9 89.008C216.204 89.008 215.592 89.236 215.064 89.692C214.536 90.148 214.236 90.742 214.164 91.474H219.708ZM231.634 84.4V97H230.356L230.158 95.524C229.39 96.58 228.34 97.108 227.008 97.108C226.156 97.108 225.394 96.922 224.722 96.55C224.062 96.178 223.54 95.638 223.156 94.93C222.784 94.222 222.598 93.382 222.598 92.41C222.598 91.486 222.784 90.67 223.156 89.962C223.54 89.254 224.068 88.702 224.74 88.306C225.412 87.91 226.168 87.712 227.008 87.712C227.752 87.712 228.388 87.85 228.916 88.126C229.444 88.39 229.858 88.756 230.158 89.224V84.4H231.634ZM227.152 95.794C227.74 95.794 228.262 95.656 228.718 95.38C229.186 95.092 229.546 94.696 229.798 94.192C230.05 93.676 230.176 93.094 230.176 92.446C230.176 91.786 230.05 91.198 229.798 90.682C229.546 90.154 229.186 89.746 228.718 89.458C228.262 89.17 227.74 89.026 227.152 89.026C226.24 89.026 225.502 89.344 224.938 89.98C224.386 90.604 224.11 91.414 224.11 92.41C224.11 93.406 224.386 94.222 224.938 94.858C225.502 95.482 226.24 95.794 227.152 95.794ZM246.942 95.65V97H246.132C245.544 97 245.124 96.88 244.872 96.64C244.62 96.4 244.488 96.046 244.476 95.578C243.768 96.598 242.742 97.108 241.398 97.108C240.378 97.108 239.556 96.868 238.932 96.388C238.32 95.908 238.014 95.254 238.014 94.426C238.014 93.502 238.326 92.794 238.95 92.302C239.586 91.81 240.504 91.564 241.704 91.564H244.404V90.934C244.404 90.334 244.2 89.866 243.792 89.53C243.396 89.194 242.838 89.026 242.118 89.026C241.482 89.026 240.954 89.17 240.534 89.458C240.126 89.734 239.874 90.106 239.778 90.574H238.302C238.41 89.674 238.806 88.972 239.49 88.468C240.186 87.964 241.086 87.712 242.19 87.712C243.366 87.712 244.272 88 244.908 88.576C245.556 89.14 245.88 89.956 245.88 91.024V94.984C245.88 95.428 246.084 95.65 246.492 95.65H246.942ZM244.404 92.806H241.56C240.192 92.806 239.508 93.316 239.508 94.336C239.508 94.792 239.688 95.158 240.048 95.434C240.408 95.71 240.894 95.848 241.506 95.848C242.406 95.848 243.114 95.614 243.63 95.146C244.146 94.666 244.404 94.036 244.404 93.256V92.806ZM256.266 93.832C256.074 94.852 255.624 95.656 254.916 96.244C254.208 96.82 253.308 97.108 252.216 97.108C251.328 97.108 250.548 96.91 249.876 96.514C249.204 96.118 248.682 95.566 248.31 94.858C247.938 94.138 247.752 93.316 247.752 92.392C247.752 91.468 247.938 90.652 248.31 89.944C248.694 89.236 249.228 88.69 249.912 88.306C250.596 87.91 251.382 87.712 252.27 87.712C253.35 87.712 254.238 88 254.934 88.576C255.642 89.152 256.086 89.944 256.266 90.952H254.772C254.628 90.364 254.328 89.896 253.872 89.548C253.416 89.2 252.864 89.026 252.216 89.026C251.34 89.026 250.626 89.338 250.074 89.962C249.534 90.586 249.264 91.396 249.264 92.392C249.264 93.4 249.534 94.222 250.074 94.858C250.626 95.482 251.34 95.794 252.216 95.794C252.888 95.794 253.452 95.62 253.908 95.272C254.364 94.924 254.658 94.444 254.79 93.832H256.266ZM258.585 89.17H256.929V87.82H258.585V85.246H260.061V87.82H262.383V89.17H260.061V94.588C260.061 94.972 260.133 95.248 260.277 95.416C260.433 95.572 260.697 95.65 261.069 95.65H262.671V97H260.979C260.115 97 259.497 96.808 259.125 96.424C258.765 96.04 258.585 95.434 258.585 94.606V89.17ZM264.459 84.274C264.735 84.274 264.963 84.364 265.143 84.544C265.323 84.724 265.413 84.952 265.413 85.228C265.413 85.504 265.323 85.732 265.143 85.912C264.963 86.092 264.735 86.182 264.459 86.182C264.183 86.182 263.955 86.092 263.775 85.912C263.595 85.732 263.505 85.504 263.505 85.228C263.505 84.952 263.595 84.724 263.775 84.544C263.955 84.364 264.183 84.274 264.459 84.274ZM263.721 87.82H265.197V97H263.721V87.82ZM271.449 97.108C270.561 97.108 269.769 96.91 269.073 96.514C268.389 96.118 267.855 95.566 267.471 94.858C267.087 94.15 266.895 93.334 266.895 92.41C266.895 91.486 267.087 90.67 267.471 89.962C267.855 89.254 268.389 88.702 269.073 88.306C269.769 87.91 270.561 87.712 271.449 87.712C272.337 87.712 273.123 87.91 273.807 88.306C274.503 88.702 275.043 89.254 275.427 89.962C275.811 90.67 276.003 91.486 276.003 92.41C276.003 93.334 275.811 94.15 275.427 94.858C275.043 95.566 274.503 96.118 273.807 96.514C273.123 96.91 272.337 97.108 271.449 97.108ZM271.449 95.794C272.049 95.794 272.577 95.65 273.033 95.362C273.501 95.074 273.861 94.672 274.113 94.156C274.365 93.64 274.491 93.058 274.491 92.41C274.491 91.762 274.365 91.18 274.113 90.664C273.861 90.148 273.501 89.746 273.033 89.458C272.577 89.17 272.049 89.026 271.449 89.026C270.849 89.026 270.315 89.17 269.847 89.458C269.391 89.746 269.037 90.148 268.785 90.664C268.533 91.18 268.407 91.762 268.407 92.41C268.407 93.058 268.533 93.64 268.785 94.156C269.037 94.672 269.391 95.074 269.847 95.362C270.315 95.65 270.849 95.794 271.449 95.794ZM282.196 87.712C283.312 87.712 284.206 88.048 284.878 88.72C285.562 89.392 285.904 90.448 285.904 91.888V97H284.428V91.978C284.428 91.03 284.212 90.31 283.78 89.818C283.36 89.314 282.748 89.062 281.944 89.062C281.08 89.062 280.402 89.362 279.91 89.962C279.418 90.562 279.172 91.378 279.172 92.41V97H277.696V87.82H278.974L279.172 89.062C279.868 88.162 280.876 87.712 282.196 87.712ZM288.937 93.976C288.961 94.528 289.201 94.978 289.657 95.326C290.125 95.674 290.725 95.848 291.457 95.848C292.105 95.848 292.627 95.722 293.023 95.47C293.431 95.206 293.635 94.864 293.635 94.444C293.635 94.084 293.539 93.808 293.347 93.616C293.155 93.424 292.903 93.292 292.591 93.22C292.291 93.148 291.859 93.076 291.295 93.004C290.503 92.908 289.855 92.782 289.351 92.626C288.847 92.47 288.439 92.224 288.127 91.888C287.815 91.54 287.659 91.066 287.659 90.466C287.659 89.926 287.809 89.446 288.109 89.026C288.421 88.606 288.841 88.282 289.369 88.054C289.897 87.814 290.491 87.694 291.151 87.694C292.231 87.694 293.107 87.946 293.779 88.45C294.463 88.954 294.841 89.674 294.913 90.61H293.437C293.377 90.13 293.143 89.734 292.735 89.422C292.327 89.11 291.817 88.954 291.205 88.954C290.581 88.954 290.077 89.086 289.693 89.35C289.309 89.602 289.117 89.938 289.117 90.358C289.117 90.67 289.207 90.91 289.387 91.078C289.567 91.246 289.795 91.36 290.071 91.42C290.359 91.48 290.791 91.546 291.367 91.618C292.171 91.714 292.831 91.846 293.347 92.014C293.875 92.182 294.295 92.452 294.607 92.824C294.931 93.196 295.093 93.7 295.093 94.336C295.093 94.888 294.931 95.374 294.607 95.794C294.283 96.214 293.845 96.538 293.293 96.766C292.741 96.994 292.129 97.108 291.457 97.108C290.257 97.108 289.291 96.832 288.559 96.28C287.839 95.728 287.473 94.96 287.461 93.976H288.937ZM302.091 89.17H300.435V87.82H302.091V85.246H303.567V87.82H305.889V89.17H303.567V94.588C303.567 94.972 303.639 95.248 303.783 95.416C303.939 95.572 304.203 95.65 304.575 95.65H306.177V97H304.485C303.621 97 303.003 96.808 302.631 96.424C302.271 96.04 302.091 95.434 302.091 94.606V89.17ZM311.228 97.108C310.34 97.108 309.548 96.91 308.852 96.514C308.168 96.118 307.634 95.566 307.25 94.858C306.866 94.15 306.674 93.334 306.674 92.41C306.674 91.486 306.866 90.67 307.25 89.962C307.634 89.254 308.168 88.702 308.852 88.306C309.548 87.91 310.34 87.712 311.228 87.712C312.116 87.712 312.902 87.91 313.586 88.306C314.282 88.702 314.822 89.254 315.206 89.962C315.59 90.67 315.782 91.486 315.782 92.41C315.782 93.334 315.59 94.15 315.206 94.858C314.822 95.566 314.282 96.118 313.586 96.514C312.902 96.91 312.116 97.108 311.228 97.108ZM311.228 95.794C311.828 95.794 312.356 95.65 312.812 95.362C313.28 95.074 313.64 94.672 313.892 94.156C314.144 93.64 314.27 93.058 314.27 92.41C314.27 91.762 314.144 91.18 313.892 90.664C313.64 90.148 313.28 89.746 312.812 89.458C312.356 89.17 311.828 89.026 311.228 89.026C310.628 89.026 310.094 89.17 309.626 89.458C309.17 89.746 308.816 90.148 308.564 90.664C308.312 91.18 308.186 91.762 308.186 92.41C308.186 93.058 308.312 93.64 308.564 94.156C308.816 94.672 309.17 95.074 309.626 95.362C310.094 95.65 310.628 95.794 311.228 95.794ZM326.848 87.82V89.26H326.11C325.234 89.26 324.604 89.554 324.22 90.142C323.848 90.73 323.662 91.456 323.662 92.32V97H322.186V87.82H323.464L323.662 89.206C323.926 88.786 324.268 88.45 324.688 88.198C325.108 87.946 325.69 87.82 326.434 87.82H326.848ZM327.346 92.41C327.346 91.474 327.526 90.652 327.886 89.944C328.258 89.236 328.774 88.69 329.434 88.306C330.094 87.91 330.85 87.712 331.702 87.712C332.542 87.712 333.286 87.886 333.934 88.234C334.582 88.582 335.092 89.086 335.464 89.746C335.836 90.406 336.034 91.18 336.058 92.068C336.058 92.2 336.046 92.41 336.022 92.698H328.894V92.824C328.918 93.724 329.194 94.444 329.722 94.984C330.25 95.524 330.94 95.794 331.792 95.794C332.452 95.794 333.01 95.632 333.466 95.308C333.934 94.972 334.246 94.51 334.402 93.922H335.896C335.716 94.858 335.266 95.626 334.546 96.226C333.826 96.814 332.944 97.108 331.9 97.108C330.988 97.108 330.19 96.916 329.506 96.532C328.822 96.136 328.288 95.584 327.904 94.876C327.532 94.156 327.346 93.334 327.346 92.41ZM334.528 91.474C334.456 90.694 334.162 90.088 333.646 89.656C333.142 89.224 332.5 89.008 331.72 89.008C331.024 89.008 330.412 89.236 329.884 89.692C329.356 90.148 329.056 90.742 328.984 91.474H334.528ZM338.249 89.17H336.593V87.82H338.249V85.246H339.725V87.82H342.047V89.17H339.725V94.588C339.725 94.972 339.797 95.248 339.941 95.416C340.097 95.572 340.361 95.65 340.733 95.65H342.335V97H340.643C339.779 97 339.161 96.808 338.789 96.424C338.429 96.04 338.249 95.434 338.249 94.606V89.17ZM351.83 95.65V97H351.02C350.432 97 350.012 96.88 349.76 96.64C349.508 96.4 349.376 96.046 349.364 95.578C348.656 96.598 347.63 97.108 346.286 97.108C345.266 97.108 344.444 96.868 343.82 96.388C343.208 95.908 342.902 95.254 342.902 94.426C342.902 93.502 343.214 92.794 343.838 92.302C344.474 91.81 345.392 91.564 346.592 91.564H349.292V90.934C349.292 90.334 349.088 89.866 348.68 89.53C348.284 89.194 347.726 89.026 347.006 89.026C346.37 89.026 345.842 89.17 345.422 89.458C345.014 89.734 344.762 90.106 344.666 90.574H343.19C343.298 89.674 343.694 88.972 344.378 88.468C345.074 87.964 345.974 87.712 347.078 87.712C348.254 87.712 349.16 88 349.796 88.576C350.444 89.14 350.768 89.956 350.768 91.024V94.984C350.768 95.428 350.972 95.65 351.38 95.65H351.83ZM349.292 92.806H346.448C345.08 92.806 344.396 93.316 344.396 94.336C344.396 94.792 344.576 95.158 344.936 95.434C345.296 95.71 345.782 95.848 346.394 95.848C347.294 95.848 348.002 95.614 348.518 95.146C349.034 94.666 349.292 94.036 349.292 93.256V92.806ZM353.703 84.274C353.979 84.274 354.207 84.364 354.387 84.544C354.567 84.724 354.657 84.952 354.657 85.228C354.657 85.504 354.567 85.732 354.387 85.912C354.207 86.092 353.979 86.182 353.703 86.182C353.427 86.182 353.199 86.092 353.019 85.912C352.839 85.732 352.749 85.504 352.749 85.228C352.749 84.952 352.839 84.724 353.019 84.544C353.199 84.364 353.427 84.274 353.703 84.274ZM352.965 87.82H354.441V97H352.965V87.82ZM360.963 87.712C362.079 87.712 362.973 88.048 363.645 88.72C364.329 89.392 364.671 90.448 364.671 91.888V97H363.195V91.978C363.195 91.03 362.979 90.31 362.547 89.818C362.127 89.314 361.515 89.062 360.711 89.062C359.847 89.062 359.169 89.362 358.677 89.962C358.185 90.562 357.939 91.378 357.939 92.41V97H356.463V87.82H357.741L357.939 89.062C358.635 88.162 359.643 87.712 360.963 87.712ZM371.876 89.17H370.22V87.82H371.876V85.246H373.352V87.82H375.674V89.17H373.352V94.588C373.352 94.972 373.424 95.248 373.568 95.416C373.724 95.572 373.988 95.65 374.36 95.65H375.962V97H374.27C373.406 97 372.788 96.808 372.416 96.424C372.056 96.04 371.876 95.434 371.876 94.606V89.17ZM381.512 87.712C382.628 87.712 383.528 88.048 384.212 88.72C384.896 89.392 385.238 90.448 385.238 91.888V97H383.762V91.978C383.762 91.03 383.546 90.31 383.114 89.818C382.682 89.314 382.064 89.062 381.26 89.062C380.408 89.062 379.73 89.362 379.226 89.962C378.734 90.562 378.488 91.378 378.488 92.41V97H377.012V84.4H378.488V89.332C378.788 88.852 379.184 88.462 379.676 88.162C380.18 87.862 380.792 87.712 381.512 87.712ZM386.795 92.41C386.795 91.474 386.975 90.652 387.335 89.944C387.707 89.236 388.223 88.69 388.883 88.306C389.543 87.91 390.299 87.712 391.151 87.712C391.991 87.712 392.735 87.886 393.383 88.234C394.031 88.582 394.541 89.086 394.913 89.746C395.285 90.406 395.483 91.18 395.507 92.068C395.507 92.2 395.495 92.41 395.471 92.698H388.343V92.824C388.367 93.724 388.643 94.444 389.171 94.984C389.699 95.524 390.389 95.794 391.241 95.794C391.901 95.794 392.459 95.632 392.915 95.308C393.383 94.972 393.695 94.51 393.851 93.922H395.345C395.165 94.858 394.715 95.626 393.995 96.226C393.275 96.814 392.393 97.108 391.349 97.108C390.437 97.108 389.639 96.916 388.955 96.532C388.271 96.136 387.737 95.584 387.353 94.876C386.981 94.156 386.795 93.334 386.795 92.41ZM393.977 91.474C393.905 90.694 393.611 90.088 393.095 89.656C392.591 89.224 391.949 89.008 391.169 89.008C390.473 89.008 389.861 89.236 389.333 89.692C388.805 90.148 388.505 90.742 388.433 91.474H393.977ZM407.434 87.712C408.466 87.712 409.3 88.036 409.936 88.684C410.584 89.332 410.908 90.34 410.908 91.708V97H409.432V91.798C409.432 90.91 409.24 90.232 408.856 89.764C408.484 89.296 407.95 89.062 407.254 89.062C406.486 89.062 405.88 89.332 405.436 89.872C405.004 90.412 404.788 91.15 404.788 92.086V97H403.312V91.798C403.312 90.91 403.12 90.232 402.736 89.764C402.352 89.296 401.806 89.062 401.098 89.062C400.354 89.062 399.76 89.35 399.316 89.926C398.884 90.49 398.668 91.234 398.668 92.158V97H397.192V87.82H398.47L398.668 89.08C399.328 88.168 400.222 87.712 401.35 87.712C402.01 87.712 402.592 87.862 403.096 88.162C403.612 88.45 403.996 88.882 404.248 89.458C404.908 88.294 405.97 87.712 407.434 87.712ZM412.621 96.1C412.621 95.8 412.717 95.56 412.909 95.38C413.101 95.188 413.347 95.092 413.647 95.092C413.947 95.092 414.193 95.188 414.385 95.38C414.577 95.56 414.673 95.8 414.673 96.1C414.673 96.4 414.577 96.646 414.385 96.838C414.193 97.018 413.947 97.108 413.647 97.108C413.347 97.108 413.101 97.018 412.909 96.838C412.717 96.646 412.621 96.4 412.621 96.1Z" fill="black"/>
<path d="M574.804 418C574.804 419.473 575.997 420.667 577.47 420.667C578.943 420.667 580.137 419.473 580.137 418C580.137 416.527 578.943 415.333 577.47 415.333C575.997 415.333 574.804 416.527 574.804 418ZM451 75L450.645 75.3516C451.091 75.8032 451.542 76.2633 451.997 76.7317L452.356 76.3833L452.714 76.0349C452.257 75.5644 451.804 75.1022 451.355 74.6484L451 75ZM455.14 79.2998L454.775 79.642C455.652 80.5759 456.541 81.5385 457.443 82.5292L457.813 82.1926L458.183 81.856C457.277 80.8616 456.384 79.8953 455.504 78.9576L455.14 79.2998ZM460.505 85.1915L460.13 85.5229C460.987 86.4904 461.853 87.4818 462.728 88.4968L463.107 88.1702L463.485 87.8437C462.607 86.8255 461.738 85.8309 460.879 84.8602L460.505 85.1915ZM465.707 91.2238L465.324 91.5457C466.162 92.5417 467.008 93.5583 467.86 94.5952L468.246 94.2777L468.633 93.9602C467.778 92.9204 466.93 91.9009 466.09 90.9019L465.707 91.2238ZM470.773 97.3864L470.383 97.6997C471.201 98.7166 472.024 99.7515 472.852 100.804L473.245 100.495L473.638 100.186C472.808 99.1304 471.982 98.0928 471.163 97.0732L470.773 97.3864ZM475.711 103.662L475.315 103.967C476.111 105 476.911 106.049 477.715 107.113L478.114 106.811L478.513 106.51C477.707 105.443 476.905 104.392 476.107 103.357L475.711 103.662ZM480.529 110.04L480.128 110.338C480.902 111.383 481.679 112.442 482.459 113.516L482.864 113.222L483.268 112.928C482.486 111.852 481.707 110.79 480.931 109.742L480.529 110.04ZM485.215 116.487L484.807 116.777C485.566 117.842 486.328 118.919 487.091 120.009L487.5 119.722L487.91 119.435C487.145 118.343 486.382 117.263 485.622 116.197L485.215 116.487ZM489.778 123.005L489.366 123.288C490.115 124.377 490.865 125.477 491.616 126.59L492.03 126.31L492.445 126.03C491.692 124.915 490.94 123.812 490.19 122.722L489.778 123.005ZM494.237 129.608L493.821 129.884C494.557 130.994 495.293 132.115 496.031 133.247L496.45 132.974L496.869 132.701C496.13 131.567 495.391 130.443 494.654 129.332L494.237 129.608ZM498.595 136.296L498.174 136.565C498.887 137.678 499.6 138.802 500.313 139.935L500.736 139.669L501.159 139.403C500.445 138.267 499.73 137.141 499.016 136.026L498.595 136.296ZM502.854 143.067L502.429 143.33C503.119 144.446 503.809 145.572 504.498 146.707L504.926 146.448L505.353 146.188C504.662 145.051 503.971 143.923 503.28 142.804L502.854 143.067ZM506.994 149.885L506.565 150.141C507.24 151.273 507.915 152.413 508.588 153.562L509.02 153.309L509.451 153.056C508.776 151.905 508.1 150.762 507.424 149.629L506.994 149.885ZM511.019 156.75L510.586 157C511.251 158.154 511.915 159.317 512.577 160.488L513.013 160.242L513.448 159.996C512.784 158.822 512.118 157.657 511.452 156.5L511.019 156.75ZM514.95 163.697L514.513 163.94C515.155 165.096 515.796 166.259 516.435 167.43L516.874 167.191L517.313 166.951C516.673 165.778 516.03 164.612 515.387 163.454L514.95 163.697ZM518.786 170.725L518.346 170.961C518.966 172.118 519.584 173.282 520.201 174.454L520.643 174.221L521.086 173.988C520.468 172.814 519.848 171.648 519.227 170.489L518.786 170.725ZM522.49 177.761L522.046 177.991C522.656 179.172 523.265 180.361 523.872 181.557L524.317 181.331L524.763 181.105C524.156 179.906 523.546 178.715 522.934 177.532L522.49 177.761ZM526.097 184.872L525.649 185.095C526.24 186.282 526.828 187.475 527.414 188.674L527.864 188.455L528.313 188.236C527.726 187.033 527.136 185.838 526.545 184.65L526.097 184.872ZM529.608 192.062L529.158 192.278C529.726 193.465 530.292 194.659 530.856 195.858L531.308 195.645L531.761 195.433C531.196 194.231 530.629 193.036 530.059 191.846L529.608 192.062ZM532.993 199.266L532.539 199.476C533.095 200.684 533.649 201.899 534.2 203.119L534.656 202.914L535.111 202.708C534.559 201.485 534.004 200.268 533.447 199.057L532.993 199.266ZM536.274 206.535L535.816 206.737C536.352 207.949 536.885 209.166 537.415 210.39L537.874 210.191L538.333 209.992C537.802 208.766 537.268 207.546 536.731 206.332L536.274 206.535ZM539.455 213.879L538.994 214.074C539.508 215.286 540.019 216.504 540.527 217.727L540.989 217.535L541.451 217.343C540.942 216.118 540.43 214.898 539.915 213.684L539.455 213.879ZM542.504 221.224L542.04 221.412C542.542 222.646 543.039 223.886 543.534 225.131L543.999 224.946L544.463 224.762C543.968 223.514 543.469 222.272 542.967 221.036L542.504 221.224ZM545.45 228.642L544.984 228.823C545.462 230.056 545.938 231.295 546.41 232.539L546.877 232.361L547.345 232.184C546.872 230.938 546.396 229.697 545.916 228.461L545.45 228.642ZM548.283 236.112L547.814 236.285C548.273 237.526 548.729 238.771 549.181 240.021L549.651 239.851L550.121 239.681C549.669 238.428 549.212 237.181 548.752 235.938L548.283 236.112ZM550.989 243.599L550.518 243.765C550.96 245.018 551.398 246.275 551.832 247.538L552.305 247.375L552.777 247.213C552.343 245.948 551.904 244.688 551.461 243.432L550.989 243.599ZM553.588 251.157L553.114 251.316C553.533 252.568 553.948 253.825 554.36 255.086L554.835 254.931L555.31 254.776C554.898 253.512 554.482 252.253 554.062 250.998L553.588 251.157ZM556.058 258.732L555.581 258.884C555.984 260.152 556.382 261.426 556.776 262.703L557.254 262.556L557.732 262.409C557.337 261.128 556.938 259.853 556.534 258.581L556.058 258.732ZM558.408 266.354L557.929 266.498C558.31 267.767 558.686 269.04 559.057 270.318L559.537 270.178L560.017 270.039C559.645 268.758 559.268 267.482 558.887 266.211L558.408 266.354ZM560.639 274.027L560.158 274.163C560.517 275.436 560.871 276.713 561.221 277.995L561.703 277.863L562.186 277.731C561.835 276.447 561.48 275.167 561.12 273.892L560.639 274.027ZM562.736 281.708L562.253 281.835C562.592 283.119 562.927 284.408 563.257 285.7L563.741 285.576L564.226 285.452C563.895 284.157 563.56 282.867 563.22 281.58L562.736 281.708ZM564.714 289.452L564.228 289.572C564.545 290.855 564.856 292.141 565.163 293.431L565.649 293.315L566.136 293.2C565.828 291.907 565.516 290.618 565.199 289.333L564.714 289.452ZM566.555 297.201L566.068 297.312C566.365 298.61 566.657 299.911 566.943 301.216L567.432 301.108L567.92 301.001C567.633 299.693 567.34 298.389 567.043 297.089L566.555 297.201ZM568.269 304.996L567.78 305.099C568.053 306.394 568.322 307.693 568.585 308.995L569.075 308.896L569.565 308.797C569.301 307.492 569.032 306.191 568.759 304.893L568.269 304.996ZM569.85 312.817L569.359 312.912C569.611 314.216 569.858 315.523 570.099 316.834L570.591 316.743L571.083 316.653C570.841 315.339 570.593 314.029 570.341 312.722L569.85 312.817ZM571.294 320.656L570.802 320.742C571.031 322.048 571.254 323.358 571.473 324.67L571.966 324.588L572.459 324.506C572.24 323.191 572.016 321.878 571.787 320.569L571.294 320.656ZM572.606 328.54L572.112 328.618C572.317 329.924 572.518 331.234 572.712 332.547L573.207 332.474L573.702 332.4C573.506 331.084 573.306 329.772 573.1 328.462L572.606 328.54ZM573.774 336.414L573.279 336.483C573.462 337.799 573.64 339.117 573.812 340.438L574.308 340.374L574.804 340.309C574.631 338.985 574.453 337.664 574.269 336.345L573.774 336.414ZM574.807 344.343L574.311 344.403C574.47 345.714 574.623 347.028 574.771 348.345L575.268 348.289L575.765 348.233C575.617 346.914 575.463 345.597 575.304 344.283L574.807 344.343ZM575.695 352.253L575.197 352.304C575.334 353.627 575.465 354.952 575.589 356.28L576.087 356.234L576.585 356.187C576.46 354.856 576.329 353.527 576.192 352.202L575.695 352.253ZM576.442 360.205L575.944 360.248C576.056 361.565 576.162 362.885 576.262 364.208L576.761 364.171L577.259 364.133C577.159 362.807 577.053 361.484 576.941 360.163L576.442 360.205ZM577.044 368.152L576.545 368.185C576.634 369.513 576.716 370.844 576.793 372.177L577.292 372.148L577.791 372.12C577.714 370.783 577.632 369.45 577.543 368.118L577.044 368.152ZM577.501 376.119L577.002 376.143C577.066 377.465 577.123 378.79 577.175 380.116L577.675 380.097L578.174 380.078C578.122 378.748 578.065 377.42 578.001 376.095L577.501 376.119ZM577.811 384.09L577.312 384.104C577.351 385.434 577.384 386.767 577.412 388.102L577.911 388.091L578.411 388.081C578.384 386.743 578.351 385.408 578.311 384.075L577.811 384.09ZM577.974 392.062L577.474 392.068C577.489 393.392 577.497 394.719 577.499 396.048L577.999 396.047L578.499 396.046C578.497 394.714 578.488 393.384 578.474 392.057L577.974 392.062ZM577.988 400.045L577.488 400.042C577.477 401.369 577.461 402.699 577.438 404.032L577.938 404.04L578.438 404.049C578.461 402.713 578.477 401.38 578.488 400.049L577.988 400.045ZM577.852 408.013L577.352 408C577.317 409.325 577.276 410.651 577.228 411.981L577.728 411.998L578.228 412.016C578.275 410.684 578.317 409.354 578.352 408.026L577.852 408.013ZM577.566 415.996L577.066 415.974C577.036 416.64 577.004 417.307 576.971 417.975L577.47 418L577.97 418.025C578.003 417.356 578.035 416.687 578.065 416.019L577.566 415.996Z" fill="white"/>
<rect x="49" y="60" width="31" height="31" rx="4" fill="#5A7E83"/>
<path d="M71.2222 84V82.1112C71.2222 81.1092 70.8242 80.1483 70.1157 79.4399C69.4073 78.7314 68.4464 78.3334 67.4444 78.3334H61.7778C60.7758 78.3334 59.815 78.7314 59.1065 79.4399C58.398 80.1483 58 81.1092 58 82.1112V84" stroke="white" stroke-width="1.5" stroke-linecap="round" stroke-linejoin="round"/>
<path d="M64.6118 74.5556C66.6982 74.5556 68.3895 72.8642 68.3895 70.7778C68.3895 68.6914 66.6982 67 64.6118 67C62.5254 67 60.834 68.6914 60.834 70.7778C60.834 72.8642 62.5254 74.5556 64.6118 74.5556Z" stroke="white" stroke-width="1.5" stroke-linecap="round" stroke-linejoin="round"/>
</svg>
